G04 #@! TF.GenerationSoftware,KiCad,Pcbnew,5.1.0-060a0da~80~ubuntu18.04.1*
G04 #@! TF.CreationDate,2019-06-10T00:34:36+02:00*
G04 #@! TF.ProjectId,TinyFPGA-BX,54696e79-4650-4474-912d-42582e6b6963,rev?*
G04 #@! TF.SameCoordinates,Original*
G04 #@! TF.FileFunction,Soldermask,Top*
G04 #@! TF.FilePolarity,Negative*
%FSLAX46Y46*%
G04 Gerber Fmt 4.6, Leading zero omitted, Abs format (unit mm)*
G04 Created by KiCad (PCBNEW 5.1.0-060a0da~80~ubuntu18.04.1) date 2019-06-10 00:34:36*
%MOMM*%
%LPD*%
G04 APERTURE LIST*
%ADD10C,0.450000*%
%ADD11C,1.600100*%
%ADD12C,1.900000*%
%ADD13R,1.900000X1.900000*%
%ADD14O,0.200000X0.435000*%
%ADD15O,0.200000X0.430000*%
%ADD16O,0.430000X0.200000*%
%ADD17C,0.300000*%
%ADD18O,0.435000X0.200000*%
%ADD19R,0.700000X0.500000*%
%ADD20R,0.850000X0.900000*%
%ADD21R,0.600000X1.000000*%
%ADD22R,0.900000X0.900000*%
%ADD23R,1.000000X1.100000*%
%ADD24R,0.500000X0.700000*%
%ADD25R,0.600000X0.700000*%
%ADD26R,0.700000X0.480000*%
%ADD27R,0.700000X0.600000*%
%ADD28R,0.550000X1.050000*%
%ADD29R,1.150000X0.750000*%
%ADD30R,0.550000X1.480000*%
%ADD31R,1.575000X2.200000*%
%ADD32R,2.475000X2.000000*%
%ADD33R,1.275000X2.000000*%
%ADD34R,1.650000X0.700000*%
%ADD35C,0.100000*%
%ADD36C,0.690000*%
%ADD37R,1.800000X1.800000*%
%ADD38O,1.800000X1.800000*%
%ADD39R,1.600000X0.650000*%
%ADD40R,1.220000X2.260000*%
%ADD41R,0.730000X0.550000*%
%ADD42R,1.800000X2.700000*%
%ADD43R,0.354000X0.775000*%
%ADD44R,0.775000X0.354000*%
%ADD45R,5.100000X5.100000*%
%ADD46R,2.100000X1.000000*%
%ADD47R,1.000000X2.100000*%
%ADD48C,0.400000*%
%ADD49R,0.550000X0.850000*%
G04 APERTURE END LIST*
D10*
X141476000Y-112649000D02*
G75*
G03X141476000Y-112649000I-805000J0D01*
G01*
D11*
X159600000Y-119619000D03*
D12*
X158860000Y-114409000D03*
X161400000Y-115679000D03*
X158860000Y-116949000D03*
D13*
X161400000Y-118219000D03*
D14*
X152730000Y-115714000D03*
D15*
X152330000Y-115714000D03*
D14*
X151930000Y-115714000D03*
X151530000Y-115714000D03*
X151130000Y-115714000D03*
X150730000Y-115714000D03*
X150330000Y-115714000D03*
D15*
X149930000Y-115714000D03*
D14*
X149530000Y-115714000D03*
D16*
X152730000Y-115314000D03*
D17*
X152330000Y-115314000D03*
X151930000Y-115314000D03*
X151530000Y-115314000D03*
X151130000Y-115314000D03*
X150730000Y-115314000D03*
X150330000Y-115314000D03*
X149930000Y-115314000D03*
D16*
X149530000Y-115314000D03*
D18*
X152730000Y-114914000D03*
D17*
X152330000Y-114914000D03*
X151930000Y-114914000D03*
X151530000Y-114914000D03*
X151130000Y-114914000D03*
X150730000Y-114914000D03*
X150330000Y-114914000D03*
X149930000Y-114914000D03*
D18*
X149530000Y-114914000D03*
X152730000Y-114514000D03*
D17*
X152330000Y-114514000D03*
X151930000Y-114514000D03*
X151530000Y-114514000D03*
X151130000Y-114514000D03*
X150730000Y-114514000D03*
X150330000Y-114514000D03*
X149930000Y-114514000D03*
X149530000Y-114514000D03*
D18*
X152730000Y-114114000D03*
D17*
X152330000Y-114114000D03*
X151930000Y-114114000D03*
X151530000Y-114114000D03*
X151130000Y-114114000D03*
X150730000Y-114114000D03*
X150330000Y-114114000D03*
X149930000Y-114114000D03*
D18*
X149530000Y-114114000D03*
X152730000Y-113714000D03*
D17*
X152330000Y-113714000D03*
X151930000Y-113714000D03*
X151530000Y-113714000D03*
X151130000Y-113714000D03*
X150730000Y-113714000D03*
X150330000Y-113714000D03*
X149930000Y-113714000D03*
D18*
X149530000Y-113714000D03*
X152730000Y-113314000D03*
D17*
X152330000Y-113314000D03*
X151930000Y-113314000D03*
X151530000Y-113314000D03*
X151130000Y-113314000D03*
X150730000Y-113314000D03*
X150330000Y-113314000D03*
X149930000Y-113314000D03*
D18*
X149530000Y-113314000D03*
D17*
X152730000Y-112914000D03*
X152330000Y-112914000D03*
X151930000Y-112914000D03*
X151530000Y-112914000D03*
X151130000Y-112914000D03*
X150730000Y-112914000D03*
X150330000Y-112914000D03*
X149930000Y-112914000D03*
D16*
X149530000Y-112914000D03*
D14*
X152730000Y-112514000D03*
X152330000Y-112514000D03*
X151930000Y-112514000D03*
X151530000Y-112514000D03*
D17*
X151130000Y-112514000D03*
D14*
X150730000Y-112514000D03*
X150330000Y-112514000D03*
D15*
X149930000Y-112514000D03*
D14*
X149530000Y-112514000D03*
D19*
X154536000Y-129923100D03*
X154536000Y-130823100D03*
D20*
X151736000Y-119373100D03*
X151736000Y-120873100D03*
X156036000Y-101673100D03*
X156036000Y-100173100D03*
D21*
X154636000Y-102423100D03*
X153136000Y-102423100D03*
D19*
X146183000Y-105223100D03*
X146183000Y-106123100D03*
X148215000Y-105223100D03*
X148215000Y-106123100D03*
D22*
X148215000Y-102587100D03*
X148215000Y-104187100D03*
X146183000Y-102587100D03*
X146183000Y-104187100D03*
D23*
X149086000Y-108423100D03*
X149086000Y-110323100D03*
X146986000Y-110323100D03*
X146986000Y-108423100D03*
D24*
X146450000Y-126954000D03*
X147350000Y-126954000D03*
D25*
X150555000Y-117864000D03*
X150555000Y-118964000D03*
D26*
X156130000Y-114864000D03*
X156130000Y-115764000D03*
D27*
X153830000Y-114164000D03*
X154930000Y-114164000D03*
D25*
X151130000Y-111514000D03*
X151130000Y-110414000D03*
D27*
X153555000Y-112439000D03*
X154655000Y-112439000D03*
X147986000Y-114923100D03*
X146886000Y-114923100D03*
X147986000Y-114123100D03*
X146886000Y-114123100D03*
X149069800Y-107349500D03*
X147969800Y-107349500D03*
D25*
X153255000Y-116964000D03*
X153255000Y-118064000D03*
X148836000Y-117273100D03*
X148836000Y-118373100D03*
X151736000Y-117123100D03*
X151736000Y-118223100D03*
D19*
X152936000Y-120873100D03*
X152936000Y-119973100D03*
D25*
X155336000Y-122373100D03*
X155336000Y-123473100D03*
D19*
X149636000Y-102273100D03*
X149636000Y-103173100D03*
X150636000Y-103173100D03*
X150636000Y-102273100D03*
X151636000Y-103173100D03*
X151636000Y-102273100D03*
D28*
X153936000Y-107623100D03*
X153286000Y-107623100D03*
X154586000Y-107623100D03*
X153286000Y-109823100D03*
X154586000Y-109823100D03*
D27*
X155386000Y-109923100D03*
X156486000Y-109923100D03*
D25*
X145340000Y-95624000D03*
X145340000Y-96724000D03*
X140110000Y-97054000D03*
X140110000Y-98154000D03*
D27*
X155386000Y-107523100D03*
X156486000Y-107523100D03*
D29*
X149155000Y-128369000D03*
X153305000Y-128369000D03*
X153305000Y-130519000D03*
X149155000Y-130519000D03*
D24*
X154690000Y-127064000D03*
X155590000Y-127064000D03*
D30*
X152470000Y-100164000D03*
X151820000Y-100164000D03*
X151170000Y-100164000D03*
X150520000Y-100164000D03*
X149870000Y-100164000D03*
D31*
X153632500Y-99804000D03*
X148707500Y-99804000D03*
D32*
X154080000Y-97504000D03*
X148260000Y-97504000D03*
D33*
X152010000Y-97504000D03*
X150330000Y-97504000D03*
D34*
X148436000Y-122353100D03*
X148436000Y-123623100D03*
X148436000Y-124893100D03*
X148436000Y-126163100D03*
X153836000Y-126163100D03*
X153836000Y-124893100D03*
X153836000Y-123623100D03*
X153836000Y-122353100D03*
D35*
G36*
X184390408Y-121811831D02*
G01*
X184407153Y-121814315D01*
X184423574Y-121818428D01*
X184439513Y-121824131D01*
X184454816Y-121831369D01*
X184469336Y-121840071D01*
X184482933Y-121850156D01*
X184495476Y-121861524D01*
X184506844Y-121874067D01*
X184516929Y-121887664D01*
X184525631Y-121902184D01*
X184532869Y-121917487D01*
X184538572Y-121933426D01*
X184542685Y-121949847D01*
X184545169Y-121966592D01*
X184546000Y-121983500D01*
X184546000Y-122328500D01*
X184545169Y-122345408D01*
X184542685Y-122362153D01*
X184538572Y-122378574D01*
X184532869Y-122394513D01*
X184525631Y-122409816D01*
X184516929Y-122424336D01*
X184506844Y-122437933D01*
X184495476Y-122450476D01*
X184482933Y-122461844D01*
X184469336Y-122471929D01*
X184454816Y-122480631D01*
X184439513Y-122487869D01*
X184423574Y-122493572D01*
X184407153Y-122497685D01*
X184390408Y-122500169D01*
X184373500Y-122501000D01*
X183978500Y-122501000D01*
X183961592Y-122500169D01*
X183944847Y-122497685D01*
X183928426Y-122493572D01*
X183912487Y-122487869D01*
X183897184Y-122480631D01*
X183882664Y-122471929D01*
X183869067Y-122461844D01*
X183856524Y-122450476D01*
X183845156Y-122437933D01*
X183835071Y-122424336D01*
X183826369Y-122409816D01*
X183819131Y-122394513D01*
X183813428Y-122378574D01*
X183809315Y-122362153D01*
X183806831Y-122345408D01*
X183806000Y-122328500D01*
X183806000Y-121983500D01*
X183806831Y-121966592D01*
X183809315Y-121949847D01*
X183813428Y-121933426D01*
X183819131Y-121917487D01*
X183826369Y-121902184D01*
X183835071Y-121887664D01*
X183845156Y-121874067D01*
X183856524Y-121861524D01*
X183869067Y-121850156D01*
X183882664Y-121840071D01*
X183897184Y-121831369D01*
X183912487Y-121824131D01*
X183928426Y-121818428D01*
X183944847Y-121814315D01*
X183961592Y-121811831D01*
X183978500Y-121811000D01*
X184373500Y-121811000D01*
X184390408Y-121811831D01*
X184390408Y-121811831D01*
G37*
D36*
X184176000Y-122156000D03*
D35*
G36*
X184390408Y-122781831D02*
G01*
X184407153Y-122784315D01*
X184423574Y-122788428D01*
X184439513Y-122794131D01*
X184454816Y-122801369D01*
X184469336Y-122810071D01*
X184482933Y-122820156D01*
X184495476Y-122831524D01*
X184506844Y-122844067D01*
X184516929Y-122857664D01*
X184525631Y-122872184D01*
X184532869Y-122887487D01*
X184538572Y-122903426D01*
X184542685Y-122919847D01*
X184545169Y-122936592D01*
X184546000Y-122953500D01*
X184546000Y-123298500D01*
X184545169Y-123315408D01*
X184542685Y-123332153D01*
X184538572Y-123348574D01*
X184532869Y-123364513D01*
X184525631Y-123379816D01*
X184516929Y-123394336D01*
X184506844Y-123407933D01*
X184495476Y-123420476D01*
X184482933Y-123431844D01*
X184469336Y-123441929D01*
X184454816Y-123450631D01*
X184439513Y-123457869D01*
X184423574Y-123463572D01*
X184407153Y-123467685D01*
X184390408Y-123470169D01*
X184373500Y-123471000D01*
X183978500Y-123471000D01*
X183961592Y-123470169D01*
X183944847Y-123467685D01*
X183928426Y-123463572D01*
X183912487Y-123457869D01*
X183897184Y-123450631D01*
X183882664Y-123441929D01*
X183869067Y-123431844D01*
X183856524Y-123420476D01*
X183845156Y-123407933D01*
X183835071Y-123394336D01*
X183826369Y-123379816D01*
X183819131Y-123364513D01*
X183813428Y-123348574D01*
X183809315Y-123332153D01*
X183806831Y-123315408D01*
X183806000Y-123298500D01*
X183806000Y-122953500D01*
X183806831Y-122936592D01*
X183809315Y-122919847D01*
X183813428Y-122903426D01*
X183819131Y-122887487D01*
X183826369Y-122872184D01*
X183835071Y-122857664D01*
X183845156Y-122844067D01*
X183856524Y-122831524D01*
X183869067Y-122820156D01*
X183882664Y-122810071D01*
X183897184Y-122801369D01*
X183912487Y-122794131D01*
X183928426Y-122788428D01*
X183944847Y-122784315D01*
X183961592Y-122781831D01*
X183978500Y-122781000D01*
X184373500Y-122781000D01*
X184390408Y-122781831D01*
X184390408Y-122781831D01*
G37*
D36*
X184176000Y-123126000D03*
D35*
G36*
X186640408Y-119296831D02*
G01*
X186657153Y-119299315D01*
X186673574Y-119303428D01*
X186689513Y-119309131D01*
X186704816Y-119316369D01*
X186719336Y-119325071D01*
X186732933Y-119335156D01*
X186745476Y-119346524D01*
X186756844Y-119359067D01*
X186766929Y-119372664D01*
X186775631Y-119387184D01*
X186782869Y-119402487D01*
X186788572Y-119418426D01*
X186792685Y-119434847D01*
X186795169Y-119451592D01*
X186796000Y-119468500D01*
X186796000Y-119813500D01*
X186795169Y-119830408D01*
X186792685Y-119847153D01*
X186788572Y-119863574D01*
X186782869Y-119879513D01*
X186775631Y-119894816D01*
X186766929Y-119909336D01*
X186756844Y-119922933D01*
X186745476Y-119935476D01*
X186732933Y-119946844D01*
X186719336Y-119956929D01*
X186704816Y-119965631D01*
X186689513Y-119972869D01*
X186673574Y-119978572D01*
X186657153Y-119982685D01*
X186640408Y-119985169D01*
X186623500Y-119986000D01*
X186228500Y-119986000D01*
X186211592Y-119985169D01*
X186194847Y-119982685D01*
X186178426Y-119978572D01*
X186162487Y-119972869D01*
X186147184Y-119965631D01*
X186132664Y-119956929D01*
X186119067Y-119946844D01*
X186106524Y-119935476D01*
X186095156Y-119922933D01*
X186085071Y-119909336D01*
X186076369Y-119894816D01*
X186069131Y-119879513D01*
X186063428Y-119863574D01*
X186059315Y-119847153D01*
X186056831Y-119830408D01*
X186056000Y-119813500D01*
X186056000Y-119468500D01*
X186056831Y-119451592D01*
X186059315Y-119434847D01*
X186063428Y-119418426D01*
X186069131Y-119402487D01*
X186076369Y-119387184D01*
X186085071Y-119372664D01*
X186095156Y-119359067D01*
X186106524Y-119346524D01*
X186119067Y-119335156D01*
X186132664Y-119325071D01*
X186147184Y-119316369D01*
X186162487Y-119309131D01*
X186178426Y-119303428D01*
X186194847Y-119299315D01*
X186211592Y-119296831D01*
X186228500Y-119296000D01*
X186623500Y-119296000D01*
X186640408Y-119296831D01*
X186640408Y-119296831D01*
G37*
D36*
X186426000Y-119641000D03*
D35*
G36*
X186640408Y-120266831D02*
G01*
X186657153Y-120269315D01*
X186673574Y-120273428D01*
X186689513Y-120279131D01*
X186704816Y-120286369D01*
X186719336Y-120295071D01*
X186732933Y-120305156D01*
X186745476Y-120316524D01*
X186756844Y-120329067D01*
X186766929Y-120342664D01*
X186775631Y-120357184D01*
X186782869Y-120372487D01*
X186788572Y-120388426D01*
X186792685Y-120404847D01*
X186795169Y-120421592D01*
X186796000Y-120438500D01*
X186796000Y-120783500D01*
X186795169Y-120800408D01*
X186792685Y-120817153D01*
X186788572Y-120833574D01*
X186782869Y-120849513D01*
X186775631Y-120864816D01*
X186766929Y-120879336D01*
X186756844Y-120892933D01*
X186745476Y-120905476D01*
X186732933Y-120916844D01*
X186719336Y-120926929D01*
X186704816Y-120935631D01*
X186689513Y-120942869D01*
X186673574Y-120948572D01*
X186657153Y-120952685D01*
X186640408Y-120955169D01*
X186623500Y-120956000D01*
X186228500Y-120956000D01*
X186211592Y-120955169D01*
X186194847Y-120952685D01*
X186178426Y-120948572D01*
X186162487Y-120942869D01*
X186147184Y-120935631D01*
X186132664Y-120926929D01*
X186119067Y-120916844D01*
X186106524Y-120905476D01*
X186095156Y-120892933D01*
X186085071Y-120879336D01*
X186076369Y-120864816D01*
X186069131Y-120849513D01*
X186063428Y-120833574D01*
X186059315Y-120817153D01*
X186056831Y-120800408D01*
X186056000Y-120783500D01*
X186056000Y-120438500D01*
X186056831Y-120421592D01*
X186059315Y-120404847D01*
X186063428Y-120388426D01*
X186069131Y-120372487D01*
X186076369Y-120357184D01*
X186085071Y-120342664D01*
X186095156Y-120329067D01*
X186106524Y-120316524D01*
X186119067Y-120305156D01*
X186132664Y-120295071D01*
X186147184Y-120286369D01*
X186162487Y-120279131D01*
X186178426Y-120273428D01*
X186194847Y-120269315D01*
X186211592Y-120266831D01*
X186228500Y-120266000D01*
X186623500Y-120266000D01*
X186640408Y-120266831D01*
X186640408Y-120266831D01*
G37*
D36*
X186426000Y-120611000D03*
D35*
G36*
X164390408Y-95061831D02*
G01*
X164407153Y-95064315D01*
X164423574Y-95068428D01*
X164439513Y-95074131D01*
X164454816Y-95081369D01*
X164469336Y-95090071D01*
X164482933Y-95100156D01*
X164495476Y-95111524D01*
X164506844Y-95124067D01*
X164516929Y-95137664D01*
X164525631Y-95152184D01*
X164532869Y-95167487D01*
X164538572Y-95183426D01*
X164542685Y-95199847D01*
X164545169Y-95216592D01*
X164546000Y-95233500D01*
X164546000Y-95578500D01*
X164545169Y-95595408D01*
X164542685Y-95612153D01*
X164538572Y-95628574D01*
X164532869Y-95644513D01*
X164525631Y-95659816D01*
X164516929Y-95674336D01*
X164506844Y-95687933D01*
X164495476Y-95700476D01*
X164482933Y-95711844D01*
X164469336Y-95721929D01*
X164454816Y-95730631D01*
X164439513Y-95737869D01*
X164423574Y-95743572D01*
X164407153Y-95747685D01*
X164390408Y-95750169D01*
X164373500Y-95751000D01*
X163978500Y-95751000D01*
X163961592Y-95750169D01*
X163944847Y-95747685D01*
X163928426Y-95743572D01*
X163912487Y-95737869D01*
X163897184Y-95730631D01*
X163882664Y-95721929D01*
X163869067Y-95711844D01*
X163856524Y-95700476D01*
X163845156Y-95687933D01*
X163835071Y-95674336D01*
X163826369Y-95659816D01*
X163819131Y-95644513D01*
X163813428Y-95628574D01*
X163809315Y-95612153D01*
X163806831Y-95595408D01*
X163806000Y-95578500D01*
X163806000Y-95233500D01*
X163806831Y-95216592D01*
X163809315Y-95199847D01*
X163813428Y-95183426D01*
X163819131Y-95167487D01*
X163826369Y-95152184D01*
X163835071Y-95137664D01*
X163845156Y-95124067D01*
X163856524Y-95111524D01*
X163869067Y-95100156D01*
X163882664Y-95090071D01*
X163897184Y-95081369D01*
X163912487Y-95074131D01*
X163928426Y-95068428D01*
X163944847Y-95064315D01*
X163961592Y-95061831D01*
X163978500Y-95061000D01*
X164373500Y-95061000D01*
X164390408Y-95061831D01*
X164390408Y-95061831D01*
G37*
D36*
X164176000Y-95406000D03*
D35*
G36*
X164390408Y-96031831D02*
G01*
X164407153Y-96034315D01*
X164423574Y-96038428D01*
X164439513Y-96044131D01*
X164454816Y-96051369D01*
X164469336Y-96060071D01*
X164482933Y-96070156D01*
X164495476Y-96081524D01*
X164506844Y-96094067D01*
X164516929Y-96107664D01*
X164525631Y-96122184D01*
X164532869Y-96137487D01*
X164538572Y-96153426D01*
X164542685Y-96169847D01*
X164545169Y-96186592D01*
X164546000Y-96203500D01*
X164546000Y-96548500D01*
X164545169Y-96565408D01*
X164542685Y-96582153D01*
X164538572Y-96598574D01*
X164532869Y-96614513D01*
X164525631Y-96629816D01*
X164516929Y-96644336D01*
X164506844Y-96657933D01*
X164495476Y-96670476D01*
X164482933Y-96681844D01*
X164469336Y-96691929D01*
X164454816Y-96700631D01*
X164439513Y-96707869D01*
X164423574Y-96713572D01*
X164407153Y-96717685D01*
X164390408Y-96720169D01*
X164373500Y-96721000D01*
X163978500Y-96721000D01*
X163961592Y-96720169D01*
X163944847Y-96717685D01*
X163928426Y-96713572D01*
X163912487Y-96707869D01*
X163897184Y-96700631D01*
X163882664Y-96691929D01*
X163869067Y-96681844D01*
X163856524Y-96670476D01*
X163845156Y-96657933D01*
X163835071Y-96644336D01*
X163826369Y-96629816D01*
X163819131Y-96614513D01*
X163813428Y-96598574D01*
X163809315Y-96582153D01*
X163806831Y-96565408D01*
X163806000Y-96548500D01*
X163806000Y-96203500D01*
X163806831Y-96186592D01*
X163809315Y-96169847D01*
X163813428Y-96153426D01*
X163819131Y-96137487D01*
X163826369Y-96122184D01*
X163835071Y-96107664D01*
X163845156Y-96094067D01*
X163856524Y-96081524D01*
X163869067Y-96070156D01*
X163882664Y-96060071D01*
X163897184Y-96051369D01*
X163912487Y-96044131D01*
X163928426Y-96038428D01*
X163944847Y-96034315D01*
X163961592Y-96031831D01*
X163978500Y-96031000D01*
X164373500Y-96031000D01*
X164390408Y-96031831D01*
X164390408Y-96031831D01*
G37*
D36*
X164176000Y-96376000D03*
D35*
G36*
X181890408Y-122781831D02*
G01*
X181907153Y-122784315D01*
X181923574Y-122788428D01*
X181939513Y-122794131D01*
X181954816Y-122801369D01*
X181969336Y-122810071D01*
X181982933Y-122820156D01*
X181995476Y-122831524D01*
X182006844Y-122844067D01*
X182016929Y-122857664D01*
X182025631Y-122872184D01*
X182032869Y-122887487D01*
X182038572Y-122903426D01*
X182042685Y-122919847D01*
X182045169Y-122936592D01*
X182046000Y-122953500D01*
X182046000Y-123298500D01*
X182045169Y-123315408D01*
X182042685Y-123332153D01*
X182038572Y-123348574D01*
X182032869Y-123364513D01*
X182025631Y-123379816D01*
X182016929Y-123394336D01*
X182006844Y-123407933D01*
X181995476Y-123420476D01*
X181982933Y-123431844D01*
X181969336Y-123441929D01*
X181954816Y-123450631D01*
X181939513Y-123457869D01*
X181923574Y-123463572D01*
X181907153Y-123467685D01*
X181890408Y-123470169D01*
X181873500Y-123471000D01*
X181478500Y-123471000D01*
X181461592Y-123470169D01*
X181444847Y-123467685D01*
X181428426Y-123463572D01*
X181412487Y-123457869D01*
X181397184Y-123450631D01*
X181382664Y-123441929D01*
X181369067Y-123431844D01*
X181356524Y-123420476D01*
X181345156Y-123407933D01*
X181335071Y-123394336D01*
X181326369Y-123379816D01*
X181319131Y-123364513D01*
X181313428Y-123348574D01*
X181309315Y-123332153D01*
X181306831Y-123315408D01*
X181306000Y-123298500D01*
X181306000Y-122953500D01*
X181306831Y-122936592D01*
X181309315Y-122919847D01*
X181313428Y-122903426D01*
X181319131Y-122887487D01*
X181326369Y-122872184D01*
X181335071Y-122857664D01*
X181345156Y-122844067D01*
X181356524Y-122831524D01*
X181369067Y-122820156D01*
X181382664Y-122810071D01*
X181397184Y-122801369D01*
X181412487Y-122794131D01*
X181428426Y-122788428D01*
X181444847Y-122784315D01*
X181461592Y-122781831D01*
X181478500Y-122781000D01*
X181873500Y-122781000D01*
X181890408Y-122781831D01*
X181890408Y-122781831D01*
G37*
D36*
X181676000Y-123126000D03*
D35*
G36*
X181890408Y-121811831D02*
G01*
X181907153Y-121814315D01*
X181923574Y-121818428D01*
X181939513Y-121824131D01*
X181954816Y-121831369D01*
X181969336Y-121840071D01*
X181982933Y-121850156D01*
X181995476Y-121861524D01*
X182006844Y-121874067D01*
X182016929Y-121887664D01*
X182025631Y-121902184D01*
X182032869Y-121917487D01*
X182038572Y-121933426D01*
X182042685Y-121949847D01*
X182045169Y-121966592D01*
X182046000Y-121983500D01*
X182046000Y-122328500D01*
X182045169Y-122345408D01*
X182042685Y-122362153D01*
X182038572Y-122378574D01*
X182032869Y-122394513D01*
X182025631Y-122409816D01*
X182016929Y-122424336D01*
X182006844Y-122437933D01*
X181995476Y-122450476D01*
X181982933Y-122461844D01*
X181969336Y-122471929D01*
X181954816Y-122480631D01*
X181939513Y-122487869D01*
X181923574Y-122493572D01*
X181907153Y-122497685D01*
X181890408Y-122500169D01*
X181873500Y-122501000D01*
X181478500Y-122501000D01*
X181461592Y-122500169D01*
X181444847Y-122497685D01*
X181428426Y-122493572D01*
X181412487Y-122487869D01*
X181397184Y-122480631D01*
X181382664Y-122471929D01*
X181369067Y-122461844D01*
X181356524Y-122450476D01*
X181345156Y-122437933D01*
X181335071Y-122424336D01*
X181326369Y-122409816D01*
X181319131Y-122394513D01*
X181313428Y-122378574D01*
X181309315Y-122362153D01*
X181306831Y-122345408D01*
X181306000Y-122328500D01*
X181306000Y-121983500D01*
X181306831Y-121966592D01*
X181309315Y-121949847D01*
X181313428Y-121933426D01*
X181319131Y-121917487D01*
X181326369Y-121902184D01*
X181335071Y-121887664D01*
X181345156Y-121874067D01*
X181356524Y-121861524D01*
X181369067Y-121850156D01*
X181382664Y-121840071D01*
X181397184Y-121831369D01*
X181412487Y-121824131D01*
X181428426Y-121818428D01*
X181444847Y-121814315D01*
X181461592Y-121811831D01*
X181478500Y-121811000D01*
X181873500Y-121811000D01*
X181890408Y-121811831D01*
X181890408Y-121811831D01*
G37*
D36*
X181676000Y-122156000D03*
D35*
G36*
X183140408Y-121811831D02*
G01*
X183157153Y-121814315D01*
X183173574Y-121818428D01*
X183189513Y-121824131D01*
X183204816Y-121831369D01*
X183219336Y-121840071D01*
X183232933Y-121850156D01*
X183245476Y-121861524D01*
X183256844Y-121874067D01*
X183266929Y-121887664D01*
X183275631Y-121902184D01*
X183282869Y-121917487D01*
X183288572Y-121933426D01*
X183292685Y-121949847D01*
X183295169Y-121966592D01*
X183296000Y-121983500D01*
X183296000Y-122328500D01*
X183295169Y-122345408D01*
X183292685Y-122362153D01*
X183288572Y-122378574D01*
X183282869Y-122394513D01*
X183275631Y-122409816D01*
X183266929Y-122424336D01*
X183256844Y-122437933D01*
X183245476Y-122450476D01*
X183232933Y-122461844D01*
X183219336Y-122471929D01*
X183204816Y-122480631D01*
X183189513Y-122487869D01*
X183173574Y-122493572D01*
X183157153Y-122497685D01*
X183140408Y-122500169D01*
X183123500Y-122501000D01*
X182728500Y-122501000D01*
X182711592Y-122500169D01*
X182694847Y-122497685D01*
X182678426Y-122493572D01*
X182662487Y-122487869D01*
X182647184Y-122480631D01*
X182632664Y-122471929D01*
X182619067Y-122461844D01*
X182606524Y-122450476D01*
X182595156Y-122437933D01*
X182585071Y-122424336D01*
X182576369Y-122409816D01*
X182569131Y-122394513D01*
X182563428Y-122378574D01*
X182559315Y-122362153D01*
X182556831Y-122345408D01*
X182556000Y-122328500D01*
X182556000Y-121983500D01*
X182556831Y-121966592D01*
X182559315Y-121949847D01*
X182563428Y-121933426D01*
X182569131Y-121917487D01*
X182576369Y-121902184D01*
X182585071Y-121887664D01*
X182595156Y-121874067D01*
X182606524Y-121861524D01*
X182619067Y-121850156D01*
X182632664Y-121840071D01*
X182647184Y-121831369D01*
X182662487Y-121824131D01*
X182678426Y-121818428D01*
X182694847Y-121814315D01*
X182711592Y-121811831D01*
X182728500Y-121811000D01*
X183123500Y-121811000D01*
X183140408Y-121811831D01*
X183140408Y-121811831D01*
G37*
D36*
X182926000Y-122156000D03*
D35*
G36*
X183140408Y-122781831D02*
G01*
X183157153Y-122784315D01*
X183173574Y-122788428D01*
X183189513Y-122794131D01*
X183204816Y-122801369D01*
X183219336Y-122810071D01*
X183232933Y-122820156D01*
X183245476Y-122831524D01*
X183256844Y-122844067D01*
X183266929Y-122857664D01*
X183275631Y-122872184D01*
X183282869Y-122887487D01*
X183288572Y-122903426D01*
X183292685Y-122919847D01*
X183295169Y-122936592D01*
X183296000Y-122953500D01*
X183296000Y-123298500D01*
X183295169Y-123315408D01*
X183292685Y-123332153D01*
X183288572Y-123348574D01*
X183282869Y-123364513D01*
X183275631Y-123379816D01*
X183266929Y-123394336D01*
X183256844Y-123407933D01*
X183245476Y-123420476D01*
X183232933Y-123431844D01*
X183219336Y-123441929D01*
X183204816Y-123450631D01*
X183189513Y-123457869D01*
X183173574Y-123463572D01*
X183157153Y-123467685D01*
X183140408Y-123470169D01*
X183123500Y-123471000D01*
X182728500Y-123471000D01*
X182711592Y-123470169D01*
X182694847Y-123467685D01*
X182678426Y-123463572D01*
X182662487Y-123457869D01*
X182647184Y-123450631D01*
X182632664Y-123441929D01*
X182619067Y-123431844D01*
X182606524Y-123420476D01*
X182595156Y-123407933D01*
X182585071Y-123394336D01*
X182576369Y-123379816D01*
X182569131Y-123364513D01*
X182563428Y-123348574D01*
X182559315Y-123332153D01*
X182556831Y-123315408D01*
X182556000Y-123298500D01*
X182556000Y-122953500D01*
X182556831Y-122936592D01*
X182559315Y-122919847D01*
X182563428Y-122903426D01*
X182569131Y-122887487D01*
X182576369Y-122872184D01*
X182585071Y-122857664D01*
X182595156Y-122844067D01*
X182606524Y-122831524D01*
X182619067Y-122820156D01*
X182632664Y-122810071D01*
X182647184Y-122801369D01*
X182662487Y-122794131D01*
X182678426Y-122788428D01*
X182694847Y-122784315D01*
X182711592Y-122781831D01*
X182728500Y-122781000D01*
X183123500Y-122781000D01*
X183140408Y-122781831D01*
X183140408Y-122781831D01*
G37*
D36*
X182926000Y-123126000D03*
D37*
X184503000Y-127814000D03*
D38*
X181963000Y-127814000D03*
X179423000Y-127814000D03*
X176883000Y-127814000D03*
X174343000Y-127814000D03*
X171803000Y-127814000D03*
X169263000Y-127814000D03*
X166723000Y-127814000D03*
D37*
X186666000Y-96401000D03*
D38*
X186666000Y-98941000D03*
X186666000Y-101481000D03*
X186666000Y-104021000D03*
D35*
G36*
X185640408Y-122781831D02*
G01*
X185657153Y-122784315D01*
X185673574Y-122788428D01*
X185689513Y-122794131D01*
X185704816Y-122801369D01*
X185719336Y-122810071D01*
X185732933Y-122820156D01*
X185745476Y-122831524D01*
X185756844Y-122844067D01*
X185766929Y-122857664D01*
X185775631Y-122872184D01*
X185782869Y-122887487D01*
X185788572Y-122903426D01*
X185792685Y-122919847D01*
X185795169Y-122936592D01*
X185796000Y-122953500D01*
X185796000Y-123298500D01*
X185795169Y-123315408D01*
X185792685Y-123332153D01*
X185788572Y-123348574D01*
X185782869Y-123364513D01*
X185775631Y-123379816D01*
X185766929Y-123394336D01*
X185756844Y-123407933D01*
X185745476Y-123420476D01*
X185732933Y-123431844D01*
X185719336Y-123441929D01*
X185704816Y-123450631D01*
X185689513Y-123457869D01*
X185673574Y-123463572D01*
X185657153Y-123467685D01*
X185640408Y-123470169D01*
X185623500Y-123471000D01*
X185228500Y-123471000D01*
X185211592Y-123470169D01*
X185194847Y-123467685D01*
X185178426Y-123463572D01*
X185162487Y-123457869D01*
X185147184Y-123450631D01*
X185132664Y-123441929D01*
X185119067Y-123431844D01*
X185106524Y-123420476D01*
X185095156Y-123407933D01*
X185085071Y-123394336D01*
X185076369Y-123379816D01*
X185069131Y-123364513D01*
X185063428Y-123348574D01*
X185059315Y-123332153D01*
X185056831Y-123315408D01*
X185056000Y-123298500D01*
X185056000Y-122953500D01*
X185056831Y-122936592D01*
X185059315Y-122919847D01*
X185063428Y-122903426D01*
X185069131Y-122887487D01*
X185076369Y-122872184D01*
X185085071Y-122857664D01*
X185095156Y-122844067D01*
X185106524Y-122831524D01*
X185119067Y-122820156D01*
X185132664Y-122810071D01*
X185147184Y-122801369D01*
X185162487Y-122794131D01*
X185178426Y-122788428D01*
X185194847Y-122784315D01*
X185211592Y-122781831D01*
X185228500Y-122781000D01*
X185623500Y-122781000D01*
X185640408Y-122781831D01*
X185640408Y-122781831D01*
G37*
D36*
X185426000Y-123126000D03*
D35*
G36*
X185640408Y-121811831D02*
G01*
X185657153Y-121814315D01*
X185673574Y-121818428D01*
X185689513Y-121824131D01*
X185704816Y-121831369D01*
X185719336Y-121840071D01*
X185732933Y-121850156D01*
X185745476Y-121861524D01*
X185756844Y-121874067D01*
X185766929Y-121887664D01*
X185775631Y-121902184D01*
X185782869Y-121917487D01*
X185788572Y-121933426D01*
X185792685Y-121949847D01*
X185795169Y-121966592D01*
X185796000Y-121983500D01*
X185796000Y-122328500D01*
X185795169Y-122345408D01*
X185792685Y-122362153D01*
X185788572Y-122378574D01*
X185782869Y-122394513D01*
X185775631Y-122409816D01*
X185766929Y-122424336D01*
X185756844Y-122437933D01*
X185745476Y-122450476D01*
X185732933Y-122461844D01*
X185719336Y-122471929D01*
X185704816Y-122480631D01*
X185689513Y-122487869D01*
X185673574Y-122493572D01*
X185657153Y-122497685D01*
X185640408Y-122500169D01*
X185623500Y-122501000D01*
X185228500Y-122501000D01*
X185211592Y-122500169D01*
X185194847Y-122497685D01*
X185178426Y-122493572D01*
X185162487Y-122487869D01*
X185147184Y-122480631D01*
X185132664Y-122471929D01*
X185119067Y-122461844D01*
X185106524Y-122450476D01*
X185095156Y-122437933D01*
X185085071Y-122424336D01*
X185076369Y-122409816D01*
X185069131Y-122394513D01*
X185063428Y-122378574D01*
X185059315Y-122362153D01*
X185056831Y-122345408D01*
X185056000Y-122328500D01*
X185056000Y-121983500D01*
X185056831Y-121966592D01*
X185059315Y-121949847D01*
X185063428Y-121933426D01*
X185069131Y-121917487D01*
X185076369Y-121902184D01*
X185085071Y-121887664D01*
X185095156Y-121874067D01*
X185106524Y-121861524D01*
X185119067Y-121850156D01*
X185132664Y-121840071D01*
X185147184Y-121831369D01*
X185162487Y-121824131D01*
X185178426Y-121818428D01*
X185194847Y-121814315D01*
X185211592Y-121811831D01*
X185228500Y-121811000D01*
X185623500Y-121811000D01*
X185640408Y-121811831D01*
X185640408Y-121811831D01*
G37*
D36*
X185426000Y-122156000D03*
D35*
G36*
X187927408Y-114944831D02*
G01*
X187944153Y-114947315D01*
X187960574Y-114951428D01*
X187976513Y-114957131D01*
X187991816Y-114964369D01*
X188006336Y-114973071D01*
X188019933Y-114983156D01*
X188032476Y-114994524D01*
X188043844Y-115007067D01*
X188053929Y-115020664D01*
X188062631Y-115035184D01*
X188069869Y-115050487D01*
X188075572Y-115066426D01*
X188079685Y-115082847D01*
X188082169Y-115099592D01*
X188083000Y-115116500D01*
X188083000Y-115511500D01*
X188082169Y-115528408D01*
X188079685Y-115545153D01*
X188075572Y-115561574D01*
X188069869Y-115577513D01*
X188062631Y-115592816D01*
X188053929Y-115607336D01*
X188043844Y-115620933D01*
X188032476Y-115633476D01*
X188019933Y-115644844D01*
X188006336Y-115654929D01*
X187991816Y-115663631D01*
X187976513Y-115670869D01*
X187960574Y-115676572D01*
X187944153Y-115680685D01*
X187927408Y-115683169D01*
X187910500Y-115684000D01*
X187565500Y-115684000D01*
X187548592Y-115683169D01*
X187531847Y-115680685D01*
X187515426Y-115676572D01*
X187499487Y-115670869D01*
X187484184Y-115663631D01*
X187469664Y-115654929D01*
X187456067Y-115644844D01*
X187443524Y-115633476D01*
X187432156Y-115620933D01*
X187422071Y-115607336D01*
X187413369Y-115592816D01*
X187406131Y-115577513D01*
X187400428Y-115561574D01*
X187396315Y-115545153D01*
X187393831Y-115528408D01*
X187393000Y-115511500D01*
X187393000Y-115116500D01*
X187393831Y-115099592D01*
X187396315Y-115082847D01*
X187400428Y-115066426D01*
X187406131Y-115050487D01*
X187413369Y-115035184D01*
X187422071Y-115020664D01*
X187432156Y-115007067D01*
X187443524Y-114994524D01*
X187456067Y-114983156D01*
X187469664Y-114973071D01*
X187484184Y-114964369D01*
X187499487Y-114957131D01*
X187515426Y-114951428D01*
X187531847Y-114947315D01*
X187548592Y-114944831D01*
X187565500Y-114944000D01*
X187910500Y-114944000D01*
X187927408Y-114944831D01*
X187927408Y-114944831D01*
G37*
D36*
X187738000Y-115314000D03*
D35*
G36*
X186957408Y-114944831D02*
G01*
X186974153Y-114947315D01*
X186990574Y-114951428D01*
X187006513Y-114957131D01*
X187021816Y-114964369D01*
X187036336Y-114973071D01*
X187049933Y-114983156D01*
X187062476Y-114994524D01*
X187073844Y-115007067D01*
X187083929Y-115020664D01*
X187092631Y-115035184D01*
X187099869Y-115050487D01*
X187105572Y-115066426D01*
X187109685Y-115082847D01*
X187112169Y-115099592D01*
X187113000Y-115116500D01*
X187113000Y-115511500D01*
X187112169Y-115528408D01*
X187109685Y-115545153D01*
X187105572Y-115561574D01*
X187099869Y-115577513D01*
X187092631Y-115592816D01*
X187083929Y-115607336D01*
X187073844Y-115620933D01*
X187062476Y-115633476D01*
X187049933Y-115644844D01*
X187036336Y-115654929D01*
X187021816Y-115663631D01*
X187006513Y-115670869D01*
X186990574Y-115676572D01*
X186974153Y-115680685D01*
X186957408Y-115683169D01*
X186940500Y-115684000D01*
X186595500Y-115684000D01*
X186578592Y-115683169D01*
X186561847Y-115680685D01*
X186545426Y-115676572D01*
X186529487Y-115670869D01*
X186514184Y-115663631D01*
X186499664Y-115654929D01*
X186486067Y-115644844D01*
X186473524Y-115633476D01*
X186462156Y-115620933D01*
X186452071Y-115607336D01*
X186443369Y-115592816D01*
X186436131Y-115577513D01*
X186430428Y-115561574D01*
X186426315Y-115545153D01*
X186423831Y-115528408D01*
X186423000Y-115511500D01*
X186423000Y-115116500D01*
X186423831Y-115099592D01*
X186426315Y-115082847D01*
X186430428Y-115066426D01*
X186436131Y-115050487D01*
X186443369Y-115035184D01*
X186452071Y-115020664D01*
X186462156Y-115007067D01*
X186473524Y-114994524D01*
X186486067Y-114983156D01*
X186499664Y-114973071D01*
X186514184Y-114964369D01*
X186529487Y-114957131D01*
X186545426Y-114951428D01*
X186561847Y-114947315D01*
X186578592Y-114944831D01*
X186595500Y-114944000D01*
X186940500Y-114944000D01*
X186957408Y-114944831D01*
X186957408Y-114944831D01*
G37*
D36*
X186768000Y-115314000D03*
D35*
G36*
X187927408Y-117444831D02*
G01*
X187944153Y-117447315D01*
X187960574Y-117451428D01*
X187976513Y-117457131D01*
X187991816Y-117464369D01*
X188006336Y-117473071D01*
X188019933Y-117483156D01*
X188032476Y-117494524D01*
X188043844Y-117507067D01*
X188053929Y-117520664D01*
X188062631Y-117535184D01*
X188069869Y-117550487D01*
X188075572Y-117566426D01*
X188079685Y-117582847D01*
X188082169Y-117599592D01*
X188083000Y-117616500D01*
X188083000Y-118011500D01*
X188082169Y-118028408D01*
X188079685Y-118045153D01*
X188075572Y-118061574D01*
X188069869Y-118077513D01*
X188062631Y-118092816D01*
X188053929Y-118107336D01*
X188043844Y-118120933D01*
X188032476Y-118133476D01*
X188019933Y-118144844D01*
X188006336Y-118154929D01*
X187991816Y-118163631D01*
X187976513Y-118170869D01*
X187960574Y-118176572D01*
X187944153Y-118180685D01*
X187927408Y-118183169D01*
X187910500Y-118184000D01*
X187565500Y-118184000D01*
X187548592Y-118183169D01*
X187531847Y-118180685D01*
X187515426Y-118176572D01*
X187499487Y-118170869D01*
X187484184Y-118163631D01*
X187469664Y-118154929D01*
X187456067Y-118144844D01*
X187443524Y-118133476D01*
X187432156Y-118120933D01*
X187422071Y-118107336D01*
X187413369Y-118092816D01*
X187406131Y-118077513D01*
X187400428Y-118061574D01*
X187396315Y-118045153D01*
X187393831Y-118028408D01*
X187393000Y-118011500D01*
X187393000Y-117616500D01*
X187393831Y-117599592D01*
X187396315Y-117582847D01*
X187400428Y-117566426D01*
X187406131Y-117550487D01*
X187413369Y-117535184D01*
X187422071Y-117520664D01*
X187432156Y-117507067D01*
X187443524Y-117494524D01*
X187456067Y-117483156D01*
X187469664Y-117473071D01*
X187484184Y-117464369D01*
X187499487Y-117457131D01*
X187515426Y-117451428D01*
X187531847Y-117447315D01*
X187548592Y-117444831D01*
X187565500Y-117444000D01*
X187910500Y-117444000D01*
X187927408Y-117444831D01*
X187927408Y-117444831D01*
G37*
D36*
X187738000Y-117814000D03*
D35*
G36*
X186957408Y-117444831D02*
G01*
X186974153Y-117447315D01*
X186990574Y-117451428D01*
X187006513Y-117457131D01*
X187021816Y-117464369D01*
X187036336Y-117473071D01*
X187049933Y-117483156D01*
X187062476Y-117494524D01*
X187073844Y-117507067D01*
X187083929Y-117520664D01*
X187092631Y-117535184D01*
X187099869Y-117550487D01*
X187105572Y-117566426D01*
X187109685Y-117582847D01*
X187112169Y-117599592D01*
X187113000Y-117616500D01*
X187113000Y-118011500D01*
X187112169Y-118028408D01*
X187109685Y-118045153D01*
X187105572Y-118061574D01*
X187099869Y-118077513D01*
X187092631Y-118092816D01*
X187083929Y-118107336D01*
X187073844Y-118120933D01*
X187062476Y-118133476D01*
X187049933Y-118144844D01*
X187036336Y-118154929D01*
X187021816Y-118163631D01*
X187006513Y-118170869D01*
X186990574Y-118176572D01*
X186974153Y-118180685D01*
X186957408Y-118183169D01*
X186940500Y-118184000D01*
X186595500Y-118184000D01*
X186578592Y-118183169D01*
X186561847Y-118180685D01*
X186545426Y-118176572D01*
X186529487Y-118170869D01*
X186514184Y-118163631D01*
X186499664Y-118154929D01*
X186486067Y-118144844D01*
X186473524Y-118133476D01*
X186462156Y-118120933D01*
X186452071Y-118107336D01*
X186443369Y-118092816D01*
X186436131Y-118077513D01*
X186430428Y-118061574D01*
X186426315Y-118045153D01*
X186423831Y-118028408D01*
X186423000Y-118011500D01*
X186423000Y-117616500D01*
X186423831Y-117599592D01*
X186426315Y-117582847D01*
X186430428Y-117566426D01*
X186436131Y-117550487D01*
X186443369Y-117535184D01*
X186452071Y-117520664D01*
X186462156Y-117507067D01*
X186473524Y-117494524D01*
X186486067Y-117483156D01*
X186499664Y-117473071D01*
X186514184Y-117464369D01*
X186529487Y-117457131D01*
X186545426Y-117451428D01*
X186561847Y-117447315D01*
X186578592Y-117444831D01*
X186595500Y-117444000D01*
X186940500Y-117444000D01*
X186957408Y-117444831D01*
X186957408Y-117444831D01*
G37*
D36*
X186768000Y-117814000D03*
D35*
G36*
X186957408Y-116194831D02*
G01*
X186974153Y-116197315D01*
X186990574Y-116201428D01*
X187006513Y-116207131D01*
X187021816Y-116214369D01*
X187036336Y-116223071D01*
X187049933Y-116233156D01*
X187062476Y-116244524D01*
X187073844Y-116257067D01*
X187083929Y-116270664D01*
X187092631Y-116285184D01*
X187099869Y-116300487D01*
X187105572Y-116316426D01*
X187109685Y-116332847D01*
X187112169Y-116349592D01*
X187113000Y-116366500D01*
X187113000Y-116761500D01*
X187112169Y-116778408D01*
X187109685Y-116795153D01*
X187105572Y-116811574D01*
X187099869Y-116827513D01*
X187092631Y-116842816D01*
X187083929Y-116857336D01*
X187073844Y-116870933D01*
X187062476Y-116883476D01*
X187049933Y-116894844D01*
X187036336Y-116904929D01*
X187021816Y-116913631D01*
X187006513Y-116920869D01*
X186990574Y-116926572D01*
X186974153Y-116930685D01*
X186957408Y-116933169D01*
X186940500Y-116934000D01*
X186595500Y-116934000D01*
X186578592Y-116933169D01*
X186561847Y-116930685D01*
X186545426Y-116926572D01*
X186529487Y-116920869D01*
X186514184Y-116913631D01*
X186499664Y-116904929D01*
X186486067Y-116894844D01*
X186473524Y-116883476D01*
X186462156Y-116870933D01*
X186452071Y-116857336D01*
X186443369Y-116842816D01*
X186436131Y-116827513D01*
X186430428Y-116811574D01*
X186426315Y-116795153D01*
X186423831Y-116778408D01*
X186423000Y-116761500D01*
X186423000Y-116366500D01*
X186423831Y-116349592D01*
X186426315Y-116332847D01*
X186430428Y-116316426D01*
X186436131Y-116300487D01*
X186443369Y-116285184D01*
X186452071Y-116270664D01*
X186462156Y-116257067D01*
X186473524Y-116244524D01*
X186486067Y-116233156D01*
X186499664Y-116223071D01*
X186514184Y-116214369D01*
X186529487Y-116207131D01*
X186545426Y-116201428D01*
X186561847Y-116197315D01*
X186578592Y-116194831D01*
X186595500Y-116194000D01*
X186940500Y-116194000D01*
X186957408Y-116194831D01*
X186957408Y-116194831D01*
G37*
D36*
X186768000Y-116564000D03*
D35*
G36*
X187927408Y-116194831D02*
G01*
X187944153Y-116197315D01*
X187960574Y-116201428D01*
X187976513Y-116207131D01*
X187991816Y-116214369D01*
X188006336Y-116223071D01*
X188019933Y-116233156D01*
X188032476Y-116244524D01*
X188043844Y-116257067D01*
X188053929Y-116270664D01*
X188062631Y-116285184D01*
X188069869Y-116300487D01*
X188075572Y-116316426D01*
X188079685Y-116332847D01*
X188082169Y-116349592D01*
X188083000Y-116366500D01*
X188083000Y-116761500D01*
X188082169Y-116778408D01*
X188079685Y-116795153D01*
X188075572Y-116811574D01*
X188069869Y-116827513D01*
X188062631Y-116842816D01*
X188053929Y-116857336D01*
X188043844Y-116870933D01*
X188032476Y-116883476D01*
X188019933Y-116894844D01*
X188006336Y-116904929D01*
X187991816Y-116913631D01*
X187976513Y-116920869D01*
X187960574Y-116926572D01*
X187944153Y-116930685D01*
X187927408Y-116933169D01*
X187910500Y-116934000D01*
X187565500Y-116934000D01*
X187548592Y-116933169D01*
X187531847Y-116930685D01*
X187515426Y-116926572D01*
X187499487Y-116920869D01*
X187484184Y-116913631D01*
X187469664Y-116904929D01*
X187456067Y-116894844D01*
X187443524Y-116883476D01*
X187432156Y-116870933D01*
X187422071Y-116857336D01*
X187413369Y-116842816D01*
X187406131Y-116827513D01*
X187400428Y-116811574D01*
X187396315Y-116795153D01*
X187393831Y-116778408D01*
X187393000Y-116761500D01*
X187393000Y-116366500D01*
X187393831Y-116349592D01*
X187396315Y-116332847D01*
X187400428Y-116316426D01*
X187406131Y-116300487D01*
X187413369Y-116285184D01*
X187422071Y-116270664D01*
X187432156Y-116257067D01*
X187443524Y-116244524D01*
X187456067Y-116233156D01*
X187469664Y-116223071D01*
X187484184Y-116214369D01*
X187499487Y-116207131D01*
X187515426Y-116201428D01*
X187531847Y-116197315D01*
X187548592Y-116194831D01*
X187565500Y-116194000D01*
X187910500Y-116194000D01*
X187927408Y-116194831D01*
X187927408Y-116194831D01*
G37*
D36*
X187738000Y-116564000D03*
D35*
G36*
X168500408Y-115381831D02*
G01*
X168517153Y-115384315D01*
X168533574Y-115388428D01*
X168549513Y-115394131D01*
X168564816Y-115401369D01*
X168579336Y-115410071D01*
X168592933Y-115420156D01*
X168605476Y-115431524D01*
X168616844Y-115444067D01*
X168626929Y-115457664D01*
X168635631Y-115472184D01*
X168642869Y-115487487D01*
X168648572Y-115503426D01*
X168652685Y-115519847D01*
X168655169Y-115536592D01*
X168656000Y-115553500D01*
X168656000Y-115948500D01*
X168655169Y-115965408D01*
X168652685Y-115982153D01*
X168648572Y-115998574D01*
X168642869Y-116014513D01*
X168635631Y-116029816D01*
X168626929Y-116044336D01*
X168616844Y-116057933D01*
X168605476Y-116070476D01*
X168592933Y-116081844D01*
X168579336Y-116091929D01*
X168564816Y-116100631D01*
X168549513Y-116107869D01*
X168533574Y-116113572D01*
X168517153Y-116117685D01*
X168500408Y-116120169D01*
X168483500Y-116121000D01*
X168138500Y-116121000D01*
X168121592Y-116120169D01*
X168104847Y-116117685D01*
X168088426Y-116113572D01*
X168072487Y-116107869D01*
X168057184Y-116100631D01*
X168042664Y-116091929D01*
X168029067Y-116081844D01*
X168016524Y-116070476D01*
X168005156Y-116057933D01*
X167995071Y-116044336D01*
X167986369Y-116029816D01*
X167979131Y-116014513D01*
X167973428Y-115998574D01*
X167969315Y-115982153D01*
X167966831Y-115965408D01*
X167966000Y-115948500D01*
X167966000Y-115553500D01*
X167966831Y-115536592D01*
X167969315Y-115519847D01*
X167973428Y-115503426D01*
X167979131Y-115487487D01*
X167986369Y-115472184D01*
X167995071Y-115457664D01*
X168005156Y-115444067D01*
X168016524Y-115431524D01*
X168029067Y-115420156D01*
X168042664Y-115410071D01*
X168057184Y-115401369D01*
X168072487Y-115394131D01*
X168088426Y-115388428D01*
X168104847Y-115384315D01*
X168121592Y-115381831D01*
X168138500Y-115381000D01*
X168483500Y-115381000D01*
X168500408Y-115381831D01*
X168500408Y-115381831D01*
G37*
D36*
X168311000Y-115751000D03*
D35*
G36*
X169470408Y-115381831D02*
G01*
X169487153Y-115384315D01*
X169503574Y-115388428D01*
X169519513Y-115394131D01*
X169534816Y-115401369D01*
X169549336Y-115410071D01*
X169562933Y-115420156D01*
X169575476Y-115431524D01*
X169586844Y-115444067D01*
X169596929Y-115457664D01*
X169605631Y-115472184D01*
X169612869Y-115487487D01*
X169618572Y-115503426D01*
X169622685Y-115519847D01*
X169625169Y-115536592D01*
X169626000Y-115553500D01*
X169626000Y-115948500D01*
X169625169Y-115965408D01*
X169622685Y-115982153D01*
X169618572Y-115998574D01*
X169612869Y-116014513D01*
X169605631Y-116029816D01*
X169596929Y-116044336D01*
X169586844Y-116057933D01*
X169575476Y-116070476D01*
X169562933Y-116081844D01*
X169549336Y-116091929D01*
X169534816Y-116100631D01*
X169519513Y-116107869D01*
X169503574Y-116113572D01*
X169487153Y-116117685D01*
X169470408Y-116120169D01*
X169453500Y-116121000D01*
X169108500Y-116121000D01*
X169091592Y-116120169D01*
X169074847Y-116117685D01*
X169058426Y-116113572D01*
X169042487Y-116107869D01*
X169027184Y-116100631D01*
X169012664Y-116091929D01*
X168999067Y-116081844D01*
X168986524Y-116070476D01*
X168975156Y-116057933D01*
X168965071Y-116044336D01*
X168956369Y-116029816D01*
X168949131Y-116014513D01*
X168943428Y-115998574D01*
X168939315Y-115982153D01*
X168936831Y-115965408D01*
X168936000Y-115948500D01*
X168936000Y-115553500D01*
X168936831Y-115536592D01*
X168939315Y-115519847D01*
X168943428Y-115503426D01*
X168949131Y-115487487D01*
X168956369Y-115472184D01*
X168965071Y-115457664D01*
X168975156Y-115444067D01*
X168986524Y-115431524D01*
X168999067Y-115420156D01*
X169012664Y-115410071D01*
X169027184Y-115401369D01*
X169042487Y-115394131D01*
X169058426Y-115388428D01*
X169074847Y-115384315D01*
X169091592Y-115381831D01*
X169108500Y-115381000D01*
X169453500Y-115381000D01*
X169470408Y-115381831D01*
X169470408Y-115381831D01*
G37*
D36*
X169281000Y-115751000D03*
D35*
G36*
X172010408Y-115381831D02*
G01*
X172027153Y-115384315D01*
X172043574Y-115388428D01*
X172059513Y-115394131D01*
X172074816Y-115401369D01*
X172089336Y-115410071D01*
X172102933Y-115420156D01*
X172115476Y-115431524D01*
X172126844Y-115444067D01*
X172136929Y-115457664D01*
X172145631Y-115472184D01*
X172152869Y-115487487D01*
X172158572Y-115503426D01*
X172162685Y-115519847D01*
X172165169Y-115536592D01*
X172166000Y-115553500D01*
X172166000Y-115948500D01*
X172165169Y-115965408D01*
X172162685Y-115982153D01*
X172158572Y-115998574D01*
X172152869Y-116014513D01*
X172145631Y-116029816D01*
X172136929Y-116044336D01*
X172126844Y-116057933D01*
X172115476Y-116070476D01*
X172102933Y-116081844D01*
X172089336Y-116091929D01*
X172074816Y-116100631D01*
X172059513Y-116107869D01*
X172043574Y-116113572D01*
X172027153Y-116117685D01*
X172010408Y-116120169D01*
X171993500Y-116121000D01*
X171648500Y-116121000D01*
X171631592Y-116120169D01*
X171614847Y-116117685D01*
X171598426Y-116113572D01*
X171582487Y-116107869D01*
X171567184Y-116100631D01*
X171552664Y-116091929D01*
X171539067Y-116081844D01*
X171526524Y-116070476D01*
X171515156Y-116057933D01*
X171505071Y-116044336D01*
X171496369Y-116029816D01*
X171489131Y-116014513D01*
X171483428Y-115998574D01*
X171479315Y-115982153D01*
X171476831Y-115965408D01*
X171476000Y-115948500D01*
X171476000Y-115553500D01*
X171476831Y-115536592D01*
X171479315Y-115519847D01*
X171483428Y-115503426D01*
X171489131Y-115487487D01*
X171496369Y-115472184D01*
X171505071Y-115457664D01*
X171515156Y-115444067D01*
X171526524Y-115431524D01*
X171539067Y-115420156D01*
X171552664Y-115410071D01*
X171567184Y-115401369D01*
X171582487Y-115394131D01*
X171598426Y-115388428D01*
X171614847Y-115384315D01*
X171631592Y-115381831D01*
X171648500Y-115381000D01*
X171993500Y-115381000D01*
X172010408Y-115381831D01*
X172010408Y-115381831D01*
G37*
D36*
X171821000Y-115751000D03*
D35*
G36*
X171040408Y-115381831D02*
G01*
X171057153Y-115384315D01*
X171073574Y-115388428D01*
X171089513Y-115394131D01*
X171104816Y-115401369D01*
X171119336Y-115410071D01*
X171132933Y-115420156D01*
X171145476Y-115431524D01*
X171156844Y-115444067D01*
X171166929Y-115457664D01*
X171175631Y-115472184D01*
X171182869Y-115487487D01*
X171188572Y-115503426D01*
X171192685Y-115519847D01*
X171195169Y-115536592D01*
X171196000Y-115553500D01*
X171196000Y-115948500D01*
X171195169Y-115965408D01*
X171192685Y-115982153D01*
X171188572Y-115998574D01*
X171182869Y-116014513D01*
X171175631Y-116029816D01*
X171166929Y-116044336D01*
X171156844Y-116057933D01*
X171145476Y-116070476D01*
X171132933Y-116081844D01*
X171119336Y-116091929D01*
X171104816Y-116100631D01*
X171089513Y-116107869D01*
X171073574Y-116113572D01*
X171057153Y-116117685D01*
X171040408Y-116120169D01*
X171023500Y-116121000D01*
X170678500Y-116121000D01*
X170661592Y-116120169D01*
X170644847Y-116117685D01*
X170628426Y-116113572D01*
X170612487Y-116107869D01*
X170597184Y-116100631D01*
X170582664Y-116091929D01*
X170569067Y-116081844D01*
X170556524Y-116070476D01*
X170545156Y-116057933D01*
X170535071Y-116044336D01*
X170526369Y-116029816D01*
X170519131Y-116014513D01*
X170513428Y-115998574D01*
X170509315Y-115982153D01*
X170506831Y-115965408D01*
X170506000Y-115948500D01*
X170506000Y-115553500D01*
X170506831Y-115536592D01*
X170509315Y-115519847D01*
X170513428Y-115503426D01*
X170519131Y-115487487D01*
X170526369Y-115472184D01*
X170535071Y-115457664D01*
X170545156Y-115444067D01*
X170556524Y-115431524D01*
X170569067Y-115420156D01*
X170582664Y-115410071D01*
X170597184Y-115401369D01*
X170612487Y-115394131D01*
X170628426Y-115388428D01*
X170644847Y-115384315D01*
X170661592Y-115381831D01*
X170678500Y-115381000D01*
X171023500Y-115381000D01*
X171040408Y-115381831D01*
X171040408Y-115381831D01*
G37*
D36*
X170851000Y-115751000D03*
D35*
G36*
X173570408Y-115381831D02*
G01*
X173587153Y-115384315D01*
X173603574Y-115388428D01*
X173619513Y-115394131D01*
X173634816Y-115401369D01*
X173649336Y-115410071D01*
X173662933Y-115420156D01*
X173675476Y-115431524D01*
X173686844Y-115444067D01*
X173696929Y-115457664D01*
X173705631Y-115472184D01*
X173712869Y-115487487D01*
X173718572Y-115503426D01*
X173722685Y-115519847D01*
X173725169Y-115536592D01*
X173726000Y-115553500D01*
X173726000Y-115948500D01*
X173725169Y-115965408D01*
X173722685Y-115982153D01*
X173718572Y-115998574D01*
X173712869Y-116014513D01*
X173705631Y-116029816D01*
X173696929Y-116044336D01*
X173686844Y-116057933D01*
X173675476Y-116070476D01*
X173662933Y-116081844D01*
X173649336Y-116091929D01*
X173634816Y-116100631D01*
X173619513Y-116107869D01*
X173603574Y-116113572D01*
X173587153Y-116117685D01*
X173570408Y-116120169D01*
X173553500Y-116121000D01*
X173208500Y-116121000D01*
X173191592Y-116120169D01*
X173174847Y-116117685D01*
X173158426Y-116113572D01*
X173142487Y-116107869D01*
X173127184Y-116100631D01*
X173112664Y-116091929D01*
X173099067Y-116081844D01*
X173086524Y-116070476D01*
X173075156Y-116057933D01*
X173065071Y-116044336D01*
X173056369Y-116029816D01*
X173049131Y-116014513D01*
X173043428Y-115998574D01*
X173039315Y-115982153D01*
X173036831Y-115965408D01*
X173036000Y-115948500D01*
X173036000Y-115553500D01*
X173036831Y-115536592D01*
X173039315Y-115519847D01*
X173043428Y-115503426D01*
X173049131Y-115487487D01*
X173056369Y-115472184D01*
X173065071Y-115457664D01*
X173075156Y-115444067D01*
X173086524Y-115431524D01*
X173099067Y-115420156D01*
X173112664Y-115410071D01*
X173127184Y-115401369D01*
X173142487Y-115394131D01*
X173158426Y-115388428D01*
X173174847Y-115384315D01*
X173191592Y-115381831D01*
X173208500Y-115381000D01*
X173553500Y-115381000D01*
X173570408Y-115381831D01*
X173570408Y-115381831D01*
G37*
D36*
X173381000Y-115751000D03*
D35*
G36*
X174540408Y-115381831D02*
G01*
X174557153Y-115384315D01*
X174573574Y-115388428D01*
X174589513Y-115394131D01*
X174604816Y-115401369D01*
X174619336Y-115410071D01*
X174632933Y-115420156D01*
X174645476Y-115431524D01*
X174656844Y-115444067D01*
X174666929Y-115457664D01*
X174675631Y-115472184D01*
X174682869Y-115487487D01*
X174688572Y-115503426D01*
X174692685Y-115519847D01*
X174695169Y-115536592D01*
X174696000Y-115553500D01*
X174696000Y-115948500D01*
X174695169Y-115965408D01*
X174692685Y-115982153D01*
X174688572Y-115998574D01*
X174682869Y-116014513D01*
X174675631Y-116029816D01*
X174666929Y-116044336D01*
X174656844Y-116057933D01*
X174645476Y-116070476D01*
X174632933Y-116081844D01*
X174619336Y-116091929D01*
X174604816Y-116100631D01*
X174589513Y-116107869D01*
X174573574Y-116113572D01*
X174557153Y-116117685D01*
X174540408Y-116120169D01*
X174523500Y-116121000D01*
X174178500Y-116121000D01*
X174161592Y-116120169D01*
X174144847Y-116117685D01*
X174128426Y-116113572D01*
X174112487Y-116107869D01*
X174097184Y-116100631D01*
X174082664Y-116091929D01*
X174069067Y-116081844D01*
X174056524Y-116070476D01*
X174045156Y-116057933D01*
X174035071Y-116044336D01*
X174026369Y-116029816D01*
X174019131Y-116014513D01*
X174013428Y-115998574D01*
X174009315Y-115982153D01*
X174006831Y-115965408D01*
X174006000Y-115948500D01*
X174006000Y-115553500D01*
X174006831Y-115536592D01*
X174009315Y-115519847D01*
X174013428Y-115503426D01*
X174019131Y-115487487D01*
X174026369Y-115472184D01*
X174035071Y-115457664D01*
X174045156Y-115444067D01*
X174056524Y-115431524D01*
X174069067Y-115420156D01*
X174082664Y-115410071D01*
X174097184Y-115401369D01*
X174112487Y-115394131D01*
X174128426Y-115388428D01*
X174144847Y-115384315D01*
X174161592Y-115381831D01*
X174178500Y-115381000D01*
X174523500Y-115381000D01*
X174540408Y-115381831D01*
X174540408Y-115381831D01*
G37*
D36*
X174351000Y-115751000D03*
D35*
G36*
X177060408Y-115391831D02*
G01*
X177077153Y-115394315D01*
X177093574Y-115398428D01*
X177109513Y-115404131D01*
X177124816Y-115411369D01*
X177139336Y-115420071D01*
X177152933Y-115430156D01*
X177165476Y-115441524D01*
X177176844Y-115454067D01*
X177186929Y-115467664D01*
X177195631Y-115482184D01*
X177202869Y-115497487D01*
X177208572Y-115513426D01*
X177212685Y-115529847D01*
X177215169Y-115546592D01*
X177216000Y-115563500D01*
X177216000Y-115958500D01*
X177215169Y-115975408D01*
X177212685Y-115992153D01*
X177208572Y-116008574D01*
X177202869Y-116024513D01*
X177195631Y-116039816D01*
X177186929Y-116054336D01*
X177176844Y-116067933D01*
X177165476Y-116080476D01*
X177152933Y-116091844D01*
X177139336Y-116101929D01*
X177124816Y-116110631D01*
X177109513Y-116117869D01*
X177093574Y-116123572D01*
X177077153Y-116127685D01*
X177060408Y-116130169D01*
X177043500Y-116131000D01*
X176698500Y-116131000D01*
X176681592Y-116130169D01*
X176664847Y-116127685D01*
X176648426Y-116123572D01*
X176632487Y-116117869D01*
X176617184Y-116110631D01*
X176602664Y-116101929D01*
X176589067Y-116091844D01*
X176576524Y-116080476D01*
X176565156Y-116067933D01*
X176555071Y-116054336D01*
X176546369Y-116039816D01*
X176539131Y-116024513D01*
X176533428Y-116008574D01*
X176529315Y-115992153D01*
X176526831Y-115975408D01*
X176526000Y-115958500D01*
X176526000Y-115563500D01*
X176526831Y-115546592D01*
X176529315Y-115529847D01*
X176533428Y-115513426D01*
X176539131Y-115497487D01*
X176546369Y-115482184D01*
X176555071Y-115467664D01*
X176565156Y-115454067D01*
X176576524Y-115441524D01*
X176589067Y-115430156D01*
X176602664Y-115420071D01*
X176617184Y-115411369D01*
X176632487Y-115404131D01*
X176648426Y-115398428D01*
X176664847Y-115394315D01*
X176681592Y-115391831D01*
X176698500Y-115391000D01*
X177043500Y-115391000D01*
X177060408Y-115391831D01*
X177060408Y-115391831D01*
G37*
D36*
X176871000Y-115761000D03*
D35*
G36*
X176090408Y-115391831D02*
G01*
X176107153Y-115394315D01*
X176123574Y-115398428D01*
X176139513Y-115404131D01*
X176154816Y-115411369D01*
X176169336Y-115420071D01*
X176182933Y-115430156D01*
X176195476Y-115441524D01*
X176206844Y-115454067D01*
X176216929Y-115467664D01*
X176225631Y-115482184D01*
X176232869Y-115497487D01*
X176238572Y-115513426D01*
X176242685Y-115529847D01*
X176245169Y-115546592D01*
X176246000Y-115563500D01*
X176246000Y-115958500D01*
X176245169Y-115975408D01*
X176242685Y-115992153D01*
X176238572Y-116008574D01*
X176232869Y-116024513D01*
X176225631Y-116039816D01*
X176216929Y-116054336D01*
X176206844Y-116067933D01*
X176195476Y-116080476D01*
X176182933Y-116091844D01*
X176169336Y-116101929D01*
X176154816Y-116110631D01*
X176139513Y-116117869D01*
X176123574Y-116123572D01*
X176107153Y-116127685D01*
X176090408Y-116130169D01*
X176073500Y-116131000D01*
X175728500Y-116131000D01*
X175711592Y-116130169D01*
X175694847Y-116127685D01*
X175678426Y-116123572D01*
X175662487Y-116117869D01*
X175647184Y-116110631D01*
X175632664Y-116101929D01*
X175619067Y-116091844D01*
X175606524Y-116080476D01*
X175595156Y-116067933D01*
X175585071Y-116054336D01*
X175576369Y-116039816D01*
X175569131Y-116024513D01*
X175563428Y-116008574D01*
X175559315Y-115992153D01*
X175556831Y-115975408D01*
X175556000Y-115958500D01*
X175556000Y-115563500D01*
X175556831Y-115546592D01*
X175559315Y-115529847D01*
X175563428Y-115513426D01*
X175569131Y-115497487D01*
X175576369Y-115482184D01*
X175585071Y-115467664D01*
X175595156Y-115454067D01*
X175606524Y-115441524D01*
X175619067Y-115430156D01*
X175632664Y-115420071D01*
X175647184Y-115411369D01*
X175662487Y-115404131D01*
X175678426Y-115398428D01*
X175694847Y-115394315D01*
X175711592Y-115391831D01*
X175728500Y-115391000D01*
X176073500Y-115391000D01*
X176090408Y-115391831D01*
X176090408Y-115391831D01*
G37*
D36*
X175901000Y-115761000D03*
D35*
G36*
X178660408Y-115391831D02*
G01*
X178677153Y-115394315D01*
X178693574Y-115398428D01*
X178709513Y-115404131D01*
X178724816Y-115411369D01*
X178739336Y-115420071D01*
X178752933Y-115430156D01*
X178765476Y-115441524D01*
X178776844Y-115454067D01*
X178786929Y-115467664D01*
X178795631Y-115482184D01*
X178802869Y-115497487D01*
X178808572Y-115513426D01*
X178812685Y-115529847D01*
X178815169Y-115546592D01*
X178816000Y-115563500D01*
X178816000Y-115958500D01*
X178815169Y-115975408D01*
X178812685Y-115992153D01*
X178808572Y-116008574D01*
X178802869Y-116024513D01*
X178795631Y-116039816D01*
X178786929Y-116054336D01*
X178776844Y-116067933D01*
X178765476Y-116080476D01*
X178752933Y-116091844D01*
X178739336Y-116101929D01*
X178724816Y-116110631D01*
X178709513Y-116117869D01*
X178693574Y-116123572D01*
X178677153Y-116127685D01*
X178660408Y-116130169D01*
X178643500Y-116131000D01*
X178298500Y-116131000D01*
X178281592Y-116130169D01*
X178264847Y-116127685D01*
X178248426Y-116123572D01*
X178232487Y-116117869D01*
X178217184Y-116110631D01*
X178202664Y-116101929D01*
X178189067Y-116091844D01*
X178176524Y-116080476D01*
X178165156Y-116067933D01*
X178155071Y-116054336D01*
X178146369Y-116039816D01*
X178139131Y-116024513D01*
X178133428Y-116008574D01*
X178129315Y-115992153D01*
X178126831Y-115975408D01*
X178126000Y-115958500D01*
X178126000Y-115563500D01*
X178126831Y-115546592D01*
X178129315Y-115529847D01*
X178133428Y-115513426D01*
X178139131Y-115497487D01*
X178146369Y-115482184D01*
X178155071Y-115467664D01*
X178165156Y-115454067D01*
X178176524Y-115441524D01*
X178189067Y-115430156D01*
X178202664Y-115420071D01*
X178217184Y-115411369D01*
X178232487Y-115404131D01*
X178248426Y-115398428D01*
X178264847Y-115394315D01*
X178281592Y-115391831D01*
X178298500Y-115391000D01*
X178643500Y-115391000D01*
X178660408Y-115391831D01*
X178660408Y-115391831D01*
G37*
D36*
X178471000Y-115761000D03*
D35*
G36*
X179630408Y-115391831D02*
G01*
X179647153Y-115394315D01*
X179663574Y-115398428D01*
X179679513Y-115404131D01*
X179694816Y-115411369D01*
X179709336Y-115420071D01*
X179722933Y-115430156D01*
X179735476Y-115441524D01*
X179746844Y-115454067D01*
X179756929Y-115467664D01*
X179765631Y-115482184D01*
X179772869Y-115497487D01*
X179778572Y-115513426D01*
X179782685Y-115529847D01*
X179785169Y-115546592D01*
X179786000Y-115563500D01*
X179786000Y-115958500D01*
X179785169Y-115975408D01*
X179782685Y-115992153D01*
X179778572Y-116008574D01*
X179772869Y-116024513D01*
X179765631Y-116039816D01*
X179756929Y-116054336D01*
X179746844Y-116067933D01*
X179735476Y-116080476D01*
X179722933Y-116091844D01*
X179709336Y-116101929D01*
X179694816Y-116110631D01*
X179679513Y-116117869D01*
X179663574Y-116123572D01*
X179647153Y-116127685D01*
X179630408Y-116130169D01*
X179613500Y-116131000D01*
X179268500Y-116131000D01*
X179251592Y-116130169D01*
X179234847Y-116127685D01*
X179218426Y-116123572D01*
X179202487Y-116117869D01*
X179187184Y-116110631D01*
X179172664Y-116101929D01*
X179159067Y-116091844D01*
X179146524Y-116080476D01*
X179135156Y-116067933D01*
X179125071Y-116054336D01*
X179116369Y-116039816D01*
X179109131Y-116024513D01*
X179103428Y-116008574D01*
X179099315Y-115992153D01*
X179096831Y-115975408D01*
X179096000Y-115958500D01*
X179096000Y-115563500D01*
X179096831Y-115546592D01*
X179099315Y-115529847D01*
X179103428Y-115513426D01*
X179109131Y-115497487D01*
X179116369Y-115482184D01*
X179125071Y-115467664D01*
X179135156Y-115454067D01*
X179146524Y-115441524D01*
X179159067Y-115430156D01*
X179172664Y-115420071D01*
X179187184Y-115411369D01*
X179202487Y-115404131D01*
X179218426Y-115398428D01*
X179234847Y-115394315D01*
X179251592Y-115391831D01*
X179268500Y-115391000D01*
X179613500Y-115391000D01*
X179630408Y-115391831D01*
X179630408Y-115391831D01*
G37*
D36*
X179441000Y-115761000D03*
D39*
X186753000Y-106439000D03*
X186753000Y-109689000D03*
X186753000Y-110939000D03*
X186753000Y-114189000D03*
D40*
X168406000Y-124586000D03*
X178566000Y-117856000D03*
X170946000Y-124586000D03*
X176026000Y-117856000D03*
X173486000Y-124586000D03*
X173486000Y-117856000D03*
X176026000Y-124586000D03*
X170946000Y-117856000D03*
X178566000Y-124586000D03*
X168406000Y-117856000D03*
D41*
X141270000Y-96024000D03*
X141270000Y-96974000D03*
X141270000Y-97924000D03*
X143950000Y-97924000D03*
X143950000Y-96974000D03*
X143950000Y-96024000D03*
D42*
X142610000Y-96974000D03*
D43*
X182716000Y-116263500D03*
D44*
X185128500Y-120901000D03*
D43*
X182716000Y-121038500D03*
D44*
X181803500Y-120901000D03*
D43*
X183216000Y-121038500D03*
X183716000Y-121038500D03*
X184216000Y-121038500D03*
D44*
X181803500Y-120401000D03*
X181803500Y-119901000D03*
X181803500Y-119401000D03*
X181803500Y-118901000D03*
X181803500Y-118401000D03*
X181803500Y-117901000D03*
X181803500Y-117401000D03*
X181803500Y-116901000D03*
X181803500Y-116401000D03*
X185128500Y-120401000D03*
X185128500Y-119901000D03*
X185128500Y-119401000D03*
X185128500Y-118901000D03*
X185128500Y-118401000D03*
X185128500Y-117901000D03*
X185128500Y-117401000D03*
X185128500Y-116901000D03*
X185128500Y-116401000D03*
D43*
X183216000Y-116263500D03*
X183716000Y-116263500D03*
X184216000Y-116263500D03*
D13*
X133858000Y-97159000D03*
D12*
X136398000Y-98429000D03*
X133858000Y-99699000D03*
X136398000Y-100969000D03*
D11*
X135658000Y-95759000D03*
D13*
X133860000Y-114659000D03*
D12*
X136400000Y-115929000D03*
X133860000Y-117199000D03*
X136400000Y-118469000D03*
D11*
X135660000Y-113259000D03*
D13*
X161400000Y-126969000D03*
D12*
X158860000Y-125699000D03*
X161400000Y-124429000D03*
X158860000Y-123159000D03*
D11*
X159600000Y-128369000D03*
X135660000Y-104509000D03*
D12*
X136400000Y-109719000D03*
X133860000Y-108449000D03*
X136400000Y-107179000D03*
D13*
X133860000Y-105909000D03*
D11*
X135660000Y-122009000D03*
D12*
X136400000Y-127219000D03*
X133860000Y-125949000D03*
X136400000Y-124679000D03*
D13*
X133860000Y-123409000D03*
D11*
X159600000Y-110869000D03*
D12*
X158860000Y-105659000D03*
X161400000Y-106929000D03*
X158860000Y-108199000D03*
D13*
X161400000Y-109469000D03*
X161400000Y-100719000D03*
D12*
X158860000Y-99449000D03*
X161400000Y-98179000D03*
X158860000Y-96909000D03*
D11*
X159600000Y-102119000D03*
D45*
X173806000Y-103676000D03*
D46*
X166306000Y-96176000D03*
X166306000Y-97446000D03*
X166306000Y-98716000D03*
X166306000Y-99986000D03*
X166306000Y-101256000D03*
X166306000Y-102526000D03*
X166306000Y-103796000D03*
X166306000Y-105066000D03*
X166306000Y-106336000D03*
X166306000Y-107606000D03*
X166306000Y-108876000D03*
X166306000Y-110146000D03*
X166306000Y-111416000D03*
X166306000Y-112686000D03*
D47*
X169091000Y-113686000D03*
X170361000Y-113686000D03*
X171631000Y-113686000D03*
X172901000Y-113686000D03*
X174171000Y-113686000D03*
X175441000Y-113686000D03*
X176711000Y-113686000D03*
X177981000Y-113686000D03*
X179251000Y-113686000D03*
X180521000Y-113686000D03*
D46*
X183306000Y-112686000D03*
X183306000Y-111416000D03*
X183306000Y-110146000D03*
X183306000Y-108876000D03*
X183306000Y-107606000D03*
X183306000Y-106336000D03*
X183306000Y-105066000D03*
X183306000Y-103796000D03*
X183306000Y-102526000D03*
X183306000Y-101256000D03*
X183306000Y-99986000D03*
X183306000Y-98716000D03*
X183306000Y-97446000D03*
X183306000Y-96176000D03*
D12*
X143383000Y-127000000D03*
X140843000Y-125730000D03*
D13*
X140843000Y-120650000D03*
D12*
X143383000Y-121920000D03*
X140843000Y-123190000D03*
X143383000Y-124460000D03*
D11*
X142643000Y-119250000D03*
D35*
G36*
X142530802Y-114735482D02*
G01*
X142540509Y-114736921D01*
X142550028Y-114739306D01*
X142559268Y-114742612D01*
X142568140Y-114746808D01*
X142576557Y-114751853D01*
X142584439Y-114757699D01*
X142591711Y-114764289D01*
X142598301Y-114771561D01*
X142604147Y-114779443D01*
X142609192Y-114787860D01*
X142613388Y-114796732D01*
X142616694Y-114805972D01*
X142619079Y-114815491D01*
X142620518Y-114825198D01*
X142621000Y-114835000D01*
X142621000Y-115035000D01*
X142620518Y-115044802D01*
X142619079Y-115054509D01*
X142616694Y-115064028D01*
X142613388Y-115073268D01*
X142609192Y-115082140D01*
X142604147Y-115090557D01*
X142598301Y-115098439D01*
X142591711Y-115105711D01*
X142584439Y-115112301D01*
X142576557Y-115118147D01*
X142568140Y-115123192D01*
X142559268Y-115127388D01*
X142550028Y-115130694D01*
X142540509Y-115133079D01*
X142530802Y-115134518D01*
X142521000Y-115135000D01*
X142221000Y-115135000D01*
X142211198Y-115134518D01*
X142201491Y-115133079D01*
X142191972Y-115130694D01*
X142182732Y-115127388D01*
X142173860Y-115123192D01*
X142165443Y-115118147D01*
X142157561Y-115112301D01*
X142150289Y-115105711D01*
X142143699Y-115098439D01*
X142137853Y-115090557D01*
X142132808Y-115082140D01*
X142128612Y-115073268D01*
X142125306Y-115064028D01*
X142122921Y-115054509D01*
X142121482Y-115044802D01*
X142121000Y-115035000D01*
X142121000Y-114835000D01*
X142121482Y-114825198D01*
X142122921Y-114815491D01*
X142125306Y-114805972D01*
X142128612Y-114796732D01*
X142132808Y-114787860D01*
X142137853Y-114779443D01*
X142143699Y-114771561D01*
X142150289Y-114764289D01*
X142157561Y-114757699D01*
X142165443Y-114751853D01*
X142173860Y-114746808D01*
X142182732Y-114742612D01*
X142191972Y-114739306D01*
X142201491Y-114736921D01*
X142211198Y-114735482D01*
X142221000Y-114735000D01*
X142521000Y-114735000D01*
X142530802Y-114735482D01*
X142530802Y-114735482D01*
G37*
D48*
X142371000Y-114935000D03*
D35*
G36*
X143030802Y-114735482D02*
G01*
X143040509Y-114736921D01*
X143050028Y-114739306D01*
X143059268Y-114742612D01*
X143068140Y-114746808D01*
X143076557Y-114751853D01*
X143084439Y-114757699D01*
X143091711Y-114764289D01*
X143098301Y-114771561D01*
X143104147Y-114779443D01*
X143109192Y-114787860D01*
X143113388Y-114796732D01*
X143116694Y-114805972D01*
X143119079Y-114815491D01*
X143120518Y-114825198D01*
X143121000Y-114835000D01*
X143121000Y-115035000D01*
X143120518Y-115044802D01*
X143119079Y-115054509D01*
X143116694Y-115064028D01*
X143113388Y-115073268D01*
X143109192Y-115082140D01*
X143104147Y-115090557D01*
X143098301Y-115098439D01*
X143091711Y-115105711D01*
X143084439Y-115112301D01*
X143076557Y-115118147D01*
X143068140Y-115123192D01*
X143059268Y-115127388D01*
X143050028Y-115130694D01*
X143040509Y-115133079D01*
X143030802Y-115134518D01*
X143021000Y-115135000D01*
X142721000Y-115135000D01*
X142711198Y-115134518D01*
X142701491Y-115133079D01*
X142691972Y-115130694D01*
X142682732Y-115127388D01*
X142673860Y-115123192D01*
X142665443Y-115118147D01*
X142657561Y-115112301D01*
X142650289Y-115105711D01*
X142643699Y-115098439D01*
X142637853Y-115090557D01*
X142632808Y-115082140D01*
X142628612Y-115073268D01*
X142625306Y-115064028D01*
X142622921Y-115054509D01*
X142621482Y-115044802D01*
X142621000Y-115035000D01*
X142621000Y-114835000D01*
X142621482Y-114825198D01*
X142622921Y-114815491D01*
X142625306Y-114805972D01*
X142628612Y-114796732D01*
X142632808Y-114787860D01*
X142637853Y-114779443D01*
X142643699Y-114771561D01*
X142650289Y-114764289D01*
X142657561Y-114757699D01*
X142665443Y-114751853D01*
X142673860Y-114746808D01*
X142682732Y-114742612D01*
X142691972Y-114739306D01*
X142701491Y-114736921D01*
X142711198Y-114735482D01*
X142721000Y-114735000D01*
X143021000Y-114735000D01*
X143030802Y-114735482D01*
X143030802Y-114735482D01*
G37*
D48*
X142871000Y-114935000D03*
D49*
X142851000Y-113499000D03*
X142851000Y-111799000D03*
X142151000Y-111799000D03*
X142151000Y-113499000D03*
M02*
