M48
; DRILL file {KiCad 5.1.0-060a0da~80~ubuntu18.04.1} date Mo 10 Jun 2019 00:34:40 CEST
; FORMAT={-:-/ absolute / inch / decimal}
; #@! TF.CreationDate,2019-06-10T00:34:40+02:00
; #@! TF.GenerationSoftware,Kicad,Pcbnew,5.1.0-060a0da~80~ubuntu18.04.1
; #@! TF.FileFunction,Plated,1,2,PTH
FMAT,2
INCH
T1C0.0079
T2C0.0118
T3C0.0315
T4C0.0315
T5C0.0394
%
G90
G05
T1
X5.575Y-4.5303
X5.5965Y-4.8185
X5.69Y-5.1363
X5.7Y-3.855
X5.7362Y-4.9935
X5.7534Y-3.8572
X5.7554Y-4.5245
X5.7554Y-4.494
X5.76Y-3.765
X5.7609Y-5.1009
X5.7739Y-4.1929
X5.7863Y-4.8413
X5.7908Y-4.3842
X5.8002Y-4.0504
X5.8164Y-4.1929
X5.8247Y-4.2865
X5.83Y-4.79
X5.8351Y-4.0108
X5.8396Y-4.6169
X5.8502Y-3.9101
X5.8538Y-3.8572
X5.8573Y-4.5088
X5.8597Y-4.6888
X5.8654Y-4.0037
X5.868Y-5.0874
X5.8691Y-4.2066
X5.8702Y-4.3054
X5.8832Y-4.9914
X5.8909Y-4.3825
X5.8977Y-3.9216
X5.9096Y-4.7346
X5.9224Y-5.1196
X5.9274Y-4.7053
X5.9278Y-4.897
X5.9421Y-4.4985
X5.9421Y-4.6157
X5.9652Y-4.372
X5.9723Y-4.8078
X5.9739Y-4.3474
X5.9797Y-5.051
X5.9853Y-4.9678
X5.9894Y-4.8342
X6.0211Y-4.7067
X6.0467Y-3.8572
X6.0556Y-4.6139
X6.0623Y-4.4054
X6.0661Y-5.0021
X6.0714Y-4.6871
X6.0731Y-4.4947
X6.078Y-4.5793
X6.0878Y-4.6679
X6.1Y-4.0
X6.1006Y-4.9504
X6.1016Y-4.5801
X6.1106Y-4.3092
X6.1122Y-4.4137
X6.1152Y-4.8879
X6.1178Y-4.4981
X6.1197Y-5.1504
X6.1253Y-4.9116
X6.13Y-4.59
X6.1335Y-4.8137
X6.1388Y-4.4873
X6.1471Y-3.8572
X6.1483Y-4.7903
X6.1542Y-3.9152
X6.17Y-4.82
X6.175Y-4.35
X6.19Y-4.55
X6.215Y-4.395
X6.4016Y-4.4516
X6.425Y-4.385
X6.6211Y-4.041
X6.6211Y-4.1
X6.69Y-4.6
X6.6914Y-4.555
X6.7504Y-4.5296
X6.76Y-3.77
X6.7966Y-4.5369
X6.8502Y-4.5298
X6.938Y-4.532
X7.116Y-4.054
X7.1526Y-4.1394
X7.1526Y-4.1985
X7.1526Y-4.2477
X7.1526Y-4.287
X7.1526Y-4.3953
X7.155Y-4.09
X7.1624Y-4.5528
X7.2Y-4.675
X7.245Y-4.602
X7.25Y-4.725
X7.2746Y-4.235
X7.2746Y-4.3842
X7.2904Y-3.8343
X7.3142Y-4.169
X7.3199Y-4.602
X7.32Y-4.64
X7.35Y-4.345
X7.3884Y-4.1416
T2
X6.052Y-4.2805
T3
X5.5382Y-4.435
T4
X6.2543Y-3.8153
X6.2543Y-3.9153
X6.3543Y-3.8653
X6.3543Y-3.9653
X6.2543Y-4.8488
X6.2543Y-4.9488
X6.3543Y-4.8988
X6.3543Y-4.9988
X5.2701Y-4.5141
X5.2701Y-4.6141
X5.3701Y-4.5641
X5.3701Y-4.6641
X5.545Y-4.75
X5.545Y-4.85
X5.545Y-4.95
X5.645Y-4.8
X5.645Y-4.9
X5.645Y-5.0
X5.27Y-3.8252
X5.27Y-3.9252
X5.37Y-3.8752
X5.37Y-3.9752
X6.2543Y-4.1598
X6.2543Y-4.2598
X6.3543Y-4.2098
X6.3543Y-4.3098
X6.2543Y-4.5043
X6.2543Y-4.6043
X6.3543Y-4.5543
X6.3543Y-4.6543
X5.2701Y-4.8586
X5.2701Y-4.9586
X5.3701Y-4.9086
X5.3701Y-5.0086
X5.2701Y-4.1696
X5.2701Y-4.2696
X5.3701Y-4.2196
X5.3701Y-4.3196
T5
X7.3491Y-3.7953
X7.3491Y-3.8953
X7.3491Y-3.9953
X7.3491Y-4.0953
X6.5639Y-5.032
X6.6639Y-5.032
X6.7639Y-5.032
X6.8639Y-5.032
X6.9639Y-5.032
X7.0639Y-5.032
X7.1639Y-5.032
X7.2639Y-5.032
T0
M30
