G04 #@! TF.GenerationSoftware,KiCad,Pcbnew,5.1.0-060a0da~80~ubuntu18.04.1*
G04 #@! TF.CreationDate,2019-06-10T00:34:36+02:00*
G04 #@! TF.ProjectId,TinyFPGA-BX,54696e79-4650-4474-912d-42582e6b6963,rev?*
G04 #@! TF.SameCoordinates,Original*
G04 #@! TF.FileFunction,Soldermask,Bot*
G04 #@! TF.FilePolarity,Negative*
%FSLAX46Y46*%
G04 Gerber Fmt 4.6, Leading zero omitted, Abs format (unit mm)*
G04 Created by KiCad (PCBNEW 5.1.0-060a0da~80~ubuntu18.04.1) date 2019-06-10 00:34:36*
%MOMM*%
%LPD*%
G04 APERTURE LIST*
%ADD10C,1.600100*%
%ADD11C,1.900000*%
%ADD12R,1.900000X1.900000*%
%ADD13R,1.800000X1.800000*%
%ADD14O,1.800000X1.800000*%
G04 APERTURE END LIST*
D10*
X159600000Y-119619000D03*
D11*
X158860000Y-114409000D03*
X161400000Y-115679000D03*
X158860000Y-116949000D03*
D12*
X161400000Y-118219000D03*
D13*
X184503000Y-127814000D03*
D14*
X181963000Y-127814000D03*
X179423000Y-127814000D03*
X176883000Y-127814000D03*
X174343000Y-127814000D03*
X171803000Y-127814000D03*
X169263000Y-127814000D03*
X166723000Y-127814000D03*
D13*
X186666000Y-96401000D03*
D14*
X186666000Y-98941000D03*
X186666000Y-101481000D03*
X186666000Y-104021000D03*
D12*
X133858000Y-97159000D03*
D11*
X136398000Y-98429000D03*
X133858000Y-99699000D03*
X136398000Y-100969000D03*
D10*
X135658000Y-95759000D03*
D12*
X133860000Y-114659000D03*
D11*
X136400000Y-115929000D03*
X133860000Y-117199000D03*
X136400000Y-118469000D03*
D10*
X135660000Y-113259000D03*
D12*
X161400000Y-126969000D03*
D11*
X158860000Y-125699000D03*
X161400000Y-124429000D03*
X158860000Y-123159000D03*
D10*
X159600000Y-128369000D03*
X135660000Y-104509000D03*
D11*
X136400000Y-109719000D03*
X133860000Y-108449000D03*
X136400000Y-107179000D03*
D12*
X133860000Y-105909000D03*
D10*
X135660000Y-122009000D03*
D11*
X136400000Y-127219000D03*
X133860000Y-125949000D03*
X136400000Y-124679000D03*
D12*
X133860000Y-123409000D03*
D10*
X159600000Y-110869000D03*
D11*
X158860000Y-105659000D03*
X161400000Y-106929000D03*
X158860000Y-108199000D03*
D12*
X161400000Y-109469000D03*
X161400000Y-100719000D03*
D11*
X158860000Y-99449000D03*
X161400000Y-98179000D03*
X158860000Y-96909000D03*
D10*
X159600000Y-102119000D03*
D11*
X143383000Y-127000000D03*
X140843000Y-125730000D03*
D12*
X140843000Y-120650000D03*
D11*
X143383000Y-121920000D03*
X140843000Y-123190000D03*
X143383000Y-124460000D03*
D10*
X142643000Y-119250000D03*
M02*
