G04 #@! TF.GenerationSoftware,KiCad,Pcbnew,5.1.0-060a0da~80~ubuntu18.04.1*
G04 #@! TF.CreationDate,2019-06-10T00:34:36+02:00*
G04 #@! TF.ProjectId,TinyFPGA-BX,54696e79-4650-4474-912d-42582e6b6963,rev?*
G04 #@! TF.SameCoordinates,Original*
G04 #@! TF.FileFunction,Copper,L2,Bot*
G04 #@! TF.FilePolarity,Positive*
%FSLAX46Y46*%
G04 Gerber Fmt 4.6, Leading zero omitted, Abs format (unit mm)*
G04 Created by KiCad (PCBNEW 5.1.0-060a0da~80~ubuntu18.04.1) date 2019-06-10 00:34:36*
%MOMM*%
%LPD*%
G04 APERTURE LIST*
%ADD10C,1.800000*%
%ADD11R,1.800000X1.800000*%
%ADD12R,1.700000X1.700000*%
%ADD13O,1.700000X1.700000*%
%ADD14C,0.500000*%
%ADD15C,0.600000*%
%ADD16C,0.100000*%
%ADD17C,0.200000*%
%ADD18C,0.300000*%
%ADD19C,0.254000*%
G04 APERTURE END LIST*
D10*
X158860000Y-114409000D03*
X161400000Y-115679000D03*
X158860000Y-116949000D03*
D11*
X161400000Y-118219000D03*
D12*
X184503000Y-127814000D03*
D13*
X181963000Y-127814000D03*
X179423000Y-127814000D03*
X176883000Y-127814000D03*
X174343000Y-127814000D03*
X171803000Y-127814000D03*
X169263000Y-127814000D03*
X166723000Y-127814000D03*
D12*
X186666000Y-96401000D03*
D13*
X186666000Y-98941000D03*
X186666000Y-101481000D03*
X186666000Y-104021000D03*
D11*
X133858000Y-97159000D03*
D10*
X136398000Y-98429000D03*
X133858000Y-99699000D03*
X136398000Y-100969000D03*
D11*
X133860000Y-114659000D03*
D10*
X136400000Y-115929000D03*
X133860000Y-117199000D03*
X136400000Y-118469000D03*
D11*
X161400000Y-126969000D03*
D10*
X158860000Y-125699000D03*
X161400000Y-124429000D03*
X158860000Y-123159000D03*
X136400000Y-109719000D03*
X133860000Y-108449000D03*
X136400000Y-107179000D03*
D11*
X133860000Y-105909000D03*
D10*
X136400000Y-127219000D03*
X133860000Y-125949000D03*
X136400000Y-124679000D03*
D11*
X133860000Y-123409000D03*
D10*
X158860000Y-105659000D03*
X161400000Y-106929000D03*
X158860000Y-108199000D03*
D11*
X161400000Y-109469000D03*
X161400000Y-100719000D03*
D10*
X158860000Y-99449000D03*
X161400000Y-98179000D03*
X158860000Y-96909000D03*
X143383000Y-127000000D03*
X140843000Y-125730000D03*
D11*
X140843000Y-120650000D03*
D10*
X143383000Y-121920000D03*
X140843000Y-123190000D03*
X143383000Y-124460000D03*
D14*
X149630003Y-111315778D03*
X147085364Y-111359636D03*
X146304000Y-95631000D03*
X154940000Y-101600000D03*
X171704000Y-95758000D03*
X155210442Y-109453519D03*
X152936000Y-119549746D03*
X148776000Y-114523100D03*
X154256679Y-114164543D03*
X154956000Y-125739100D03*
X163195000Y-111379000D03*
X154979692Y-116333275D03*
X151697543Y-122118877D03*
X142149843Y-122391157D03*
X146973001Y-122970001D03*
X156718000Y-122428000D03*
X156167973Y-121673163D03*
X148082000Y-121666000D03*
X155392091Y-114252270D03*
X155441057Y-130819711D03*
X150430000Y-130039000D03*
X155325547Y-124152814D03*
X149434200Y-126780500D03*
X146657393Y-106499254D03*
X147737090Y-106499254D03*
X148595141Y-99316840D03*
X147947031Y-108876818D03*
X156316527Y-99446101D03*
X149802581Y-99608091D03*
X146186323Y-114148423D03*
X149048427Y-129220894D03*
X151883356Y-128295519D03*
X156136000Y-97973100D03*
X153586000Y-97973100D03*
X148686000Y-97973100D03*
X146136000Y-97973100D03*
X151736000Y-110423100D03*
X146186000Y-114923100D03*
X150928900Y-114263000D03*
X155250560Y-112106867D03*
X154213320Y-119051509D03*
X148836380Y-119095520D03*
X150555000Y-119514000D03*
X182880000Y-118745000D03*
X184150000Y-120015000D03*
X184023000Y-116891001D03*
X176224000Y-115114000D03*
X186690000Y-110363000D03*
X169961000Y-115697000D03*
X171459215Y-115052785D03*
X172633886Y-115236001D03*
X173994215Y-115057785D03*
X156845000Y-110490000D03*
X157861000Y-111633000D03*
X154080000Y-127054000D03*
X145700000Y-126834000D03*
D15*
X153720000Y-108724000D03*
D14*
X155790815Y-122266783D03*
X148326870Y-117269113D03*
X149104000Y-109356100D03*
X148211000Y-101873100D03*
X149074074Y-106848306D03*
X151515987Y-111048068D03*
X150930000Y-117239000D03*
X153813445Y-117194042D03*
X153982979Y-111895914D03*
X141605000Y-115070000D03*
X157226000Y-115570000D03*
X162600001Y-113070001D03*
X144526000Y-130462440D03*
X150567069Y-124384250D03*
X152026849Y-126180918D03*
X150105000Y-120260000D03*
X169926000Y-116840000D03*
X148981126Y-101693479D03*
X154380000Y-116314000D03*
X147326000Y-102879100D03*
X155924815Y-113976192D03*
X154630000Y-118564000D03*
X155702000Y-116586000D03*
X155582044Y-124754000D03*
X152130000Y-122789000D03*
X146326489Y-129562439D03*
X181737000Y-103886000D03*
X180745343Y-102972657D03*
X181676000Y-111641000D03*
X181676000Y-107891000D03*
X181676000Y-108891000D03*
X181676000Y-106641000D03*
X181676000Y-105141000D03*
X168176000Y-102641000D03*
X168176000Y-104141000D03*
X184776000Y-111358157D03*
X181926000Y-115641000D03*
X185780887Y-105893506D03*
X187666001Y-105195999D03*
X185928000Y-117856000D03*
X184776000Y-107569000D03*
X144780000Y-97917000D03*
X185926000Y-116891000D03*
X185176000Y-97391000D03*
D16*
X149630003Y-111315778D02*
X147129222Y-111315778D01*
X147129222Y-111315778D02*
X147085364Y-111359636D01*
D17*
X154940000Y-101477100D02*
X154940000Y-101600000D01*
X146304000Y-95631000D02*
X149093900Y-95631000D01*
X149093900Y-95631000D02*
X154940000Y-101477100D01*
X164292949Y-103169051D02*
X171704000Y-95758000D01*
X154940000Y-101600000D02*
X156509051Y-103169051D01*
X156509051Y-103169051D02*
X164292949Y-103169051D01*
D18*
X155460441Y-109703518D02*
X155210442Y-109453519D01*
X156216000Y-110459077D02*
X155460441Y-109703518D01*
X156216000Y-110499100D02*
X156216000Y-110459077D01*
D16*
X155650561Y-111938439D02*
X155650561Y-112770661D01*
X156216000Y-111373000D02*
X155650561Y-111938439D01*
X154506678Y-113914544D02*
X154256679Y-114164543D01*
X155650561Y-112770661D02*
X154506678Y-113914544D01*
X156216000Y-110459077D02*
X156216000Y-111373000D01*
X154006680Y-113914544D02*
X154256679Y-114164543D01*
X153955135Y-113862999D02*
X154006680Y-113914544D01*
X149436101Y-113862999D02*
X153955135Y-113862999D01*
X148776000Y-114523100D02*
X149436101Y-113862999D01*
X154006680Y-114414542D02*
X154256679Y-114164543D01*
X153979999Y-114441223D02*
X154006680Y-114414542D01*
X153979999Y-116506001D02*
X153979999Y-114441223D01*
X154313446Y-116839448D02*
X153979999Y-116506001D01*
X154313446Y-118172300D02*
X154313446Y-116839448D01*
X152936000Y-119549746D02*
X154313446Y-118172300D01*
X154956000Y-125739100D02*
X152743438Y-125739100D01*
X142563002Y-123370002D02*
X150374340Y-123370002D01*
X140843000Y-121650000D02*
X142563002Y-123370002D01*
X152743438Y-125739100D02*
X150598669Y-123594331D01*
X150374340Y-123370002D02*
X150598669Y-123594331D01*
X140843000Y-120650000D02*
X140843000Y-121650000D01*
X163195000Y-111379000D02*
X162433000Y-112141000D01*
X162433000Y-112141000D02*
X159171967Y-112141000D01*
X159171967Y-112141000D02*
X154979692Y-116333275D01*
X142728687Y-122970001D02*
X142149843Y-122391157D01*
X151697543Y-122118877D02*
X150846419Y-122970001D01*
X150846419Y-122970001D02*
X146973001Y-122970001D01*
X146973001Y-122970001D02*
X142728687Y-122970001D01*
X156379216Y-122766784D02*
X156718000Y-122428000D01*
X155550814Y-122766784D02*
X156379216Y-122766784D01*
X151697543Y-122118877D02*
X154902907Y-122118877D01*
X154902907Y-122118877D02*
X155550814Y-122766784D01*
X156167910Y-121673100D02*
X156167973Y-121673163D01*
X148486000Y-121673100D02*
X156167910Y-121673100D01*
X148486000Y-121673100D02*
X148089100Y-121673100D01*
X148089100Y-121673100D02*
X148082000Y-121666000D01*
X155087504Y-130819711D02*
X155441057Y-130819711D01*
X154956611Y-130819711D02*
X155087504Y-130819711D01*
X154956000Y-130819100D02*
X154956611Y-130819711D01*
D18*
X149906000Y-130819100D02*
X150316085Y-130819100D01*
X150316085Y-130819100D02*
X150430000Y-130705185D01*
X150430000Y-130705185D02*
X150430000Y-130039000D01*
D16*
X155336000Y-124163267D02*
X155325547Y-124152814D01*
X155336000Y-124173101D02*
X155336000Y-124163267D01*
X169961000Y-115697000D02*
X170605215Y-115052785D01*
X170605215Y-115052785D02*
X171459215Y-115052785D01*
X172633886Y-115236001D02*
X173815999Y-115236001D01*
X173815999Y-115236001D02*
X173994215Y-115057785D01*
X156845000Y-110490000D02*
X157861000Y-111506000D01*
X157861000Y-111506000D02*
X157861000Y-111633000D01*
D17*
X153813445Y-117194042D02*
X153813445Y-117085421D01*
X153135133Y-111048068D02*
X151515987Y-111048068D01*
X153982979Y-111895914D02*
X153135133Y-111048068D01*
X153135133Y-109733131D02*
X153135133Y-111048068D01*
X153720000Y-109148264D02*
X153135133Y-109733131D01*
X153720000Y-108724000D02*
X153720000Y-109148264D01*
X150974958Y-117194042D02*
X150930000Y-117239000D01*
X153813445Y-117194042D02*
X150974958Y-117194042D01*
X148356983Y-117239000D02*
X148326870Y-117269113D01*
X150930000Y-117239000D02*
X148356983Y-117239000D01*
X162600001Y-126868999D02*
X162500000Y-126969000D01*
X162500000Y-126969000D02*
X161400000Y-126969000D01*
X162600001Y-118319001D02*
X162600001Y-126868999D01*
X162500000Y-118219000D02*
X162600001Y-118319001D01*
X161400000Y-118219000D02*
X162500000Y-118219000D01*
X148326870Y-117269113D02*
X143804113Y-117269113D01*
X143804113Y-117269113D02*
X141605000Y-115070000D01*
X149457553Y-109356100D02*
X149834584Y-109733131D01*
X149834584Y-109733131D02*
X153135133Y-109733131D01*
X149104000Y-109356100D02*
X149457553Y-109356100D01*
X148211000Y-105985232D02*
X149074074Y-106848306D01*
X148211000Y-101873100D02*
X148211000Y-105985232D01*
X145949999Y-127083999D02*
X145700000Y-126834000D01*
X146501000Y-127635000D02*
X145949999Y-127083999D01*
X153499000Y-127635000D02*
X146501000Y-127635000D01*
X154080000Y-127054000D02*
X153499000Y-127635000D01*
X161975001Y-113070001D02*
X162600001Y-113070001D01*
X159436001Y-115609001D02*
X161975001Y-113070001D01*
X157618554Y-115609001D02*
X159436001Y-115609001D01*
X157579553Y-115570000D02*
X157618554Y-115609001D01*
X157226000Y-115570000D02*
X157579553Y-115570000D01*
X141194000Y-114659000D02*
X133860000Y-114659000D01*
X141605000Y-115070000D02*
X141194000Y-114659000D01*
X144526000Y-128008000D02*
X145700000Y-126834000D01*
X144526000Y-130462440D02*
X144526000Y-128008000D01*
D16*
X152026849Y-126180918D02*
X152026849Y-125305367D01*
X152026849Y-125305367D02*
X151105732Y-124384250D01*
X151105732Y-124384250D02*
X150567069Y-124384250D01*
X145043000Y-120260000D02*
X143383000Y-121920000D01*
X150105000Y-120260000D02*
X145043000Y-120260000D01*
X156079842Y-126180918D02*
X159311924Y-129413000D01*
X152026849Y-126180918D02*
X156079842Y-126180918D01*
X170263001Y-117177001D02*
X169926000Y-116840000D01*
X170263001Y-128294001D02*
X170263001Y-117177001D01*
X159311924Y-129413000D02*
X169144002Y-129413000D01*
X169144002Y-129413000D02*
X170263001Y-128294001D01*
X148623381Y-101693479D02*
X148403001Y-101473099D01*
X148981126Y-101693479D02*
X148623381Y-101693479D01*
X161400000Y-123334000D02*
X161400000Y-124429000D01*
X154380000Y-116314000D02*
X161400000Y-123334000D01*
X157960001Y-124799001D02*
X158860000Y-125699000D01*
X157380000Y-124219000D02*
X157960001Y-124799001D01*
X157380000Y-121314000D02*
X157380000Y-124219000D01*
X154630000Y-118564000D02*
X157380000Y-121314000D01*
X156065000Y-116949000D02*
X158860000Y-116949000D01*
X155702000Y-116586000D02*
X156065000Y-116949000D01*
X155582044Y-124754000D02*
X155832043Y-124504001D01*
X155832043Y-124504001D02*
X155832043Y-123503819D01*
X155832043Y-123503819D02*
X155527324Y-123199100D01*
X155527324Y-123199100D02*
X154956000Y-123199100D01*
X152130000Y-122789000D02*
X152540100Y-123199100D01*
X152540100Y-123199100D02*
X154956000Y-123199100D01*
X181737000Y-103886000D02*
X180823657Y-102972657D01*
X180823657Y-102972657D02*
X180745343Y-102972657D01*
X181275999Y-112041001D02*
X181676000Y-111641000D01*
X182126000Y-128441000D02*
X181275999Y-127590999D01*
X181275999Y-127590999D02*
X181275999Y-112041001D01*
X179586000Y-128441000D02*
X179586000Y-109981000D01*
X179586000Y-109981000D02*
X181676000Y-107891000D01*
X180586001Y-109980999D02*
X181676000Y-108891000D01*
X180586001Y-128921001D02*
X180586001Y-109980999D01*
X180066001Y-129441001D02*
X180586001Y-128921001D01*
X177046000Y-128441000D02*
X178046001Y-129441001D01*
X178046001Y-129441001D02*
X180066001Y-129441001D01*
X174506000Y-128441000D02*
X174506000Y-113811000D01*
X174506000Y-113811000D02*
X181676000Y-106641000D01*
X171966000Y-128441000D02*
X171966000Y-114851000D01*
X171966000Y-114851000D02*
X181676000Y-105141000D01*
X169426000Y-128441000D02*
X169426000Y-103891000D01*
X169426000Y-103891000D02*
X168176000Y-102641000D01*
X166886000Y-128441000D02*
X166886000Y-122181000D01*
X166886000Y-122181000D02*
X168176000Y-120891000D01*
X168176000Y-120891000D02*
X168176000Y-104141000D01*
X181926000Y-114208157D02*
X184776000Y-111358157D01*
X181926000Y-115641000D02*
X181926000Y-114208157D01*
X185780887Y-105893506D02*
X186478394Y-105195999D01*
X186478394Y-105195999D02*
X187666001Y-105195999D01*
X185363001Y-117291001D02*
X185928000Y-117856000D01*
X181926000Y-115641000D02*
X183576001Y-117291001D01*
X183576001Y-117291001D02*
X185363001Y-117291001D01*
X144780000Y-96414998D02*
X144780000Y-97917000D01*
X146063999Y-95130999D02*
X144780000Y-96414998D01*
X172711000Y-95504000D02*
X172337999Y-95130999D01*
X172337999Y-95130999D02*
X146063999Y-95130999D01*
X184776000Y-107569000D02*
X172711000Y-95504000D01*
X185926000Y-116891000D02*
X185176000Y-116141000D01*
X185176000Y-116141000D02*
X185176000Y-97391000D01*
D19*
G36*
X188574001Y-131297000D02*
G01*
X131847000Y-131297000D01*
X131847000Y-128283080D01*
X135515525Y-128283080D01*
X135599208Y-128537261D01*
X135871775Y-128668158D01*
X136164642Y-128743365D01*
X136466553Y-128759991D01*
X136765907Y-128717397D01*
X137051199Y-128617222D01*
X137200792Y-128537261D01*
X137284475Y-128283080D01*
X136400000Y-127398605D01*
X135515525Y-128283080D01*
X131847000Y-128283080D01*
X131847000Y-127285553D01*
X134859009Y-127285553D01*
X134901603Y-127584907D01*
X135001778Y-127870199D01*
X135081739Y-128019792D01*
X135335920Y-128103475D01*
X136220395Y-127219000D01*
X136579605Y-127219000D01*
X137464080Y-128103475D01*
X137718261Y-128019792D01*
X137849158Y-127747225D01*
X137924365Y-127454358D01*
X137940991Y-127152447D01*
X137898397Y-126853093D01*
X137798222Y-126567801D01*
X137718261Y-126418208D01*
X137464080Y-126334525D01*
X136579605Y-127219000D01*
X136220395Y-127219000D01*
X135335920Y-126334525D01*
X135081739Y-126418208D01*
X134950842Y-126690775D01*
X134875635Y-126983642D01*
X134859009Y-127285553D01*
X131847000Y-127285553D01*
X131847000Y-125828151D01*
X132633000Y-125828151D01*
X132633000Y-126069849D01*
X132680153Y-126306903D01*
X132772647Y-126530202D01*
X132906927Y-126731167D01*
X133077833Y-126902073D01*
X133278798Y-127036353D01*
X133502097Y-127128847D01*
X133739151Y-127176000D01*
X133980849Y-127176000D01*
X134217903Y-127128847D01*
X134441202Y-127036353D01*
X134642167Y-126902073D01*
X134813073Y-126731167D01*
X134947353Y-126530202D01*
X135039847Y-126306903D01*
X135087000Y-126069849D01*
X135087000Y-125828151D01*
X135039847Y-125591097D01*
X134947353Y-125367798D01*
X134813073Y-125166833D01*
X134642167Y-124995927D01*
X134441202Y-124861647D01*
X134217903Y-124769153D01*
X133980849Y-124722000D01*
X133739151Y-124722000D01*
X133502097Y-124769153D01*
X133278798Y-124861647D01*
X133077833Y-124995927D01*
X132906927Y-125166833D01*
X132772647Y-125367798D01*
X132680153Y-125591097D01*
X132633000Y-125828151D01*
X131847000Y-125828151D01*
X131847000Y-122509000D01*
X132631418Y-122509000D01*
X132631418Y-124309000D01*
X132637732Y-124373103D01*
X132656430Y-124434743D01*
X132686794Y-124491550D01*
X132727657Y-124541343D01*
X132777450Y-124582206D01*
X132834257Y-124612570D01*
X132895897Y-124631268D01*
X132960000Y-124637582D01*
X134760000Y-124637582D01*
X134824103Y-124631268D01*
X134885743Y-124612570D01*
X134942550Y-124582206D01*
X134971861Y-124558151D01*
X135173000Y-124558151D01*
X135173000Y-124799849D01*
X135220153Y-125036903D01*
X135312647Y-125260202D01*
X135446927Y-125461167D01*
X135617833Y-125632073D01*
X135818798Y-125766353D01*
X135857796Y-125782507D01*
X135748801Y-125820778D01*
X135599208Y-125900739D01*
X135515525Y-126154920D01*
X136400000Y-127039395D01*
X137284475Y-126154920D01*
X137200792Y-125900739D01*
X136983845Y-125796553D01*
X139302009Y-125796553D01*
X139344603Y-126095907D01*
X139444778Y-126381199D01*
X139524739Y-126530792D01*
X139778920Y-126614475D01*
X140663395Y-125730000D01*
X139778920Y-124845525D01*
X139524739Y-124929208D01*
X139393842Y-125201775D01*
X139318635Y-125494642D01*
X139302009Y-125796553D01*
X136983845Y-125796553D01*
X136948858Y-125779751D01*
X136981202Y-125766353D01*
X137182167Y-125632073D01*
X137353073Y-125461167D01*
X137487353Y-125260202D01*
X137579847Y-125036903D01*
X137627000Y-124799849D01*
X137627000Y-124558151D01*
X137579847Y-124321097D01*
X137487353Y-124097798D01*
X137353073Y-123896833D01*
X137182167Y-123725927D01*
X136981202Y-123591647D01*
X136757903Y-123499153D01*
X136520849Y-123452000D01*
X136279151Y-123452000D01*
X136042097Y-123499153D01*
X135818798Y-123591647D01*
X135617833Y-123725927D01*
X135446927Y-123896833D01*
X135312647Y-124097798D01*
X135220153Y-124321097D01*
X135173000Y-124558151D01*
X134971861Y-124558151D01*
X134992343Y-124541343D01*
X135033206Y-124491550D01*
X135063570Y-124434743D01*
X135082268Y-124373103D01*
X135088582Y-124309000D01*
X135088582Y-122922547D01*
X135149826Y-122963469D01*
X135345836Y-123044659D01*
X135553920Y-123086050D01*
X135766080Y-123086050D01*
X135974164Y-123044659D01*
X136170174Y-122963469D01*
X136346579Y-122845599D01*
X136496599Y-122695579D01*
X136614469Y-122519174D01*
X136695659Y-122323164D01*
X136737050Y-122115080D01*
X136737050Y-121902920D01*
X136695659Y-121694836D01*
X136614469Y-121498826D01*
X136496599Y-121322421D01*
X136346579Y-121172401D01*
X136170174Y-121054531D01*
X135974164Y-120973341D01*
X135766080Y-120931950D01*
X135553920Y-120931950D01*
X135345836Y-120973341D01*
X135149826Y-121054531D01*
X134973421Y-121172401D01*
X134823401Y-121322421D01*
X134705531Y-121498826D01*
X134624341Y-121694836D01*
X134582950Y-121902920D01*
X134582950Y-122115080D01*
X134595947Y-122180418D01*
X132960000Y-122180418D01*
X132895897Y-122186732D01*
X132834257Y-122205430D01*
X132777450Y-122235794D01*
X132727657Y-122276657D01*
X132686794Y-122326450D01*
X132656430Y-122383257D01*
X132637732Y-122444897D01*
X132631418Y-122509000D01*
X131847000Y-122509000D01*
X131847000Y-119533080D01*
X135515525Y-119533080D01*
X135599208Y-119787261D01*
X135871775Y-119918158D01*
X136164642Y-119993365D01*
X136466553Y-120009991D01*
X136765907Y-119967397D01*
X137051199Y-119867222D01*
X137200792Y-119787261D01*
X137284475Y-119533080D01*
X136400000Y-118648605D01*
X135515525Y-119533080D01*
X131847000Y-119533080D01*
X131847000Y-118535553D01*
X134859009Y-118535553D01*
X134901603Y-118834907D01*
X135001778Y-119120199D01*
X135081739Y-119269792D01*
X135335920Y-119353475D01*
X136220395Y-118469000D01*
X136579605Y-118469000D01*
X137464080Y-119353475D01*
X137718261Y-119269792D01*
X137849158Y-118997225D01*
X137924365Y-118704358D01*
X137940991Y-118402447D01*
X137898397Y-118103093D01*
X137798222Y-117817801D01*
X137718261Y-117668208D01*
X137464080Y-117584525D01*
X136579605Y-118469000D01*
X136220395Y-118469000D01*
X135335920Y-117584525D01*
X135081739Y-117668208D01*
X134950842Y-117940775D01*
X134875635Y-118233642D01*
X134859009Y-118535553D01*
X131847000Y-118535553D01*
X131847000Y-117078151D01*
X132633000Y-117078151D01*
X132633000Y-117319849D01*
X132680153Y-117556903D01*
X132772647Y-117780202D01*
X132906927Y-117981167D01*
X133077833Y-118152073D01*
X133278798Y-118286353D01*
X133502097Y-118378847D01*
X133739151Y-118426000D01*
X133980849Y-118426000D01*
X134217903Y-118378847D01*
X134441202Y-118286353D01*
X134642167Y-118152073D01*
X134813073Y-117981167D01*
X134947353Y-117780202D01*
X135039847Y-117556903D01*
X135087000Y-117319849D01*
X135087000Y-117078151D01*
X135039847Y-116841097D01*
X134947353Y-116617798D01*
X134813073Y-116416833D01*
X134642167Y-116245927D01*
X134441202Y-116111647D01*
X134217903Y-116019153D01*
X133980849Y-115972000D01*
X133739151Y-115972000D01*
X133502097Y-116019153D01*
X133278798Y-116111647D01*
X133077833Y-116245927D01*
X132906927Y-116416833D01*
X132772647Y-116617798D01*
X132680153Y-116841097D01*
X132633000Y-117078151D01*
X131847000Y-117078151D01*
X131847000Y-113759000D01*
X132631418Y-113759000D01*
X132631418Y-115559000D01*
X132637732Y-115623103D01*
X132656430Y-115684743D01*
X132686794Y-115741550D01*
X132727657Y-115791343D01*
X132777450Y-115832206D01*
X132834257Y-115862570D01*
X132895897Y-115881268D01*
X132960000Y-115887582D01*
X134760000Y-115887582D01*
X134824103Y-115881268D01*
X134885743Y-115862570D01*
X134942550Y-115832206D01*
X134992343Y-115791343D01*
X135033206Y-115741550D01*
X135063570Y-115684743D01*
X135082268Y-115623103D01*
X135088582Y-115559000D01*
X135088582Y-115086000D01*
X135507760Y-115086000D01*
X135446927Y-115146833D01*
X135312647Y-115347798D01*
X135220153Y-115571097D01*
X135173000Y-115808151D01*
X135173000Y-116049849D01*
X135220153Y-116286903D01*
X135312647Y-116510202D01*
X135446927Y-116711167D01*
X135617833Y-116882073D01*
X135818798Y-117016353D01*
X135857796Y-117032507D01*
X135748801Y-117070778D01*
X135599208Y-117150739D01*
X135515525Y-117404920D01*
X136400000Y-118289395D01*
X137284475Y-117404920D01*
X137200792Y-117150739D01*
X136948858Y-117029751D01*
X136981202Y-117016353D01*
X137182167Y-116882073D01*
X137353073Y-116711167D01*
X137487353Y-116510202D01*
X137579847Y-116286903D01*
X137627000Y-116049849D01*
X137627000Y-115808151D01*
X137579847Y-115571097D01*
X137487353Y-115347798D01*
X137353073Y-115146833D01*
X137292240Y-115086000D01*
X141017132Y-115086000D01*
X141028000Y-115096868D01*
X141028000Y-115126830D01*
X141050174Y-115238305D01*
X141093669Y-115343312D01*
X141156815Y-115437816D01*
X141237184Y-115518185D01*
X141331688Y-115581331D01*
X141436695Y-115624826D01*
X141548170Y-115647000D01*
X141578132Y-115647000D01*
X143487349Y-117556218D01*
X143500718Y-117572508D01*
X143517008Y-117585877D01*
X143517011Y-117585880D01*
X143565736Y-117625868D01*
X143602533Y-117645536D01*
X143639917Y-117665518D01*
X143720406Y-117689935D01*
X143783135Y-117696113D01*
X143783147Y-117696113D01*
X143804112Y-117698178D01*
X143825077Y-117696113D01*
X147937869Y-117696113D01*
X147959054Y-117717298D01*
X148053558Y-117780444D01*
X148158565Y-117823939D01*
X148270040Y-117846113D01*
X148383700Y-117846113D01*
X148495175Y-117823939D01*
X148600182Y-117780444D01*
X148694686Y-117717298D01*
X148745984Y-117666000D01*
X150540999Y-117666000D01*
X150562184Y-117687185D01*
X150656688Y-117750331D01*
X150761695Y-117793826D01*
X150873170Y-117816000D01*
X150986830Y-117816000D01*
X151098305Y-117793826D01*
X151203312Y-117750331D01*
X151297816Y-117687185D01*
X151363959Y-117621042D01*
X153424444Y-117621042D01*
X153445629Y-117642227D01*
X153540133Y-117705373D01*
X153645140Y-117748868D01*
X153756615Y-117771042D01*
X153870275Y-117771042D01*
X153936446Y-117757880D01*
X153936446Y-118016141D01*
X152979842Y-118972746D01*
X152879170Y-118972746D01*
X152767695Y-118994920D01*
X152662688Y-119038415D01*
X152568184Y-119101561D01*
X152487815Y-119181930D01*
X152424669Y-119276434D01*
X152381174Y-119381441D01*
X152359000Y-119492916D01*
X152359000Y-119606576D01*
X152381174Y-119718051D01*
X152424669Y-119823058D01*
X152487815Y-119917562D01*
X152568184Y-119997931D01*
X152662688Y-120061077D01*
X152767695Y-120104572D01*
X152879170Y-120126746D01*
X152992830Y-120126746D01*
X153104305Y-120104572D01*
X153209312Y-120061077D01*
X153303816Y-119997931D01*
X153384185Y-119917562D01*
X153447331Y-119823058D01*
X153490826Y-119718051D01*
X153513000Y-119606576D01*
X153513000Y-119505904D01*
X154143873Y-118875032D01*
X154181815Y-118931816D01*
X154262184Y-119012185D01*
X154356688Y-119075331D01*
X154461695Y-119118826D01*
X154573170Y-119141000D01*
X154673842Y-119141000D01*
X157003000Y-121470158D01*
X157003000Y-121924479D01*
X156991312Y-121916669D01*
X156886305Y-121873174D01*
X156774830Y-121851000D01*
X156718851Y-121851000D01*
X156722799Y-121841468D01*
X156744973Y-121729993D01*
X156744973Y-121616333D01*
X156722799Y-121504858D01*
X156679304Y-121399851D01*
X156616158Y-121305347D01*
X156535789Y-121224978D01*
X156441285Y-121161832D01*
X156336278Y-121118337D01*
X156224803Y-121096163D01*
X156111143Y-121096163D01*
X155999668Y-121118337D01*
X155894661Y-121161832D01*
X155800157Y-121224978D01*
X155729035Y-121296100D01*
X148528101Y-121296100D01*
X148449816Y-121217815D01*
X148355312Y-121154669D01*
X148250305Y-121111174D01*
X148138830Y-121089000D01*
X148025170Y-121089000D01*
X147913695Y-121111174D01*
X147808688Y-121154669D01*
X147714184Y-121217815D01*
X147633815Y-121298184D01*
X147570669Y-121392688D01*
X147527174Y-121497695D01*
X147505000Y-121609170D01*
X147505000Y-121722830D01*
X147527174Y-121834305D01*
X147570669Y-121939312D01*
X147633815Y-122033816D01*
X147714184Y-122114185D01*
X147808688Y-122177331D01*
X147913695Y-122220826D01*
X148025170Y-122243000D01*
X148138830Y-122243000D01*
X148250305Y-122220826D01*
X148355312Y-122177331D01*
X148449816Y-122114185D01*
X148513901Y-122050100D01*
X151122919Y-122050100D01*
X151120543Y-122062047D01*
X151120543Y-122162718D01*
X150690261Y-122593001D01*
X147412002Y-122593001D01*
X147340817Y-122521816D01*
X147246313Y-122458670D01*
X147141306Y-122415175D01*
X147029831Y-122393001D01*
X146916171Y-122393001D01*
X146804696Y-122415175D01*
X146699689Y-122458670D01*
X146605185Y-122521816D01*
X146534000Y-122593001D01*
X144409015Y-122593001D01*
X144470353Y-122501202D01*
X144562847Y-122277903D01*
X144610000Y-122040849D01*
X144610000Y-121799151D01*
X144562847Y-121562097D01*
X144478263Y-121357895D01*
X145199159Y-120637000D01*
X149665999Y-120637000D01*
X149737184Y-120708185D01*
X149831688Y-120771331D01*
X149936695Y-120814826D01*
X150048170Y-120837000D01*
X150161830Y-120837000D01*
X150273305Y-120814826D01*
X150378312Y-120771331D01*
X150472816Y-120708185D01*
X150553185Y-120627816D01*
X150616331Y-120533312D01*
X150659826Y-120428305D01*
X150682000Y-120316830D01*
X150682000Y-120203170D01*
X150659826Y-120091695D01*
X150616331Y-119986688D01*
X150553185Y-119892184D01*
X150472816Y-119811815D01*
X150378312Y-119748669D01*
X150273305Y-119705174D01*
X150161830Y-119683000D01*
X150048170Y-119683000D01*
X149936695Y-119705174D01*
X149831688Y-119748669D01*
X149737184Y-119811815D01*
X149665999Y-119883000D01*
X145061519Y-119883000D01*
X145043000Y-119881176D01*
X144969094Y-119888455D01*
X144898030Y-119910012D01*
X144832537Y-119945019D01*
X144775131Y-119992131D01*
X144763328Y-120006513D01*
X143945105Y-120824737D01*
X143740903Y-120740153D01*
X143503849Y-120693000D01*
X143262151Y-120693000D01*
X143025097Y-120740153D01*
X142801798Y-120832647D01*
X142600833Y-120966927D01*
X142429927Y-121137833D01*
X142295647Y-121338798D01*
X142203153Y-121562097D01*
X142156000Y-121799151D01*
X142156000Y-121814157D01*
X142093013Y-121814157D01*
X141981538Y-121836331D01*
X141876531Y-121879826D01*
X141782027Y-121942972D01*
X141725579Y-121999420D01*
X141604740Y-121878582D01*
X141743000Y-121878582D01*
X141807103Y-121872268D01*
X141868743Y-121853570D01*
X141925550Y-121823206D01*
X141975343Y-121782343D01*
X142016206Y-121732550D01*
X142046570Y-121675743D01*
X142065268Y-121614103D01*
X142071582Y-121550000D01*
X142071582Y-120163547D01*
X142132826Y-120204469D01*
X142328836Y-120285659D01*
X142536920Y-120327050D01*
X142749080Y-120327050D01*
X142957164Y-120285659D01*
X143153174Y-120204469D01*
X143329579Y-120086599D01*
X143479599Y-119936579D01*
X143597469Y-119760174D01*
X143678659Y-119564164D01*
X143720050Y-119356080D01*
X143720050Y-119143920D01*
X143678659Y-118935836D01*
X143597469Y-118739826D01*
X143479599Y-118563421D01*
X143329579Y-118413401D01*
X143153174Y-118295531D01*
X142957164Y-118214341D01*
X142749080Y-118172950D01*
X142536920Y-118172950D01*
X142328836Y-118214341D01*
X142132826Y-118295531D01*
X141956421Y-118413401D01*
X141806401Y-118563421D01*
X141688531Y-118739826D01*
X141607341Y-118935836D01*
X141565950Y-119143920D01*
X141565950Y-119356080D01*
X141578947Y-119421418D01*
X139943000Y-119421418D01*
X139878897Y-119427732D01*
X139817257Y-119446430D01*
X139760450Y-119476794D01*
X139710657Y-119517657D01*
X139669794Y-119567450D01*
X139639430Y-119624257D01*
X139620732Y-119685897D01*
X139614418Y-119750000D01*
X139614418Y-121550000D01*
X139620732Y-121614103D01*
X139639430Y-121675743D01*
X139669794Y-121732550D01*
X139710657Y-121782343D01*
X139760450Y-121823206D01*
X139817257Y-121853570D01*
X139878897Y-121872268D01*
X139943000Y-121878582D01*
X140542890Y-121878582D01*
X140563326Y-121903484D01*
X140563329Y-121903487D01*
X140575132Y-121917869D01*
X140589514Y-121929672D01*
X140639318Y-121979476D01*
X140485097Y-122010153D01*
X140261798Y-122102647D01*
X140060833Y-122236927D01*
X139889927Y-122407833D01*
X139755647Y-122608798D01*
X139663153Y-122832097D01*
X139616000Y-123069151D01*
X139616000Y-123310849D01*
X139663153Y-123547903D01*
X139755647Y-123771202D01*
X139889927Y-123972167D01*
X140060833Y-124143073D01*
X140261798Y-124277353D01*
X140300796Y-124293507D01*
X140191801Y-124331778D01*
X140042208Y-124411739D01*
X139958525Y-124665920D01*
X140843000Y-125550395D01*
X141727475Y-124665920D01*
X141643792Y-124411739D01*
X141391858Y-124290751D01*
X141424202Y-124277353D01*
X141625167Y-124143073D01*
X141796073Y-123972167D01*
X141930353Y-123771202D01*
X142022847Y-123547903D01*
X142053523Y-123393682D01*
X142283330Y-123623489D01*
X142295133Y-123637871D01*
X142352539Y-123684983D01*
X142406041Y-123713581D01*
X142295647Y-123878798D01*
X142203153Y-124102097D01*
X142156000Y-124339151D01*
X142156000Y-124580849D01*
X142203153Y-124817903D01*
X142295647Y-125041202D01*
X142429927Y-125242167D01*
X142600833Y-125413073D01*
X142801798Y-125547353D01*
X142840796Y-125563507D01*
X142731801Y-125601778D01*
X142582208Y-125681739D01*
X142498526Y-125935918D01*
X142382578Y-125819970D01*
X142374951Y-125827597D01*
X142383991Y-125663447D01*
X142341397Y-125364093D01*
X142241222Y-125078801D01*
X142161261Y-124929208D01*
X141907080Y-124845525D01*
X141022605Y-125730000D01*
X141036748Y-125744143D01*
X140857143Y-125923748D01*
X140843000Y-125909605D01*
X139958525Y-126794080D01*
X140042208Y-127048261D01*
X140314775Y-127179158D01*
X140607642Y-127254365D01*
X140909553Y-127270991D01*
X141208907Y-127228397D01*
X141494199Y-127128222D01*
X141643792Y-127048261D01*
X141727474Y-126794082D01*
X141843422Y-126910030D01*
X141851049Y-126902403D01*
X141842009Y-127066553D01*
X141884603Y-127365907D01*
X141984778Y-127651199D01*
X142064739Y-127800792D01*
X142318920Y-127884475D01*
X143203395Y-127000000D01*
X143189253Y-126985858D01*
X143368858Y-126806253D01*
X143383000Y-126820395D01*
X144267475Y-125935920D01*
X144183792Y-125681739D01*
X143931858Y-125560751D01*
X143964202Y-125547353D01*
X144165167Y-125413073D01*
X144336073Y-125242167D01*
X144470353Y-125041202D01*
X144562847Y-124817903D01*
X144610000Y-124580849D01*
X144610000Y-124339151D01*
X144562847Y-124102097D01*
X144470353Y-123878798D01*
X144382290Y-123747002D01*
X150218182Y-123747002D01*
X150329354Y-123858174D01*
X150293757Y-123872919D01*
X150199253Y-123936065D01*
X150118884Y-124016434D01*
X150055738Y-124110938D01*
X150012243Y-124215945D01*
X149990069Y-124327420D01*
X149990069Y-124441080D01*
X150012243Y-124552555D01*
X150055738Y-124657562D01*
X150118884Y-124752066D01*
X150199253Y-124832435D01*
X150293757Y-124895581D01*
X150398764Y-124939076D01*
X150510239Y-124961250D01*
X150623899Y-124961250D01*
X150735374Y-124939076D01*
X150840381Y-124895581D01*
X150934885Y-124832435D01*
X150977822Y-124789498D01*
X151649850Y-125461527D01*
X151649850Y-125741916D01*
X151578664Y-125813102D01*
X151515518Y-125907606D01*
X151472023Y-126012613D01*
X151449849Y-126124088D01*
X151449849Y-126237748D01*
X151472023Y-126349223D01*
X151515518Y-126454230D01*
X151578664Y-126548734D01*
X151659033Y-126629103D01*
X151753537Y-126692249D01*
X151858544Y-126735744D01*
X151970019Y-126757918D01*
X152083679Y-126757918D01*
X152195154Y-126735744D01*
X152300161Y-126692249D01*
X152394665Y-126629103D01*
X152465850Y-126557918D01*
X153783866Y-126557918D01*
X153712184Y-126605815D01*
X153631815Y-126686184D01*
X153568669Y-126780688D01*
X153525174Y-126885695D01*
X153503000Y-126997170D01*
X153503000Y-127027131D01*
X153322132Y-127208000D01*
X146677869Y-127208000D01*
X146277000Y-126807132D01*
X146277000Y-126777170D01*
X146254826Y-126665695D01*
X146211331Y-126560688D01*
X146148185Y-126466184D01*
X146067816Y-126385815D01*
X145973312Y-126322669D01*
X145868305Y-126279174D01*
X145756830Y-126257000D01*
X145643170Y-126257000D01*
X145531695Y-126279174D01*
X145426688Y-126322669D01*
X145332184Y-126385815D01*
X145251815Y-126466184D01*
X145188669Y-126560688D01*
X145145174Y-126665695D01*
X145123000Y-126777170D01*
X145123000Y-126807131D01*
X144919755Y-127010377D01*
X144923991Y-126933447D01*
X144881397Y-126634093D01*
X144781222Y-126348801D01*
X144701261Y-126199208D01*
X144447080Y-126115525D01*
X143562605Y-127000000D01*
X143576748Y-127014143D01*
X143397143Y-127193748D01*
X143383000Y-127179605D01*
X142498525Y-128064080D01*
X142582208Y-128318261D01*
X142854775Y-128449158D01*
X143147642Y-128524365D01*
X143449553Y-128540991D01*
X143748907Y-128498397D01*
X144034199Y-128398222D01*
X144099001Y-128363584D01*
X144099000Y-130073439D01*
X144077815Y-130094624D01*
X144014669Y-130189128D01*
X143971174Y-130294135D01*
X143949000Y-130405610D01*
X143949000Y-130519270D01*
X143971174Y-130630745D01*
X144014669Y-130735752D01*
X144077815Y-130830256D01*
X144158184Y-130910625D01*
X144252688Y-130973771D01*
X144357695Y-131017266D01*
X144469170Y-131039440D01*
X144582830Y-131039440D01*
X144694305Y-131017266D01*
X144799312Y-130973771D01*
X144893816Y-130910625D01*
X144974185Y-130830256D01*
X145037331Y-130735752D01*
X145080826Y-130630745D01*
X145103000Y-130519270D01*
X145103000Y-130405610D01*
X145080826Y-130294135D01*
X145037331Y-130189128D01*
X144974185Y-130094624D01*
X144953000Y-130073439D01*
X144953000Y-129505609D01*
X145749489Y-129505609D01*
X145749489Y-129619269D01*
X145771663Y-129730744D01*
X145815158Y-129835751D01*
X145878304Y-129930255D01*
X145958673Y-130010624D01*
X146053177Y-130073770D01*
X146158184Y-130117265D01*
X146269659Y-130139439D01*
X146383319Y-130139439D01*
X146494794Y-130117265D01*
X146599801Y-130073770D01*
X146694305Y-130010624D01*
X146774674Y-129930255D01*
X146837820Y-129835751D01*
X146881315Y-129730744D01*
X146903489Y-129619269D01*
X146903489Y-129505609D01*
X146881315Y-129394134D01*
X146837820Y-129289127D01*
X146774674Y-129194623D01*
X146694305Y-129114254D01*
X146599801Y-129051108D01*
X146494794Y-129007613D01*
X146383319Y-128985439D01*
X146269659Y-128985439D01*
X146158184Y-129007613D01*
X146053177Y-129051108D01*
X145958673Y-129114254D01*
X145878304Y-129194623D01*
X145815158Y-129289127D01*
X145771663Y-129394134D01*
X145749489Y-129505609D01*
X144953000Y-129505609D01*
X144953000Y-128184868D01*
X145700000Y-127437868D01*
X146184236Y-127922105D01*
X146197605Y-127938395D01*
X146213895Y-127951764D01*
X146213899Y-127951768D01*
X146262623Y-127991755D01*
X146293016Y-128008000D01*
X146336804Y-128031405D01*
X146417293Y-128055822D01*
X146480022Y-128062000D01*
X146480032Y-128062000D01*
X146500999Y-128064065D01*
X146521966Y-128062000D01*
X153478033Y-128062000D01*
X153499000Y-128064065D01*
X153519967Y-128062000D01*
X153519978Y-128062000D01*
X153582707Y-128055822D01*
X153663196Y-128031405D01*
X153737376Y-127991755D01*
X153802395Y-127938395D01*
X153815768Y-127922100D01*
X154106869Y-127631000D01*
X154136830Y-127631000D01*
X154248305Y-127608826D01*
X154353312Y-127565331D01*
X154447816Y-127502185D01*
X154528185Y-127421816D01*
X154591331Y-127327312D01*
X154634826Y-127222305D01*
X154657000Y-127110830D01*
X154657000Y-126997170D01*
X154634826Y-126885695D01*
X154591331Y-126780688D01*
X154528185Y-126686184D01*
X154447816Y-126605815D01*
X154376134Y-126557918D01*
X155923684Y-126557918D01*
X159032252Y-129666487D01*
X159044055Y-129680869D01*
X159101461Y-129727981D01*
X159166954Y-129762988D01*
X159238019Y-129784545D01*
X159293405Y-129790000D01*
X159293414Y-129790000D01*
X159311923Y-129791823D01*
X159330432Y-129790000D01*
X169125490Y-129790000D01*
X169144002Y-129791823D01*
X169162514Y-129790000D01*
X169162521Y-129790000D01*
X169217907Y-129784545D01*
X169288972Y-129762988D01*
X169354465Y-129727981D01*
X169411871Y-129680869D01*
X169423679Y-129666481D01*
X170516489Y-128573672D01*
X170530870Y-128561870D01*
X170577982Y-128504464D01*
X170612989Y-128438971D01*
X170634546Y-128367906D01*
X170640001Y-128312520D01*
X170640001Y-128312519D01*
X170641825Y-128294001D01*
X170640001Y-128275482D01*
X170640001Y-128013968D01*
X170643031Y-128044732D01*
X170710333Y-128266597D01*
X170819626Y-128471070D01*
X170966709Y-128650291D01*
X171145930Y-128797374D01*
X171350403Y-128906667D01*
X171572268Y-128973969D01*
X171745188Y-128991000D01*
X171860812Y-128991000D01*
X172033732Y-128973969D01*
X172255597Y-128906667D01*
X172460070Y-128797374D01*
X172639291Y-128650291D01*
X172786374Y-128471070D01*
X172895667Y-128266597D01*
X172962969Y-128044732D01*
X172985694Y-127814000D01*
X172962969Y-127583268D01*
X172895667Y-127361403D01*
X172786374Y-127156930D01*
X172639291Y-126977709D01*
X172460070Y-126830626D01*
X172343000Y-126768051D01*
X172343000Y-115007158D01*
X181632159Y-105718000D01*
X181732830Y-105718000D01*
X181844305Y-105695826D01*
X181949312Y-105652331D01*
X182043816Y-105589185D01*
X182124185Y-105508816D01*
X182147606Y-105473765D01*
X184199000Y-107525159D01*
X184199000Y-107625830D01*
X184221174Y-107737305D01*
X184264669Y-107842312D01*
X184327815Y-107936816D01*
X184408184Y-108017185D01*
X184502688Y-108080331D01*
X184607695Y-108123826D01*
X184719170Y-108146000D01*
X184799000Y-108146000D01*
X184799000Y-110781157D01*
X184719170Y-110781157D01*
X184607695Y-110803331D01*
X184502688Y-110846826D01*
X184408184Y-110909972D01*
X184327815Y-110990341D01*
X184264669Y-111084845D01*
X184221174Y-111189852D01*
X184199000Y-111301327D01*
X184199000Y-111401998D01*
X181672514Y-113928485D01*
X181658132Y-113940288D01*
X181652999Y-113946543D01*
X181652999Y-112218000D01*
X181732830Y-112218000D01*
X181844305Y-112195826D01*
X181949312Y-112152331D01*
X182043816Y-112089185D01*
X182124185Y-112008816D01*
X182187331Y-111914312D01*
X182230826Y-111809305D01*
X182253000Y-111697830D01*
X182253000Y-111584170D01*
X182230826Y-111472695D01*
X182187331Y-111367688D01*
X182124185Y-111273184D01*
X182043816Y-111192815D01*
X181949312Y-111129669D01*
X181844305Y-111086174D01*
X181732830Y-111064000D01*
X181619170Y-111064000D01*
X181507695Y-111086174D01*
X181402688Y-111129669D01*
X181308184Y-111192815D01*
X181227815Y-111273184D01*
X181164669Y-111367688D01*
X181121174Y-111472695D01*
X181099000Y-111584170D01*
X181099000Y-111684842D01*
X181022513Y-111761329D01*
X181008131Y-111773132D01*
X180996328Y-111787514D01*
X180996325Y-111787517D01*
X180963001Y-111828123D01*
X180963001Y-110137157D01*
X181632158Y-109468000D01*
X181732830Y-109468000D01*
X181844305Y-109445826D01*
X181949312Y-109402331D01*
X182043816Y-109339185D01*
X182124185Y-109258816D01*
X182187331Y-109164312D01*
X182230826Y-109059305D01*
X182253000Y-108947830D01*
X182253000Y-108834170D01*
X182230826Y-108722695D01*
X182187331Y-108617688D01*
X182124185Y-108523184D01*
X182043816Y-108442815D01*
X181966270Y-108391000D01*
X182043816Y-108339185D01*
X182124185Y-108258816D01*
X182187331Y-108164312D01*
X182230826Y-108059305D01*
X182253000Y-107947830D01*
X182253000Y-107834170D01*
X182230826Y-107722695D01*
X182187331Y-107617688D01*
X182124185Y-107523184D01*
X182043816Y-107442815D01*
X181949312Y-107379669D01*
X181844305Y-107336174D01*
X181732830Y-107314000D01*
X181619170Y-107314000D01*
X181515546Y-107334612D01*
X181632158Y-107218000D01*
X181732830Y-107218000D01*
X181844305Y-107195826D01*
X181949312Y-107152331D01*
X182043816Y-107089185D01*
X182124185Y-107008816D01*
X182187331Y-106914312D01*
X182230826Y-106809305D01*
X182253000Y-106697830D01*
X182253000Y-106584170D01*
X182230826Y-106472695D01*
X182187331Y-106367688D01*
X182124185Y-106273184D01*
X182043816Y-106192815D01*
X181949312Y-106129669D01*
X181844305Y-106086174D01*
X181732830Y-106064000D01*
X181619170Y-106064000D01*
X181507695Y-106086174D01*
X181402688Y-106129669D01*
X181308184Y-106192815D01*
X181227815Y-106273184D01*
X181164669Y-106367688D01*
X181121174Y-106472695D01*
X181099000Y-106584170D01*
X181099000Y-106684842D01*
X174252514Y-113531328D01*
X174238132Y-113543131D01*
X174226329Y-113557513D01*
X174226326Y-113557516D01*
X174191020Y-113600537D01*
X174156012Y-113666031D01*
X174134455Y-113737095D01*
X174127177Y-113811000D01*
X174129001Y-113829522D01*
X174129000Y-126652383D01*
X174112268Y-126654031D01*
X173890403Y-126721333D01*
X173685930Y-126830626D01*
X173506709Y-126977709D01*
X173359626Y-127156930D01*
X173250333Y-127361403D01*
X173183031Y-127583268D01*
X173160306Y-127814000D01*
X173183031Y-128044732D01*
X173250333Y-128266597D01*
X173359626Y-128471070D01*
X173506709Y-128650291D01*
X173685930Y-128797374D01*
X173890403Y-128906667D01*
X174112268Y-128973969D01*
X174285188Y-128991000D01*
X174400812Y-128991000D01*
X174573732Y-128973969D01*
X174795597Y-128906667D01*
X175000070Y-128797374D01*
X175179291Y-128650291D01*
X175326374Y-128471070D01*
X175435667Y-128266597D01*
X175502969Y-128044732D01*
X175525694Y-127814000D01*
X175502969Y-127583268D01*
X175435667Y-127361403D01*
X175326374Y-127156930D01*
X175179291Y-126977709D01*
X175000070Y-126830626D01*
X174883000Y-126768051D01*
X174883000Y-113967158D01*
X181119612Y-107730546D01*
X181099000Y-107834170D01*
X181099000Y-107934842D01*
X179332514Y-109701328D01*
X179318132Y-109713131D01*
X179306329Y-109727513D01*
X179306326Y-109727516D01*
X179271020Y-109770537D01*
X179236012Y-109836031D01*
X179214455Y-109907095D01*
X179207177Y-109981000D01*
X179209001Y-109999522D01*
X179209000Y-126652383D01*
X179192268Y-126654031D01*
X178970403Y-126721333D01*
X178765930Y-126830626D01*
X178586709Y-126977709D01*
X178439626Y-127156930D01*
X178330333Y-127361403D01*
X178263031Y-127583268D01*
X178240306Y-127814000D01*
X178263031Y-128044732D01*
X178330333Y-128266597D01*
X178439626Y-128471070D01*
X178586709Y-128650291D01*
X178765930Y-128797374D01*
X178970403Y-128906667D01*
X179192268Y-128973969D01*
X179365188Y-128991000D01*
X179480812Y-128991000D01*
X179653732Y-128973969D01*
X179875597Y-128906667D01*
X180080070Y-128797374D01*
X180209001Y-128691563D01*
X180209001Y-128764842D01*
X179909843Y-129064001D01*
X178202160Y-129064001D01*
X177750464Y-128612306D01*
X177866374Y-128471070D01*
X177975667Y-128266597D01*
X178042969Y-128044732D01*
X178065694Y-127814000D01*
X178042969Y-127583268D01*
X177975667Y-127361403D01*
X177866374Y-127156930D01*
X177719291Y-126977709D01*
X177540070Y-126830626D01*
X177335597Y-126721333D01*
X177113732Y-126654031D01*
X176940812Y-126637000D01*
X176825188Y-126637000D01*
X176652268Y-126654031D01*
X176430403Y-126721333D01*
X176225930Y-126830626D01*
X176046709Y-126977709D01*
X175899626Y-127156930D01*
X175790333Y-127361403D01*
X175723031Y-127583268D01*
X175700306Y-127814000D01*
X175723031Y-128044732D01*
X175790333Y-128266597D01*
X175899626Y-128471070D01*
X176046709Y-128650291D01*
X176225930Y-128797374D01*
X176430403Y-128906667D01*
X176652268Y-128973969D01*
X176825188Y-128991000D01*
X176940812Y-128991000D01*
X177051901Y-128980059D01*
X177766329Y-129694488D01*
X177778132Y-129708870D01*
X177792514Y-129720673D01*
X177792516Y-129720675D01*
X177804785Y-129730744D01*
X177835538Y-129755982D01*
X177888975Y-129784545D01*
X177901031Y-129790989D01*
X177972095Y-129812546D01*
X177979055Y-129813231D01*
X178027482Y-129818001D01*
X178027489Y-129818001D01*
X178046001Y-129819824D01*
X178064513Y-129818001D01*
X180047489Y-129818001D01*
X180066001Y-129819824D01*
X180084513Y-129818001D01*
X180084520Y-129818001D01*
X180139906Y-129812546D01*
X180210971Y-129790989D01*
X180276464Y-129755982D01*
X180333870Y-129708870D01*
X180345678Y-129694483D01*
X180839489Y-129200672D01*
X180853870Y-129188870D01*
X180900982Y-129131464D01*
X180935989Y-129065971D01*
X180957546Y-128994906D01*
X180963001Y-128939520D01*
X180963001Y-128939511D01*
X180964824Y-128921002D01*
X180963001Y-128902493D01*
X180963001Y-128439967D01*
X180979626Y-128471070D01*
X181126709Y-128650291D01*
X181305930Y-128797374D01*
X181510403Y-128906667D01*
X181732268Y-128973969D01*
X181905188Y-128991000D01*
X182020812Y-128991000D01*
X182193732Y-128973969D01*
X182415597Y-128906667D01*
X182620070Y-128797374D01*
X182799291Y-128650291D01*
X182946374Y-128471070D01*
X183055667Y-128266597D01*
X183122969Y-128044732D01*
X183145694Y-127814000D01*
X183122969Y-127583268D01*
X183055667Y-127361403D01*
X182946374Y-127156930D01*
X182799291Y-126977709D01*
X182782587Y-126964000D01*
X183324418Y-126964000D01*
X183324418Y-128664000D01*
X183330732Y-128728103D01*
X183349430Y-128789743D01*
X183379794Y-128846550D01*
X183420657Y-128896343D01*
X183470450Y-128937206D01*
X183527257Y-128967570D01*
X183588897Y-128986268D01*
X183653000Y-128992582D01*
X185353000Y-128992582D01*
X185417103Y-128986268D01*
X185478743Y-128967570D01*
X185535550Y-128937206D01*
X185585343Y-128896343D01*
X185626206Y-128846550D01*
X185656570Y-128789743D01*
X185675268Y-128728103D01*
X185681582Y-128664000D01*
X185681582Y-126964000D01*
X185675268Y-126899897D01*
X185656570Y-126838257D01*
X185626206Y-126781450D01*
X185585343Y-126731657D01*
X185535550Y-126690794D01*
X185478743Y-126660430D01*
X185417103Y-126641732D01*
X185353000Y-126635418D01*
X183653000Y-126635418D01*
X183588897Y-126641732D01*
X183527257Y-126660430D01*
X183470450Y-126690794D01*
X183420657Y-126731657D01*
X183379794Y-126781450D01*
X183349430Y-126838257D01*
X183330732Y-126899897D01*
X183324418Y-126964000D01*
X182782587Y-126964000D01*
X182620070Y-126830626D01*
X182415597Y-126721333D01*
X182193732Y-126654031D01*
X182020812Y-126637000D01*
X181905188Y-126637000D01*
X181732268Y-126654031D01*
X181652999Y-126678077D01*
X181652999Y-116152460D01*
X181757695Y-116195826D01*
X181869170Y-116218000D01*
X181969842Y-116218000D01*
X183296329Y-117544488D01*
X183308132Y-117558870D01*
X183322514Y-117570673D01*
X183322516Y-117570675D01*
X183341044Y-117585880D01*
X183365538Y-117605982D01*
X183402742Y-117625868D01*
X183431031Y-117640989D01*
X183502095Y-117662546D01*
X183576001Y-117669825D01*
X183594520Y-117668001D01*
X185206843Y-117668001D01*
X185351000Y-117812158D01*
X185351000Y-117912830D01*
X185373174Y-118024305D01*
X185416669Y-118129312D01*
X185479815Y-118223816D01*
X185560184Y-118304185D01*
X185654688Y-118367331D01*
X185759695Y-118410826D01*
X185871170Y-118433000D01*
X185984830Y-118433000D01*
X186096305Y-118410826D01*
X186201312Y-118367331D01*
X186295816Y-118304185D01*
X186376185Y-118223816D01*
X186439331Y-118129312D01*
X186482826Y-118024305D01*
X186505000Y-117912830D01*
X186505000Y-117799170D01*
X186482826Y-117687695D01*
X186439331Y-117582688D01*
X186376185Y-117488184D01*
X186295816Y-117407815D01*
X186243460Y-117372832D01*
X186293816Y-117339185D01*
X186374185Y-117258816D01*
X186437331Y-117164312D01*
X186480826Y-117059305D01*
X186503000Y-116947830D01*
X186503000Y-116834170D01*
X186480826Y-116722695D01*
X186437331Y-116617688D01*
X186374185Y-116523184D01*
X186293816Y-116442815D01*
X186199312Y-116379669D01*
X186094305Y-116336174D01*
X185982830Y-116314000D01*
X185882159Y-116314000D01*
X185553000Y-115984842D01*
X185553000Y-106423653D01*
X185612582Y-106448332D01*
X185724057Y-106470506D01*
X185837717Y-106470506D01*
X185949192Y-106448332D01*
X186054199Y-106404837D01*
X186148703Y-106341691D01*
X186229072Y-106261322D01*
X186292218Y-106166818D01*
X186335713Y-106061811D01*
X186357887Y-105950336D01*
X186357887Y-105849664D01*
X186634553Y-105572999D01*
X187227000Y-105572999D01*
X187298185Y-105644184D01*
X187392689Y-105707330D01*
X187497696Y-105750825D01*
X187609171Y-105772999D01*
X187722831Y-105772999D01*
X187834306Y-105750825D01*
X187939313Y-105707330D01*
X188033817Y-105644184D01*
X188114186Y-105563815D01*
X188177332Y-105469311D01*
X188220827Y-105364304D01*
X188243001Y-105252829D01*
X188243001Y-105139169D01*
X188220827Y-105027694D01*
X188177332Y-104922687D01*
X188114186Y-104828183D01*
X188033817Y-104747814D01*
X187939313Y-104684668D01*
X187834306Y-104641173D01*
X187722831Y-104618999D01*
X187680948Y-104618999D01*
X187758667Y-104473597D01*
X187825969Y-104251732D01*
X187848694Y-104021000D01*
X187825969Y-103790268D01*
X187758667Y-103568403D01*
X187649374Y-103363930D01*
X187502291Y-103184709D01*
X187323070Y-103037626D01*
X187118597Y-102928333D01*
X186896732Y-102861031D01*
X186723812Y-102844000D01*
X186608188Y-102844000D01*
X186435268Y-102861031D01*
X186213403Y-102928333D01*
X186008930Y-103037626D01*
X185829709Y-103184709D01*
X185682626Y-103363930D01*
X185573333Y-103568403D01*
X185553000Y-103635432D01*
X185553000Y-101866568D01*
X185573333Y-101933597D01*
X185682626Y-102138070D01*
X185829709Y-102317291D01*
X186008930Y-102464374D01*
X186213403Y-102573667D01*
X186435268Y-102640969D01*
X186608188Y-102658000D01*
X186723812Y-102658000D01*
X186896732Y-102640969D01*
X187118597Y-102573667D01*
X187323070Y-102464374D01*
X187502291Y-102317291D01*
X187649374Y-102138070D01*
X187758667Y-101933597D01*
X187825969Y-101711732D01*
X187848694Y-101481000D01*
X187825969Y-101250268D01*
X187758667Y-101028403D01*
X187649374Y-100823930D01*
X187502291Y-100644709D01*
X187323070Y-100497626D01*
X187118597Y-100388333D01*
X187058115Y-100369986D01*
X187297252Y-100285157D01*
X187547355Y-100136178D01*
X187763588Y-99941269D01*
X187937641Y-99707920D01*
X188062825Y-99445099D01*
X188107476Y-99297890D01*
X187986155Y-99068000D01*
X186793000Y-99068000D01*
X186793000Y-99088000D01*
X186539000Y-99088000D01*
X186539000Y-99068000D01*
X186519000Y-99068000D01*
X186519000Y-98814000D01*
X186539000Y-98814000D01*
X186539000Y-98794000D01*
X186793000Y-98794000D01*
X186793000Y-98814000D01*
X187986155Y-98814000D01*
X188107476Y-98584110D01*
X188062825Y-98436901D01*
X187937641Y-98174080D01*
X187763588Y-97940731D01*
X187547355Y-97745822D01*
X187297252Y-97596843D01*
X187248592Y-97579582D01*
X187516000Y-97579582D01*
X187580103Y-97573268D01*
X187641743Y-97554570D01*
X187698550Y-97524206D01*
X187748343Y-97483343D01*
X187789206Y-97433550D01*
X187819570Y-97376743D01*
X187838268Y-97315103D01*
X187844582Y-97251000D01*
X187844582Y-95551000D01*
X187838268Y-95486897D01*
X187819570Y-95425257D01*
X187789206Y-95368450D01*
X187748343Y-95318657D01*
X187698550Y-95277794D01*
X187641743Y-95247430D01*
X187580103Y-95228732D01*
X187516000Y-95222418D01*
X185816000Y-95222418D01*
X185751897Y-95228732D01*
X185690257Y-95247430D01*
X185633450Y-95277794D01*
X185583657Y-95318657D01*
X185542794Y-95368450D01*
X185512430Y-95425257D01*
X185493732Y-95486897D01*
X185487418Y-95551000D01*
X185487418Y-96905131D01*
X185449312Y-96879669D01*
X185344305Y-96836174D01*
X185232830Y-96814000D01*
X185119170Y-96814000D01*
X185007695Y-96836174D01*
X184902688Y-96879669D01*
X184808184Y-96942815D01*
X184727815Y-97023184D01*
X184664669Y-97117688D01*
X184621174Y-97222695D01*
X184599000Y-97334170D01*
X184599000Y-97447830D01*
X184621174Y-97559305D01*
X184664669Y-97664312D01*
X184727815Y-97758816D01*
X184799001Y-97830002D01*
X184799000Y-106992000D01*
X184732159Y-106992000D01*
X182086549Y-104346391D01*
X182104816Y-104334185D01*
X182185185Y-104253816D01*
X182248331Y-104159312D01*
X182291826Y-104054305D01*
X182314000Y-103942830D01*
X182314000Y-103829170D01*
X182291826Y-103717695D01*
X182248331Y-103612688D01*
X182185185Y-103518184D01*
X182104816Y-103437815D01*
X182010312Y-103374669D01*
X181905305Y-103331174D01*
X181793830Y-103309000D01*
X181693159Y-103309000D01*
X181322343Y-102938185D01*
X181322343Y-102915827D01*
X181300169Y-102804352D01*
X181256674Y-102699345D01*
X181193528Y-102604841D01*
X181113159Y-102524472D01*
X181018655Y-102461326D01*
X180913648Y-102417831D01*
X180802173Y-102395657D01*
X180688513Y-102395657D01*
X180577038Y-102417831D01*
X180472031Y-102461326D01*
X180377527Y-102524472D01*
X180321079Y-102580920D01*
X172990679Y-95250521D01*
X172990674Y-95250515D01*
X172617675Y-94877517D01*
X172605868Y-94863130D01*
X172548462Y-94816018D01*
X172482969Y-94781011D01*
X172411904Y-94759454D01*
X172356518Y-94753999D01*
X172356511Y-94753999D01*
X172337999Y-94752176D01*
X172319487Y-94753999D01*
X146082518Y-94753999D01*
X146063999Y-94752175D01*
X145990093Y-94759454D01*
X145919029Y-94781011D01*
X145853536Y-94816018D01*
X145796130Y-94863130D01*
X145784327Y-94877512D01*
X144526519Y-96135321D01*
X144512131Y-96147129D01*
X144465019Y-96204536D01*
X144436548Y-96257801D01*
X144430012Y-96270029D01*
X144410304Y-96335000D01*
X144408455Y-96341094D01*
X144403000Y-96396480D01*
X144403000Y-96396486D01*
X144401177Y-96414998D01*
X144403000Y-96433510D01*
X144403001Y-97477998D01*
X144331815Y-97549184D01*
X144268669Y-97643688D01*
X144225174Y-97748695D01*
X144203000Y-97860170D01*
X144203000Y-97973830D01*
X144225174Y-98085305D01*
X144268669Y-98190312D01*
X144331815Y-98284816D01*
X144412184Y-98365185D01*
X144506688Y-98428331D01*
X144611695Y-98471826D01*
X144723170Y-98494000D01*
X144836830Y-98494000D01*
X144948305Y-98471826D01*
X145053312Y-98428331D01*
X145147816Y-98365185D01*
X145228185Y-98284816D01*
X145291331Y-98190312D01*
X145334826Y-98085305D01*
X145357000Y-97973830D01*
X145357000Y-97860170D01*
X145334826Y-97748695D01*
X145291331Y-97643688D01*
X145228185Y-97549184D01*
X145157000Y-97477999D01*
X145157000Y-96571156D01*
X145805156Y-95923000D01*
X145855815Y-95998816D01*
X145936184Y-96079185D01*
X146030688Y-96142331D01*
X146135695Y-96185826D01*
X146247170Y-96208000D01*
X146360830Y-96208000D01*
X146472305Y-96185826D01*
X146577312Y-96142331D01*
X146671816Y-96079185D01*
X146693001Y-96058000D01*
X148917032Y-96058000D01*
X154369504Y-101510473D01*
X154363000Y-101543170D01*
X154363000Y-101656830D01*
X154385174Y-101768305D01*
X154428669Y-101873312D01*
X154491815Y-101967816D01*
X154572184Y-102048185D01*
X154666688Y-102111331D01*
X154771695Y-102154826D01*
X154883170Y-102177000D01*
X154913132Y-102177000D01*
X156192292Y-103456162D01*
X156205656Y-103472446D01*
X156221940Y-103485810D01*
X156221949Y-103485819D01*
X156270674Y-103525806D01*
X156273812Y-103527483D01*
X156344855Y-103565456D01*
X156425344Y-103589873D01*
X156488073Y-103596051D01*
X156488083Y-103596051D01*
X156509050Y-103598116D01*
X156530017Y-103596051D01*
X164271982Y-103596051D01*
X164292949Y-103598116D01*
X164313916Y-103596051D01*
X164313927Y-103596051D01*
X164376656Y-103589873D01*
X164457145Y-103565456D01*
X164531325Y-103525806D01*
X164596344Y-103472446D01*
X164609717Y-103456151D01*
X171730869Y-96335000D01*
X171760830Y-96335000D01*
X171872305Y-96312826D01*
X171977312Y-96269331D01*
X172071816Y-96206185D01*
X172152185Y-96125816D01*
X172215331Y-96031312D01*
X172258826Y-95926305D01*
X172281000Y-95814830D01*
X172281000Y-95701170D01*
X172258826Y-95589695D01*
X172255495Y-95581654D01*
X172457515Y-95783674D01*
X172457521Y-95783679D01*
X181343235Y-104669394D01*
X181308184Y-104692815D01*
X181227815Y-104773184D01*
X181164669Y-104867688D01*
X181121174Y-104972695D01*
X181099000Y-105084170D01*
X181099000Y-105184841D01*
X171712514Y-114571328D01*
X171698132Y-114583131D01*
X171686329Y-114597513D01*
X171686326Y-114597516D01*
X171651020Y-114640537D01*
X171616012Y-114706031D01*
X171594455Y-114777095D01*
X171587177Y-114851000D01*
X171589001Y-114869522D01*
X171589000Y-126652383D01*
X171572268Y-126654031D01*
X171350403Y-126721333D01*
X171145930Y-126830626D01*
X170966709Y-126977709D01*
X170819626Y-127156930D01*
X170710333Y-127361403D01*
X170643031Y-127583268D01*
X170640001Y-127614032D01*
X170640001Y-117195509D01*
X170641824Y-117177000D01*
X170640001Y-117158491D01*
X170640001Y-117158482D01*
X170634546Y-117103096D01*
X170612989Y-117032031D01*
X170577982Y-116966538D01*
X170530870Y-116909132D01*
X170516482Y-116897324D01*
X170503000Y-116883842D01*
X170503000Y-116783170D01*
X170480826Y-116671695D01*
X170437331Y-116566688D01*
X170374185Y-116472184D01*
X170293816Y-116391815D01*
X170199312Y-116328669D01*
X170094305Y-116285174D01*
X169982830Y-116263000D01*
X169869170Y-116263000D01*
X169803000Y-116276162D01*
X169803000Y-103909519D01*
X169804824Y-103891000D01*
X169797545Y-103817094D01*
X169775988Y-103746030D01*
X169773315Y-103741030D01*
X169740981Y-103680537D01*
X169693869Y-103623131D01*
X169679487Y-103611328D01*
X168753000Y-102684842D01*
X168753000Y-102584170D01*
X168730826Y-102472695D01*
X168687331Y-102367688D01*
X168624185Y-102273184D01*
X168543816Y-102192815D01*
X168449312Y-102129669D01*
X168344305Y-102086174D01*
X168232830Y-102064000D01*
X168119170Y-102064000D01*
X168007695Y-102086174D01*
X167902688Y-102129669D01*
X167808184Y-102192815D01*
X167727815Y-102273184D01*
X167664669Y-102367688D01*
X167621174Y-102472695D01*
X167599000Y-102584170D01*
X167599000Y-102697830D01*
X167621174Y-102809305D01*
X167664669Y-102914312D01*
X167727815Y-103008816D01*
X167808184Y-103089185D01*
X167902688Y-103152331D01*
X168007695Y-103195826D01*
X168119170Y-103218000D01*
X168219842Y-103218000D01*
X169049001Y-104047160D01*
X169049000Y-126652383D01*
X169032268Y-126654031D01*
X168810403Y-126721333D01*
X168605930Y-126830626D01*
X168426709Y-126977709D01*
X168279626Y-127156930D01*
X168170333Y-127361403D01*
X168103031Y-127583268D01*
X168080306Y-127814000D01*
X168103031Y-128044732D01*
X168170333Y-128266597D01*
X168279626Y-128471070D01*
X168426709Y-128650291D01*
X168605930Y-128797374D01*
X168810403Y-128906667D01*
X169032268Y-128973969D01*
X169048296Y-128975548D01*
X168987844Y-129036000D01*
X160449681Y-129036000D01*
X160554469Y-128879174D01*
X160635659Y-128683164D01*
X160677050Y-128475080D01*
X160677050Y-128262920D01*
X160664053Y-128197582D01*
X162300000Y-128197582D01*
X162364103Y-128191268D01*
X162425743Y-128172570D01*
X162482550Y-128142206D01*
X162532343Y-128101343D01*
X162573206Y-128051550D01*
X162603570Y-127994743D01*
X162622268Y-127933103D01*
X162628582Y-127869000D01*
X162628582Y-127814000D01*
X165540306Y-127814000D01*
X165563031Y-128044732D01*
X165630333Y-128266597D01*
X165739626Y-128471070D01*
X165886709Y-128650291D01*
X166065930Y-128797374D01*
X166270403Y-128906667D01*
X166492268Y-128973969D01*
X166665188Y-128991000D01*
X166780812Y-128991000D01*
X166953732Y-128973969D01*
X167175597Y-128906667D01*
X167380070Y-128797374D01*
X167559291Y-128650291D01*
X167706374Y-128471070D01*
X167815667Y-128266597D01*
X167882969Y-128044732D01*
X167905694Y-127814000D01*
X167882969Y-127583268D01*
X167815667Y-127361403D01*
X167706374Y-127156930D01*
X167559291Y-126977709D01*
X167380070Y-126830626D01*
X167263000Y-126768051D01*
X167263000Y-122337158D01*
X168429482Y-121170676D01*
X168443869Y-121158869D01*
X168490981Y-121101463D01*
X168525988Y-121035970D01*
X168547545Y-120964905D01*
X168553000Y-120909519D01*
X168553000Y-120909510D01*
X168554823Y-120891001D01*
X168553000Y-120872492D01*
X168553000Y-104580001D01*
X168624185Y-104508816D01*
X168687331Y-104414312D01*
X168730826Y-104309305D01*
X168753000Y-104197830D01*
X168753000Y-104084170D01*
X168730826Y-103972695D01*
X168687331Y-103867688D01*
X168624185Y-103773184D01*
X168543816Y-103692815D01*
X168449312Y-103629669D01*
X168344305Y-103586174D01*
X168232830Y-103564000D01*
X168119170Y-103564000D01*
X168007695Y-103586174D01*
X167902688Y-103629669D01*
X167808184Y-103692815D01*
X167727815Y-103773184D01*
X167664669Y-103867688D01*
X167621174Y-103972695D01*
X167599000Y-104084170D01*
X167599000Y-104197830D01*
X167621174Y-104309305D01*
X167664669Y-104414312D01*
X167727815Y-104508816D01*
X167799001Y-104580002D01*
X167799000Y-120734842D01*
X166632514Y-121901328D01*
X166618132Y-121913131D01*
X166606329Y-121927513D01*
X166606326Y-121927516D01*
X166571020Y-121970537D01*
X166536012Y-122036031D01*
X166514455Y-122107095D01*
X166507177Y-122181000D01*
X166509001Y-122199522D01*
X166509000Y-126652383D01*
X166492268Y-126654031D01*
X166270403Y-126721333D01*
X166065930Y-126830626D01*
X165886709Y-126977709D01*
X165739626Y-127156930D01*
X165630333Y-127361403D01*
X165563031Y-127583268D01*
X165540306Y-127814000D01*
X162628582Y-127814000D01*
X162628582Y-127376209D01*
X162664196Y-127365405D01*
X162738376Y-127325755D01*
X162803395Y-127272395D01*
X162816768Y-127256100D01*
X162887101Y-127185767D01*
X162903396Y-127172394D01*
X162931863Y-127137707D01*
X162956757Y-127107375D01*
X162985285Y-127054001D01*
X162996406Y-127033195D01*
X163020823Y-126952706D01*
X163027001Y-126889977D01*
X163027001Y-126889966D01*
X163029066Y-126868999D01*
X163027001Y-126848032D01*
X163027001Y-118339968D01*
X163029066Y-118319001D01*
X163027001Y-118298034D01*
X163027001Y-118298023D01*
X163020823Y-118235294D01*
X162996406Y-118154805D01*
X162975565Y-118115815D01*
X162956757Y-118080625D01*
X162916769Y-118031901D01*
X162903396Y-118015606D01*
X162887102Y-118002234D01*
X162816768Y-117931900D01*
X162803395Y-117915605D01*
X162738376Y-117862245D01*
X162664196Y-117822595D01*
X162628582Y-117811791D01*
X162628582Y-117319000D01*
X162622268Y-117254897D01*
X162603570Y-117193257D01*
X162573206Y-117136450D01*
X162532343Y-117086657D01*
X162482550Y-117045794D01*
X162425743Y-117015430D01*
X162364103Y-116996732D01*
X162300000Y-116990418D01*
X160500000Y-116990418D01*
X160435897Y-116996732D01*
X160374257Y-117015430D01*
X160317450Y-117045794D01*
X160267657Y-117086657D01*
X160226794Y-117136450D01*
X160196430Y-117193257D01*
X160177732Y-117254897D01*
X160171418Y-117319000D01*
X160171418Y-118705453D01*
X160110174Y-118664531D01*
X159914164Y-118583341D01*
X159706080Y-118541950D01*
X159493920Y-118541950D01*
X159285836Y-118583341D01*
X159089826Y-118664531D01*
X158913421Y-118782401D01*
X158763401Y-118932421D01*
X158645531Y-119108826D01*
X158564341Y-119304836D01*
X158522950Y-119512920D01*
X158522950Y-119725080D01*
X158564341Y-119933164D01*
X158586981Y-119987823D01*
X155873017Y-117273859D01*
X155920030Y-117298988D01*
X155991094Y-117320545D01*
X156065000Y-117327824D01*
X156083519Y-117326000D01*
X157688063Y-117326000D01*
X157772647Y-117530202D01*
X157906927Y-117731167D01*
X158077833Y-117902073D01*
X158278798Y-118036353D01*
X158502097Y-118128847D01*
X158739151Y-118176000D01*
X158980849Y-118176000D01*
X159217903Y-118128847D01*
X159441202Y-118036353D01*
X159642167Y-117902073D01*
X159813073Y-117731167D01*
X159947353Y-117530202D01*
X160039847Y-117306903D01*
X160087000Y-117069849D01*
X160087000Y-116828151D01*
X160039847Y-116591097D01*
X159947353Y-116367798D01*
X159813073Y-116166833D01*
X159642167Y-115995927D01*
X159631396Y-115988730D01*
X159674377Y-115965756D01*
X159739396Y-115912396D01*
X159752769Y-115896101D01*
X160193431Y-115455440D01*
X160173000Y-115558151D01*
X160173000Y-115799849D01*
X160220153Y-116036903D01*
X160312647Y-116260202D01*
X160446927Y-116461167D01*
X160617833Y-116632073D01*
X160818798Y-116766353D01*
X161042097Y-116858847D01*
X161279151Y-116906000D01*
X161520849Y-116906000D01*
X161757903Y-116858847D01*
X161981202Y-116766353D01*
X162182167Y-116632073D01*
X162353073Y-116461167D01*
X162487353Y-116260202D01*
X162579847Y-116036903D01*
X162627000Y-115799849D01*
X162627000Y-115558151D01*
X162579847Y-115321097D01*
X162487353Y-115097798D01*
X162353073Y-114896833D01*
X162182167Y-114725927D01*
X161981202Y-114591647D01*
X161757903Y-114499153D01*
X161520849Y-114452000D01*
X161279151Y-114452000D01*
X161176441Y-114472430D01*
X162151871Y-113497001D01*
X162211000Y-113497001D01*
X162232185Y-113518186D01*
X162326689Y-113581332D01*
X162431696Y-113624827D01*
X162543171Y-113647001D01*
X162656831Y-113647001D01*
X162768306Y-113624827D01*
X162873313Y-113581332D01*
X162967817Y-113518186D01*
X163048186Y-113437817D01*
X163111332Y-113343313D01*
X163154827Y-113238306D01*
X163177001Y-113126831D01*
X163177001Y-113013171D01*
X163154827Y-112901696D01*
X163111332Y-112796689D01*
X163048186Y-112702185D01*
X162967817Y-112621816D01*
X162873313Y-112558670D01*
X162768306Y-112515175D01*
X162656831Y-112493001D01*
X162571334Y-112493001D01*
X162577970Y-112490988D01*
X162643463Y-112455981D01*
X162700869Y-112408869D01*
X162712677Y-112394481D01*
X163151159Y-111956000D01*
X163251830Y-111956000D01*
X163363305Y-111933826D01*
X163468312Y-111890331D01*
X163562816Y-111827185D01*
X163643185Y-111746816D01*
X163706331Y-111652312D01*
X163749826Y-111547305D01*
X163772000Y-111435830D01*
X163772000Y-111322170D01*
X163749826Y-111210695D01*
X163706331Y-111105688D01*
X163643185Y-111011184D01*
X163562816Y-110930815D01*
X163468312Y-110867669D01*
X163363305Y-110824174D01*
X163251830Y-110802000D01*
X163138170Y-110802000D01*
X163026695Y-110824174D01*
X162921688Y-110867669D01*
X162827184Y-110930815D01*
X162746815Y-111011184D01*
X162683669Y-111105688D01*
X162640174Y-111210695D01*
X162618000Y-111322170D01*
X162618000Y-111422841D01*
X162276842Y-111764000D01*
X160199176Y-111764000D01*
X160286579Y-111705599D01*
X160436599Y-111555579D01*
X160554469Y-111379174D01*
X160635659Y-111183164D01*
X160677050Y-110975080D01*
X160677050Y-110762920D01*
X160664053Y-110697582D01*
X162300000Y-110697582D01*
X162364103Y-110691268D01*
X162425743Y-110672570D01*
X162482550Y-110642206D01*
X162532343Y-110601343D01*
X162573206Y-110551550D01*
X162603570Y-110494743D01*
X162622268Y-110433103D01*
X162628582Y-110369000D01*
X162628582Y-108569000D01*
X162622268Y-108504897D01*
X162603570Y-108443257D01*
X162573206Y-108386450D01*
X162532343Y-108336657D01*
X162482550Y-108295794D01*
X162425743Y-108265430D01*
X162364103Y-108246732D01*
X162300000Y-108240418D01*
X160500000Y-108240418D01*
X160435897Y-108246732D01*
X160374257Y-108265430D01*
X160317450Y-108295794D01*
X160267657Y-108336657D01*
X160226794Y-108386450D01*
X160196430Y-108443257D01*
X160177732Y-108504897D01*
X160171418Y-108569000D01*
X160171418Y-109955453D01*
X160110174Y-109914531D01*
X159914164Y-109833341D01*
X159706080Y-109791950D01*
X159493920Y-109791950D01*
X159285836Y-109833341D01*
X159089826Y-109914531D01*
X158913421Y-110032401D01*
X158763401Y-110182421D01*
X158645531Y-110358826D01*
X158564341Y-110554836D01*
X158522950Y-110762920D01*
X158522950Y-110975080D01*
X158564341Y-111183164D01*
X158645531Y-111379174D01*
X158763401Y-111555579D01*
X158913421Y-111705599D01*
X159036800Y-111788038D01*
X159026997Y-111791012D01*
X158961504Y-111826019D01*
X158904098Y-111873131D01*
X158892295Y-111887513D01*
X155023534Y-115756275D01*
X154922862Y-115756275D01*
X154811387Y-115778449D01*
X154706380Y-115821944D01*
X154694269Y-115830036D01*
X154653312Y-115802669D01*
X154548305Y-115759174D01*
X154436830Y-115737000D01*
X154356999Y-115737000D01*
X154356999Y-114732892D01*
X154424984Y-114719369D01*
X154529991Y-114675874D01*
X154624495Y-114612728D01*
X154704864Y-114532359D01*
X154768010Y-114437855D01*
X154811505Y-114332848D01*
X154833679Y-114221373D01*
X154833679Y-114120701D01*
X155035018Y-113919362D01*
X155347815Y-113919362D01*
X155347815Y-114033022D01*
X155369989Y-114144497D01*
X155413484Y-114249504D01*
X155476630Y-114344008D01*
X155556999Y-114424377D01*
X155651503Y-114487523D01*
X155756510Y-114531018D01*
X155867985Y-114553192D01*
X155981645Y-114553192D01*
X156093120Y-114531018D01*
X156198127Y-114487523D01*
X156292631Y-114424377D01*
X156373000Y-114344008D01*
X156436146Y-114249504D01*
X156479641Y-114144497D01*
X156501815Y-114033022D01*
X156501815Y-113919362D01*
X156479641Y-113807887D01*
X156436146Y-113702880D01*
X156373000Y-113608376D01*
X156292631Y-113528007D01*
X156198127Y-113464861D01*
X156093120Y-113421366D01*
X155981645Y-113399192D01*
X155867985Y-113399192D01*
X155756510Y-113421366D01*
X155651503Y-113464861D01*
X155556999Y-113528007D01*
X155476630Y-113608376D01*
X155413484Y-113702880D01*
X155369989Y-113807887D01*
X155347815Y-113919362D01*
X155035018Y-113919362D01*
X155904048Y-113050333D01*
X155918430Y-113038530D01*
X155965542Y-112981124D01*
X156000549Y-112915631D01*
X156004776Y-112901696D01*
X156022106Y-112844567D01*
X156029385Y-112770661D01*
X156027561Y-112752142D01*
X156027561Y-112094597D01*
X156469481Y-111652677D01*
X156483869Y-111640869D01*
X156530981Y-111583463D01*
X156565988Y-111517970D01*
X156587545Y-111446905D01*
X156593000Y-111391519D01*
X156594824Y-111373000D01*
X156593000Y-111354481D01*
X156593000Y-110791622D01*
X156614529Y-110765389D01*
X156658822Y-110682523D01*
X156686097Y-110592608D01*
X156693000Y-110522523D01*
X156693000Y-110482492D01*
X156695306Y-110459077D01*
X156693000Y-110435662D01*
X156693000Y-110435655D01*
X156686097Y-110365570D01*
X156684354Y-110359823D01*
X156658822Y-110275654D01*
X156614529Y-110192788D01*
X156569852Y-110138349D01*
X156569850Y-110138347D01*
X156554921Y-110120156D01*
X156536729Y-110105226D01*
X155781168Y-109349666D01*
X155777324Y-109345822D01*
X155765268Y-109285214D01*
X155721773Y-109180207D01*
X155658627Y-109085703D01*
X155578258Y-109005334D01*
X155483754Y-108942188D01*
X155378747Y-108898693D01*
X155267272Y-108876519D01*
X155153612Y-108876519D01*
X155042137Y-108898693D01*
X154937130Y-108942188D01*
X154842626Y-109005334D01*
X154762257Y-109085703D01*
X154699111Y-109180207D01*
X154655616Y-109285214D01*
X154633442Y-109396689D01*
X154633442Y-109510349D01*
X154655616Y-109621824D01*
X154699111Y-109726831D01*
X154762257Y-109821335D01*
X154842626Y-109901704D01*
X154937130Y-109964850D01*
X155042137Y-110008345D01*
X155102745Y-110020401D01*
X155106589Y-110024245D01*
X155782723Y-110700380D01*
X155817471Y-110765389D01*
X155839000Y-110791622D01*
X155839001Y-111216841D01*
X155397080Y-111658762D01*
X155382692Y-111670570D01*
X155335580Y-111727977D01*
X155313409Y-111769456D01*
X155300573Y-111793470D01*
X155279016Y-111864534D01*
X155278259Y-111872218D01*
X155273561Y-111919921D01*
X155273561Y-111919927D01*
X155271738Y-111938439D01*
X155273561Y-111956951D01*
X155273562Y-112614501D01*
X154300521Y-113587543D01*
X154213759Y-113587543D01*
X154165598Y-113548018D01*
X154100105Y-113513011D01*
X154029040Y-113491454D01*
X153973654Y-113485999D01*
X153973647Y-113485999D01*
X153955135Y-113484176D01*
X153936623Y-113485999D01*
X149454620Y-113485999D01*
X149436101Y-113484175D01*
X149362195Y-113491454D01*
X149291131Y-113513011D01*
X149225638Y-113548018D01*
X149225636Y-113548019D01*
X149225637Y-113548019D01*
X149190994Y-113576450D01*
X149168232Y-113595130D01*
X149156429Y-113609512D01*
X148819842Y-113946100D01*
X148719170Y-113946100D01*
X148607695Y-113968274D01*
X148502688Y-114011769D01*
X148408184Y-114074915D01*
X148327815Y-114155284D01*
X148264669Y-114249788D01*
X148221174Y-114354795D01*
X148199000Y-114466270D01*
X148199000Y-114579930D01*
X148221174Y-114691405D01*
X148264669Y-114796412D01*
X148327815Y-114890916D01*
X148408184Y-114971285D01*
X148502688Y-115034431D01*
X148607695Y-115077926D01*
X148719170Y-115100100D01*
X148832830Y-115100100D01*
X148944305Y-115077926D01*
X149049312Y-115034431D01*
X149143816Y-114971285D01*
X149224185Y-114890916D01*
X149287331Y-114796412D01*
X149330826Y-114691405D01*
X149353000Y-114579930D01*
X149353000Y-114479258D01*
X149592260Y-114239999D01*
X153660081Y-114239999D01*
X153630011Y-114296254D01*
X153608454Y-114367318D01*
X153601176Y-114441223D01*
X153603000Y-114459745D01*
X153602999Y-116487489D01*
X153601176Y-116506001D01*
X153602999Y-116524513D01*
X153602999Y-116524519D01*
X153604892Y-116543738D01*
X153608454Y-116579906D01*
X153627542Y-116642830D01*
X153628532Y-116646095D01*
X153540133Y-116682711D01*
X153445629Y-116745857D01*
X153424444Y-116767042D01*
X151262237Y-116767042D01*
X151203312Y-116727669D01*
X151098305Y-116684174D01*
X150986830Y-116662000D01*
X150873170Y-116662000D01*
X150761695Y-116684174D01*
X150656688Y-116727669D01*
X150562184Y-116790815D01*
X150540999Y-116812000D01*
X148681324Y-116812000D01*
X148600182Y-116757782D01*
X148495175Y-116714287D01*
X148383700Y-116692113D01*
X148270040Y-116692113D01*
X148158565Y-116714287D01*
X148053558Y-116757782D01*
X147959054Y-116820928D01*
X147937869Y-116842113D01*
X143980982Y-116842113D01*
X142182000Y-115043132D01*
X142182000Y-115013170D01*
X142159826Y-114901695D01*
X142116331Y-114796688D01*
X142053185Y-114702184D01*
X141972816Y-114621815D01*
X141878312Y-114558669D01*
X141773305Y-114515174D01*
X141661830Y-114493000D01*
X141631868Y-114493000D01*
X141510768Y-114371900D01*
X141497395Y-114355605D01*
X141432376Y-114302245D01*
X141358196Y-114262595D01*
X141277707Y-114238178D01*
X141214978Y-114232000D01*
X141214967Y-114232000D01*
X141194000Y-114229935D01*
X141173033Y-114232000D01*
X136125436Y-114232000D01*
X136170174Y-114213469D01*
X136346579Y-114095599D01*
X136496599Y-113945579D01*
X136614469Y-113769174D01*
X136695659Y-113573164D01*
X136737050Y-113365080D01*
X136737050Y-113152920D01*
X136695659Y-112944836D01*
X136614469Y-112748826D01*
X136499924Y-112577397D01*
X139944000Y-112577397D01*
X139944000Y-112720603D01*
X139971938Y-112861058D01*
X140026741Y-112993364D01*
X140106302Y-113112436D01*
X140207564Y-113213698D01*
X140326636Y-113293259D01*
X140458942Y-113348062D01*
X140599397Y-113376000D01*
X140742603Y-113376000D01*
X140883058Y-113348062D01*
X141015364Y-113293259D01*
X141134436Y-113213698D01*
X141235698Y-113112436D01*
X141315259Y-112993364D01*
X141370062Y-112861058D01*
X141398000Y-112720603D01*
X141398000Y-112577397D01*
X141370062Y-112436942D01*
X141315259Y-112304636D01*
X141235698Y-112185564D01*
X141134436Y-112084302D01*
X141015364Y-112004741D01*
X140883058Y-111949938D01*
X140742603Y-111922000D01*
X140599397Y-111922000D01*
X140458942Y-111949938D01*
X140326636Y-112004741D01*
X140207564Y-112084302D01*
X140106302Y-112185564D01*
X140026741Y-112304636D01*
X139971938Y-112436942D01*
X139944000Y-112577397D01*
X136499924Y-112577397D01*
X136496599Y-112572421D01*
X136346579Y-112422401D01*
X136170174Y-112304531D01*
X135974164Y-112223341D01*
X135766080Y-112181950D01*
X135553920Y-112181950D01*
X135345836Y-112223341D01*
X135149826Y-112304531D01*
X134973421Y-112422401D01*
X134823401Y-112572421D01*
X134705531Y-112748826D01*
X134624341Y-112944836D01*
X134582950Y-113152920D01*
X134582950Y-113365080D01*
X134595947Y-113430418D01*
X132960000Y-113430418D01*
X132895897Y-113436732D01*
X132834257Y-113455430D01*
X132777450Y-113485794D01*
X132727657Y-113526657D01*
X132686794Y-113576450D01*
X132656430Y-113633257D01*
X132637732Y-113694897D01*
X132631418Y-113759000D01*
X131847000Y-113759000D01*
X131847000Y-111302806D01*
X146508364Y-111302806D01*
X146508364Y-111416466D01*
X146530538Y-111527941D01*
X146574033Y-111632948D01*
X146637179Y-111727452D01*
X146717548Y-111807821D01*
X146812052Y-111870967D01*
X146917059Y-111914462D01*
X147028534Y-111936636D01*
X147142194Y-111936636D01*
X147253669Y-111914462D01*
X147358676Y-111870967D01*
X147453180Y-111807821D01*
X147533549Y-111727452D01*
X147556718Y-111692778D01*
X149191002Y-111692778D01*
X149262187Y-111763963D01*
X149356691Y-111827109D01*
X149461698Y-111870604D01*
X149573173Y-111892778D01*
X149686833Y-111892778D01*
X149798308Y-111870604D01*
X149903315Y-111827109D01*
X149997819Y-111763963D01*
X150078188Y-111683594D01*
X150141334Y-111589090D01*
X150184829Y-111484083D01*
X150207003Y-111372608D01*
X150207003Y-111258948D01*
X150184829Y-111147473D01*
X150141334Y-111042466D01*
X150078188Y-110947962D01*
X149997819Y-110867593D01*
X149903315Y-110804447D01*
X149798308Y-110760952D01*
X149686833Y-110738778D01*
X149573173Y-110738778D01*
X149461698Y-110760952D01*
X149356691Y-110804447D01*
X149262187Y-110867593D01*
X149191002Y-110938778D01*
X147480507Y-110938778D01*
X147453180Y-110911451D01*
X147358676Y-110848305D01*
X147253669Y-110804810D01*
X147142194Y-110782636D01*
X147028534Y-110782636D01*
X146917059Y-110804810D01*
X146812052Y-110848305D01*
X146717548Y-110911451D01*
X146637179Y-110991820D01*
X146574033Y-111086324D01*
X146530538Y-111191331D01*
X146508364Y-111302806D01*
X131847000Y-111302806D01*
X131847000Y-110783080D01*
X135515525Y-110783080D01*
X135599208Y-111037261D01*
X135871775Y-111168158D01*
X136164642Y-111243365D01*
X136466553Y-111259991D01*
X136765907Y-111217397D01*
X137051199Y-111117222D01*
X137200792Y-111037261D01*
X137284475Y-110783080D01*
X136400000Y-109898605D01*
X135515525Y-110783080D01*
X131847000Y-110783080D01*
X131847000Y-109785553D01*
X134859009Y-109785553D01*
X134901603Y-110084907D01*
X135001778Y-110370199D01*
X135081739Y-110519792D01*
X135335920Y-110603475D01*
X136220395Y-109719000D01*
X136579605Y-109719000D01*
X137464080Y-110603475D01*
X137718261Y-110519792D01*
X137849158Y-110247225D01*
X137924365Y-109954358D01*
X137940991Y-109652447D01*
X137898397Y-109353093D01*
X137879499Y-109299270D01*
X148527000Y-109299270D01*
X148527000Y-109412930D01*
X148549174Y-109524405D01*
X148592669Y-109629412D01*
X148655815Y-109723916D01*
X148736184Y-109804285D01*
X148830688Y-109867431D01*
X148935695Y-109910926D01*
X149047170Y-109933100D01*
X149160830Y-109933100D01*
X149272305Y-109910926D01*
X149368617Y-109871033D01*
X149517824Y-110020241D01*
X149531189Y-110036526D01*
X149547473Y-110049890D01*
X149547482Y-110049899D01*
X149596207Y-110089886D01*
X149632134Y-110109089D01*
X149670388Y-110129536D01*
X149750877Y-110153953D01*
X149813606Y-110160131D01*
X149813618Y-110160131D01*
X149834583Y-110162196D01*
X149855548Y-110160131D01*
X152708133Y-110160131D01*
X152708134Y-110621068D01*
X151904988Y-110621068D01*
X151883803Y-110599883D01*
X151789299Y-110536737D01*
X151684292Y-110493242D01*
X151572817Y-110471068D01*
X151459157Y-110471068D01*
X151347682Y-110493242D01*
X151242675Y-110536737D01*
X151148171Y-110599883D01*
X151067802Y-110680252D01*
X151004656Y-110774756D01*
X150961161Y-110879763D01*
X150938987Y-110991238D01*
X150938987Y-111104898D01*
X150961161Y-111216373D01*
X151004656Y-111321380D01*
X151067802Y-111415884D01*
X151148171Y-111496253D01*
X151242675Y-111559399D01*
X151347682Y-111602894D01*
X151459157Y-111625068D01*
X151572817Y-111625068D01*
X151684292Y-111602894D01*
X151789299Y-111559399D01*
X151883803Y-111496253D01*
X151904988Y-111475068D01*
X152958265Y-111475068D01*
X153405979Y-111922783D01*
X153405979Y-111952744D01*
X153428153Y-112064219D01*
X153471648Y-112169226D01*
X153534794Y-112263730D01*
X153615163Y-112344099D01*
X153709667Y-112407245D01*
X153814674Y-112450740D01*
X153926149Y-112472914D01*
X154039809Y-112472914D01*
X154151284Y-112450740D01*
X154256291Y-112407245D01*
X154350795Y-112344099D01*
X154431164Y-112263730D01*
X154494310Y-112169226D01*
X154537805Y-112064219D01*
X154559979Y-111952744D01*
X154559979Y-111839084D01*
X154537805Y-111727609D01*
X154494310Y-111622602D01*
X154431164Y-111528098D01*
X154350795Y-111447729D01*
X154256291Y-111384583D01*
X154151284Y-111341088D01*
X154039809Y-111318914D01*
X154009848Y-111318914D01*
X153562133Y-110871200D01*
X153562133Y-109909999D01*
X154007105Y-109465028D01*
X154023395Y-109451659D01*
X154036764Y-109435369D01*
X154036768Y-109435365D01*
X154076755Y-109386641D01*
X154102120Y-109339185D01*
X154116405Y-109312460D01*
X154140822Y-109231971D01*
X154145419Y-109185293D01*
X154207023Y-109123689D01*
X154275640Y-109020996D01*
X154322905Y-108906889D01*
X154347000Y-108785754D01*
X154347000Y-108662246D01*
X154322905Y-108541111D01*
X154275640Y-108427004D01*
X154207023Y-108324311D01*
X154119689Y-108236977D01*
X154016996Y-108168360D01*
X153902889Y-108121095D01*
X153781754Y-108097000D01*
X153658246Y-108097000D01*
X153537111Y-108121095D01*
X153423004Y-108168360D01*
X153320311Y-108236977D01*
X153232977Y-108324311D01*
X153164360Y-108427004D01*
X153117095Y-108541111D01*
X153093000Y-108662246D01*
X153093000Y-108785754D01*
X153117095Y-108906889D01*
X153164360Y-109020996D01*
X153196019Y-109068377D01*
X152958265Y-109306131D01*
X150011453Y-109306131D01*
X149774321Y-109068999D01*
X149760948Y-109052705D01*
X149695929Y-108999345D01*
X149621749Y-108959695D01*
X149541260Y-108935278D01*
X149494582Y-108930681D01*
X149471816Y-108907915D01*
X149377312Y-108844769D01*
X149272305Y-108801274D01*
X149160830Y-108779100D01*
X149047170Y-108779100D01*
X148935695Y-108801274D01*
X148830688Y-108844769D01*
X148736184Y-108907915D01*
X148655815Y-108988284D01*
X148592669Y-109082788D01*
X148549174Y-109187795D01*
X148527000Y-109299270D01*
X137879499Y-109299270D01*
X137798222Y-109067801D01*
X137718261Y-108918208D01*
X137464080Y-108834525D01*
X136579605Y-109719000D01*
X136220395Y-109719000D01*
X135335920Y-108834525D01*
X135081739Y-108918208D01*
X134950842Y-109190775D01*
X134875635Y-109483642D01*
X134859009Y-109785553D01*
X131847000Y-109785553D01*
X131847000Y-108328151D01*
X132633000Y-108328151D01*
X132633000Y-108569849D01*
X132680153Y-108806903D01*
X132772647Y-109030202D01*
X132906927Y-109231167D01*
X133077833Y-109402073D01*
X133278798Y-109536353D01*
X133502097Y-109628847D01*
X133739151Y-109676000D01*
X133980849Y-109676000D01*
X134217903Y-109628847D01*
X134441202Y-109536353D01*
X134642167Y-109402073D01*
X134813073Y-109231167D01*
X134947353Y-109030202D01*
X135039847Y-108806903D01*
X135087000Y-108569849D01*
X135087000Y-108328151D01*
X135039847Y-108091097D01*
X134947353Y-107867798D01*
X134813073Y-107666833D01*
X134642167Y-107495927D01*
X134441202Y-107361647D01*
X134217903Y-107269153D01*
X133980849Y-107222000D01*
X133739151Y-107222000D01*
X133502097Y-107269153D01*
X133278798Y-107361647D01*
X133077833Y-107495927D01*
X132906927Y-107666833D01*
X132772647Y-107867798D01*
X132680153Y-108091097D01*
X132633000Y-108328151D01*
X131847000Y-108328151D01*
X131847000Y-105009000D01*
X132631418Y-105009000D01*
X132631418Y-106809000D01*
X132637732Y-106873103D01*
X132656430Y-106934743D01*
X132686794Y-106991550D01*
X132727657Y-107041343D01*
X132777450Y-107082206D01*
X132834257Y-107112570D01*
X132895897Y-107131268D01*
X132960000Y-107137582D01*
X134760000Y-107137582D01*
X134824103Y-107131268D01*
X134885743Y-107112570D01*
X134942550Y-107082206D01*
X134971861Y-107058151D01*
X135173000Y-107058151D01*
X135173000Y-107299849D01*
X135220153Y-107536903D01*
X135312647Y-107760202D01*
X135446927Y-107961167D01*
X135617833Y-108132073D01*
X135818798Y-108266353D01*
X135857796Y-108282507D01*
X135748801Y-108320778D01*
X135599208Y-108400739D01*
X135515525Y-108654920D01*
X136400000Y-109539395D01*
X137284475Y-108654920D01*
X137200792Y-108400739D01*
X136948858Y-108279751D01*
X136981202Y-108266353D01*
X137182167Y-108132073D01*
X137236089Y-108078151D01*
X157633000Y-108078151D01*
X157633000Y-108319849D01*
X157680153Y-108556903D01*
X157772647Y-108780202D01*
X157906927Y-108981167D01*
X158077833Y-109152073D01*
X158278798Y-109286353D01*
X158502097Y-109378847D01*
X158739151Y-109426000D01*
X158980849Y-109426000D01*
X159217903Y-109378847D01*
X159441202Y-109286353D01*
X159642167Y-109152073D01*
X159813073Y-108981167D01*
X159947353Y-108780202D01*
X160039847Y-108556903D01*
X160087000Y-108319849D01*
X160087000Y-108078151D01*
X160039847Y-107841097D01*
X159947353Y-107617798D01*
X159813073Y-107416833D01*
X159642167Y-107245927D01*
X159441202Y-107111647D01*
X159402204Y-107095493D01*
X159511199Y-107057222D01*
X159660792Y-106977261D01*
X159716467Y-106808151D01*
X160173000Y-106808151D01*
X160173000Y-107049849D01*
X160220153Y-107286903D01*
X160312647Y-107510202D01*
X160446927Y-107711167D01*
X160617833Y-107882073D01*
X160818798Y-108016353D01*
X161042097Y-108108847D01*
X161279151Y-108156000D01*
X161520849Y-108156000D01*
X161757903Y-108108847D01*
X161981202Y-108016353D01*
X162182167Y-107882073D01*
X162353073Y-107711167D01*
X162487353Y-107510202D01*
X162579847Y-107286903D01*
X162627000Y-107049849D01*
X162627000Y-106808151D01*
X162579847Y-106571097D01*
X162487353Y-106347798D01*
X162353073Y-106146833D01*
X162182167Y-105975927D01*
X161981202Y-105841647D01*
X161757903Y-105749153D01*
X161520849Y-105702000D01*
X161279151Y-105702000D01*
X161042097Y-105749153D01*
X160818798Y-105841647D01*
X160617833Y-105975927D01*
X160446927Y-106146833D01*
X160312647Y-106347798D01*
X160220153Y-106571097D01*
X160173000Y-106808151D01*
X159716467Y-106808151D01*
X159744475Y-106723080D01*
X158860000Y-105838605D01*
X157975525Y-106723080D01*
X158059208Y-106977261D01*
X158311142Y-107098249D01*
X158278798Y-107111647D01*
X158077833Y-107245927D01*
X157906927Y-107416833D01*
X157772647Y-107617798D01*
X157680153Y-107841097D01*
X157633000Y-108078151D01*
X137236089Y-108078151D01*
X137353073Y-107961167D01*
X137487353Y-107760202D01*
X137579847Y-107536903D01*
X137627000Y-107299849D01*
X137627000Y-107058151D01*
X137579847Y-106821097D01*
X137487353Y-106597798D01*
X137353073Y-106396833D01*
X137182167Y-106225927D01*
X136981202Y-106091647D01*
X136757903Y-105999153D01*
X136520849Y-105952000D01*
X136279151Y-105952000D01*
X136042097Y-105999153D01*
X135818798Y-106091647D01*
X135617833Y-106225927D01*
X135446927Y-106396833D01*
X135312647Y-106597798D01*
X135220153Y-106821097D01*
X135173000Y-107058151D01*
X134971861Y-107058151D01*
X134992343Y-107041343D01*
X135033206Y-106991550D01*
X135063570Y-106934743D01*
X135082268Y-106873103D01*
X135088582Y-106809000D01*
X135088582Y-105422547D01*
X135149826Y-105463469D01*
X135345836Y-105544659D01*
X135553920Y-105586050D01*
X135766080Y-105586050D01*
X135974164Y-105544659D01*
X136170174Y-105463469D01*
X136346579Y-105345599D01*
X136496599Y-105195579D01*
X136614469Y-105019174D01*
X136695659Y-104823164D01*
X136737050Y-104615080D01*
X136737050Y-104402920D01*
X136695659Y-104194836D01*
X136614469Y-103998826D01*
X136496599Y-103822421D01*
X136346579Y-103672401D01*
X136170174Y-103554531D01*
X135974164Y-103473341D01*
X135766080Y-103431950D01*
X135553920Y-103431950D01*
X135345836Y-103473341D01*
X135149826Y-103554531D01*
X134973421Y-103672401D01*
X134823401Y-103822421D01*
X134705531Y-103998826D01*
X134624341Y-104194836D01*
X134582950Y-104402920D01*
X134582950Y-104615080D01*
X134595947Y-104680418D01*
X132960000Y-104680418D01*
X132895897Y-104686732D01*
X132834257Y-104705430D01*
X132777450Y-104735794D01*
X132727657Y-104776657D01*
X132686794Y-104826450D01*
X132656430Y-104883257D01*
X132637732Y-104944897D01*
X132631418Y-105009000D01*
X131847000Y-105009000D01*
X131847000Y-102822270D01*
X146749000Y-102822270D01*
X146749000Y-102935930D01*
X146771174Y-103047405D01*
X146814669Y-103152412D01*
X146877815Y-103246916D01*
X146958184Y-103327285D01*
X147052688Y-103390431D01*
X147157695Y-103433926D01*
X147269170Y-103456100D01*
X147382830Y-103456100D01*
X147494305Y-103433926D01*
X147599312Y-103390431D01*
X147693816Y-103327285D01*
X147774185Y-103246916D01*
X147784000Y-103232226D01*
X147784001Y-105964255D01*
X147781935Y-105985232D01*
X147784001Y-106006209D01*
X147784001Y-106006210D01*
X147790179Y-106068939D01*
X147797068Y-106091647D01*
X147814596Y-106149428D01*
X147854245Y-106223608D01*
X147894232Y-106272332D01*
X147894237Y-106272337D01*
X147907606Y-106288627D01*
X147923895Y-106301995D01*
X148497074Y-106875175D01*
X148497074Y-106905136D01*
X148519248Y-107016611D01*
X148562743Y-107121618D01*
X148625889Y-107216122D01*
X148706258Y-107296491D01*
X148800762Y-107359637D01*
X148905769Y-107403132D01*
X149017244Y-107425306D01*
X149130904Y-107425306D01*
X149242379Y-107403132D01*
X149347386Y-107359637D01*
X149441890Y-107296491D01*
X149522259Y-107216122D01*
X149585405Y-107121618D01*
X149628900Y-107016611D01*
X149651074Y-106905136D01*
X149651074Y-106791476D01*
X149628900Y-106680001D01*
X149585405Y-106574994D01*
X149522259Y-106480490D01*
X149441890Y-106400121D01*
X149347386Y-106336975D01*
X149242379Y-106293480D01*
X149130904Y-106271306D01*
X149100943Y-106271306D01*
X148638000Y-105808364D01*
X148638000Y-105725553D01*
X157319009Y-105725553D01*
X157361603Y-106024907D01*
X157461778Y-106310199D01*
X157541739Y-106459792D01*
X157795920Y-106543475D01*
X158680395Y-105659000D01*
X159039605Y-105659000D01*
X159924080Y-106543475D01*
X160178261Y-106459792D01*
X160309158Y-106187225D01*
X160384365Y-105894358D01*
X160400991Y-105592447D01*
X160358397Y-105293093D01*
X160258222Y-105007801D01*
X160178261Y-104858208D01*
X159924080Y-104774525D01*
X159039605Y-105659000D01*
X158680395Y-105659000D01*
X157795920Y-104774525D01*
X157541739Y-104858208D01*
X157410842Y-105130775D01*
X157335635Y-105423642D01*
X157319009Y-105725553D01*
X148638000Y-105725553D01*
X148638000Y-104594920D01*
X157975525Y-104594920D01*
X158860000Y-105479395D01*
X159744475Y-104594920D01*
X159660792Y-104340739D01*
X159388225Y-104209842D01*
X159095358Y-104134635D01*
X158793447Y-104118009D01*
X158494093Y-104160603D01*
X158208801Y-104260778D01*
X158059208Y-104340739D01*
X157975525Y-104594920D01*
X148638000Y-104594920D01*
X148638000Y-102262101D01*
X148659185Y-102240916D01*
X148690874Y-102193491D01*
X148707814Y-102204810D01*
X148812821Y-102248305D01*
X148924296Y-102270479D01*
X149037956Y-102270479D01*
X149149431Y-102248305D01*
X149254438Y-102204810D01*
X149348942Y-102141664D01*
X149429311Y-102061295D01*
X149492457Y-101966791D01*
X149535952Y-101861784D01*
X149558126Y-101750309D01*
X149558126Y-101636649D01*
X149535952Y-101525174D01*
X149492457Y-101420167D01*
X149429311Y-101325663D01*
X149348942Y-101245294D01*
X149254438Y-101182148D01*
X149149431Y-101138653D01*
X149037956Y-101116479D01*
X148924296Y-101116479D01*
X148812821Y-101138653D01*
X148707814Y-101182148D01*
X148670285Y-101207225D01*
X148656485Y-101193425D01*
X148613464Y-101158119D01*
X148547970Y-101123111D01*
X148476906Y-101101554D01*
X148403001Y-101094276D01*
X148329096Y-101101554D01*
X148258032Y-101123111D01*
X148192538Y-101158119D01*
X148135132Y-101205230D01*
X148088021Y-101262636D01*
X148060136Y-101314805D01*
X148042695Y-101318274D01*
X147937688Y-101361769D01*
X147843184Y-101424915D01*
X147762815Y-101505284D01*
X147699669Y-101599788D01*
X147656174Y-101704795D01*
X147634000Y-101816270D01*
X147634000Y-101929930D01*
X147656174Y-102041405D01*
X147699669Y-102146412D01*
X147762815Y-102240916D01*
X147784000Y-102262101D01*
X147784000Y-102525973D01*
X147774185Y-102511284D01*
X147693816Y-102430915D01*
X147599312Y-102367769D01*
X147494305Y-102324274D01*
X147382830Y-102302100D01*
X147269170Y-102302100D01*
X147157695Y-102324274D01*
X147052688Y-102367769D01*
X146958184Y-102430915D01*
X146877815Y-102511284D01*
X146814669Y-102605788D01*
X146771174Y-102710795D01*
X146749000Y-102822270D01*
X131847000Y-102822270D01*
X131847000Y-102033080D01*
X135513525Y-102033080D01*
X135597208Y-102287261D01*
X135869775Y-102418158D01*
X136162642Y-102493365D01*
X136464553Y-102509991D01*
X136763907Y-102467397D01*
X137049199Y-102367222D01*
X137198792Y-102287261D01*
X137282475Y-102033080D01*
X136398000Y-101148605D01*
X135513525Y-102033080D01*
X131847000Y-102033080D01*
X131847000Y-101035553D01*
X134857009Y-101035553D01*
X134899603Y-101334907D01*
X134999778Y-101620199D01*
X135079739Y-101769792D01*
X135333920Y-101853475D01*
X136218395Y-100969000D01*
X136577605Y-100969000D01*
X137462080Y-101853475D01*
X137716261Y-101769792D01*
X137847158Y-101497225D01*
X137922365Y-101204358D01*
X137938991Y-100902447D01*
X137896397Y-100603093D01*
X137796222Y-100317801D01*
X137716261Y-100168208D01*
X137462080Y-100084525D01*
X136577605Y-100969000D01*
X136218395Y-100969000D01*
X135333920Y-100084525D01*
X135079739Y-100168208D01*
X134948842Y-100440775D01*
X134873635Y-100733642D01*
X134857009Y-101035553D01*
X131847000Y-101035553D01*
X131847000Y-99578151D01*
X132631000Y-99578151D01*
X132631000Y-99819849D01*
X132678153Y-100056903D01*
X132770647Y-100280202D01*
X132904927Y-100481167D01*
X133075833Y-100652073D01*
X133276798Y-100786353D01*
X133500097Y-100878847D01*
X133737151Y-100926000D01*
X133978849Y-100926000D01*
X134215903Y-100878847D01*
X134439202Y-100786353D01*
X134640167Y-100652073D01*
X134811073Y-100481167D01*
X134945353Y-100280202D01*
X135037847Y-100056903D01*
X135085000Y-99819849D01*
X135085000Y-99578151D01*
X135037847Y-99341097D01*
X134945353Y-99117798D01*
X134811073Y-98916833D01*
X134640167Y-98745927D01*
X134439202Y-98611647D01*
X134215903Y-98519153D01*
X133978849Y-98472000D01*
X133737151Y-98472000D01*
X133500097Y-98519153D01*
X133276798Y-98611647D01*
X133075833Y-98745927D01*
X132904927Y-98916833D01*
X132770647Y-99117798D01*
X132678153Y-99341097D01*
X132631000Y-99578151D01*
X131847000Y-99578151D01*
X131847000Y-96259000D01*
X132629418Y-96259000D01*
X132629418Y-98059000D01*
X132635732Y-98123103D01*
X132654430Y-98184743D01*
X132684794Y-98241550D01*
X132725657Y-98291343D01*
X132775450Y-98332206D01*
X132832257Y-98362570D01*
X132893897Y-98381268D01*
X132958000Y-98387582D01*
X134758000Y-98387582D01*
X134822103Y-98381268D01*
X134883743Y-98362570D01*
X134940550Y-98332206D01*
X134969861Y-98308151D01*
X135171000Y-98308151D01*
X135171000Y-98549849D01*
X135218153Y-98786903D01*
X135310647Y-99010202D01*
X135444927Y-99211167D01*
X135615833Y-99382073D01*
X135816798Y-99516353D01*
X135855796Y-99532507D01*
X135746801Y-99570778D01*
X135597208Y-99650739D01*
X135513525Y-99904920D01*
X136398000Y-100789395D01*
X137282475Y-99904920D01*
X137198792Y-99650739D01*
X136946858Y-99529751D01*
X136979202Y-99516353D01*
X137180167Y-99382073D01*
X137351073Y-99211167D01*
X137485353Y-99010202D01*
X137577847Y-98786903D01*
X137625000Y-98549849D01*
X137625000Y-98308151D01*
X137577847Y-98071097D01*
X137485353Y-97847798D01*
X137351073Y-97646833D01*
X137180167Y-97475927D01*
X136979202Y-97341647D01*
X136755903Y-97249153D01*
X136518849Y-97202000D01*
X136277151Y-97202000D01*
X136040097Y-97249153D01*
X135816798Y-97341647D01*
X135615833Y-97475927D01*
X135444927Y-97646833D01*
X135310647Y-97847798D01*
X135218153Y-98071097D01*
X135171000Y-98308151D01*
X134969861Y-98308151D01*
X134990343Y-98291343D01*
X135031206Y-98241550D01*
X135061570Y-98184743D01*
X135080268Y-98123103D01*
X135086582Y-98059000D01*
X135086582Y-96672547D01*
X135147826Y-96713469D01*
X135343836Y-96794659D01*
X135551920Y-96836050D01*
X135764080Y-96836050D01*
X135972164Y-96794659D01*
X136168174Y-96713469D01*
X136344579Y-96595599D01*
X136494599Y-96445579D01*
X136612469Y-96269174D01*
X136693659Y-96073164D01*
X136735050Y-95865080D01*
X136735050Y-95652920D01*
X136693659Y-95444836D01*
X136612469Y-95248826D01*
X136494599Y-95072421D01*
X136344579Y-94922401D01*
X136168174Y-94804531D01*
X135972164Y-94723341D01*
X135764080Y-94681950D01*
X135551920Y-94681950D01*
X135343836Y-94723341D01*
X135147826Y-94804531D01*
X134971421Y-94922401D01*
X134821401Y-95072421D01*
X134703531Y-95248826D01*
X134622341Y-95444836D01*
X134580950Y-95652920D01*
X134580950Y-95865080D01*
X134593947Y-95930418D01*
X132958000Y-95930418D01*
X132893897Y-95936732D01*
X132832257Y-95955430D01*
X132775450Y-95985794D01*
X132725657Y-96026657D01*
X132684794Y-96076450D01*
X132654430Y-96133257D01*
X132635732Y-96194897D01*
X132629418Y-96259000D01*
X131847000Y-96259000D01*
X131847000Y-94509000D01*
X188574000Y-94509000D01*
X188574001Y-131297000D01*
X188574001Y-131297000D01*
G37*
X188574001Y-131297000D02*
X131847000Y-131297000D01*
X131847000Y-128283080D01*
X135515525Y-128283080D01*
X135599208Y-128537261D01*
X135871775Y-128668158D01*
X136164642Y-128743365D01*
X136466553Y-128759991D01*
X136765907Y-128717397D01*
X137051199Y-128617222D01*
X137200792Y-128537261D01*
X137284475Y-128283080D01*
X136400000Y-127398605D01*
X135515525Y-128283080D01*
X131847000Y-128283080D01*
X131847000Y-127285553D01*
X134859009Y-127285553D01*
X134901603Y-127584907D01*
X135001778Y-127870199D01*
X135081739Y-128019792D01*
X135335920Y-128103475D01*
X136220395Y-127219000D01*
X136579605Y-127219000D01*
X137464080Y-128103475D01*
X137718261Y-128019792D01*
X137849158Y-127747225D01*
X137924365Y-127454358D01*
X137940991Y-127152447D01*
X137898397Y-126853093D01*
X137798222Y-126567801D01*
X137718261Y-126418208D01*
X137464080Y-126334525D01*
X136579605Y-127219000D01*
X136220395Y-127219000D01*
X135335920Y-126334525D01*
X135081739Y-126418208D01*
X134950842Y-126690775D01*
X134875635Y-126983642D01*
X134859009Y-127285553D01*
X131847000Y-127285553D01*
X131847000Y-125828151D01*
X132633000Y-125828151D01*
X132633000Y-126069849D01*
X132680153Y-126306903D01*
X132772647Y-126530202D01*
X132906927Y-126731167D01*
X133077833Y-126902073D01*
X133278798Y-127036353D01*
X133502097Y-127128847D01*
X133739151Y-127176000D01*
X133980849Y-127176000D01*
X134217903Y-127128847D01*
X134441202Y-127036353D01*
X134642167Y-126902073D01*
X134813073Y-126731167D01*
X134947353Y-126530202D01*
X135039847Y-126306903D01*
X135087000Y-126069849D01*
X135087000Y-125828151D01*
X135039847Y-125591097D01*
X134947353Y-125367798D01*
X134813073Y-125166833D01*
X134642167Y-124995927D01*
X134441202Y-124861647D01*
X134217903Y-124769153D01*
X133980849Y-124722000D01*
X133739151Y-124722000D01*
X133502097Y-124769153D01*
X133278798Y-124861647D01*
X133077833Y-124995927D01*
X132906927Y-125166833D01*
X132772647Y-125367798D01*
X132680153Y-125591097D01*
X132633000Y-125828151D01*
X131847000Y-125828151D01*
X131847000Y-122509000D01*
X132631418Y-122509000D01*
X132631418Y-124309000D01*
X132637732Y-124373103D01*
X132656430Y-124434743D01*
X132686794Y-124491550D01*
X132727657Y-124541343D01*
X132777450Y-124582206D01*
X132834257Y-124612570D01*
X132895897Y-124631268D01*
X132960000Y-124637582D01*
X134760000Y-124637582D01*
X134824103Y-124631268D01*
X134885743Y-124612570D01*
X134942550Y-124582206D01*
X134971861Y-124558151D01*
X135173000Y-124558151D01*
X135173000Y-124799849D01*
X135220153Y-125036903D01*
X135312647Y-125260202D01*
X135446927Y-125461167D01*
X135617833Y-125632073D01*
X135818798Y-125766353D01*
X135857796Y-125782507D01*
X135748801Y-125820778D01*
X135599208Y-125900739D01*
X135515525Y-126154920D01*
X136400000Y-127039395D01*
X137284475Y-126154920D01*
X137200792Y-125900739D01*
X136983845Y-125796553D01*
X139302009Y-125796553D01*
X139344603Y-126095907D01*
X139444778Y-126381199D01*
X139524739Y-126530792D01*
X139778920Y-126614475D01*
X140663395Y-125730000D01*
X139778920Y-124845525D01*
X139524739Y-124929208D01*
X139393842Y-125201775D01*
X139318635Y-125494642D01*
X139302009Y-125796553D01*
X136983845Y-125796553D01*
X136948858Y-125779751D01*
X136981202Y-125766353D01*
X137182167Y-125632073D01*
X137353073Y-125461167D01*
X137487353Y-125260202D01*
X137579847Y-125036903D01*
X137627000Y-124799849D01*
X137627000Y-124558151D01*
X137579847Y-124321097D01*
X137487353Y-124097798D01*
X137353073Y-123896833D01*
X137182167Y-123725927D01*
X136981202Y-123591647D01*
X136757903Y-123499153D01*
X136520849Y-123452000D01*
X136279151Y-123452000D01*
X136042097Y-123499153D01*
X135818798Y-123591647D01*
X135617833Y-123725927D01*
X135446927Y-123896833D01*
X135312647Y-124097798D01*
X135220153Y-124321097D01*
X135173000Y-124558151D01*
X134971861Y-124558151D01*
X134992343Y-124541343D01*
X135033206Y-124491550D01*
X135063570Y-124434743D01*
X135082268Y-124373103D01*
X135088582Y-124309000D01*
X135088582Y-122922547D01*
X135149826Y-122963469D01*
X135345836Y-123044659D01*
X135553920Y-123086050D01*
X135766080Y-123086050D01*
X135974164Y-123044659D01*
X136170174Y-122963469D01*
X136346579Y-122845599D01*
X136496599Y-122695579D01*
X136614469Y-122519174D01*
X136695659Y-122323164D01*
X136737050Y-122115080D01*
X136737050Y-121902920D01*
X136695659Y-121694836D01*
X136614469Y-121498826D01*
X136496599Y-121322421D01*
X136346579Y-121172401D01*
X136170174Y-121054531D01*
X135974164Y-120973341D01*
X135766080Y-120931950D01*
X135553920Y-120931950D01*
X135345836Y-120973341D01*
X135149826Y-121054531D01*
X134973421Y-121172401D01*
X134823401Y-121322421D01*
X134705531Y-121498826D01*
X134624341Y-121694836D01*
X134582950Y-121902920D01*
X134582950Y-122115080D01*
X134595947Y-122180418D01*
X132960000Y-122180418D01*
X132895897Y-122186732D01*
X132834257Y-122205430D01*
X132777450Y-122235794D01*
X132727657Y-122276657D01*
X132686794Y-122326450D01*
X132656430Y-122383257D01*
X132637732Y-122444897D01*
X132631418Y-122509000D01*
X131847000Y-122509000D01*
X131847000Y-119533080D01*
X135515525Y-119533080D01*
X135599208Y-119787261D01*
X135871775Y-119918158D01*
X136164642Y-119993365D01*
X136466553Y-120009991D01*
X136765907Y-119967397D01*
X137051199Y-119867222D01*
X137200792Y-119787261D01*
X137284475Y-119533080D01*
X136400000Y-118648605D01*
X135515525Y-119533080D01*
X131847000Y-119533080D01*
X131847000Y-118535553D01*
X134859009Y-118535553D01*
X134901603Y-118834907D01*
X135001778Y-119120199D01*
X135081739Y-119269792D01*
X135335920Y-119353475D01*
X136220395Y-118469000D01*
X136579605Y-118469000D01*
X137464080Y-119353475D01*
X137718261Y-119269792D01*
X137849158Y-118997225D01*
X137924365Y-118704358D01*
X137940991Y-118402447D01*
X137898397Y-118103093D01*
X137798222Y-117817801D01*
X137718261Y-117668208D01*
X137464080Y-117584525D01*
X136579605Y-118469000D01*
X136220395Y-118469000D01*
X135335920Y-117584525D01*
X135081739Y-117668208D01*
X134950842Y-117940775D01*
X134875635Y-118233642D01*
X134859009Y-118535553D01*
X131847000Y-118535553D01*
X131847000Y-117078151D01*
X132633000Y-117078151D01*
X132633000Y-117319849D01*
X132680153Y-117556903D01*
X132772647Y-117780202D01*
X132906927Y-117981167D01*
X133077833Y-118152073D01*
X133278798Y-118286353D01*
X133502097Y-118378847D01*
X133739151Y-118426000D01*
X133980849Y-118426000D01*
X134217903Y-118378847D01*
X134441202Y-118286353D01*
X134642167Y-118152073D01*
X134813073Y-117981167D01*
X134947353Y-117780202D01*
X135039847Y-117556903D01*
X135087000Y-117319849D01*
X135087000Y-117078151D01*
X135039847Y-116841097D01*
X134947353Y-116617798D01*
X134813073Y-116416833D01*
X134642167Y-116245927D01*
X134441202Y-116111647D01*
X134217903Y-116019153D01*
X133980849Y-115972000D01*
X133739151Y-115972000D01*
X133502097Y-116019153D01*
X133278798Y-116111647D01*
X133077833Y-116245927D01*
X132906927Y-116416833D01*
X132772647Y-116617798D01*
X132680153Y-116841097D01*
X132633000Y-117078151D01*
X131847000Y-117078151D01*
X131847000Y-113759000D01*
X132631418Y-113759000D01*
X132631418Y-115559000D01*
X132637732Y-115623103D01*
X132656430Y-115684743D01*
X132686794Y-115741550D01*
X132727657Y-115791343D01*
X132777450Y-115832206D01*
X132834257Y-115862570D01*
X132895897Y-115881268D01*
X132960000Y-115887582D01*
X134760000Y-115887582D01*
X134824103Y-115881268D01*
X134885743Y-115862570D01*
X134942550Y-115832206D01*
X134992343Y-115791343D01*
X135033206Y-115741550D01*
X135063570Y-115684743D01*
X135082268Y-115623103D01*
X135088582Y-115559000D01*
X135088582Y-115086000D01*
X135507760Y-115086000D01*
X135446927Y-115146833D01*
X135312647Y-115347798D01*
X135220153Y-115571097D01*
X135173000Y-115808151D01*
X135173000Y-116049849D01*
X135220153Y-116286903D01*
X135312647Y-116510202D01*
X135446927Y-116711167D01*
X135617833Y-116882073D01*
X135818798Y-117016353D01*
X135857796Y-117032507D01*
X135748801Y-117070778D01*
X135599208Y-117150739D01*
X135515525Y-117404920D01*
X136400000Y-118289395D01*
X137284475Y-117404920D01*
X137200792Y-117150739D01*
X136948858Y-117029751D01*
X136981202Y-117016353D01*
X137182167Y-116882073D01*
X137353073Y-116711167D01*
X137487353Y-116510202D01*
X137579847Y-116286903D01*
X137627000Y-116049849D01*
X137627000Y-115808151D01*
X137579847Y-115571097D01*
X137487353Y-115347798D01*
X137353073Y-115146833D01*
X137292240Y-115086000D01*
X141017132Y-115086000D01*
X141028000Y-115096868D01*
X141028000Y-115126830D01*
X141050174Y-115238305D01*
X141093669Y-115343312D01*
X141156815Y-115437816D01*
X141237184Y-115518185D01*
X141331688Y-115581331D01*
X141436695Y-115624826D01*
X141548170Y-115647000D01*
X141578132Y-115647000D01*
X143487349Y-117556218D01*
X143500718Y-117572508D01*
X143517008Y-117585877D01*
X143517011Y-117585880D01*
X143565736Y-117625868D01*
X143602533Y-117645536D01*
X143639917Y-117665518D01*
X143720406Y-117689935D01*
X143783135Y-117696113D01*
X143783147Y-117696113D01*
X143804112Y-117698178D01*
X143825077Y-117696113D01*
X147937869Y-117696113D01*
X147959054Y-117717298D01*
X148053558Y-117780444D01*
X148158565Y-117823939D01*
X148270040Y-117846113D01*
X148383700Y-117846113D01*
X148495175Y-117823939D01*
X148600182Y-117780444D01*
X148694686Y-117717298D01*
X148745984Y-117666000D01*
X150540999Y-117666000D01*
X150562184Y-117687185D01*
X150656688Y-117750331D01*
X150761695Y-117793826D01*
X150873170Y-117816000D01*
X150986830Y-117816000D01*
X151098305Y-117793826D01*
X151203312Y-117750331D01*
X151297816Y-117687185D01*
X151363959Y-117621042D01*
X153424444Y-117621042D01*
X153445629Y-117642227D01*
X153540133Y-117705373D01*
X153645140Y-117748868D01*
X153756615Y-117771042D01*
X153870275Y-117771042D01*
X153936446Y-117757880D01*
X153936446Y-118016141D01*
X152979842Y-118972746D01*
X152879170Y-118972746D01*
X152767695Y-118994920D01*
X152662688Y-119038415D01*
X152568184Y-119101561D01*
X152487815Y-119181930D01*
X152424669Y-119276434D01*
X152381174Y-119381441D01*
X152359000Y-119492916D01*
X152359000Y-119606576D01*
X152381174Y-119718051D01*
X152424669Y-119823058D01*
X152487815Y-119917562D01*
X152568184Y-119997931D01*
X152662688Y-120061077D01*
X152767695Y-120104572D01*
X152879170Y-120126746D01*
X152992830Y-120126746D01*
X153104305Y-120104572D01*
X153209312Y-120061077D01*
X153303816Y-119997931D01*
X153384185Y-119917562D01*
X153447331Y-119823058D01*
X153490826Y-119718051D01*
X153513000Y-119606576D01*
X153513000Y-119505904D01*
X154143873Y-118875032D01*
X154181815Y-118931816D01*
X154262184Y-119012185D01*
X154356688Y-119075331D01*
X154461695Y-119118826D01*
X154573170Y-119141000D01*
X154673842Y-119141000D01*
X157003000Y-121470158D01*
X157003000Y-121924479D01*
X156991312Y-121916669D01*
X156886305Y-121873174D01*
X156774830Y-121851000D01*
X156718851Y-121851000D01*
X156722799Y-121841468D01*
X156744973Y-121729993D01*
X156744973Y-121616333D01*
X156722799Y-121504858D01*
X156679304Y-121399851D01*
X156616158Y-121305347D01*
X156535789Y-121224978D01*
X156441285Y-121161832D01*
X156336278Y-121118337D01*
X156224803Y-121096163D01*
X156111143Y-121096163D01*
X155999668Y-121118337D01*
X155894661Y-121161832D01*
X155800157Y-121224978D01*
X155729035Y-121296100D01*
X148528101Y-121296100D01*
X148449816Y-121217815D01*
X148355312Y-121154669D01*
X148250305Y-121111174D01*
X148138830Y-121089000D01*
X148025170Y-121089000D01*
X147913695Y-121111174D01*
X147808688Y-121154669D01*
X147714184Y-121217815D01*
X147633815Y-121298184D01*
X147570669Y-121392688D01*
X147527174Y-121497695D01*
X147505000Y-121609170D01*
X147505000Y-121722830D01*
X147527174Y-121834305D01*
X147570669Y-121939312D01*
X147633815Y-122033816D01*
X147714184Y-122114185D01*
X147808688Y-122177331D01*
X147913695Y-122220826D01*
X148025170Y-122243000D01*
X148138830Y-122243000D01*
X148250305Y-122220826D01*
X148355312Y-122177331D01*
X148449816Y-122114185D01*
X148513901Y-122050100D01*
X151122919Y-122050100D01*
X151120543Y-122062047D01*
X151120543Y-122162718D01*
X150690261Y-122593001D01*
X147412002Y-122593001D01*
X147340817Y-122521816D01*
X147246313Y-122458670D01*
X147141306Y-122415175D01*
X147029831Y-122393001D01*
X146916171Y-122393001D01*
X146804696Y-122415175D01*
X146699689Y-122458670D01*
X146605185Y-122521816D01*
X146534000Y-122593001D01*
X144409015Y-122593001D01*
X144470353Y-122501202D01*
X144562847Y-122277903D01*
X144610000Y-122040849D01*
X144610000Y-121799151D01*
X144562847Y-121562097D01*
X144478263Y-121357895D01*
X145199159Y-120637000D01*
X149665999Y-120637000D01*
X149737184Y-120708185D01*
X149831688Y-120771331D01*
X149936695Y-120814826D01*
X150048170Y-120837000D01*
X150161830Y-120837000D01*
X150273305Y-120814826D01*
X150378312Y-120771331D01*
X150472816Y-120708185D01*
X150553185Y-120627816D01*
X150616331Y-120533312D01*
X150659826Y-120428305D01*
X150682000Y-120316830D01*
X150682000Y-120203170D01*
X150659826Y-120091695D01*
X150616331Y-119986688D01*
X150553185Y-119892184D01*
X150472816Y-119811815D01*
X150378312Y-119748669D01*
X150273305Y-119705174D01*
X150161830Y-119683000D01*
X150048170Y-119683000D01*
X149936695Y-119705174D01*
X149831688Y-119748669D01*
X149737184Y-119811815D01*
X149665999Y-119883000D01*
X145061519Y-119883000D01*
X145043000Y-119881176D01*
X144969094Y-119888455D01*
X144898030Y-119910012D01*
X144832537Y-119945019D01*
X144775131Y-119992131D01*
X144763328Y-120006513D01*
X143945105Y-120824737D01*
X143740903Y-120740153D01*
X143503849Y-120693000D01*
X143262151Y-120693000D01*
X143025097Y-120740153D01*
X142801798Y-120832647D01*
X142600833Y-120966927D01*
X142429927Y-121137833D01*
X142295647Y-121338798D01*
X142203153Y-121562097D01*
X142156000Y-121799151D01*
X142156000Y-121814157D01*
X142093013Y-121814157D01*
X141981538Y-121836331D01*
X141876531Y-121879826D01*
X141782027Y-121942972D01*
X141725579Y-121999420D01*
X141604740Y-121878582D01*
X141743000Y-121878582D01*
X141807103Y-121872268D01*
X141868743Y-121853570D01*
X141925550Y-121823206D01*
X141975343Y-121782343D01*
X142016206Y-121732550D01*
X142046570Y-121675743D01*
X142065268Y-121614103D01*
X142071582Y-121550000D01*
X142071582Y-120163547D01*
X142132826Y-120204469D01*
X142328836Y-120285659D01*
X142536920Y-120327050D01*
X142749080Y-120327050D01*
X142957164Y-120285659D01*
X143153174Y-120204469D01*
X143329579Y-120086599D01*
X143479599Y-119936579D01*
X143597469Y-119760174D01*
X143678659Y-119564164D01*
X143720050Y-119356080D01*
X143720050Y-119143920D01*
X143678659Y-118935836D01*
X143597469Y-118739826D01*
X143479599Y-118563421D01*
X143329579Y-118413401D01*
X143153174Y-118295531D01*
X142957164Y-118214341D01*
X142749080Y-118172950D01*
X142536920Y-118172950D01*
X142328836Y-118214341D01*
X142132826Y-118295531D01*
X141956421Y-118413401D01*
X141806401Y-118563421D01*
X141688531Y-118739826D01*
X141607341Y-118935836D01*
X141565950Y-119143920D01*
X141565950Y-119356080D01*
X141578947Y-119421418D01*
X139943000Y-119421418D01*
X139878897Y-119427732D01*
X139817257Y-119446430D01*
X139760450Y-119476794D01*
X139710657Y-119517657D01*
X139669794Y-119567450D01*
X139639430Y-119624257D01*
X139620732Y-119685897D01*
X139614418Y-119750000D01*
X139614418Y-121550000D01*
X139620732Y-121614103D01*
X139639430Y-121675743D01*
X139669794Y-121732550D01*
X139710657Y-121782343D01*
X139760450Y-121823206D01*
X139817257Y-121853570D01*
X139878897Y-121872268D01*
X139943000Y-121878582D01*
X140542890Y-121878582D01*
X140563326Y-121903484D01*
X140563329Y-121903487D01*
X140575132Y-121917869D01*
X140589514Y-121929672D01*
X140639318Y-121979476D01*
X140485097Y-122010153D01*
X140261798Y-122102647D01*
X140060833Y-122236927D01*
X139889927Y-122407833D01*
X139755647Y-122608798D01*
X139663153Y-122832097D01*
X139616000Y-123069151D01*
X139616000Y-123310849D01*
X139663153Y-123547903D01*
X139755647Y-123771202D01*
X139889927Y-123972167D01*
X140060833Y-124143073D01*
X140261798Y-124277353D01*
X140300796Y-124293507D01*
X140191801Y-124331778D01*
X140042208Y-124411739D01*
X139958525Y-124665920D01*
X140843000Y-125550395D01*
X141727475Y-124665920D01*
X141643792Y-124411739D01*
X141391858Y-124290751D01*
X141424202Y-124277353D01*
X141625167Y-124143073D01*
X141796073Y-123972167D01*
X141930353Y-123771202D01*
X142022847Y-123547903D01*
X142053523Y-123393682D01*
X142283330Y-123623489D01*
X142295133Y-123637871D01*
X142352539Y-123684983D01*
X142406041Y-123713581D01*
X142295647Y-123878798D01*
X142203153Y-124102097D01*
X142156000Y-124339151D01*
X142156000Y-124580849D01*
X142203153Y-124817903D01*
X142295647Y-125041202D01*
X142429927Y-125242167D01*
X142600833Y-125413073D01*
X142801798Y-125547353D01*
X142840796Y-125563507D01*
X142731801Y-125601778D01*
X142582208Y-125681739D01*
X142498526Y-125935918D01*
X142382578Y-125819970D01*
X142374951Y-125827597D01*
X142383991Y-125663447D01*
X142341397Y-125364093D01*
X142241222Y-125078801D01*
X142161261Y-124929208D01*
X141907080Y-124845525D01*
X141022605Y-125730000D01*
X141036748Y-125744143D01*
X140857143Y-125923748D01*
X140843000Y-125909605D01*
X139958525Y-126794080D01*
X140042208Y-127048261D01*
X140314775Y-127179158D01*
X140607642Y-127254365D01*
X140909553Y-127270991D01*
X141208907Y-127228397D01*
X141494199Y-127128222D01*
X141643792Y-127048261D01*
X141727474Y-126794082D01*
X141843422Y-126910030D01*
X141851049Y-126902403D01*
X141842009Y-127066553D01*
X141884603Y-127365907D01*
X141984778Y-127651199D01*
X142064739Y-127800792D01*
X142318920Y-127884475D01*
X143203395Y-127000000D01*
X143189253Y-126985858D01*
X143368858Y-126806253D01*
X143383000Y-126820395D01*
X144267475Y-125935920D01*
X144183792Y-125681739D01*
X143931858Y-125560751D01*
X143964202Y-125547353D01*
X144165167Y-125413073D01*
X144336073Y-125242167D01*
X144470353Y-125041202D01*
X144562847Y-124817903D01*
X144610000Y-124580849D01*
X144610000Y-124339151D01*
X144562847Y-124102097D01*
X144470353Y-123878798D01*
X144382290Y-123747002D01*
X150218182Y-123747002D01*
X150329354Y-123858174D01*
X150293757Y-123872919D01*
X150199253Y-123936065D01*
X150118884Y-124016434D01*
X150055738Y-124110938D01*
X150012243Y-124215945D01*
X149990069Y-124327420D01*
X149990069Y-124441080D01*
X150012243Y-124552555D01*
X150055738Y-124657562D01*
X150118884Y-124752066D01*
X150199253Y-124832435D01*
X150293757Y-124895581D01*
X150398764Y-124939076D01*
X150510239Y-124961250D01*
X150623899Y-124961250D01*
X150735374Y-124939076D01*
X150840381Y-124895581D01*
X150934885Y-124832435D01*
X150977822Y-124789498D01*
X151649850Y-125461527D01*
X151649850Y-125741916D01*
X151578664Y-125813102D01*
X151515518Y-125907606D01*
X151472023Y-126012613D01*
X151449849Y-126124088D01*
X151449849Y-126237748D01*
X151472023Y-126349223D01*
X151515518Y-126454230D01*
X151578664Y-126548734D01*
X151659033Y-126629103D01*
X151753537Y-126692249D01*
X151858544Y-126735744D01*
X151970019Y-126757918D01*
X152083679Y-126757918D01*
X152195154Y-126735744D01*
X152300161Y-126692249D01*
X152394665Y-126629103D01*
X152465850Y-126557918D01*
X153783866Y-126557918D01*
X153712184Y-126605815D01*
X153631815Y-126686184D01*
X153568669Y-126780688D01*
X153525174Y-126885695D01*
X153503000Y-126997170D01*
X153503000Y-127027131D01*
X153322132Y-127208000D01*
X146677869Y-127208000D01*
X146277000Y-126807132D01*
X146277000Y-126777170D01*
X146254826Y-126665695D01*
X146211331Y-126560688D01*
X146148185Y-126466184D01*
X146067816Y-126385815D01*
X145973312Y-126322669D01*
X145868305Y-126279174D01*
X145756830Y-126257000D01*
X145643170Y-126257000D01*
X145531695Y-126279174D01*
X145426688Y-126322669D01*
X145332184Y-126385815D01*
X145251815Y-126466184D01*
X145188669Y-126560688D01*
X145145174Y-126665695D01*
X145123000Y-126777170D01*
X145123000Y-126807131D01*
X144919755Y-127010377D01*
X144923991Y-126933447D01*
X144881397Y-126634093D01*
X144781222Y-126348801D01*
X144701261Y-126199208D01*
X144447080Y-126115525D01*
X143562605Y-127000000D01*
X143576748Y-127014143D01*
X143397143Y-127193748D01*
X143383000Y-127179605D01*
X142498525Y-128064080D01*
X142582208Y-128318261D01*
X142854775Y-128449158D01*
X143147642Y-128524365D01*
X143449553Y-128540991D01*
X143748907Y-128498397D01*
X144034199Y-128398222D01*
X144099001Y-128363584D01*
X144099000Y-130073439D01*
X144077815Y-130094624D01*
X144014669Y-130189128D01*
X143971174Y-130294135D01*
X143949000Y-130405610D01*
X143949000Y-130519270D01*
X143971174Y-130630745D01*
X144014669Y-130735752D01*
X144077815Y-130830256D01*
X144158184Y-130910625D01*
X144252688Y-130973771D01*
X144357695Y-131017266D01*
X144469170Y-131039440D01*
X144582830Y-131039440D01*
X144694305Y-131017266D01*
X144799312Y-130973771D01*
X144893816Y-130910625D01*
X144974185Y-130830256D01*
X145037331Y-130735752D01*
X145080826Y-130630745D01*
X145103000Y-130519270D01*
X145103000Y-130405610D01*
X145080826Y-130294135D01*
X145037331Y-130189128D01*
X144974185Y-130094624D01*
X144953000Y-130073439D01*
X144953000Y-129505609D01*
X145749489Y-129505609D01*
X145749489Y-129619269D01*
X145771663Y-129730744D01*
X145815158Y-129835751D01*
X145878304Y-129930255D01*
X145958673Y-130010624D01*
X146053177Y-130073770D01*
X146158184Y-130117265D01*
X146269659Y-130139439D01*
X146383319Y-130139439D01*
X146494794Y-130117265D01*
X146599801Y-130073770D01*
X146694305Y-130010624D01*
X146774674Y-129930255D01*
X146837820Y-129835751D01*
X146881315Y-129730744D01*
X146903489Y-129619269D01*
X146903489Y-129505609D01*
X146881315Y-129394134D01*
X146837820Y-129289127D01*
X146774674Y-129194623D01*
X146694305Y-129114254D01*
X146599801Y-129051108D01*
X146494794Y-129007613D01*
X146383319Y-128985439D01*
X146269659Y-128985439D01*
X146158184Y-129007613D01*
X146053177Y-129051108D01*
X145958673Y-129114254D01*
X145878304Y-129194623D01*
X145815158Y-129289127D01*
X145771663Y-129394134D01*
X145749489Y-129505609D01*
X144953000Y-129505609D01*
X144953000Y-128184868D01*
X145700000Y-127437868D01*
X146184236Y-127922105D01*
X146197605Y-127938395D01*
X146213895Y-127951764D01*
X146213899Y-127951768D01*
X146262623Y-127991755D01*
X146293016Y-128008000D01*
X146336804Y-128031405D01*
X146417293Y-128055822D01*
X146480022Y-128062000D01*
X146480032Y-128062000D01*
X146500999Y-128064065D01*
X146521966Y-128062000D01*
X153478033Y-128062000D01*
X153499000Y-128064065D01*
X153519967Y-128062000D01*
X153519978Y-128062000D01*
X153582707Y-128055822D01*
X153663196Y-128031405D01*
X153737376Y-127991755D01*
X153802395Y-127938395D01*
X153815768Y-127922100D01*
X154106869Y-127631000D01*
X154136830Y-127631000D01*
X154248305Y-127608826D01*
X154353312Y-127565331D01*
X154447816Y-127502185D01*
X154528185Y-127421816D01*
X154591331Y-127327312D01*
X154634826Y-127222305D01*
X154657000Y-127110830D01*
X154657000Y-126997170D01*
X154634826Y-126885695D01*
X154591331Y-126780688D01*
X154528185Y-126686184D01*
X154447816Y-126605815D01*
X154376134Y-126557918D01*
X155923684Y-126557918D01*
X159032252Y-129666487D01*
X159044055Y-129680869D01*
X159101461Y-129727981D01*
X159166954Y-129762988D01*
X159238019Y-129784545D01*
X159293405Y-129790000D01*
X159293414Y-129790000D01*
X159311923Y-129791823D01*
X159330432Y-129790000D01*
X169125490Y-129790000D01*
X169144002Y-129791823D01*
X169162514Y-129790000D01*
X169162521Y-129790000D01*
X169217907Y-129784545D01*
X169288972Y-129762988D01*
X169354465Y-129727981D01*
X169411871Y-129680869D01*
X169423679Y-129666481D01*
X170516489Y-128573672D01*
X170530870Y-128561870D01*
X170577982Y-128504464D01*
X170612989Y-128438971D01*
X170634546Y-128367906D01*
X170640001Y-128312520D01*
X170640001Y-128312519D01*
X170641825Y-128294001D01*
X170640001Y-128275482D01*
X170640001Y-128013968D01*
X170643031Y-128044732D01*
X170710333Y-128266597D01*
X170819626Y-128471070D01*
X170966709Y-128650291D01*
X171145930Y-128797374D01*
X171350403Y-128906667D01*
X171572268Y-128973969D01*
X171745188Y-128991000D01*
X171860812Y-128991000D01*
X172033732Y-128973969D01*
X172255597Y-128906667D01*
X172460070Y-128797374D01*
X172639291Y-128650291D01*
X172786374Y-128471070D01*
X172895667Y-128266597D01*
X172962969Y-128044732D01*
X172985694Y-127814000D01*
X172962969Y-127583268D01*
X172895667Y-127361403D01*
X172786374Y-127156930D01*
X172639291Y-126977709D01*
X172460070Y-126830626D01*
X172343000Y-126768051D01*
X172343000Y-115007158D01*
X181632159Y-105718000D01*
X181732830Y-105718000D01*
X181844305Y-105695826D01*
X181949312Y-105652331D01*
X182043816Y-105589185D01*
X182124185Y-105508816D01*
X182147606Y-105473765D01*
X184199000Y-107525159D01*
X184199000Y-107625830D01*
X184221174Y-107737305D01*
X184264669Y-107842312D01*
X184327815Y-107936816D01*
X184408184Y-108017185D01*
X184502688Y-108080331D01*
X184607695Y-108123826D01*
X184719170Y-108146000D01*
X184799000Y-108146000D01*
X184799000Y-110781157D01*
X184719170Y-110781157D01*
X184607695Y-110803331D01*
X184502688Y-110846826D01*
X184408184Y-110909972D01*
X184327815Y-110990341D01*
X184264669Y-111084845D01*
X184221174Y-111189852D01*
X184199000Y-111301327D01*
X184199000Y-111401998D01*
X181672514Y-113928485D01*
X181658132Y-113940288D01*
X181652999Y-113946543D01*
X181652999Y-112218000D01*
X181732830Y-112218000D01*
X181844305Y-112195826D01*
X181949312Y-112152331D01*
X182043816Y-112089185D01*
X182124185Y-112008816D01*
X182187331Y-111914312D01*
X182230826Y-111809305D01*
X182253000Y-111697830D01*
X182253000Y-111584170D01*
X182230826Y-111472695D01*
X182187331Y-111367688D01*
X182124185Y-111273184D01*
X182043816Y-111192815D01*
X181949312Y-111129669D01*
X181844305Y-111086174D01*
X181732830Y-111064000D01*
X181619170Y-111064000D01*
X181507695Y-111086174D01*
X181402688Y-111129669D01*
X181308184Y-111192815D01*
X181227815Y-111273184D01*
X181164669Y-111367688D01*
X181121174Y-111472695D01*
X181099000Y-111584170D01*
X181099000Y-111684842D01*
X181022513Y-111761329D01*
X181008131Y-111773132D01*
X180996328Y-111787514D01*
X180996325Y-111787517D01*
X180963001Y-111828123D01*
X180963001Y-110137157D01*
X181632158Y-109468000D01*
X181732830Y-109468000D01*
X181844305Y-109445826D01*
X181949312Y-109402331D01*
X182043816Y-109339185D01*
X182124185Y-109258816D01*
X182187331Y-109164312D01*
X182230826Y-109059305D01*
X182253000Y-108947830D01*
X182253000Y-108834170D01*
X182230826Y-108722695D01*
X182187331Y-108617688D01*
X182124185Y-108523184D01*
X182043816Y-108442815D01*
X181966270Y-108391000D01*
X182043816Y-108339185D01*
X182124185Y-108258816D01*
X182187331Y-108164312D01*
X182230826Y-108059305D01*
X182253000Y-107947830D01*
X182253000Y-107834170D01*
X182230826Y-107722695D01*
X182187331Y-107617688D01*
X182124185Y-107523184D01*
X182043816Y-107442815D01*
X181949312Y-107379669D01*
X181844305Y-107336174D01*
X181732830Y-107314000D01*
X181619170Y-107314000D01*
X181515546Y-107334612D01*
X181632158Y-107218000D01*
X181732830Y-107218000D01*
X181844305Y-107195826D01*
X181949312Y-107152331D01*
X182043816Y-107089185D01*
X182124185Y-107008816D01*
X182187331Y-106914312D01*
X182230826Y-106809305D01*
X182253000Y-106697830D01*
X182253000Y-106584170D01*
X182230826Y-106472695D01*
X182187331Y-106367688D01*
X182124185Y-106273184D01*
X182043816Y-106192815D01*
X181949312Y-106129669D01*
X181844305Y-106086174D01*
X181732830Y-106064000D01*
X181619170Y-106064000D01*
X181507695Y-106086174D01*
X181402688Y-106129669D01*
X181308184Y-106192815D01*
X181227815Y-106273184D01*
X181164669Y-106367688D01*
X181121174Y-106472695D01*
X181099000Y-106584170D01*
X181099000Y-106684842D01*
X174252514Y-113531328D01*
X174238132Y-113543131D01*
X174226329Y-113557513D01*
X174226326Y-113557516D01*
X174191020Y-113600537D01*
X174156012Y-113666031D01*
X174134455Y-113737095D01*
X174127177Y-113811000D01*
X174129001Y-113829522D01*
X174129000Y-126652383D01*
X174112268Y-126654031D01*
X173890403Y-126721333D01*
X173685930Y-126830626D01*
X173506709Y-126977709D01*
X173359626Y-127156930D01*
X173250333Y-127361403D01*
X173183031Y-127583268D01*
X173160306Y-127814000D01*
X173183031Y-128044732D01*
X173250333Y-128266597D01*
X173359626Y-128471070D01*
X173506709Y-128650291D01*
X173685930Y-128797374D01*
X173890403Y-128906667D01*
X174112268Y-128973969D01*
X174285188Y-128991000D01*
X174400812Y-128991000D01*
X174573732Y-128973969D01*
X174795597Y-128906667D01*
X175000070Y-128797374D01*
X175179291Y-128650291D01*
X175326374Y-128471070D01*
X175435667Y-128266597D01*
X175502969Y-128044732D01*
X175525694Y-127814000D01*
X175502969Y-127583268D01*
X175435667Y-127361403D01*
X175326374Y-127156930D01*
X175179291Y-126977709D01*
X175000070Y-126830626D01*
X174883000Y-126768051D01*
X174883000Y-113967158D01*
X181119612Y-107730546D01*
X181099000Y-107834170D01*
X181099000Y-107934842D01*
X179332514Y-109701328D01*
X179318132Y-109713131D01*
X179306329Y-109727513D01*
X179306326Y-109727516D01*
X179271020Y-109770537D01*
X179236012Y-109836031D01*
X179214455Y-109907095D01*
X179207177Y-109981000D01*
X179209001Y-109999522D01*
X179209000Y-126652383D01*
X179192268Y-126654031D01*
X178970403Y-126721333D01*
X178765930Y-126830626D01*
X178586709Y-126977709D01*
X178439626Y-127156930D01*
X178330333Y-127361403D01*
X178263031Y-127583268D01*
X178240306Y-127814000D01*
X178263031Y-128044732D01*
X178330333Y-128266597D01*
X178439626Y-128471070D01*
X178586709Y-128650291D01*
X178765930Y-128797374D01*
X178970403Y-128906667D01*
X179192268Y-128973969D01*
X179365188Y-128991000D01*
X179480812Y-128991000D01*
X179653732Y-128973969D01*
X179875597Y-128906667D01*
X180080070Y-128797374D01*
X180209001Y-128691563D01*
X180209001Y-128764842D01*
X179909843Y-129064001D01*
X178202160Y-129064001D01*
X177750464Y-128612306D01*
X177866374Y-128471070D01*
X177975667Y-128266597D01*
X178042969Y-128044732D01*
X178065694Y-127814000D01*
X178042969Y-127583268D01*
X177975667Y-127361403D01*
X177866374Y-127156930D01*
X177719291Y-126977709D01*
X177540070Y-126830626D01*
X177335597Y-126721333D01*
X177113732Y-126654031D01*
X176940812Y-126637000D01*
X176825188Y-126637000D01*
X176652268Y-126654031D01*
X176430403Y-126721333D01*
X176225930Y-126830626D01*
X176046709Y-126977709D01*
X175899626Y-127156930D01*
X175790333Y-127361403D01*
X175723031Y-127583268D01*
X175700306Y-127814000D01*
X175723031Y-128044732D01*
X175790333Y-128266597D01*
X175899626Y-128471070D01*
X176046709Y-128650291D01*
X176225930Y-128797374D01*
X176430403Y-128906667D01*
X176652268Y-128973969D01*
X176825188Y-128991000D01*
X176940812Y-128991000D01*
X177051901Y-128980059D01*
X177766329Y-129694488D01*
X177778132Y-129708870D01*
X177792514Y-129720673D01*
X177792516Y-129720675D01*
X177804785Y-129730744D01*
X177835538Y-129755982D01*
X177888975Y-129784545D01*
X177901031Y-129790989D01*
X177972095Y-129812546D01*
X177979055Y-129813231D01*
X178027482Y-129818001D01*
X178027489Y-129818001D01*
X178046001Y-129819824D01*
X178064513Y-129818001D01*
X180047489Y-129818001D01*
X180066001Y-129819824D01*
X180084513Y-129818001D01*
X180084520Y-129818001D01*
X180139906Y-129812546D01*
X180210971Y-129790989D01*
X180276464Y-129755982D01*
X180333870Y-129708870D01*
X180345678Y-129694483D01*
X180839489Y-129200672D01*
X180853870Y-129188870D01*
X180900982Y-129131464D01*
X180935989Y-129065971D01*
X180957546Y-128994906D01*
X180963001Y-128939520D01*
X180963001Y-128939511D01*
X180964824Y-128921002D01*
X180963001Y-128902493D01*
X180963001Y-128439967D01*
X180979626Y-128471070D01*
X181126709Y-128650291D01*
X181305930Y-128797374D01*
X181510403Y-128906667D01*
X181732268Y-128973969D01*
X181905188Y-128991000D01*
X182020812Y-128991000D01*
X182193732Y-128973969D01*
X182415597Y-128906667D01*
X182620070Y-128797374D01*
X182799291Y-128650291D01*
X182946374Y-128471070D01*
X183055667Y-128266597D01*
X183122969Y-128044732D01*
X183145694Y-127814000D01*
X183122969Y-127583268D01*
X183055667Y-127361403D01*
X182946374Y-127156930D01*
X182799291Y-126977709D01*
X182782587Y-126964000D01*
X183324418Y-126964000D01*
X183324418Y-128664000D01*
X183330732Y-128728103D01*
X183349430Y-128789743D01*
X183379794Y-128846550D01*
X183420657Y-128896343D01*
X183470450Y-128937206D01*
X183527257Y-128967570D01*
X183588897Y-128986268D01*
X183653000Y-128992582D01*
X185353000Y-128992582D01*
X185417103Y-128986268D01*
X185478743Y-128967570D01*
X185535550Y-128937206D01*
X185585343Y-128896343D01*
X185626206Y-128846550D01*
X185656570Y-128789743D01*
X185675268Y-128728103D01*
X185681582Y-128664000D01*
X185681582Y-126964000D01*
X185675268Y-126899897D01*
X185656570Y-126838257D01*
X185626206Y-126781450D01*
X185585343Y-126731657D01*
X185535550Y-126690794D01*
X185478743Y-126660430D01*
X185417103Y-126641732D01*
X185353000Y-126635418D01*
X183653000Y-126635418D01*
X183588897Y-126641732D01*
X183527257Y-126660430D01*
X183470450Y-126690794D01*
X183420657Y-126731657D01*
X183379794Y-126781450D01*
X183349430Y-126838257D01*
X183330732Y-126899897D01*
X183324418Y-126964000D01*
X182782587Y-126964000D01*
X182620070Y-126830626D01*
X182415597Y-126721333D01*
X182193732Y-126654031D01*
X182020812Y-126637000D01*
X181905188Y-126637000D01*
X181732268Y-126654031D01*
X181652999Y-126678077D01*
X181652999Y-116152460D01*
X181757695Y-116195826D01*
X181869170Y-116218000D01*
X181969842Y-116218000D01*
X183296329Y-117544488D01*
X183308132Y-117558870D01*
X183322514Y-117570673D01*
X183322516Y-117570675D01*
X183341044Y-117585880D01*
X183365538Y-117605982D01*
X183402742Y-117625868D01*
X183431031Y-117640989D01*
X183502095Y-117662546D01*
X183576001Y-117669825D01*
X183594520Y-117668001D01*
X185206843Y-117668001D01*
X185351000Y-117812158D01*
X185351000Y-117912830D01*
X185373174Y-118024305D01*
X185416669Y-118129312D01*
X185479815Y-118223816D01*
X185560184Y-118304185D01*
X185654688Y-118367331D01*
X185759695Y-118410826D01*
X185871170Y-118433000D01*
X185984830Y-118433000D01*
X186096305Y-118410826D01*
X186201312Y-118367331D01*
X186295816Y-118304185D01*
X186376185Y-118223816D01*
X186439331Y-118129312D01*
X186482826Y-118024305D01*
X186505000Y-117912830D01*
X186505000Y-117799170D01*
X186482826Y-117687695D01*
X186439331Y-117582688D01*
X186376185Y-117488184D01*
X186295816Y-117407815D01*
X186243460Y-117372832D01*
X186293816Y-117339185D01*
X186374185Y-117258816D01*
X186437331Y-117164312D01*
X186480826Y-117059305D01*
X186503000Y-116947830D01*
X186503000Y-116834170D01*
X186480826Y-116722695D01*
X186437331Y-116617688D01*
X186374185Y-116523184D01*
X186293816Y-116442815D01*
X186199312Y-116379669D01*
X186094305Y-116336174D01*
X185982830Y-116314000D01*
X185882159Y-116314000D01*
X185553000Y-115984842D01*
X185553000Y-106423653D01*
X185612582Y-106448332D01*
X185724057Y-106470506D01*
X185837717Y-106470506D01*
X185949192Y-106448332D01*
X186054199Y-106404837D01*
X186148703Y-106341691D01*
X186229072Y-106261322D01*
X186292218Y-106166818D01*
X186335713Y-106061811D01*
X186357887Y-105950336D01*
X186357887Y-105849664D01*
X186634553Y-105572999D01*
X187227000Y-105572999D01*
X187298185Y-105644184D01*
X187392689Y-105707330D01*
X187497696Y-105750825D01*
X187609171Y-105772999D01*
X187722831Y-105772999D01*
X187834306Y-105750825D01*
X187939313Y-105707330D01*
X188033817Y-105644184D01*
X188114186Y-105563815D01*
X188177332Y-105469311D01*
X188220827Y-105364304D01*
X188243001Y-105252829D01*
X188243001Y-105139169D01*
X188220827Y-105027694D01*
X188177332Y-104922687D01*
X188114186Y-104828183D01*
X188033817Y-104747814D01*
X187939313Y-104684668D01*
X187834306Y-104641173D01*
X187722831Y-104618999D01*
X187680948Y-104618999D01*
X187758667Y-104473597D01*
X187825969Y-104251732D01*
X187848694Y-104021000D01*
X187825969Y-103790268D01*
X187758667Y-103568403D01*
X187649374Y-103363930D01*
X187502291Y-103184709D01*
X187323070Y-103037626D01*
X187118597Y-102928333D01*
X186896732Y-102861031D01*
X186723812Y-102844000D01*
X186608188Y-102844000D01*
X186435268Y-102861031D01*
X186213403Y-102928333D01*
X186008930Y-103037626D01*
X185829709Y-103184709D01*
X185682626Y-103363930D01*
X185573333Y-103568403D01*
X185553000Y-103635432D01*
X185553000Y-101866568D01*
X185573333Y-101933597D01*
X185682626Y-102138070D01*
X185829709Y-102317291D01*
X186008930Y-102464374D01*
X186213403Y-102573667D01*
X186435268Y-102640969D01*
X186608188Y-102658000D01*
X186723812Y-102658000D01*
X186896732Y-102640969D01*
X187118597Y-102573667D01*
X187323070Y-102464374D01*
X187502291Y-102317291D01*
X187649374Y-102138070D01*
X187758667Y-101933597D01*
X187825969Y-101711732D01*
X187848694Y-101481000D01*
X187825969Y-101250268D01*
X187758667Y-101028403D01*
X187649374Y-100823930D01*
X187502291Y-100644709D01*
X187323070Y-100497626D01*
X187118597Y-100388333D01*
X187058115Y-100369986D01*
X187297252Y-100285157D01*
X187547355Y-100136178D01*
X187763588Y-99941269D01*
X187937641Y-99707920D01*
X188062825Y-99445099D01*
X188107476Y-99297890D01*
X187986155Y-99068000D01*
X186793000Y-99068000D01*
X186793000Y-99088000D01*
X186539000Y-99088000D01*
X186539000Y-99068000D01*
X186519000Y-99068000D01*
X186519000Y-98814000D01*
X186539000Y-98814000D01*
X186539000Y-98794000D01*
X186793000Y-98794000D01*
X186793000Y-98814000D01*
X187986155Y-98814000D01*
X188107476Y-98584110D01*
X188062825Y-98436901D01*
X187937641Y-98174080D01*
X187763588Y-97940731D01*
X187547355Y-97745822D01*
X187297252Y-97596843D01*
X187248592Y-97579582D01*
X187516000Y-97579582D01*
X187580103Y-97573268D01*
X187641743Y-97554570D01*
X187698550Y-97524206D01*
X187748343Y-97483343D01*
X187789206Y-97433550D01*
X187819570Y-97376743D01*
X187838268Y-97315103D01*
X187844582Y-97251000D01*
X187844582Y-95551000D01*
X187838268Y-95486897D01*
X187819570Y-95425257D01*
X187789206Y-95368450D01*
X187748343Y-95318657D01*
X187698550Y-95277794D01*
X187641743Y-95247430D01*
X187580103Y-95228732D01*
X187516000Y-95222418D01*
X185816000Y-95222418D01*
X185751897Y-95228732D01*
X185690257Y-95247430D01*
X185633450Y-95277794D01*
X185583657Y-95318657D01*
X185542794Y-95368450D01*
X185512430Y-95425257D01*
X185493732Y-95486897D01*
X185487418Y-95551000D01*
X185487418Y-96905131D01*
X185449312Y-96879669D01*
X185344305Y-96836174D01*
X185232830Y-96814000D01*
X185119170Y-96814000D01*
X185007695Y-96836174D01*
X184902688Y-96879669D01*
X184808184Y-96942815D01*
X184727815Y-97023184D01*
X184664669Y-97117688D01*
X184621174Y-97222695D01*
X184599000Y-97334170D01*
X184599000Y-97447830D01*
X184621174Y-97559305D01*
X184664669Y-97664312D01*
X184727815Y-97758816D01*
X184799001Y-97830002D01*
X184799000Y-106992000D01*
X184732159Y-106992000D01*
X182086549Y-104346391D01*
X182104816Y-104334185D01*
X182185185Y-104253816D01*
X182248331Y-104159312D01*
X182291826Y-104054305D01*
X182314000Y-103942830D01*
X182314000Y-103829170D01*
X182291826Y-103717695D01*
X182248331Y-103612688D01*
X182185185Y-103518184D01*
X182104816Y-103437815D01*
X182010312Y-103374669D01*
X181905305Y-103331174D01*
X181793830Y-103309000D01*
X181693159Y-103309000D01*
X181322343Y-102938185D01*
X181322343Y-102915827D01*
X181300169Y-102804352D01*
X181256674Y-102699345D01*
X181193528Y-102604841D01*
X181113159Y-102524472D01*
X181018655Y-102461326D01*
X180913648Y-102417831D01*
X180802173Y-102395657D01*
X180688513Y-102395657D01*
X180577038Y-102417831D01*
X180472031Y-102461326D01*
X180377527Y-102524472D01*
X180321079Y-102580920D01*
X172990679Y-95250521D01*
X172990674Y-95250515D01*
X172617675Y-94877517D01*
X172605868Y-94863130D01*
X172548462Y-94816018D01*
X172482969Y-94781011D01*
X172411904Y-94759454D01*
X172356518Y-94753999D01*
X172356511Y-94753999D01*
X172337999Y-94752176D01*
X172319487Y-94753999D01*
X146082518Y-94753999D01*
X146063999Y-94752175D01*
X145990093Y-94759454D01*
X145919029Y-94781011D01*
X145853536Y-94816018D01*
X145796130Y-94863130D01*
X145784327Y-94877512D01*
X144526519Y-96135321D01*
X144512131Y-96147129D01*
X144465019Y-96204536D01*
X144436548Y-96257801D01*
X144430012Y-96270029D01*
X144410304Y-96335000D01*
X144408455Y-96341094D01*
X144403000Y-96396480D01*
X144403000Y-96396486D01*
X144401177Y-96414998D01*
X144403000Y-96433510D01*
X144403001Y-97477998D01*
X144331815Y-97549184D01*
X144268669Y-97643688D01*
X144225174Y-97748695D01*
X144203000Y-97860170D01*
X144203000Y-97973830D01*
X144225174Y-98085305D01*
X144268669Y-98190312D01*
X144331815Y-98284816D01*
X144412184Y-98365185D01*
X144506688Y-98428331D01*
X144611695Y-98471826D01*
X144723170Y-98494000D01*
X144836830Y-98494000D01*
X144948305Y-98471826D01*
X145053312Y-98428331D01*
X145147816Y-98365185D01*
X145228185Y-98284816D01*
X145291331Y-98190312D01*
X145334826Y-98085305D01*
X145357000Y-97973830D01*
X145357000Y-97860170D01*
X145334826Y-97748695D01*
X145291331Y-97643688D01*
X145228185Y-97549184D01*
X145157000Y-97477999D01*
X145157000Y-96571156D01*
X145805156Y-95923000D01*
X145855815Y-95998816D01*
X145936184Y-96079185D01*
X146030688Y-96142331D01*
X146135695Y-96185826D01*
X146247170Y-96208000D01*
X146360830Y-96208000D01*
X146472305Y-96185826D01*
X146577312Y-96142331D01*
X146671816Y-96079185D01*
X146693001Y-96058000D01*
X148917032Y-96058000D01*
X154369504Y-101510473D01*
X154363000Y-101543170D01*
X154363000Y-101656830D01*
X154385174Y-101768305D01*
X154428669Y-101873312D01*
X154491815Y-101967816D01*
X154572184Y-102048185D01*
X154666688Y-102111331D01*
X154771695Y-102154826D01*
X154883170Y-102177000D01*
X154913132Y-102177000D01*
X156192292Y-103456162D01*
X156205656Y-103472446D01*
X156221940Y-103485810D01*
X156221949Y-103485819D01*
X156270674Y-103525806D01*
X156273812Y-103527483D01*
X156344855Y-103565456D01*
X156425344Y-103589873D01*
X156488073Y-103596051D01*
X156488083Y-103596051D01*
X156509050Y-103598116D01*
X156530017Y-103596051D01*
X164271982Y-103596051D01*
X164292949Y-103598116D01*
X164313916Y-103596051D01*
X164313927Y-103596051D01*
X164376656Y-103589873D01*
X164457145Y-103565456D01*
X164531325Y-103525806D01*
X164596344Y-103472446D01*
X164609717Y-103456151D01*
X171730869Y-96335000D01*
X171760830Y-96335000D01*
X171872305Y-96312826D01*
X171977312Y-96269331D01*
X172071816Y-96206185D01*
X172152185Y-96125816D01*
X172215331Y-96031312D01*
X172258826Y-95926305D01*
X172281000Y-95814830D01*
X172281000Y-95701170D01*
X172258826Y-95589695D01*
X172255495Y-95581654D01*
X172457515Y-95783674D01*
X172457521Y-95783679D01*
X181343235Y-104669394D01*
X181308184Y-104692815D01*
X181227815Y-104773184D01*
X181164669Y-104867688D01*
X181121174Y-104972695D01*
X181099000Y-105084170D01*
X181099000Y-105184841D01*
X171712514Y-114571328D01*
X171698132Y-114583131D01*
X171686329Y-114597513D01*
X171686326Y-114597516D01*
X171651020Y-114640537D01*
X171616012Y-114706031D01*
X171594455Y-114777095D01*
X171587177Y-114851000D01*
X171589001Y-114869522D01*
X171589000Y-126652383D01*
X171572268Y-126654031D01*
X171350403Y-126721333D01*
X171145930Y-126830626D01*
X170966709Y-126977709D01*
X170819626Y-127156930D01*
X170710333Y-127361403D01*
X170643031Y-127583268D01*
X170640001Y-127614032D01*
X170640001Y-117195509D01*
X170641824Y-117177000D01*
X170640001Y-117158491D01*
X170640001Y-117158482D01*
X170634546Y-117103096D01*
X170612989Y-117032031D01*
X170577982Y-116966538D01*
X170530870Y-116909132D01*
X170516482Y-116897324D01*
X170503000Y-116883842D01*
X170503000Y-116783170D01*
X170480826Y-116671695D01*
X170437331Y-116566688D01*
X170374185Y-116472184D01*
X170293816Y-116391815D01*
X170199312Y-116328669D01*
X170094305Y-116285174D01*
X169982830Y-116263000D01*
X169869170Y-116263000D01*
X169803000Y-116276162D01*
X169803000Y-103909519D01*
X169804824Y-103891000D01*
X169797545Y-103817094D01*
X169775988Y-103746030D01*
X169773315Y-103741030D01*
X169740981Y-103680537D01*
X169693869Y-103623131D01*
X169679487Y-103611328D01*
X168753000Y-102684842D01*
X168753000Y-102584170D01*
X168730826Y-102472695D01*
X168687331Y-102367688D01*
X168624185Y-102273184D01*
X168543816Y-102192815D01*
X168449312Y-102129669D01*
X168344305Y-102086174D01*
X168232830Y-102064000D01*
X168119170Y-102064000D01*
X168007695Y-102086174D01*
X167902688Y-102129669D01*
X167808184Y-102192815D01*
X167727815Y-102273184D01*
X167664669Y-102367688D01*
X167621174Y-102472695D01*
X167599000Y-102584170D01*
X167599000Y-102697830D01*
X167621174Y-102809305D01*
X167664669Y-102914312D01*
X167727815Y-103008816D01*
X167808184Y-103089185D01*
X167902688Y-103152331D01*
X168007695Y-103195826D01*
X168119170Y-103218000D01*
X168219842Y-103218000D01*
X169049001Y-104047160D01*
X169049000Y-126652383D01*
X169032268Y-126654031D01*
X168810403Y-126721333D01*
X168605930Y-126830626D01*
X168426709Y-126977709D01*
X168279626Y-127156930D01*
X168170333Y-127361403D01*
X168103031Y-127583268D01*
X168080306Y-127814000D01*
X168103031Y-128044732D01*
X168170333Y-128266597D01*
X168279626Y-128471070D01*
X168426709Y-128650291D01*
X168605930Y-128797374D01*
X168810403Y-128906667D01*
X169032268Y-128973969D01*
X169048296Y-128975548D01*
X168987844Y-129036000D01*
X160449681Y-129036000D01*
X160554469Y-128879174D01*
X160635659Y-128683164D01*
X160677050Y-128475080D01*
X160677050Y-128262920D01*
X160664053Y-128197582D01*
X162300000Y-128197582D01*
X162364103Y-128191268D01*
X162425743Y-128172570D01*
X162482550Y-128142206D01*
X162532343Y-128101343D01*
X162573206Y-128051550D01*
X162603570Y-127994743D01*
X162622268Y-127933103D01*
X162628582Y-127869000D01*
X162628582Y-127814000D01*
X165540306Y-127814000D01*
X165563031Y-128044732D01*
X165630333Y-128266597D01*
X165739626Y-128471070D01*
X165886709Y-128650291D01*
X166065930Y-128797374D01*
X166270403Y-128906667D01*
X166492268Y-128973969D01*
X166665188Y-128991000D01*
X166780812Y-128991000D01*
X166953732Y-128973969D01*
X167175597Y-128906667D01*
X167380070Y-128797374D01*
X167559291Y-128650291D01*
X167706374Y-128471070D01*
X167815667Y-128266597D01*
X167882969Y-128044732D01*
X167905694Y-127814000D01*
X167882969Y-127583268D01*
X167815667Y-127361403D01*
X167706374Y-127156930D01*
X167559291Y-126977709D01*
X167380070Y-126830626D01*
X167263000Y-126768051D01*
X167263000Y-122337158D01*
X168429482Y-121170676D01*
X168443869Y-121158869D01*
X168490981Y-121101463D01*
X168525988Y-121035970D01*
X168547545Y-120964905D01*
X168553000Y-120909519D01*
X168553000Y-120909510D01*
X168554823Y-120891001D01*
X168553000Y-120872492D01*
X168553000Y-104580001D01*
X168624185Y-104508816D01*
X168687331Y-104414312D01*
X168730826Y-104309305D01*
X168753000Y-104197830D01*
X168753000Y-104084170D01*
X168730826Y-103972695D01*
X168687331Y-103867688D01*
X168624185Y-103773184D01*
X168543816Y-103692815D01*
X168449312Y-103629669D01*
X168344305Y-103586174D01*
X168232830Y-103564000D01*
X168119170Y-103564000D01*
X168007695Y-103586174D01*
X167902688Y-103629669D01*
X167808184Y-103692815D01*
X167727815Y-103773184D01*
X167664669Y-103867688D01*
X167621174Y-103972695D01*
X167599000Y-104084170D01*
X167599000Y-104197830D01*
X167621174Y-104309305D01*
X167664669Y-104414312D01*
X167727815Y-104508816D01*
X167799001Y-104580002D01*
X167799000Y-120734842D01*
X166632514Y-121901328D01*
X166618132Y-121913131D01*
X166606329Y-121927513D01*
X166606326Y-121927516D01*
X166571020Y-121970537D01*
X166536012Y-122036031D01*
X166514455Y-122107095D01*
X166507177Y-122181000D01*
X166509001Y-122199522D01*
X166509000Y-126652383D01*
X166492268Y-126654031D01*
X166270403Y-126721333D01*
X166065930Y-126830626D01*
X165886709Y-126977709D01*
X165739626Y-127156930D01*
X165630333Y-127361403D01*
X165563031Y-127583268D01*
X165540306Y-127814000D01*
X162628582Y-127814000D01*
X162628582Y-127376209D01*
X162664196Y-127365405D01*
X162738376Y-127325755D01*
X162803395Y-127272395D01*
X162816768Y-127256100D01*
X162887101Y-127185767D01*
X162903396Y-127172394D01*
X162931863Y-127137707D01*
X162956757Y-127107375D01*
X162985285Y-127054001D01*
X162996406Y-127033195D01*
X163020823Y-126952706D01*
X163027001Y-126889977D01*
X163027001Y-126889966D01*
X163029066Y-126868999D01*
X163027001Y-126848032D01*
X163027001Y-118339968D01*
X163029066Y-118319001D01*
X163027001Y-118298034D01*
X163027001Y-118298023D01*
X163020823Y-118235294D01*
X162996406Y-118154805D01*
X162975565Y-118115815D01*
X162956757Y-118080625D01*
X162916769Y-118031901D01*
X162903396Y-118015606D01*
X162887102Y-118002234D01*
X162816768Y-117931900D01*
X162803395Y-117915605D01*
X162738376Y-117862245D01*
X162664196Y-117822595D01*
X162628582Y-117811791D01*
X162628582Y-117319000D01*
X162622268Y-117254897D01*
X162603570Y-117193257D01*
X162573206Y-117136450D01*
X162532343Y-117086657D01*
X162482550Y-117045794D01*
X162425743Y-117015430D01*
X162364103Y-116996732D01*
X162300000Y-116990418D01*
X160500000Y-116990418D01*
X160435897Y-116996732D01*
X160374257Y-117015430D01*
X160317450Y-117045794D01*
X160267657Y-117086657D01*
X160226794Y-117136450D01*
X160196430Y-117193257D01*
X160177732Y-117254897D01*
X160171418Y-117319000D01*
X160171418Y-118705453D01*
X160110174Y-118664531D01*
X159914164Y-118583341D01*
X159706080Y-118541950D01*
X159493920Y-118541950D01*
X159285836Y-118583341D01*
X159089826Y-118664531D01*
X158913421Y-118782401D01*
X158763401Y-118932421D01*
X158645531Y-119108826D01*
X158564341Y-119304836D01*
X158522950Y-119512920D01*
X158522950Y-119725080D01*
X158564341Y-119933164D01*
X158586981Y-119987823D01*
X155873017Y-117273859D01*
X155920030Y-117298988D01*
X155991094Y-117320545D01*
X156065000Y-117327824D01*
X156083519Y-117326000D01*
X157688063Y-117326000D01*
X157772647Y-117530202D01*
X157906927Y-117731167D01*
X158077833Y-117902073D01*
X158278798Y-118036353D01*
X158502097Y-118128847D01*
X158739151Y-118176000D01*
X158980849Y-118176000D01*
X159217903Y-118128847D01*
X159441202Y-118036353D01*
X159642167Y-117902073D01*
X159813073Y-117731167D01*
X159947353Y-117530202D01*
X160039847Y-117306903D01*
X160087000Y-117069849D01*
X160087000Y-116828151D01*
X160039847Y-116591097D01*
X159947353Y-116367798D01*
X159813073Y-116166833D01*
X159642167Y-115995927D01*
X159631396Y-115988730D01*
X159674377Y-115965756D01*
X159739396Y-115912396D01*
X159752769Y-115896101D01*
X160193431Y-115455440D01*
X160173000Y-115558151D01*
X160173000Y-115799849D01*
X160220153Y-116036903D01*
X160312647Y-116260202D01*
X160446927Y-116461167D01*
X160617833Y-116632073D01*
X160818798Y-116766353D01*
X161042097Y-116858847D01*
X161279151Y-116906000D01*
X161520849Y-116906000D01*
X161757903Y-116858847D01*
X161981202Y-116766353D01*
X162182167Y-116632073D01*
X162353073Y-116461167D01*
X162487353Y-116260202D01*
X162579847Y-116036903D01*
X162627000Y-115799849D01*
X162627000Y-115558151D01*
X162579847Y-115321097D01*
X162487353Y-115097798D01*
X162353073Y-114896833D01*
X162182167Y-114725927D01*
X161981202Y-114591647D01*
X161757903Y-114499153D01*
X161520849Y-114452000D01*
X161279151Y-114452000D01*
X161176441Y-114472430D01*
X162151871Y-113497001D01*
X162211000Y-113497001D01*
X162232185Y-113518186D01*
X162326689Y-113581332D01*
X162431696Y-113624827D01*
X162543171Y-113647001D01*
X162656831Y-113647001D01*
X162768306Y-113624827D01*
X162873313Y-113581332D01*
X162967817Y-113518186D01*
X163048186Y-113437817D01*
X163111332Y-113343313D01*
X163154827Y-113238306D01*
X163177001Y-113126831D01*
X163177001Y-113013171D01*
X163154827Y-112901696D01*
X163111332Y-112796689D01*
X163048186Y-112702185D01*
X162967817Y-112621816D01*
X162873313Y-112558670D01*
X162768306Y-112515175D01*
X162656831Y-112493001D01*
X162571334Y-112493001D01*
X162577970Y-112490988D01*
X162643463Y-112455981D01*
X162700869Y-112408869D01*
X162712677Y-112394481D01*
X163151159Y-111956000D01*
X163251830Y-111956000D01*
X163363305Y-111933826D01*
X163468312Y-111890331D01*
X163562816Y-111827185D01*
X163643185Y-111746816D01*
X163706331Y-111652312D01*
X163749826Y-111547305D01*
X163772000Y-111435830D01*
X163772000Y-111322170D01*
X163749826Y-111210695D01*
X163706331Y-111105688D01*
X163643185Y-111011184D01*
X163562816Y-110930815D01*
X163468312Y-110867669D01*
X163363305Y-110824174D01*
X163251830Y-110802000D01*
X163138170Y-110802000D01*
X163026695Y-110824174D01*
X162921688Y-110867669D01*
X162827184Y-110930815D01*
X162746815Y-111011184D01*
X162683669Y-111105688D01*
X162640174Y-111210695D01*
X162618000Y-111322170D01*
X162618000Y-111422841D01*
X162276842Y-111764000D01*
X160199176Y-111764000D01*
X160286579Y-111705599D01*
X160436599Y-111555579D01*
X160554469Y-111379174D01*
X160635659Y-111183164D01*
X160677050Y-110975080D01*
X160677050Y-110762920D01*
X160664053Y-110697582D01*
X162300000Y-110697582D01*
X162364103Y-110691268D01*
X162425743Y-110672570D01*
X162482550Y-110642206D01*
X162532343Y-110601343D01*
X162573206Y-110551550D01*
X162603570Y-110494743D01*
X162622268Y-110433103D01*
X162628582Y-110369000D01*
X162628582Y-108569000D01*
X162622268Y-108504897D01*
X162603570Y-108443257D01*
X162573206Y-108386450D01*
X162532343Y-108336657D01*
X162482550Y-108295794D01*
X162425743Y-108265430D01*
X162364103Y-108246732D01*
X162300000Y-108240418D01*
X160500000Y-108240418D01*
X160435897Y-108246732D01*
X160374257Y-108265430D01*
X160317450Y-108295794D01*
X160267657Y-108336657D01*
X160226794Y-108386450D01*
X160196430Y-108443257D01*
X160177732Y-108504897D01*
X160171418Y-108569000D01*
X160171418Y-109955453D01*
X160110174Y-109914531D01*
X159914164Y-109833341D01*
X159706080Y-109791950D01*
X159493920Y-109791950D01*
X159285836Y-109833341D01*
X159089826Y-109914531D01*
X158913421Y-110032401D01*
X158763401Y-110182421D01*
X158645531Y-110358826D01*
X158564341Y-110554836D01*
X158522950Y-110762920D01*
X158522950Y-110975080D01*
X158564341Y-111183164D01*
X158645531Y-111379174D01*
X158763401Y-111555579D01*
X158913421Y-111705599D01*
X159036800Y-111788038D01*
X159026997Y-111791012D01*
X158961504Y-111826019D01*
X158904098Y-111873131D01*
X158892295Y-111887513D01*
X155023534Y-115756275D01*
X154922862Y-115756275D01*
X154811387Y-115778449D01*
X154706380Y-115821944D01*
X154694269Y-115830036D01*
X154653312Y-115802669D01*
X154548305Y-115759174D01*
X154436830Y-115737000D01*
X154356999Y-115737000D01*
X154356999Y-114732892D01*
X154424984Y-114719369D01*
X154529991Y-114675874D01*
X154624495Y-114612728D01*
X154704864Y-114532359D01*
X154768010Y-114437855D01*
X154811505Y-114332848D01*
X154833679Y-114221373D01*
X154833679Y-114120701D01*
X155035018Y-113919362D01*
X155347815Y-113919362D01*
X155347815Y-114033022D01*
X155369989Y-114144497D01*
X155413484Y-114249504D01*
X155476630Y-114344008D01*
X155556999Y-114424377D01*
X155651503Y-114487523D01*
X155756510Y-114531018D01*
X155867985Y-114553192D01*
X155981645Y-114553192D01*
X156093120Y-114531018D01*
X156198127Y-114487523D01*
X156292631Y-114424377D01*
X156373000Y-114344008D01*
X156436146Y-114249504D01*
X156479641Y-114144497D01*
X156501815Y-114033022D01*
X156501815Y-113919362D01*
X156479641Y-113807887D01*
X156436146Y-113702880D01*
X156373000Y-113608376D01*
X156292631Y-113528007D01*
X156198127Y-113464861D01*
X156093120Y-113421366D01*
X155981645Y-113399192D01*
X155867985Y-113399192D01*
X155756510Y-113421366D01*
X155651503Y-113464861D01*
X155556999Y-113528007D01*
X155476630Y-113608376D01*
X155413484Y-113702880D01*
X155369989Y-113807887D01*
X155347815Y-113919362D01*
X155035018Y-113919362D01*
X155904048Y-113050333D01*
X155918430Y-113038530D01*
X155965542Y-112981124D01*
X156000549Y-112915631D01*
X156004776Y-112901696D01*
X156022106Y-112844567D01*
X156029385Y-112770661D01*
X156027561Y-112752142D01*
X156027561Y-112094597D01*
X156469481Y-111652677D01*
X156483869Y-111640869D01*
X156530981Y-111583463D01*
X156565988Y-111517970D01*
X156587545Y-111446905D01*
X156593000Y-111391519D01*
X156594824Y-111373000D01*
X156593000Y-111354481D01*
X156593000Y-110791622D01*
X156614529Y-110765389D01*
X156658822Y-110682523D01*
X156686097Y-110592608D01*
X156693000Y-110522523D01*
X156693000Y-110482492D01*
X156695306Y-110459077D01*
X156693000Y-110435662D01*
X156693000Y-110435655D01*
X156686097Y-110365570D01*
X156684354Y-110359823D01*
X156658822Y-110275654D01*
X156614529Y-110192788D01*
X156569852Y-110138349D01*
X156569850Y-110138347D01*
X156554921Y-110120156D01*
X156536729Y-110105226D01*
X155781168Y-109349666D01*
X155777324Y-109345822D01*
X155765268Y-109285214D01*
X155721773Y-109180207D01*
X155658627Y-109085703D01*
X155578258Y-109005334D01*
X155483754Y-108942188D01*
X155378747Y-108898693D01*
X155267272Y-108876519D01*
X155153612Y-108876519D01*
X155042137Y-108898693D01*
X154937130Y-108942188D01*
X154842626Y-109005334D01*
X154762257Y-109085703D01*
X154699111Y-109180207D01*
X154655616Y-109285214D01*
X154633442Y-109396689D01*
X154633442Y-109510349D01*
X154655616Y-109621824D01*
X154699111Y-109726831D01*
X154762257Y-109821335D01*
X154842626Y-109901704D01*
X154937130Y-109964850D01*
X155042137Y-110008345D01*
X155102745Y-110020401D01*
X155106589Y-110024245D01*
X155782723Y-110700380D01*
X155817471Y-110765389D01*
X155839000Y-110791622D01*
X155839001Y-111216841D01*
X155397080Y-111658762D01*
X155382692Y-111670570D01*
X155335580Y-111727977D01*
X155313409Y-111769456D01*
X155300573Y-111793470D01*
X155279016Y-111864534D01*
X155278259Y-111872218D01*
X155273561Y-111919921D01*
X155273561Y-111919927D01*
X155271738Y-111938439D01*
X155273561Y-111956951D01*
X155273562Y-112614501D01*
X154300521Y-113587543D01*
X154213759Y-113587543D01*
X154165598Y-113548018D01*
X154100105Y-113513011D01*
X154029040Y-113491454D01*
X153973654Y-113485999D01*
X153973647Y-113485999D01*
X153955135Y-113484176D01*
X153936623Y-113485999D01*
X149454620Y-113485999D01*
X149436101Y-113484175D01*
X149362195Y-113491454D01*
X149291131Y-113513011D01*
X149225638Y-113548018D01*
X149225636Y-113548019D01*
X149225637Y-113548019D01*
X149190994Y-113576450D01*
X149168232Y-113595130D01*
X149156429Y-113609512D01*
X148819842Y-113946100D01*
X148719170Y-113946100D01*
X148607695Y-113968274D01*
X148502688Y-114011769D01*
X148408184Y-114074915D01*
X148327815Y-114155284D01*
X148264669Y-114249788D01*
X148221174Y-114354795D01*
X148199000Y-114466270D01*
X148199000Y-114579930D01*
X148221174Y-114691405D01*
X148264669Y-114796412D01*
X148327815Y-114890916D01*
X148408184Y-114971285D01*
X148502688Y-115034431D01*
X148607695Y-115077926D01*
X148719170Y-115100100D01*
X148832830Y-115100100D01*
X148944305Y-115077926D01*
X149049312Y-115034431D01*
X149143816Y-114971285D01*
X149224185Y-114890916D01*
X149287331Y-114796412D01*
X149330826Y-114691405D01*
X149353000Y-114579930D01*
X149353000Y-114479258D01*
X149592260Y-114239999D01*
X153660081Y-114239999D01*
X153630011Y-114296254D01*
X153608454Y-114367318D01*
X153601176Y-114441223D01*
X153603000Y-114459745D01*
X153602999Y-116487489D01*
X153601176Y-116506001D01*
X153602999Y-116524513D01*
X153602999Y-116524519D01*
X153604892Y-116543738D01*
X153608454Y-116579906D01*
X153627542Y-116642830D01*
X153628532Y-116646095D01*
X153540133Y-116682711D01*
X153445629Y-116745857D01*
X153424444Y-116767042D01*
X151262237Y-116767042D01*
X151203312Y-116727669D01*
X151098305Y-116684174D01*
X150986830Y-116662000D01*
X150873170Y-116662000D01*
X150761695Y-116684174D01*
X150656688Y-116727669D01*
X150562184Y-116790815D01*
X150540999Y-116812000D01*
X148681324Y-116812000D01*
X148600182Y-116757782D01*
X148495175Y-116714287D01*
X148383700Y-116692113D01*
X148270040Y-116692113D01*
X148158565Y-116714287D01*
X148053558Y-116757782D01*
X147959054Y-116820928D01*
X147937869Y-116842113D01*
X143980982Y-116842113D01*
X142182000Y-115043132D01*
X142182000Y-115013170D01*
X142159826Y-114901695D01*
X142116331Y-114796688D01*
X142053185Y-114702184D01*
X141972816Y-114621815D01*
X141878312Y-114558669D01*
X141773305Y-114515174D01*
X141661830Y-114493000D01*
X141631868Y-114493000D01*
X141510768Y-114371900D01*
X141497395Y-114355605D01*
X141432376Y-114302245D01*
X141358196Y-114262595D01*
X141277707Y-114238178D01*
X141214978Y-114232000D01*
X141214967Y-114232000D01*
X141194000Y-114229935D01*
X141173033Y-114232000D01*
X136125436Y-114232000D01*
X136170174Y-114213469D01*
X136346579Y-114095599D01*
X136496599Y-113945579D01*
X136614469Y-113769174D01*
X136695659Y-113573164D01*
X136737050Y-113365080D01*
X136737050Y-113152920D01*
X136695659Y-112944836D01*
X136614469Y-112748826D01*
X136499924Y-112577397D01*
X139944000Y-112577397D01*
X139944000Y-112720603D01*
X139971938Y-112861058D01*
X140026741Y-112993364D01*
X140106302Y-113112436D01*
X140207564Y-113213698D01*
X140326636Y-113293259D01*
X140458942Y-113348062D01*
X140599397Y-113376000D01*
X140742603Y-113376000D01*
X140883058Y-113348062D01*
X141015364Y-113293259D01*
X141134436Y-113213698D01*
X141235698Y-113112436D01*
X141315259Y-112993364D01*
X141370062Y-112861058D01*
X141398000Y-112720603D01*
X141398000Y-112577397D01*
X141370062Y-112436942D01*
X141315259Y-112304636D01*
X141235698Y-112185564D01*
X141134436Y-112084302D01*
X141015364Y-112004741D01*
X140883058Y-111949938D01*
X140742603Y-111922000D01*
X140599397Y-111922000D01*
X140458942Y-111949938D01*
X140326636Y-112004741D01*
X140207564Y-112084302D01*
X140106302Y-112185564D01*
X140026741Y-112304636D01*
X139971938Y-112436942D01*
X139944000Y-112577397D01*
X136499924Y-112577397D01*
X136496599Y-112572421D01*
X136346579Y-112422401D01*
X136170174Y-112304531D01*
X135974164Y-112223341D01*
X135766080Y-112181950D01*
X135553920Y-112181950D01*
X135345836Y-112223341D01*
X135149826Y-112304531D01*
X134973421Y-112422401D01*
X134823401Y-112572421D01*
X134705531Y-112748826D01*
X134624341Y-112944836D01*
X134582950Y-113152920D01*
X134582950Y-113365080D01*
X134595947Y-113430418D01*
X132960000Y-113430418D01*
X132895897Y-113436732D01*
X132834257Y-113455430D01*
X132777450Y-113485794D01*
X132727657Y-113526657D01*
X132686794Y-113576450D01*
X132656430Y-113633257D01*
X132637732Y-113694897D01*
X132631418Y-113759000D01*
X131847000Y-113759000D01*
X131847000Y-111302806D01*
X146508364Y-111302806D01*
X146508364Y-111416466D01*
X146530538Y-111527941D01*
X146574033Y-111632948D01*
X146637179Y-111727452D01*
X146717548Y-111807821D01*
X146812052Y-111870967D01*
X146917059Y-111914462D01*
X147028534Y-111936636D01*
X147142194Y-111936636D01*
X147253669Y-111914462D01*
X147358676Y-111870967D01*
X147453180Y-111807821D01*
X147533549Y-111727452D01*
X147556718Y-111692778D01*
X149191002Y-111692778D01*
X149262187Y-111763963D01*
X149356691Y-111827109D01*
X149461698Y-111870604D01*
X149573173Y-111892778D01*
X149686833Y-111892778D01*
X149798308Y-111870604D01*
X149903315Y-111827109D01*
X149997819Y-111763963D01*
X150078188Y-111683594D01*
X150141334Y-111589090D01*
X150184829Y-111484083D01*
X150207003Y-111372608D01*
X150207003Y-111258948D01*
X150184829Y-111147473D01*
X150141334Y-111042466D01*
X150078188Y-110947962D01*
X149997819Y-110867593D01*
X149903315Y-110804447D01*
X149798308Y-110760952D01*
X149686833Y-110738778D01*
X149573173Y-110738778D01*
X149461698Y-110760952D01*
X149356691Y-110804447D01*
X149262187Y-110867593D01*
X149191002Y-110938778D01*
X147480507Y-110938778D01*
X147453180Y-110911451D01*
X147358676Y-110848305D01*
X147253669Y-110804810D01*
X147142194Y-110782636D01*
X147028534Y-110782636D01*
X146917059Y-110804810D01*
X146812052Y-110848305D01*
X146717548Y-110911451D01*
X146637179Y-110991820D01*
X146574033Y-111086324D01*
X146530538Y-111191331D01*
X146508364Y-111302806D01*
X131847000Y-111302806D01*
X131847000Y-110783080D01*
X135515525Y-110783080D01*
X135599208Y-111037261D01*
X135871775Y-111168158D01*
X136164642Y-111243365D01*
X136466553Y-111259991D01*
X136765907Y-111217397D01*
X137051199Y-111117222D01*
X137200792Y-111037261D01*
X137284475Y-110783080D01*
X136400000Y-109898605D01*
X135515525Y-110783080D01*
X131847000Y-110783080D01*
X131847000Y-109785553D01*
X134859009Y-109785553D01*
X134901603Y-110084907D01*
X135001778Y-110370199D01*
X135081739Y-110519792D01*
X135335920Y-110603475D01*
X136220395Y-109719000D01*
X136579605Y-109719000D01*
X137464080Y-110603475D01*
X137718261Y-110519792D01*
X137849158Y-110247225D01*
X137924365Y-109954358D01*
X137940991Y-109652447D01*
X137898397Y-109353093D01*
X137879499Y-109299270D01*
X148527000Y-109299270D01*
X148527000Y-109412930D01*
X148549174Y-109524405D01*
X148592669Y-109629412D01*
X148655815Y-109723916D01*
X148736184Y-109804285D01*
X148830688Y-109867431D01*
X148935695Y-109910926D01*
X149047170Y-109933100D01*
X149160830Y-109933100D01*
X149272305Y-109910926D01*
X149368617Y-109871033D01*
X149517824Y-110020241D01*
X149531189Y-110036526D01*
X149547473Y-110049890D01*
X149547482Y-110049899D01*
X149596207Y-110089886D01*
X149632134Y-110109089D01*
X149670388Y-110129536D01*
X149750877Y-110153953D01*
X149813606Y-110160131D01*
X149813618Y-110160131D01*
X149834583Y-110162196D01*
X149855548Y-110160131D01*
X152708133Y-110160131D01*
X152708134Y-110621068D01*
X151904988Y-110621068D01*
X151883803Y-110599883D01*
X151789299Y-110536737D01*
X151684292Y-110493242D01*
X151572817Y-110471068D01*
X151459157Y-110471068D01*
X151347682Y-110493242D01*
X151242675Y-110536737D01*
X151148171Y-110599883D01*
X151067802Y-110680252D01*
X151004656Y-110774756D01*
X150961161Y-110879763D01*
X150938987Y-110991238D01*
X150938987Y-111104898D01*
X150961161Y-111216373D01*
X151004656Y-111321380D01*
X151067802Y-111415884D01*
X151148171Y-111496253D01*
X151242675Y-111559399D01*
X151347682Y-111602894D01*
X151459157Y-111625068D01*
X151572817Y-111625068D01*
X151684292Y-111602894D01*
X151789299Y-111559399D01*
X151883803Y-111496253D01*
X151904988Y-111475068D01*
X152958265Y-111475068D01*
X153405979Y-111922783D01*
X153405979Y-111952744D01*
X153428153Y-112064219D01*
X153471648Y-112169226D01*
X153534794Y-112263730D01*
X153615163Y-112344099D01*
X153709667Y-112407245D01*
X153814674Y-112450740D01*
X153926149Y-112472914D01*
X154039809Y-112472914D01*
X154151284Y-112450740D01*
X154256291Y-112407245D01*
X154350795Y-112344099D01*
X154431164Y-112263730D01*
X154494310Y-112169226D01*
X154537805Y-112064219D01*
X154559979Y-111952744D01*
X154559979Y-111839084D01*
X154537805Y-111727609D01*
X154494310Y-111622602D01*
X154431164Y-111528098D01*
X154350795Y-111447729D01*
X154256291Y-111384583D01*
X154151284Y-111341088D01*
X154039809Y-111318914D01*
X154009848Y-111318914D01*
X153562133Y-110871200D01*
X153562133Y-109909999D01*
X154007105Y-109465028D01*
X154023395Y-109451659D01*
X154036764Y-109435369D01*
X154036768Y-109435365D01*
X154076755Y-109386641D01*
X154102120Y-109339185D01*
X154116405Y-109312460D01*
X154140822Y-109231971D01*
X154145419Y-109185293D01*
X154207023Y-109123689D01*
X154275640Y-109020996D01*
X154322905Y-108906889D01*
X154347000Y-108785754D01*
X154347000Y-108662246D01*
X154322905Y-108541111D01*
X154275640Y-108427004D01*
X154207023Y-108324311D01*
X154119689Y-108236977D01*
X154016996Y-108168360D01*
X153902889Y-108121095D01*
X153781754Y-108097000D01*
X153658246Y-108097000D01*
X153537111Y-108121095D01*
X153423004Y-108168360D01*
X153320311Y-108236977D01*
X153232977Y-108324311D01*
X153164360Y-108427004D01*
X153117095Y-108541111D01*
X153093000Y-108662246D01*
X153093000Y-108785754D01*
X153117095Y-108906889D01*
X153164360Y-109020996D01*
X153196019Y-109068377D01*
X152958265Y-109306131D01*
X150011453Y-109306131D01*
X149774321Y-109068999D01*
X149760948Y-109052705D01*
X149695929Y-108999345D01*
X149621749Y-108959695D01*
X149541260Y-108935278D01*
X149494582Y-108930681D01*
X149471816Y-108907915D01*
X149377312Y-108844769D01*
X149272305Y-108801274D01*
X149160830Y-108779100D01*
X149047170Y-108779100D01*
X148935695Y-108801274D01*
X148830688Y-108844769D01*
X148736184Y-108907915D01*
X148655815Y-108988284D01*
X148592669Y-109082788D01*
X148549174Y-109187795D01*
X148527000Y-109299270D01*
X137879499Y-109299270D01*
X137798222Y-109067801D01*
X137718261Y-108918208D01*
X137464080Y-108834525D01*
X136579605Y-109719000D01*
X136220395Y-109719000D01*
X135335920Y-108834525D01*
X135081739Y-108918208D01*
X134950842Y-109190775D01*
X134875635Y-109483642D01*
X134859009Y-109785553D01*
X131847000Y-109785553D01*
X131847000Y-108328151D01*
X132633000Y-108328151D01*
X132633000Y-108569849D01*
X132680153Y-108806903D01*
X132772647Y-109030202D01*
X132906927Y-109231167D01*
X133077833Y-109402073D01*
X133278798Y-109536353D01*
X133502097Y-109628847D01*
X133739151Y-109676000D01*
X133980849Y-109676000D01*
X134217903Y-109628847D01*
X134441202Y-109536353D01*
X134642167Y-109402073D01*
X134813073Y-109231167D01*
X134947353Y-109030202D01*
X135039847Y-108806903D01*
X135087000Y-108569849D01*
X135087000Y-108328151D01*
X135039847Y-108091097D01*
X134947353Y-107867798D01*
X134813073Y-107666833D01*
X134642167Y-107495927D01*
X134441202Y-107361647D01*
X134217903Y-107269153D01*
X133980849Y-107222000D01*
X133739151Y-107222000D01*
X133502097Y-107269153D01*
X133278798Y-107361647D01*
X133077833Y-107495927D01*
X132906927Y-107666833D01*
X132772647Y-107867798D01*
X132680153Y-108091097D01*
X132633000Y-108328151D01*
X131847000Y-108328151D01*
X131847000Y-105009000D01*
X132631418Y-105009000D01*
X132631418Y-106809000D01*
X132637732Y-106873103D01*
X132656430Y-106934743D01*
X132686794Y-106991550D01*
X132727657Y-107041343D01*
X132777450Y-107082206D01*
X132834257Y-107112570D01*
X132895897Y-107131268D01*
X132960000Y-107137582D01*
X134760000Y-107137582D01*
X134824103Y-107131268D01*
X134885743Y-107112570D01*
X134942550Y-107082206D01*
X134971861Y-107058151D01*
X135173000Y-107058151D01*
X135173000Y-107299849D01*
X135220153Y-107536903D01*
X135312647Y-107760202D01*
X135446927Y-107961167D01*
X135617833Y-108132073D01*
X135818798Y-108266353D01*
X135857796Y-108282507D01*
X135748801Y-108320778D01*
X135599208Y-108400739D01*
X135515525Y-108654920D01*
X136400000Y-109539395D01*
X137284475Y-108654920D01*
X137200792Y-108400739D01*
X136948858Y-108279751D01*
X136981202Y-108266353D01*
X137182167Y-108132073D01*
X137236089Y-108078151D01*
X157633000Y-108078151D01*
X157633000Y-108319849D01*
X157680153Y-108556903D01*
X157772647Y-108780202D01*
X157906927Y-108981167D01*
X158077833Y-109152073D01*
X158278798Y-109286353D01*
X158502097Y-109378847D01*
X158739151Y-109426000D01*
X158980849Y-109426000D01*
X159217903Y-109378847D01*
X159441202Y-109286353D01*
X159642167Y-109152073D01*
X159813073Y-108981167D01*
X159947353Y-108780202D01*
X160039847Y-108556903D01*
X160087000Y-108319849D01*
X160087000Y-108078151D01*
X160039847Y-107841097D01*
X159947353Y-107617798D01*
X159813073Y-107416833D01*
X159642167Y-107245927D01*
X159441202Y-107111647D01*
X159402204Y-107095493D01*
X159511199Y-107057222D01*
X159660792Y-106977261D01*
X159716467Y-106808151D01*
X160173000Y-106808151D01*
X160173000Y-107049849D01*
X160220153Y-107286903D01*
X160312647Y-107510202D01*
X160446927Y-107711167D01*
X160617833Y-107882073D01*
X160818798Y-108016353D01*
X161042097Y-108108847D01*
X161279151Y-108156000D01*
X161520849Y-108156000D01*
X161757903Y-108108847D01*
X161981202Y-108016353D01*
X162182167Y-107882073D01*
X162353073Y-107711167D01*
X162487353Y-107510202D01*
X162579847Y-107286903D01*
X162627000Y-107049849D01*
X162627000Y-106808151D01*
X162579847Y-106571097D01*
X162487353Y-106347798D01*
X162353073Y-106146833D01*
X162182167Y-105975927D01*
X161981202Y-105841647D01*
X161757903Y-105749153D01*
X161520849Y-105702000D01*
X161279151Y-105702000D01*
X161042097Y-105749153D01*
X160818798Y-105841647D01*
X160617833Y-105975927D01*
X160446927Y-106146833D01*
X160312647Y-106347798D01*
X160220153Y-106571097D01*
X160173000Y-106808151D01*
X159716467Y-106808151D01*
X159744475Y-106723080D01*
X158860000Y-105838605D01*
X157975525Y-106723080D01*
X158059208Y-106977261D01*
X158311142Y-107098249D01*
X158278798Y-107111647D01*
X158077833Y-107245927D01*
X157906927Y-107416833D01*
X157772647Y-107617798D01*
X157680153Y-107841097D01*
X157633000Y-108078151D01*
X137236089Y-108078151D01*
X137353073Y-107961167D01*
X137487353Y-107760202D01*
X137579847Y-107536903D01*
X137627000Y-107299849D01*
X137627000Y-107058151D01*
X137579847Y-106821097D01*
X137487353Y-106597798D01*
X137353073Y-106396833D01*
X137182167Y-106225927D01*
X136981202Y-106091647D01*
X136757903Y-105999153D01*
X136520849Y-105952000D01*
X136279151Y-105952000D01*
X136042097Y-105999153D01*
X135818798Y-106091647D01*
X135617833Y-106225927D01*
X135446927Y-106396833D01*
X135312647Y-106597798D01*
X135220153Y-106821097D01*
X135173000Y-107058151D01*
X134971861Y-107058151D01*
X134992343Y-107041343D01*
X135033206Y-106991550D01*
X135063570Y-106934743D01*
X135082268Y-106873103D01*
X135088582Y-106809000D01*
X135088582Y-105422547D01*
X135149826Y-105463469D01*
X135345836Y-105544659D01*
X135553920Y-105586050D01*
X135766080Y-105586050D01*
X135974164Y-105544659D01*
X136170174Y-105463469D01*
X136346579Y-105345599D01*
X136496599Y-105195579D01*
X136614469Y-105019174D01*
X136695659Y-104823164D01*
X136737050Y-104615080D01*
X136737050Y-104402920D01*
X136695659Y-104194836D01*
X136614469Y-103998826D01*
X136496599Y-103822421D01*
X136346579Y-103672401D01*
X136170174Y-103554531D01*
X135974164Y-103473341D01*
X135766080Y-103431950D01*
X135553920Y-103431950D01*
X135345836Y-103473341D01*
X135149826Y-103554531D01*
X134973421Y-103672401D01*
X134823401Y-103822421D01*
X134705531Y-103998826D01*
X134624341Y-104194836D01*
X134582950Y-104402920D01*
X134582950Y-104615080D01*
X134595947Y-104680418D01*
X132960000Y-104680418D01*
X132895897Y-104686732D01*
X132834257Y-104705430D01*
X132777450Y-104735794D01*
X132727657Y-104776657D01*
X132686794Y-104826450D01*
X132656430Y-104883257D01*
X132637732Y-104944897D01*
X132631418Y-105009000D01*
X131847000Y-105009000D01*
X131847000Y-102822270D01*
X146749000Y-102822270D01*
X146749000Y-102935930D01*
X146771174Y-103047405D01*
X146814669Y-103152412D01*
X146877815Y-103246916D01*
X146958184Y-103327285D01*
X147052688Y-103390431D01*
X147157695Y-103433926D01*
X147269170Y-103456100D01*
X147382830Y-103456100D01*
X147494305Y-103433926D01*
X147599312Y-103390431D01*
X147693816Y-103327285D01*
X147774185Y-103246916D01*
X147784000Y-103232226D01*
X147784001Y-105964255D01*
X147781935Y-105985232D01*
X147784001Y-106006209D01*
X147784001Y-106006210D01*
X147790179Y-106068939D01*
X147797068Y-106091647D01*
X147814596Y-106149428D01*
X147854245Y-106223608D01*
X147894232Y-106272332D01*
X147894237Y-106272337D01*
X147907606Y-106288627D01*
X147923895Y-106301995D01*
X148497074Y-106875175D01*
X148497074Y-106905136D01*
X148519248Y-107016611D01*
X148562743Y-107121618D01*
X148625889Y-107216122D01*
X148706258Y-107296491D01*
X148800762Y-107359637D01*
X148905769Y-107403132D01*
X149017244Y-107425306D01*
X149130904Y-107425306D01*
X149242379Y-107403132D01*
X149347386Y-107359637D01*
X149441890Y-107296491D01*
X149522259Y-107216122D01*
X149585405Y-107121618D01*
X149628900Y-107016611D01*
X149651074Y-106905136D01*
X149651074Y-106791476D01*
X149628900Y-106680001D01*
X149585405Y-106574994D01*
X149522259Y-106480490D01*
X149441890Y-106400121D01*
X149347386Y-106336975D01*
X149242379Y-106293480D01*
X149130904Y-106271306D01*
X149100943Y-106271306D01*
X148638000Y-105808364D01*
X148638000Y-105725553D01*
X157319009Y-105725553D01*
X157361603Y-106024907D01*
X157461778Y-106310199D01*
X157541739Y-106459792D01*
X157795920Y-106543475D01*
X158680395Y-105659000D01*
X159039605Y-105659000D01*
X159924080Y-106543475D01*
X160178261Y-106459792D01*
X160309158Y-106187225D01*
X160384365Y-105894358D01*
X160400991Y-105592447D01*
X160358397Y-105293093D01*
X160258222Y-105007801D01*
X160178261Y-104858208D01*
X159924080Y-104774525D01*
X159039605Y-105659000D01*
X158680395Y-105659000D01*
X157795920Y-104774525D01*
X157541739Y-104858208D01*
X157410842Y-105130775D01*
X157335635Y-105423642D01*
X157319009Y-105725553D01*
X148638000Y-105725553D01*
X148638000Y-104594920D01*
X157975525Y-104594920D01*
X158860000Y-105479395D01*
X159744475Y-104594920D01*
X159660792Y-104340739D01*
X159388225Y-104209842D01*
X159095358Y-104134635D01*
X158793447Y-104118009D01*
X158494093Y-104160603D01*
X158208801Y-104260778D01*
X158059208Y-104340739D01*
X157975525Y-104594920D01*
X148638000Y-104594920D01*
X148638000Y-102262101D01*
X148659185Y-102240916D01*
X148690874Y-102193491D01*
X148707814Y-102204810D01*
X148812821Y-102248305D01*
X148924296Y-102270479D01*
X149037956Y-102270479D01*
X149149431Y-102248305D01*
X149254438Y-102204810D01*
X149348942Y-102141664D01*
X149429311Y-102061295D01*
X149492457Y-101966791D01*
X149535952Y-101861784D01*
X149558126Y-101750309D01*
X149558126Y-101636649D01*
X149535952Y-101525174D01*
X149492457Y-101420167D01*
X149429311Y-101325663D01*
X149348942Y-101245294D01*
X149254438Y-101182148D01*
X149149431Y-101138653D01*
X149037956Y-101116479D01*
X148924296Y-101116479D01*
X148812821Y-101138653D01*
X148707814Y-101182148D01*
X148670285Y-101207225D01*
X148656485Y-101193425D01*
X148613464Y-101158119D01*
X148547970Y-101123111D01*
X148476906Y-101101554D01*
X148403001Y-101094276D01*
X148329096Y-101101554D01*
X148258032Y-101123111D01*
X148192538Y-101158119D01*
X148135132Y-101205230D01*
X148088021Y-101262636D01*
X148060136Y-101314805D01*
X148042695Y-101318274D01*
X147937688Y-101361769D01*
X147843184Y-101424915D01*
X147762815Y-101505284D01*
X147699669Y-101599788D01*
X147656174Y-101704795D01*
X147634000Y-101816270D01*
X147634000Y-101929930D01*
X147656174Y-102041405D01*
X147699669Y-102146412D01*
X147762815Y-102240916D01*
X147784000Y-102262101D01*
X147784000Y-102525973D01*
X147774185Y-102511284D01*
X147693816Y-102430915D01*
X147599312Y-102367769D01*
X147494305Y-102324274D01*
X147382830Y-102302100D01*
X147269170Y-102302100D01*
X147157695Y-102324274D01*
X147052688Y-102367769D01*
X146958184Y-102430915D01*
X146877815Y-102511284D01*
X146814669Y-102605788D01*
X146771174Y-102710795D01*
X146749000Y-102822270D01*
X131847000Y-102822270D01*
X131847000Y-102033080D01*
X135513525Y-102033080D01*
X135597208Y-102287261D01*
X135869775Y-102418158D01*
X136162642Y-102493365D01*
X136464553Y-102509991D01*
X136763907Y-102467397D01*
X137049199Y-102367222D01*
X137198792Y-102287261D01*
X137282475Y-102033080D01*
X136398000Y-101148605D01*
X135513525Y-102033080D01*
X131847000Y-102033080D01*
X131847000Y-101035553D01*
X134857009Y-101035553D01*
X134899603Y-101334907D01*
X134999778Y-101620199D01*
X135079739Y-101769792D01*
X135333920Y-101853475D01*
X136218395Y-100969000D01*
X136577605Y-100969000D01*
X137462080Y-101853475D01*
X137716261Y-101769792D01*
X137847158Y-101497225D01*
X137922365Y-101204358D01*
X137938991Y-100902447D01*
X137896397Y-100603093D01*
X137796222Y-100317801D01*
X137716261Y-100168208D01*
X137462080Y-100084525D01*
X136577605Y-100969000D01*
X136218395Y-100969000D01*
X135333920Y-100084525D01*
X135079739Y-100168208D01*
X134948842Y-100440775D01*
X134873635Y-100733642D01*
X134857009Y-101035553D01*
X131847000Y-101035553D01*
X131847000Y-99578151D01*
X132631000Y-99578151D01*
X132631000Y-99819849D01*
X132678153Y-100056903D01*
X132770647Y-100280202D01*
X132904927Y-100481167D01*
X133075833Y-100652073D01*
X133276798Y-100786353D01*
X133500097Y-100878847D01*
X133737151Y-100926000D01*
X133978849Y-100926000D01*
X134215903Y-100878847D01*
X134439202Y-100786353D01*
X134640167Y-100652073D01*
X134811073Y-100481167D01*
X134945353Y-100280202D01*
X135037847Y-100056903D01*
X135085000Y-99819849D01*
X135085000Y-99578151D01*
X135037847Y-99341097D01*
X134945353Y-99117798D01*
X134811073Y-98916833D01*
X134640167Y-98745927D01*
X134439202Y-98611647D01*
X134215903Y-98519153D01*
X133978849Y-98472000D01*
X133737151Y-98472000D01*
X133500097Y-98519153D01*
X133276798Y-98611647D01*
X133075833Y-98745927D01*
X132904927Y-98916833D01*
X132770647Y-99117798D01*
X132678153Y-99341097D01*
X132631000Y-99578151D01*
X131847000Y-99578151D01*
X131847000Y-96259000D01*
X132629418Y-96259000D01*
X132629418Y-98059000D01*
X132635732Y-98123103D01*
X132654430Y-98184743D01*
X132684794Y-98241550D01*
X132725657Y-98291343D01*
X132775450Y-98332206D01*
X132832257Y-98362570D01*
X132893897Y-98381268D01*
X132958000Y-98387582D01*
X134758000Y-98387582D01*
X134822103Y-98381268D01*
X134883743Y-98362570D01*
X134940550Y-98332206D01*
X134969861Y-98308151D01*
X135171000Y-98308151D01*
X135171000Y-98549849D01*
X135218153Y-98786903D01*
X135310647Y-99010202D01*
X135444927Y-99211167D01*
X135615833Y-99382073D01*
X135816798Y-99516353D01*
X135855796Y-99532507D01*
X135746801Y-99570778D01*
X135597208Y-99650739D01*
X135513525Y-99904920D01*
X136398000Y-100789395D01*
X137282475Y-99904920D01*
X137198792Y-99650739D01*
X136946858Y-99529751D01*
X136979202Y-99516353D01*
X137180167Y-99382073D01*
X137351073Y-99211167D01*
X137485353Y-99010202D01*
X137577847Y-98786903D01*
X137625000Y-98549849D01*
X137625000Y-98308151D01*
X137577847Y-98071097D01*
X137485353Y-97847798D01*
X137351073Y-97646833D01*
X137180167Y-97475927D01*
X136979202Y-97341647D01*
X136755903Y-97249153D01*
X136518849Y-97202000D01*
X136277151Y-97202000D01*
X136040097Y-97249153D01*
X135816798Y-97341647D01*
X135615833Y-97475927D01*
X135444927Y-97646833D01*
X135310647Y-97847798D01*
X135218153Y-98071097D01*
X135171000Y-98308151D01*
X134969861Y-98308151D01*
X134990343Y-98291343D01*
X135031206Y-98241550D01*
X135061570Y-98184743D01*
X135080268Y-98123103D01*
X135086582Y-98059000D01*
X135086582Y-96672547D01*
X135147826Y-96713469D01*
X135343836Y-96794659D01*
X135551920Y-96836050D01*
X135764080Y-96836050D01*
X135972164Y-96794659D01*
X136168174Y-96713469D01*
X136344579Y-96595599D01*
X136494599Y-96445579D01*
X136612469Y-96269174D01*
X136693659Y-96073164D01*
X136735050Y-95865080D01*
X136735050Y-95652920D01*
X136693659Y-95444836D01*
X136612469Y-95248826D01*
X136494599Y-95072421D01*
X136344579Y-94922401D01*
X136168174Y-94804531D01*
X135972164Y-94723341D01*
X135764080Y-94681950D01*
X135551920Y-94681950D01*
X135343836Y-94723341D01*
X135147826Y-94804531D01*
X134971421Y-94922401D01*
X134821401Y-95072421D01*
X134703531Y-95248826D01*
X134622341Y-95444836D01*
X134580950Y-95652920D01*
X134580950Y-95865080D01*
X134593947Y-95930418D01*
X132958000Y-95930418D01*
X132893897Y-95936732D01*
X132832257Y-95955430D01*
X132775450Y-95985794D01*
X132725657Y-96026657D01*
X132684794Y-96076450D01*
X132654430Y-96133257D01*
X132635732Y-96194897D01*
X132629418Y-96259000D01*
X131847000Y-96259000D01*
X131847000Y-94509000D01*
X188574000Y-94509000D01*
X188574001Y-131297000D01*
G36*
X159192395Y-121659554D02*
G01*
X159095358Y-121634635D01*
X158793447Y-121618009D01*
X158494093Y-121660603D01*
X158208801Y-121760778D01*
X158059208Y-121840739D01*
X157975525Y-122094920D01*
X158860000Y-122979395D01*
X158874143Y-122965253D01*
X159053748Y-123144858D01*
X159039605Y-123159000D01*
X159924080Y-124043475D01*
X160178261Y-123959792D01*
X160309158Y-123687225D01*
X160384365Y-123394358D01*
X160400991Y-123092447D01*
X160363782Y-122830941D01*
X160858177Y-123325336D01*
X160818798Y-123341647D01*
X160617833Y-123475927D01*
X160446927Y-123646833D01*
X160312647Y-123847798D01*
X160220153Y-124071097D01*
X160173000Y-124308151D01*
X160173000Y-124549849D01*
X160220153Y-124786903D01*
X160312647Y-125010202D01*
X160446927Y-125211167D01*
X160617833Y-125382073D01*
X160818798Y-125516353D01*
X161042097Y-125608847D01*
X161279151Y-125656000D01*
X161520849Y-125656000D01*
X161757903Y-125608847D01*
X161981202Y-125516353D01*
X162173002Y-125388197D01*
X162173002Y-125740418D01*
X160500000Y-125740418D01*
X160435897Y-125746732D01*
X160374257Y-125765430D01*
X160317450Y-125795794D01*
X160267657Y-125836657D01*
X160226794Y-125886450D01*
X160196430Y-125943257D01*
X160177732Y-126004897D01*
X160171418Y-126069000D01*
X160171418Y-127455453D01*
X160110174Y-127414531D01*
X159914164Y-127333341D01*
X159706080Y-127291950D01*
X159493920Y-127291950D01*
X159285836Y-127333341D01*
X159089826Y-127414531D01*
X158913421Y-127532401D01*
X158763401Y-127682421D01*
X158645531Y-127858826D01*
X158564341Y-128054836D01*
X158551496Y-128119413D01*
X156359519Y-125927437D01*
X156347711Y-125913049D01*
X156290305Y-125865937D01*
X156224812Y-125830930D01*
X156153747Y-125809373D01*
X156098361Y-125803918D01*
X156098354Y-125803918D01*
X156079842Y-125802095D01*
X156061330Y-125803918D01*
X155531411Y-125803918D01*
X155533000Y-125795930D01*
X155533000Y-125682270D01*
X155510826Y-125570795D01*
X155467331Y-125465788D01*
X155404185Y-125371284D01*
X155323816Y-125290915D01*
X155229312Y-125227769D01*
X155124305Y-125184274D01*
X155012830Y-125162100D01*
X154899170Y-125162100D01*
X154787695Y-125184274D01*
X154682688Y-125227769D01*
X154588184Y-125290915D01*
X154516999Y-125362100D01*
X152899596Y-125362100D01*
X150882743Y-123345247D01*
X150920324Y-123341546D01*
X150991389Y-123319989D01*
X151056882Y-123284982D01*
X151114288Y-123237870D01*
X151126096Y-123223482D01*
X151553000Y-122796579D01*
X151553000Y-122845830D01*
X151575174Y-122957305D01*
X151618669Y-123062312D01*
X151681815Y-123156816D01*
X151762184Y-123237185D01*
X151856688Y-123300331D01*
X151961695Y-123343826D01*
X152073170Y-123366000D01*
X152173841Y-123366000D01*
X152260428Y-123452586D01*
X152272231Y-123466969D01*
X152329637Y-123514081D01*
X152349891Y-123524907D01*
X152395130Y-123549088D01*
X152466194Y-123570645D01*
X152473154Y-123571330D01*
X152521581Y-123576100D01*
X152521588Y-123576100D01*
X152540100Y-123577923D01*
X152558612Y-123576100D01*
X155371166Y-123576100D01*
X155455044Y-123659978D01*
X155455043Y-124190958D01*
X155413739Y-124199174D01*
X155308732Y-124242669D01*
X155214228Y-124305815D01*
X155133859Y-124386184D01*
X155070713Y-124480688D01*
X155027218Y-124585695D01*
X155005044Y-124697170D01*
X155005044Y-124810830D01*
X155027218Y-124922305D01*
X155070713Y-125027312D01*
X155133859Y-125121816D01*
X155214228Y-125202185D01*
X155308732Y-125265331D01*
X155413739Y-125308826D01*
X155525214Y-125331000D01*
X155638874Y-125331000D01*
X155750349Y-125308826D01*
X155855356Y-125265331D01*
X155949860Y-125202185D01*
X156030229Y-125121816D01*
X156093375Y-125027312D01*
X156136870Y-124922305D01*
X156159044Y-124810830D01*
X156159044Y-124697170D01*
X156158291Y-124693385D01*
X156182031Y-124648971D01*
X156193353Y-124611647D01*
X156203588Y-124577907D01*
X156207914Y-124533981D01*
X156209043Y-124522520D01*
X156209043Y-124522513D01*
X156210866Y-124504001D01*
X156209043Y-124485489D01*
X156209043Y-123522338D01*
X156210867Y-123503819D01*
X156203588Y-123429913D01*
X156182031Y-123358849D01*
X156168748Y-123333999D01*
X156147024Y-123293356D01*
X156119728Y-123260096D01*
X156111717Y-123250334D01*
X156111715Y-123250332D01*
X156099912Y-123235950D01*
X156085529Y-123224146D01*
X156005167Y-123143784D01*
X156360704Y-123143784D01*
X156379216Y-123145607D01*
X156397728Y-123143784D01*
X156397735Y-123143784D01*
X156453121Y-123138329D01*
X156524186Y-123116772D01*
X156589679Y-123081765D01*
X156647085Y-123034653D01*
X156658892Y-123020266D01*
X156674158Y-123005000D01*
X156774830Y-123005000D01*
X156886305Y-122982826D01*
X156991312Y-122939331D01*
X157003001Y-122931521D01*
X157003001Y-124200478D01*
X157001177Y-124219000D01*
X157008455Y-124292905D01*
X157030012Y-124363969D01*
X157065020Y-124429463D01*
X157100326Y-124472484D01*
X157100329Y-124472487D01*
X157112132Y-124486869D01*
X157126514Y-124498672D01*
X157764737Y-125136895D01*
X157680153Y-125341097D01*
X157633000Y-125578151D01*
X157633000Y-125819849D01*
X157680153Y-126056903D01*
X157772647Y-126280202D01*
X157906927Y-126481167D01*
X158077833Y-126652073D01*
X158278798Y-126786353D01*
X158502097Y-126878847D01*
X158739151Y-126926000D01*
X158980849Y-126926000D01*
X159217903Y-126878847D01*
X159441202Y-126786353D01*
X159642167Y-126652073D01*
X159813073Y-126481167D01*
X159947353Y-126280202D01*
X160039847Y-126056903D01*
X160087000Y-125819849D01*
X160087000Y-125578151D01*
X160039847Y-125341097D01*
X159947353Y-125117798D01*
X159813073Y-124916833D01*
X159642167Y-124745927D01*
X159441202Y-124611647D01*
X159402204Y-124595493D01*
X159511199Y-124557222D01*
X159660792Y-124477261D01*
X159744475Y-124223080D01*
X158860000Y-123338605D01*
X158845858Y-123352748D01*
X158666253Y-123173143D01*
X158680395Y-123159000D01*
X157795920Y-122274525D01*
X157757000Y-122287338D01*
X157757000Y-121332508D01*
X157758823Y-121313999D01*
X157757000Y-121295490D01*
X157757000Y-121295481D01*
X157751545Y-121240095D01*
X157729988Y-121169030D01*
X157694981Y-121103537D01*
X157647869Y-121046131D01*
X157633482Y-121034324D01*
X155207000Y-118607842D01*
X155207000Y-118507170D01*
X155184826Y-118395695D01*
X155141331Y-118290688D01*
X155078185Y-118196184D01*
X154997816Y-118115815D01*
X154903312Y-118052669D01*
X154798305Y-118009174D01*
X154690446Y-117987719D01*
X154690446Y-117157604D01*
X159192395Y-121659554D01*
X159192395Y-121659554D01*
G37*
X159192395Y-121659554D02*
X159095358Y-121634635D01*
X158793447Y-121618009D01*
X158494093Y-121660603D01*
X158208801Y-121760778D01*
X158059208Y-121840739D01*
X157975525Y-122094920D01*
X158860000Y-122979395D01*
X158874143Y-122965253D01*
X159053748Y-123144858D01*
X159039605Y-123159000D01*
X159924080Y-124043475D01*
X160178261Y-123959792D01*
X160309158Y-123687225D01*
X160384365Y-123394358D01*
X160400991Y-123092447D01*
X160363782Y-122830941D01*
X160858177Y-123325336D01*
X160818798Y-123341647D01*
X160617833Y-123475927D01*
X160446927Y-123646833D01*
X160312647Y-123847798D01*
X160220153Y-124071097D01*
X160173000Y-124308151D01*
X160173000Y-124549849D01*
X160220153Y-124786903D01*
X160312647Y-125010202D01*
X160446927Y-125211167D01*
X160617833Y-125382073D01*
X160818798Y-125516353D01*
X161042097Y-125608847D01*
X161279151Y-125656000D01*
X161520849Y-125656000D01*
X161757903Y-125608847D01*
X161981202Y-125516353D01*
X162173002Y-125388197D01*
X162173002Y-125740418D01*
X160500000Y-125740418D01*
X160435897Y-125746732D01*
X160374257Y-125765430D01*
X160317450Y-125795794D01*
X160267657Y-125836657D01*
X160226794Y-125886450D01*
X160196430Y-125943257D01*
X160177732Y-126004897D01*
X160171418Y-126069000D01*
X160171418Y-127455453D01*
X160110174Y-127414531D01*
X159914164Y-127333341D01*
X159706080Y-127291950D01*
X159493920Y-127291950D01*
X159285836Y-127333341D01*
X159089826Y-127414531D01*
X158913421Y-127532401D01*
X158763401Y-127682421D01*
X158645531Y-127858826D01*
X158564341Y-128054836D01*
X158551496Y-128119413D01*
X156359519Y-125927437D01*
X156347711Y-125913049D01*
X156290305Y-125865937D01*
X156224812Y-125830930D01*
X156153747Y-125809373D01*
X156098361Y-125803918D01*
X156098354Y-125803918D01*
X156079842Y-125802095D01*
X156061330Y-125803918D01*
X155531411Y-125803918D01*
X155533000Y-125795930D01*
X155533000Y-125682270D01*
X155510826Y-125570795D01*
X155467331Y-125465788D01*
X155404185Y-125371284D01*
X155323816Y-125290915D01*
X155229312Y-125227769D01*
X155124305Y-125184274D01*
X155012830Y-125162100D01*
X154899170Y-125162100D01*
X154787695Y-125184274D01*
X154682688Y-125227769D01*
X154588184Y-125290915D01*
X154516999Y-125362100D01*
X152899596Y-125362100D01*
X150882743Y-123345247D01*
X150920324Y-123341546D01*
X150991389Y-123319989D01*
X151056882Y-123284982D01*
X151114288Y-123237870D01*
X151126096Y-123223482D01*
X151553000Y-122796579D01*
X151553000Y-122845830D01*
X151575174Y-122957305D01*
X151618669Y-123062312D01*
X151681815Y-123156816D01*
X151762184Y-123237185D01*
X151856688Y-123300331D01*
X151961695Y-123343826D01*
X152073170Y-123366000D01*
X152173841Y-123366000D01*
X152260428Y-123452586D01*
X152272231Y-123466969D01*
X152329637Y-123514081D01*
X152349891Y-123524907D01*
X152395130Y-123549088D01*
X152466194Y-123570645D01*
X152473154Y-123571330D01*
X152521581Y-123576100D01*
X152521588Y-123576100D01*
X152540100Y-123577923D01*
X152558612Y-123576100D01*
X155371166Y-123576100D01*
X155455044Y-123659978D01*
X155455043Y-124190958D01*
X155413739Y-124199174D01*
X155308732Y-124242669D01*
X155214228Y-124305815D01*
X155133859Y-124386184D01*
X155070713Y-124480688D01*
X155027218Y-124585695D01*
X155005044Y-124697170D01*
X155005044Y-124810830D01*
X155027218Y-124922305D01*
X155070713Y-125027312D01*
X155133859Y-125121816D01*
X155214228Y-125202185D01*
X155308732Y-125265331D01*
X155413739Y-125308826D01*
X155525214Y-125331000D01*
X155638874Y-125331000D01*
X155750349Y-125308826D01*
X155855356Y-125265331D01*
X155949860Y-125202185D01*
X156030229Y-125121816D01*
X156093375Y-125027312D01*
X156136870Y-124922305D01*
X156159044Y-124810830D01*
X156159044Y-124697170D01*
X156158291Y-124693385D01*
X156182031Y-124648971D01*
X156193353Y-124611647D01*
X156203588Y-124577907D01*
X156207914Y-124533981D01*
X156209043Y-124522520D01*
X156209043Y-124522513D01*
X156210866Y-124504001D01*
X156209043Y-124485489D01*
X156209043Y-123522338D01*
X156210867Y-123503819D01*
X156203588Y-123429913D01*
X156182031Y-123358849D01*
X156168748Y-123333999D01*
X156147024Y-123293356D01*
X156119728Y-123260096D01*
X156111717Y-123250334D01*
X156111715Y-123250332D01*
X156099912Y-123235950D01*
X156085529Y-123224146D01*
X156005167Y-123143784D01*
X156360704Y-123143784D01*
X156379216Y-123145607D01*
X156397728Y-123143784D01*
X156397735Y-123143784D01*
X156453121Y-123138329D01*
X156524186Y-123116772D01*
X156589679Y-123081765D01*
X156647085Y-123034653D01*
X156658892Y-123020266D01*
X156674158Y-123005000D01*
X156774830Y-123005000D01*
X156886305Y-122982826D01*
X156991312Y-122939331D01*
X157003001Y-122931521D01*
X157003001Y-124200478D01*
X157001177Y-124219000D01*
X157008455Y-124292905D01*
X157030012Y-124363969D01*
X157065020Y-124429463D01*
X157100326Y-124472484D01*
X157100329Y-124472487D01*
X157112132Y-124486869D01*
X157126514Y-124498672D01*
X157764737Y-125136895D01*
X157680153Y-125341097D01*
X157633000Y-125578151D01*
X157633000Y-125819849D01*
X157680153Y-126056903D01*
X157772647Y-126280202D01*
X157906927Y-126481167D01*
X158077833Y-126652073D01*
X158278798Y-126786353D01*
X158502097Y-126878847D01*
X158739151Y-126926000D01*
X158980849Y-126926000D01*
X159217903Y-126878847D01*
X159441202Y-126786353D01*
X159642167Y-126652073D01*
X159813073Y-126481167D01*
X159947353Y-126280202D01*
X160039847Y-126056903D01*
X160087000Y-125819849D01*
X160087000Y-125578151D01*
X160039847Y-125341097D01*
X159947353Y-125117798D01*
X159813073Y-124916833D01*
X159642167Y-124745927D01*
X159441202Y-124611647D01*
X159402204Y-124595493D01*
X159511199Y-124557222D01*
X159660792Y-124477261D01*
X159744475Y-124223080D01*
X158860000Y-123338605D01*
X158845858Y-123352748D01*
X158666253Y-123173143D01*
X158680395Y-123159000D01*
X157795920Y-122274525D01*
X157757000Y-122287338D01*
X157757000Y-121332508D01*
X157758823Y-121313999D01*
X157757000Y-121295490D01*
X157757000Y-121295481D01*
X157751545Y-121240095D01*
X157729988Y-121169030D01*
X157694981Y-121103537D01*
X157647869Y-121046131D01*
X157633482Y-121034324D01*
X155207000Y-118607842D01*
X155207000Y-118507170D01*
X155184826Y-118395695D01*
X155141331Y-118290688D01*
X155078185Y-118196184D01*
X154997816Y-118115815D01*
X154903312Y-118052669D01*
X154798305Y-118009174D01*
X154690446Y-117987719D01*
X154690446Y-117157604D01*
X159192395Y-121659554D01*
G36*
X184799000Y-116122488D02*
G01*
X184797177Y-116141000D01*
X184799000Y-116159512D01*
X184799000Y-116159518D01*
X184802103Y-116191021D01*
X184804455Y-116214905D01*
X184821477Y-116271020D01*
X184826012Y-116285969D01*
X184861019Y-116351462D01*
X184908131Y-116408869D01*
X184922519Y-116420677D01*
X185349000Y-116847159D01*
X185349000Y-116913557D01*
X185344489Y-116914001D01*
X183732160Y-116914001D01*
X182503000Y-115684842D01*
X182503000Y-115584170D01*
X182480826Y-115472695D01*
X182437331Y-115367688D01*
X182374185Y-115273184D01*
X182303000Y-115201999D01*
X182303000Y-114364315D01*
X184732159Y-111935157D01*
X184799000Y-111935157D01*
X184799000Y-116122488D01*
X184799000Y-116122488D01*
G37*
X184799000Y-116122488D02*
X184797177Y-116141000D01*
X184799000Y-116159512D01*
X184799000Y-116159518D01*
X184802103Y-116191021D01*
X184804455Y-116214905D01*
X184821477Y-116271020D01*
X184826012Y-116285969D01*
X184861019Y-116351462D01*
X184908131Y-116408869D01*
X184922519Y-116420677D01*
X185349000Y-116847159D01*
X185349000Y-116913557D01*
X185344489Y-116914001D01*
X183732160Y-116914001D01*
X182503000Y-115684842D01*
X182503000Y-115584170D01*
X182480826Y-115472695D01*
X182437331Y-115367688D01*
X182374185Y-115273184D01*
X182303000Y-115201999D01*
X182303000Y-114364315D01*
X184732159Y-111935157D01*
X184799000Y-111935157D01*
X184799000Y-116122488D01*
G36*
X162422881Y-112518826D02*
G01*
X162326689Y-112558670D01*
X162232185Y-112621816D01*
X162211000Y-112643001D01*
X161995965Y-112643001D01*
X161975000Y-112640936D01*
X161954035Y-112643001D01*
X161954023Y-112643001D01*
X161891294Y-112649179D01*
X161810805Y-112673596D01*
X161776274Y-112692053D01*
X161736624Y-112713246D01*
X161687899Y-112753233D01*
X161687890Y-112753242D01*
X161671606Y-112766606D01*
X161658242Y-112782890D01*
X160363335Y-114077798D01*
X160358397Y-114043093D01*
X160258222Y-113757801D01*
X160178261Y-113608208D01*
X159924080Y-113524525D01*
X159039605Y-114409000D01*
X159053748Y-114423143D01*
X158874143Y-114602748D01*
X158860000Y-114588605D01*
X158845858Y-114602748D01*
X158666253Y-114423143D01*
X158680395Y-114409000D01*
X158666253Y-114394858D01*
X158845858Y-114215253D01*
X158860000Y-114229395D01*
X159744475Y-113344920D01*
X159660792Y-113090739D01*
X159388225Y-112959842D01*
X159095358Y-112884635D01*
X158968478Y-112877648D01*
X159328126Y-112518000D01*
X162414488Y-112518000D01*
X162422881Y-112518826D01*
X162422881Y-112518826D01*
G37*
X162422881Y-112518826D02*
X162326689Y-112558670D01*
X162232185Y-112621816D01*
X162211000Y-112643001D01*
X161995965Y-112643001D01*
X161975000Y-112640936D01*
X161954035Y-112643001D01*
X161954023Y-112643001D01*
X161891294Y-112649179D01*
X161810805Y-112673596D01*
X161776274Y-112692053D01*
X161736624Y-112713246D01*
X161687899Y-112753233D01*
X161687890Y-112753242D01*
X161671606Y-112766606D01*
X161658242Y-112782890D01*
X160363335Y-114077798D01*
X160358397Y-114043093D01*
X160258222Y-113757801D01*
X160178261Y-113608208D01*
X159924080Y-113524525D01*
X159039605Y-114409000D01*
X159053748Y-114423143D01*
X158874143Y-114602748D01*
X158860000Y-114588605D01*
X158845858Y-114602748D01*
X158666253Y-114423143D01*
X158680395Y-114409000D01*
X158666253Y-114394858D01*
X158845858Y-114215253D01*
X158860000Y-114229395D01*
X159744475Y-113344920D01*
X159660792Y-113090739D01*
X159388225Y-112959842D01*
X159095358Y-112884635D01*
X158968478Y-112877648D01*
X159328126Y-112518000D01*
X162414488Y-112518000D01*
X162422881Y-112518826D01*
G36*
X158208801Y-95510778D02*
G01*
X158059208Y-95590739D01*
X157975525Y-95844920D01*
X158860000Y-96729395D01*
X159744475Y-95844920D01*
X159660792Y-95590739D01*
X159488502Y-95507999D01*
X171183013Y-95507999D01*
X171149174Y-95589695D01*
X171127000Y-95701170D01*
X171127000Y-95731131D01*
X164116081Y-102742051D01*
X160479047Y-102742051D01*
X160554469Y-102629174D01*
X160635659Y-102433164D01*
X160677050Y-102225080D01*
X160677050Y-102012920D01*
X160664053Y-101947582D01*
X162300000Y-101947582D01*
X162364103Y-101941268D01*
X162425743Y-101922570D01*
X162482550Y-101892206D01*
X162532343Y-101851343D01*
X162573206Y-101801550D01*
X162603570Y-101744743D01*
X162622268Y-101683103D01*
X162628582Y-101619000D01*
X162628582Y-99819000D01*
X162622268Y-99754897D01*
X162603570Y-99693257D01*
X162573206Y-99636450D01*
X162532343Y-99586657D01*
X162482550Y-99545794D01*
X162425743Y-99515430D01*
X162364103Y-99496732D01*
X162300000Y-99490418D01*
X160500000Y-99490418D01*
X160435897Y-99496732D01*
X160374257Y-99515430D01*
X160317450Y-99545794D01*
X160267657Y-99586657D01*
X160226794Y-99636450D01*
X160196430Y-99693257D01*
X160177732Y-99754897D01*
X160171418Y-99819000D01*
X160171418Y-101205453D01*
X160110174Y-101164531D01*
X159914164Y-101083341D01*
X159706080Y-101041950D01*
X159493920Y-101041950D01*
X159285836Y-101083341D01*
X159089826Y-101164531D01*
X158913421Y-101282401D01*
X158763401Y-101432421D01*
X158645531Y-101608826D01*
X158564341Y-101804836D01*
X158522950Y-102012920D01*
X158522950Y-102225080D01*
X158564341Y-102433164D01*
X158645531Y-102629174D01*
X158720953Y-102742051D01*
X156685921Y-102742051D01*
X155517000Y-101573132D01*
X155517000Y-101543170D01*
X155494826Y-101431695D01*
X155451331Y-101326688D01*
X155388185Y-101232184D01*
X155307816Y-101151815D01*
X155213312Y-101088669D01*
X155114515Y-101047746D01*
X153394920Y-99328151D01*
X157633000Y-99328151D01*
X157633000Y-99569849D01*
X157680153Y-99806903D01*
X157772647Y-100030202D01*
X157906927Y-100231167D01*
X158077833Y-100402073D01*
X158278798Y-100536353D01*
X158502097Y-100628847D01*
X158739151Y-100676000D01*
X158980849Y-100676000D01*
X159217903Y-100628847D01*
X159441202Y-100536353D01*
X159642167Y-100402073D01*
X159813073Y-100231167D01*
X159947353Y-100030202D01*
X160039847Y-99806903D01*
X160087000Y-99569849D01*
X160087000Y-99328151D01*
X160039847Y-99091097D01*
X159947353Y-98867798D01*
X159813073Y-98666833D01*
X159642167Y-98495927D01*
X159441202Y-98361647D01*
X159402204Y-98345493D01*
X159511199Y-98307222D01*
X159660792Y-98227261D01*
X159716467Y-98058151D01*
X160173000Y-98058151D01*
X160173000Y-98299849D01*
X160220153Y-98536903D01*
X160312647Y-98760202D01*
X160446927Y-98961167D01*
X160617833Y-99132073D01*
X160818798Y-99266353D01*
X161042097Y-99358847D01*
X161279151Y-99406000D01*
X161520849Y-99406000D01*
X161757903Y-99358847D01*
X161981202Y-99266353D01*
X162182167Y-99132073D01*
X162353073Y-98961167D01*
X162487353Y-98760202D01*
X162579847Y-98536903D01*
X162627000Y-98299849D01*
X162627000Y-98058151D01*
X162579847Y-97821097D01*
X162487353Y-97597798D01*
X162353073Y-97396833D01*
X162182167Y-97225927D01*
X161981202Y-97091647D01*
X161757903Y-96999153D01*
X161520849Y-96952000D01*
X161279151Y-96952000D01*
X161042097Y-96999153D01*
X160818798Y-97091647D01*
X160617833Y-97225927D01*
X160446927Y-97396833D01*
X160312647Y-97597798D01*
X160220153Y-97821097D01*
X160173000Y-98058151D01*
X159716467Y-98058151D01*
X159744475Y-97973080D01*
X158860000Y-97088605D01*
X157975525Y-97973080D01*
X158059208Y-98227261D01*
X158311142Y-98348249D01*
X158278798Y-98361647D01*
X158077833Y-98495927D01*
X157906927Y-98666833D01*
X157772647Y-98867798D01*
X157680153Y-99091097D01*
X157633000Y-99328151D01*
X153394920Y-99328151D01*
X151042322Y-96975553D01*
X157319009Y-96975553D01*
X157361603Y-97274907D01*
X157461778Y-97560199D01*
X157541739Y-97709792D01*
X157795920Y-97793475D01*
X158680395Y-96909000D01*
X159039605Y-96909000D01*
X159924080Y-97793475D01*
X160178261Y-97709792D01*
X160309158Y-97437225D01*
X160384365Y-97144358D01*
X160400991Y-96842447D01*
X160358397Y-96543093D01*
X160258222Y-96257801D01*
X160178261Y-96108208D01*
X159924080Y-96024525D01*
X159039605Y-96909000D01*
X158680395Y-96909000D01*
X157795920Y-96024525D01*
X157541739Y-96108208D01*
X157410842Y-96380775D01*
X157335635Y-96673642D01*
X157319009Y-96975553D01*
X151042322Y-96975553D01*
X149574767Y-95507999D01*
X158216715Y-95507999D01*
X158208801Y-95510778D01*
X158208801Y-95510778D01*
G37*
X158208801Y-95510778D02*
X158059208Y-95590739D01*
X157975525Y-95844920D01*
X158860000Y-96729395D01*
X159744475Y-95844920D01*
X159660792Y-95590739D01*
X159488502Y-95507999D01*
X171183013Y-95507999D01*
X171149174Y-95589695D01*
X171127000Y-95701170D01*
X171127000Y-95731131D01*
X164116081Y-102742051D01*
X160479047Y-102742051D01*
X160554469Y-102629174D01*
X160635659Y-102433164D01*
X160677050Y-102225080D01*
X160677050Y-102012920D01*
X160664053Y-101947582D01*
X162300000Y-101947582D01*
X162364103Y-101941268D01*
X162425743Y-101922570D01*
X162482550Y-101892206D01*
X162532343Y-101851343D01*
X162573206Y-101801550D01*
X162603570Y-101744743D01*
X162622268Y-101683103D01*
X162628582Y-101619000D01*
X162628582Y-99819000D01*
X162622268Y-99754897D01*
X162603570Y-99693257D01*
X162573206Y-99636450D01*
X162532343Y-99586657D01*
X162482550Y-99545794D01*
X162425743Y-99515430D01*
X162364103Y-99496732D01*
X162300000Y-99490418D01*
X160500000Y-99490418D01*
X160435897Y-99496732D01*
X160374257Y-99515430D01*
X160317450Y-99545794D01*
X160267657Y-99586657D01*
X160226794Y-99636450D01*
X160196430Y-99693257D01*
X160177732Y-99754897D01*
X160171418Y-99819000D01*
X160171418Y-101205453D01*
X160110174Y-101164531D01*
X159914164Y-101083341D01*
X159706080Y-101041950D01*
X159493920Y-101041950D01*
X159285836Y-101083341D01*
X159089826Y-101164531D01*
X158913421Y-101282401D01*
X158763401Y-101432421D01*
X158645531Y-101608826D01*
X158564341Y-101804836D01*
X158522950Y-102012920D01*
X158522950Y-102225080D01*
X158564341Y-102433164D01*
X158645531Y-102629174D01*
X158720953Y-102742051D01*
X156685921Y-102742051D01*
X155517000Y-101573132D01*
X155517000Y-101543170D01*
X155494826Y-101431695D01*
X155451331Y-101326688D01*
X155388185Y-101232184D01*
X155307816Y-101151815D01*
X155213312Y-101088669D01*
X155114515Y-101047746D01*
X153394920Y-99328151D01*
X157633000Y-99328151D01*
X157633000Y-99569849D01*
X157680153Y-99806903D01*
X157772647Y-100030202D01*
X157906927Y-100231167D01*
X158077833Y-100402073D01*
X158278798Y-100536353D01*
X158502097Y-100628847D01*
X158739151Y-100676000D01*
X158980849Y-100676000D01*
X159217903Y-100628847D01*
X159441202Y-100536353D01*
X159642167Y-100402073D01*
X159813073Y-100231167D01*
X159947353Y-100030202D01*
X160039847Y-99806903D01*
X160087000Y-99569849D01*
X160087000Y-99328151D01*
X160039847Y-99091097D01*
X159947353Y-98867798D01*
X159813073Y-98666833D01*
X159642167Y-98495927D01*
X159441202Y-98361647D01*
X159402204Y-98345493D01*
X159511199Y-98307222D01*
X159660792Y-98227261D01*
X159716467Y-98058151D01*
X160173000Y-98058151D01*
X160173000Y-98299849D01*
X160220153Y-98536903D01*
X160312647Y-98760202D01*
X160446927Y-98961167D01*
X160617833Y-99132073D01*
X160818798Y-99266353D01*
X161042097Y-99358847D01*
X161279151Y-99406000D01*
X161520849Y-99406000D01*
X161757903Y-99358847D01*
X161981202Y-99266353D01*
X162182167Y-99132073D01*
X162353073Y-98961167D01*
X162487353Y-98760202D01*
X162579847Y-98536903D01*
X162627000Y-98299849D01*
X162627000Y-98058151D01*
X162579847Y-97821097D01*
X162487353Y-97597798D01*
X162353073Y-97396833D01*
X162182167Y-97225927D01*
X161981202Y-97091647D01*
X161757903Y-96999153D01*
X161520849Y-96952000D01*
X161279151Y-96952000D01*
X161042097Y-96999153D01*
X160818798Y-97091647D01*
X160617833Y-97225927D01*
X160446927Y-97396833D01*
X160312647Y-97597798D01*
X160220153Y-97821097D01*
X160173000Y-98058151D01*
X159716467Y-98058151D01*
X159744475Y-97973080D01*
X158860000Y-97088605D01*
X157975525Y-97973080D01*
X158059208Y-98227261D01*
X158311142Y-98348249D01*
X158278798Y-98361647D01*
X158077833Y-98495927D01*
X157906927Y-98666833D01*
X157772647Y-98867798D01*
X157680153Y-99091097D01*
X157633000Y-99328151D01*
X153394920Y-99328151D01*
X151042322Y-96975553D01*
X157319009Y-96975553D01*
X157361603Y-97274907D01*
X157461778Y-97560199D01*
X157541739Y-97709792D01*
X157795920Y-97793475D01*
X158680395Y-96909000D01*
X159039605Y-96909000D01*
X159924080Y-97793475D01*
X160178261Y-97709792D01*
X160309158Y-97437225D01*
X160384365Y-97144358D01*
X160400991Y-96842447D01*
X160358397Y-96543093D01*
X160258222Y-96257801D01*
X160178261Y-96108208D01*
X159924080Y-96024525D01*
X159039605Y-96909000D01*
X158680395Y-96909000D01*
X157795920Y-96024525D01*
X157541739Y-96108208D01*
X157410842Y-96380775D01*
X157335635Y-96673642D01*
X157319009Y-96975553D01*
X151042322Y-96975553D01*
X149574767Y-95507999D01*
X158216715Y-95507999D01*
X158208801Y-95510778D01*
M02*
