G04 #@! TF.GenerationSoftware,KiCad,Pcbnew,5.1.0-060a0da~80~ubuntu18.04.1*
G04 #@! TF.CreationDate,2019-06-10T00:34:36+02:00*
G04 #@! TF.ProjectId,TinyFPGA-BX,54696e79-4650-4474-912d-42582e6b6963,rev?*
G04 #@! TF.SameCoordinates,Original*
G04 #@! TF.FileFunction,Paste,Top*
G04 #@! TF.FilePolarity,Positive*
%FSLAX46Y46*%
G04 Gerber Fmt 4.6, Leading zero omitted, Abs format (unit mm)*
G04 Created by KiCad (PCBNEW 5.1.0-060a0da~80~ubuntu18.04.1) date 2019-06-10 00:34:36*
%MOMM*%
%LPD*%
G04 APERTURE LIST*
%ADD10C,0.450000*%
%ADD11O,0.100000X0.335000*%
%ADD12O,0.100000X0.330000*%
%ADD13O,0.330000X0.100000*%
%ADD14C,0.200000*%
%ADD15O,0.335000X0.100000*%
%ADD16R,0.600000X0.400000*%
%ADD17R,0.750000X0.800000*%
%ADD18R,0.500000X0.900000*%
%ADD19R,0.800000X0.800000*%
%ADD20R,0.900000X1.000000*%
%ADD21R,0.400000X0.600000*%
%ADD22R,0.500000X0.600000*%
%ADD23R,0.600000X0.380000*%
%ADD24R,0.600000X0.500000*%
%ADD25R,0.450000X0.950000*%
%ADD26R,1.050000X0.650000*%
%ADD27R,0.450000X1.380000*%
%ADD28R,1.475000X2.100000*%
%ADD29R,2.375000X1.900000*%
%ADD30R,1.175000X1.900000*%
%ADD31R,1.550000X0.600000*%
%ADD32C,0.100000*%
%ADD33C,0.590000*%
%ADD34R,1.500000X0.550000*%
%ADD35R,1.120000X2.160000*%
%ADD36R,0.630000X0.450000*%
%ADD37R,0.660000X0.730000*%
%ADD38R,0.254000X0.675000*%
%ADD39R,0.675000X0.254000*%
%ADD40R,5.000000X5.000000*%
%ADD41R,2.000000X0.900000*%
%ADD42R,0.900000X2.000000*%
%ADD43C,0.270000*%
%ADD44R,0.450000X0.750000*%
G04 APERTURE END LIST*
D10*
X141427453Y-112924326D02*
G75*
G03X141476000Y-112649000I-756453J275326D01*
G01*
X141287666Y-112131556D02*
G75*
G03X141073500Y-111951850I-616666J-517444D01*
G01*
X140531213Y-111856230D02*
G75*
G03X140268500Y-111951850I139787J-792770D01*
G01*
X139914547Y-112373674D02*
G75*
G03X139866000Y-112649000I756453J-275326D01*
G01*
X140054334Y-113166444D02*
G75*
G03X140268500Y-113346150I616666J517444D01*
G01*
X140810787Y-113441770D02*
G75*
G03X141073500Y-113346150I-139787J792770D01*
G01*
D11*
X152730000Y-115714000D03*
D12*
X152330000Y-115714000D03*
D11*
X151930000Y-115714000D03*
X151530000Y-115714000D03*
X151130000Y-115714000D03*
X150730000Y-115714000D03*
X150330000Y-115714000D03*
D12*
X149930000Y-115714000D03*
D11*
X149530000Y-115714000D03*
D13*
X152730000Y-115314000D03*
D14*
X152330000Y-115314000D03*
X151930000Y-115314000D03*
X151530000Y-115314000D03*
X151130000Y-115314000D03*
X150730000Y-115314000D03*
X150330000Y-115314000D03*
X149930000Y-115314000D03*
D13*
X149530000Y-115314000D03*
D15*
X152730000Y-114914000D03*
D14*
X152330000Y-114914000D03*
X151930000Y-114914000D03*
X151530000Y-114914000D03*
X151130000Y-114914000D03*
X150730000Y-114914000D03*
X150330000Y-114914000D03*
X149930000Y-114914000D03*
D15*
X149530000Y-114914000D03*
X152730000Y-114514000D03*
D14*
X152330000Y-114514000D03*
X151930000Y-114514000D03*
X151530000Y-114514000D03*
X151130000Y-114514000D03*
X150730000Y-114514000D03*
X150330000Y-114514000D03*
X149930000Y-114514000D03*
X149530000Y-114514000D03*
D15*
X152730000Y-114114000D03*
D14*
X152330000Y-114114000D03*
X151930000Y-114114000D03*
X151530000Y-114114000D03*
X151130000Y-114114000D03*
X150730000Y-114114000D03*
X150330000Y-114114000D03*
X149930000Y-114114000D03*
D15*
X149530000Y-114114000D03*
X152730000Y-113714000D03*
D14*
X152330000Y-113714000D03*
X151930000Y-113714000D03*
X151530000Y-113714000D03*
X151130000Y-113714000D03*
X150730000Y-113714000D03*
X150330000Y-113714000D03*
X149930000Y-113714000D03*
D15*
X149530000Y-113714000D03*
X152730000Y-113314000D03*
D14*
X152330000Y-113314000D03*
X151930000Y-113314000D03*
X151530000Y-113314000D03*
X151130000Y-113314000D03*
X150730000Y-113314000D03*
X150330000Y-113314000D03*
X149930000Y-113314000D03*
D15*
X149530000Y-113314000D03*
D14*
X152730000Y-112914000D03*
X152330000Y-112914000D03*
X151930000Y-112914000D03*
X151530000Y-112914000D03*
X151130000Y-112914000D03*
X150730000Y-112914000D03*
X150330000Y-112914000D03*
X149930000Y-112914000D03*
D13*
X149530000Y-112914000D03*
D11*
X152730000Y-112514000D03*
X152330000Y-112514000D03*
X151930000Y-112514000D03*
X151530000Y-112514000D03*
D14*
X151130000Y-112514000D03*
D11*
X150730000Y-112514000D03*
X150330000Y-112514000D03*
D12*
X149930000Y-112514000D03*
D11*
X149530000Y-112514000D03*
D16*
X154536000Y-129923100D03*
X154536000Y-130823100D03*
D17*
X151736000Y-119373100D03*
X151736000Y-120873100D03*
X156036000Y-101673100D03*
X156036000Y-100173100D03*
D18*
X154636000Y-102423100D03*
X153136000Y-102423100D03*
D16*
X146183000Y-105223100D03*
X146183000Y-106123100D03*
X148215000Y-105223100D03*
X148215000Y-106123100D03*
D19*
X148215000Y-102587100D03*
X148215000Y-104187100D03*
X146183000Y-102587100D03*
X146183000Y-104187100D03*
D20*
X149086000Y-108423100D03*
X149086000Y-110323100D03*
X146986000Y-110323100D03*
X146986000Y-108423100D03*
D21*
X146450000Y-126954000D03*
X147350000Y-126954000D03*
D22*
X150555000Y-117864000D03*
X150555000Y-118964000D03*
D23*
X156130000Y-114864000D03*
X156130000Y-115764000D03*
D24*
X153830000Y-114164000D03*
X154930000Y-114164000D03*
D22*
X151130000Y-111514000D03*
X151130000Y-110414000D03*
D24*
X153555000Y-112439000D03*
X154655000Y-112439000D03*
X147986000Y-114923100D03*
X146886000Y-114923100D03*
X147986000Y-114123100D03*
X146886000Y-114123100D03*
X149069800Y-107349500D03*
X147969800Y-107349500D03*
D22*
X153255000Y-116964000D03*
X153255000Y-118064000D03*
X148836000Y-117273100D03*
X148836000Y-118373100D03*
X151736000Y-117123100D03*
X151736000Y-118223100D03*
D16*
X152936000Y-120873100D03*
X152936000Y-119973100D03*
D22*
X155336000Y-122373100D03*
X155336000Y-123473100D03*
D16*
X149636000Y-102273100D03*
X149636000Y-103173100D03*
X150636000Y-103173100D03*
X150636000Y-102273100D03*
X151636000Y-103173100D03*
X151636000Y-102273100D03*
D25*
X153936000Y-107623100D03*
X153286000Y-107623100D03*
X154586000Y-107623100D03*
X153286000Y-109823100D03*
X154586000Y-109823100D03*
D24*
X155386000Y-109923100D03*
X156486000Y-109923100D03*
D22*
X145340000Y-95624000D03*
X145340000Y-96724000D03*
X140110000Y-97054000D03*
X140110000Y-98154000D03*
D24*
X155386000Y-107523100D03*
X156486000Y-107523100D03*
D26*
X149155000Y-128369000D03*
X153305000Y-128369000D03*
X153305000Y-130519000D03*
X149155000Y-130519000D03*
D21*
X154690000Y-127064000D03*
X155590000Y-127064000D03*
D27*
X152470000Y-100164000D03*
X151820000Y-100164000D03*
X151170000Y-100164000D03*
X150520000Y-100164000D03*
X149870000Y-100164000D03*
D28*
X153632500Y-99804000D03*
X148707500Y-99804000D03*
D29*
X154080000Y-97504000D03*
X148260000Y-97504000D03*
D30*
X152010000Y-97504000D03*
X150330000Y-97504000D03*
D31*
X148436000Y-122353100D03*
X148436000Y-123623100D03*
X148436000Y-124893100D03*
X148436000Y-126163100D03*
X153836000Y-126163100D03*
X153836000Y-124893100D03*
X153836000Y-123623100D03*
X153836000Y-122353100D03*
D32*
G36*
X184362958Y-121861710D02*
G01*
X184377276Y-121863834D01*
X184391317Y-121867351D01*
X184404946Y-121872228D01*
X184418031Y-121878417D01*
X184430447Y-121885858D01*
X184442073Y-121894481D01*
X184452798Y-121904202D01*
X184462519Y-121914927D01*
X184471142Y-121926553D01*
X184478583Y-121938969D01*
X184484772Y-121952054D01*
X184489649Y-121965683D01*
X184493166Y-121979724D01*
X184495290Y-121994042D01*
X184496000Y-122008500D01*
X184496000Y-122303500D01*
X184495290Y-122317958D01*
X184493166Y-122332276D01*
X184489649Y-122346317D01*
X184484772Y-122359946D01*
X184478583Y-122373031D01*
X184471142Y-122385447D01*
X184462519Y-122397073D01*
X184452798Y-122407798D01*
X184442073Y-122417519D01*
X184430447Y-122426142D01*
X184418031Y-122433583D01*
X184404946Y-122439772D01*
X184391317Y-122444649D01*
X184377276Y-122448166D01*
X184362958Y-122450290D01*
X184348500Y-122451000D01*
X184003500Y-122451000D01*
X183989042Y-122450290D01*
X183974724Y-122448166D01*
X183960683Y-122444649D01*
X183947054Y-122439772D01*
X183933969Y-122433583D01*
X183921553Y-122426142D01*
X183909927Y-122417519D01*
X183899202Y-122407798D01*
X183889481Y-122397073D01*
X183880858Y-122385447D01*
X183873417Y-122373031D01*
X183867228Y-122359946D01*
X183862351Y-122346317D01*
X183858834Y-122332276D01*
X183856710Y-122317958D01*
X183856000Y-122303500D01*
X183856000Y-122008500D01*
X183856710Y-121994042D01*
X183858834Y-121979724D01*
X183862351Y-121965683D01*
X183867228Y-121952054D01*
X183873417Y-121938969D01*
X183880858Y-121926553D01*
X183889481Y-121914927D01*
X183899202Y-121904202D01*
X183909927Y-121894481D01*
X183921553Y-121885858D01*
X183933969Y-121878417D01*
X183947054Y-121872228D01*
X183960683Y-121867351D01*
X183974724Y-121863834D01*
X183989042Y-121861710D01*
X184003500Y-121861000D01*
X184348500Y-121861000D01*
X184362958Y-121861710D01*
X184362958Y-121861710D01*
G37*
D33*
X184176000Y-122156000D03*
D32*
G36*
X184362958Y-122831710D02*
G01*
X184377276Y-122833834D01*
X184391317Y-122837351D01*
X184404946Y-122842228D01*
X184418031Y-122848417D01*
X184430447Y-122855858D01*
X184442073Y-122864481D01*
X184452798Y-122874202D01*
X184462519Y-122884927D01*
X184471142Y-122896553D01*
X184478583Y-122908969D01*
X184484772Y-122922054D01*
X184489649Y-122935683D01*
X184493166Y-122949724D01*
X184495290Y-122964042D01*
X184496000Y-122978500D01*
X184496000Y-123273500D01*
X184495290Y-123287958D01*
X184493166Y-123302276D01*
X184489649Y-123316317D01*
X184484772Y-123329946D01*
X184478583Y-123343031D01*
X184471142Y-123355447D01*
X184462519Y-123367073D01*
X184452798Y-123377798D01*
X184442073Y-123387519D01*
X184430447Y-123396142D01*
X184418031Y-123403583D01*
X184404946Y-123409772D01*
X184391317Y-123414649D01*
X184377276Y-123418166D01*
X184362958Y-123420290D01*
X184348500Y-123421000D01*
X184003500Y-123421000D01*
X183989042Y-123420290D01*
X183974724Y-123418166D01*
X183960683Y-123414649D01*
X183947054Y-123409772D01*
X183933969Y-123403583D01*
X183921553Y-123396142D01*
X183909927Y-123387519D01*
X183899202Y-123377798D01*
X183889481Y-123367073D01*
X183880858Y-123355447D01*
X183873417Y-123343031D01*
X183867228Y-123329946D01*
X183862351Y-123316317D01*
X183858834Y-123302276D01*
X183856710Y-123287958D01*
X183856000Y-123273500D01*
X183856000Y-122978500D01*
X183856710Y-122964042D01*
X183858834Y-122949724D01*
X183862351Y-122935683D01*
X183867228Y-122922054D01*
X183873417Y-122908969D01*
X183880858Y-122896553D01*
X183889481Y-122884927D01*
X183899202Y-122874202D01*
X183909927Y-122864481D01*
X183921553Y-122855858D01*
X183933969Y-122848417D01*
X183947054Y-122842228D01*
X183960683Y-122837351D01*
X183974724Y-122833834D01*
X183989042Y-122831710D01*
X184003500Y-122831000D01*
X184348500Y-122831000D01*
X184362958Y-122831710D01*
X184362958Y-122831710D01*
G37*
D33*
X184176000Y-123126000D03*
D32*
G36*
X186612958Y-119346710D02*
G01*
X186627276Y-119348834D01*
X186641317Y-119352351D01*
X186654946Y-119357228D01*
X186668031Y-119363417D01*
X186680447Y-119370858D01*
X186692073Y-119379481D01*
X186702798Y-119389202D01*
X186712519Y-119399927D01*
X186721142Y-119411553D01*
X186728583Y-119423969D01*
X186734772Y-119437054D01*
X186739649Y-119450683D01*
X186743166Y-119464724D01*
X186745290Y-119479042D01*
X186746000Y-119493500D01*
X186746000Y-119788500D01*
X186745290Y-119802958D01*
X186743166Y-119817276D01*
X186739649Y-119831317D01*
X186734772Y-119844946D01*
X186728583Y-119858031D01*
X186721142Y-119870447D01*
X186712519Y-119882073D01*
X186702798Y-119892798D01*
X186692073Y-119902519D01*
X186680447Y-119911142D01*
X186668031Y-119918583D01*
X186654946Y-119924772D01*
X186641317Y-119929649D01*
X186627276Y-119933166D01*
X186612958Y-119935290D01*
X186598500Y-119936000D01*
X186253500Y-119936000D01*
X186239042Y-119935290D01*
X186224724Y-119933166D01*
X186210683Y-119929649D01*
X186197054Y-119924772D01*
X186183969Y-119918583D01*
X186171553Y-119911142D01*
X186159927Y-119902519D01*
X186149202Y-119892798D01*
X186139481Y-119882073D01*
X186130858Y-119870447D01*
X186123417Y-119858031D01*
X186117228Y-119844946D01*
X186112351Y-119831317D01*
X186108834Y-119817276D01*
X186106710Y-119802958D01*
X186106000Y-119788500D01*
X186106000Y-119493500D01*
X186106710Y-119479042D01*
X186108834Y-119464724D01*
X186112351Y-119450683D01*
X186117228Y-119437054D01*
X186123417Y-119423969D01*
X186130858Y-119411553D01*
X186139481Y-119399927D01*
X186149202Y-119389202D01*
X186159927Y-119379481D01*
X186171553Y-119370858D01*
X186183969Y-119363417D01*
X186197054Y-119357228D01*
X186210683Y-119352351D01*
X186224724Y-119348834D01*
X186239042Y-119346710D01*
X186253500Y-119346000D01*
X186598500Y-119346000D01*
X186612958Y-119346710D01*
X186612958Y-119346710D01*
G37*
D33*
X186426000Y-119641000D03*
D32*
G36*
X186612958Y-120316710D02*
G01*
X186627276Y-120318834D01*
X186641317Y-120322351D01*
X186654946Y-120327228D01*
X186668031Y-120333417D01*
X186680447Y-120340858D01*
X186692073Y-120349481D01*
X186702798Y-120359202D01*
X186712519Y-120369927D01*
X186721142Y-120381553D01*
X186728583Y-120393969D01*
X186734772Y-120407054D01*
X186739649Y-120420683D01*
X186743166Y-120434724D01*
X186745290Y-120449042D01*
X186746000Y-120463500D01*
X186746000Y-120758500D01*
X186745290Y-120772958D01*
X186743166Y-120787276D01*
X186739649Y-120801317D01*
X186734772Y-120814946D01*
X186728583Y-120828031D01*
X186721142Y-120840447D01*
X186712519Y-120852073D01*
X186702798Y-120862798D01*
X186692073Y-120872519D01*
X186680447Y-120881142D01*
X186668031Y-120888583D01*
X186654946Y-120894772D01*
X186641317Y-120899649D01*
X186627276Y-120903166D01*
X186612958Y-120905290D01*
X186598500Y-120906000D01*
X186253500Y-120906000D01*
X186239042Y-120905290D01*
X186224724Y-120903166D01*
X186210683Y-120899649D01*
X186197054Y-120894772D01*
X186183969Y-120888583D01*
X186171553Y-120881142D01*
X186159927Y-120872519D01*
X186149202Y-120862798D01*
X186139481Y-120852073D01*
X186130858Y-120840447D01*
X186123417Y-120828031D01*
X186117228Y-120814946D01*
X186112351Y-120801317D01*
X186108834Y-120787276D01*
X186106710Y-120772958D01*
X186106000Y-120758500D01*
X186106000Y-120463500D01*
X186106710Y-120449042D01*
X186108834Y-120434724D01*
X186112351Y-120420683D01*
X186117228Y-120407054D01*
X186123417Y-120393969D01*
X186130858Y-120381553D01*
X186139481Y-120369927D01*
X186149202Y-120359202D01*
X186159927Y-120349481D01*
X186171553Y-120340858D01*
X186183969Y-120333417D01*
X186197054Y-120327228D01*
X186210683Y-120322351D01*
X186224724Y-120318834D01*
X186239042Y-120316710D01*
X186253500Y-120316000D01*
X186598500Y-120316000D01*
X186612958Y-120316710D01*
X186612958Y-120316710D01*
G37*
D33*
X186426000Y-120611000D03*
D32*
G36*
X164362958Y-95111710D02*
G01*
X164377276Y-95113834D01*
X164391317Y-95117351D01*
X164404946Y-95122228D01*
X164418031Y-95128417D01*
X164430447Y-95135858D01*
X164442073Y-95144481D01*
X164452798Y-95154202D01*
X164462519Y-95164927D01*
X164471142Y-95176553D01*
X164478583Y-95188969D01*
X164484772Y-95202054D01*
X164489649Y-95215683D01*
X164493166Y-95229724D01*
X164495290Y-95244042D01*
X164496000Y-95258500D01*
X164496000Y-95553500D01*
X164495290Y-95567958D01*
X164493166Y-95582276D01*
X164489649Y-95596317D01*
X164484772Y-95609946D01*
X164478583Y-95623031D01*
X164471142Y-95635447D01*
X164462519Y-95647073D01*
X164452798Y-95657798D01*
X164442073Y-95667519D01*
X164430447Y-95676142D01*
X164418031Y-95683583D01*
X164404946Y-95689772D01*
X164391317Y-95694649D01*
X164377276Y-95698166D01*
X164362958Y-95700290D01*
X164348500Y-95701000D01*
X164003500Y-95701000D01*
X163989042Y-95700290D01*
X163974724Y-95698166D01*
X163960683Y-95694649D01*
X163947054Y-95689772D01*
X163933969Y-95683583D01*
X163921553Y-95676142D01*
X163909927Y-95667519D01*
X163899202Y-95657798D01*
X163889481Y-95647073D01*
X163880858Y-95635447D01*
X163873417Y-95623031D01*
X163867228Y-95609946D01*
X163862351Y-95596317D01*
X163858834Y-95582276D01*
X163856710Y-95567958D01*
X163856000Y-95553500D01*
X163856000Y-95258500D01*
X163856710Y-95244042D01*
X163858834Y-95229724D01*
X163862351Y-95215683D01*
X163867228Y-95202054D01*
X163873417Y-95188969D01*
X163880858Y-95176553D01*
X163889481Y-95164927D01*
X163899202Y-95154202D01*
X163909927Y-95144481D01*
X163921553Y-95135858D01*
X163933969Y-95128417D01*
X163947054Y-95122228D01*
X163960683Y-95117351D01*
X163974724Y-95113834D01*
X163989042Y-95111710D01*
X164003500Y-95111000D01*
X164348500Y-95111000D01*
X164362958Y-95111710D01*
X164362958Y-95111710D01*
G37*
D33*
X164176000Y-95406000D03*
D32*
G36*
X164362958Y-96081710D02*
G01*
X164377276Y-96083834D01*
X164391317Y-96087351D01*
X164404946Y-96092228D01*
X164418031Y-96098417D01*
X164430447Y-96105858D01*
X164442073Y-96114481D01*
X164452798Y-96124202D01*
X164462519Y-96134927D01*
X164471142Y-96146553D01*
X164478583Y-96158969D01*
X164484772Y-96172054D01*
X164489649Y-96185683D01*
X164493166Y-96199724D01*
X164495290Y-96214042D01*
X164496000Y-96228500D01*
X164496000Y-96523500D01*
X164495290Y-96537958D01*
X164493166Y-96552276D01*
X164489649Y-96566317D01*
X164484772Y-96579946D01*
X164478583Y-96593031D01*
X164471142Y-96605447D01*
X164462519Y-96617073D01*
X164452798Y-96627798D01*
X164442073Y-96637519D01*
X164430447Y-96646142D01*
X164418031Y-96653583D01*
X164404946Y-96659772D01*
X164391317Y-96664649D01*
X164377276Y-96668166D01*
X164362958Y-96670290D01*
X164348500Y-96671000D01*
X164003500Y-96671000D01*
X163989042Y-96670290D01*
X163974724Y-96668166D01*
X163960683Y-96664649D01*
X163947054Y-96659772D01*
X163933969Y-96653583D01*
X163921553Y-96646142D01*
X163909927Y-96637519D01*
X163899202Y-96627798D01*
X163889481Y-96617073D01*
X163880858Y-96605447D01*
X163873417Y-96593031D01*
X163867228Y-96579946D01*
X163862351Y-96566317D01*
X163858834Y-96552276D01*
X163856710Y-96537958D01*
X163856000Y-96523500D01*
X163856000Y-96228500D01*
X163856710Y-96214042D01*
X163858834Y-96199724D01*
X163862351Y-96185683D01*
X163867228Y-96172054D01*
X163873417Y-96158969D01*
X163880858Y-96146553D01*
X163889481Y-96134927D01*
X163899202Y-96124202D01*
X163909927Y-96114481D01*
X163921553Y-96105858D01*
X163933969Y-96098417D01*
X163947054Y-96092228D01*
X163960683Y-96087351D01*
X163974724Y-96083834D01*
X163989042Y-96081710D01*
X164003500Y-96081000D01*
X164348500Y-96081000D01*
X164362958Y-96081710D01*
X164362958Y-96081710D01*
G37*
D33*
X164176000Y-96376000D03*
D32*
G36*
X181862958Y-122831710D02*
G01*
X181877276Y-122833834D01*
X181891317Y-122837351D01*
X181904946Y-122842228D01*
X181918031Y-122848417D01*
X181930447Y-122855858D01*
X181942073Y-122864481D01*
X181952798Y-122874202D01*
X181962519Y-122884927D01*
X181971142Y-122896553D01*
X181978583Y-122908969D01*
X181984772Y-122922054D01*
X181989649Y-122935683D01*
X181993166Y-122949724D01*
X181995290Y-122964042D01*
X181996000Y-122978500D01*
X181996000Y-123273500D01*
X181995290Y-123287958D01*
X181993166Y-123302276D01*
X181989649Y-123316317D01*
X181984772Y-123329946D01*
X181978583Y-123343031D01*
X181971142Y-123355447D01*
X181962519Y-123367073D01*
X181952798Y-123377798D01*
X181942073Y-123387519D01*
X181930447Y-123396142D01*
X181918031Y-123403583D01*
X181904946Y-123409772D01*
X181891317Y-123414649D01*
X181877276Y-123418166D01*
X181862958Y-123420290D01*
X181848500Y-123421000D01*
X181503500Y-123421000D01*
X181489042Y-123420290D01*
X181474724Y-123418166D01*
X181460683Y-123414649D01*
X181447054Y-123409772D01*
X181433969Y-123403583D01*
X181421553Y-123396142D01*
X181409927Y-123387519D01*
X181399202Y-123377798D01*
X181389481Y-123367073D01*
X181380858Y-123355447D01*
X181373417Y-123343031D01*
X181367228Y-123329946D01*
X181362351Y-123316317D01*
X181358834Y-123302276D01*
X181356710Y-123287958D01*
X181356000Y-123273500D01*
X181356000Y-122978500D01*
X181356710Y-122964042D01*
X181358834Y-122949724D01*
X181362351Y-122935683D01*
X181367228Y-122922054D01*
X181373417Y-122908969D01*
X181380858Y-122896553D01*
X181389481Y-122884927D01*
X181399202Y-122874202D01*
X181409927Y-122864481D01*
X181421553Y-122855858D01*
X181433969Y-122848417D01*
X181447054Y-122842228D01*
X181460683Y-122837351D01*
X181474724Y-122833834D01*
X181489042Y-122831710D01*
X181503500Y-122831000D01*
X181848500Y-122831000D01*
X181862958Y-122831710D01*
X181862958Y-122831710D01*
G37*
D33*
X181676000Y-123126000D03*
D32*
G36*
X181862958Y-121861710D02*
G01*
X181877276Y-121863834D01*
X181891317Y-121867351D01*
X181904946Y-121872228D01*
X181918031Y-121878417D01*
X181930447Y-121885858D01*
X181942073Y-121894481D01*
X181952798Y-121904202D01*
X181962519Y-121914927D01*
X181971142Y-121926553D01*
X181978583Y-121938969D01*
X181984772Y-121952054D01*
X181989649Y-121965683D01*
X181993166Y-121979724D01*
X181995290Y-121994042D01*
X181996000Y-122008500D01*
X181996000Y-122303500D01*
X181995290Y-122317958D01*
X181993166Y-122332276D01*
X181989649Y-122346317D01*
X181984772Y-122359946D01*
X181978583Y-122373031D01*
X181971142Y-122385447D01*
X181962519Y-122397073D01*
X181952798Y-122407798D01*
X181942073Y-122417519D01*
X181930447Y-122426142D01*
X181918031Y-122433583D01*
X181904946Y-122439772D01*
X181891317Y-122444649D01*
X181877276Y-122448166D01*
X181862958Y-122450290D01*
X181848500Y-122451000D01*
X181503500Y-122451000D01*
X181489042Y-122450290D01*
X181474724Y-122448166D01*
X181460683Y-122444649D01*
X181447054Y-122439772D01*
X181433969Y-122433583D01*
X181421553Y-122426142D01*
X181409927Y-122417519D01*
X181399202Y-122407798D01*
X181389481Y-122397073D01*
X181380858Y-122385447D01*
X181373417Y-122373031D01*
X181367228Y-122359946D01*
X181362351Y-122346317D01*
X181358834Y-122332276D01*
X181356710Y-122317958D01*
X181356000Y-122303500D01*
X181356000Y-122008500D01*
X181356710Y-121994042D01*
X181358834Y-121979724D01*
X181362351Y-121965683D01*
X181367228Y-121952054D01*
X181373417Y-121938969D01*
X181380858Y-121926553D01*
X181389481Y-121914927D01*
X181399202Y-121904202D01*
X181409927Y-121894481D01*
X181421553Y-121885858D01*
X181433969Y-121878417D01*
X181447054Y-121872228D01*
X181460683Y-121867351D01*
X181474724Y-121863834D01*
X181489042Y-121861710D01*
X181503500Y-121861000D01*
X181848500Y-121861000D01*
X181862958Y-121861710D01*
X181862958Y-121861710D01*
G37*
D33*
X181676000Y-122156000D03*
D32*
G36*
X183112958Y-121861710D02*
G01*
X183127276Y-121863834D01*
X183141317Y-121867351D01*
X183154946Y-121872228D01*
X183168031Y-121878417D01*
X183180447Y-121885858D01*
X183192073Y-121894481D01*
X183202798Y-121904202D01*
X183212519Y-121914927D01*
X183221142Y-121926553D01*
X183228583Y-121938969D01*
X183234772Y-121952054D01*
X183239649Y-121965683D01*
X183243166Y-121979724D01*
X183245290Y-121994042D01*
X183246000Y-122008500D01*
X183246000Y-122303500D01*
X183245290Y-122317958D01*
X183243166Y-122332276D01*
X183239649Y-122346317D01*
X183234772Y-122359946D01*
X183228583Y-122373031D01*
X183221142Y-122385447D01*
X183212519Y-122397073D01*
X183202798Y-122407798D01*
X183192073Y-122417519D01*
X183180447Y-122426142D01*
X183168031Y-122433583D01*
X183154946Y-122439772D01*
X183141317Y-122444649D01*
X183127276Y-122448166D01*
X183112958Y-122450290D01*
X183098500Y-122451000D01*
X182753500Y-122451000D01*
X182739042Y-122450290D01*
X182724724Y-122448166D01*
X182710683Y-122444649D01*
X182697054Y-122439772D01*
X182683969Y-122433583D01*
X182671553Y-122426142D01*
X182659927Y-122417519D01*
X182649202Y-122407798D01*
X182639481Y-122397073D01*
X182630858Y-122385447D01*
X182623417Y-122373031D01*
X182617228Y-122359946D01*
X182612351Y-122346317D01*
X182608834Y-122332276D01*
X182606710Y-122317958D01*
X182606000Y-122303500D01*
X182606000Y-122008500D01*
X182606710Y-121994042D01*
X182608834Y-121979724D01*
X182612351Y-121965683D01*
X182617228Y-121952054D01*
X182623417Y-121938969D01*
X182630858Y-121926553D01*
X182639481Y-121914927D01*
X182649202Y-121904202D01*
X182659927Y-121894481D01*
X182671553Y-121885858D01*
X182683969Y-121878417D01*
X182697054Y-121872228D01*
X182710683Y-121867351D01*
X182724724Y-121863834D01*
X182739042Y-121861710D01*
X182753500Y-121861000D01*
X183098500Y-121861000D01*
X183112958Y-121861710D01*
X183112958Y-121861710D01*
G37*
D33*
X182926000Y-122156000D03*
D32*
G36*
X183112958Y-122831710D02*
G01*
X183127276Y-122833834D01*
X183141317Y-122837351D01*
X183154946Y-122842228D01*
X183168031Y-122848417D01*
X183180447Y-122855858D01*
X183192073Y-122864481D01*
X183202798Y-122874202D01*
X183212519Y-122884927D01*
X183221142Y-122896553D01*
X183228583Y-122908969D01*
X183234772Y-122922054D01*
X183239649Y-122935683D01*
X183243166Y-122949724D01*
X183245290Y-122964042D01*
X183246000Y-122978500D01*
X183246000Y-123273500D01*
X183245290Y-123287958D01*
X183243166Y-123302276D01*
X183239649Y-123316317D01*
X183234772Y-123329946D01*
X183228583Y-123343031D01*
X183221142Y-123355447D01*
X183212519Y-123367073D01*
X183202798Y-123377798D01*
X183192073Y-123387519D01*
X183180447Y-123396142D01*
X183168031Y-123403583D01*
X183154946Y-123409772D01*
X183141317Y-123414649D01*
X183127276Y-123418166D01*
X183112958Y-123420290D01*
X183098500Y-123421000D01*
X182753500Y-123421000D01*
X182739042Y-123420290D01*
X182724724Y-123418166D01*
X182710683Y-123414649D01*
X182697054Y-123409772D01*
X182683969Y-123403583D01*
X182671553Y-123396142D01*
X182659927Y-123387519D01*
X182649202Y-123377798D01*
X182639481Y-123367073D01*
X182630858Y-123355447D01*
X182623417Y-123343031D01*
X182617228Y-123329946D01*
X182612351Y-123316317D01*
X182608834Y-123302276D01*
X182606710Y-123287958D01*
X182606000Y-123273500D01*
X182606000Y-122978500D01*
X182606710Y-122964042D01*
X182608834Y-122949724D01*
X182612351Y-122935683D01*
X182617228Y-122922054D01*
X182623417Y-122908969D01*
X182630858Y-122896553D01*
X182639481Y-122884927D01*
X182649202Y-122874202D01*
X182659927Y-122864481D01*
X182671553Y-122855858D01*
X182683969Y-122848417D01*
X182697054Y-122842228D01*
X182710683Y-122837351D01*
X182724724Y-122833834D01*
X182739042Y-122831710D01*
X182753500Y-122831000D01*
X183098500Y-122831000D01*
X183112958Y-122831710D01*
X183112958Y-122831710D01*
G37*
D33*
X182926000Y-123126000D03*
D32*
G36*
X185612958Y-122831710D02*
G01*
X185627276Y-122833834D01*
X185641317Y-122837351D01*
X185654946Y-122842228D01*
X185668031Y-122848417D01*
X185680447Y-122855858D01*
X185692073Y-122864481D01*
X185702798Y-122874202D01*
X185712519Y-122884927D01*
X185721142Y-122896553D01*
X185728583Y-122908969D01*
X185734772Y-122922054D01*
X185739649Y-122935683D01*
X185743166Y-122949724D01*
X185745290Y-122964042D01*
X185746000Y-122978500D01*
X185746000Y-123273500D01*
X185745290Y-123287958D01*
X185743166Y-123302276D01*
X185739649Y-123316317D01*
X185734772Y-123329946D01*
X185728583Y-123343031D01*
X185721142Y-123355447D01*
X185712519Y-123367073D01*
X185702798Y-123377798D01*
X185692073Y-123387519D01*
X185680447Y-123396142D01*
X185668031Y-123403583D01*
X185654946Y-123409772D01*
X185641317Y-123414649D01*
X185627276Y-123418166D01*
X185612958Y-123420290D01*
X185598500Y-123421000D01*
X185253500Y-123421000D01*
X185239042Y-123420290D01*
X185224724Y-123418166D01*
X185210683Y-123414649D01*
X185197054Y-123409772D01*
X185183969Y-123403583D01*
X185171553Y-123396142D01*
X185159927Y-123387519D01*
X185149202Y-123377798D01*
X185139481Y-123367073D01*
X185130858Y-123355447D01*
X185123417Y-123343031D01*
X185117228Y-123329946D01*
X185112351Y-123316317D01*
X185108834Y-123302276D01*
X185106710Y-123287958D01*
X185106000Y-123273500D01*
X185106000Y-122978500D01*
X185106710Y-122964042D01*
X185108834Y-122949724D01*
X185112351Y-122935683D01*
X185117228Y-122922054D01*
X185123417Y-122908969D01*
X185130858Y-122896553D01*
X185139481Y-122884927D01*
X185149202Y-122874202D01*
X185159927Y-122864481D01*
X185171553Y-122855858D01*
X185183969Y-122848417D01*
X185197054Y-122842228D01*
X185210683Y-122837351D01*
X185224724Y-122833834D01*
X185239042Y-122831710D01*
X185253500Y-122831000D01*
X185598500Y-122831000D01*
X185612958Y-122831710D01*
X185612958Y-122831710D01*
G37*
D33*
X185426000Y-123126000D03*
D32*
G36*
X185612958Y-121861710D02*
G01*
X185627276Y-121863834D01*
X185641317Y-121867351D01*
X185654946Y-121872228D01*
X185668031Y-121878417D01*
X185680447Y-121885858D01*
X185692073Y-121894481D01*
X185702798Y-121904202D01*
X185712519Y-121914927D01*
X185721142Y-121926553D01*
X185728583Y-121938969D01*
X185734772Y-121952054D01*
X185739649Y-121965683D01*
X185743166Y-121979724D01*
X185745290Y-121994042D01*
X185746000Y-122008500D01*
X185746000Y-122303500D01*
X185745290Y-122317958D01*
X185743166Y-122332276D01*
X185739649Y-122346317D01*
X185734772Y-122359946D01*
X185728583Y-122373031D01*
X185721142Y-122385447D01*
X185712519Y-122397073D01*
X185702798Y-122407798D01*
X185692073Y-122417519D01*
X185680447Y-122426142D01*
X185668031Y-122433583D01*
X185654946Y-122439772D01*
X185641317Y-122444649D01*
X185627276Y-122448166D01*
X185612958Y-122450290D01*
X185598500Y-122451000D01*
X185253500Y-122451000D01*
X185239042Y-122450290D01*
X185224724Y-122448166D01*
X185210683Y-122444649D01*
X185197054Y-122439772D01*
X185183969Y-122433583D01*
X185171553Y-122426142D01*
X185159927Y-122417519D01*
X185149202Y-122407798D01*
X185139481Y-122397073D01*
X185130858Y-122385447D01*
X185123417Y-122373031D01*
X185117228Y-122359946D01*
X185112351Y-122346317D01*
X185108834Y-122332276D01*
X185106710Y-122317958D01*
X185106000Y-122303500D01*
X185106000Y-122008500D01*
X185106710Y-121994042D01*
X185108834Y-121979724D01*
X185112351Y-121965683D01*
X185117228Y-121952054D01*
X185123417Y-121938969D01*
X185130858Y-121926553D01*
X185139481Y-121914927D01*
X185149202Y-121904202D01*
X185159927Y-121894481D01*
X185171553Y-121885858D01*
X185183969Y-121878417D01*
X185197054Y-121872228D01*
X185210683Y-121867351D01*
X185224724Y-121863834D01*
X185239042Y-121861710D01*
X185253500Y-121861000D01*
X185598500Y-121861000D01*
X185612958Y-121861710D01*
X185612958Y-121861710D01*
G37*
D33*
X185426000Y-122156000D03*
D32*
G36*
X187899958Y-114994710D02*
G01*
X187914276Y-114996834D01*
X187928317Y-115000351D01*
X187941946Y-115005228D01*
X187955031Y-115011417D01*
X187967447Y-115018858D01*
X187979073Y-115027481D01*
X187989798Y-115037202D01*
X187999519Y-115047927D01*
X188008142Y-115059553D01*
X188015583Y-115071969D01*
X188021772Y-115085054D01*
X188026649Y-115098683D01*
X188030166Y-115112724D01*
X188032290Y-115127042D01*
X188033000Y-115141500D01*
X188033000Y-115486500D01*
X188032290Y-115500958D01*
X188030166Y-115515276D01*
X188026649Y-115529317D01*
X188021772Y-115542946D01*
X188015583Y-115556031D01*
X188008142Y-115568447D01*
X187999519Y-115580073D01*
X187989798Y-115590798D01*
X187979073Y-115600519D01*
X187967447Y-115609142D01*
X187955031Y-115616583D01*
X187941946Y-115622772D01*
X187928317Y-115627649D01*
X187914276Y-115631166D01*
X187899958Y-115633290D01*
X187885500Y-115634000D01*
X187590500Y-115634000D01*
X187576042Y-115633290D01*
X187561724Y-115631166D01*
X187547683Y-115627649D01*
X187534054Y-115622772D01*
X187520969Y-115616583D01*
X187508553Y-115609142D01*
X187496927Y-115600519D01*
X187486202Y-115590798D01*
X187476481Y-115580073D01*
X187467858Y-115568447D01*
X187460417Y-115556031D01*
X187454228Y-115542946D01*
X187449351Y-115529317D01*
X187445834Y-115515276D01*
X187443710Y-115500958D01*
X187443000Y-115486500D01*
X187443000Y-115141500D01*
X187443710Y-115127042D01*
X187445834Y-115112724D01*
X187449351Y-115098683D01*
X187454228Y-115085054D01*
X187460417Y-115071969D01*
X187467858Y-115059553D01*
X187476481Y-115047927D01*
X187486202Y-115037202D01*
X187496927Y-115027481D01*
X187508553Y-115018858D01*
X187520969Y-115011417D01*
X187534054Y-115005228D01*
X187547683Y-115000351D01*
X187561724Y-114996834D01*
X187576042Y-114994710D01*
X187590500Y-114994000D01*
X187885500Y-114994000D01*
X187899958Y-114994710D01*
X187899958Y-114994710D01*
G37*
D33*
X187738000Y-115314000D03*
D32*
G36*
X186929958Y-114994710D02*
G01*
X186944276Y-114996834D01*
X186958317Y-115000351D01*
X186971946Y-115005228D01*
X186985031Y-115011417D01*
X186997447Y-115018858D01*
X187009073Y-115027481D01*
X187019798Y-115037202D01*
X187029519Y-115047927D01*
X187038142Y-115059553D01*
X187045583Y-115071969D01*
X187051772Y-115085054D01*
X187056649Y-115098683D01*
X187060166Y-115112724D01*
X187062290Y-115127042D01*
X187063000Y-115141500D01*
X187063000Y-115486500D01*
X187062290Y-115500958D01*
X187060166Y-115515276D01*
X187056649Y-115529317D01*
X187051772Y-115542946D01*
X187045583Y-115556031D01*
X187038142Y-115568447D01*
X187029519Y-115580073D01*
X187019798Y-115590798D01*
X187009073Y-115600519D01*
X186997447Y-115609142D01*
X186985031Y-115616583D01*
X186971946Y-115622772D01*
X186958317Y-115627649D01*
X186944276Y-115631166D01*
X186929958Y-115633290D01*
X186915500Y-115634000D01*
X186620500Y-115634000D01*
X186606042Y-115633290D01*
X186591724Y-115631166D01*
X186577683Y-115627649D01*
X186564054Y-115622772D01*
X186550969Y-115616583D01*
X186538553Y-115609142D01*
X186526927Y-115600519D01*
X186516202Y-115590798D01*
X186506481Y-115580073D01*
X186497858Y-115568447D01*
X186490417Y-115556031D01*
X186484228Y-115542946D01*
X186479351Y-115529317D01*
X186475834Y-115515276D01*
X186473710Y-115500958D01*
X186473000Y-115486500D01*
X186473000Y-115141500D01*
X186473710Y-115127042D01*
X186475834Y-115112724D01*
X186479351Y-115098683D01*
X186484228Y-115085054D01*
X186490417Y-115071969D01*
X186497858Y-115059553D01*
X186506481Y-115047927D01*
X186516202Y-115037202D01*
X186526927Y-115027481D01*
X186538553Y-115018858D01*
X186550969Y-115011417D01*
X186564054Y-115005228D01*
X186577683Y-115000351D01*
X186591724Y-114996834D01*
X186606042Y-114994710D01*
X186620500Y-114994000D01*
X186915500Y-114994000D01*
X186929958Y-114994710D01*
X186929958Y-114994710D01*
G37*
D33*
X186768000Y-115314000D03*
D32*
G36*
X187899958Y-117494710D02*
G01*
X187914276Y-117496834D01*
X187928317Y-117500351D01*
X187941946Y-117505228D01*
X187955031Y-117511417D01*
X187967447Y-117518858D01*
X187979073Y-117527481D01*
X187989798Y-117537202D01*
X187999519Y-117547927D01*
X188008142Y-117559553D01*
X188015583Y-117571969D01*
X188021772Y-117585054D01*
X188026649Y-117598683D01*
X188030166Y-117612724D01*
X188032290Y-117627042D01*
X188033000Y-117641500D01*
X188033000Y-117986500D01*
X188032290Y-118000958D01*
X188030166Y-118015276D01*
X188026649Y-118029317D01*
X188021772Y-118042946D01*
X188015583Y-118056031D01*
X188008142Y-118068447D01*
X187999519Y-118080073D01*
X187989798Y-118090798D01*
X187979073Y-118100519D01*
X187967447Y-118109142D01*
X187955031Y-118116583D01*
X187941946Y-118122772D01*
X187928317Y-118127649D01*
X187914276Y-118131166D01*
X187899958Y-118133290D01*
X187885500Y-118134000D01*
X187590500Y-118134000D01*
X187576042Y-118133290D01*
X187561724Y-118131166D01*
X187547683Y-118127649D01*
X187534054Y-118122772D01*
X187520969Y-118116583D01*
X187508553Y-118109142D01*
X187496927Y-118100519D01*
X187486202Y-118090798D01*
X187476481Y-118080073D01*
X187467858Y-118068447D01*
X187460417Y-118056031D01*
X187454228Y-118042946D01*
X187449351Y-118029317D01*
X187445834Y-118015276D01*
X187443710Y-118000958D01*
X187443000Y-117986500D01*
X187443000Y-117641500D01*
X187443710Y-117627042D01*
X187445834Y-117612724D01*
X187449351Y-117598683D01*
X187454228Y-117585054D01*
X187460417Y-117571969D01*
X187467858Y-117559553D01*
X187476481Y-117547927D01*
X187486202Y-117537202D01*
X187496927Y-117527481D01*
X187508553Y-117518858D01*
X187520969Y-117511417D01*
X187534054Y-117505228D01*
X187547683Y-117500351D01*
X187561724Y-117496834D01*
X187576042Y-117494710D01*
X187590500Y-117494000D01*
X187885500Y-117494000D01*
X187899958Y-117494710D01*
X187899958Y-117494710D01*
G37*
D33*
X187738000Y-117814000D03*
D32*
G36*
X186929958Y-117494710D02*
G01*
X186944276Y-117496834D01*
X186958317Y-117500351D01*
X186971946Y-117505228D01*
X186985031Y-117511417D01*
X186997447Y-117518858D01*
X187009073Y-117527481D01*
X187019798Y-117537202D01*
X187029519Y-117547927D01*
X187038142Y-117559553D01*
X187045583Y-117571969D01*
X187051772Y-117585054D01*
X187056649Y-117598683D01*
X187060166Y-117612724D01*
X187062290Y-117627042D01*
X187063000Y-117641500D01*
X187063000Y-117986500D01*
X187062290Y-118000958D01*
X187060166Y-118015276D01*
X187056649Y-118029317D01*
X187051772Y-118042946D01*
X187045583Y-118056031D01*
X187038142Y-118068447D01*
X187029519Y-118080073D01*
X187019798Y-118090798D01*
X187009073Y-118100519D01*
X186997447Y-118109142D01*
X186985031Y-118116583D01*
X186971946Y-118122772D01*
X186958317Y-118127649D01*
X186944276Y-118131166D01*
X186929958Y-118133290D01*
X186915500Y-118134000D01*
X186620500Y-118134000D01*
X186606042Y-118133290D01*
X186591724Y-118131166D01*
X186577683Y-118127649D01*
X186564054Y-118122772D01*
X186550969Y-118116583D01*
X186538553Y-118109142D01*
X186526927Y-118100519D01*
X186516202Y-118090798D01*
X186506481Y-118080073D01*
X186497858Y-118068447D01*
X186490417Y-118056031D01*
X186484228Y-118042946D01*
X186479351Y-118029317D01*
X186475834Y-118015276D01*
X186473710Y-118000958D01*
X186473000Y-117986500D01*
X186473000Y-117641500D01*
X186473710Y-117627042D01*
X186475834Y-117612724D01*
X186479351Y-117598683D01*
X186484228Y-117585054D01*
X186490417Y-117571969D01*
X186497858Y-117559553D01*
X186506481Y-117547927D01*
X186516202Y-117537202D01*
X186526927Y-117527481D01*
X186538553Y-117518858D01*
X186550969Y-117511417D01*
X186564054Y-117505228D01*
X186577683Y-117500351D01*
X186591724Y-117496834D01*
X186606042Y-117494710D01*
X186620500Y-117494000D01*
X186915500Y-117494000D01*
X186929958Y-117494710D01*
X186929958Y-117494710D01*
G37*
D33*
X186768000Y-117814000D03*
D32*
G36*
X186929958Y-116244710D02*
G01*
X186944276Y-116246834D01*
X186958317Y-116250351D01*
X186971946Y-116255228D01*
X186985031Y-116261417D01*
X186997447Y-116268858D01*
X187009073Y-116277481D01*
X187019798Y-116287202D01*
X187029519Y-116297927D01*
X187038142Y-116309553D01*
X187045583Y-116321969D01*
X187051772Y-116335054D01*
X187056649Y-116348683D01*
X187060166Y-116362724D01*
X187062290Y-116377042D01*
X187063000Y-116391500D01*
X187063000Y-116736500D01*
X187062290Y-116750958D01*
X187060166Y-116765276D01*
X187056649Y-116779317D01*
X187051772Y-116792946D01*
X187045583Y-116806031D01*
X187038142Y-116818447D01*
X187029519Y-116830073D01*
X187019798Y-116840798D01*
X187009073Y-116850519D01*
X186997447Y-116859142D01*
X186985031Y-116866583D01*
X186971946Y-116872772D01*
X186958317Y-116877649D01*
X186944276Y-116881166D01*
X186929958Y-116883290D01*
X186915500Y-116884000D01*
X186620500Y-116884000D01*
X186606042Y-116883290D01*
X186591724Y-116881166D01*
X186577683Y-116877649D01*
X186564054Y-116872772D01*
X186550969Y-116866583D01*
X186538553Y-116859142D01*
X186526927Y-116850519D01*
X186516202Y-116840798D01*
X186506481Y-116830073D01*
X186497858Y-116818447D01*
X186490417Y-116806031D01*
X186484228Y-116792946D01*
X186479351Y-116779317D01*
X186475834Y-116765276D01*
X186473710Y-116750958D01*
X186473000Y-116736500D01*
X186473000Y-116391500D01*
X186473710Y-116377042D01*
X186475834Y-116362724D01*
X186479351Y-116348683D01*
X186484228Y-116335054D01*
X186490417Y-116321969D01*
X186497858Y-116309553D01*
X186506481Y-116297927D01*
X186516202Y-116287202D01*
X186526927Y-116277481D01*
X186538553Y-116268858D01*
X186550969Y-116261417D01*
X186564054Y-116255228D01*
X186577683Y-116250351D01*
X186591724Y-116246834D01*
X186606042Y-116244710D01*
X186620500Y-116244000D01*
X186915500Y-116244000D01*
X186929958Y-116244710D01*
X186929958Y-116244710D01*
G37*
D33*
X186768000Y-116564000D03*
D32*
G36*
X187899958Y-116244710D02*
G01*
X187914276Y-116246834D01*
X187928317Y-116250351D01*
X187941946Y-116255228D01*
X187955031Y-116261417D01*
X187967447Y-116268858D01*
X187979073Y-116277481D01*
X187989798Y-116287202D01*
X187999519Y-116297927D01*
X188008142Y-116309553D01*
X188015583Y-116321969D01*
X188021772Y-116335054D01*
X188026649Y-116348683D01*
X188030166Y-116362724D01*
X188032290Y-116377042D01*
X188033000Y-116391500D01*
X188033000Y-116736500D01*
X188032290Y-116750958D01*
X188030166Y-116765276D01*
X188026649Y-116779317D01*
X188021772Y-116792946D01*
X188015583Y-116806031D01*
X188008142Y-116818447D01*
X187999519Y-116830073D01*
X187989798Y-116840798D01*
X187979073Y-116850519D01*
X187967447Y-116859142D01*
X187955031Y-116866583D01*
X187941946Y-116872772D01*
X187928317Y-116877649D01*
X187914276Y-116881166D01*
X187899958Y-116883290D01*
X187885500Y-116884000D01*
X187590500Y-116884000D01*
X187576042Y-116883290D01*
X187561724Y-116881166D01*
X187547683Y-116877649D01*
X187534054Y-116872772D01*
X187520969Y-116866583D01*
X187508553Y-116859142D01*
X187496927Y-116850519D01*
X187486202Y-116840798D01*
X187476481Y-116830073D01*
X187467858Y-116818447D01*
X187460417Y-116806031D01*
X187454228Y-116792946D01*
X187449351Y-116779317D01*
X187445834Y-116765276D01*
X187443710Y-116750958D01*
X187443000Y-116736500D01*
X187443000Y-116391500D01*
X187443710Y-116377042D01*
X187445834Y-116362724D01*
X187449351Y-116348683D01*
X187454228Y-116335054D01*
X187460417Y-116321969D01*
X187467858Y-116309553D01*
X187476481Y-116297927D01*
X187486202Y-116287202D01*
X187496927Y-116277481D01*
X187508553Y-116268858D01*
X187520969Y-116261417D01*
X187534054Y-116255228D01*
X187547683Y-116250351D01*
X187561724Y-116246834D01*
X187576042Y-116244710D01*
X187590500Y-116244000D01*
X187885500Y-116244000D01*
X187899958Y-116244710D01*
X187899958Y-116244710D01*
G37*
D33*
X187738000Y-116564000D03*
D32*
G36*
X168472958Y-115431710D02*
G01*
X168487276Y-115433834D01*
X168501317Y-115437351D01*
X168514946Y-115442228D01*
X168528031Y-115448417D01*
X168540447Y-115455858D01*
X168552073Y-115464481D01*
X168562798Y-115474202D01*
X168572519Y-115484927D01*
X168581142Y-115496553D01*
X168588583Y-115508969D01*
X168594772Y-115522054D01*
X168599649Y-115535683D01*
X168603166Y-115549724D01*
X168605290Y-115564042D01*
X168606000Y-115578500D01*
X168606000Y-115923500D01*
X168605290Y-115937958D01*
X168603166Y-115952276D01*
X168599649Y-115966317D01*
X168594772Y-115979946D01*
X168588583Y-115993031D01*
X168581142Y-116005447D01*
X168572519Y-116017073D01*
X168562798Y-116027798D01*
X168552073Y-116037519D01*
X168540447Y-116046142D01*
X168528031Y-116053583D01*
X168514946Y-116059772D01*
X168501317Y-116064649D01*
X168487276Y-116068166D01*
X168472958Y-116070290D01*
X168458500Y-116071000D01*
X168163500Y-116071000D01*
X168149042Y-116070290D01*
X168134724Y-116068166D01*
X168120683Y-116064649D01*
X168107054Y-116059772D01*
X168093969Y-116053583D01*
X168081553Y-116046142D01*
X168069927Y-116037519D01*
X168059202Y-116027798D01*
X168049481Y-116017073D01*
X168040858Y-116005447D01*
X168033417Y-115993031D01*
X168027228Y-115979946D01*
X168022351Y-115966317D01*
X168018834Y-115952276D01*
X168016710Y-115937958D01*
X168016000Y-115923500D01*
X168016000Y-115578500D01*
X168016710Y-115564042D01*
X168018834Y-115549724D01*
X168022351Y-115535683D01*
X168027228Y-115522054D01*
X168033417Y-115508969D01*
X168040858Y-115496553D01*
X168049481Y-115484927D01*
X168059202Y-115474202D01*
X168069927Y-115464481D01*
X168081553Y-115455858D01*
X168093969Y-115448417D01*
X168107054Y-115442228D01*
X168120683Y-115437351D01*
X168134724Y-115433834D01*
X168149042Y-115431710D01*
X168163500Y-115431000D01*
X168458500Y-115431000D01*
X168472958Y-115431710D01*
X168472958Y-115431710D01*
G37*
D33*
X168311000Y-115751000D03*
D32*
G36*
X169442958Y-115431710D02*
G01*
X169457276Y-115433834D01*
X169471317Y-115437351D01*
X169484946Y-115442228D01*
X169498031Y-115448417D01*
X169510447Y-115455858D01*
X169522073Y-115464481D01*
X169532798Y-115474202D01*
X169542519Y-115484927D01*
X169551142Y-115496553D01*
X169558583Y-115508969D01*
X169564772Y-115522054D01*
X169569649Y-115535683D01*
X169573166Y-115549724D01*
X169575290Y-115564042D01*
X169576000Y-115578500D01*
X169576000Y-115923500D01*
X169575290Y-115937958D01*
X169573166Y-115952276D01*
X169569649Y-115966317D01*
X169564772Y-115979946D01*
X169558583Y-115993031D01*
X169551142Y-116005447D01*
X169542519Y-116017073D01*
X169532798Y-116027798D01*
X169522073Y-116037519D01*
X169510447Y-116046142D01*
X169498031Y-116053583D01*
X169484946Y-116059772D01*
X169471317Y-116064649D01*
X169457276Y-116068166D01*
X169442958Y-116070290D01*
X169428500Y-116071000D01*
X169133500Y-116071000D01*
X169119042Y-116070290D01*
X169104724Y-116068166D01*
X169090683Y-116064649D01*
X169077054Y-116059772D01*
X169063969Y-116053583D01*
X169051553Y-116046142D01*
X169039927Y-116037519D01*
X169029202Y-116027798D01*
X169019481Y-116017073D01*
X169010858Y-116005447D01*
X169003417Y-115993031D01*
X168997228Y-115979946D01*
X168992351Y-115966317D01*
X168988834Y-115952276D01*
X168986710Y-115937958D01*
X168986000Y-115923500D01*
X168986000Y-115578500D01*
X168986710Y-115564042D01*
X168988834Y-115549724D01*
X168992351Y-115535683D01*
X168997228Y-115522054D01*
X169003417Y-115508969D01*
X169010858Y-115496553D01*
X169019481Y-115484927D01*
X169029202Y-115474202D01*
X169039927Y-115464481D01*
X169051553Y-115455858D01*
X169063969Y-115448417D01*
X169077054Y-115442228D01*
X169090683Y-115437351D01*
X169104724Y-115433834D01*
X169119042Y-115431710D01*
X169133500Y-115431000D01*
X169428500Y-115431000D01*
X169442958Y-115431710D01*
X169442958Y-115431710D01*
G37*
D33*
X169281000Y-115751000D03*
D32*
G36*
X171982958Y-115431710D02*
G01*
X171997276Y-115433834D01*
X172011317Y-115437351D01*
X172024946Y-115442228D01*
X172038031Y-115448417D01*
X172050447Y-115455858D01*
X172062073Y-115464481D01*
X172072798Y-115474202D01*
X172082519Y-115484927D01*
X172091142Y-115496553D01*
X172098583Y-115508969D01*
X172104772Y-115522054D01*
X172109649Y-115535683D01*
X172113166Y-115549724D01*
X172115290Y-115564042D01*
X172116000Y-115578500D01*
X172116000Y-115923500D01*
X172115290Y-115937958D01*
X172113166Y-115952276D01*
X172109649Y-115966317D01*
X172104772Y-115979946D01*
X172098583Y-115993031D01*
X172091142Y-116005447D01*
X172082519Y-116017073D01*
X172072798Y-116027798D01*
X172062073Y-116037519D01*
X172050447Y-116046142D01*
X172038031Y-116053583D01*
X172024946Y-116059772D01*
X172011317Y-116064649D01*
X171997276Y-116068166D01*
X171982958Y-116070290D01*
X171968500Y-116071000D01*
X171673500Y-116071000D01*
X171659042Y-116070290D01*
X171644724Y-116068166D01*
X171630683Y-116064649D01*
X171617054Y-116059772D01*
X171603969Y-116053583D01*
X171591553Y-116046142D01*
X171579927Y-116037519D01*
X171569202Y-116027798D01*
X171559481Y-116017073D01*
X171550858Y-116005447D01*
X171543417Y-115993031D01*
X171537228Y-115979946D01*
X171532351Y-115966317D01*
X171528834Y-115952276D01*
X171526710Y-115937958D01*
X171526000Y-115923500D01*
X171526000Y-115578500D01*
X171526710Y-115564042D01*
X171528834Y-115549724D01*
X171532351Y-115535683D01*
X171537228Y-115522054D01*
X171543417Y-115508969D01*
X171550858Y-115496553D01*
X171559481Y-115484927D01*
X171569202Y-115474202D01*
X171579927Y-115464481D01*
X171591553Y-115455858D01*
X171603969Y-115448417D01*
X171617054Y-115442228D01*
X171630683Y-115437351D01*
X171644724Y-115433834D01*
X171659042Y-115431710D01*
X171673500Y-115431000D01*
X171968500Y-115431000D01*
X171982958Y-115431710D01*
X171982958Y-115431710D01*
G37*
D33*
X171821000Y-115751000D03*
D32*
G36*
X171012958Y-115431710D02*
G01*
X171027276Y-115433834D01*
X171041317Y-115437351D01*
X171054946Y-115442228D01*
X171068031Y-115448417D01*
X171080447Y-115455858D01*
X171092073Y-115464481D01*
X171102798Y-115474202D01*
X171112519Y-115484927D01*
X171121142Y-115496553D01*
X171128583Y-115508969D01*
X171134772Y-115522054D01*
X171139649Y-115535683D01*
X171143166Y-115549724D01*
X171145290Y-115564042D01*
X171146000Y-115578500D01*
X171146000Y-115923500D01*
X171145290Y-115937958D01*
X171143166Y-115952276D01*
X171139649Y-115966317D01*
X171134772Y-115979946D01*
X171128583Y-115993031D01*
X171121142Y-116005447D01*
X171112519Y-116017073D01*
X171102798Y-116027798D01*
X171092073Y-116037519D01*
X171080447Y-116046142D01*
X171068031Y-116053583D01*
X171054946Y-116059772D01*
X171041317Y-116064649D01*
X171027276Y-116068166D01*
X171012958Y-116070290D01*
X170998500Y-116071000D01*
X170703500Y-116071000D01*
X170689042Y-116070290D01*
X170674724Y-116068166D01*
X170660683Y-116064649D01*
X170647054Y-116059772D01*
X170633969Y-116053583D01*
X170621553Y-116046142D01*
X170609927Y-116037519D01*
X170599202Y-116027798D01*
X170589481Y-116017073D01*
X170580858Y-116005447D01*
X170573417Y-115993031D01*
X170567228Y-115979946D01*
X170562351Y-115966317D01*
X170558834Y-115952276D01*
X170556710Y-115937958D01*
X170556000Y-115923500D01*
X170556000Y-115578500D01*
X170556710Y-115564042D01*
X170558834Y-115549724D01*
X170562351Y-115535683D01*
X170567228Y-115522054D01*
X170573417Y-115508969D01*
X170580858Y-115496553D01*
X170589481Y-115484927D01*
X170599202Y-115474202D01*
X170609927Y-115464481D01*
X170621553Y-115455858D01*
X170633969Y-115448417D01*
X170647054Y-115442228D01*
X170660683Y-115437351D01*
X170674724Y-115433834D01*
X170689042Y-115431710D01*
X170703500Y-115431000D01*
X170998500Y-115431000D01*
X171012958Y-115431710D01*
X171012958Y-115431710D01*
G37*
D33*
X170851000Y-115751000D03*
D32*
G36*
X173542958Y-115431710D02*
G01*
X173557276Y-115433834D01*
X173571317Y-115437351D01*
X173584946Y-115442228D01*
X173598031Y-115448417D01*
X173610447Y-115455858D01*
X173622073Y-115464481D01*
X173632798Y-115474202D01*
X173642519Y-115484927D01*
X173651142Y-115496553D01*
X173658583Y-115508969D01*
X173664772Y-115522054D01*
X173669649Y-115535683D01*
X173673166Y-115549724D01*
X173675290Y-115564042D01*
X173676000Y-115578500D01*
X173676000Y-115923500D01*
X173675290Y-115937958D01*
X173673166Y-115952276D01*
X173669649Y-115966317D01*
X173664772Y-115979946D01*
X173658583Y-115993031D01*
X173651142Y-116005447D01*
X173642519Y-116017073D01*
X173632798Y-116027798D01*
X173622073Y-116037519D01*
X173610447Y-116046142D01*
X173598031Y-116053583D01*
X173584946Y-116059772D01*
X173571317Y-116064649D01*
X173557276Y-116068166D01*
X173542958Y-116070290D01*
X173528500Y-116071000D01*
X173233500Y-116071000D01*
X173219042Y-116070290D01*
X173204724Y-116068166D01*
X173190683Y-116064649D01*
X173177054Y-116059772D01*
X173163969Y-116053583D01*
X173151553Y-116046142D01*
X173139927Y-116037519D01*
X173129202Y-116027798D01*
X173119481Y-116017073D01*
X173110858Y-116005447D01*
X173103417Y-115993031D01*
X173097228Y-115979946D01*
X173092351Y-115966317D01*
X173088834Y-115952276D01*
X173086710Y-115937958D01*
X173086000Y-115923500D01*
X173086000Y-115578500D01*
X173086710Y-115564042D01*
X173088834Y-115549724D01*
X173092351Y-115535683D01*
X173097228Y-115522054D01*
X173103417Y-115508969D01*
X173110858Y-115496553D01*
X173119481Y-115484927D01*
X173129202Y-115474202D01*
X173139927Y-115464481D01*
X173151553Y-115455858D01*
X173163969Y-115448417D01*
X173177054Y-115442228D01*
X173190683Y-115437351D01*
X173204724Y-115433834D01*
X173219042Y-115431710D01*
X173233500Y-115431000D01*
X173528500Y-115431000D01*
X173542958Y-115431710D01*
X173542958Y-115431710D01*
G37*
D33*
X173381000Y-115751000D03*
D32*
G36*
X174512958Y-115431710D02*
G01*
X174527276Y-115433834D01*
X174541317Y-115437351D01*
X174554946Y-115442228D01*
X174568031Y-115448417D01*
X174580447Y-115455858D01*
X174592073Y-115464481D01*
X174602798Y-115474202D01*
X174612519Y-115484927D01*
X174621142Y-115496553D01*
X174628583Y-115508969D01*
X174634772Y-115522054D01*
X174639649Y-115535683D01*
X174643166Y-115549724D01*
X174645290Y-115564042D01*
X174646000Y-115578500D01*
X174646000Y-115923500D01*
X174645290Y-115937958D01*
X174643166Y-115952276D01*
X174639649Y-115966317D01*
X174634772Y-115979946D01*
X174628583Y-115993031D01*
X174621142Y-116005447D01*
X174612519Y-116017073D01*
X174602798Y-116027798D01*
X174592073Y-116037519D01*
X174580447Y-116046142D01*
X174568031Y-116053583D01*
X174554946Y-116059772D01*
X174541317Y-116064649D01*
X174527276Y-116068166D01*
X174512958Y-116070290D01*
X174498500Y-116071000D01*
X174203500Y-116071000D01*
X174189042Y-116070290D01*
X174174724Y-116068166D01*
X174160683Y-116064649D01*
X174147054Y-116059772D01*
X174133969Y-116053583D01*
X174121553Y-116046142D01*
X174109927Y-116037519D01*
X174099202Y-116027798D01*
X174089481Y-116017073D01*
X174080858Y-116005447D01*
X174073417Y-115993031D01*
X174067228Y-115979946D01*
X174062351Y-115966317D01*
X174058834Y-115952276D01*
X174056710Y-115937958D01*
X174056000Y-115923500D01*
X174056000Y-115578500D01*
X174056710Y-115564042D01*
X174058834Y-115549724D01*
X174062351Y-115535683D01*
X174067228Y-115522054D01*
X174073417Y-115508969D01*
X174080858Y-115496553D01*
X174089481Y-115484927D01*
X174099202Y-115474202D01*
X174109927Y-115464481D01*
X174121553Y-115455858D01*
X174133969Y-115448417D01*
X174147054Y-115442228D01*
X174160683Y-115437351D01*
X174174724Y-115433834D01*
X174189042Y-115431710D01*
X174203500Y-115431000D01*
X174498500Y-115431000D01*
X174512958Y-115431710D01*
X174512958Y-115431710D01*
G37*
D33*
X174351000Y-115751000D03*
D32*
G36*
X177032958Y-115441710D02*
G01*
X177047276Y-115443834D01*
X177061317Y-115447351D01*
X177074946Y-115452228D01*
X177088031Y-115458417D01*
X177100447Y-115465858D01*
X177112073Y-115474481D01*
X177122798Y-115484202D01*
X177132519Y-115494927D01*
X177141142Y-115506553D01*
X177148583Y-115518969D01*
X177154772Y-115532054D01*
X177159649Y-115545683D01*
X177163166Y-115559724D01*
X177165290Y-115574042D01*
X177166000Y-115588500D01*
X177166000Y-115933500D01*
X177165290Y-115947958D01*
X177163166Y-115962276D01*
X177159649Y-115976317D01*
X177154772Y-115989946D01*
X177148583Y-116003031D01*
X177141142Y-116015447D01*
X177132519Y-116027073D01*
X177122798Y-116037798D01*
X177112073Y-116047519D01*
X177100447Y-116056142D01*
X177088031Y-116063583D01*
X177074946Y-116069772D01*
X177061317Y-116074649D01*
X177047276Y-116078166D01*
X177032958Y-116080290D01*
X177018500Y-116081000D01*
X176723500Y-116081000D01*
X176709042Y-116080290D01*
X176694724Y-116078166D01*
X176680683Y-116074649D01*
X176667054Y-116069772D01*
X176653969Y-116063583D01*
X176641553Y-116056142D01*
X176629927Y-116047519D01*
X176619202Y-116037798D01*
X176609481Y-116027073D01*
X176600858Y-116015447D01*
X176593417Y-116003031D01*
X176587228Y-115989946D01*
X176582351Y-115976317D01*
X176578834Y-115962276D01*
X176576710Y-115947958D01*
X176576000Y-115933500D01*
X176576000Y-115588500D01*
X176576710Y-115574042D01*
X176578834Y-115559724D01*
X176582351Y-115545683D01*
X176587228Y-115532054D01*
X176593417Y-115518969D01*
X176600858Y-115506553D01*
X176609481Y-115494927D01*
X176619202Y-115484202D01*
X176629927Y-115474481D01*
X176641553Y-115465858D01*
X176653969Y-115458417D01*
X176667054Y-115452228D01*
X176680683Y-115447351D01*
X176694724Y-115443834D01*
X176709042Y-115441710D01*
X176723500Y-115441000D01*
X177018500Y-115441000D01*
X177032958Y-115441710D01*
X177032958Y-115441710D01*
G37*
D33*
X176871000Y-115761000D03*
D32*
G36*
X176062958Y-115441710D02*
G01*
X176077276Y-115443834D01*
X176091317Y-115447351D01*
X176104946Y-115452228D01*
X176118031Y-115458417D01*
X176130447Y-115465858D01*
X176142073Y-115474481D01*
X176152798Y-115484202D01*
X176162519Y-115494927D01*
X176171142Y-115506553D01*
X176178583Y-115518969D01*
X176184772Y-115532054D01*
X176189649Y-115545683D01*
X176193166Y-115559724D01*
X176195290Y-115574042D01*
X176196000Y-115588500D01*
X176196000Y-115933500D01*
X176195290Y-115947958D01*
X176193166Y-115962276D01*
X176189649Y-115976317D01*
X176184772Y-115989946D01*
X176178583Y-116003031D01*
X176171142Y-116015447D01*
X176162519Y-116027073D01*
X176152798Y-116037798D01*
X176142073Y-116047519D01*
X176130447Y-116056142D01*
X176118031Y-116063583D01*
X176104946Y-116069772D01*
X176091317Y-116074649D01*
X176077276Y-116078166D01*
X176062958Y-116080290D01*
X176048500Y-116081000D01*
X175753500Y-116081000D01*
X175739042Y-116080290D01*
X175724724Y-116078166D01*
X175710683Y-116074649D01*
X175697054Y-116069772D01*
X175683969Y-116063583D01*
X175671553Y-116056142D01*
X175659927Y-116047519D01*
X175649202Y-116037798D01*
X175639481Y-116027073D01*
X175630858Y-116015447D01*
X175623417Y-116003031D01*
X175617228Y-115989946D01*
X175612351Y-115976317D01*
X175608834Y-115962276D01*
X175606710Y-115947958D01*
X175606000Y-115933500D01*
X175606000Y-115588500D01*
X175606710Y-115574042D01*
X175608834Y-115559724D01*
X175612351Y-115545683D01*
X175617228Y-115532054D01*
X175623417Y-115518969D01*
X175630858Y-115506553D01*
X175639481Y-115494927D01*
X175649202Y-115484202D01*
X175659927Y-115474481D01*
X175671553Y-115465858D01*
X175683969Y-115458417D01*
X175697054Y-115452228D01*
X175710683Y-115447351D01*
X175724724Y-115443834D01*
X175739042Y-115441710D01*
X175753500Y-115441000D01*
X176048500Y-115441000D01*
X176062958Y-115441710D01*
X176062958Y-115441710D01*
G37*
D33*
X175901000Y-115761000D03*
D32*
G36*
X178632958Y-115441710D02*
G01*
X178647276Y-115443834D01*
X178661317Y-115447351D01*
X178674946Y-115452228D01*
X178688031Y-115458417D01*
X178700447Y-115465858D01*
X178712073Y-115474481D01*
X178722798Y-115484202D01*
X178732519Y-115494927D01*
X178741142Y-115506553D01*
X178748583Y-115518969D01*
X178754772Y-115532054D01*
X178759649Y-115545683D01*
X178763166Y-115559724D01*
X178765290Y-115574042D01*
X178766000Y-115588500D01*
X178766000Y-115933500D01*
X178765290Y-115947958D01*
X178763166Y-115962276D01*
X178759649Y-115976317D01*
X178754772Y-115989946D01*
X178748583Y-116003031D01*
X178741142Y-116015447D01*
X178732519Y-116027073D01*
X178722798Y-116037798D01*
X178712073Y-116047519D01*
X178700447Y-116056142D01*
X178688031Y-116063583D01*
X178674946Y-116069772D01*
X178661317Y-116074649D01*
X178647276Y-116078166D01*
X178632958Y-116080290D01*
X178618500Y-116081000D01*
X178323500Y-116081000D01*
X178309042Y-116080290D01*
X178294724Y-116078166D01*
X178280683Y-116074649D01*
X178267054Y-116069772D01*
X178253969Y-116063583D01*
X178241553Y-116056142D01*
X178229927Y-116047519D01*
X178219202Y-116037798D01*
X178209481Y-116027073D01*
X178200858Y-116015447D01*
X178193417Y-116003031D01*
X178187228Y-115989946D01*
X178182351Y-115976317D01*
X178178834Y-115962276D01*
X178176710Y-115947958D01*
X178176000Y-115933500D01*
X178176000Y-115588500D01*
X178176710Y-115574042D01*
X178178834Y-115559724D01*
X178182351Y-115545683D01*
X178187228Y-115532054D01*
X178193417Y-115518969D01*
X178200858Y-115506553D01*
X178209481Y-115494927D01*
X178219202Y-115484202D01*
X178229927Y-115474481D01*
X178241553Y-115465858D01*
X178253969Y-115458417D01*
X178267054Y-115452228D01*
X178280683Y-115447351D01*
X178294724Y-115443834D01*
X178309042Y-115441710D01*
X178323500Y-115441000D01*
X178618500Y-115441000D01*
X178632958Y-115441710D01*
X178632958Y-115441710D01*
G37*
D33*
X178471000Y-115761000D03*
D32*
G36*
X179602958Y-115441710D02*
G01*
X179617276Y-115443834D01*
X179631317Y-115447351D01*
X179644946Y-115452228D01*
X179658031Y-115458417D01*
X179670447Y-115465858D01*
X179682073Y-115474481D01*
X179692798Y-115484202D01*
X179702519Y-115494927D01*
X179711142Y-115506553D01*
X179718583Y-115518969D01*
X179724772Y-115532054D01*
X179729649Y-115545683D01*
X179733166Y-115559724D01*
X179735290Y-115574042D01*
X179736000Y-115588500D01*
X179736000Y-115933500D01*
X179735290Y-115947958D01*
X179733166Y-115962276D01*
X179729649Y-115976317D01*
X179724772Y-115989946D01*
X179718583Y-116003031D01*
X179711142Y-116015447D01*
X179702519Y-116027073D01*
X179692798Y-116037798D01*
X179682073Y-116047519D01*
X179670447Y-116056142D01*
X179658031Y-116063583D01*
X179644946Y-116069772D01*
X179631317Y-116074649D01*
X179617276Y-116078166D01*
X179602958Y-116080290D01*
X179588500Y-116081000D01*
X179293500Y-116081000D01*
X179279042Y-116080290D01*
X179264724Y-116078166D01*
X179250683Y-116074649D01*
X179237054Y-116069772D01*
X179223969Y-116063583D01*
X179211553Y-116056142D01*
X179199927Y-116047519D01*
X179189202Y-116037798D01*
X179179481Y-116027073D01*
X179170858Y-116015447D01*
X179163417Y-116003031D01*
X179157228Y-115989946D01*
X179152351Y-115976317D01*
X179148834Y-115962276D01*
X179146710Y-115947958D01*
X179146000Y-115933500D01*
X179146000Y-115588500D01*
X179146710Y-115574042D01*
X179148834Y-115559724D01*
X179152351Y-115545683D01*
X179157228Y-115532054D01*
X179163417Y-115518969D01*
X179170858Y-115506553D01*
X179179481Y-115494927D01*
X179189202Y-115484202D01*
X179199927Y-115474481D01*
X179211553Y-115465858D01*
X179223969Y-115458417D01*
X179237054Y-115452228D01*
X179250683Y-115447351D01*
X179264724Y-115443834D01*
X179279042Y-115441710D01*
X179293500Y-115441000D01*
X179588500Y-115441000D01*
X179602958Y-115441710D01*
X179602958Y-115441710D01*
G37*
D33*
X179441000Y-115761000D03*
D34*
X186753000Y-106439000D03*
X186753000Y-109689000D03*
X186753000Y-110939000D03*
X186753000Y-114189000D03*
D35*
X168406000Y-124586000D03*
X178566000Y-117856000D03*
X170946000Y-124586000D03*
X176026000Y-117856000D03*
X173486000Y-124586000D03*
X173486000Y-117856000D03*
X176026000Y-124586000D03*
X170946000Y-117856000D03*
X178566000Y-124586000D03*
X168406000Y-117856000D03*
D36*
X141270000Y-96024000D03*
X141270000Y-96974000D03*
X141270000Y-97924000D03*
X143950000Y-97924000D03*
X143950000Y-96974000D03*
X143950000Y-96024000D03*
D37*
X142185000Y-97840000D03*
X143035000Y-97840000D03*
X143035000Y-96974000D03*
X142185000Y-96974000D03*
X143035000Y-96108000D03*
X142185000Y-96108000D03*
D38*
X182716000Y-116263500D03*
D39*
X185128500Y-120901000D03*
D38*
X182716000Y-121038500D03*
D39*
X181803500Y-120901000D03*
D38*
X183216000Y-121038500D03*
X183716000Y-121038500D03*
X184216000Y-121038500D03*
D39*
X181803500Y-120401000D03*
X181803500Y-119901000D03*
X181803500Y-119401000D03*
X181803500Y-118901000D03*
X181803500Y-118401000D03*
X181803500Y-117901000D03*
X181803500Y-117401000D03*
X181803500Y-116901000D03*
X181803500Y-116401000D03*
X185128500Y-120401000D03*
X185128500Y-119901000D03*
X185128500Y-119401000D03*
X185128500Y-118901000D03*
X185128500Y-118401000D03*
X185128500Y-117901000D03*
X185128500Y-117401000D03*
X185128500Y-116901000D03*
X185128500Y-116401000D03*
D38*
X183216000Y-116263500D03*
X183716000Y-116263500D03*
X184216000Y-116263500D03*
D40*
X173806000Y-103676000D03*
D41*
X166306000Y-96176000D03*
X166306000Y-97446000D03*
X166306000Y-98716000D03*
X166306000Y-99986000D03*
X166306000Y-101256000D03*
X166306000Y-102526000D03*
X166306000Y-103796000D03*
X166306000Y-105066000D03*
X166306000Y-106336000D03*
X166306000Y-107606000D03*
X166306000Y-108876000D03*
X166306000Y-110146000D03*
X166306000Y-111416000D03*
X166306000Y-112686000D03*
D42*
X169091000Y-113686000D03*
X170361000Y-113686000D03*
X171631000Y-113686000D03*
X172901000Y-113686000D03*
X174171000Y-113686000D03*
X175441000Y-113686000D03*
X176711000Y-113686000D03*
X177981000Y-113686000D03*
X179251000Y-113686000D03*
X180521000Y-113686000D03*
D41*
X183306000Y-112686000D03*
X183306000Y-111416000D03*
X183306000Y-110146000D03*
X183306000Y-108876000D03*
X183306000Y-107606000D03*
X183306000Y-106336000D03*
X183306000Y-105066000D03*
X183306000Y-103796000D03*
X183306000Y-102526000D03*
X183306000Y-101256000D03*
X183306000Y-99986000D03*
X183306000Y-98716000D03*
X183306000Y-97446000D03*
X183306000Y-96176000D03*
D32*
G36*
X142420116Y-114800325D02*
G01*
X142426669Y-114801297D01*
X142433094Y-114802907D01*
X142439331Y-114805138D01*
X142445319Y-114807970D01*
X142451001Y-114811376D01*
X142456322Y-114815322D01*
X142461230Y-114819770D01*
X142465678Y-114824678D01*
X142469624Y-114829999D01*
X142473030Y-114835681D01*
X142475862Y-114841669D01*
X142478093Y-114847906D01*
X142479703Y-114854331D01*
X142480675Y-114860884D01*
X142481000Y-114867500D01*
X142481000Y-115002500D01*
X142480675Y-115009116D01*
X142479703Y-115015669D01*
X142478093Y-115022094D01*
X142475862Y-115028331D01*
X142473030Y-115034319D01*
X142469624Y-115040001D01*
X142465678Y-115045322D01*
X142461230Y-115050230D01*
X142456322Y-115054678D01*
X142451001Y-115058624D01*
X142445319Y-115062030D01*
X142439331Y-115064862D01*
X142433094Y-115067093D01*
X142426669Y-115068703D01*
X142420116Y-115069675D01*
X142413500Y-115070000D01*
X142278500Y-115070000D01*
X142271884Y-115069675D01*
X142265331Y-115068703D01*
X142258906Y-115067093D01*
X142252669Y-115064862D01*
X142246681Y-115062030D01*
X142240999Y-115058624D01*
X142235678Y-115054678D01*
X142230770Y-115050230D01*
X142226322Y-115045322D01*
X142222376Y-115040001D01*
X142218970Y-115034319D01*
X142216138Y-115028331D01*
X142213907Y-115022094D01*
X142212297Y-115015669D01*
X142211325Y-115009116D01*
X142211000Y-115002500D01*
X142211000Y-114867500D01*
X142211325Y-114860884D01*
X142212297Y-114854331D01*
X142213907Y-114847906D01*
X142216138Y-114841669D01*
X142218970Y-114835681D01*
X142222376Y-114829999D01*
X142226322Y-114824678D01*
X142230770Y-114819770D01*
X142235678Y-114815322D01*
X142240999Y-114811376D01*
X142246681Y-114807970D01*
X142252669Y-114805138D01*
X142258906Y-114802907D01*
X142265331Y-114801297D01*
X142271884Y-114800325D01*
X142278500Y-114800000D01*
X142413500Y-114800000D01*
X142420116Y-114800325D01*
X142420116Y-114800325D01*
G37*
D43*
X142346000Y-114935000D03*
D32*
G36*
X142970116Y-114800325D02*
G01*
X142976669Y-114801297D01*
X142983094Y-114802907D01*
X142989331Y-114805138D01*
X142995319Y-114807970D01*
X143001001Y-114811376D01*
X143006322Y-114815322D01*
X143011230Y-114819770D01*
X143015678Y-114824678D01*
X143019624Y-114829999D01*
X143023030Y-114835681D01*
X143025862Y-114841669D01*
X143028093Y-114847906D01*
X143029703Y-114854331D01*
X143030675Y-114860884D01*
X143031000Y-114867500D01*
X143031000Y-115002500D01*
X143030675Y-115009116D01*
X143029703Y-115015669D01*
X143028093Y-115022094D01*
X143025862Y-115028331D01*
X143023030Y-115034319D01*
X143019624Y-115040001D01*
X143015678Y-115045322D01*
X143011230Y-115050230D01*
X143006322Y-115054678D01*
X143001001Y-115058624D01*
X142995319Y-115062030D01*
X142989331Y-115064862D01*
X142983094Y-115067093D01*
X142976669Y-115068703D01*
X142970116Y-115069675D01*
X142963500Y-115070000D01*
X142828500Y-115070000D01*
X142821884Y-115069675D01*
X142815331Y-115068703D01*
X142808906Y-115067093D01*
X142802669Y-115064862D01*
X142796681Y-115062030D01*
X142790999Y-115058624D01*
X142785678Y-115054678D01*
X142780770Y-115050230D01*
X142776322Y-115045322D01*
X142772376Y-115040001D01*
X142768970Y-115034319D01*
X142766138Y-115028331D01*
X142763907Y-115022094D01*
X142762297Y-115015669D01*
X142761325Y-115009116D01*
X142761000Y-115002500D01*
X142761000Y-114867500D01*
X142761325Y-114860884D01*
X142762297Y-114854331D01*
X142763907Y-114847906D01*
X142766138Y-114841669D01*
X142768970Y-114835681D01*
X142772376Y-114829999D01*
X142776322Y-114824678D01*
X142780770Y-114819770D01*
X142785678Y-114815322D01*
X142790999Y-114811376D01*
X142796681Y-114807970D01*
X142802669Y-114805138D01*
X142808906Y-114802907D01*
X142815331Y-114801297D01*
X142821884Y-114800325D01*
X142828500Y-114800000D01*
X142963500Y-114800000D01*
X142970116Y-114800325D01*
X142970116Y-114800325D01*
G37*
D43*
X142896000Y-114935000D03*
D44*
X142851000Y-113499000D03*
X142851000Y-111799000D03*
X142151000Y-111799000D03*
X142151000Y-113499000D03*
M02*
