G04 #@! TF.GenerationSoftware,KiCad,Pcbnew,5.1.0-060a0da~80~ubuntu18.04.1*
G04 #@! TF.CreationDate,2019-05-28T03:43:47+02:00*
G04 #@! TF.ProjectId,TinyFPGA-BX,54696e79-4650-4474-912d-42582e6b6963,rev?*
G04 #@! TF.SameCoordinates,Original*
G04 #@! TF.FileFunction,Legend,Bot*
G04 #@! TF.FilePolarity,Positive*
%FSLAX46Y46*%
G04 Gerber Fmt 4.6, Leading zero omitted, Abs format (unit mm)*
G04 Created by KiCad (PCBNEW 5.1.0-060a0da~80~ubuntu18.04.1) date 2019-05-28 03:43:47*
%MOMM*%
%LPD*%
G04 APERTURE LIST*
%ADD10C,0.200000*%
%ADD11C,0.175000*%
%ADD12C,0.250000*%
%ADD13C,0.120000*%
%ADD14C,0.010000*%
G04 APERTURE END LIST*
D10*
X152293095Y-129079100D02*
X153093095Y-129079100D01*
X153093095Y-128545766D02*
X153093095Y-128393385D01*
X153055000Y-128317195D01*
X152978809Y-128241004D01*
X152826428Y-128202909D01*
X152559761Y-128202909D01*
X152407380Y-128241004D01*
X152331190Y-128317195D01*
X152293095Y-128393385D01*
X152293095Y-128545766D01*
X152331190Y-128621957D01*
X152407380Y-128698147D01*
X152559761Y-128736242D01*
X152826428Y-128736242D01*
X152978809Y-128698147D01*
X153055000Y-128621957D01*
X153093095Y-128545766D01*
X153093095Y-127707671D02*
X153093095Y-127631480D01*
X153055000Y-127555290D01*
X153016904Y-127517195D01*
X152940714Y-127479100D01*
X152788333Y-127441004D01*
X152597857Y-127441004D01*
X152445476Y-127479100D01*
X152369285Y-127517195D01*
X152331190Y-127555290D01*
X152293095Y-127631480D01*
X152293095Y-127707671D01*
X152331190Y-127783861D01*
X152369285Y-127821957D01*
X152445476Y-127860052D01*
X152597857Y-127898147D01*
X152788333Y-127898147D01*
X152940714Y-127860052D01*
X153016904Y-127821957D01*
X153055000Y-127783861D01*
X153093095Y-127707671D01*
X147980000Y-115369576D02*
X148018095Y-115445766D01*
X148018095Y-115560052D01*
X147980000Y-115674338D01*
X147903809Y-115750528D01*
X147827619Y-115788623D01*
X147675238Y-115826719D01*
X147560952Y-115826719D01*
X147408571Y-115788623D01*
X147332380Y-115750528D01*
X147256190Y-115674338D01*
X147218095Y-115560052D01*
X147218095Y-115483861D01*
X147256190Y-115369576D01*
X147294285Y-115331480D01*
X147560952Y-115331480D01*
X147560952Y-115483861D01*
D11*
X155075333Y-105985766D02*
X155075333Y-105552433D01*
X154808666Y-105785766D01*
X154808666Y-105685766D01*
X154775333Y-105619100D01*
X154742000Y-105585766D01*
X154675333Y-105552433D01*
X154508666Y-105552433D01*
X154442000Y-105585766D01*
X154408666Y-105619100D01*
X154375333Y-105685766D01*
X154375333Y-105885766D01*
X154408666Y-105952433D01*
X154442000Y-105985766D01*
X154375333Y-104885766D02*
X154375333Y-105285766D01*
X154375333Y-105085766D02*
X155075333Y-105085766D01*
X154975333Y-105152433D01*
X154908666Y-105219100D01*
X154875333Y-105285766D01*
X149362000Y-105835766D02*
X149328666Y-105869100D01*
X149295333Y-105969100D01*
X149295333Y-106035766D01*
X149328666Y-106135766D01*
X149395333Y-106202433D01*
X149462000Y-106235766D01*
X149595333Y-106269100D01*
X149695333Y-106269100D01*
X149828666Y-106235766D01*
X149895333Y-106202433D01*
X149962000Y-106135766D01*
X149995333Y-106035766D01*
X149995333Y-105969100D01*
X149962000Y-105869100D01*
X149928666Y-105835766D01*
X149295333Y-105202433D02*
X149295333Y-105535766D01*
X149995333Y-105535766D01*
X149295333Y-104969100D02*
X149995333Y-104969100D01*
X149295333Y-104569100D02*
X149695333Y-104869100D01*
X149995333Y-104569100D02*
X149595333Y-104969100D01*
D10*
X155600095Y-108743576D02*
X155600095Y-109200719D01*
X155600095Y-108972147D02*
X156400095Y-108972147D01*
X156285809Y-109048338D01*
X156209619Y-109124528D01*
X156171523Y-109200719D01*
X155676285Y-108400719D02*
X155638190Y-108362623D01*
X155600095Y-108400719D01*
X155638190Y-108438814D01*
X155676285Y-108400719D01*
X155600095Y-108400719D01*
X156323904Y-108057861D02*
X156362000Y-108019766D01*
X156400095Y-107943576D01*
X156400095Y-107753100D01*
X156362000Y-107676909D01*
X156323904Y-107638814D01*
X156247714Y-107600719D01*
X156171523Y-107600719D01*
X156057238Y-107638814D01*
X155600095Y-108095957D01*
X155600095Y-107600719D01*
X156133428Y-107334052D02*
X155600095Y-107143576D01*
X156133428Y-106953100D01*
X145948095Y-122675480D02*
X146329047Y-122942147D01*
X145948095Y-123132623D02*
X146748095Y-123132623D01*
X146748095Y-122827861D01*
X146710000Y-122751671D01*
X146671904Y-122713576D01*
X146595714Y-122675480D01*
X146481428Y-122675480D01*
X146405238Y-122713576D01*
X146367142Y-122751671D01*
X146329047Y-122827861D01*
X146329047Y-123132623D01*
X145986190Y-122370719D02*
X145948095Y-122256433D01*
X145948095Y-122065957D01*
X145986190Y-121989766D01*
X146024285Y-121951671D01*
X146100476Y-121913576D01*
X146176666Y-121913576D01*
X146252857Y-121951671D01*
X146290952Y-121989766D01*
X146329047Y-122065957D01*
X146367142Y-122218338D01*
X146405238Y-122294528D01*
X146443333Y-122332623D01*
X146519523Y-122370719D01*
X146595714Y-122370719D01*
X146671904Y-122332623D01*
X146710000Y-122294528D01*
X146748095Y-122218338D01*
X146748095Y-122027861D01*
X146710000Y-121913576D01*
X146748095Y-121685004D02*
X146748095Y-121227861D01*
X145948095Y-121456433D02*
X146748095Y-121456433D01*
X146748095Y-128288814D02*
X145948095Y-128098338D01*
X146519523Y-127945957D01*
X145948095Y-127793576D01*
X146748095Y-127603100D01*
X145948095Y-127298338D02*
X146748095Y-127298338D01*
X146748095Y-126993576D01*
X146710000Y-126917385D01*
X146671904Y-126879290D01*
X146595714Y-126841195D01*
X146481428Y-126841195D01*
X146405238Y-126879290D01*
X146367142Y-126917385D01*
X146329047Y-126993576D01*
X146329047Y-127298338D01*
D12*
X155630000Y-97891380D02*
X155058571Y-97891380D01*
X155344285Y-98891380D02*
X155344285Y-97891380D01*
X154725238Y-98891380D02*
X154725238Y-98224714D01*
X154725238Y-97891380D02*
X154772857Y-97939000D01*
X154725238Y-97986619D01*
X154677619Y-97939000D01*
X154725238Y-97891380D01*
X154725238Y-97986619D01*
X154249047Y-98224714D02*
X154249047Y-98891380D01*
X154249047Y-98319952D02*
X154201428Y-98272333D01*
X154106190Y-98224714D01*
X153963333Y-98224714D01*
X153868095Y-98272333D01*
X153820476Y-98367571D01*
X153820476Y-98891380D01*
X153439523Y-98224714D02*
X153201428Y-98891380D01*
X152963333Y-98224714D02*
X153201428Y-98891380D01*
X153296666Y-99129476D01*
X153344285Y-99177095D01*
X153439523Y-99224714D01*
X152249047Y-98367571D02*
X152582380Y-98367571D01*
X152582380Y-98891380D02*
X152582380Y-97891380D01*
X152106190Y-97891380D01*
X151725238Y-98891380D02*
X151725238Y-97891380D01*
X151344285Y-97891380D01*
X151249047Y-97939000D01*
X151201428Y-97986619D01*
X151153809Y-98081857D01*
X151153809Y-98224714D01*
X151201428Y-98319952D01*
X151249047Y-98367571D01*
X151344285Y-98415190D01*
X151725238Y-98415190D01*
X150201428Y-97939000D02*
X150296666Y-97891380D01*
X150439523Y-97891380D01*
X150582380Y-97939000D01*
X150677619Y-98034238D01*
X150725238Y-98129476D01*
X150772857Y-98319952D01*
X150772857Y-98462809D01*
X150725238Y-98653285D01*
X150677619Y-98748523D01*
X150582380Y-98843761D01*
X150439523Y-98891380D01*
X150344285Y-98891380D01*
X150201428Y-98843761D01*
X150153809Y-98796142D01*
X150153809Y-98462809D01*
X150344285Y-98462809D01*
X149772857Y-98605666D02*
X149296666Y-98605666D01*
X149868095Y-98891380D02*
X149534761Y-97891380D01*
X149201428Y-98891380D01*
X147772857Y-98367571D02*
X147630000Y-98415190D01*
X147582380Y-98462809D01*
X147534761Y-98558047D01*
X147534761Y-98700904D01*
X147582380Y-98796142D01*
X147630000Y-98843761D01*
X147725238Y-98891380D01*
X148106190Y-98891380D01*
X148106190Y-97891380D01*
X147772857Y-97891380D01*
X147677619Y-97939000D01*
X147630000Y-97986619D01*
X147582380Y-98081857D01*
X147582380Y-98177095D01*
X147630000Y-98272333D01*
X147677619Y-98319952D01*
X147772857Y-98367571D01*
X148106190Y-98367571D01*
X147201428Y-98891380D02*
X146677619Y-98224714D01*
X147201428Y-98224714D02*
X146677619Y-98891380D01*
D11*
X154375333Y-103429100D02*
X155075333Y-103429100D01*
X155075333Y-103162433D01*
X155042000Y-103095766D01*
X155008666Y-103062433D01*
X154942000Y-103029100D01*
X154842000Y-103029100D01*
X154775333Y-103062433D01*
X154742000Y-103095766D01*
X154708666Y-103162433D01*
X154708666Y-103429100D01*
X155075333Y-102729100D02*
X154508666Y-102729100D01*
X154442000Y-102695766D01*
X154408666Y-102662433D01*
X154375333Y-102595766D01*
X154375333Y-102462433D01*
X154408666Y-102395766D01*
X154442000Y-102362433D01*
X154508666Y-102329100D01*
X155075333Y-102329100D01*
X155075333Y-100972433D02*
X154508666Y-100972433D01*
X154442000Y-100939100D01*
X154408666Y-100905766D01*
X154375333Y-100839100D01*
X154375333Y-100705766D01*
X154408666Y-100639100D01*
X154442000Y-100605766D01*
X154508666Y-100572433D01*
X155075333Y-100572433D01*
X154642000Y-100239100D02*
X154642000Y-99705766D01*
X149295333Y-103329100D02*
X149295333Y-103662433D01*
X149995333Y-103662433D01*
X149662000Y-103095766D02*
X149662000Y-102862433D01*
X149295333Y-102762433D02*
X149295333Y-103095766D01*
X149995333Y-103095766D01*
X149995333Y-102762433D01*
X149295333Y-102462433D02*
X149995333Y-102462433D01*
X149995333Y-102295766D01*
X149962000Y-102195766D01*
X149895333Y-102129100D01*
X149828666Y-102095766D01*
X149695333Y-102062433D01*
X149595333Y-102062433D01*
X149462000Y-102095766D01*
X149395333Y-102129100D01*
X149328666Y-102195766D01*
X149295333Y-102295766D01*
X149295333Y-102462433D01*
X149995333Y-100972433D02*
X149428666Y-100972433D01*
X149362000Y-100939100D01*
X149328666Y-100905766D01*
X149295333Y-100839100D01*
X149295333Y-100705766D01*
X149328666Y-100639100D01*
X149362000Y-100605766D01*
X149428666Y-100572433D01*
X149995333Y-100572433D01*
X149562000Y-100239100D02*
X149562000Y-99705766D01*
X149295333Y-99972433D02*
X149828666Y-99972433D01*
X145390000Y-98332433D02*
X145423333Y-98399100D01*
X145423333Y-98499100D01*
X145390000Y-98599100D01*
X145323333Y-98665766D01*
X145256666Y-98699100D01*
X145123333Y-98732433D01*
X145023333Y-98732433D01*
X144890000Y-98699100D01*
X144823333Y-98665766D01*
X144756666Y-98599100D01*
X144723333Y-98499100D01*
X144723333Y-98432433D01*
X144756666Y-98332433D01*
X144790000Y-98299100D01*
X145023333Y-98299100D01*
X145023333Y-98432433D01*
X144723333Y-97999100D02*
X145423333Y-97999100D01*
X144723333Y-97599100D01*
X145423333Y-97599100D01*
X144723333Y-97265766D02*
X145423333Y-97265766D01*
X145423333Y-97099100D01*
X145390000Y-96999100D01*
X145323333Y-96932433D01*
X145256666Y-96899100D01*
X145123333Y-96865766D01*
X145023333Y-96865766D01*
X144890000Y-96899100D01*
X144823333Y-96932433D01*
X144756666Y-96999100D01*
X144723333Y-97099100D01*
X144723333Y-97265766D01*
X157615333Y-98515766D02*
X156915333Y-98282433D01*
X157615333Y-98049100D01*
X156915333Y-97815766D02*
X157382000Y-97815766D01*
X157615333Y-97815766D02*
X157582000Y-97849100D01*
X157548666Y-97815766D01*
X157582000Y-97782433D01*
X157615333Y-97815766D01*
X157548666Y-97815766D01*
X157382000Y-97482433D02*
X156915333Y-97482433D01*
X157315333Y-97482433D02*
X157348666Y-97449100D01*
X157382000Y-97382433D01*
X157382000Y-97282433D01*
X157348666Y-97215766D01*
X157282000Y-97182433D01*
X156915333Y-97182433D01*
X157582000Y-100872433D02*
X157615333Y-100939100D01*
X157615333Y-101039100D01*
X157582000Y-101139100D01*
X157515333Y-101205766D01*
X157448666Y-101239100D01*
X157315333Y-101272433D01*
X157215333Y-101272433D01*
X157082000Y-101239100D01*
X157015333Y-101205766D01*
X156948666Y-101139100D01*
X156915333Y-101039100D01*
X156915333Y-100972433D01*
X156948666Y-100872433D01*
X156982000Y-100839100D01*
X157215333Y-100839100D01*
X157215333Y-100972433D01*
X156915333Y-100539100D02*
X157615333Y-100539100D01*
X156915333Y-100139100D01*
X157615333Y-100139100D01*
X156915333Y-99805766D02*
X157615333Y-99805766D01*
X157615333Y-99639100D01*
X157582000Y-99539100D01*
X157515333Y-99472433D01*
X157448666Y-99439100D01*
X157315333Y-99405766D01*
X157215333Y-99405766D01*
X157082000Y-99439100D01*
X157015333Y-99472433D01*
X156948666Y-99539100D01*
X156915333Y-99639100D01*
X156915333Y-99805766D01*
X157615333Y-103879100D02*
X157615333Y-103445766D01*
X157348666Y-103679100D01*
X157348666Y-103579100D01*
X157315333Y-103512433D01*
X157282000Y-103479100D01*
X157215333Y-103445766D01*
X157048666Y-103445766D01*
X156982000Y-103479100D01*
X156948666Y-103512433D01*
X156915333Y-103579100D01*
X156915333Y-103779100D01*
X156948666Y-103845766D01*
X156982000Y-103879100D01*
X156982000Y-103145766D02*
X156948666Y-103112433D01*
X156915333Y-103145766D01*
X156948666Y-103179100D01*
X156982000Y-103145766D01*
X156915333Y-103145766D01*
X157615333Y-102879100D02*
X157615333Y-102445766D01*
X157348666Y-102679100D01*
X157348666Y-102579100D01*
X157315333Y-102512433D01*
X157282000Y-102479100D01*
X157215333Y-102445766D01*
X157048666Y-102445766D01*
X156982000Y-102479100D01*
X156948666Y-102512433D01*
X156915333Y-102579100D01*
X156915333Y-102779100D01*
X156948666Y-102845766D01*
X156982000Y-102879100D01*
X157382000Y-102212433D02*
X156915333Y-102045766D01*
X157382000Y-101879100D01*
D10*
X153098095Y-113686719D02*
X153098095Y-113191480D01*
X152793333Y-113458147D01*
X152793333Y-113343861D01*
X152755238Y-113267671D01*
X152717142Y-113229576D01*
X152640952Y-113191480D01*
X152450476Y-113191480D01*
X152374285Y-113229576D01*
X152336190Y-113267671D01*
X152298095Y-113343861D01*
X152298095Y-113572433D01*
X152336190Y-113648623D01*
X152374285Y-113686719D01*
X153098095Y-112696242D02*
X153098095Y-112620052D01*
X153060000Y-112543861D01*
X153021904Y-112505766D01*
X152945714Y-112467671D01*
X152793333Y-112429576D01*
X152602857Y-112429576D01*
X152450476Y-112467671D01*
X152374285Y-112505766D01*
X152336190Y-112543861D01*
X152298095Y-112620052D01*
X152298095Y-112696242D01*
X152336190Y-112772433D01*
X152374285Y-112810528D01*
X152450476Y-112848623D01*
X152602857Y-112886719D01*
X152793333Y-112886719D01*
X152945714Y-112848623D01*
X153021904Y-112810528D01*
X153060000Y-112772433D01*
X153098095Y-112696242D01*
X153021904Y-118728623D02*
X153060000Y-118690528D01*
X153098095Y-118614338D01*
X153098095Y-118423861D01*
X153060000Y-118347671D01*
X153021904Y-118309576D01*
X152945714Y-118271480D01*
X152869523Y-118271480D01*
X152755238Y-118309576D01*
X152298095Y-118766719D01*
X152298095Y-118271480D01*
X152298095Y-117890528D02*
X152298095Y-117738147D01*
X152336190Y-117661957D01*
X152374285Y-117623861D01*
X152488571Y-117547671D01*
X152640952Y-117509576D01*
X152945714Y-117509576D01*
X153021904Y-117547671D01*
X153060000Y-117585766D01*
X153098095Y-117661957D01*
X153098095Y-117814338D01*
X153060000Y-117890528D01*
X153021904Y-117928623D01*
X152945714Y-117966719D01*
X152755238Y-117966719D01*
X152679047Y-117928623D01*
X152640952Y-117890528D01*
X152602857Y-117814338D01*
X152602857Y-117661957D01*
X152640952Y-117585766D01*
X152679047Y-117547671D01*
X152755238Y-117509576D01*
X153021904Y-121268623D02*
X153060000Y-121230528D01*
X153098095Y-121154338D01*
X153098095Y-120963861D01*
X153060000Y-120887671D01*
X153021904Y-120849576D01*
X152945714Y-120811480D01*
X152869523Y-120811480D01*
X152755238Y-120849576D01*
X152298095Y-121306719D01*
X152298095Y-120811480D01*
X152755238Y-120354338D02*
X152793333Y-120430528D01*
X152831428Y-120468623D01*
X152907619Y-120506719D01*
X152945714Y-120506719D01*
X153021904Y-120468623D01*
X153060000Y-120430528D01*
X153098095Y-120354338D01*
X153098095Y-120201957D01*
X153060000Y-120125766D01*
X153021904Y-120087671D01*
X152945714Y-120049576D01*
X152907619Y-120049576D01*
X152831428Y-120087671D01*
X152793333Y-120125766D01*
X152755238Y-120201957D01*
X152755238Y-120354338D01*
X152717142Y-120430528D01*
X152679047Y-120468623D01*
X152602857Y-120506719D01*
X152450476Y-120506719D01*
X152374285Y-120468623D01*
X152336190Y-120430528D01*
X152298095Y-120354338D01*
X152298095Y-120201957D01*
X152336190Y-120125766D01*
X152374285Y-120087671D01*
X152450476Y-120049576D01*
X152602857Y-120049576D01*
X152679047Y-120087671D01*
X152717142Y-120125766D01*
X152755238Y-120201957D01*
X152298095Y-123999100D02*
X153098095Y-123999100D01*
X153098095Y-123465766D02*
X153098095Y-123313385D01*
X153060000Y-123237195D01*
X152983809Y-123161004D01*
X152831428Y-123122909D01*
X152564761Y-123122909D01*
X152412380Y-123161004D01*
X152336190Y-123237195D01*
X152298095Y-123313385D01*
X152298095Y-123465766D01*
X152336190Y-123541957D01*
X152412380Y-123618147D01*
X152564761Y-123656242D01*
X152831428Y-123656242D01*
X152983809Y-123618147D01*
X153060000Y-123541957D01*
X153098095Y-123465766D01*
X153098095Y-122856242D02*
X153098095Y-122361004D01*
X152793333Y-122627671D01*
X152793333Y-122513385D01*
X152755238Y-122437195D01*
X152717142Y-122399100D01*
X152640952Y-122361004D01*
X152450476Y-122361004D01*
X152374285Y-122399100D01*
X152336190Y-122437195D01*
X152298095Y-122513385D01*
X152298095Y-122741957D01*
X152336190Y-122818147D01*
X152374285Y-122856242D01*
X152336190Y-126767671D02*
X152298095Y-126653385D01*
X152298095Y-126462909D01*
X152336190Y-126386719D01*
X152374285Y-126348623D01*
X152450476Y-126310528D01*
X152526666Y-126310528D01*
X152602857Y-126348623D01*
X152640952Y-126386719D01*
X152679047Y-126462909D01*
X152717142Y-126615290D01*
X152755238Y-126691480D01*
X152793333Y-126729576D01*
X152869523Y-126767671D01*
X152945714Y-126767671D01*
X153021904Y-126729576D01*
X153060000Y-126691480D01*
X153098095Y-126615290D01*
X153098095Y-126424814D01*
X153060000Y-126310528D01*
X152374285Y-125510528D02*
X152336190Y-125548623D01*
X152298095Y-125662909D01*
X152298095Y-125739100D01*
X152336190Y-125853385D01*
X152412380Y-125929576D01*
X152488571Y-125967671D01*
X152640952Y-126005766D01*
X152755238Y-126005766D01*
X152907619Y-125967671D01*
X152983809Y-125929576D01*
X153060000Y-125853385D01*
X153098095Y-125739100D01*
X153098095Y-125662909D01*
X153060000Y-125548623D01*
X153021904Y-125510528D01*
X152298095Y-125167671D02*
X153098095Y-125167671D01*
X152298095Y-124710528D02*
X152755238Y-125053385D01*
X153098095Y-124710528D02*
X152640952Y-125167671D01*
X153060000Y-130609576D02*
X153098095Y-130685766D01*
X153098095Y-130800052D01*
X153060000Y-130914338D01*
X152983809Y-130990528D01*
X152907619Y-131028623D01*
X152755238Y-131066719D01*
X152640952Y-131066719D01*
X152488571Y-131028623D01*
X152412380Y-130990528D01*
X152336190Y-130914338D01*
X152298095Y-130800052D01*
X152298095Y-130723861D01*
X152336190Y-130609576D01*
X152374285Y-130571480D01*
X152640952Y-130571480D01*
X152640952Y-130723861D01*
X147980000Y-130609576D02*
X148018095Y-130685766D01*
X148018095Y-130800052D01*
X147980000Y-130914338D01*
X147903809Y-130990528D01*
X147827619Y-131028623D01*
X147675238Y-131066719D01*
X147560952Y-131066719D01*
X147408571Y-131028623D01*
X147332380Y-130990528D01*
X147256190Y-130914338D01*
X147218095Y-130800052D01*
X147218095Y-130723861D01*
X147256190Y-130609576D01*
X147294285Y-130571480D01*
X147560952Y-130571480D01*
X147560952Y-130723861D01*
X153098095Y-116150528D02*
X153098095Y-115655290D01*
X152793333Y-115921957D01*
X152793333Y-115807671D01*
X152755238Y-115731480D01*
X152717142Y-115693385D01*
X152640952Y-115655290D01*
X152450476Y-115655290D01*
X152374285Y-115693385D01*
X152336190Y-115731480D01*
X152298095Y-115807671D01*
X152298095Y-116036242D01*
X152336190Y-116112433D01*
X152374285Y-116150528D01*
X152831428Y-115388623D02*
X152298095Y-115198147D01*
X152831428Y-115007671D01*
X147256190Y-128888623D02*
X147218095Y-128774338D01*
X147218095Y-128583861D01*
X147256190Y-128507671D01*
X147294285Y-128469576D01*
X147370476Y-128431480D01*
X147446666Y-128431480D01*
X147522857Y-128469576D01*
X147560952Y-128507671D01*
X147599047Y-128583861D01*
X147637142Y-128736242D01*
X147675238Y-128812433D01*
X147713333Y-128850528D01*
X147789523Y-128888623D01*
X147865714Y-128888623D01*
X147941904Y-128850528D01*
X147980000Y-128812433D01*
X148018095Y-128736242D01*
X148018095Y-128545766D01*
X147980000Y-128431480D01*
X147256190Y-128126719D02*
X147218095Y-128012433D01*
X147218095Y-127821957D01*
X147256190Y-127745766D01*
X147294285Y-127707671D01*
X147370476Y-127669576D01*
X147446666Y-127669576D01*
X147522857Y-127707671D01*
X147560952Y-127745766D01*
X147599047Y-127821957D01*
X147637142Y-127974338D01*
X147675238Y-128050528D01*
X147713333Y-128088623D01*
X147789523Y-128126719D01*
X147865714Y-128126719D01*
X147941904Y-128088623D01*
X147980000Y-128050528D01*
X148018095Y-127974338D01*
X148018095Y-127783861D01*
X147980000Y-127669576D01*
X147218095Y-126539100D02*
X148018095Y-126539100D01*
X148018095Y-126005766D02*
X148018095Y-125853385D01*
X147980000Y-125777195D01*
X147903809Y-125701004D01*
X147751428Y-125662909D01*
X147484761Y-125662909D01*
X147332380Y-125701004D01*
X147256190Y-125777195D01*
X147218095Y-125853385D01*
X147218095Y-126005766D01*
X147256190Y-126081957D01*
X147332380Y-126158147D01*
X147484761Y-126196242D01*
X147751428Y-126196242D01*
X147903809Y-126158147D01*
X147980000Y-126081957D01*
X148018095Y-126005766D01*
X147218095Y-124901004D02*
X147218095Y-125358147D01*
X147218095Y-125129576D02*
X148018095Y-125129576D01*
X147903809Y-125205766D01*
X147827619Y-125281957D01*
X147789523Y-125358147D01*
X147218095Y-123999100D02*
X148018095Y-123999100D01*
X148018095Y-123465766D02*
X148018095Y-123313385D01*
X147980000Y-123237195D01*
X147903809Y-123161004D01*
X147751428Y-123122909D01*
X147484761Y-123122909D01*
X147332380Y-123161004D01*
X147256190Y-123237195D01*
X147218095Y-123313385D01*
X147218095Y-123465766D01*
X147256190Y-123541957D01*
X147332380Y-123618147D01*
X147484761Y-123656242D01*
X147751428Y-123656242D01*
X147903809Y-123618147D01*
X147980000Y-123541957D01*
X148018095Y-123465766D01*
X147941904Y-122818147D02*
X147980000Y-122780052D01*
X148018095Y-122703861D01*
X148018095Y-122513385D01*
X147980000Y-122437195D01*
X147941904Y-122399100D01*
X147865714Y-122361004D01*
X147789523Y-122361004D01*
X147675238Y-122399100D01*
X147218095Y-122856242D01*
X147218095Y-122361004D01*
X147941904Y-121268623D02*
X147980000Y-121230528D01*
X148018095Y-121154338D01*
X148018095Y-120963861D01*
X147980000Y-120887671D01*
X147941904Y-120849576D01*
X147865714Y-120811480D01*
X147789523Y-120811480D01*
X147675238Y-120849576D01*
X147218095Y-121306719D01*
X147218095Y-120811480D01*
X148018095Y-120544814D02*
X148018095Y-120011480D01*
X147218095Y-120354338D01*
X147941904Y-118728623D02*
X147980000Y-118690528D01*
X148018095Y-118614338D01*
X148018095Y-118423861D01*
X147980000Y-118347671D01*
X147941904Y-118309576D01*
X147865714Y-118271480D01*
X147789523Y-118271480D01*
X147675238Y-118309576D01*
X147218095Y-118766719D01*
X147218095Y-118271480D01*
X148018095Y-117585766D02*
X148018095Y-117738147D01*
X147980000Y-117814338D01*
X147941904Y-117852433D01*
X147827619Y-117928623D01*
X147675238Y-117966719D01*
X147370476Y-117966719D01*
X147294285Y-117928623D01*
X147256190Y-117890528D01*
X147218095Y-117814338D01*
X147218095Y-117661957D01*
X147256190Y-117585766D01*
X147294285Y-117547671D01*
X147370476Y-117509576D01*
X147560952Y-117509576D01*
X147637142Y-117547671D01*
X147675238Y-117585766D01*
X147713333Y-117661957D01*
X147713333Y-117814338D01*
X147675238Y-117890528D01*
X147637142Y-117928623D01*
X147560952Y-117966719D01*
X147941904Y-113648623D02*
X147980000Y-113610528D01*
X148018095Y-113534338D01*
X148018095Y-113343861D01*
X147980000Y-113267671D01*
X147941904Y-113229576D01*
X147865714Y-113191480D01*
X147789523Y-113191480D01*
X147675238Y-113229576D01*
X147218095Y-113686719D01*
X147218095Y-113191480D01*
X148018095Y-112467671D02*
X148018095Y-112848623D01*
X147637142Y-112886719D01*
X147675238Y-112848623D01*
X147713333Y-112772433D01*
X147713333Y-112581957D01*
X147675238Y-112505766D01*
X147637142Y-112467671D01*
X147560952Y-112429576D01*
X147370476Y-112429576D01*
X147294285Y-112467671D01*
X147256190Y-112505766D01*
X147218095Y-112581957D01*
X147218095Y-112772433D01*
X147256190Y-112848623D01*
X147294285Y-112886719D01*
X144678095Y-100110528D02*
X144678095Y-100567671D01*
X144678095Y-100339100D02*
X145478095Y-100339100D01*
X145363809Y-100415290D01*
X145287619Y-100491480D01*
X145249523Y-100567671D01*
X145401904Y-103107671D02*
X145440000Y-103069576D01*
X145478095Y-102993385D01*
X145478095Y-102802909D01*
X145440000Y-102726719D01*
X145401904Y-102688623D01*
X145325714Y-102650528D01*
X145249523Y-102650528D01*
X145135238Y-102688623D01*
X144678095Y-103145766D01*
X144678095Y-102650528D01*
X145478095Y-105685766D02*
X145478095Y-105190528D01*
X145173333Y-105457195D01*
X145173333Y-105342909D01*
X145135238Y-105266719D01*
X145097142Y-105228623D01*
X145020952Y-105190528D01*
X144830476Y-105190528D01*
X144754285Y-105228623D01*
X144716190Y-105266719D01*
X144678095Y-105342909D01*
X144678095Y-105571480D01*
X144716190Y-105647671D01*
X144754285Y-105685766D01*
X145211428Y-107806719D02*
X144678095Y-107806719D01*
X145516190Y-107997195D02*
X144944761Y-108187671D01*
X144944761Y-107692433D01*
X145478095Y-110308623D02*
X145478095Y-110689576D01*
X145097142Y-110727671D01*
X145135238Y-110689576D01*
X145173333Y-110613385D01*
X145173333Y-110422909D01*
X145135238Y-110346719D01*
X145097142Y-110308623D01*
X145020952Y-110270528D01*
X144830476Y-110270528D01*
X144754285Y-110308623D01*
X144716190Y-110346719D01*
X144678095Y-110422909D01*
X144678095Y-110613385D01*
X144716190Y-110689576D01*
X144754285Y-110727671D01*
X145478095Y-112886719D02*
X145478095Y-113039100D01*
X145440000Y-113115290D01*
X145401904Y-113153385D01*
X145287619Y-113229576D01*
X145135238Y-113267671D01*
X144830476Y-113267671D01*
X144754285Y-113229576D01*
X144716190Y-113191480D01*
X144678095Y-113115290D01*
X144678095Y-112962909D01*
X144716190Y-112886719D01*
X144754285Y-112848623D01*
X144830476Y-112810528D01*
X145020952Y-112810528D01*
X145097142Y-112848623D01*
X145135238Y-112886719D01*
X145173333Y-112962909D01*
X145173333Y-113115290D01*
X145135238Y-113191480D01*
X145097142Y-113229576D01*
X145020952Y-113267671D01*
X145478095Y-115845766D02*
X145478095Y-115312433D01*
X144678095Y-115655290D01*
X145135238Y-118195290D02*
X145173333Y-118271480D01*
X145211428Y-118309576D01*
X145287619Y-118347671D01*
X145325714Y-118347671D01*
X145401904Y-118309576D01*
X145440000Y-118271480D01*
X145478095Y-118195290D01*
X145478095Y-118042909D01*
X145440000Y-117966719D01*
X145401904Y-117928623D01*
X145325714Y-117890528D01*
X145287619Y-117890528D01*
X145211428Y-117928623D01*
X145173333Y-117966719D01*
X145135238Y-118042909D01*
X145135238Y-118195290D01*
X145097142Y-118271480D01*
X145059047Y-118309576D01*
X144982857Y-118347671D01*
X144830476Y-118347671D01*
X144754285Y-118309576D01*
X144716190Y-118271480D01*
X144678095Y-118195290D01*
X144678095Y-118042909D01*
X144716190Y-117966719D01*
X144754285Y-117928623D01*
X144830476Y-117890528D01*
X144982857Y-117890528D01*
X145059047Y-117928623D01*
X145097142Y-117966719D01*
X145135238Y-118042909D01*
X144678095Y-120811480D02*
X144678095Y-120659100D01*
X144716190Y-120582909D01*
X144754285Y-120544814D01*
X144868571Y-120468623D01*
X145020952Y-120430528D01*
X145325714Y-120430528D01*
X145401904Y-120468623D01*
X145440000Y-120506719D01*
X145478095Y-120582909D01*
X145478095Y-120735290D01*
X145440000Y-120811480D01*
X145401904Y-120849576D01*
X145325714Y-120887671D01*
X145135238Y-120887671D01*
X145059047Y-120849576D01*
X145020952Y-120811480D01*
X144982857Y-120735290D01*
X144982857Y-120582909D01*
X145020952Y-120506719D01*
X145059047Y-120468623D01*
X145135238Y-120430528D01*
X144678095Y-123351480D02*
X144678095Y-123808623D01*
X144678095Y-123580052D02*
X145478095Y-123580052D01*
X145363809Y-123656242D01*
X145287619Y-123732433D01*
X145249523Y-123808623D01*
X145478095Y-122856242D02*
X145478095Y-122780052D01*
X145440000Y-122703861D01*
X145401904Y-122665766D01*
X145325714Y-122627671D01*
X145173333Y-122589576D01*
X144982857Y-122589576D01*
X144830476Y-122627671D01*
X144754285Y-122665766D01*
X144716190Y-122703861D01*
X144678095Y-122780052D01*
X144678095Y-122856242D01*
X144716190Y-122932433D01*
X144754285Y-122970528D01*
X144830476Y-123008623D01*
X144982857Y-123046719D01*
X145173333Y-123046719D01*
X145325714Y-123008623D01*
X145401904Y-122970528D01*
X145440000Y-122932433D01*
X145478095Y-122856242D01*
X144678095Y-125891480D02*
X144678095Y-126348623D01*
X144678095Y-126120052D02*
X145478095Y-126120052D01*
X145363809Y-126196242D01*
X145287619Y-126272433D01*
X145249523Y-126348623D01*
X144678095Y-125129576D02*
X144678095Y-125586719D01*
X144678095Y-125358147D02*
X145478095Y-125358147D01*
X145363809Y-125434338D01*
X145287619Y-125510528D01*
X145249523Y-125586719D01*
X144678095Y-128431480D02*
X144678095Y-128888623D01*
X144678095Y-128660052D02*
X145478095Y-128660052D01*
X145363809Y-128736242D01*
X145287619Y-128812433D01*
X145249523Y-128888623D01*
X145401904Y-128126719D02*
X145440000Y-128088623D01*
X145478095Y-128012433D01*
X145478095Y-127821957D01*
X145440000Y-127745766D01*
X145401904Y-127707671D01*
X145325714Y-127669576D01*
X145249523Y-127669576D01*
X145135238Y-127707671D01*
X144678095Y-128164814D01*
X144678095Y-127669576D01*
X144678095Y-130971480D02*
X144678095Y-131428623D01*
X144678095Y-131200052D02*
X145478095Y-131200052D01*
X145363809Y-131276242D01*
X145287619Y-131352433D01*
X145249523Y-131428623D01*
X145478095Y-130704814D02*
X145478095Y-130209576D01*
X145173333Y-130476242D01*
X145173333Y-130361957D01*
X145135238Y-130285766D01*
X145097142Y-130247671D01*
X145020952Y-130209576D01*
X144830476Y-130209576D01*
X144754285Y-130247671D01*
X144716190Y-130285766D01*
X144678095Y-130361957D01*
X144678095Y-130590528D01*
X144716190Y-130666719D01*
X144754285Y-130704814D01*
X157593904Y-106028623D02*
X157632000Y-105990528D01*
X157670095Y-105914338D01*
X157670095Y-105723861D01*
X157632000Y-105647671D01*
X157593904Y-105609576D01*
X157517714Y-105571480D01*
X157441523Y-105571480D01*
X157327238Y-105609576D01*
X156870095Y-106066719D01*
X156870095Y-105571480D01*
X157403428Y-104885766D02*
X156870095Y-104885766D01*
X157708190Y-105076242D02*
X157136761Y-105266719D01*
X157136761Y-104771480D01*
X157593904Y-108568623D02*
X157632000Y-108530528D01*
X157670095Y-108454338D01*
X157670095Y-108263861D01*
X157632000Y-108187671D01*
X157593904Y-108149576D01*
X157517714Y-108111480D01*
X157441523Y-108111480D01*
X157327238Y-108149576D01*
X156870095Y-108606719D01*
X156870095Y-108111480D01*
X157670095Y-107844814D02*
X157670095Y-107349576D01*
X157365333Y-107616242D01*
X157365333Y-107501957D01*
X157327238Y-107425766D01*
X157289142Y-107387671D01*
X157212952Y-107349576D01*
X157022476Y-107349576D01*
X156946285Y-107387671D01*
X156908190Y-107425766D01*
X156870095Y-107501957D01*
X156870095Y-107730528D01*
X156908190Y-107806719D01*
X156946285Y-107844814D01*
X157593904Y-111108623D02*
X157632000Y-111070528D01*
X157670095Y-110994338D01*
X157670095Y-110803861D01*
X157632000Y-110727671D01*
X157593904Y-110689576D01*
X157517714Y-110651480D01*
X157441523Y-110651480D01*
X157327238Y-110689576D01*
X156870095Y-111146719D01*
X156870095Y-110651480D01*
X157593904Y-110346719D02*
X157632000Y-110308623D01*
X157670095Y-110232433D01*
X157670095Y-110041957D01*
X157632000Y-109965766D01*
X157593904Y-109927671D01*
X157517714Y-109889576D01*
X157441523Y-109889576D01*
X157327238Y-109927671D01*
X156870095Y-110384814D01*
X156870095Y-109889576D01*
X157593904Y-113648623D02*
X157632000Y-113610528D01*
X157670095Y-113534338D01*
X157670095Y-113343861D01*
X157632000Y-113267671D01*
X157593904Y-113229576D01*
X157517714Y-113191480D01*
X157441523Y-113191480D01*
X157327238Y-113229576D01*
X156870095Y-113686719D01*
X156870095Y-113191480D01*
X156870095Y-112429576D02*
X156870095Y-112886719D01*
X156870095Y-112658147D02*
X157670095Y-112658147D01*
X157555809Y-112734338D01*
X157479619Y-112810528D01*
X157441523Y-112886719D01*
X157593904Y-116188623D02*
X157632000Y-116150528D01*
X157670095Y-116074338D01*
X157670095Y-115883861D01*
X157632000Y-115807671D01*
X157593904Y-115769576D01*
X157517714Y-115731480D01*
X157441523Y-115731480D01*
X157327238Y-115769576D01*
X156870095Y-116226719D01*
X156870095Y-115731480D01*
X157670095Y-115236242D02*
X157670095Y-115160052D01*
X157632000Y-115083861D01*
X157593904Y-115045766D01*
X157517714Y-115007671D01*
X157365333Y-114969576D01*
X157174857Y-114969576D01*
X157022476Y-115007671D01*
X156946285Y-115045766D01*
X156908190Y-115083861D01*
X156870095Y-115160052D01*
X156870095Y-115236242D01*
X156908190Y-115312433D01*
X156946285Y-115350528D01*
X157022476Y-115388623D01*
X157174857Y-115426719D01*
X157365333Y-115426719D01*
X157517714Y-115388623D01*
X157593904Y-115350528D01*
X157632000Y-115312433D01*
X157670095Y-115236242D01*
X156870095Y-118271480D02*
X156870095Y-118728623D01*
X156870095Y-118500052D02*
X157670095Y-118500052D01*
X157555809Y-118576242D01*
X157479619Y-118652433D01*
X157441523Y-118728623D01*
X156870095Y-117890528D02*
X156870095Y-117738147D01*
X156908190Y-117661957D01*
X156946285Y-117623861D01*
X157060571Y-117547671D01*
X157212952Y-117509576D01*
X157517714Y-117509576D01*
X157593904Y-117547671D01*
X157632000Y-117585766D01*
X157670095Y-117661957D01*
X157670095Y-117814338D01*
X157632000Y-117890528D01*
X157593904Y-117928623D01*
X157517714Y-117966719D01*
X157327238Y-117966719D01*
X157251047Y-117928623D01*
X157212952Y-117890528D01*
X157174857Y-117814338D01*
X157174857Y-117661957D01*
X157212952Y-117585766D01*
X157251047Y-117547671D01*
X157327238Y-117509576D01*
X156870095Y-120811480D02*
X156870095Y-121268623D01*
X156870095Y-121040052D02*
X157670095Y-121040052D01*
X157555809Y-121116242D01*
X157479619Y-121192433D01*
X157441523Y-121268623D01*
X157327238Y-120354338D02*
X157365333Y-120430528D01*
X157403428Y-120468623D01*
X157479619Y-120506719D01*
X157517714Y-120506719D01*
X157593904Y-120468623D01*
X157632000Y-120430528D01*
X157670095Y-120354338D01*
X157670095Y-120201957D01*
X157632000Y-120125766D01*
X157593904Y-120087671D01*
X157517714Y-120049576D01*
X157479619Y-120049576D01*
X157403428Y-120087671D01*
X157365333Y-120125766D01*
X157327238Y-120201957D01*
X157327238Y-120354338D01*
X157289142Y-120430528D01*
X157251047Y-120468623D01*
X157174857Y-120506719D01*
X157022476Y-120506719D01*
X156946285Y-120468623D01*
X156908190Y-120430528D01*
X156870095Y-120354338D01*
X156870095Y-120201957D01*
X156908190Y-120125766D01*
X156946285Y-120087671D01*
X157022476Y-120049576D01*
X157174857Y-120049576D01*
X157251047Y-120087671D01*
X157289142Y-120125766D01*
X157327238Y-120201957D01*
X156870095Y-123351480D02*
X156870095Y-123808623D01*
X156870095Y-123580052D02*
X157670095Y-123580052D01*
X157555809Y-123656242D01*
X157479619Y-123732433D01*
X157441523Y-123808623D01*
X157670095Y-123084814D02*
X157670095Y-122551480D01*
X156870095Y-122894338D01*
X156870095Y-125891480D02*
X156870095Y-126348623D01*
X156870095Y-126120052D02*
X157670095Y-126120052D01*
X157555809Y-126196242D01*
X157479619Y-126272433D01*
X157441523Y-126348623D01*
X157670095Y-125205766D02*
X157670095Y-125358147D01*
X157632000Y-125434338D01*
X157593904Y-125472433D01*
X157479619Y-125548623D01*
X157327238Y-125586719D01*
X157022476Y-125586719D01*
X156946285Y-125548623D01*
X156908190Y-125510528D01*
X156870095Y-125434338D01*
X156870095Y-125281957D01*
X156908190Y-125205766D01*
X156946285Y-125167671D01*
X157022476Y-125129576D01*
X157212952Y-125129576D01*
X157289142Y-125167671D01*
X157327238Y-125205766D01*
X157365333Y-125281957D01*
X157365333Y-125434338D01*
X157327238Y-125510528D01*
X157289142Y-125548623D01*
X157212952Y-125586719D01*
X156870095Y-128431480D02*
X156870095Y-128888623D01*
X156870095Y-128660052D02*
X157670095Y-128660052D01*
X157555809Y-128736242D01*
X157479619Y-128812433D01*
X157441523Y-128888623D01*
X157670095Y-127707671D02*
X157670095Y-128088623D01*
X157289142Y-128126719D01*
X157327238Y-128088623D01*
X157365333Y-128012433D01*
X157365333Y-127821957D01*
X157327238Y-127745766D01*
X157289142Y-127707671D01*
X157212952Y-127669576D01*
X157022476Y-127669576D01*
X156946285Y-127707671D01*
X156908190Y-127745766D01*
X156870095Y-127821957D01*
X156870095Y-128012433D01*
X156908190Y-128088623D01*
X156946285Y-128126719D01*
X156870095Y-130971480D02*
X156870095Y-131428623D01*
X156870095Y-131200052D02*
X157670095Y-131200052D01*
X157555809Y-131276242D01*
X157479619Y-131352433D01*
X157441523Y-131428623D01*
X157403428Y-130285766D02*
X156870095Y-130285766D01*
X157708190Y-130476242D02*
X157136761Y-130666719D01*
X157136761Y-130171480D01*
D13*
X155031000Y-113799100D02*
X155031000Y-114819100D01*
X149831000Y-113799100D02*
X149831000Y-114819100D01*
X155031000Y-116339100D02*
X155031000Y-117359100D01*
X149831000Y-116339100D02*
X149831000Y-117359100D01*
X155031000Y-118879100D02*
X155031000Y-119899100D01*
X149831000Y-118879100D02*
X149831000Y-119899100D01*
X155031000Y-121419100D02*
X155031000Y-122439100D01*
X149831000Y-121419100D02*
X149831000Y-122439100D01*
X155031000Y-123959100D02*
X155031000Y-124979100D01*
X149831000Y-123959100D02*
X149831000Y-124979100D01*
X155031000Y-126499100D02*
X155031000Y-127519100D01*
X149831000Y-126499100D02*
X149831000Y-127519100D01*
X155031000Y-129039100D02*
X155031000Y-130059100D01*
X149831000Y-129039100D02*
X149831000Y-130059100D01*
X147251000Y-104659100D02*
X147251000Y-103639100D01*
X152451000Y-104659100D02*
X152451000Y-103639100D01*
X147251000Y-102119100D02*
X147251000Y-101099100D01*
X152451000Y-102119100D02*
X152451000Y-101099100D01*
D14*
G36*
X153409256Y-111022018D02*
G01*
X153353799Y-111049668D01*
X153304852Y-111100580D01*
X153291371Y-111119438D01*
X153276686Y-111144115D01*
X153267158Y-111170916D01*
X153261707Y-111206687D01*
X153259253Y-111258269D01*
X153258714Y-111326367D01*
X153261148Y-111419688D01*
X153269606Y-111489757D01*
X153285826Y-111542031D01*
X153311546Y-111581969D01*
X153348503Y-111615029D01*
X153351218Y-111616986D01*
X153387640Y-111637008D01*
X153431498Y-111646915D01*
X153487276Y-111649357D01*
X153577952Y-111649357D01*
X153577990Y-111737383D01*
X153578834Y-111786408D01*
X153583976Y-111815165D01*
X153597413Y-111832411D01*
X153623142Y-111846908D01*
X153629321Y-111849869D01*
X153658236Y-111863748D01*
X153680624Y-111872514D01*
X153697271Y-111873271D01*
X153708964Y-111863123D01*
X153716490Y-111839173D01*
X153720634Y-111798526D01*
X153722185Y-111738286D01*
X153721929Y-111655555D01*
X153720651Y-111547439D01*
X153720252Y-111515100D01*
X153718815Y-111403624D01*
X153717528Y-111330703D01*
X153578029Y-111330703D01*
X153577245Y-111392599D01*
X153573760Y-111433097D01*
X153565876Y-111459808D01*
X153551895Y-111480344D01*
X153542403Y-111490360D01*
X153503596Y-111519667D01*
X153469237Y-111522052D01*
X153433784Y-111497850D01*
X153432886Y-111496957D01*
X153418461Y-111478253D01*
X153409687Y-111452832D01*
X153405261Y-111413684D01*
X153403882Y-111353797D01*
X153403857Y-111340530D01*
X153407188Y-111258001D01*
X153418031Y-111200791D01*
X153437660Y-111165866D01*
X153467350Y-111150194D01*
X153484509Y-111148614D01*
X153525234Y-111156026D01*
X153553168Y-111180430D01*
X153569983Y-111225080D01*
X153577350Y-111293230D01*
X153578029Y-111330703D01*
X153717528Y-111330703D01*
X153717292Y-111317345D01*
X153715323Y-111252433D01*
X153712550Y-111205058D01*
X153708612Y-111171390D01*
X153703151Y-111147598D01*
X153695808Y-111129853D01*
X153686223Y-111114324D01*
X153682113Y-111108481D01*
X153627595Y-111053285D01*
X153558664Y-111021990D01*
X153478928Y-111013265D01*
X153409256Y-111022018D01*
X153409256Y-111022018D01*
G37*
X153409256Y-111022018D02*
X153353799Y-111049668D01*
X153304852Y-111100580D01*
X153291371Y-111119438D01*
X153276686Y-111144115D01*
X153267158Y-111170916D01*
X153261707Y-111206687D01*
X153259253Y-111258269D01*
X153258714Y-111326367D01*
X153261148Y-111419688D01*
X153269606Y-111489757D01*
X153285826Y-111542031D01*
X153311546Y-111581969D01*
X153348503Y-111615029D01*
X153351218Y-111616986D01*
X153387640Y-111637008D01*
X153431498Y-111646915D01*
X153487276Y-111649357D01*
X153577952Y-111649357D01*
X153577990Y-111737383D01*
X153578834Y-111786408D01*
X153583976Y-111815165D01*
X153597413Y-111832411D01*
X153623142Y-111846908D01*
X153629321Y-111849869D01*
X153658236Y-111863748D01*
X153680624Y-111872514D01*
X153697271Y-111873271D01*
X153708964Y-111863123D01*
X153716490Y-111839173D01*
X153720634Y-111798526D01*
X153722185Y-111738286D01*
X153721929Y-111655555D01*
X153720651Y-111547439D01*
X153720252Y-111515100D01*
X153718815Y-111403624D01*
X153717528Y-111330703D01*
X153578029Y-111330703D01*
X153577245Y-111392599D01*
X153573760Y-111433097D01*
X153565876Y-111459808D01*
X153551895Y-111480344D01*
X153542403Y-111490360D01*
X153503596Y-111519667D01*
X153469237Y-111522052D01*
X153433784Y-111497850D01*
X153432886Y-111496957D01*
X153418461Y-111478253D01*
X153409687Y-111452832D01*
X153405261Y-111413684D01*
X153403882Y-111353797D01*
X153403857Y-111340530D01*
X153407188Y-111258001D01*
X153418031Y-111200791D01*
X153437660Y-111165866D01*
X153467350Y-111150194D01*
X153484509Y-111148614D01*
X153525234Y-111156026D01*
X153553168Y-111180430D01*
X153569983Y-111225080D01*
X153577350Y-111293230D01*
X153578029Y-111330703D01*
X153717528Y-111330703D01*
X153717292Y-111317345D01*
X153715323Y-111252433D01*
X153712550Y-111205058D01*
X153708612Y-111171390D01*
X153703151Y-111147598D01*
X153695808Y-111129853D01*
X153686223Y-111114324D01*
X153682113Y-111108481D01*
X153627595Y-111053285D01*
X153558664Y-111021990D01*
X153478928Y-111013265D01*
X153409256Y-111022018D01*
G36*
X152292907Y-111029880D02*
G01*
X152246328Y-111056823D01*
X152213943Y-111083566D01*
X152190258Y-111111584D01*
X152173941Y-111145848D01*
X152163661Y-111191327D01*
X152158086Y-111252992D01*
X152155884Y-111335811D01*
X152155629Y-111395346D01*
X152155629Y-111614491D01*
X152217314Y-111642144D01*
X152279000Y-111669797D01*
X152286257Y-111429770D01*
X152289256Y-111340128D01*
X152292402Y-111275062D01*
X152296299Y-111230126D01*
X152301553Y-111200870D01*
X152308769Y-111182848D01*
X152318550Y-111171611D01*
X152321688Y-111169179D01*
X152369239Y-111150183D01*
X152417303Y-111157700D01*
X152445914Y-111177643D01*
X152457553Y-111191775D01*
X152465609Y-111210320D01*
X152470729Y-111238434D01*
X152473559Y-111281273D01*
X152474744Y-111343995D01*
X152474943Y-111409361D01*
X152474982Y-111491368D01*
X152476386Y-111549416D01*
X152481086Y-111588565D01*
X152491013Y-111613880D01*
X152508097Y-111630423D01*
X152534268Y-111643256D01*
X152569225Y-111656591D01*
X152607404Y-111671107D01*
X152602859Y-111413489D01*
X152601029Y-111320619D01*
X152598888Y-111251989D01*
X152595819Y-111202811D01*
X152591206Y-111168298D01*
X152584432Y-111143662D01*
X152574881Y-111124116D01*
X152563366Y-111106870D01*
X152507810Y-111051780D01*
X152440020Y-111019922D01*
X152366287Y-111012291D01*
X152292907Y-111029880D01*
X152292907Y-111029880D01*
G37*
X152292907Y-111029880D02*
X152246328Y-111056823D01*
X152213943Y-111083566D01*
X152190258Y-111111584D01*
X152173941Y-111145848D01*
X152163661Y-111191327D01*
X152158086Y-111252992D01*
X152155884Y-111335811D01*
X152155629Y-111395346D01*
X152155629Y-111614491D01*
X152217314Y-111642144D01*
X152279000Y-111669797D01*
X152286257Y-111429770D01*
X152289256Y-111340128D01*
X152292402Y-111275062D01*
X152296299Y-111230126D01*
X152301553Y-111200870D01*
X152308769Y-111182848D01*
X152318550Y-111171611D01*
X152321688Y-111169179D01*
X152369239Y-111150183D01*
X152417303Y-111157700D01*
X152445914Y-111177643D01*
X152457553Y-111191775D01*
X152465609Y-111210320D01*
X152470729Y-111238434D01*
X152473559Y-111281273D01*
X152474744Y-111343995D01*
X152474943Y-111409361D01*
X152474982Y-111491368D01*
X152476386Y-111549416D01*
X152481086Y-111588565D01*
X152491013Y-111613880D01*
X152508097Y-111630423D01*
X152534268Y-111643256D01*
X152569225Y-111656591D01*
X152607404Y-111671107D01*
X152602859Y-111413489D01*
X152601029Y-111320619D01*
X152598888Y-111251989D01*
X152595819Y-111202811D01*
X152591206Y-111168298D01*
X152584432Y-111143662D01*
X152574881Y-111124116D01*
X152563366Y-111106870D01*
X152507810Y-111051780D01*
X152440020Y-111019922D01*
X152366287Y-111012291D01*
X152292907Y-111029880D01*
G36*
X153967885Y-111024062D02*
G01*
X153899855Y-111059833D01*
X153849649Y-111117401D01*
X153831815Y-111154412D01*
X153817937Y-111209982D01*
X153810833Y-111280196D01*
X153810160Y-111356827D01*
X153815573Y-111431652D01*
X153826730Y-111496442D01*
X153843286Y-111542973D01*
X153848374Y-111550987D01*
X153908645Y-111610807D01*
X153980231Y-111646635D01*
X154057908Y-111657120D01*
X154136452Y-111640910D01*
X154158311Y-111631192D01*
X154200878Y-111601243D01*
X154238237Y-111561533D01*
X154241768Y-111556497D01*
X154256119Y-111532224D01*
X154265606Y-111506278D01*
X154271210Y-111472122D01*
X154273914Y-111423219D01*
X154274701Y-111353035D01*
X154274714Y-111337300D01*
X154274678Y-111332292D01*
X154129571Y-111332292D01*
X154128727Y-111398530D01*
X154125404Y-111442486D01*
X154118417Y-111470879D01*
X154106584Y-111490425D01*
X154100543Y-111496957D01*
X154065814Y-111521780D01*
X154032097Y-111520648D01*
X153998005Y-111499116D01*
X153977671Y-111476129D01*
X153965629Y-111442578D01*
X153958866Y-111389669D01*
X153958402Y-111383499D01*
X153957248Y-111287613D01*
X153969312Y-111216399D01*
X153994430Y-111170294D01*
X154032440Y-111149735D01*
X154046008Y-111148614D01*
X154081636Y-111154252D01*
X154106006Y-111173786D01*
X154120907Y-111211142D01*
X154128125Y-111270250D01*
X154129571Y-111332292D01*
X154274678Y-111332292D01*
X154274174Y-111262513D01*
X154271904Y-111210259D01*
X154266932Y-111174049D01*
X154258287Y-111147399D01*
X154244995Y-111123822D01*
X154242057Y-111119438D01*
X154192687Y-111060349D01*
X154138891Y-111026047D01*
X154073398Y-111012431D01*
X154051158Y-111011765D01*
X153967885Y-111024062D01*
X153967885Y-111024062D01*
G37*
X153967885Y-111024062D02*
X153899855Y-111059833D01*
X153849649Y-111117401D01*
X153831815Y-111154412D01*
X153817937Y-111209982D01*
X153810833Y-111280196D01*
X153810160Y-111356827D01*
X153815573Y-111431652D01*
X153826730Y-111496442D01*
X153843286Y-111542973D01*
X153848374Y-111550987D01*
X153908645Y-111610807D01*
X153980231Y-111646635D01*
X154057908Y-111657120D01*
X154136452Y-111640910D01*
X154158311Y-111631192D01*
X154200878Y-111601243D01*
X154238237Y-111561533D01*
X154241768Y-111556497D01*
X154256119Y-111532224D01*
X154265606Y-111506278D01*
X154271210Y-111472122D01*
X154273914Y-111423219D01*
X154274701Y-111353035D01*
X154274714Y-111337300D01*
X154274678Y-111332292D01*
X154129571Y-111332292D01*
X154128727Y-111398530D01*
X154125404Y-111442486D01*
X154118417Y-111470879D01*
X154106584Y-111490425D01*
X154100543Y-111496957D01*
X154065814Y-111521780D01*
X154032097Y-111520648D01*
X153998005Y-111499116D01*
X153977671Y-111476129D01*
X153965629Y-111442578D01*
X153958866Y-111389669D01*
X153958402Y-111383499D01*
X153957248Y-111287613D01*
X153969312Y-111216399D01*
X153994430Y-111170294D01*
X154032440Y-111149735D01*
X154046008Y-111148614D01*
X154081636Y-111154252D01*
X154106006Y-111173786D01*
X154120907Y-111211142D01*
X154128125Y-111270250D01*
X154129571Y-111332292D01*
X154274678Y-111332292D01*
X154274174Y-111262513D01*
X154271904Y-111210259D01*
X154266932Y-111174049D01*
X154258287Y-111147399D01*
X154244995Y-111123822D01*
X154242057Y-111119438D01*
X154192687Y-111060349D01*
X154138891Y-111026047D01*
X154073398Y-111012431D01*
X154051158Y-111011765D01*
X153967885Y-111024062D01*
G36*
X152840697Y-111033339D02*
G01*
X152783473Y-111071835D01*
X152739251Y-111127435D01*
X152712833Y-111198186D01*
X152707490Y-111250262D01*
X152708097Y-111271993D01*
X152713178Y-111288631D01*
X152727145Y-111303537D01*
X152754411Y-111320073D01*
X152799388Y-111341598D01*
X152866489Y-111371474D01*
X152866829Y-111371624D01*
X152928593Y-111399913D01*
X152979241Y-111425033D01*
X153013596Y-111444279D01*
X153026482Y-111454948D01*
X153026486Y-111455034D01*
X153015128Y-111478266D01*
X152988569Y-111503874D01*
X152958077Y-111522321D01*
X152942630Y-111525986D01*
X152900485Y-111513312D01*
X152864192Y-111481571D01*
X152846483Y-111446672D01*
X152829448Y-111420945D01*
X152796078Y-111391646D01*
X152756851Y-111366335D01*
X152722244Y-111352571D01*
X152715007Y-111351814D01*
X152706861Y-111364260D01*
X152706370Y-111396072D01*
X152712357Y-111438966D01*
X152723643Y-111484658D01*
X152739050Y-111524861D01*
X152739829Y-111526422D01*
X152786196Y-111591162D01*
X152846289Y-111635197D01*
X152914535Y-111656811D01*
X152985362Y-111654285D01*
X153053196Y-111625904D01*
X153056212Y-111623908D01*
X153109573Y-111575548D01*
X153144660Y-111512452D01*
X153164078Y-111429487D01*
X153166684Y-111406178D01*
X153171299Y-111296155D01*
X153165767Y-111244848D01*
X153026486Y-111244848D01*
X153024676Y-111276853D01*
X153014778Y-111286193D01*
X152990102Y-111279205D01*
X152951205Y-111262687D01*
X152907725Y-111241981D01*
X152906644Y-111241433D01*
X152869791Y-111222049D01*
X152855000Y-111209113D01*
X152858647Y-111195551D01*
X152874005Y-111177732D01*
X152913077Y-111151945D01*
X152955154Y-111150050D01*
X152992897Y-111168817D01*
X153018966Y-111205015D01*
X153026486Y-111244848D01*
X153165767Y-111244848D01*
X153161806Y-111208127D01*
X153137450Y-111138312D01*
X153103544Y-111089402D01*
X153042347Y-111039978D01*
X152974937Y-111015459D01*
X152906120Y-111013897D01*
X152840697Y-111033339D01*
X152840697Y-111033339D01*
G37*
X152840697Y-111033339D02*
X152783473Y-111071835D01*
X152739251Y-111127435D01*
X152712833Y-111198186D01*
X152707490Y-111250262D01*
X152708097Y-111271993D01*
X152713178Y-111288631D01*
X152727145Y-111303537D01*
X152754411Y-111320073D01*
X152799388Y-111341598D01*
X152866489Y-111371474D01*
X152866829Y-111371624D01*
X152928593Y-111399913D01*
X152979241Y-111425033D01*
X153013596Y-111444279D01*
X153026482Y-111454948D01*
X153026486Y-111455034D01*
X153015128Y-111478266D01*
X152988569Y-111503874D01*
X152958077Y-111522321D01*
X152942630Y-111525986D01*
X152900485Y-111513312D01*
X152864192Y-111481571D01*
X152846483Y-111446672D01*
X152829448Y-111420945D01*
X152796078Y-111391646D01*
X152756851Y-111366335D01*
X152722244Y-111352571D01*
X152715007Y-111351814D01*
X152706861Y-111364260D01*
X152706370Y-111396072D01*
X152712357Y-111438966D01*
X152723643Y-111484658D01*
X152739050Y-111524861D01*
X152739829Y-111526422D01*
X152786196Y-111591162D01*
X152846289Y-111635197D01*
X152914535Y-111656811D01*
X152985362Y-111654285D01*
X153053196Y-111625904D01*
X153056212Y-111623908D01*
X153109573Y-111575548D01*
X153144660Y-111512452D01*
X153164078Y-111429487D01*
X153166684Y-111406178D01*
X153171299Y-111296155D01*
X153165767Y-111244848D01*
X153026486Y-111244848D01*
X153024676Y-111276853D01*
X153014778Y-111286193D01*
X152990102Y-111279205D01*
X152951205Y-111262687D01*
X152907725Y-111241981D01*
X152906644Y-111241433D01*
X152869791Y-111222049D01*
X152855000Y-111209113D01*
X152858647Y-111195551D01*
X152874005Y-111177732D01*
X152913077Y-111151945D01*
X152955154Y-111150050D01*
X152992897Y-111168817D01*
X153018966Y-111205015D01*
X153026486Y-111244848D01*
X153165767Y-111244848D01*
X153161806Y-111208127D01*
X153137450Y-111138312D01*
X153103544Y-111089402D01*
X153042347Y-111039978D01*
X152974937Y-111015459D01*
X152906120Y-111013897D01*
X152840697Y-111033339D01*
G36*
X151633114Y-110953389D02*
G01*
X151628861Y-111012713D01*
X151623975Y-111047672D01*
X151617205Y-111062920D01*
X151607298Y-111063115D01*
X151604086Y-111061295D01*
X151561356Y-111048115D01*
X151505773Y-111048885D01*
X151449263Y-111062433D01*
X151413918Y-111079961D01*
X151377679Y-111107961D01*
X151351187Y-111139649D01*
X151333001Y-111179913D01*
X151321678Y-111233643D01*
X151315778Y-111305726D01*
X151313857Y-111401051D01*
X151313823Y-111419337D01*
X151313800Y-111624746D01*
X151359509Y-111640680D01*
X151391973Y-111651520D01*
X151409785Y-111656568D01*
X151410309Y-111656614D01*
X151412063Y-111642928D01*
X151413556Y-111605176D01*
X151414674Y-111548324D01*
X151415303Y-111477334D01*
X151415400Y-111434173D01*
X151415602Y-111349073D01*
X151416642Y-111288081D01*
X151419169Y-111246277D01*
X151423836Y-111218742D01*
X151431293Y-111200556D01*
X151442189Y-111186798D01*
X151448993Y-111180173D01*
X151495728Y-111153475D01*
X151546728Y-111151475D01*
X151592999Y-111174055D01*
X151601556Y-111182207D01*
X151614107Y-111197536D01*
X151622812Y-111215718D01*
X151628369Y-111242009D01*
X151631474Y-111281662D01*
X151632824Y-111339932D01*
X151633114Y-111420273D01*
X151633114Y-111624746D01*
X151678823Y-111640680D01*
X151711287Y-111651520D01*
X151729099Y-111656568D01*
X151729623Y-111656614D01*
X151730963Y-111642723D01*
X151732172Y-111603539D01*
X151733199Y-111542800D01*
X151733998Y-111464241D01*
X151734519Y-111371598D01*
X151734714Y-111268609D01*
X151734714Y-110871442D01*
X151687543Y-110851544D01*
X151640371Y-110831647D01*
X151633114Y-110953389D01*
X151633114Y-110953389D01*
G37*
X151633114Y-110953389D02*
X151628861Y-111012713D01*
X151623975Y-111047672D01*
X151617205Y-111062920D01*
X151607298Y-111063115D01*
X151604086Y-111061295D01*
X151561356Y-111048115D01*
X151505773Y-111048885D01*
X151449263Y-111062433D01*
X151413918Y-111079961D01*
X151377679Y-111107961D01*
X151351187Y-111139649D01*
X151333001Y-111179913D01*
X151321678Y-111233643D01*
X151315778Y-111305726D01*
X151313857Y-111401051D01*
X151313823Y-111419337D01*
X151313800Y-111624746D01*
X151359509Y-111640680D01*
X151391973Y-111651520D01*
X151409785Y-111656568D01*
X151410309Y-111656614D01*
X151412063Y-111642928D01*
X151413556Y-111605176D01*
X151414674Y-111548324D01*
X151415303Y-111477334D01*
X151415400Y-111434173D01*
X151415602Y-111349073D01*
X151416642Y-111288081D01*
X151419169Y-111246277D01*
X151423836Y-111218742D01*
X151431293Y-111200556D01*
X151442189Y-111186798D01*
X151448993Y-111180173D01*
X151495728Y-111153475D01*
X151546728Y-111151475D01*
X151592999Y-111174055D01*
X151601556Y-111182207D01*
X151614107Y-111197536D01*
X151622812Y-111215718D01*
X151628369Y-111242009D01*
X151631474Y-111281662D01*
X151632824Y-111339932D01*
X151633114Y-111420273D01*
X151633114Y-111624746D01*
X151678823Y-111640680D01*
X151711287Y-111651520D01*
X151729099Y-111656568D01*
X151729623Y-111656614D01*
X151730963Y-111642723D01*
X151732172Y-111603539D01*
X151733199Y-111542800D01*
X151733998Y-111464241D01*
X151734519Y-111371598D01*
X151734714Y-111268609D01*
X151734714Y-110871442D01*
X151687543Y-110851544D01*
X151640371Y-110831647D01*
X151633114Y-110953389D01*
G36*
X150969256Y-111053068D02*
G01*
X150912384Y-111074187D01*
X150911733Y-111074593D01*
X150876560Y-111100480D01*
X150850593Y-111130733D01*
X150832330Y-111170158D01*
X150820268Y-111223562D01*
X150812904Y-111295751D01*
X150808736Y-111391532D01*
X150808371Y-111405178D01*
X150803124Y-111610942D01*
X150847284Y-111633778D01*
X150879237Y-111649210D01*
X150898530Y-111656523D01*
X150899422Y-111656614D01*
X150902761Y-111643122D01*
X150905413Y-111606726D01*
X150907044Y-111553552D01*
X150907400Y-111510493D01*
X150907408Y-111440741D01*
X150910597Y-111396937D01*
X150921712Y-111376044D01*
X150945499Y-111375025D01*
X150986704Y-111390841D01*
X151048914Y-111419915D01*
X151094659Y-111444063D01*
X151118187Y-111465013D01*
X151125104Y-111487847D01*
X151125114Y-111488977D01*
X151113701Y-111528312D01*
X151079908Y-111549562D01*
X151028191Y-111552639D01*
X150990939Y-111552106D01*
X150971297Y-111562835D01*
X150959048Y-111588605D01*
X150951998Y-111621437D01*
X150962158Y-111640066D01*
X150965983Y-111642732D01*
X151001999Y-111653440D01*
X151052434Y-111654956D01*
X151104374Y-111647859D01*
X151141178Y-111634888D01*
X151192062Y-111591685D01*
X151220986Y-111531546D01*
X151226714Y-111484562D01*
X151222343Y-111442182D01*
X151206525Y-111407588D01*
X151175203Y-111376863D01*
X151124322Y-111346090D01*
X151049824Y-111311352D01*
X151045286Y-111309388D01*
X150978179Y-111278387D01*
X150936768Y-111252962D01*
X150919019Y-111230114D01*
X150922893Y-111206845D01*
X150946357Y-111180156D01*
X150953373Y-111174014D01*
X151000370Y-111150200D01*
X151049067Y-111151203D01*
X151091478Y-111174551D01*
X151119616Y-111217775D01*
X151122231Y-111226260D01*
X151147692Y-111267408D01*
X151179999Y-111287228D01*
X151226714Y-111306870D01*
X151226714Y-111256050D01*
X151212504Y-111182182D01*
X151170325Y-111114427D01*
X151148376Y-111091761D01*
X151098483Y-111062669D01*
X151035033Y-111049500D01*
X150969256Y-111053068D01*
X150969256Y-111053068D01*
G37*
X150969256Y-111053068D02*
X150912384Y-111074187D01*
X150911733Y-111074593D01*
X150876560Y-111100480D01*
X150850593Y-111130733D01*
X150832330Y-111170158D01*
X150820268Y-111223562D01*
X150812904Y-111295751D01*
X150808736Y-111391532D01*
X150808371Y-111405178D01*
X150803124Y-111610942D01*
X150847284Y-111633778D01*
X150879237Y-111649210D01*
X150898530Y-111656523D01*
X150899422Y-111656614D01*
X150902761Y-111643122D01*
X150905413Y-111606726D01*
X150907044Y-111553552D01*
X150907400Y-111510493D01*
X150907408Y-111440741D01*
X150910597Y-111396937D01*
X150921712Y-111376044D01*
X150945499Y-111375025D01*
X150986704Y-111390841D01*
X151048914Y-111419915D01*
X151094659Y-111444063D01*
X151118187Y-111465013D01*
X151125104Y-111487847D01*
X151125114Y-111488977D01*
X151113701Y-111528312D01*
X151079908Y-111549562D01*
X151028191Y-111552639D01*
X150990939Y-111552106D01*
X150971297Y-111562835D01*
X150959048Y-111588605D01*
X150951998Y-111621437D01*
X150962158Y-111640066D01*
X150965983Y-111642732D01*
X151001999Y-111653440D01*
X151052434Y-111654956D01*
X151104374Y-111647859D01*
X151141178Y-111634888D01*
X151192062Y-111591685D01*
X151220986Y-111531546D01*
X151226714Y-111484562D01*
X151222343Y-111442182D01*
X151206525Y-111407588D01*
X151175203Y-111376863D01*
X151124322Y-111346090D01*
X151049824Y-111311352D01*
X151045286Y-111309388D01*
X150978179Y-111278387D01*
X150936768Y-111252962D01*
X150919019Y-111230114D01*
X150922893Y-111206845D01*
X150946357Y-111180156D01*
X150953373Y-111174014D01*
X151000370Y-111150200D01*
X151049067Y-111151203D01*
X151091478Y-111174551D01*
X151119616Y-111217775D01*
X151122231Y-111226260D01*
X151147692Y-111267408D01*
X151179999Y-111287228D01*
X151226714Y-111306870D01*
X151226714Y-111256050D01*
X151212504Y-111182182D01*
X151170325Y-111114427D01*
X151148376Y-111091761D01*
X151098483Y-111062669D01*
X151035033Y-111049500D01*
X150969256Y-111053068D01*
G36*
X150479074Y-111051855D02*
G01*
X150413142Y-111076184D01*
X150359727Y-111119217D01*
X150338836Y-111149509D01*
X150316061Y-111205094D01*
X150316534Y-111245286D01*
X150340438Y-111272317D01*
X150349283Y-111276913D01*
X150387470Y-111291244D01*
X150406972Y-111287572D01*
X150413578Y-111263507D01*
X150413914Y-111250214D01*
X150426008Y-111201310D01*
X150457529Y-111167099D01*
X150501341Y-111150576D01*
X150550305Y-111154734D01*
X150590106Y-111176327D01*
X150603550Y-111188644D01*
X150613079Y-111203587D01*
X150619515Y-111226175D01*
X150623683Y-111261428D01*
X150626403Y-111314366D01*
X150628498Y-111390007D01*
X150629040Y-111413957D01*
X150631019Y-111495890D01*
X150633269Y-111553555D01*
X150636643Y-111591708D01*
X150641994Y-111615104D01*
X150650176Y-111628498D01*
X150662041Y-111636645D01*
X150669638Y-111640244D01*
X150701898Y-111652552D01*
X150720889Y-111656614D01*
X150727164Y-111643048D01*
X150730994Y-111602034D01*
X150732400Y-111533099D01*
X150731402Y-111435769D01*
X150731092Y-111420757D01*
X150728899Y-111331959D01*
X150726307Y-111267119D01*
X150722618Y-111221167D01*
X150717136Y-111189035D01*
X150709165Y-111165653D01*
X150698007Y-111145952D01*
X150692170Y-111137510D01*
X150658704Y-111100157D01*
X150621273Y-111071103D01*
X150616691Y-111068567D01*
X150549574Y-111048543D01*
X150479074Y-111051855D01*
X150479074Y-111051855D01*
G37*
X150479074Y-111051855D02*
X150413142Y-111076184D01*
X150359727Y-111119217D01*
X150338836Y-111149509D01*
X150316061Y-111205094D01*
X150316534Y-111245286D01*
X150340438Y-111272317D01*
X150349283Y-111276913D01*
X150387470Y-111291244D01*
X150406972Y-111287572D01*
X150413578Y-111263507D01*
X150413914Y-111250214D01*
X150426008Y-111201310D01*
X150457529Y-111167099D01*
X150501341Y-111150576D01*
X150550305Y-111154734D01*
X150590106Y-111176327D01*
X150603550Y-111188644D01*
X150613079Y-111203587D01*
X150619515Y-111226175D01*
X150623683Y-111261428D01*
X150626403Y-111314366D01*
X150628498Y-111390007D01*
X150629040Y-111413957D01*
X150631019Y-111495890D01*
X150633269Y-111553555D01*
X150636643Y-111591708D01*
X150641994Y-111615104D01*
X150650176Y-111628498D01*
X150662041Y-111636645D01*
X150669638Y-111640244D01*
X150701898Y-111652552D01*
X150720889Y-111656614D01*
X150727164Y-111643048D01*
X150730994Y-111602034D01*
X150732400Y-111533099D01*
X150731402Y-111435769D01*
X150731092Y-111420757D01*
X150728899Y-111331959D01*
X150726307Y-111267119D01*
X150722618Y-111221167D01*
X150717136Y-111189035D01*
X150709165Y-111165653D01*
X150698007Y-111145952D01*
X150692170Y-111137510D01*
X150658704Y-111100157D01*
X150621273Y-111071103D01*
X150616691Y-111068567D01*
X150549574Y-111048543D01*
X150479074Y-111051855D01*
G36*
X149818883Y-111167458D02*
G01*
X149819067Y-111275937D01*
X149819781Y-111359387D01*
X149821325Y-111421804D01*
X149823999Y-111467185D01*
X149828106Y-111499529D01*
X149833945Y-111522833D01*
X149841818Y-111541095D01*
X149847779Y-111551518D01*
X149897145Y-111608045D01*
X149959736Y-111643477D01*
X150028987Y-111656190D01*
X150098332Y-111644563D01*
X150139625Y-111623668D01*
X150182975Y-111587522D01*
X150212519Y-111543376D01*
X150230345Y-111485562D01*
X150238537Y-111408413D01*
X150239698Y-111351814D01*
X150239542Y-111347747D01*
X150138143Y-111347747D01*
X150137524Y-111412650D01*
X150134686Y-111455614D01*
X150128160Y-111483722D01*
X150116477Y-111504053D01*
X150102517Y-111519388D01*
X150055635Y-111548990D01*
X150005299Y-111551519D01*
X149957724Y-111526805D01*
X149954021Y-111523456D01*
X149938217Y-111506035D01*
X149928307Y-111485309D01*
X149922942Y-111454462D01*
X149920772Y-111406677D01*
X149920429Y-111353848D01*
X149921173Y-111287481D01*
X149924252Y-111243206D01*
X149930939Y-111214109D01*
X149942504Y-111193273D01*
X149951987Y-111182207D01*
X149996040Y-111154298D01*
X150046776Y-111150943D01*
X150095204Y-111172259D01*
X150104550Y-111180173D01*
X150120460Y-111197747D01*
X150130390Y-111218687D01*
X150135722Y-111249882D01*
X150137837Y-111298222D01*
X150138143Y-111347747D01*
X150239542Y-111347747D01*
X150236190Y-111260668D01*
X150224274Y-111192186D01*
X150201865Y-111140700D01*
X150166876Y-111100543D01*
X150139625Y-111079961D01*
X150090093Y-111057725D01*
X150032684Y-111047404D01*
X149979318Y-111050167D01*
X149949457Y-111061312D01*
X149937739Y-111064483D01*
X149929963Y-111052657D01*
X149924535Y-111020966D01*
X149920429Y-110972693D01*
X149915933Y-110918929D01*
X149909687Y-110886582D01*
X149898324Y-110868085D01*
X149878472Y-110855870D01*
X149866000Y-110850462D01*
X149818829Y-110830701D01*
X149818883Y-111167458D01*
X149818883Y-111167458D01*
G37*
X149818883Y-111167458D02*
X149819067Y-111275937D01*
X149819781Y-111359387D01*
X149821325Y-111421804D01*
X149823999Y-111467185D01*
X149828106Y-111499529D01*
X149833945Y-111522833D01*
X149841818Y-111541095D01*
X149847779Y-111551518D01*
X149897145Y-111608045D01*
X149959736Y-111643477D01*
X150028987Y-111656190D01*
X150098332Y-111644563D01*
X150139625Y-111623668D01*
X150182975Y-111587522D01*
X150212519Y-111543376D01*
X150230345Y-111485562D01*
X150238537Y-111408413D01*
X150239698Y-111351814D01*
X150239542Y-111347747D01*
X150138143Y-111347747D01*
X150137524Y-111412650D01*
X150134686Y-111455614D01*
X150128160Y-111483722D01*
X150116477Y-111504053D01*
X150102517Y-111519388D01*
X150055635Y-111548990D01*
X150005299Y-111551519D01*
X149957724Y-111526805D01*
X149954021Y-111523456D01*
X149938217Y-111506035D01*
X149928307Y-111485309D01*
X149922942Y-111454462D01*
X149920772Y-111406677D01*
X149920429Y-111353848D01*
X149921173Y-111287481D01*
X149924252Y-111243206D01*
X149930939Y-111214109D01*
X149942504Y-111193273D01*
X149951987Y-111182207D01*
X149996040Y-111154298D01*
X150046776Y-111150943D01*
X150095204Y-111172259D01*
X150104550Y-111180173D01*
X150120460Y-111197747D01*
X150130390Y-111218687D01*
X150135722Y-111249882D01*
X150137837Y-111298222D01*
X150138143Y-111347747D01*
X150239542Y-111347747D01*
X150236190Y-111260668D01*
X150224274Y-111192186D01*
X150201865Y-111140700D01*
X150166876Y-111100543D01*
X150139625Y-111079961D01*
X150090093Y-111057725D01*
X150032684Y-111047404D01*
X149979318Y-111050167D01*
X149949457Y-111061312D01*
X149937739Y-111064483D01*
X149929963Y-111052657D01*
X149924535Y-111020966D01*
X149920429Y-110972693D01*
X149915933Y-110918929D01*
X149909687Y-110886582D01*
X149898324Y-110868085D01*
X149878472Y-110855870D01*
X149866000Y-110850462D01*
X149818829Y-110830701D01*
X149818883Y-111167458D01*
G36*
X149229167Y-111060763D02*
G01*
X149226952Y-111098950D01*
X149225216Y-111156986D01*
X149224101Y-111230280D01*
X149223743Y-111307155D01*
X149223743Y-111567296D01*
X149269674Y-111613227D01*
X149301325Y-111641529D01*
X149329110Y-111652993D01*
X149367085Y-111652268D01*
X149382160Y-111650421D01*
X149429274Y-111645048D01*
X149468244Y-111641969D01*
X149477743Y-111641685D01*
X149509767Y-111643545D01*
X149555568Y-111648214D01*
X149573326Y-111650421D01*
X149616943Y-111653835D01*
X149646255Y-111646420D01*
X149675320Y-111623527D01*
X149685812Y-111613227D01*
X149731743Y-111567296D01*
X149731743Y-111080702D01*
X149694774Y-111063858D01*
X149662941Y-111051382D01*
X149644317Y-111047014D01*
X149639542Y-111060818D01*
X149635079Y-111099386D01*
X149631225Y-111158456D01*
X149628278Y-111233763D01*
X149626857Y-111297386D01*
X149622886Y-111547757D01*
X149588241Y-111552656D01*
X149556732Y-111549231D01*
X149541292Y-111538141D01*
X149536977Y-111517408D01*
X149533292Y-111473245D01*
X149530531Y-111411246D01*
X149528988Y-111337009D01*
X149528765Y-111298806D01*
X149528543Y-111078883D01*
X149482834Y-111062949D01*
X149450482Y-111052115D01*
X149432885Y-111047062D01*
X149432377Y-111047014D01*
X149430612Y-111060748D01*
X149428671Y-111098830D01*
X149426718Y-111156582D01*
X149424916Y-111229327D01*
X149423657Y-111297386D01*
X149419686Y-111547757D01*
X149332600Y-111547757D01*
X149328604Y-111319340D01*
X149324608Y-111090922D01*
X149282153Y-111068968D01*
X149250808Y-111053893D01*
X149232256Y-111047051D01*
X149231721Y-111047014D01*
X149229167Y-111060763D01*
X149229167Y-111060763D01*
G37*
X149229167Y-111060763D02*
X149226952Y-111098950D01*
X149225216Y-111156986D01*
X149224101Y-111230280D01*
X149223743Y-111307155D01*
X149223743Y-111567296D01*
X149269674Y-111613227D01*
X149301325Y-111641529D01*
X149329110Y-111652993D01*
X149367085Y-111652268D01*
X149382160Y-111650421D01*
X149429274Y-111645048D01*
X149468244Y-111641969D01*
X149477743Y-111641685D01*
X149509767Y-111643545D01*
X149555568Y-111648214D01*
X149573326Y-111650421D01*
X149616943Y-111653835D01*
X149646255Y-111646420D01*
X149675320Y-111623527D01*
X149685812Y-111613227D01*
X149731743Y-111567296D01*
X149731743Y-111080702D01*
X149694774Y-111063858D01*
X149662941Y-111051382D01*
X149644317Y-111047014D01*
X149639542Y-111060818D01*
X149635079Y-111099386D01*
X149631225Y-111158456D01*
X149628278Y-111233763D01*
X149626857Y-111297386D01*
X149622886Y-111547757D01*
X149588241Y-111552656D01*
X149556732Y-111549231D01*
X149541292Y-111538141D01*
X149536977Y-111517408D01*
X149533292Y-111473245D01*
X149530531Y-111411246D01*
X149528988Y-111337009D01*
X149528765Y-111298806D01*
X149528543Y-111078883D01*
X149482834Y-111062949D01*
X149450482Y-111052115D01*
X149432885Y-111047062D01*
X149432377Y-111047014D01*
X149430612Y-111060748D01*
X149428671Y-111098830D01*
X149426718Y-111156582D01*
X149424916Y-111229327D01*
X149423657Y-111297386D01*
X149419686Y-111547757D01*
X149332600Y-111547757D01*
X149328604Y-111319340D01*
X149324608Y-111090922D01*
X149282153Y-111068968D01*
X149250808Y-111053893D01*
X149232256Y-111047051D01*
X149231721Y-111047014D01*
X149229167Y-111060763D01*
G36*
X148864124Y-111058435D02*
G01*
X148822333Y-111077444D01*
X148789531Y-111100478D01*
X148765497Y-111126233D01*
X148748903Y-111159458D01*
X148738423Y-111204900D01*
X148732729Y-111267307D01*
X148730493Y-111351427D01*
X148730257Y-111406821D01*
X148730257Y-111622926D01*
X148767226Y-111639770D01*
X148796344Y-111652081D01*
X148810769Y-111656614D01*
X148813528Y-111643125D01*
X148815718Y-111606753D01*
X148817058Y-111553642D01*
X148817343Y-111511472D01*
X148818566Y-111450547D01*
X148821864Y-111402215D01*
X148826679Y-111372618D01*
X148830504Y-111366329D01*
X148856217Y-111372752D01*
X148896582Y-111389225D01*
X148943321Y-111411558D01*
X148988155Y-111435557D01*
X149022807Y-111457030D01*
X149038998Y-111471785D01*
X149039062Y-111471945D01*
X149037670Y-111499252D01*
X149025182Y-111525319D01*
X149003257Y-111546492D01*
X148971257Y-111553574D01*
X148943908Y-111552749D01*
X148905174Y-111552142D01*
X148884842Y-111561216D01*
X148872631Y-111585192D01*
X148871091Y-111589713D01*
X148865797Y-111623906D01*
X148879953Y-111644668D01*
X148916852Y-111654562D01*
X148956711Y-111656392D01*
X149028438Y-111642827D01*
X149065568Y-111623455D01*
X149111424Y-111577945D01*
X149135744Y-111522083D01*
X149137927Y-111463057D01*
X149117371Y-111408053D01*
X149086451Y-111373586D01*
X149055580Y-111354289D01*
X149007058Y-111329859D01*
X148950515Y-111305085D01*
X148941090Y-111301299D01*
X148878981Y-111273891D01*
X148843178Y-111249734D01*
X148831663Y-111225719D01*
X148842420Y-111198735D01*
X148860886Y-111177643D01*
X148904531Y-111151672D01*
X148952554Y-111149724D01*
X148996594Y-111169737D01*
X149028291Y-111209651D01*
X149032451Y-111219948D01*
X149056673Y-111257824D01*
X149092035Y-111285942D01*
X149136657Y-111309017D01*
X149136657Y-111243585D01*
X149134031Y-111203606D01*
X149122770Y-111172097D01*
X149097801Y-111138478D01*
X149073831Y-111112584D01*
X149036559Y-111075917D01*
X149007599Y-111056221D01*
X148976495Y-111048320D01*
X148941287Y-111047014D01*
X148864124Y-111058435D01*
X148864124Y-111058435D01*
G37*
X148864124Y-111058435D02*
X148822333Y-111077444D01*
X148789531Y-111100478D01*
X148765497Y-111126233D01*
X148748903Y-111159458D01*
X148738423Y-111204900D01*
X148732729Y-111267307D01*
X148730493Y-111351427D01*
X148730257Y-111406821D01*
X148730257Y-111622926D01*
X148767226Y-111639770D01*
X148796344Y-111652081D01*
X148810769Y-111656614D01*
X148813528Y-111643125D01*
X148815718Y-111606753D01*
X148817058Y-111553642D01*
X148817343Y-111511472D01*
X148818566Y-111450547D01*
X148821864Y-111402215D01*
X148826679Y-111372618D01*
X148830504Y-111366329D01*
X148856217Y-111372752D01*
X148896582Y-111389225D01*
X148943321Y-111411558D01*
X148988155Y-111435557D01*
X149022807Y-111457030D01*
X149038998Y-111471785D01*
X149039062Y-111471945D01*
X149037670Y-111499252D01*
X149025182Y-111525319D01*
X149003257Y-111546492D01*
X148971257Y-111553574D01*
X148943908Y-111552749D01*
X148905174Y-111552142D01*
X148884842Y-111561216D01*
X148872631Y-111585192D01*
X148871091Y-111589713D01*
X148865797Y-111623906D01*
X148879953Y-111644668D01*
X148916852Y-111654562D01*
X148956711Y-111656392D01*
X149028438Y-111642827D01*
X149065568Y-111623455D01*
X149111424Y-111577945D01*
X149135744Y-111522083D01*
X149137927Y-111463057D01*
X149117371Y-111408053D01*
X149086451Y-111373586D01*
X149055580Y-111354289D01*
X149007058Y-111329859D01*
X148950515Y-111305085D01*
X148941090Y-111301299D01*
X148878981Y-111273891D01*
X148843178Y-111249734D01*
X148831663Y-111225719D01*
X148842420Y-111198735D01*
X148860886Y-111177643D01*
X148904531Y-111151672D01*
X148952554Y-111149724D01*
X148996594Y-111169737D01*
X149028291Y-111209651D01*
X149032451Y-111219948D01*
X149056673Y-111257824D01*
X149092035Y-111285942D01*
X149136657Y-111309017D01*
X149136657Y-111243585D01*
X149134031Y-111203606D01*
X149122770Y-111172097D01*
X149097801Y-111138478D01*
X149073831Y-111112584D01*
X149036559Y-111075917D01*
X149007599Y-111056221D01*
X148976495Y-111048320D01*
X148941287Y-111047014D01*
X148864124Y-111058435D01*
G36*
X148356400Y-111060852D02*
G01*
X148339052Y-111068434D01*
X148297644Y-111101228D01*
X148262235Y-111148647D01*
X148240336Y-111199251D01*
X148236771Y-111224198D01*
X148248721Y-111259027D01*
X148274933Y-111277457D01*
X148303036Y-111288616D01*
X148315905Y-111290672D01*
X148322171Y-111275749D01*
X148334544Y-111243275D01*
X148339972Y-111228602D01*
X148370410Y-111177844D01*
X148414480Y-111152527D01*
X148470990Y-111153306D01*
X148475175Y-111154303D01*
X148505345Y-111168607D01*
X148527524Y-111196493D01*
X148542673Y-111241387D01*
X148551750Y-111306715D01*
X148555714Y-111395904D01*
X148556086Y-111443361D01*
X148556270Y-111518171D01*
X148557478Y-111569169D01*
X148560691Y-111601571D01*
X148566891Y-111620595D01*
X148577060Y-111631456D01*
X148592181Y-111639372D01*
X148593054Y-111639770D01*
X148622172Y-111652081D01*
X148636597Y-111656614D01*
X148638814Y-111642909D01*
X148640711Y-111605025D01*
X148642153Y-111547815D01*
X148643002Y-111476127D01*
X148643171Y-111423665D01*
X148642308Y-111322147D01*
X148638930Y-111245132D01*
X148631858Y-111188123D01*
X148619912Y-111146626D01*
X148601910Y-111116143D01*
X148576673Y-111092180D01*
X148551753Y-111075455D01*
X148491829Y-111053197D01*
X148422089Y-111048176D01*
X148356400Y-111060852D01*
X148356400Y-111060852D01*
G37*
X148356400Y-111060852D02*
X148339052Y-111068434D01*
X148297644Y-111101228D01*
X148262235Y-111148647D01*
X148240336Y-111199251D01*
X148236771Y-111224198D01*
X148248721Y-111259027D01*
X148274933Y-111277457D01*
X148303036Y-111288616D01*
X148315905Y-111290672D01*
X148322171Y-111275749D01*
X148334544Y-111243275D01*
X148339972Y-111228602D01*
X148370410Y-111177844D01*
X148414480Y-111152527D01*
X148470990Y-111153306D01*
X148475175Y-111154303D01*
X148505345Y-111168607D01*
X148527524Y-111196493D01*
X148542673Y-111241387D01*
X148551750Y-111306715D01*
X148555714Y-111395904D01*
X148556086Y-111443361D01*
X148556270Y-111518171D01*
X148557478Y-111569169D01*
X148560691Y-111601571D01*
X148566891Y-111620595D01*
X148577060Y-111631456D01*
X148592181Y-111639372D01*
X148593054Y-111639770D01*
X148622172Y-111652081D01*
X148636597Y-111656614D01*
X148638814Y-111642909D01*
X148640711Y-111605025D01*
X148642153Y-111547815D01*
X148643002Y-111476127D01*
X148643171Y-111423665D01*
X148642308Y-111322147D01*
X148638930Y-111245132D01*
X148631858Y-111188123D01*
X148619912Y-111146626D01*
X148601910Y-111116143D01*
X148576673Y-111092180D01*
X148551753Y-111075455D01*
X148491829Y-111053197D01*
X148422089Y-111048176D01*
X148356400Y-111060852D01*
G36*
X147855405Y-111069066D02*
G01*
X147797979Y-111106597D01*
X147770281Y-111140196D01*
X147748338Y-111201164D01*
X147746595Y-111249408D01*
X147750543Y-111313916D01*
X147899314Y-111379034D01*
X147971651Y-111412302D01*
X148018916Y-111439064D01*
X148043493Y-111462244D01*
X148047763Y-111484767D01*
X148034111Y-111509555D01*
X148019057Y-111525986D01*
X147975254Y-111552335D01*
X147927611Y-111554181D01*
X147883855Y-111533646D01*
X147851711Y-111492852D01*
X147845962Y-111478447D01*
X147818424Y-111433456D01*
X147786742Y-111414282D01*
X147743286Y-111397879D01*
X147743286Y-111460066D01*
X147747128Y-111502383D01*
X147762177Y-111538069D01*
X147793720Y-111579043D01*
X147798408Y-111584367D01*
X147833494Y-111620820D01*
X147863653Y-111640383D01*
X147901385Y-111649383D01*
X147932665Y-111652330D01*
X147988615Y-111653065D01*
X148028445Y-111643760D01*
X148053292Y-111629946D01*
X148092344Y-111599567D01*
X148119375Y-111566713D01*
X148136483Y-111525394D01*
X148145762Y-111469621D01*
X148149307Y-111393405D01*
X148149590Y-111354722D01*
X148148628Y-111308347D01*
X148060993Y-111308347D01*
X148059977Y-111333226D01*
X148057444Y-111337300D01*
X148040726Y-111331765D01*
X148004751Y-111317117D01*
X147956669Y-111296290D01*
X147946614Y-111291814D01*
X147885848Y-111260914D01*
X147852368Y-111233757D01*
X147845010Y-111208320D01*
X147862609Y-111182581D01*
X147877144Y-111171209D01*
X147929590Y-111148464D01*
X147978678Y-111152222D01*
X148019773Y-111179984D01*
X148048242Y-111229252D01*
X148057369Y-111268357D01*
X148060993Y-111308347D01*
X148148628Y-111308347D01*
X148147715Y-111264349D01*
X148140804Y-111197484D01*
X148127116Y-111148795D01*
X148104904Y-111112949D01*
X148072426Y-111084613D01*
X148058267Y-111075455D01*
X147993947Y-111051607D01*
X147923527Y-111050106D01*
X147855405Y-111069066D01*
X147855405Y-111069066D01*
G37*
X147855405Y-111069066D02*
X147797979Y-111106597D01*
X147770281Y-111140196D01*
X147748338Y-111201164D01*
X147746595Y-111249408D01*
X147750543Y-111313916D01*
X147899314Y-111379034D01*
X147971651Y-111412302D01*
X148018916Y-111439064D01*
X148043493Y-111462244D01*
X148047763Y-111484767D01*
X148034111Y-111509555D01*
X148019057Y-111525986D01*
X147975254Y-111552335D01*
X147927611Y-111554181D01*
X147883855Y-111533646D01*
X147851711Y-111492852D01*
X147845962Y-111478447D01*
X147818424Y-111433456D01*
X147786742Y-111414282D01*
X147743286Y-111397879D01*
X147743286Y-111460066D01*
X147747128Y-111502383D01*
X147762177Y-111538069D01*
X147793720Y-111579043D01*
X147798408Y-111584367D01*
X147833494Y-111620820D01*
X147863653Y-111640383D01*
X147901385Y-111649383D01*
X147932665Y-111652330D01*
X147988615Y-111653065D01*
X148028445Y-111643760D01*
X148053292Y-111629946D01*
X148092344Y-111599567D01*
X148119375Y-111566713D01*
X148136483Y-111525394D01*
X148145762Y-111469621D01*
X148149307Y-111393405D01*
X148149590Y-111354722D01*
X148148628Y-111308347D01*
X148060993Y-111308347D01*
X148059977Y-111333226D01*
X148057444Y-111337300D01*
X148040726Y-111331765D01*
X148004751Y-111317117D01*
X147956669Y-111296290D01*
X147946614Y-111291814D01*
X147885848Y-111260914D01*
X147852368Y-111233757D01*
X147845010Y-111208320D01*
X147862609Y-111182581D01*
X147877144Y-111171209D01*
X147929590Y-111148464D01*
X147978678Y-111152222D01*
X148019773Y-111179984D01*
X148048242Y-111229252D01*
X148057369Y-111268357D01*
X148060993Y-111308347D01*
X148148628Y-111308347D01*
X148147715Y-111264349D01*
X148140804Y-111197484D01*
X148127116Y-111148795D01*
X148104904Y-111112949D01*
X148072426Y-111084613D01*
X148058267Y-111075455D01*
X147993947Y-111051607D01*
X147923527Y-111050106D01*
X147855405Y-111069066D01*
G36*
X150905090Y-106344448D02*
G01*
X150826546Y-106344878D01*
X150769702Y-106346042D01*
X150730895Y-106348307D01*
X150706462Y-106352040D01*
X150692738Y-106357606D01*
X150686060Y-106365373D01*
X150682764Y-106375705D01*
X150682444Y-106377043D01*
X150677438Y-106401179D01*
X150668171Y-106448801D01*
X150655608Y-106514841D01*
X150640713Y-106594228D01*
X150624449Y-106681896D01*
X150623881Y-106684975D01*
X150607590Y-106770889D01*
X150592348Y-106846796D01*
X150579139Y-106908145D01*
X150568946Y-106950382D01*
X150562752Y-106968955D01*
X150562457Y-106969284D01*
X150544212Y-106978353D01*
X150506595Y-106993467D01*
X150457729Y-107011362D01*
X150457457Y-107011458D01*
X150395907Y-107034593D01*
X150323343Y-107064065D01*
X150254943Y-107093697D01*
X150251706Y-107095162D01*
X150140298Y-107145726D01*
X149893601Y-106977260D01*
X149817923Y-106925903D01*
X149749369Y-106879989D01*
X149691912Y-106842130D01*
X149649524Y-106814937D01*
X149626175Y-106801021D01*
X149623958Y-106799989D01*
X149606990Y-106804584D01*
X149575299Y-106826755D01*
X149527648Y-106867547D01*
X149462802Y-106928005D01*
X149396603Y-106992327D01*
X149332786Y-107055712D01*
X149275671Y-107113551D01*
X149228695Y-107162275D01*
X149195297Y-107198310D01*
X149178915Y-107218084D01*
X149178306Y-107219102D01*
X149176495Y-107232672D01*
X149183317Y-107254833D01*
X149200460Y-107288578D01*
X149229607Y-107336900D01*
X149272445Y-107402792D01*
X149329552Y-107487617D01*
X149380234Y-107562277D01*
X149425539Y-107629240D01*
X149462850Y-107684616D01*
X149489548Y-107724520D01*
X149503015Y-107745062D01*
X149503863Y-107746456D01*
X149502219Y-107766138D01*
X149489755Y-107804393D01*
X149468952Y-107853989D01*
X149461538Y-107869828D01*
X149429186Y-107940390D01*
X149394672Y-108020453D01*
X149366635Y-108089729D01*
X149346432Y-108141145D01*
X149330385Y-108180219D01*
X149321112Y-108200641D01*
X149319959Y-108202214D01*
X149302904Y-108204821D01*
X149262702Y-108211963D01*
X149204698Y-108222623D01*
X149134237Y-108235785D01*
X149056665Y-108250433D01*
X148977328Y-108265549D01*
X148901569Y-108280118D01*
X148834736Y-108293122D01*
X148782172Y-108303545D01*
X148749224Y-108310370D01*
X148741143Y-108312299D01*
X148732795Y-108317062D01*
X148726494Y-108327818D01*
X148721955Y-108348198D01*
X148718896Y-108381834D01*
X148717033Y-108432355D01*
X148716082Y-108503392D01*
X148715760Y-108598576D01*
X148715743Y-108637592D01*
X148715743Y-108954899D01*
X148791943Y-108969939D01*
X148834337Y-108978095D01*
X148897600Y-108989999D01*
X148974038Y-109004216D01*
X149055957Y-109019310D01*
X149078600Y-109023455D01*
X149154194Y-109038153D01*
X149220047Y-109052605D01*
X149270634Y-109065475D01*
X149300426Y-109075422D01*
X149305388Y-109078387D01*
X149317574Y-109099383D01*
X149335047Y-109140067D01*
X149354423Y-109192422D01*
X149358266Y-109203700D01*
X149383661Y-109273623D01*
X149415183Y-109352518D01*
X149446031Y-109423366D01*
X149446183Y-109423695D01*
X149497553Y-109534833D01*
X149328601Y-109783353D01*
X149159648Y-110031872D01*
X149376571Y-110249158D01*
X149442181Y-110313826D01*
X149502021Y-110370833D01*
X149552733Y-110417133D01*
X149590954Y-110449684D01*
X149613325Y-110465443D01*
X149616534Y-110466443D01*
X149635374Y-110458569D01*
X149673820Y-110436678D01*
X149727670Y-110403367D01*
X149792724Y-110361231D01*
X149863060Y-110314043D01*
X149934445Y-110265910D01*
X149998092Y-110224028D01*
X150049959Y-110190971D01*
X150086005Y-110169318D01*
X150102133Y-110161643D01*
X150121811Y-110168137D01*
X150159125Y-110185250D01*
X150206379Y-110209426D01*
X150211388Y-110212113D01*
X150275023Y-110244027D01*
X150318659Y-110259679D01*
X150345798Y-110259845D01*
X150359943Y-110245304D01*
X150360025Y-110245100D01*
X150367095Y-110227879D01*
X150383958Y-110186999D01*
X150409305Y-110125625D01*
X150441829Y-110046919D01*
X150480222Y-109954047D01*
X150523178Y-109850172D01*
X150564778Y-109749602D01*
X150610496Y-109638616D01*
X150652474Y-109535803D01*
X150689452Y-109444315D01*
X150720173Y-109367301D01*
X150743378Y-109307915D01*
X150757810Y-109269309D01*
X150762257Y-109254900D01*
X150751104Y-109238372D01*
X150721931Y-109212030D01*
X150683029Y-109182987D01*
X150572243Y-109091139D01*
X150485649Y-108985859D01*
X150424284Y-108869366D01*
X150389185Y-108743876D01*
X150381392Y-108611607D01*
X150387057Y-108550557D01*
X150417922Y-108423895D01*
X150471080Y-108312041D01*
X150543233Y-108216101D01*
X150631083Y-108137176D01*
X150731335Y-108076370D01*
X150840690Y-108034787D01*
X150955853Y-108013528D01*
X151073525Y-108013699D01*
X151190410Y-108036401D01*
X151303211Y-108082738D01*
X151408631Y-108153813D01*
X151452632Y-108194011D01*
X151537021Y-108297229D01*
X151595778Y-108410025D01*
X151629296Y-108529110D01*
X151637965Y-108651195D01*
X151622177Y-108772993D01*
X151582322Y-108891216D01*
X151518793Y-109002575D01*
X151431979Y-109103784D01*
X151334971Y-109182987D01*
X151294563Y-109213262D01*
X151266018Y-109239319D01*
X151255743Y-109254925D01*
X151261123Y-109271943D01*
X151276425Y-109312600D01*
X151300388Y-109373742D01*
X151331756Y-109452219D01*
X151369268Y-109544880D01*
X151411667Y-109648572D01*
X151453337Y-109749626D01*
X151499310Y-109860707D01*
X151541893Y-109963641D01*
X151579779Y-110055265D01*
X151611660Y-110132416D01*
X151636229Y-110191931D01*
X151652180Y-110230644D01*
X151658090Y-110245100D01*
X151672052Y-110259785D01*
X151699060Y-110259742D01*
X151742587Y-110244199D01*
X151806110Y-110212384D01*
X151806612Y-110212113D01*
X151854440Y-110187423D01*
X151893103Y-110169438D01*
X151914905Y-110161714D01*
X151915867Y-110161643D01*
X151932279Y-110169478D01*
X151968513Y-110191265D01*
X152020526Y-110224428D01*
X152084275Y-110266391D01*
X152154940Y-110314043D01*
X152226884Y-110362291D01*
X152291726Y-110404251D01*
X152345265Y-110437327D01*
X152383303Y-110458921D01*
X152401467Y-110466443D01*
X152418192Y-110456557D01*
X152451820Y-110428926D01*
X152498990Y-110386595D01*
X152556342Y-110332605D01*
X152620516Y-110269999D01*
X152641503Y-110249083D01*
X152858501Y-110031723D01*
X152693332Y-109789320D01*
X152643136Y-109714881D01*
X152599081Y-109648072D01*
X152563638Y-109592765D01*
X152539281Y-109552829D01*
X152528478Y-109532136D01*
X152528162Y-109530663D01*
X152533857Y-109511158D01*
X152549174Y-109471922D01*
X152571463Y-109419530D01*
X152587107Y-109384455D01*
X152616359Y-109317301D01*
X152643906Y-109249458D01*
X152665263Y-109192134D01*
X152671065Y-109174672D01*
X152687548Y-109128038D01*
X152703660Y-109092005D01*
X152712510Y-109078387D01*
X152732040Y-109070052D01*
X152774666Y-109058237D01*
X152834855Y-109044281D01*
X152907078Y-109029522D01*
X152939400Y-109023455D01*
X153021478Y-109008373D01*
X153100205Y-108993769D01*
X153167891Y-108981080D01*
X153216840Y-108971742D01*
X153226057Y-108969939D01*
X153302257Y-108954899D01*
X153302257Y-108637592D01*
X153302086Y-108533254D01*
X153301384Y-108454313D01*
X153299866Y-108397138D01*
X153297251Y-108358099D01*
X153293254Y-108333565D01*
X153287591Y-108319905D01*
X153279980Y-108313489D01*
X153276857Y-108312299D01*
X153258022Y-108308080D01*
X153216412Y-108299662D01*
X153157370Y-108288061D01*
X153086243Y-108274295D01*
X153008375Y-108259380D01*
X152929113Y-108244332D01*
X152853802Y-108230169D01*
X152787787Y-108217906D01*
X152736413Y-108208561D01*
X152705025Y-108203150D01*
X152698041Y-108202214D01*
X152691715Y-108189696D01*
X152677710Y-108156346D01*
X152658645Y-108108477D01*
X152651366Y-108089729D01*
X152622004Y-108017295D01*
X152587429Y-107937270D01*
X152556463Y-107869828D01*
X152533677Y-107818259D01*
X152518518Y-107775885D01*
X152513458Y-107749934D01*
X152514264Y-107746456D01*
X152524959Y-107730036D01*
X152549380Y-107693517D01*
X152584905Y-107640787D01*
X152628913Y-107575735D01*
X152678783Y-107502251D01*
X152688644Y-107487745D01*
X152746508Y-107401804D01*
X152789044Y-107336361D01*
X152817946Y-107288404D01*
X152834910Y-107254920D01*
X152841633Y-107232895D01*
X152839810Y-107219317D01*
X152839764Y-107219231D01*
X152825414Y-107201397D01*
X152793677Y-107166917D01*
X152747990Y-107119368D01*
X152691796Y-107062322D01*
X152628532Y-106999355D01*
X152621398Y-106992327D01*
X152541670Y-106915120D01*
X152480143Y-106858430D01*
X152435579Y-106821210D01*
X152406743Y-106802415D01*
X152394042Y-106799989D01*
X152375506Y-106810571D01*
X152337039Y-106835016D01*
X152282614Y-106870712D01*
X152216202Y-106915047D01*
X152141775Y-106965411D01*
X152124399Y-106977260D01*
X151877703Y-107145726D01*
X151766294Y-107095162D01*
X151698543Y-107065695D01*
X151625817Y-107036059D01*
X151563297Y-107012430D01*
X151560543Y-107011458D01*
X151511640Y-106993557D01*
X151473943Y-106978420D01*
X151455575Y-106969310D01*
X151455544Y-106969284D01*
X151449715Y-106952817D01*
X151439808Y-106912319D01*
X151426805Y-106852342D01*
X151411691Y-106777440D01*
X151395448Y-106692164D01*
X151394119Y-106684975D01*
X151377825Y-106597114D01*
X151362867Y-106517360D01*
X151350209Y-106450781D01*
X151340814Y-106402447D01*
X151335646Y-106377425D01*
X151335556Y-106377043D01*
X151332411Y-106366399D01*
X151326296Y-106358362D01*
X151313547Y-106352567D01*
X151290500Y-106348647D01*
X151253491Y-106346235D01*
X151198856Y-106344965D01*
X151122933Y-106344471D01*
X151022056Y-106344386D01*
X151009000Y-106344386D01*
X150905090Y-106344448D01*
X150905090Y-106344448D01*
G37*
X150905090Y-106344448D02*
X150826546Y-106344878D01*
X150769702Y-106346042D01*
X150730895Y-106348307D01*
X150706462Y-106352040D01*
X150692738Y-106357606D01*
X150686060Y-106365373D01*
X150682764Y-106375705D01*
X150682444Y-106377043D01*
X150677438Y-106401179D01*
X150668171Y-106448801D01*
X150655608Y-106514841D01*
X150640713Y-106594228D01*
X150624449Y-106681896D01*
X150623881Y-106684975D01*
X150607590Y-106770889D01*
X150592348Y-106846796D01*
X150579139Y-106908145D01*
X150568946Y-106950382D01*
X150562752Y-106968955D01*
X150562457Y-106969284D01*
X150544212Y-106978353D01*
X150506595Y-106993467D01*
X150457729Y-107011362D01*
X150457457Y-107011458D01*
X150395907Y-107034593D01*
X150323343Y-107064065D01*
X150254943Y-107093697D01*
X150251706Y-107095162D01*
X150140298Y-107145726D01*
X149893601Y-106977260D01*
X149817923Y-106925903D01*
X149749369Y-106879989D01*
X149691912Y-106842130D01*
X149649524Y-106814937D01*
X149626175Y-106801021D01*
X149623958Y-106799989D01*
X149606990Y-106804584D01*
X149575299Y-106826755D01*
X149527648Y-106867547D01*
X149462802Y-106928005D01*
X149396603Y-106992327D01*
X149332786Y-107055712D01*
X149275671Y-107113551D01*
X149228695Y-107162275D01*
X149195297Y-107198310D01*
X149178915Y-107218084D01*
X149178306Y-107219102D01*
X149176495Y-107232672D01*
X149183317Y-107254833D01*
X149200460Y-107288578D01*
X149229607Y-107336900D01*
X149272445Y-107402792D01*
X149329552Y-107487617D01*
X149380234Y-107562277D01*
X149425539Y-107629240D01*
X149462850Y-107684616D01*
X149489548Y-107724520D01*
X149503015Y-107745062D01*
X149503863Y-107746456D01*
X149502219Y-107766138D01*
X149489755Y-107804393D01*
X149468952Y-107853989D01*
X149461538Y-107869828D01*
X149429186Y-107940390D01*
X149394672Y-108020453D01*
X149366635Y-108089729D01*
X149346432Y-108141145D01*
X149330385Y-108180219D01*
X149321112Y-108200641D01*
X149319959Y-108202214D01*
X149302904Y-108204821D01*
X149262702Y-108211963D01*
X149204698Y-108222623D01*
X149134237Y-108235785D01*
X149056665Y-108250433D01*
X148977328Y-108265549D01*
X148901569Y-108280118D01*
X148834736Y-108293122D01*
X148782172Y-108303545D01*
X148749224Y-108310370D01*
X148741143Y-108312299D01*
X148732795Y-108317062D01*
X148726494Y-108327818D01*
X148721955Y-108348198D01*
X148718896Y-108381834D01*
X148717033Y-108432355D01*
X148716082Y-108503392D01*
X148715760Y-108598576D01*
X148715743Y-108637592D01*
X148715743Y-108954899D01*
X148791943Y-108969939D01*
X148834337Y-108978095D01*
X148897600Y-108989999D01*
X148974038Y-109004216D01*
X149055957Y-109019310D01*
X149078600Y-109023455D01*
X149154194Y-109038153D01*
X149220047Y-109052605D01*
X149270634Y-109065475D01*
X149300426Y-109075422D01*
X149305388Y-109078387D01*
X149317574Y-109099383D01*
X149335047Y-109140067D01*
X149354423Y-109192422D01*
X149358266Y-109203700D01*
X149383661Y-109273623D01*
X149415183Y-109352518D01*
X149446031Y-109423366D01*
X149446183Y-109423695D01*
X149497553Y-109534833D01*
X149328601Y-109783353D01*
X149159648Y-110031872D01*
X149376571Y-110249158D01*
X149442181Y-110313826D01*
X149502021Y-110370833D01*
X149552733Y-110417133D01*
X149590954Y-110449684D01*
X149613325Y-110465443D01*
X149616534Y-110466443D01*
X149635374Y-110458569D01*
X149673820Y-110436678D01*
X149727670Y-110403367D01*
X149792724Y-110361231D01*
X149863060Y-110314043D01*
X149934445Y-110265910D01*
X149998092Y-110224028D01*
X150049959Y-110190971D01*
X150086005Y-110169318D01*
X150102133Y-110161643D01*
X150121811Y-110168137D01*
X150159125Y-110185250D01*
X150206379Y-110209426D01*
X150211388Y-110212113D01*
X150275023Y-110244027D01*
X150318659Y-110259679D01*
X150345798Y-110259845D01*
X150359943Y-110245304D01*
X150360025Y-110245100D01*
X150367095Y-110227879D01*
X150383958Y-110186999D01*
X150409305Y-110125625D01*
X150441829Y-110046919D01*
X150480222Y-109954047D01*
X150523178Y-109850172D01*
X150564778Y-109749602D01*
X150610496Y-109638616D01*
X150652474Y-109535803D01*
X150689452Y-109444315D01*
X150720173Y-109367301D01*
X150743378Y-109307915D01*
X150757810Y-109269309D01*
X150762257Y-109254900D01*
X150751104Y-109238372D01*
X150721931Y-109212030D01*
X150683029Y-109182987D01*
X150572243Y-109091139D01*
X150485649Y-108985859D01*
X150424284Y-108869366D01*
X150389185Y-108743876D01*
X150381392Y-108611607D01*
X150387057Y-108550557D01*
X150417922Y-108423895D01*
X150471080Y-108312041D01*
X150543233Y-108216101D01*
X150631083Y-108137176D01*
X150731335Y-108076370D01*
X150840690Y-108034787D01*
X150955853Y-108013528D01*
X151073525Y-108013699D01*
X151190410Y-108036401D01*
X151303211Y-108082738D01*
X151408631Y-108153813D01*
X151452632Y-108194011D01*
X151537021Y-108297229D01*
X151595778Y-108410025D01*
X151629296Y-108529110D01*
X151637965Y-108651195D01*
X151622177Y-108772993D01*
X151582322Y-108891216D01*
X151518793Y-109002575D01*
X151431979Y-109103784D01*
X151334971Y-109182987D01*
X151294563Y-109213262D01*
X151266018Y-109239319D01*
X151255743Y-109254925D01*
X151261123Y-109271943D01*
X151276425Y-109312600D01*
X151300388Y-109373742D01*
X151331756Y-109452219D01*
X151369268Y-109544880D01*
X151411667Y-109648572D01*
X151453337Y-109749626D01*
X151499310Y-109860707D01*
X151541893Y-109963641D01*
X151579779Y-110055265D01*
X151611660Y-110132416D01*
X151636229Y-110191931D01*
X151652180Y-110230644D01*
X151658090Y-110245100D01*
X151672052Y-110259785D01*
X151699060Y-110259742D01*
X151742587Y-110244199D01*
X151806110Y-110212384D01*
X151806612Y-110212113D01*
X151854440Y-110187423D01*
X151893103Y-110169438D01*
X151914905Y-110161714D01*
X151915867Y-110161643D01*
X151932279Y-110169478D01*
X151968513Y-110191265D01*
X152020526Y-110224428D01*
X152084275Y-110266391D01*
X152154940Y-110314043D01*
X152226884Y-110362291D01*
X152291726Y-110404251D01*
X152345265Y-110437327D01*
X152383303Y-110458921D01*
X152401467Y-110466443D01*
X152418192Y-110456557D01*
X152451820Y-110428926D01*
X152498990Y-110386595D01*
X152556342Y-110332605D01*
X152620516Y-110269999D01*
X152641503Y-110249083D01*
X152858501Y-110031723D01*
X152693332Y-109789320D01*
X152643136Y-109714881D01*
X152599081Y-109648072D01*
X152563638Y-109592765D01*
X152539281Y-109552829D01*
X152528478Y-109532136D01*
X152528162Y-109530663D01*
X152533857Y-109511158D01*
X152549174Y-109471922D01*
X152571463Y-109419530D01*
X152587107Y-109384455D01*
X152616359Y-109317301D01*
X152643906Y-109249458D01*
X152665263Y-109192134D01*
X152671065Y-109174672D01*
X152687548Y-109128038D01*
X152703660Y-109092005D01*
X152712510Y-109078387D01*
X152732040Y-109070052D01*
X152774666Y-109058237D01*
X152834855Y-109044281D01*
X152907078Y-109029522D01*
X152939400Y-109023455D01*
X153021478Y-109008373D01*
X153100205Y-108993769D01*
X153167891Y-108981080D01*
X153216840Y-108971742D01*
X153226057Y-108969939D01*
X153302257Y-108954899D01*
X153302257Y-108637592D01*
X153302086Y-108533254D01*
X153301384Y-108454313D01*
X153299866Y-108397138D01*
X153297251Y-108358099D01*
X153293254Y-108333565D01*
X153287591Y-108319905D01*
X153279980Y-108313489D01*
X153276857Y-108312299D01*
X153258022Y-108308080D01*
X153216412Y-108299662D01*
X153157370Y-108288061D01*
X153086243Y-108274295D01*
X153008375Y-108259380D01*
X152929113Y-108244332D01*
X152853802Y-108230169D01*
X152787787Y-108217906D01*
X152736413Y-108208561D01*
X152705025Y-108203150D01*
X152698041Y-108202214D01*
X152691715Y-108189696D01*
X152677710Y-108156346D01*
X152658645Y-108108477D01*
X152651366Y-108089729D01*
X152622004Y-108017295D01*
X152587429Y-107937270D01*
X152556463Y-107869828D01*
X152533677Y-107818259D01*
X152518518Y-107775885D01*
X152513458Y-107749934D01*
X152514264Y-107746456D01*
X152524959Y-107730036D01*
X152549380Y-107693517D01*
X152584905Y-107640787D01*
X152628913Y-107575735D01*
X152678783Y-107502251D01*
X152688644Y-107487745D01*
X152746508Y-107401804D01*
X152789044Y-107336361D01*
X152817946Y-107288404D01*
X152834910Y-107254920D01*
X152841633Y-107232895D01*
X152839810Y-107219317D01*
X152839764Y-107219231D01*
X152825414Y-107201397D01*
X152793677Y-107166917D01*
X152747990Y-107119368D01*
X152691796Y-107062322D01*
X152628532Y-106999355D01*
X152621398Y-106992327D01*
X152541670Y-106915120D01*
X152480143Y-106858430D01*
X152435579Y-106821210D01*
X152406743Y-106802415D01*
X152394042Y-106799989D01*
X152375506Y-106810571D01*
X152337039Y-106835016D01*
X152282614Y-106870712D01*
X152216202Y-106915047D01*
X152141775Y-106965411D01*
X152124399Y-106977260D01*
X151877703Y-107145726D01*
X151766294Y-107095162D01*
X151698543Y-107065695D01*
X151625817Y-107036059D01*
X151563297Y-107012430D01*
X151560543Y-107011458D01*
X151511640Y-106993557D01*
X151473943Y-106978420D01*
X151455575Y-106969310D01*
X151455544Y-106969284D01*
X151449715Y-106952817D01*
X151439808Y-106912319D01*
X151426805Y-106852342D01*
X151411691Y-106777440D01*
X151395448Y-106692164D01*
X151394119Y-106684975D01*
X151377825Y-106597114D01*
X151362867Y-106517360D01*
X151350209Y-106450781D01*
X151340814Y-106402447D01*
X151335646Y-106377425D01*
X151335556Y-106377043D01*
X151332411Y-106366399D01*
X151326296Y-106358362D01*
X151313547Y-106352567D01*
X151290500Y-106348647D01*
X151253491Y-106346235D01*
X151198856Y-106344965D01*
X151122933Y-106344471D01*
X151022056Y-106344386D01*
X151009000Y-106344386D01*
X150905090Y-106344448D01*
M02*
