M48
; DRILL file {KiCad 5.1.0-060a0da~80~ubuntu18.04.1} date Di 28 Mai 2019 03:43:50 CEST
; FORMAT={-:-/ absolute / inch / decimal}
; #@! TF.CreationDate,2019-05-28T03:43:50+02:00
; #@! TF.GenerationSoftware,Kicad,Pcbnew,5.1.0-060a0da~80~ubuntu18.04.1
; #@! TF.FileFunction,Plated,1,4,PTH
FMAT,2
INCH
T1C0.0079
T2C0.0118
T3C0.0394
%
G90
G05
T1
X5.7362Y-4.9935
X5.7534Y-3.8572
X5.7554Y-4.5245
X5.7554Y-4.494
X5.7609Y-5.1009
X5.7739Y-4.1929
X5.7768Y-4.5517
X5.787Y-4.3104
X5.8002Y-4.0504
X5.8045Y-4.6545
X5.8164Y-4.1929
X5.8186Y-4.6909
X5.8201Y-4.8935
X5.8247Y-4.2865
X5.8296Y-5.0987
X5.8351Y-4.0108
X5.8396Y-4.6169
X5.8459Y-4.7903
X5.8502Y-3.9101
X5.8524Y-5.4153
X5.8538Y-3.8572
X5.8573Y-4.5088
X5.8597Y-4.6888
X5.8654Y-4.0037
X5.868Y-5.0874
X5.8691Y-4.2066
X5.8702Y-4.3054
X5.8728Y-5.3628
X5.8736Y-5.4507
X5.8832Y-4.9914
X5.8855Y-4.8912
X5.8936Y-4.7496
X5.8977Y-3.9216
X5.9018Y-4.8504
X5.9058Y-4.0957
X5.9224Y-5.1196
X5.9264Y-5.3809
X5.9274Y-4.7053
X5.9278Y-4.897
X5.9421Y-4.4985
X5.9421Y-4.6157
X5.9441Y-5.4257
X5.9457Y-5.3269
X5.9522Y-4.0959
X5.9652Y-4.372
X5.9739Y-4.3474
X5.9786Y-4.8655
X5.9797Y-5.051
X5.9853Y-4.9678
X5.9858Y-5.4261
X5.9894Y-4.8342
X6.0211Y-4.7067
X6.0359Y-5.3168
X6.0467Y-3.8572
X6.0487Y-4.1171
X6.0556Y-4.6139
X6.0602Y-4.412
X6.0605Y-4.2056
X6.0661Y-5.0021
X6.0709Y-5.4261
X6.0714Y-4.6871
X6.0728Y-5.3698
X6.0731Y-4.4947
X6.0739Y-4.6476
X6.0824Y-4.583
X6.0952Y-4.6043
X6.1006Y-4.9504
X6.1058Y-5.1151
X6.1106Y-4.3092
X6.1122Y-4.4137
X6.1152Y-4.8879
X6.1168Y-4.7643
X6.1176Y-4.1633
X6.1178Y-4.4981
X6.1197Y-5.1504
X6.1253Y-4.9116
X6.1335Y-4.8137
X6.1388Y-4.4873
X6.1471Y-3.8572
X6.1483Y-4.7903
X6.1542Y-3.9152
X6.1609Y-4.0717
X6.1609Y-4.2096
X6.1612Y-4.1635
X6.1678Y-4.3117
T2
X5.987Y-4.1919
X6.052Y-4.2805
T3
X5.2521Y-3.8957
X5.3287Y-3.8315
X5.4053Y-3.7672
X5.4819Y-3.7029
X6.4367Y-5.2706
X6.5133Y-5.2063
X6.5899Y-5.142
X6.6665Y-5.0777
X6.861Y-4.3372
X6.861Y-4.4372
X6.861Y-4.5372
X6.861Y-4.6372
X5.3859Y-5.2084
X5.4725Y-5.2584
X5.5591Y-5.3084
X5.6457Y-5.3584
X5.6502Y-3.8504
X5.6502Y-3.9504
X5.6502Y-4.0504
X5.6502Y-4.1504
X5.6502Y-4.2504
X5.6502Y-4.3504
X5.6502Y-4.4504
X5.6502Y-4.5504
X5.6502Y-4.6504
X5.6502Y-4.7504
X5.6502Y-4.8504
X5.6502Y-4.9504
X5.6502Y-5.0504
X5.6502Y-5.1504
X5.0488Y-4.3419
X5.0488Y-4.4419
X5.0488Y-4.5419
X5.0488Y-4.6419
X6.2512Y-3.6191
X6.3378Y-3.6691
X6.4244Y-3.7191
X6.511Y-3.7691
X6.2502Y-3.8504
X6.2502Y-3.9504
X6.2502Y-4.0504
X6.2502Y-4.1504
X6.2502Y-4.2504
X6.2502Y-4.3504
X6.2502Y-4.4504
X6.2502Y-4.5504
X6.2502Y-4.6504
X6.2502Y-4.7504
X6.2502Y-4.8504
X6.2502Y-4.9504
X6.2502Y-5.0504
X6.2502Y-5.1504
T0
M30
