G04 #@! TF.GenerationSoftware,KiCad,Pcbnew,5.1.0-060a0da~80~ubuntu18.04.1*
G04 #@! TF.CreationDate,2019-05-28T03:43:47+02:00*
G04 #@! TF.ProjectId,TinyFPGA-BX,54696e79-4650-4474-912d-42582e6b6963,rev?*
G04 #@! TF.SameCoordinates,Original*
G04 #@! TF.FileFunction,Other,Fab,Top*
%FSLAX46Y46*%
G04 Gerber Fmt 4.6, Leading zero omitted, Abs format (unit mm)*
G04 Created by KiCad (PCBNEW 5.1.0-060a0da~80~ubuntu18.04.1) date 2019-05-28 03:43:47*
%MOMM*%
%LPD*%
G04 APERTURE LIST*
%ADD10C,0.150000*%
%ADD11C,0.100000*%
%ADD12C,0.031750*%
%ADD13C,0.050000*%
%ADD14C,0.075000*%
%ADD15C,0.040000*%
G04 APERTURE END LIST*
D10*
X149962843Y-112664000D02*
G75*
G03X149962843Y-112664000I-282843J0D01*
G01*
X149130000Y-112114000D02*
X149180000Y-112114000D01*
X149130000Y-116114000D02*
X149130000Y-112114000D01*
X153130000Y-116114000D02*
X149130000Y-116114000D01*
X153130000Y-112114000D02*
X153130000Y-116114000D01*
X149155000Y-112114000D02*
X153130000Y-112114000D01*
X149986000Y-122333100D02*
G75*
G03X149986000Y-122333100I-250000J0D01*
G01*
D11*
X149186000Y-121808100D02*
X153086000Y-121808100D01*
X153086000Y-121808100D02*
X153086000Y-126708100D01*
X153086000Y-126708100D02*
X149186000Y-126708100D01*
X149186000Y-126708100D02*
X149186000Y-121808100D01*
X154286000Y-129873100D02*
X154786000Y-129873100D01*
X154286000Y-130873100D02*
X154286000Y-129873100D01*
X154786000Y-130873100D02*
X154286000Y-130873100D01*
X154786000Y-129873100D02*
X154786000Y-130873100D01*
X151336000Y-119323100D02*
X152136000Y-119323100D01*
X151336000Y-120923100D02*
X151336000Y-119323100D01*
X152136000Y-120923100D02*
X151336000Y-120923100D01*
X152136000Y-119323100D02*
X152136000Y-120923100D01*
X156436000Y-101723100D02*
X155636000Y-101723100D01*
X156436000Y-100123100D02*
X156436000Y-101723100D01*
X155636000Y-100123100D02*
X156436000Y-100123100D01*
X155636000Y-101723100D02*
X155636000Y-100123100D01*
X154686000Y-102023100D02*
X154686000Y-102823100D01*
X153086000Y-102023100D02*
X154686000Y-102023100D01*
X153086000Y-102823100D02*
X153086000Y-102023100D01*
X154686000Y-102823100D02*
X153086000Y-102823100D01*
X145933000Y-105173100D02*
X146433000Y-105173100D01*
X145933000Y-106173100D02*
X145933000Y-105173100D01*
X146433000Y-106173100D02*
X145933000Y-106173100D01*
X146433000Y-105173100D02*
X146433000Y-106173100D01*
X147965000Y-105173100D02*
X148465000Y-105173100D01*
X147965000Y-106173100D02*
X147965000Y-105173100D01*
X148465000Y-106173100D02*
X147965000Y-106173100D01*
X148465000Y-105173100D02*
X148465000Y-106173100D01*
X148015000Y-103587100D02*
X148415000Y-103587100D01*
X148215000Y-103537100D02*
X148015000Y-103237100D01*
X148415000Y-103237100D02*
X148215000Y-103537100D01*
X148015000Y-103237100D02*
X148415000Y-103237100D01*
X148615000Y-102587100D02*
X148615000Y-104187100D01*
X147815000Y-102587100D02*
X148615000Y-102587100D01*
X147815000Y-104187100D02*
X147815000Y-102587100D01*
X148615000Y-104187100D02*
X147815000Y-104187100D01*
X145983000Y-103587100D02*
X146383000Y-103587100D01*
X146183000Y-103537100D02*
X145983000Y-103237100D01*
X146383000Y-103237100D02*
X146183000Y-103537100D01*
X145983000Y-103237100D02*
X146383000Y-103237100D01*
X146583000Y-102587100D02*
X146583000Y-104187100D01*
X145783000Y-102587100D02*
X146583000Y-102587100D01*
X145783000Y-104187100D02*
X145783000Y-102587100D01*
X146583000Y-104187100D02*
X145783000Y-104187100D01*
X147386000Y-95823100D02*
X154886000Y-95823100D01*
X147386000Y-100823100D02*
X147386000Y-95823100D01*
X154886000Y-100823100D02*
X147386000Y-100823100D01*
X154886000Y-95823100D02*
X154886000Y-100823100D01*
D10*
X149239614Y-108689854D02*
G75*
G03X149239614Y-108689854I-250000J0D01*
G01*
X146436000Y-108123100D02*
X149636000Y-108123100D01*
X146436000Y-110623100D02*
X146436000Y-108123100D01*
X149636000Y-110623100D02*
X146436000Y-110623100D01*
X149636000Y-108123100D02*
X149636000Y-110623100D01*
X154786000Y-104934500D02*
G75*
G03X154786000Y-104934500I-213600J0D01*
G01*
X155086000Y-104373100D02*
X155086000Y-105973100D01*
X152186000Y-104373100D02*
X152186000Y-105973100D01*
X155086000Y-105973100D02*
X152186000Y-105973100D01*
X155086000Y-104373100D02*
X152186000Y-104373100D01*
D11*
X146400000Y-127204000D02*
X146400000Y-126704000D01*
X147400000Y-127204000D02*
X146400000Y-127204000D01*
X147400000Y-126704000D02*
X147400000Y-127204000D01*
X146400000Y-126704000D02*
X147400000Y-126704000D01*
X150305000Y-117914000D02*
X150805000Y-117914000D01*
X150305000Y-118914000D02*
X150305000Y-117914000D01*
X150805000Y-118914000D02*
X150305000Y-118914000D01*
X150805000Y-117914000D02*
X150805000Y-118914000D01*
X154180000Y-115964000D02*
X153680000Y-115964000D01*
X154180000Y-114964000D02*
X154180000Y-115964000D01*
X153680000Y-114964000D02*
X154180000Y-114964000D01*
X153680000Y-115964000D02*
X153680000Y-114964000D01*
X153880000Y-114414000D02*
X153880000Y-113914000D01*
X154880000Y-114414000D02*
X153880000Y-114414000D01*
X154880000Y-113914000D02*
X154880000Y-114414000D01*
X153880000Y-113914000D02*
X154880000Y-113914000D01*
X151380000Y-111464000D02*
X150880000Y-111464000D01*
X151380000Y-110464000D02*
X151380000Y-111464000D01*
X150880000Y-110464000D02*
X151380000Y-110464000D01*
X150880000Y-111464000D02*
X150880000Y-110464000D01*
X153605000Y-112689000D02*
X153605000Y-112189000D01*
X154605000Y-112689000D02*
X153605000Y-112689000D01*
X154605000Y-112189000D02*
X154605000Y-112689000D01*
X153605000Y-112189000D02*
X154605000Y-112189000D01*
X147936000Y-114673100D02*
X147936000Y-115173100D01*
X146936000Y-114673100D02*
X147936000Y-114673100D01*
X146936000Y-115173100D02*
X146936000Y-114673100D01*
X147936000Y-115173100D02*
X146936000Y-115173100D01*
X147936000Y-113873100D02*
X147936000Y-114373100D01*
X146936000Y-113873100D02*
X147936000Y-113873100D01*
X146936000Y-114373100D02*
X146936000Y-113873100D01*
X147936000Y-114373100D02*
X146936000Y-114373100D01*
X149019800Y-107099500D02*
X149019800Y-107599500D01*
X148019800Y-107099500D02*
X149019800Y-107099500D01*
X148019800Y-107599500D02*
X148019800Y-107099500D01*
X149019800Y-107599500D02*
X148019800Y-107599500D01*
X153005000Y-117014000D02*
X153505000Y-117014000D01*
X153005000Y-118014000D02*
X153005000Y-117014000D01*
X153505000Y-118014000D02*
X153005000Y-118014000D01*
X153505000Y-117014000D02*
X153505000Y-118014000D01*
X148586000Y-117323100D02*
X149086000Y-117323100D01*
X148586000Y-118323100D02*
X148586000Y-117323100D01*
X149086000Y-118323100D02*
X148586000Y-118323100D01*
X149086000Y-117323100D02*
X149086000Y-118323100D01*
X151486000Y-117173100D02*
X151986000Y-117173100D01*
X151486000Y-118173100D02*
X151486000Y-117173100D01*
X151986000Y-118173100D02*
X151486000Y-118173100D01*
X151986000Y-117173100D02*
X151986000Y-118173100D01*
X153186000Y-120923100D02*
X152686000Y-120923100D01*
X153186000Y-119923100D02*
X153186000Y-120923100D01*
X152686000Y-119923100D02*
X153186000Y-119923100D01*
X152686000Y-120923100D02*
X152686000Y-119923100D01*
X155086000Y-122423100D02*
X155586000Y-122423100D01*
X155086000Y-123423100D02*
X155086000Y-122423100D01*
X155586000Y-123423100D02*
X155086000Y-123423100D01*
X155586000Y-122423100D02*
X155586000Y-123423100D01*
X149386000Y-102223100D02*
X149886000Y-102223100D01*
X149386000Y-103223100D02*
X149386000Y-102223100D01*
X149886000Y-103223100D02*
X149386000Y-103223100D01*
X149886000Y-102223100D02*
X149886000Y-103223100D01*
X150886000Y-103223100D02*
X150386000Y-103223100D01*
X150886000Y-102223100D02*
X150886000Y-103223100D01*
X150386000Y-102223100D02*
X150886000Y-102223100D01*
X150386000Y-103223100D02*
X150386000Y-102223100D01*
X151886000Y-103223100D02*
X151386000Y-103223100D01*
X151886000Y-102223100D02*
X151886000Y-103223100D01*
X151386000Y-102223100D02*
X151886000Y-102223100D01*
X151386000Y-103223100D02*
X151386000Y-102223100D01*
D10*
X154749600Y-108484500D02*
G75*
G03X154749600Y-108484500I-213600J0D01*
G01*
X154936000Y-108098100D02*
X154936000Y-109348100D01*
X152936000Y-108098100D02*
X152936000Y-109348100D01*
X154936000Y-109348100D02*
X152936000Y-109348100D01*
X154936000Y-108098100D02*
X152936000Y-108098100D01*
D11*
X155436000Y-110173100D02*
X155436000Y-109673100D01*
X156436000Y-110173100D02*
X155436000Y-110173100D01*
X156436000Y-109673100D02*
X156436000Y-110173100D01*
X155436000Y-109673100D02*
X156436000Y-109673100D01*
X155436000Y-104173100D02*
X155436000Y-103673100D01*
X156436000Y-104173100D02*
X155436000Y-104173100D01*
X156436000Y-103673100D02*
X156436000Y-104173100D01*
X155436000Y-103673100D02*
X156436000Y-103673100D01*
X155436000Y-106573100D02*
X155436000Y-106073100D01*
X156436000Y-106573100D02*
X155436000Y-106573100D01*
X156436000Y-106073100D02*
X156436000Y-106573100D01*
X155436000Y-106073100D02*
X156436000Y-106073100D01*
X155436000Y-107773100D02*
X155436000Y-107273100D01*
X156436000Y-107773100D02*
X155436000Y-107773100D01*
X156436000Y-107273100D02*
X156436000Y-107773100D01*
X155436000Y-107273100D02*
X156436000Y-107273100D01*
D10*
X153236000Y-128123100D02*
X149036000Y-128123100D01*
X153236000Y-131323100D02*
X153236000Y-128123100D01*
X149036000Y-131323100D02*
X153236000Y-131323100D01*
X149036000Y-130923100D02*
X149036000Y-131323100D01*
X149036000Y-128123100D02*
X149036000Y-130923100D01*
D11*
X154640000Y-127314000D02*
X154640000Y-126814000D01*
X155640000Y-127314000D02*
X154640000Y-127314000D01*
X155640000Y-126814000D02*
X155640000Y-127314000D01*
X154640000Y-126814000D02*
X155640000Y-126814000D01*
X138910098Y-92672953D02*
X139804706Y-92751222D01*
X131613525Y-98795505D02*
X138910098Y-92672953D01*
X133246205Y-100741258D02*
X131613525Y-98795505D01*
X141029217Y-94210536D02*
X133246205Y-100741258D01*
X139804706Y-92751222D02*
X141029217Y-94210536D01*
X135615960Y-133076352D02*
X135383534Y-132208926D01*
X143864852Y-137838852D02*
X135615960Y-133076352D01*
X145134852Y-135639148D02*
X143864852Y-137838852D01*
X136336034Y-130559148D02*
X145134852Y-135639148D01*
X135383534Y-132208926D02*
X136336034Y-130559148D01*
X173635000Y-108894000D02*
X175540000Y-108894000D01*
X175540000Y-108894000D02*
X175540000Y-119054000D01*
X175540000Y-119054000D02*
X173000000Y-119054000D01*
X173000000Y-119054000D02*
X173000000Y-109529000D01*
X173000000Y-109529000D02*
X173635000Y-108894000D01*
X126970000Y-109649000D02*
X127605000Y-109014000D01*
X126970000Y-119174000D02*
X126970000Y-109649000D01*
X129510000Y-119174000D02*
X126970000Y-119174000D01*
X129510000Y-109014000D02*
X129510000Y-119174000D01*
X127605000Y-109014000D02*
X129510000Y-109014000D01*
X169000098Y-127592953D02*
X169894706Y-127671222D01*
X161703525Y-133715505D02*
X169000098Y-127592953D01*
X163336205Y-135661258D02*
X161703525Y-133715505D01*
X171119217Y-129130536D02*
X163336205Y-135661258D01*
X169894706Y-127671222D02*
X171119217Y-129130536D01*
X157362648Y-91838926D02*
X158315148Y-90189148D01*
X158315148Y-90189148D02*
X167113966Y-95269148D01*
X167113966Y-95269148D02*
X165843966Y-97468852D01*
X165843966Y-97468852D02*
X157595074Y-92706352D01*
X157595074Y-92706352D02*
X157362648Y-91838926D01*
X154965001Y-136139001D02*
X154965001Y-135639001D01*
X154965001Y-135639001D02*
X155965001Y-135639001D01*
X155965001Y-135639001D02*
X155965001Y-136139001D01*
X155965001Y-136139001D02*
X154965001Y-136139001D01*
X155965001Y-138129001D02*
X154965001Y-138129001D01*
X155965001Y-137629001D02*
X155965001Y-138129001D01*
X154965001Y-137629001D02*
X155965001Y-137629001D01*
X154965001Y-138129001D02*
X154965001Y-137629001D01*
X150140001Y-136304001D02*
G75*
G03X150140001Y-136304001I-50000J0D01*
G01*
X150240001Y-136304001D02*
G75*
G03X150240001Y-136304001I-150000J0D01*
G01*
X149640001Y-138804001D02*
X149640001Y-135804001D01*
X153140001Y-138804001D02*
X149640001Y-138804001D01*
X153140001Y-135804001D02*
X153140001Y-138804001D01*
X149640001Y-135804001D02*
X153140001Y-135804001D01*
D10*
X150368095Y-114775480D02*
X150368095Y-115585004D01*
X150415714Y-115680242D01*
X150463333Y-115727861D01*
X150558571Y-115775480D01*
X150749047Y-115775480D01*
X150844285Y-115727861D01*
X150891904Y-115680242D01*
X150939523Y-115585004D01*
X150939523Y-114775480D01*
X151939523Y-115775480D02*
X151368095Y-115775480D01*
X151653809Y-115775480D02*
X151653809Y-114775480D01*
X151558571Y-114918338D01*
X151463333Y-115013576D01*
X151368095Y-115061195D01*
D12*
X149726476Y-113713576D02*
X149726476Y-113580242D01*
X149726476Y-113513576D02*
X149716952Y-113523100D01*
X149726476Y-113532623D01*
X149736000Y-113523100D01*
X149726476Y-113513576D01*
X149726476Y-113532623D01*
X149936000Y-113694528D02*
X149926476Y-113704052D01*
X149897904Y-113713576D01*
X149878857Y-113713576D01*
X149850285Y-113704052D01*
X149831238Y-113685004D01*
X149821714Y-113665957D01*
X149812190Y-113627861D01*
X149812190Y-113599290D01*
X149821714Y-113561195D01*
X149831238Y-113542147D01*
X149850285Y-113523100D01*
X149878857Y-113513576D01*
X149897904Y-113513576D01*
X149926476Y-113523100D01*
X149936000Y-113532623D01*
X150021714Y-113608814D02*
X150088380Y-113608814D01*
X150116952Y-113713576D02*
X150021714Y-113713576D01*
X150021714Y-113513576D01*
X150116952Y-113513576D01*
X150288380Y-113580242D02*
X150288380Y-113713576D01*
X150240761Y-113504052D02*
X150193142Y-113646909D01*
X150316952Y-113646909D01*
X150431238Y-113513576D02*
X150450285Y-113513576D01*
X150469333Y-113523100D01*
X150478857Y-113532623D01*
X150488380Y-113551671D01*
X150497904Y-113589766D01*
X150497904Y-113637385D01*
X150488380Y-113675480D01*
X150478857Y-113694528D01*
X150469333Y-113704052D01*
X150450285Y-113713576D01*
X150431238Y-113713576D01*
X150412190Y-113704052D01*
X150402666Y-113694528D01*
X150393142Y-113675480D01*
X150383619Y-113637385D01*
X150383619Y-113589766D01*
X150393142Y-113551671D01*
X150402666Y-113532623D01*
X150412190Y-113523100D01*
X150431238Y-113513576D01*
X150583619Y-113637385D02*
X150736000Y-113637385D01*
X150926476Y-113713576D02*
X150831238Y-113713576D01*
X150831238Y-113513576D01*
X150993142Y-113713576D02*
X150993142Y-113513576D01*
X151069333Y-113513576D01*
X151088380Y-113523100D01*
X151097904Y-113532623D01*
X151107428Y-113551671D01*
X151107428Y-113580242D01*
X151097904Y-113599290D01*
X151088380Y-113608814D01*
X151069333Y-113618338D01*
X150993142Y-113618338D01*
X151221714Y-113599290D02*
X151202666Y-113589766D01*
X151193142Y-113580242D01*
X151183619Y-113561195D01*
X151183619Y-113551671D01*
X151193142Y-113532623D01*
X151202666Y-113523100D01*
X151221714Y-113513576D01*
X151259809Y-113513576D01*
X151278857Y-113523100D01*
X151288380Y-113532623D01*
X151297904Y-113551671D01*
X151297904Y-113561195D01*
X151288380Y-113580242D01*
X151278857Y-113589766D01*
X151259809Y-113599290D01*
X151221714Y-113599290D01*
X151202666Y-113608814D01*
X151193142Y-113618338D01*
X151183619Y-113637385D01*
X151183619Y-113675480D01*
X151193142Y-113694528D01*
X151202666Y-113704052D01*
X151221714Y-113713576D01*
X151259809Y-113713576D01*
X151278857Y-113704052D01*
X151288380Y-113694528D01*
X151297904Y-113675480D01*
X151297904Y-113637385D01*
X151288380Y-113618338D01*
X151278857Y-113608814D01*
X151259809Y-113599290D01*
X151383619Y-113713576D02*
X151383619Y-113513576D01*
X151497904Y-113713576D02*
X151412190Y-113599290D01*
X151497904Y-113513576D02*
X151383619Y-113627861D01*
X151583619Y-113637385D02*
X151736000Y-113637385D01*
X151945523Y-113694528D02*
X151936000Y-113704052D01*
X151907428Y-113713576D01*
X151888380Y-113713576D01*
X151859809Y-113704052D01*
X151840761Y-113685004D01*
X151831238Y-113665957D01*
X151821714Y-113627861D01*
X151821714Y-113599290D01*
X151831238Y-113561195D01*
X151840761Y-113542147D01*
X151859809Y-113523100D01*
X151888380Y-113513576D01*
X151907428Y-113513576D01*
X151936000Y-113523100D01*
X151945523Y-113532623D01*
X152031238Y-113713576D02*
X152031238Y-113513576D01*
X152097904Y-113656433D01*
X152164571Y-113513576D01*
X152164571Y-113713576D01*
X152288380Y-113599290D02*
X152269333Y-113589766D01*
X152259809Y-113580242D01*
X152250285Y-113561195D01*
X152250285Y-113551671D01*
X152259809Y-113532623D01*
X152269333Y-113523100D01*
X152288380Y-113513576D01*
X152326476Y-113513576D01*
X152345523Y-113523100D01*
X152355047Y-113532623D01*
X152364571Y-113551671D01*
X152364571Y-113561195D01*
X152355047Y-113580242D01*
X152345523Y-113589766D01*
X152326476Y-113599290D01*
X152288380Y-113599290D01*
X152269333Y-113608814D01*
X152259809Y-113618338D01*
X152250285Y-113637385D01*
X152250285Y-113675480D01*
X152259809Y-113694528D01*
X152269333Y-113704052D01*
X152288380Y-113713576D01*
X152326476Y-113713576D01*
X152345523Y-113704052D01*
X152355047Y-113694528D01*
X152364571Y-113675480D01*
X152364571Y-113637385D01*
X152355047Y-113618338D01*
X152345523Y-113608814D01*
X152326476Y-113599290D01*
X152555047Y-113713576D02*
X152440761Y-113713576D01*
X152497904Y-113713576D02*
X152497904Y-113513576D01*
X152478857Y-113542147D01*
X152459809Y-113561195D01*
X152440761Y-113570719D01*
D11*
X150602666Y-123874766D02*
X150602666Y-124441433D01*
X150636000Y-124508100D01*
X150669333Y-124541433D01*
X150736000Y-124574766D01*
X150869333Y-124574766D01*
X150936000Y-124541433D01*
X150969333Y-124508100D01*
X151002666Y-124441433D01*
X151002666Y-123874766D01*
X151669333Y-123874766D02*
X151336000Y-123874766D01*
X151302666Y-124208100D01*
X151336000Y-124174766D01*
X151402666Y-124141433D01*
X151569333Y-124141433D01*
X151636000Y-124174766D01*
X151669333Y-124208100D01*
X151702666Y-124274766D01*
X151702666Y-124441433D01*
X151669333Y-124508100D01*
X151636000Y-124541433D01*
X151569333Y-124574766D01*
X151402666Y-124574766D01*
X151336000Y-124541433D01*
X151302666Y-124508100D01*
D12*
X149459809Y-125694766D02*
X149564571Y-125694766D01*
X149438857Y-125757623D02*
X149512190Y-125537623D01*
X149585523Y-125757623D01*
X149627428Y-125537623D02*
X149753142Y-125537623D01*
X149690285Y-125757623D02*
X149690285Y-125537623D01*
X149816000Y-125558576D02*
X149826476Y-125548100D01*
X149847428Y-125537623D01*
X149899809Y-125537623D01*
X149920761Y-125548100D01*
X149931238Y-125558576D01*
X149941714Y-125579528D01*
X149941714Y-125600480D01*
X149931238Y-125631909D01*
X149805523Y-125757623D01*
X149941714Y-125757623D01*
X150140761Y-125537623D02*
X150036000Y-125537623D01*
X150025523Y-125642385D01*
X150036000Y-125631909D01*
X150056952Y-125621433D01*
X150109333Y-125621433D01*
X150130285Y-125631909D01*
X150140761Y-125642385D01*
X150151238Y-125663338D01*
X150151238Y-125715719D01*
X150140761Y-125736671D01*
X150130285Y-125747147D01*
X150109333Y-125757623D01*
X150056952Y-125757623D01*
X150036000Y-125747147D01*
X150025523Y-125736671D01*
X150235047Y-125747147D02*
X150266476Y-125757623D01*
X150318857Y-125757623D01*
X150339809Y-125747147D01*
X150350285Y-125736671D01*
X150360761Y-125715719D01*
X150360761Y-125694766D01*
X150350285Y-125673814D01*
X150339809Y-125663338D01*
X150318857Y-125652861D01*
X150276952Y-125642385D01*
X150256000Y-125631909D01*
X150245523Y-125621433D01*
X150235047Y-125600480D01*
X150235047Y-125579528D01*
X150245523Y-125558576D01*
X150256000Y-125548100D01*
X150276952Y-125537623D01*
X150329333Y-125537623D01*
X150360761Y-125548100D01*
X150528380Y-125642385D02*
X150455047Y-125642385D01*
X150455047Y-125757623D02*
X150455047Y-125537623D01*
X150559809Y-125537623D01*
X150685523Y-125537623D02*
X150706476Y-125537623D01*
X150727428Y-125548100D01*
X150737904Y-125558576D01*
X150748380Y-125579528D01*
X150758857Y-125621433D01*
X150758857Y-125673814D01*
X150748380Y-125715719D01*
X150737904Y-125736671D01*
X150727428Y-125747147D01*
X150706476Y-125757623D01*
X150685523Y-125757623D01*
X150664571Y-125747147D01*
X150654095Y-125736671D01*
X150643619Y-125715719D01*
X150633142Y-125673814D01*
X150633142Y-125621433D01*
X150643619Y-125579528D01*
X150654095Y-125558576D01*
X150664571Y-125548100D01*
X150685523Y-125537623D01*
X150884571Y-125631909D02*
X150863619Y-125621433D01*
X150853142Y-125610957D01*
X150842666Y-125590004D01*
X150842666Y-125579528D01*
X150853142Y-125558576D01*
X150863619Y-125548100D01*
X150884571Y-125537623D01*
X150926476Y-125537623D01*
X150947428Y-125548100D01*
X150957904Y-125558576D01*
X150968380Y-125579528D01*
X150968380Y-125590004D01*
X150957904Y-125610957D01*
X150947428Y-125621433D01*
X150926476Y-125631909D01*
X150884571Y-125631909D01*
X150863619Y-125642385D01*
X150853142Y-125652861D01*
X150842666Y-125673814D01*
X150842666Y-125715719D01*
X150853142Y-125736671D01*
X150863619Y-125747147D01*
X150884571Y-125757623D01*
X150926476Y-125757623D01*
X150947428Y-125747147D01*
X150957904Y-125736671D01*
X150968380Y-125715719D01*
X150968380Y-125673814D01*
X150957904Y-125652861D01*
X150947428Y-125642385D01*
X150926476Y-125631909D01*
X151177904Y-125757623D02*
X151052190Y-125757623D01*
X151115047Y-125757623D02*
X151115047Y-125537623D01*
X151094095Y-125569052D01*
X151073142Y-125590004D01*
X151052190Y-125600480D01*
X151272190Y-125673814D02*
X151439809Y-125673814D01*
X151534095Y-125747147D02*
X151565523Y-125757623D01*
X151617904Y-125757623D01*
X151638857Y-125747147D01*
X151649333Y-125736671D01*
X151659809Y-125715719D01*
X151659809Y-125694766D01*
X151649333Y-125673814D01*
X151638857Y-125663338D01*
X151617904Y-125652861D01*
X151576000Y-125642385D01*
X151555047Y-125631909D01*
X151544571Y-125621433D01*
X151534095Y-125600480D01*
X151534095Y-125579528D01*
X151544571Y-125558576D01*
X151555047Y-125548100D01*
X151576000Y-125537623D01*
X151628380Y-125537623D01*
X151659809Y-125548100D01*
X151743619Y-125747147D02*
X151775047Y-125757623D01*
X151827428Y-125757623D01*
X151848380Y-125747147D01*
X151858857Y-125736671D01*
X151869333Y-125715719D01*
X151869333Y-125694766D01*
X151858857Y-125673814D01*
X151848380Y-125663338D01*
X151827428Y-125652861D01*
X151785523Y-125642385D01*
X151764571Y-125631909D01*
X151754095Y-125621433D01*
X151743619Y-125600480D01*
X151743619Y-125579528D01*
X151754095Y-125558576D01*
X151764571Y-125548100D01*
X151785523Y-125537623D01*
X151837904Y-125537623D01*
X151869333Y-125548100D01*
X151963619Y-125757623D02*
X151963619Y-125537623D01*
X151963619Y-125642385D02*
X152089333Y-125642385D01*
X152089333Y-125757623D02*
X152089333Y-125537623D01*
X152194095Y-125757623D02*
X152194095Y-125537623D01*
X152246476Y-125537623D01*
X152277904Y-125548100D01*
X152298857Y-125569052D01*
X152309333Y-125590004D01*
X152319809Y-125631909D01*
X152319809Y-125663338D01*
X152309333Y-125705242D01*
X152298857Y-125726195D01*
X152277904Y-125747147D01*
X152246476Y-125757623D01*
X152194095Y-125757623D01*
X152414095Y-125673814D02*
X152581714Y-125673814D01*
X152759809Y-125642385D02*
X152791238Y-125652861D01*
X152801714Y-125663338D01*
X152812190Y-125684290D01*
X152812190Y-125715719D01*
X152801714Y-125736671D01*
X152791238Y-125747147D01*
X152770285Y-125757623D01*
X152686476Y-125757623D01*
X152686476Y-125537623D01*
X152759809Y-125537623D01*
X152780761Y-125548100D01*
X152791238Y-125558576D01*
X152801714Y-125579528D01*
X152801714Y-125600480D01*
X152791238Y-125621433D01*
X152780761Y-125631909D01*
X152759809Y-125642385D01*
X152686476Y-125642385D01*
D13*
X154626476Y-129531433D02*
X154531238Y-129598100D01*
X154626476Y-129645719D02*
X154426476Y-129645719D01*
X154426476Y-129569528D01*
X154436000Y-129550480D01*
X154445523Y-129540957D01*
X154464571Y-129531433D01*
X154493142Y-129531433D01*
X154512190Y-129540957D01*
X154521714Y-129550480D01*
X154531238Y-129569528D01*
X154531238Y-129645719D01*
X154426476Y-129360004D02*
X154426476Y-129398100D01*
X154436000Y-129417147D01*
X154445523Y-129426671D01*
X154474095Y-129445719D01*
X154512190Y-129455242D01*
X154588380Y-129455242D01*
X154607428Y-129445719D01*
X154616952Y-129436195D01*
X154626476Y-129417147D01*
X154626476Y-129379052D01*
X154616952Y-129360004D01*
X154607428Y-129350480D01*
X154588380Y-129340957D01*
X154540761Y-129340957D01*
X154521714Y-129350480D01*
X154512190Y-129360004D01*
X154502666Y-129379052D01*
X154502666Y-129417147D01*
X154512190Y-129436195D01*
X154521714Y-129445719D01*
X154540761Y-129455242D01*
X154626476Y-130311195D02*
X154531238Y-130377861D01*
X154626476Y-130425480D02*
X154426476Y-130425480D01*
X154426476Y-130349290D01*
X154436000Y-130330242D01*
X154445523Y-130320719D01*
X154464571Y-130311195D01*
X154493142Y-130311195D01*
X154512190Y-130320719D01*
X154521714Y-130330242D01*
X154531238Y-130349290D01*
X154531238Y-130425480D01*
X151807428Y-121256433D02*
X151816952Y-121265957D01*
X151826476Y-121294528D01*
X151826476Y-121313576D01*
X151816952Y-121342147D01*
X151797904Y-121361195D01*
X151778857Y-121370719D01*
X151740761Y-121380242D01*
X151712190Y-121380242D01*
X151674095Y-121370719D01*
X151655047Y-121361195D01*
X151636000Y-121342147D01*
X151626476Y-121313576D01*
X151626476Y-121294528D01*
X151636000Y-121265957D01*
X151645523Y-121256433D01*
X151626476Y-121085004D02*
X151626476Y-121123100D01*
X151636000Y-121142147D01*
X151645523Y-121151671D01*
X151674095Y-121170719D01*
X151712190Y-121180242D01*
X151788380Y-121180242D01*
X151807428Y-121170719D01*
X151816952Y-121161195D01*
X151826476Y-121142147D01*
X151826476Y-121104052D01*
X151816952Y-121085004D01*
X151807428Y-121075480D01*
X151788380Y-121065957D01*
X151740761Y-121065957D01*
X151721714Y-121075480D01*
X151712190Y-121085004D01*
X151702666Y-121104052D01*
X151702666Y-121142147D01*
X151712190Y-121161195D01*
X151721714Y-121170719D01*
X151740761Y-121180242D01*
X151826476Y-120337385D02*
X151826476Y-120451671D01*
X151826476Y-120394528D02*
X151626476Y-120394528D01*
X151655047Y-120413576D01*
X151674095Y-120432623D01*
X151683619Y-120451671D01*
X151626476Y-120213576D02*
X151626476Y-120194528D01*
X151636000Y-120175480D01*
X151645523Y-120165957D01*
X151664571Y-120156433D01*
X151702666Y-120146909D01*
X151750285Y-120146909D01*
X151788380Y-120156433D01*
X151807428Y-120165957D01*
X151816952Y-120175480D01*
X151826476Y-120194528D01*
X151826476Y-120213576D01*
X151816952Y-120232623D01*
X151807428Y-120242147D01*
X151788380Y-120251671D01*
X151750285Y-120261195D01*
X151702666Y-120261195D01*
X151664571Y-120251671D01*
X151645523Y-120242147D01*
X151636000Y-120232623D01*
X151626476Y-120213576D01*
X151693142Y-119975480D02*
X151826476Y-119975480D01*
X151693142Y-120061195D02*
X151797904Y-120061195D01*
X151816952Y-120051671D01*
X151826476Y-120032623D01*
X151826476Y-120004052D01*
X151816952Y-119985004D01*
X151807428Y-119975480D01*
X151721714Y-119813576D02*
X151721714Y-119880242D01*
X151826476Y-119880242D02*
X151626476Y-119880242D01*
X151626476Y-119785004D01*
X156107428Y-102326671D02*
X156116952Y-102336195D01*
X156126476Y-102364766D01*
X156126476Y-102383814D01*
X156116952Y-102412385D01*
X156097904Y-102431433D01*
X156078857Y-102440957D01*
X156040761Y-102450480D01*
X156012190Y-102450480D01*
X155974095Y-102440957D01*
X155955047Y-102431433D01*
X155936000Y-102412385D01*
X155926476Y-102383814D01*
X155926476Y-102364766D01*
X155936000Y-102336195D01*
X155945523Y-102326671D01*
X156126476Y-102136195D02*
X156126476Y-102250480D01*
X156126476Y-102193338D02*
X155926476Y-102193338D01*
X155955047Y-102212385D01*
X155974095Y-102231433D01*
X155983619Y-102250480D01*
X155926476Y-102069528D02*
X155926476Y-101936195D01*
X156126476Y-102021909D01*
X156151476Y-101137385D02*
X156151476Y-101251671D01*
X156151476Y-101194528D02*
X155951476Y-101194528D01*
X155980047Y-101213576D01*
X155999095Y-101232623D01*
X156008619Y-101251671D01*
X155951476Y-101013576D02*
X155951476Y-100994528D01*
X155961000Y-100975480D01*
X155970523Y-100965957D01*
X155989571Y-100956433D01*
X156027666Y-100946909D01*
X156075285Y-100946909D01*
X156113380Y-100956433D01*
X156132428Y-100965957D01*
X156141952Y-100975480D01*
X156151476Y-100994528D01*
X156151476Y-101013576D01*
X156141952Y-101032623D01*
X156132428Y-101042147D01*
X156113380Y-101051671D01*
X156075285Y-101061195D01*
X156027666Y-101061195D01*
X155989571Y-101051671D01*
X155970523Y-101042147D01*
X155961000Y-101032623D01*
X155951476Y-101013576D01*
X156018142Y-100775480D02*
X156151476Y-100775480D01*
X156018142Y-100861195D02*
X156122904Y-100861195D01*
X156141952Y-100851671D01*
X156151476Y-100832623D01*
X156151476Y-100804052D01*
X156141952Y-100785004D01*
X156132428Y-100775480D01*
X156046714Y-100613576D02*
X156046714Y-100680242D01*
X156151476Y-100680242D02*
X155951476Y-100680242D01*
X155951476Y-100585004D01*
D14*
X153836000Y-102558814D02*
X153693142Y-102558814D01*
X153693142Y-102258814D01*
X154093142Y-102558814D02*
X153921714Y-102558814D01*
X154007428Y-102558814D02*
X154007428Y-102258814D01*
X153978857Y-102301671D01*
X153950285Y-102330242D01*
X153921714Y-102344528D01*
D13*
X153633619Y-101758814D02*
X153662190Y-101768338D01*
X153671714Y-101777861D01*
X153681238Y-101796909D01*
X153681238Y-101825480D01*
X153671714Y-101844528D01*
X153662190Y-101854052D01*
X153643142Y-101863576D01*
X153566952Y-101863576D01*
X153566952Y-101663576D01*
X153633619Y-101663576D01*
X153652666Y-101673100D01*
X153662190Y-101682623D01*
X153671714Y-101701671D01*
X153671714Y-101720719D01*
X153662190Y-101739766D01*
X153652666Y-101749290D01*
X153633619Y-101758814D01*
X153566952Y-101758814D01*
X153843142Y-101854052D02*
X153824095Y-101863576D01*
X153786000Y-101863576D01*
X153766952Y-101854052D01*
X153757428Y-101835004D01*
X153757428Y-101758814D01*
X153766952Y-101739766D01*
X153786000Y-101730242D01*
X153824095Y-101730242D01*
X153843142Y-101739766D01*
X153852666Y-101758814D01*
X153852666Y-101777861D01*
X153757428Y-101796909D01*
X154024095Y-101863576D02*
X154024095Y-101758814D01*
X154014571Y-101739766D01*
X153995523Y-101730242D01*
X153957428Y-101730242D01*
X153938380Y-101739766D01*
X154024095Y-101854052D02*
X154005047Y-101863576D01*
X153957428Y-101863576D01*
X153938380Y-101854052D01*
X153928857Y-101835004D01*
X153928857Y-101815957D01*
X153938380Y-101796909D01*
X153957428Y-101787385D01*
X154005047Y-101787385D01*
X154024095Y-101777861D01*
X154205047Y-101863576D02*
X154205047Y-101663576D01*
X154205047Y-101854052D02*
X154186000Y-101863576D01*
X154147904Y-101863576D01*
X154128857Y-101854052D01*
X154119333Y-101844528D01*
X154109809Y-101825480D01*
X154109809Y-101768338D01*
X154119333Y-101749290D01*
X154128857Y-101739766D01*
X154147904Y-101730242D01*
X154186000Y-101730242D01*
X154205047Y-101739766D01*
X145392523Y-105920719D02*
X145383000Y-105911195D01*
X145373476Y-105892147D01*
X145373476Y-105844528D01*
X145383000Y-105825480D01*
X145392523Y-105815957D01*
X145411571Y-105806433D01*
X145430619Y-105806433D01*
X145459190Y-105815957D01*
X145573476Y-105930242D01*
X145573476Y-105806433D01*
X145373476Y-105739766D02*
X145373476Y-105606433D01*
X145573476Y-105692147D01*
X145373476Y-105492147D02*
X145373476Y-105473100D01*
X145383000Y-105454052D01*
X145392523Y-105444528D01*
X145411571Y-105435004D01*
X145449666Y-105425480D01*
X145497285Y-105425480D01*
X145535380Y-105435004D01*
X145554428Y-105444528D01*
X145563952Y-105454052D01*
X145573476Y-105473100D01*
X145573476Y-105492147D01*
X145563952Y-105511195D01*
X145554428Y-105520719D01*
X145535380Y-105530242D01*
X145497285Y-105539766D01*
X145449666Y-105539766D01*
X145411571Y-105530242D01*
X145392523Y-105520719D01*
X145383000Y-105511195D01*
X145373476Y-105492147D01*
X146273476Y-105706433D02*
X146178238Y-105773100D01*
X146273476Y-105820719D02*
X146073476Y-105820719D01*
X146073476Y-105744528D01*
X146083000Y-105725480D01*
X146092523Y-105715957D01*
X146111571Y-105706433D01*
X146140142Y-105706433D01*
X146159190Y-105715957D01*
X146168714Y-105725480D01*
X146178238Y-105744528D01*
X146178238Y-105820719D01*
X146273476Y-105611195D02*
X146273476Y-105573100D01*
X146263952Y-105554052D01*
X146254428Y-105544528D01*
X146225857Y-105525480D01*
X146187761Y-105515957D01*
X146111571Y-105515957D01*
X146092523Y-105525480D01*
X146083000Y-105535004D01*
X146073476Y-105554052D01*
X146073476Y-105592147D01*
X146083000Y-105611195D01*
X146092523Y-105620719D01*
X146111571Y-105630242D01*
X146159190Y-105630242D01*
X146178238Y-105620719D01*
X146187761Y-105611195D01*
X146197285Y-105592147D01*
X146197285Y-105554052D01*
X146187761Y-105535004D01*
X146178238Y-105525480D01*
X146159190Y-105515957D01*
X147424523Y-105920719D02*
X147415000Y-105911195D01*
X147405476Y-105892147D01*
X147405476Y-105844528D01*
X147415000Y-105825480D01*
X147424523Y-105815957D01*
X147443571Y-105806433D01*
X147462619Y-105806433D01*
X147491190Y-105815957D01*
X147605476Y-105930242D01*
X147605476Y-105806433D01*
X147405476Y-105739766D02*
X147405476Y-105606433D01*
X147605476Y-105692147D01*
X147405476Y-105492147D02*
X147405476Y-105473100D01*
X147415000Y-105454052D01*
X147424523Y-105444528D01*
X147443571Y-105435004D01*
X147481666Y-105425480D01*
X147529285Y-105425480D01*
X147567380Y-105435004D01*
X147586428Y-105444528D01*
X147595952Y-105454052D01*
X147605476Y-105473100D01*
X147605476Y-105492147D01*
X147595952Y-105511195D01*
X147586428Y-105520719D01*
X147567380Y-105530242D01*
X147529285Y-105539766D01*
X147481666Y-105539766D01*
X147443571Y-105530242D01*
X147424523Y-105520719D01*
X147415000Y-105511195D01*
X147405476Y-105492147D01*
X148305476Y-105706433D02*
X148210238Y-105773100D01*
X148305476Y-105820719D02*
X148105476Y-105820719D01*
X148105476Y-105744528D01*
X148115000Y-105725480D01*
X148124523Y-105715957D01*
X148143571Y-105706433D01*
X148172142Y-105706433D01*
X148191190Y-105715957D01*
X148200714Y-105725480D01*
X148210238Y-105744528D01*
X148210238Y-105820719D01*
X148191190Y-105592147D02*
X148181666Y-105611195D01*
X148172142Y-105620719D01*
X148153095Y-105630242D01*
X148143571Y-105630242D01*
X148124523Y-105620719D01*
X148115000Y-105611195D01*
X148105476Y-105592147D01*
X148105476Y-105554052D01*
X148115000Y-105535004D01*
X148124523Y-105525480D01*
X148143571Y-105515957D01*
X148153095Y-105515957D01*
X148172142Y-105525480D01*
X148181666Y-105535004D01*
X148191190Y-105554052D01*
X148191190Y-105592147D01*
X148200714Y-105611195D01*
X148210238Y-105620719D01*
X148229285Y-105630242D01*
X148267380Y-105630242D01*
X148286428Y-105620719D01*
X148295952Y-105611195D01*
X148305476Y-105592147D01*
X148305476Y-105554052D01*
X148295952Y-105535004D01*
X148286428Y-105525480D01*
X148267380Y-105515957D01*
X148229285Y-105515957D01*
X148210238Y-105525480D01*
X148200714Y-105535004D01*
X148191190Y-105554052D01*
X148940476Y-104015671D02*
X148940476Y-104110909D01*
X148740476Y-104110909D01*
X148835714Y-103949004D02*
X148835714Y-103882338D01*
X148940476Y-103853766D02*
X148940476Y-103949004D01*
X148740476Y-103949004D01*
X148740476Y-103853766D01*
X148940476Y-103768052D02*
X148740476Y-103768052D01*
X148740476Y-103720433D01*
X148750000Y-103691861D01*
X148769047Y-103672814D01*
X148788095Y-103663290D01*
X148826190Y-103653766D01*
X148854761Y-103653766D01*
X148892857Y-103663290D01*
X148911904Y-103672814D01*
X148930952Y-103691861D01*
X148940476Y-103720433D01*
X148940476Y-103768052D01*
X148959523Y-103615671D02*
X148959523Y-103463290D01*
X148930952Y-103425195D02*
X148940476Y-103396623D01*
X148940476Y-103349004D01*
X148930952Y-103329957D01*
X148921428Y-103320433D01*
X148902380Y-103310909D01*
X148883333Y-103310909D01*
X148864285Y-103320433D01*
X148854761Y-103329957D01*
X148845238Y-103349004D01*
X148835714Y-103387100D01*
X148826190Y-103406147D01*
X148816666Y-103415671D01*
X148797619Y-103425195D01*
X148778571Y-103425195D01*
X148759523Y-103415671D01*
X148750000Y-103406147D01*
X148740476Y-103387100D01*
X148740476Y-103339480D01*
X148750000Y-103310909D01*
X148940476Y-103225195D02*
X148807142Y-103225195D01*
X148826190Y-103225195D02*
X148816666Y-103215671D01*
X148807142Y-103196623D01*
X148807142Y-103168052D01*
X148816666Y-103149004D01*
X148835714Y-103139480D01*
X148940476Y-103139480D01*
X148835714Y-103139480D02*
X148816666Y-103129957D01*
X148807142Y-103110909D01*
X148807142Y-103082338D01*
X148816666Y-103063290D01*
X148835714Y-103053766D01*
X148940476Y-103053766D01*
X148940476Y-102872814D02*
X148835714Y-102872814D01*
X148816666Y-102882338D01*
X148807142Y-102901385D01*
X148807142Y-102939480D01*
X148816666Y-102958528D01*
X148930952Y-102872814D02*
X148940476Y-102891861D01*
X148940476Y-102939480D01*
X148930952Y-102958528D01*
X148911904Y-102968052D01*
X148892857Y-102968052D01*
X148873809Y-102958528D01*
X148864285Y-102939480D01*
X148864285Y-102891861D01*
X148854761Y-102872814D01*
X148940476Y-102749004D02*
X148930952Y-102768052D01*
X148911904Y-102777576D01*
X148740476Y-102777576D01*
X148940476Y-102644242D02*
X148930952Y-102663290D01*
X148911904Y-102672814D01*
X148740476Y-102672814D01*
X146908476Y-104015671D02*
X146908476Y-104110909D01*
X146708476Y-104110909D01*
X146803714Y-103949004D02*
X146803714Y-103882338D01*
X146908476Y-103853766D02*
X146908476Y-103949004D01*
X146708476Y-103949004D01*
X146708476Y-103853766D01*
X146908476Y-103768052D02*
X146708476Y-103768052D01*
X146708476Y-103720433D01*
X146718000Y-103691861D01*
X146737047Y-103672814D01*
X146756095Y-103663290D01*
X146794190Y-103653766D01*
X146822761Y-103653766D01*
X146860857Y-103663290D01*
X146879904Y-103672814D01*
X146898952Y-103691861D01*
X146908476Y-103720433D01*
X146908476Y-103768052D01*
X146927523Y-103615671D02*
X146927523Y-103463290D01*
X146898952Y-103425195D02*
X146908476Y-103396623D01*
X146908476Y-103349004D01*
X146898952Y-103329957D01*
X146889428Y-103320433D01*
X146870380Y-103310909D01*
X146851333Y-103310909D01*
X146832285Y-103320433D01*
X146822761Y-103329957D01*
X146813238Y-103349004D01*
X146803714Y-103387100D01*
X146794190Y-103406147D01*
X146784666Y-103415671D01*
X146765619Y-103425195D01*
X146746571Y-103425195D01*
X146727523Y-103415671D01*
X146718000Y-103406147D01*
X146708476Y-103387100D01*
X146708476Y-103339480D01*
X146718000Y-103310909D01*
X146908476Y-103225195D02*
X146775142Y-103225195D01*
X146794190Y-103225195D02*
X146784666Y-103215671D01*
X146775142Y-103196623D01*
X146775142Y-103168052D01*
X146784666Y-103149004D01*
X146803714Y-103139480D01*
X146908476Y-103139480D01*
X146803714Y-103139480D02*
X146784666Y-103129957D01*
X146775142Y-103110909D01*
X146775142Y-103082338D01*
X146784666Y-103063290D01*
X146803714Y-103053766D01*
X146908476Y-103053766D01*
X146908476Y-102872814D02*
X146803714Y-102872814D01*
X146784666Y-102882338D01*
X146775142Y-102901385D01*
X146775142Y-102939480D01*
X146784666Y-102958528D01*
X146898952Y-102872814D02*
X146908476Y-102891861D01*
X146908476Y-102939480D01*
X146898952Y-102958528D01*
X146879904Y-102968052D01*
X146860857Y-102968052D01*
X146841809Y-102958528D01*
X146832285Y-102939480D01*
X146832285Y-102891861D01*
X146822761Y-102872814D01*
X146908476Y-102749004D02*
X146898952Y-102768052D01*
X146879904Y-102777576D01*
X146708476Y-102777576D01*
X146908476Y-102644242D02*
X146898952Y-102663290D01*
X146879904Y-102672814D01*
X146708476Y-102672814D01*
D10*
X150802666Y-92875480D02*
X150802666Y-93589766D01*
X150755047Y-93732623D01*
X150659809Y-93827861D01*
X150516952Y-93875480D01*
X150421714Y-93875480D01*
X151183619Y-92875480D02*
X151802666Y-92875480D01*
X151469333Y-93256433D01*
X151612190Y-93256433D01*
X151707428Y-93304052D01*
X151755047Y-93351671D01*
X151802666Y-93446909D01*
X151802666Y-93685004D01*
X151755047Y-93780242D01*
X151707428Y-93827861D01*
X151612190Y-93875480D01*
X151326476Y-93875480D01*
X151231238Y-93827861D01*
X151183619Y-93780242D01*
X148094017Y-94345823D02*
X148094017Y-95155347D01*
X148141637Y-95250585D01*
X148189256Y-95298204D01*
X148284494Y-95345823D01*
X148474970Y-95345823D01*
X148570208Y-95298204D01*
X148617827Y-95250585D01*
X148665446Y-95155347D01*
X148665446Y-94345823D01*
X149094017Y-95298204D02*
X149236875Y-95345823D01*
X149474970Y-95345823D01*
X149570208Y-95298204D01*
X149617827Y-95250585D01*
X149665446Y-95155347D01*
X149665446Y-95060109D01*
X149617827Y-94964871D01*
X149570208Y-94917252D01*
X149474970Y-94869633D01*
X149284494Y-94822014D01*
X149189256Y-94774395D01*
X149141637Y-94726776D01*
X149094017Y-94631538D01*
X149094017Y-94536300D01*
X149141637Y-94441062D01*
X149189256Y-94393443D01*
X149284494Y-94345823D01*
X149522589Y-94345823D01*
X149665446Y-94393443D01*
X150427351Y-94822014D02*
X150570208Y-94869633D01*
X150617827Y-94917252D01*
X150665446Y-95012490D01*
X150665446Y-95155347D01*
X150617827Y-95250585D01*
X150570208Y-95298204D01*
X150474970Y-95345823D01*
X150094017Y-95345823D01*
X150094017Y-94345823D01*
X150427351Y-94345823D01*
X150522589Y-94393443D01*
X150570208Y-94441062D01*
X150617827Y-94536300D01*
X150617827Y-94631538D01*
X150570208Y-94726776D01*
X150522589Y-94774395D01*
X150427351Y-94822014D01*
X150094017Y-94822014D01*
X150855922Y-95441062D02*
X151617827Y-95441062D01*
X152046398Y-94345823D02*
X152236875Y-94345823D01*
X152332113Y-94393443D01*
X152427351Y-94488681D01*
X152474970Y-94679157D01*
X152474970Y-95012490D01*
X152427351Y-95202966D01*
X152332113Y-95298204D01*
X152236875Y-95345823D01*
X152046398Y-95345823D01*
X151951160Y-95298204D01*
X151855922Y-95202966D01*
X151808303Y-95012490D01*
X151808303Y-94679157D01*
X151855922Y-94488681D01*
X151951160Y-94393443D01*
X152046398Y-94345823D01*
X152760684Y-94345823D02*
X153332113Y-94345823D01*
X153046398Y-95345823D02*
X153046398Y-94345823D01*
X154189256Y-94393443D02*
X154094017Y-94345823D01*
X153951160Y-94345823D01*
X153808303Y-94393443D01*
X153713065Y-94488681D01*
X153665446Y-94583919D01*
X153617827Y-94774395D01*
X153617827Y-94917252D01*
X153665446Y-95107728D01*
X153713065Y-95202966D01*
X153808303Y-95298204D01*
X153951160Y-95345823D01*
X154046398Y-95345823D01*
X154189256Y-95298204D01*
X154236875Y-95250585D01*
X154236875Y-94917252D01*
X154046398Y-94917252D01*
D14*
X147811042Y-109800568D02*
X147811042Y-110043425D01*
X147825328Y-110071996D01*
X147839614Y-110086282D01*
X147868185Y-110100568D01*
X147925328Y-110100568D01*
X147953899Y-110086282D01*
X147968185Y-110071996D01*
X147982471Y-110043425D01*
X147982471Y-109800568D01*
X148096756Y-109800568D02*
X148282471Y-109800568D01*
X148182471Y-109914854D01*
X148225328Y-109914854D01*
X148253899Y-109929139D01*
X148268185Y-109943425D01*
X148282471Y-109971996D01*
X148282471Y-110043425D01*
X148268185Y-110071996D01*
X148253899Y-110086282D01*
X148225328Y-110100568D01*
X148139614Y-110100568D01*
X148111042Y-110086282D01*
X148096756Y-110071996D01*
D12*
X146851256Y-109455330D02*
X146851256Y-109255330D01*
X146881494Y-109255330D01*
X146899637Y-109264854D01*
X146911733Y-109283901D01*
X146917780Y-109302949D01*
X146923828Y-109341044D01*
X146923828Y-109369615D01*
X146917780Y-109407711D01*
X146911733Y-109426758D01*
X146899637Y-109445806D01*
X146881494Y-109455330D01*
X146851256Y-109455330D01*
X146972209Y-109445806D02*
X146990352Y-109455330D01*
X147020590Y-109455330D01*
X147032685Y-109445806D01*
X147038733Y-109436282D01*
X147044780Y-109417234D01*
X147044780Y-109398187D01*
X147038733Y-109379139D01*
X147032685Y-109369615D01*
X147020590Y-109360092D01*
X146996399Y-109350568D01*
X146984304Y-109341044D01*
X146978256Y-109331520D01*
X146972209Y-109312473D01*
X146972209Y-109293425D01*
X146978256Y-109274377D01*
X146984304Y-109264854D01*
X146996399Y-109255330D01*
X147026637Y-109255330D01*
X147044780Y-109264854D01*
X147171780Y-109436282D02*
X147165733Y-109445806D01*
X147147590Y-109455330D01*
X147135494Y-109455330D01*
X147117352Y-109445806D01*
X147105256Y-109426758D01*
X147099209Y-109407711D01*
X147093161Y-109369615D01*
X147093161Y-109341044D01*
X147099209Y-109302949D01*
X147105256Y-109283901D01*
X147117352Y-109264854D01*
X147135494Y-109255330D01*
X147147590Y-109255330D01*
X147165733Y-109264854D01*
X147171780Y-109274377D01*
X147280637Y-109255330D02*
X147256447Y-109255330D01*
X147244352Y-109264854D01*
X147238304Y-109274377D01*
X147226209Y-109302949D01*
X147220161Y-109341044D01*
X147220161Y-109417234D01*
X147226209Y-109436282D01*
X147232256Y-109445806D01*
X147244352Y-109455330D01*
X147268542Y-109455330D01*
X147280637Y-109445806D01*
X147286685Y-109436282D01*
X147292733Y-109417234D01*
X147292733Y-109369615D01*
X147286685Y-109350568D01*
X147280637Y-109341044D01*
X147268542Y-109331520D01*
X147244352Y-109331520D01*
X147232256Y-109341044D01*
X147226209Y-109350568D01*
X147220161Y-109369615D01*
X147371352Y-109255330D02*
X147383447Y-109255330D01*
X147395542Y-109264854D01*
X147401590Y-109274377D01*
X147407637Y-109293425D01*
X147413685Y-109331520D01*
X147413685Y-109379139D01*
X147407637Y-109417234D01*
X147401590Y-109436282D01*
X147395542Y-109445806D01*
X147383447Y-109455330D01*
X147371352Y-109455330D01*
X147359256Y-109445806D01*
X147353209Y-109436282D01*
X147347161Y-109417234D01*
X147341114Y-109379139D01*
X147341114Y-109331520D01*
X147347161Y-109293425D01*
X147353209Y-109274377D01*
X147359256Y-109264854D01*
X147371352Y-109255330D01*
X147492304Y-109255330D02*
X147504399Y-109255330D01*
X147516494Y-109264854D01*
X147522542Y-109274377D01*
X147528590Y-109293425D01*
X147534637Y-109331520D01*
X147534637Y-109379139D01*
X147528590Y-109417234D01*
X147522542Y-109436282D01*
X147516494Y-109445806D01*
X147504399Y-109455330D01*
X147492304Y-109455330D01*
X147480209Y-109445806D01*
X147474161Y-109436282D01*
X147468114Y-109417234D01*
X147462066Y-109379139D01*
X147462066Y-109331520D01*
X147468114Y-109293425D01*
X147474161Y-109274377D01*
X147480209Y-109264854D01*
X147492304Y-109255330D01*
X147655590Y-109455330D02*
X147583018Y-109455330D01*
X147619304Y-109455330D02*
X147619304Y-109255330D01*
X147607209Y-109283901D01*
X147595114Y-109302949D01*
X147583018Y-109312473D01*
X147782590Y-109436282D02*
X147776542Y-109445806D01*
X147758399Y-109455330D01*
X147746304Y-109455330D01*
X147728161Y-109445806D01*
X147716066Y-109426758D01*
X147710018Y-109407711D01*
X147703971Y-109369615D01*
X147703971Y-109341044D01*
X147710018Y-109302949D01*
X147716066Y-109283901D01*
X147728161Y-109264854D01*
X147746304Y-109255330D01*
X147758399Y-109255330D01*
X147776542Y-109264854D01*
X147782590Y-109274377D01*
X147837018Y-109455330D02*
X147837018Y-109255330D01*
X147891447Y-109274377D02*
X147897494Y-109264854D01*
X147909590Y-109255330D01*
X147939828Y-109255330D01*
X147951923Y-109264854D01*
X147957971Y-109274377D01*
X147964018Y-109293425D01*
X147964018Y-109312473D01*
X147957971Y-109341044D01*
X147885399Y-109455330D01*
X147964018Y-109455330D01*
X148012399Y-109398187D02*
X148072875Y-109398187D01*
X148000304Y-109455330D02*
X148042637Y-109255330D01*
X148084971Y-109455330D01*
X148127304Y-109379139D02*
X148224066Y-109379139D01*
X148308733Y-109255330D02*
X148320828Y-109255330D01*
X148332923Y-109264854D01*
X148338971Y-109274377D01*
X148345018Y-109293425D01*
X148351066Y-109331520D01*
X148351066Y-109379139D01*
X148345018Y-109417234D01*
X148338971Y-109436282D01*
X148332923Y-109445806D01*
X148320828Y-109455330D01*
X148308733Y-109455330D01*
X148296637Y-109445806D01*
X148290590Y-109436282D01*
X148284542Y-109417234D01*
X148278494Y-109379139D01*
X148278494Y-109331520D01*
X148284542Y-109293425D01*
X148290590Y-109274377D01*
X148296637Y-109264854D01*
X148308733Y-109255330D01*
X148472018Y-109455330D02*
X148399447Y-109455330D01*
X148435733Y-109455330D02*
X148435733Y-109255330D01*
X148423637Y-109283901D01*
X148411542Y-109302949D01*
X148399447Y-109312473D01*
X148580875Y-109255330D02*
X148556685Y-109255330D01*
X148544590Y-109264854D01*
X148538542Y-109274377D01*
X148526447Y-109302949D01*
X148520399Y-109341044D01*
X148520399Y-109417234D01*
X148526447Y-109436282D01*
X148532494Y-109445806D01*
X148544590Y-109455330D01*
X148568780Y-109455330D01*
X148580875Y-109445806D01*
X148586923Y-109436282D01*
X148592971Y-109417234D01*
X148592971Y-109369615D01*
X148586923Y-109350568D01*
X148580875Y-109341044D01*
X148568780Y-109331520D01*
X148544590Y-109331520D01*
X148532494Y-109341044D01*
X148526447Y-109350568D01*
X148520399Y-109369615D01*
X148647399Y-109436282D02*
X148653447Y-109445806D01*
X148647399Y-109455330D01*
X148641352Y-109445806D01*
X148647399Y-109436282D01*
X148647399Y-109455330D01*
X148732066Y-109255330D02*
X148744161Y-109255330D01*
X148756256Y-109264854D01*
X148762304Y-109274377D01*
X148768352Y-109293425D01*
X148774399Y-109331520D01*
X148774399Y-109379139D01*
X148768352Y-109417234D01*
X148762304Y-109436282D01*
X148756256Y-109445806D01*
X148744161Y-109455330D01*
X148732066Y-109455330D01*
X148719971Y-109445806D01*
X148713923Y-109436282D01*
X148707875Y-109417234D01*
X148701828Y-109379139D01*
X148701828Y-109331520D01*
X148707875Y-109293425D01*
X148713923Y-109274377D01*
X148719971Y-109264854D01*
X148732066Y-109255330D01*
X148853018Y-109255330D02*
X148865114Y-109255330D01*
X148877209Y-109264854D01*
X148883256Y-109274377D01*
X148889304Y-109293425D01*
X148895352Y-109331520D01*
X148895352Y-109379139D01*
X148889304Y-109417234D01*
X148883256Y-109436282D01*
X148877209Y-109445806D01*
X148865114Y-109455330D01*
X148853018Y-109455330D01*
X148840923Y-109445806D01*
X148834875Y-109436282D01*
X148828828Y-109417234D01*
X148822780Y-109379139D01*
X148822780Y-109331520D01*
X148828828Y-109293425D01*
X148834875Y-109274377D01*
X148840923Y-109264854D01*
X148853018Y-109255330D01*
X148973971Y-109255330D02*
X148986066Y-109255330D01*
X148998161Y-109264854D01*
X149004209Y-109274377D01*
X149010256Y-109293425D01*
X149016304Y-109331520D01*
X149016304Y-109379139D01*
X149010256Y-109417234D01*
X149004209Y-109436282D01*
X148998161Y-109445806D01*
X148986066Y-109455330D01*
X148973971Y-109455330D01*
X148961875Y-109445806D01*
X148955828Y-109436282D01*
X148949780Y-109417234D01*
X148943733Y-109379139D01*
X148943733Y-109331520D01*
X148949780Y-109293425D01*
X148955828Y-109274377D01*
X148961875Y-109264854D01*
X148973971Y-109255330D01*
X149094923Y-109255330D02*
X149107018Y-109255330D01*
X149119114Y-109264854D01*
X149125161Y-109274377D01*
X149131209Y-109293425D01*
X149137256Y-109331520D01*
X149137256Y-109379139D01*
X149131209Y-109417234D01*
X149125161Y-109436282D01*
X149119114Y-109445806D01*
X149107018Y-109455330D01*
X149094923Y-109455330D01*
X149082828Y-109445806D01*
X149076780Y-109436282D01*
X149070733Y-109417234D01*
X149064685Y-109379139D01*
X149064685Y-109331520D01*
X149070733Y-109293425D01*
X149076780Y-109274377D01*
X149082828Y-109264854D01*
X149094923Y-109255330D01*
X149173542Y-109255330D02*
X149246114Y-109255330D01*
X149209828Y-109455330D02*
X149209828Y-109255330D01*
D14*
X153407428Y-104908814D02*
X153407428Y-105151671D01*
X153421714Y-105180242D01*
X153436000Y-105194528D01*
X153464571Y-105208814D01*
X153521714Y-105208814D01*
X153550285Y-105194528D01*
X153564571Y-105180242D01*
X153578857Y-105151671D01*
X153578857Y-104908814D01*
X153707428Y-104937385D02*
X153721714Y-104923100D01*
X153750285Y-104908814D01*
X153821714Y-104908814D01*
X153850285Y-104923100D01*
X153864571Y-104937385D01*
X153878857Y-104965957D01*
X153878857Y-104994528D01*
X153864571Y-105037385D01*
X153693142Y-105208814D01*
X153878857Y-105208814D01*
D12*
X152394095Y-105563576D02*
X152394095Y-105363576D01*
X152447428Y-105506433D01*
X152500761Y-105363576D01*
X152500761Y-105563576D01*
X152576952Y-105563576D02*
X152576952Y-105363576D01*
X152744571Y-105544528D02*
X152736952Y-105554052D01*
X152714095Y-105563576D01*
X152698857Y-105563576D01*
X152676000Y-105554052D01*
X152660761Y-105535004D01*
X152653142Y-105515957D01*
X152645523Y-105477861D01*
X152645523Y-105449290D01*
X152653142Y-105411195D01*
X152660761Y-105392147D01*
X152676000Y-105373100D01*
X152698857Y-105363576D01*
X152714095Y-105363576D01*
X152736952Y-105373100D01*
X152744571Y-105382623D01*
X152889333Y-105363576D02*
X152813142Y-105363576D01*
X152805523Y-105458814D01*
X152813142Y-105449290D01*
X152828380Y-105439766D01*
X152866476Y-105439766D01*
X152881714Y-105449290D01*
X152889333Y-105458814D01*
X152896952Y-105477861D01*
X152896952Y-105525480D01*
X152889333Y-105544528D01*
X152881714Y-105554052D01*
X152866476Y-105563576D01*
X152828380Y-105563576D01*
X152813142Y-105554052D01*
X152805523Y-105544528D01*
X153041714Y-105363576D02*
X152965523Y-105363576D01*
X152957904Y-105458814D01*
X152965523Y-105449290D01*
X152980761Y-105439766D01*
X153018857Y-105439766D01*
X153034095Y-105449290D01*
X153041714Y-105458814D01*
X153049333Y-105477861D01*
X153049333Y-105525480D01*
X153041714Y-105544528D01*
X153034095Y-105554052D01*
X153018857Y-105563576D01*
X152980761Y-105563576D01*
X152965523Y-105554052D01*
X152957904Y-105544528D01*
X153148380Y-105363576D02*
X153163619Y-105363576D01*
X153178857Y-105373100D01*
X153186476Y-105382623D01*
X153194095Y-105401671D01*
X153201714Y-105439766D01*
X153201714Y-105487385D01*
X153194095Y-105525480D01*
X153186476Y-105544528D01*
X153178857Y-105554052D01*
X153163619Y-105563576D01*
X153148380Y-105563576D01*
X153133142Y-105554052D01*
X153125523Y-105544528D01*
X153117904Y-105525480D01*
X153110285Y-105487385D01*
X153110285Y-105439766D01*
X153117904Y-105401671D01*
X153125523Y-105382623D01*
X153133142Y-105373100D01*
X153148380Y-105363576D01*
X153338857Y-105430242D02*
X153338857Y-105563576D01*
X153300761Y-105354052D02*
X153262666Y-105496909D01*
X153361714Y-105496909D01*
X153422666Y-105487385D02*
X153544571Y-105487385D01*
X153605523Y-105363576D02*
X153704571Y-105363576D01*
X153651238Y-105439766D01*
X153674095Y-105439766D01*
X153689333Y-105449290D01*
X153696952Y-105458814D01*
X153704571Y-105477861D01*
X153704571Y-105525480D01*
X153696952Y-105544528D01*
X153689333Y-105554052D01*
X153674095Y-105563576D01*
X153628380Y-105563576D01*
X153613142Y-105554052D01*
X153605523Y-105544528D01*
X153773142Y-105544528D02*
X153780761Y-105554052D01*
X153773142Y-105563576D01*
X153765523Y-105554052D01*
X153773142Y-105544528D01*
X153773142Y-105563576D01*
X153834095Y-105363576D02*
X153933142Y-105363576D01*
X153879809Y-105439766D01*
X153902666Y-105439766D01*
X153917904Y-105449290D01*
X153925523Y-105458814D01*
X153933142Y-105477861D01*
X153933142Y-105525480D01*
X153925523Y-105544528D01*
X153917904Y-105554052D01*
X153902666Y-105563576D01*
X153856952Y-105563576D01*
X153841714Y-105554052D01*
X153834095Y-105544528D01*
X154032190Y-105468338D02*
X154032190Y-105563576D01*
X153978857Y-105363576D02*
X154032190Y-105468338D01*
X154085523Y-105363576D01*
X154138857Y-105563576D02*
X154138857Y-105363576D01*
X154192190Y-105506433D01*
X154245523Y-105363576D01*
X154245523Y-105563576D01*
X154397904Y-105363576D02*
X154321714Y-105363576D01*
X154314095Y-105458814D01*
X154321714Y-105449290D01*
X154336952Y-105439766D01*
X154375047Y-105439766D01*
X154390285Y-105449290D01*
X154397904Y-105458814D01*
X154405523Y-105477861D01*
X154405523Y-105525480D01*
X154397904Y-105544528D01*
X154390285Y-105554052D01*
X154375047Y-105563576D01*
X154336952Y-105563576D01*
X154321714Y-105554052D01*
X154314095Y-105544528D01*
X154474095Y-105487385D02*
X154596000Y-105487385D01*
X154649333Y-105363576D02*
X154740761Y-105363576D01*
X154695047Y-105563576D02*
X154695047Y-105363576D01*
X154885523Y-105563576D02*
X154832190Y-105468338D01*
X154794095Y-105563576D02*
X154794095Y-105363576D01*
X154855047Y-105363576D01*
X154870285Y-105373100D01*
X154877904Y-105382623D01*
X154885523Y-105401671D01*
X154885523Y-105430242D01*
X154877904Y-105449290D01*
X154870285Y-105458814D01*
X154855047Y-105468338D01*
X154794095Y-105468338D01*
D13*
X145991666Y-127094476D02*
X145925000Y-126999238D01*
X145877380Y-127094476D02*
X145877380Y-126894476D01*
X145953571Y-126894476D01*
X145972619Y-126904000D01*
X145982142Y-126913523D01*
X145991666Y-126932571D01*
X145991666Y-126961142D01*
X145982142Y-126980190D01*
X145972619Y-126989714D01*
X145953571Y-126999238D01*
X145877380Y-126999238D01*
X146058333Y-126894476D02*
X146191666Y-126894476D01*
X146105952Y-127094476D01*
X146780952Y-127044476D02*
X146666666Y-127044476D01*
X146723809Y-127044476D02*
X146723809Y-126844476D01*
X146704761Y-126873047D01*
X146685714Y-126892095D01*
X146666666Y-126901619D01*
X146904761Y-126844476D02*
X146923809Y-126844476D01*
X146942857Y-126854000D01*
X146952380Y-126863523D01*
X146961904Y-126882571D01*
X146971428Y-126920666D01*
X146971428Y-126968285D01*
X146961904Y-127006380D01*
X146952380Y-127025428D01*
X146942857Y-127034952D01*
X146923809Y-127044476D01*
X146904761Y-127044476D01*
X146885714Y-127034952D01*
X146876190Y-127025428D01*
X146866666Y-127006380D01*
X146857142Y-126968285D01*
X146857142Y-126920666D01*
X146866666Y-126882571D01*
X146876190Y-126863523D01*
X146885714Y-126854000D01*
X146904761Y-126844476D01*
X147057142Y-127044476D02*
X147057142Y-126844476D01*
X147076190Y-126968285D02*
X147133333Y-127044476D01*
X147133333Y-126911142D02*
X147057142Y-126987333D01*
X150626428Y-119442571D02*
X150635952Y-119452095D01*
X150645476Y-119480666D01*
X150645476Y-119499714D01*
X150635952Y-119528285D01*
X150616904Y-119547333D01*
X150597857Y-119556857D01*
X150559761Y-119566380D01*
X150531190Y-119566380D01*
X150493095Y-119556857D01*
X150474047Y-119547333D01*
X150455000Y-119528285D01*
X150445476Y-119499714D01*
X150445476Y-119480666D01*
X150455000Y-119452095D01*
X150464523Y-119442571D01*
X150645476Y-119252095D02*
X150645476Y-119366380D01*
X150645476Y-119309238D02*
X150445476Y-119309238D01*
X150474047Y-119328285D01*
X150493095Y-119347333D01*
X150502619Y-119366380D01*
X150445476Y-119080666D02*
X150445476Y-119118761D01*
X150455000Y-119137809D01*
X150464523Y-119147333D01*
X150493095Y-119166380D01*
X150531190Y-119175904D01*
X150607380Y-119175904D01*
X150626428Y-119166380D01*
X150635952Y-119156857D01*
X150645476Y-119137809D01*
X150645476Y-119099714D01*
X150635952Y-119080666D01*
X150626428Y-119071142D01*
X150607380Y-119061619D01*
X150559761Y-119061619D01*
X150540714Y-119071142D01*
X150531190Y-119080666D01*
X150521666Y-119099714D01*
X150521666Y-119137809D01*
X150531190Y-119156857D01*
X150540714Y-119166380D01*
X150559761Y-119175904D01*
X150645476Y-118723523D02*
X150645476Y-118837809D01*
X150645476Y-118780666D02*
X150445476Y-118780666D01*
X150474047Y-118799714D01*
X150493095Y-118818761D01*
X150502619Y-118837809D01*
X150445476Y-118599714D02*
X150445476Y-118580666D01*
X150455000Y-118561619D01*
X150464523Y-118552095D01*
X150483571Y-118542571D01*
X150521666Y-118533047D01*
X150569285Y-118533047D01*
X150607380Y-118542571D01*
X150626428Y-118552095D01*
X150635952Y-118561619D01*
X150645476Y-118580666D01*
X150645476Y-118599714D01*
X150635952Y-118618761D01*
X150626428Y-118628285D01*
X150607380Y-118637809D01*
X150569285Y-118647333D01*
X150521666Y-118647333D01*
X150483571Y-118637809D01*
X150464523Y-118628285D01*
X150455000Y-118618761D01*
X150445476Y-118599714D01*
X150445476Y-118409238D02*
X150445476Y-118390190D01*
X150455000Y-118371142D01*
X150464523Y-118361619D01*
X150483571Y-118352095D01*
X150521666Y-118342571D01*
X150569285Y-118342571D01*
X150607380Y-118352095D01*
X150626428Y-118361619D01*
X150635952Y-118371142D01*
X150645476Y-118390190D01*
X150645476Y-118409238D01*
X150635952Y-118428285D01*
X150626428Y-118437809D01*
X150607380Y-118447333D01*
X150569285Y-118456857D01*
X150521666Y-118456857D01*
X150483571Y-118447333D01*
X150464523Y-118437809D01*
X150455000Y-118428285D01*
X150445476Y-118409238D01*
X150512142Y-118256857D02*
X150645476Y-118256857D01*
X150531190Y-118256857D02*
X150521666Y-118247333D01*
X150512142Y-118228285D01*
X150512142Y-118199714D01*
X150521666Y-118180666D01*
X150540714Y-118171142D01*
X150645476Y-118171142D01*
X150540714Y-118009238D02*
X150540714Y-118075904D01*
X150645476Y-118075904D02*
X150445476Y-118075904D01*
X150445476Y-117980666D01*
X154020476Y-116372333D02*
X153925238Y-116439000D01*
X154020476Y-116486619D02*
X153820476Y-116486619D01*
X153820476Y-116410428D01*
X153830000Y-116391380D01*
X153839523Y-116381857D01*
X153858571Y-116372333D01*
X153887142Y-116372333D01*
X153906190Y-116381857D01*
X153915714Y-116391380D01*
X153925238Y-116410428D01*
X153925238Y-116486619D01*
X153820476Y-116191380D02*
X153820476Y-116286619D01*
X153915714Y-116296142D01*
X153906190Y-116286619D01*
X153896666Y-116267571D01*
X153896666Y-116219952D01*
X153906190Y-116200904D01*
X153915714Y-116191380D01*
X153934761Y-116181857D01*
X153982380Y-116181857D01*
X154001428Y-116191380D01*
X154010952Y-116200904D01*
X154020476Y-116219952D01*
X154020476Y-116267571D01*
X154010952Y-116286619D01*
X154001428Y-116296142D01*
X154020476Y-115583047D02*
X154020476Y-115697333D01*
X154020476Y-115640190D02*
X153820476Y-115640190D01*
X153849047Y-115659238D01*
X153868095Y-115678285D01*
X153877619Y-115697333D01*
X153820476Y-115459238D02*
X153820476Y-115440190D01*
X153830000Y-115421142D01*
X153839523Y-115411619D01*
X153858571Y-115402095D01*
X153896666Y-115392571D01*
X153944285Y-115392571D01*
X153982380Y-115402095D01*
X154001428Y-115411619D01*
X154010952Y-115421142D01*
X154020476Y-115440190D01*
X154020476Y-115459238D01*
X154010952Y-115478285D01*
X154001428Y-115487809D01*
X153982380Y-115497333D01*
X153944285Y-115506857D01*
X153896666Y-115506857D01*
X153858571Y-115497333D01*
X153839523Y-115487809D01*
X153830000Y-115478285D01*
X153820476Y-115459238D01*
X154020476Y-115306857D02*
X153820476Y-115306857D01*
X153944285Y-115287809D02*
X154020476Y-115230666D01*
X153887142Y-115230666D02*
X153963333Y-115306857D01*
X155151428Y-114235428D02*
X155141904Y-114244952D01*
X155113333Y-114254476D01*
X155094285Y-114254476D01*
X155065714Y-114244952D01*
X155046666Y-114225904D01*
X155037142Y-114206857D01*
X155027619Y-114168761D01*
X155027619Y-114140190D01*
X155037142Y-114102095D01*
X155046666Y-114083047D01*
X155065714Y-114064000D01*
X155094285Y-114054476D01*
X155113333Y-114054476D01*
X155141904Y-114064000D01*
X155151428Y-114073523D01*
X155341904Y-114254476D02*
X155227619Y-114254476D01*
X155284761Y-114254476D02*
X155284761Y-114054476D01*
X155265714Y-114083047D01*
X155246666Y-114102095D01*
X155227619Y-114111619D01*
X155408571Y-114054476D02*
X155532380Y-114054476D01*
X155465714Y-114130666D01*
X155494285Y-114130666D01*
X155513333Y-114140190D01*
X155522857Y-114149714D01*
X155532380Y-114168761D01*
X155532380Y-114216380D01*
X155522857Y-114235428D01*
X155513333Y-114244952D01*
X155494285Y-114254476D01*
X155437142Y-114254476D01*
X155418095Y-114244952D01*
X155408571Y-114235428D01*
X154165714Y-114254476D02*
X154051428Y-114254476D01*
X154108571Y-114254476D02*
X154108571Y-114054476D01*
X154089523Y-114083047D01*
X154070476Y-114102095D01*
X154051428Y-114111619D01*
X154289523Y-114054476D02*
X154308571Y-114054476D01*
X154327619Y-114064000D01*
X154337142Y-114073523D01*
X154346666Y-114092571D01*
X154356190Y-114130666D01*
X154356190Y-114178285D01*
X154346666Y-114216380D01*
X154337142Y-114235428D01*
X154327619Y-114244952D01*
X154308571Y-114254476D01*
X154289523Y-114254476D01*
X154270476Y-114244952D01*
X154260952Y-114235428D01*
X154251428Y-114216380D01*
X154241904Y-114178285D01*
X154241904Y-114130666D01*
X154251428Y-114092571D01*
X154260952Y-114073523D01*
X154270476Y-114064000D01*
X154289523Y-114054476D01*
X154441904Y-114121142D02*
X154441904Y-114254476D01*
X154441904Y-114140190D02*
X154451428Y-114130666D01*
X154470476Y-114121142D01*
X154499047Y-114121142D01*
X154518095Y-114130666D01*
X154527619Y-114149714D01*
X154527619Y-114254476D01*
X154689523Y-114149714D02*
X154622857Y-114149714D01*
X154622857Y-114254476D02*
X154622857Y-114054476D01*
X154718095Y-114054476D01*
X151201428Y-110192571D02*
X151210952Y-110202095D01*
X151220476Y-110230666D01*
X151220476Y-110249714D01*
X151210952Y-110278285D01*
X151191904Y-110297333D01*
X151172857Y-110306857D01*
X151134761Y-110316380D01*
X151106190Y-110316380D01*
X151068095Y-110306857D01*
X151049047Y-110297333D01*
X151030000Y-110278285D01*
X151020476Y-110249714D01*
X151020476Y-110230666D01*
X151030000Y-110202095D01*
X151039523Y-110192571D01*
X151220476Y-110002095D02*
X151220476Y-110116380D01*
X151220476Y-110059238D02*
X151020476Y-110059238D01*
X151049047Y-110078285D01*
X151068095Y-110097333D01*
X151077619Y-110116380D01*
X151020476Y-109821142D02*
X151020476Y-109916380D01*
X151115714Y-109925904D01*
X151106190Y-109916380D01*
X151096666Y-109897333D01*
X151096666Y-109849714D01*
X151106190Y-109830666D01*
X151115714Y-109821142D01*
X151134761Y-109811619D01*
X151182380Y-109811619D01*
X151201428Y-109821142D01*
X151210952Y-109830666D01*
X151220476Y-109849714D01*
X151220476Y-109897333D01*
X151210952Y-109916380D01*
X151201428Y-109925904D01*
X151220476Y-111178285D02*
X151220476Y-111292571D01*
X151220476Y-111235428D02*
X151020476Y-111235428D01*
X151049047Y-111254476D01*
X151068095Y-111273523D01*
X151077619Y-111292571D01*
X151020476Y-111054476D02*
X151020476Y-111035428D01*
X151030000Y-111016380D01*
X151039523Y-111006857D01*
X151058571Y-110997333D01*
X151096666Y-110987809D01*
X151144285Y-110987809D01*
X151182380Y-110997333D01*
X151201428Y-111006857D01*
X151210952Y-111016380D01*
X151220476Y-111035428D01*
X151220476Y-111054476D01*
X151210952Y-111073523D01*
X151201428Y-111083047D01*
X151182380Y-111092571D01*
X151144285Y-111102095D01*
X151096666Y-111102095D01*
X151058571Y-111092571D01*
X151039523Y-111083047D01*
X151030000Y-111073523D01*
X151020476Y-111054476D01*
X151087142Y-110902095D02*
X151220476Y-110902095D01*
X151106190Y-110902095D02*
X151096666Y-110892571D01*
X151087142Y-110873523D01*
X151087142Y-110844952D01*
X151096666Y-110825904D01*
X151115714Y-110816380D01*
X151220476Y-110816380D01*
X151115714Y-110654476D02*
X151115714Y-110721142D01*
X151220476Y-110721142D02*
X151020476Y-110721142D01*
X151020476Y-110625904D01*
X154876428Y-112510428D02*
X154866904Y-112519952D01*
X154838333Y-112529476D01*
X154819285Y-112529476D01*
X154790714Y-112519952D01*
X154771666Y-112500904D01*
X154762142Y-112481857D01*
X154752619Y-112443761D01*
X154752619Y-112415190D01*
X154762142Y-112377095D01*
X154771666Y-112358047D01*
X154790714Y-112339000D01*
X154819285Y-112329476D01*
X154838333Y-112329476D01*
X154866904Y-112339000D01*
X154876428Y-112348523D01*
X155066904Y-112529476D02*
X154952619Y-112529476D01*
X155009761Y-112529476D02*
X155009761Y-112329476D01*
X154990714Y-112358047D01*
X154971666Y-112377095D01*
X154952619Y-112386619D01*
X155238333Y-112396142D02*
X155238333Y-112529476D01*
X155190714Y-112319952D02*
X155143095Y-112462809D01*
X155266904Y-112462809D01*
X153890714Y-112529476D02*
X153776428Y-112529476D01*
X153833571Y-112529476D02*
X153833571Y-112329476D01*
X153814523Y-112358047D01*
X153795476Y-112377095D01*
X153776428Y-112386619D01*
X154014523Y-112329476D02*
X154033571Y-112329476D01*
X154052619Y-112339000D01*
X154062142Y-112348523D01*
X154071666Y-112367571D01*
X154081190Y-112405666D01*
X154081190Y-112453285D01*
X154071666Y-112491380D01*
X154062142Y-112510428D01*
X154052619Y-112519952D01*
X154033571Y-112529476D01*
X154014523Y-112529476D01*
X153995476Y-112519952D01*
X153985952Y-112510428D01*
X153976428Y-112491380D01*
X153966904Y-112453285D01*
X153966904Y-112405666D01*
X153976428Y-112367571D01*
X153985952Y-112348523D01*
X153995476Y-112339000D01*
X154014523Y-112329476D01*
X154166904Y-112396142D02*
X154166904Y-112529476D01*
X154166904Y-112415190D02*
X154176428Y-112405666D01*
X154195476Y-112396142D01*
X154224047Y-112396142D01*
X154243095Y-112405666D01*
X154252619Y-112424714D01*
X154252619Y-112529476D01*
X154414523Y-112424714D02*
X154347857Y-112424714D01*
X154347857Y-112529476D02*
X154347857Y-112329476D01*
X154443095Y-112329476D01*
X146407428Y-114994528D02*
X146397904Y-115004052D01*
X146369333Y-115013576D01*
X146350285Y-115013576D01*
X146321714Y-115004052D01*
X146302666Y-114985004D01*
X146293142Y-114965957D01*
X146283619Y-114927861D01*
X146283619Y-114899290D01*
X146293142Y-114861195D01*
X146302666Y-114842147D01*
X146321714Y-114823100D01*
X146350285Y-114813576D01*
X146369333Y-114813576D01*
X146397904Y-114823100D01*
X146407428Y-114832623D01*
X146597904Y-115013576D02*
X146483619Y-115013576D01*
X146540761Y-115013576D02*
X146540761Y-114813576D01*
X146521714Y-114842147D01*
X146502666Y-114861195D01*
X146483619Y-114870719D01*
X146674095Y-114832623D02*
X146683619Y-114823100D01*
X146702666Y-114813576D01*
X146750285Y-114813576D01*
X146769333Y-114823100D01*
X146778857Y-114832623D01*
X146788380Y-114851671D01*
X146788380Y-114870719D01*
X146778857Y-114899290D01*
X146664571Y-115013576D01*
X146788380Y-115013576D01*
X147221714Y-115013576D02*
X147107428Y-115013576D01*
X147164571Y-115013576D02*
X147164571Y-114813576D01*
X147145523Y-114842147D01*
X147126476Y-114861195D01*
X147107428Y-114870719D01*
X147345523Y-114813576D02*
X147364571Y-114813576D01*
X147383619Y-114823100D01*
X147393142Y-114832623D01*
X147402666Y-114851671D01*
X147412190Y-114889766D01*
X147412190Y-114937385D01*
X147402666Y-114975480D01*
X147393142Y-114994528D01*
X147383619Y-115004052D01*
X147364571Y-115013576D01*
X147345523Y-115013576D01*
X147326476Y-115004052D01*
X147316952Y-114994528D01*
X147307428Y-114975480D01*
X147297904Y-114937385D01*
X147297904Y-114889766D01*
X147307428Y-114851671D01*
X147316952Y-114832623D01*
X147326476Y-114823100D01*
X147345523Y-114813576D01*
X147497904Y-114880242D02*
X147497904Y-115013576D01*
X147497904Y-114899290D02*
X147507428Y-114889766D01*
X147526476Y-114880242D01*
X147555047Y-114880242D01*
X147574095Y-114889766D01*
X147583619Y-114908814D01*
X147583619Y-115013576D01*
X147745523Y-114908814D02*
X147678857Y-114908814D01*
X147678857Y-115013576D02*
X147678857Y-114813576D01*
X147774095Y-114813576D01*
X146407428Y-114194528D02*
X146397904Y-114204052D01*
X146369333Y-114213576D01*
X146350285Y-114213576D01*
X146321714Y-114204052D01*
X146302666Y-114185004D01*
X146293142Y-114165957D01*
X146283619Y-114127861D01*
X146283619Y-114099290D01*
X146293142Y-114061195D01*
X146302666Y-114042147D01*
X146321714Y-114023100D01*
X146350285Y-114013576D01*
X146369333Y-114013576D01*
X146397904Y-114023100D01*
X146407428Y-114032623D01*
X146597904Y-114213576D02*
X146483619Y-114213576D01*
X146540761Y-114213576D02*
X146540761Y-114013576D01*
X146521714Y-114042147D01*
X146502666Y-114061195D01*
X146483619Y-114070719D01*
X146788380Y-114213576D02*
X146674095Y-114213576D01*
X146731238Y-114213576D02*
X146731238Y-114013576D01*
X146712190Y-114042147D01*
X146693142Y-114061195D01*
X146674095Y-114070719D01*
X147126476Y-114213576D02*
X147012190Y-114213576D01*
X147069333Y-114213576D02*
X147069333Y-114013576D01*
X147050285Y-114042147D01*
X147031238Y-114061195D01*
X147012190Y-114070719D01*
X147250285Y-114013576D02*
X147269333Y-114013576D01*
X147288380Y-114023100D01*
X147297904Y-114032623D01*
X147307428Y-114051671D01*
X147316952Y-114089766D01*
X147316952Y-114137385D01*
X147307428Y-114175480D01*
X147297904Y-114194528D01*
X147288380Y-114204052D01*
X147269333Y-114213576D01*
X147250285Y-114213576D01*
X147231238Y-114204052D01*
X147221714Y-114194528D01*
X147212190Y-114175480D01*
X147202666Y-114137385D01*
X147202666Y-114089766D01*
X147212190Y-114051671D01*
X147221714Y-114032623D01*
X147231238Y-114023100D01*
X147250285Y-114013576D01*
X147440761Y-114013576D02*
X147459809Y-114013576D01*
X147478857Y-114023100D01*
X147488380Y-114032623D01*
X147497904Y-114051671D01*
X147507428Y-114089766D01*
X147507428Y-114137385D01*
X147497904Y-114175480D01*
X147488380Y-114194528D01*
X147478857Y-114204052D01*
X147459809Y-114213576D01*
X147440761Y-114213576D01*
X147421714Y-114204052D01*
X147412190Y-114194528D01*
X147402666Y-114175480D01*
X147393142Y-114137385D01*
X147393142Y-114089766D01*
X147402666Y-114051671D01*
X147412190Y-114032623D01*
X147421714Y-114023100D01*
X147440761Y-114013576D01*
X147593142Y-114080242D02*
X147593142Y-114213576D01*
X147593142Y-114099290D02*
X147602666Y-114089766D01*
X147621714Y-114080242D01*
X147650285Y-114080242D01*
X147669333Y-114089766D01*
X147678857Y-114108814D01*
X147678857Y-114213576D01*
X147840761Y-114108814D02*
X147774095Y-114108814D01*
X147774095Y-114213576D02*
X147774095Y-114013576D01*
X147869333Y-114013576D01*
X147491228Y-107420928D02*
X147481704Y-107430452D01*
X147453133Y-107439976D01*
X147434085Y-107439976D01*
X147405514Y-107430452D01*
X147386466Y-107411404D01*
X147376942Y-107392357D01*
X147367419Y-107354261D01*
X147367419Y-107325690D01*
X147376942Y-107287595D01*
X147386466Y-107268547D01*
X147405514Y-107249500D01*
X147434085Y-107239976D01*
X147453133Y-107239976D01*
X147481704Y-107249500D01*
X147491228Y-107259023D01*
X147681704Y-107439976D02*
X147567419Y-107439976D01*
X147624561Y-107439976D02*
X147624561Y-107239976D01*
X147605514Y-107268547D01*
X147586466Y-107287595D01*
X147567419Y-107297119D01*
X147805514Y-107239976D02*
X147824561Y-107239976D01*
X147843609Y-107249500D01*
X147853133Y-107259023D01*
X147862657Y-107278071D01*
X147872180Y-107316166D01*
X147872180Y-107363785D01*
X147862657Y-107401880D01*
X147853133Y-107420928D01*
X147843609Y-107430452D01*
X147824561Y-107439976D01*
X147805514Y-107439976D01*
X147786466Y-107430452D01*
X147776942Y-107420928D01*
X147767419Y-107401880D01*
X147757895Y-107363785D01*
X147757895Y-107316166D01*
X147767419Y-107278071D01*
X147776942Y-107259023D01*
X147786466Y-107249500D01*
X147805514Y-107239976D01*
X148210276Y-107439976D02*
X148095990Y-107439976D01*
X148153133Y-107439976D02*
X148153133Y-107239976D01*
X148134085Y-107268547D01*
X148115038Y-107287595D01*
X148095990Y-107297119D01*
X148334085Y-107239976D02*
X148353133Y-107239976D01*
X148372180Y-107249500D01*
X148381704Y-107259023D01*
X148391228Y-107278071D01*
X148400752Y-107316166D01*
X148400752Y-107363785D01*
X148391228Y-107401880D01*
X148381704Y-107420928D01*
X148372180Y-107430452D01*
X148353133Y-107439976D01*
X148334085Y-107439976D01*
X148315038Y-107430452D01*
X148305514Y-107420928D01*
X148295990Y-107401880D01*
X148286466Y-107363785D01*
X148286466Y-107316166D01*
X148295990Y-107278071D01*
X148305514Y-107259023D01*
X148315038Y-107249500D01*
X148334085Y-107239976D01*
X148524561Y-107239976D02*
X148543609Y-107239976D01*
X148562657Y-107249500D01*
X148572180Y-107259023D01*
X148581704Y-107278071D01*
X148591228Y-107316166D01*
X148591228Y-107363785D01*
X148581704Y-107401880D01*
X148572180Y-107420928D01*
X148562657Y-107430452D01*
X148543609Y-107439976D01*
X148524561Y-107439976D01*
X148505514Y-107430452D01*
X148495990Y-107420928D01*
X148486466Y-107401880D01*
X148476942Y-107363785D01*
X148476942Y-107316166D01*
X148486466Y-107278071D01*
X148495990Y-107259023D01*
X148505514Y-107249500D01*
X148524561Y-107239976D01*
X148676942Y-107306642D02*
X148676942Y-107439976D01*
X148676942Y-107325690D02*
X148686466Y-107316166D01*
X148705514Y-107306642D01*
X148734085Y-107306642D01*
X148753133Y-107316166D01*
X148762657Y-107335214D01*
X148762657Y-107439976D01*
X148924561Y-107335214D02*
X148857895Y-107335214D01*
X148857895Y-107439976D02*
X148857895Y-107239976D01*
X148953133Y-107239976D01*
X153326428Y-118397333D02*
X153335952Y-118406857D01*
X153345476Y-118435428D01*
X153345476Y-118454476D01*
X153335952Y-118483047D01*
X153316904Y-118502095D01*
X153297857Y-118511619D01*
X153259761Y-118521142D01*
X153231190Y-118521142D01*
X153193095Y-118511619D01*
X153174047Y-118502095D01*
X153155000Y-118483047D01*
X153145476Y-118454476D01*
X153145476Y-118435428D01*
X153155000Y-118406857D01*
X153164523Y-118397333D01*
X153345476Y-118302095D02*
X153345476Y-118264000D01*
X153335952Y-118244952D01*
X153326428Y-118235428D01*
X153297857Y-118216380D01*
X153259761Y-118206857D01*
X153183571Y-118206857D01*
X153164523Y-118216380D01*
X153155000Y-118225904D01*
X153145476Y-118244952D01*
X153145476Y-118283047D01*
X153155000Y-118302095D01*
X153164523Y-118311619D01*
X153183571Y-118321142D01*
X153231190Y-118321142D01*
X153250238Y-118311619D01*
X153259761Y-118302095D01*
X153269285Y-118283047D01*
X153269285Y-118244952D01*
X153259761Y-118225904D01*
X153250238Y-118216380D01*
X153231190Y-118206857D01*
X153345476Y-117823523D02*
X153345476Y-117937809D01*
X153345476Y-117880666D02*
X153145476Y-117880666D01*
X153174047Y-117899714D01*
X153193095Y-117918761D01*
X153202619Y-117937809D01*
X153145476Y-117699714D02*
X153145476Y-117680666D01*
X153155000Y-117661619D01*
X153164523Y-117652095D01*
X153183571Y-117642571D01*
X153221666Y-117633047D01*
X153269285Y-117633047D01*
X153307380Y-117642571D01*
X153326428Y-117652095D01*
X153335952Y-117661619D01*
X153345476Y-117680666D01*
X153345476Y-117699714D01*
X153335952Y-117718761D01*
X153326428Y-117728285D01*
X153307380Y-117737809D01*
X153269285Y-117747333D01*
X153221666Y-117747333D01*
X153183571Y-117737809D01*
X153164523Y-117728285D01*
X153155000Y-117718761D01*
X153145476Y-117699714D01*
X153145476Y-117509238D02*
X153145476Y-117490190D01*
X153155000Y-117471142D01*
X153164523Y-117461619D01*
X153183571Y-117452095D01*
X153221666Y-117442571D01*
X153269285Y-117442571D01*
X153307380Y-117452095D01*
X153326428Y-117461619D01*
X153335952Y-117471142D01*
X153345476Y-117490190D01*
X153345476Y-117509238D01*
X153335952Y-117528285D01*
X153326428Y-117537809D01*
X153307380Y-117547333D01*
X153269285Y-117556857D01*
X153221666Y-117556857D01*
X153183571Y-117547333D01*
X153164523Y-117537809D01*
X153155000Y-117528285D01*
X153145476Y-117509238D01*
X153212142Y-117356857D02*
X153345476Y-117356857D01*
X153231190Y-117356857D02*
X153221666Y-117347333D01*
X153212142Y-117328285D01*
X153212142Y-117299714D01*
X153221666Y-117280666D01*
X153240714Y-117271142D01*
X153345476Y-117271142D01*
X153240714Y-117109238D02*
X153240714Y-117175904D01*
X153345476Y-117175904D02*
X153145476Y-117175904D01*
X153145476Y-117080666D01*
X148907428Y-118706433D02*
X148916952Y-118715957D01*
X148926476Y-118744528D01*
X148926476Y-118763576D01*
X148916952Y-118792147D01*
X148897904Y-118811195D01*
X148878857Y-118820719D01*
X148840761Y-118830242D01*
X148812190Y-118830242D01*
X148774095Y-118820719D01*
X148755047Y-118811195D01*
X148736000Y-118792147D01*
X148726476Y-118763576D01*
X148726476Y-118744528D01*
X148736000Y-118715957D01*
X148745523Y-118706433D01*
X148812190Y-118592147D02*
X148802666Y-118611195D01*
X148793142Y-118620719D01*
X148774095Y-118630242D01*
X148764571Y-118630242D01*
X148745523Y-118620719D01*
X148736000Y-118611195D01*
X148726476Y-118592147D01*
X148726476Y-118554052D01*
X148736000Y-118535004D01*
X148745523Y-118525480D01*
X148764571Y-118515957D01*
X148774095Y-118515957D01*
X148793142Y-118525480D01*
X148802666Y-118535004D01*
X148812190Y-118554052D01*
X148812190Y-118592147D01*
X148821714Y-118611195D01*
X148831238Y-118620719D01*
X148850285Y-118630242D01*
X148888380Y-118630242D01*
X148907428Y-118620719D01*
X148916952Y-118611195D01*
X148926476Y-118592147D01*
X148926476Y-118554052D01*
X148916952Y-118535004D01*
X148907428Y-118525480D01*
X148888380Y-118515957D01*
X148850285Y-118515957D01*
X148831238Y-118525480D01*
X148821714Y-118535004D01*
X148812190Y-118554052D01*
X148926476Y-118132623D02*
X148926476Y-118246909D01*
X148926476Y-118189766D02*
X148726476Y-118189766D01*
X148755047Y-118208814D01*
X148774095Y-118227861D01*
X148783619Y-118246909D01*
X148726476Y-118008814D02*
X148726476Y-117989766D01*
X148736000Y-117970719D01*
X148745523Y-117961195D01*
X148764571Y-117951671D01*
X148802666Y-117942147D01*
X148850285Y-117942147D01*
X148888380Y-117951671D01*
X148907428Y-117961195D01*
X148916952Y-117970719D01*
X148926476Y-117989766D01*
X148926476Y-118008814D01*
X148916952Y-118027861D01*
X148907428Y-118037385D01*
X148888380Y-118046909D01*
X148850285Y-118056433D01*
X148802666Y-118056433D01*
X148764571Y-118046909D01*
X148745523Y-118037385D01*
X148736000Y-118027861D01*
X148726476Y-118008814D01*
X148726476Y-117818338D02*
X148726476Y-117799290D01*
X148736000Y-117780242D01*
X148745523Y-117770719D01*
X148764571Y-117761195D01*
X148802666Y-117751671D01*
X148850285Y-117751671D01*
X148888380Y-117761195D01*
X148907428Y-117770719D01*
X148916952Y-117780242D01*
X148926476Y-117799290D01*
X148926476Y-117818338D01*
X148916952Y-117837385D01*
X148907428Y-117846909D01*
X148888380Y-117856433D01*
X148850285Y-117865957D01*
X148802666Y-117865957D01*
X148764571Y-117856433D01*
X148745523Y-117846909D01*
X148736000Y-117837385D01*
X148726476Y-117818338D01*
X148793142Y-117665957D02*
X148926476Y-117665957D01*
X148812190Y-117665957D02*
X148802666Y-117656433D01*
X148793142Y-117637385D01*
X148793142Y-117608814D01*
X148802666Y-117589766D01*
X148821714Y-117580242D01*
X148926476Y-117580242D01*
X148821714Y-117418338D02*
X148821714Y-117485004D01*
X148926476Y-117485004D02*
X148726476Y-117485004D01*
X148726476Y-117389766D01*
X151807428Y-118606433D02*
X151816952Y-118615957D01*
X151826476Y-118644528D01*
X151826476Y-118663576D01*
X151816952Y-118692147D01*
X151797904Y-118711195D01*
X151778857Y-118720719D01*
X151740761Y-118730242D01*
X151712190Y-118730242D01*
X151674095Y-118720719D01*
X151655047Y-118711195D01*
X151636000Y-118692147D01*
X151626476Y-118663576D01*
X151626476Y-118644528D01*
X151636000Y-118615957D01*
X151645523Y-118606433D01*
X151626476Y-118539766D02*
X151626476Y-118406433D01*
X151826476Y-118492147D01*
X151826476Y-117982623D02*
X151826476Y-118096909D01*
X151826476Y-118039766D02*
X151626476Y-118039766D01*
X151655047Y-118058814D01*
X151674095Y-118077861D01*
X151683619Y-118096909D01*
X151626476Y-117858814D02*
X151626476Y-117839766D01*
X151636000Y-117820719D01*
X151645523Y-117811195D01*
X151664571Y-117801671D01*
X151702666Y-117792147D01*
X151750285Y-117792147D01*
X151788380Y-117801671D01*
X151807428Y-117811195D01*
X151816952Y-117820719D01*
X151826476Y-117839766D01*
X151826476Y-117858814D01*
X151816952Y-117877861D01*
X151807428Y-117887385D01*
X151788380Y-117896909D01*
X151750285Y-117906433D01*
X151702666Y-117906433D01*
X151664571Y-117896909D01*
X151645523Y-117887385D01*
X151636000Y-117877861D01*
X151626476Y-117858814D01*
X151626476Y-117668338D02*
X151626476Y-117649290D01*
X151636000Y-117630242D01*
X151645523Y-117620719D01*
X151664571Y-117611195D01*
X151702666Y-117601671D01*
X151750285Y-117601671D01*
X151788380Y-117611195D01*
X151807428Y-117620719D01*
X151816952Y-117630242D01*
X151826476Y-117649290D01*
X151826476Y-117668338D01*
X151816952Y-117687385D01*
X151807428Y-117696909D01*
X151788380Y-117706433D01*
X151750285Y-117715957D01*
X151702666Y-117715957D01*
X151664571Y-117706433D01*
X151645523Y-117696909D01*
X151636000Y-117687385D01*
X151626476Y-117668338D01*
X151693142Y-117515957D02*
X151826476Y-117515957D01*
X151712190Y-117515957D02*
X151702666Y-117506433D01*
X151693142Y-117487385D01*
X151693142Y-117458814D01*
X151702666Y-117439766D01*
X151721714Y-117430242D01*
X151826476Y-117430242D01*
X151721714Y-117268338D02*
X151721714Y-117335004D01*
X151826476Y-117335004D02*
X151626476Y-117335004D01*
X151626476Y-117239766D01*
X153026476Y-121256433D02*
X152931238Y-121323100D01*
X153026476Y-121370719D02*
X152826476Y-121370719D01*
X152826476Y-121294528D01*
X152836000Y-121275480D01*
X152845523Y-121265957D01*
X152864571Y-121256433D01*
X152893142Y-121256433D01*
X152912190Y-121265957D01*
X152921714Y-121275480D01*
X152931238Y-121294528D01*
X152931238Y-121370719D01*
X152893142Y-121085004D02*
X153026476Y-121085004D01*
X152816952Y-121132623D02*
X152959809Y-121180242D01*
X152959809Y-121056433D01*
X153026476Y-120556433D02*
X153026476Y-120670719D01*
X153026476Y-120613576D02*
X152826476Y-120613576D01*
X152855047Y-120632623D01*
X152874095Y-120651671D01*
X152883619Y-120670719D01*
X152826476Y-120432623D02*
X152826476Y-120413576D01*
X152836000Y-120394528D01*
X152845523Y-120385004D01*
X152864571Y-120375480D01*
X152902666Y-120365957D01*
X152950285Y-120365957D01*
X152988380Y-120375480D01*
X153007428Y-120385004D01*
X153016952Y-120394528D01*
X153026476Y-120413576D01*
X153026476Y-120432623D01*
X153016952Y-120451671D01*
X153007428Y-120461195D01*
X152988380Y-120470719D01*
X152950285Y-120480242D01*
X152902666Y-120480242D01*
X152864571Y-120470719D01*
X152845523Y-120461195D01*
X152836000Y-120451671D01*
X152826476Y-120432623D01*
X152826476Y-120242147D02*
X152826476Y-120223100D01*
X152836000Y-120204052D01*
X152845523Y-120194528D01*
X152864571Y-120185004D01*
X152902666Y-120175480D01*
X152950285Y-120175480D01*
X152988380Y-120185004D01*
X153007428Y-120194528D01*
X153016952Y-120204052D01*
X153026476Y-120223100D01*
X153026476Y-120242147D01*
X153016952Y-120261195D01*
X153007428Y-120270719D01*
X152988380Y-120280242D01*
X152950285Y-120289766D01*
X152902666Y-120289766D01*
X152864571Y-120280242D01*
X152845523Y-120270719D01*
X152836000Y-120261195D01*
X152826476Y-120242147D01*
X155407428Y-123806433D02*
X155416952Y-123815957D01*
X155426476Y-123844528D01*
X155426476Y-123863576D01*
X155416952Y-123892147D01*
X155397904Y-123911195D01*
X155378857Y-123920719D01*
X155340761Y-123930242D01*
X155312190Y-123930242D01*
X155274095Y-123920719D01*
X155255047Y-123911195D01*
X155236000Y-123892147D01*
X155226476Y-123863576D01*
X155226476Y-123844528D01*
X155236000Y-123815957D01*
X155245523Y-123806433D01*
X155226476Y-123625480D02*
X155226476Y-123720719D01*
X155321714Y-123730242D01*
X155312190Y-123720719D01*
X155302666Y-123701671D01*
X155302666Y-123654052D01*
X155312190Y-123635004D01*
X155321714Y-123625480D01*
X155340761Y-123615957D01*
X155388380Y-123615957D01*
X155407428Y-123625480D01*
X155416952Y-123635004D01*
X155426476Y-123654052D01*
X155426476Y-123701671D01*
X155416952Y-123720719D01*
X155407428Y-123730242D01*
X155426476Y-123232623D02*
X155426476Y-123346909D01*
X155426476Y-123289766D02*
X155226476Y-123289766D01*
X155255047Y-123308814D01*
X155274095Y-123327861D01*
X155283619Y-123346909D01*
X155226476Y-123108814D02*
X155226476Y-123089766D01*
X155236000Y-123070719D01*
X155245523Y-123061195D01*
X155264571Y-123051671D01*
X155302666Y-123042147D01*
X155350285Y-123042147D01*
X155388380Y-123051671D01*
X155407428Y-123061195D01*
X155416952Y-123070719D01*
X155426476Y-123089766D01*
X155426476Y-123108814D01*
X155416952Y-123127861D01*
X155407428Y-123137385D01*
X155388380Y-123146909D01*
X155350285Y-123156433D01*
X155302666Y-123156433D01*
X155264571Y-123146909D01*
X155245523Y-123137385D01*
X155236000Y-123127861D01*
X155226476Y-123108814D01*
X155226476Y-122918338D02*
X155226476Y-122899290D01*
X155236000Y-122880242D01*
X155245523Y-122870719D01*
X155264571Y-122861195D01*
X155302666Y-122851671D01*
X155350285Y-122851671D01*
X155388380Y-122861195D01*
X155407428Y-122870719D01*
X155416952Y-122880242D01*
X155426476Y-122899290D01*
X155426476Y-122918338D01*
X155416952Y-122937385D01*
X155407428Y-122946909D01*
X155388380Y-122956433D01*
X155350285Y-122965957D01*
X155302666Y-122965957D01*
X155264571Y-122956433D01*
X155245523Y-122946909D01*
X155236000Y-122937385D01*
X155226476Y-122918338D01*
X155293142Y-122765957D02*
X155426476Y-122765957D01*
X155312190Y-122765957D02*
X155302666Y-122756433D01*
X155293142Y-122737385D01*
X155293142Y-122708814D01*
X155302666Y-122689766D01*
X155321714Y-122680242D01*
X155426476Y-122680242D01*
X155321714Y-122518338D02*
X155321714Y-122585004D01*
X155426476Y-122585004D02*
X155226476Y-122585004D01*
X155226476Y-122489766D01*
X149726476Y-103556433D02*
X149631238Y-103623100D01*
X149726476Y-103670719D02*
X149526476Y-103670719D01*
X149526476Y-103594528D01*
X149536000Y-103575480D01*
X149545523Y-103565957D01*
X149564571Y-103556433D01*
X149593142Y-103556433D01*
X149612190Y-103565957D01*
X149621714Y-103575480D01*
X149631238Y-103594528D01*
X149631238Y-103670719D01*
X149726476Y-103365957D02*
X149726476Y-103480242D01*
X149726476Y-103423100D02*
X149526476Y-103423100D01*
X149555047Y-103442147D01*
X149574095Y-103461195D01*
X149583619Y-103480242D01*
X149726476Y-102889766D02*
X149726476Y-103004052D01*
X149726476Y-102946909D02*
X149526476Y-102946909D01*
X149555047Y-102965957D01*
X149574095Y-102985004D01*
X149583619Y-103004052D01*
X149707428Y-102804052D02*
X149716952Y-102794528D01*
X149726476Y-102804052D01*
X149716952Y-102813576D01*
X149707428Y-102804052D01*
X149726476Y-102804052D01*
X149526476Y-102613576D02*
X149526476Y-102708814D01*
X149621714Y-102718338D01*
X149612190Y-102708814D01*
X149602666Y-102689766D01*
X149602666Y-102642147D01*
X149612190Y-102623100D01*
X149621714Y-102613576D01*
X149640761Y-102604052D01*
X149688380Y-102604052D01*
X149707428Y-102613576D01*
X149716952Y-102623100D01*
X149726476Y-102642147D01*
X149726476Y-102689766D01*
X149716952Y-102708814D01*
X149707428Y-102718338D01*
X149726476Y-102518338D02*
X149526476Y-102518338D01*
X149650285Y-102499290D02*
X149726476Y-102442147D01*
X149593142Y-102442147D02*
X149669333Y-102518338D01*
X150726476Y-103556433D02*
X150631238Y-103623100D01*
X150726476Y-103670719D02*
X150526476Y-103670719D01*
X150526476Y-103594528D01*
X150536000Y-103575480D01*
X150545523Y-103565957D01*
X150564571Y-103556433D01*
X150593142Y-103556433D01*
X150612190Y-103565957D01*
X150621714Y-103575480D01*
X150631238Y-103594528D01*
X150631238Y-103670719D01*
X150545523Y-103480242D02*
X150536000Y-103470719D01*
X150526476Y-103451671D01*
X150526476Y-103404052D01*
X150536000Y-103385004D01*
X150545523Y-103375480D01*
X150564571Y-103365957D01*
X150583619Y-103365957D01*
X150612190Y-103375480D01*
X150726476Y-103489766D01*
X150726476Y-103365957D01*
X150526476Y-102780242D02*
X150526476Y-102818338D01*
X150536000Y-102837385D01*
X150545523Y-102846909D01*
X150574095Y-102865957D01*
X150612190Y-102875480D01*
X150688380Y-102875480D01*
X150707428Y-102865957D01*
X150716952Y-102856433D01*
X150726476Y-102837385D01*
X150726476Y-102799290D01*
X150716952Y-102780242D01*
X150707428Y-102770719D01*
X150688380Y-102761195D01*
X150640761Y-102761195D01*
X150621714Y-102770719D01*
X150612190Y-102780242D01*
X150602666Y-102799290D01*
X150602666Y-102837385D01*
X150612190Y-102856433D01*
X150621714Y-102865957D01*
X150640761Y-102875480D01*
X150612190Y-102646909D02*
X150602666Y-102665957D01*
X150593142Y-102675480D01*
X150574095Y-102685004D01*
X150564571Y-102685004D01*
X150545523Y-102675480D01*
X150536000Y-102665957D01*
X150526476Y-102646909D01*
X150526476Y-102608814D01*
X150536000Y-102589766D01*
X150545523Y-102580242D01*
X150564571Y-102570719D01*
X150574095Y-102570719D01*
X150593142Y-102580242D01*
X150602666Y-102589766D01*
X150612190Y-102608814D01*
X150612190Y-102646909D01*
X150621714Y-102665957D01*
X150631238Y-102675480D01*
X150650285Y-102685004D01*
X150688380Y-102685004D01*
X150707428Y-102675480D01*
X150716952Y-102665957D01*
X150726476Y-102646909D01*
X150726476Y-102608814D01*
X150716952Y-102589766D01*
X150707428Y-102580242D01*
X150688380Y-102570719D01*
X150650285Y-102570719D01*
X150631238Y-102580242D01*
X150621714Y-102589766D01*
X150612190Y-102608814D01*
X151726476Y-103556433D02*
X151631238Y-103623100D01*
X151726476Y-103670719D02*
X151526476Y-103670719D01*
X151526476Y-103594528D01*
X151536000Y-103575480D01*
X151545523Y-103565957D01*
X151564571Y-103556433D01*
X151593142Y-103556433D01*
X151612190Y-103565957D01*
X151621714Y-103575480D01*
X151631238Y-103594528D01*
X151631238Y-103670719D01*
X151526476Y-103489766D02*
X151526476Y-103365957D01*
X151602666Y-103432623D01*
X151602666Y-103404052D01*
X151612190Y-103385004D01*
X151621714Y-103375480D01*
X151640761Y-103365957D01*
X151688380Y-103365957D01*
X151707428Y-103375480D01*
X151716952Y-103385004D01*
X151726476Y-103404052D01*
X151726476Y-103461195D01*
X151716952Y-103480242D01*
X151707428Y-103489766D01*
X151526476Y-102780242D02*
X151526476Y-102818338D01*
X151536000Y-102837385D01*
X151545523Y-102846909D01*
X151574095Y-102865957D01*
X151612190Y-102875480D01*
X151688380Y-102875480D01*
X151707428Y-102865957D01*
X151716952Y-102856433D01*
X151726476Y-102837385D01*
X151726476Y-102799290D01*
X151716952Y-102780242D01*
X151707428Y-102770719D01*
X151688380Y-102761195D01*
X151640761Y-102761195D01*
X151621714Y-102770719D01*
X151612190Y-102780242D01*
X151602666Y-102799290D01*
X151602666Y-102837385D01*
X151612190Y-102856433D01*
X151621714Y-102865957D01*
X151640761Y-102875480D01*
X151612190Y-102646909D02*
X151602666Y-102665957D01*
X151593142Y-102675480D01*
X151574095Y-102685004D01*
X151564571Y-102685004D01*
X151545523Y-102675480D01*
X151536000Y-102665957D01*
X151526476Y-102646909D01*
X151526476Y-102608814D01*
X151536000Y-102589766D01*
X151545523Y-102580242D01*
X151564571Y-102570719D01*
X151574095Y-102570719D01*
X151593142Y-102580242D01*
X151602666Y-102589766D01*
X151612190Y-102608814D01*
X151612190Y-102646909D01*
X151621714Y-102665957D01*
X151631238Y-102675480D01*
X151650285Y-102685004D01*
X151688380Y-102685004D01*
X151707428Y-102675480D01*
X151716952Y-102665957D01*
X151726476Y-102646909D01*
X151726476Y-102608814D01*
X151716952Y-102589766D01*
X151707428Y-102580242D01*
X151688380Y-102570719D01*
X151650285Y-102570719D01*
X151631238Y-102580242D01*
X151621714Y-102589766D01*
X151612190Y-102608814D01*
D14*
X153707428Y-108558814D02*
X153707428Y-108801671D01*
X153721714Y-108830242D01*
X153736000Y-108844528D01*
X153764571Y-108858814D01*
X153821714Y-108858814D01*
X153850285Y-108844528D01*
X153864571Y-108830242D01*
X153878857Y-108801671D01*
X153878857Y-108558814D01*
X154150285Y-108658814D02*
X154150285Y-108858814D01*
X154078857Y-108544528D02*
X154007428Y-108758814D01*
X154193142Y-108758814D01*
D12*
X152959309Y-109813576D02*
X152959309Y-109613576D01*
X153001642Y-109756433D01*
X153043976Y-109613576D01*
X153043976Y-109813576D01*
X153104452Y-109813576D02*
X153104452Y-109613576D01*
X153237500Y-109794528D02*
X153231452Y-109804052D01*
X153213309Y-109813576D01*
X153201214Y-109813576D01*
X153183071Y-109804052D01*
X153170976Y-109785004D01*
X153164928Y-109765957D01*
X153158880Y-109727861D01*
X153158880Y-109699290D01*
X153164928Y-109661195D01*
X153170976Y-109642147D01*
X153183071Y-109623100D01*
X153201214Y-109613576D01*
X153213309Y-109613576D01*
X153231452Y-109623100D01*
X153237500Y-109632623D01*
X153352404Y-109613576D02*
X153291928Y-109613576D01*
X153285880Y-109708814D01*
X153291928Y-109699290D01*
X153304023Y-109689766D01*
X153334261Y-109689766D01*
X153346357Y-109699290D01*
X153352404Y-109708814D01*
X153358452Y-109727861D01*
X153358452Y-109775480D01*
X153352404Y-109794528D01*
X153346357Y-109804052D01*
X153334261Y-109813576D01*
X153304023Y-109813576D01*
X153291928Y-109804052D01*
X153285880Y-109794528D01*
X153400785Y-109613576D02*
X153479404Y-109613576D01*
X153437071Y-109689766D01*
X153455214Y-109689766D01*
X153467309Y-109699290D01*
X153473357Y-109708814D01*
X153479404Y-109727861D01*
X153479404Y-109775480D01*
X153473357Y-109794528D01*
X153467309Y-109804052D01*
X153455214Y-109813576D01*
X153418928Y-109813576D01*
X153406833Y-109804052D01*
X153400785Y-109794528D01*
X153588261Y-109613576D02*
X153564071Y-109613576D01*
X153551976Y-109623100D01*
X153545928Y-109632623D01*
X153533833Y-109661195D01*
X153527785Y-109699290D01*
X153527785Y-109775480D01*
X153533833Y-109794528D01*
X153539880Y-109804052D01*
X153551976Y-109813576D01*
X153576166Y-109813576D01*
X153588261Y-109804052D01*
X153594309Y-109794528D01*
X153600357Y-109775480D01*
X153600357Y-109727861D01*
X153594309Y-109708814D01*
X153588261Y-109699290D01*
X153576166Y-109689766D01*
X153551976Y-109689766D01*
X153539880Y-109699290D01*
X153533833Y-109708814D01*
X153527785Y-109727861D01*
X153715261Y-109613576D02*
X153654785Y-109613576D01*
X153648738Y-109708814D01*
X153654785Y-109699290D01*
X153666880Y-109689766D01*
X153697119Y-109689766D01*
X153709214Y-109699290D01*
X153715261Y-109708814D01*
X153721309Y-109727861D01*
X153721309Y-109775480D01*
X153715261Y-109794528D01*
X153709214Y-109804052D01*
X153697119Y-109813576D01*
X153666880Y-109813576D01*
X153654785Y-109804052D01*
X153648738Y-109794528D01*
X153775738Y-109737385D02*
X153872500Y-109737385D01*
X153999500Y-109813576D02*
X153926928Y-109813576D01*
X153963214Y-109813576D02*
X153963214Y-109613576D01*
X153951119Y-109642147D01*
X153939023Y-109661195D01*
X153926928Y-109670719D01*
X154053928Y-109794528D02*
X154059976Y-109804052D01*
X154053928Y-109813576D01*
X154047880Y-109804052D01*
X154053928Y-109794528D01*
X154053928Y-109813576D01*
X154108357Y-109632623D02*
X154114404Y-109623100D01*
X154126500Y-109613576D01*
X154156738Y-109613576D01*
X154168833Y-109623100D01*
X154174880Y-109632623D01*
X154180928Y-109651671D01*
X154180928Y-109670719D01*
X154174880Y-109699290D01*
X154102309Y-109813576D01*
X154180928Y-109813576D01*
X154259547Y-109718338D02*
X154259547Y-109813576D01*
X154217214Y-109613576D02*
X154259547Y-109718338D01*
X154301880Y-109613576D01*
X154416785Y-109794528D02*
X154410738Y-109804052D01*
X154392595Y-109813576D01*
X154380500Y-109813576D01*
X154362357Y-109804052D01*
X154350261Y-109785004D01*
X154344214Y-109765957D01*
X154338166Y-109727861D01*
X154338166Y-109699290D01*
X154344214Y-109661195D01*
X154350261Y-109642147D01*
X154362357Y-109623100D01*
X154380500Y-109613576D01*
X154392595Y-109613576D01*
X154410738Y-109623100D01*
X154416785Y-109632623D01*
X154531690Y-109613576D02*
X154471214Y-109613576D01*
X154465166Y-109708814D01*
X154471214Y-109699290D01*
X154483309Y-109689766D01*
X154513547Y-109689766D01*
X154525642Y-109699290D01*
X154531690Y-109708814D01*
X154537738Y-109727861D01*
X154537738Y-109775480D01*
X154531690Y-109794528D01*
X154525642Y-109804052D01*
X154513547Y-109813576D01*
X154483309Y-109813576D01*
X154471214Y-109804052D01*
X154465166Y-109794528D01*
X154592166Y-109737385D02*
X154688928Y-109737385D01*
X154731261Y-109613576D02*
X154803833Y-109613576D01*
X154767547Y-109813576D02*
X154767547Y-109613576D01*
X154918738Y-109813576D02*
X154876404Y-109718338D01*
X154846166Y-109813576D02*
X154846166Y-109613576D01*
X154894547Y-109613576D01*
X154906642Y-109623100D01*
X154912690Y-109632623D01*
X154918738Y-109651671D01*
X154918738Y-109680242D01*
X154912690Y-109699290D01*
X154906642Y-109708814D01*
X154894547Y-109718338D01*
X154846166Y-109718338D01*
D14*
X156786000Y-110030242D02*
X156771714Y-110044528D01*
X156728857Y-110058814D01*
X156700285Y-110058814D01*
X156657428Y-110044528D01*
X156628857Y-110015957D01*
X156614571Y-109987385D01*
X156600285Y-109930242D01*
X156600285Y-109887385D01*
X156614571Y-109830242D01*
X156628857Y-109801671D01*
X156657428Y-109773100D01*
X156700285Y-109758814D01*
X156728857Y-109758814D01*
X156771714Y-109773100D01*
X156786000Y-109787385D01*
X156886000Y-109758814D02*
X157071714Y-109758814D01*
X156971714Y-109873100D01*
X157014571Y-109873100D01*
X157043142Y-109887385D01*
X157057428Y-109901671D01*
X157071714Y-109930242D01*
X157071714Y-110001671D01*
X157057428Y-110030242D01*
X157043142Y-110044528D01*
X157014571Y-110058814D01*
X156928857Y-110058814D01*
X156900285Y-110044528D01*
X156886000Y-110030242D01*
X155757428Y-110058814D02*
X155586000Y-110058814D01*
X155671714Y-110058814D02*
X155671714Y-109758814D01*
X155643142Y-109801671D01*
X155614571Y-109830242D01*
X155586000Y-109844528D01*
X156014571Y-109858814D02*
X156014571Y-110058814D01*
X155886000Y-109858814D02*
X155886000Y-110015957D01*
X155900285Y-110044528D01*
X155928857Y-110058814D01*
X155971714Y-110058814D01*
X156000285Y-110044528D01*
X156014571Y-110030242D01*
X156257428Y-109901671D02*
X156157428Y-109901671D01*
X156157428Y-110058814D02*
X156157428Y-109758814D01*
X156300285Y-109758814D01*
X156786000Y-104030242D02*
X156771714Y-104044528D01*
X156728857Y-104058814D01*
X156700285Y-104058814D01*
X156657428Y-104044528D01*
X156628857Y-104015957D01*
X156614571Y-103987385D01*
X156600285Y-103930242D01*
X156600285Y-103887385D01*
X156614571Y-103830242D01*
X156628857Y-103801671D01*
X156657428Y-103773100D01*
X156700285Y-103758814D01*
X156728857Y-103758814D01*
X156771714Y-103773100D01*
X156786000Y-103787385D01*
X157071714Y-104058814D02*
X156900285Y-104058814D01*
X156986000Y-104058814D02*
X156986000Y-103758814D01*
X156957428Y-103801671D01*
X156928857Y-103830242D01*
X156900285Y-103844528D01*
X155757428Y-104058814D02*
X155586000Y-104058814D01*
X155671714Y-104058814D02*
X155671714Y-103758814D01*
X155643142Y-103801671D01*
X155614571Y-103830242D01*
X155586000Y-103844528D01*
X156014571Y-103858814D02*
X156014571Y-104058814D01*
X155886000Y-103858814D02*
X155886000Y-104015957D01*
X155900285Y-104044528D01*
X155928857Y-104058814D01*
X155971714Y-104058814D01*
X156000285Y-104044528D01*
X156014571Y-104030242D01*
X156257428Y-103901671D02*
X156157428Y-103901671D01*
X156157428Y-104058814D02*
X156157428Y-103758814D01*
X156300285Y-103758814D01*
X156786000Y-106430242D02*
X156771714Y-106444528D01*
X156728857Y-106458814D01*
X156700285Y-106458814D01*
X156657428Y-106444528D01*
X156628857Y-106415957D01*
X156614571Y-106387385D01*
X156600285Y-106330242D01*
X156600285Y-106287385D01*
X156614571Y-106230242D01*
X156628857Y-106201671D01*
X156657428Y-106173100D01*
X156700285Y-106158814D01*
X156728857Y-106158814D01*
X156771714Y-106173100D01*
X156786000Y-106187385D01*
X157043142Y-106258814D02*
X157043142Y-106458814D01*
X156971714Y-106144528D02*
X156900285Y-106358814D01*
X157086000Y-106358814D01*
X155757428Y-106458814D02*
X155586000Y-106458814D01*
X155671714Y-106458814D02*
X155671714Y-106158814D01*
X155643142Y-106201671D01*
X155614571Y-106230242D01*
X155586000Y-106244528D01*
X156014571Y-106258814D02*
X156014571Y-106458814D01*
X155886000Y-106258814D02*
X155886000Y-106415957D01*
X155900285Y-106444528D01*
X155928857Y-106458814D01*
X155971714Y-106458814D01*
X156000285Y-106444528D01*
X156014571Y-106430242D01*
X156257428Y-106301671D02*
X156157428Y-106301671D01*
X156157428Y-106458814D02*
X156157428Y-106158814D01*
X156300285Y-106158814D01*
X156786000Y-107630242D02*
X156771714Y-107644528D01*
X156728857Y-107658814D01*
X156700285Y-107658814D01*
X156657428Y-107644528D01*
X156628857Y-107615957D01*
X156614571Y-107587385D01*
X156600285Y-107530242D01*
X156600285Y-107487385D01*
X156614571Y-107430242D01*
X156628857Y-107401671D01*
X156657428Y-107373100D01*
X156700285Y-107358814D01*
X156728857Y-107358814D01*
X156771714Y-107373100D01*
X156786000Y-107387385D01*
X156900285Y-107387385D02*
X156914571Y-107373100D01*
X156943142Y-107358814D01*
X157014571Y-107358814D01*
X157043142Y-107373100D01*
X157057428Y-107387385D01*
X157071714Y-107415957D01*
X157071714Y-107444528D01*
X157057428Y-107487385D01*
X156886000Y-107658814D01*
X157071714Y-107658814D01*
X155757428Y-107658814D02*
X155586000Y-107658814D01*
X155671714Y-107658814D02*
X155671714Y-107358814D01*
X155643142Y-107401671D01*
X155614571Y-107430242D01*
X155586000Y-107444528D01*
X156014571Y-107458814D02*
X156014571Y-107658814D01*
X155886000Y-107458814D02*
X155886000Y-107615957D01*
X155900285Y-107644528D01*
X155928857Y-107658814D01*
X155971714Y-107658814D01*
X156000285Y-107644528D01*
X156014571Y-107630242D01*
X156257428Y-107501671D02*
X156157428Y-107501671D01*
X156157428Y-107658814D02*
X156157428Y-107358814D01*
X156300285Y-107358814D01*
D10*
X149802666Y-130127861D02*
X149945523Y-130175480D01*
X150183619Y-130175480D01*
X150278857Y-130127861D01*
X150326476Y-130080242D01*
X150374095Y-129985004D01*
X150374095Y-129889766D01*
X150326476Y-129794528D01*
X150278857Y-129746909D01*
X150183619Y-129699290D01*
X149993142Y-129651671D01*
X149897904Y-129604052D01*
X149850285Y-129556433D01*
X149802666Y-129461195D01*
X149802666Y-129365957D01*
X149850285Y-129270719D01*
X149897904Y-129223100D01*
X149993142Y-129175480D01*
X150231238Y-129175480D01*
X150374095Y-129223100D01*
X150707428Y-129175480D02*
X150945523Y-130175480D01*
X151136000Y-129461195D01*
X151326476Y-130175480D01*
X151564571Y-129175480D01*
X152469333Y-130175480D02*
X151897904Y-130175480D01*
X152183619Y-130175480D02*
X152183619Y-129175480D01*
X152088380Y-129318338D01*
X151993142Y-129413576D01*
X151897904Y-129461195D01*
D12*
X155068404Y-127591351D02*
X154995833Y-127591351D01*
X155032119Y-127591351D02*
X155032119Y-127464351D01*
X155020023Y-127482494D01*
X155007928Y-127494589D01*
X154995833Y-127500637D01*
X155147023Y-127464351D02*
X155159119Y-127464351D01*
X155171214Y-127470399D01*
X155177261Y-127476446D01*
X155183309Y-127488541D01*
X155189357Y-127512732D01*
X155189357Y-127542970D01*
X155183309Y-127567160D01*
X155177261Y-127579256D01*
X155171214Y-127585303D01*
X155159119Y-127591351D01*
X155147023Y-127591351D01*
X155134928Y-127585303D01*
X155128880Y-127579256D01*
X155122833Y-127567160D01*
X155116785Y-127542970D01*
X155116785Y-127512732D01*
X155122833Y-127488541D01*
X155128880Y-127476446D01*
X155134928Y-127470399D01*
X155147023Y-127464351D01*
X155243785Y-127591351D02*
X155243785Y-127464351D01*
X155255880Y-127542970D02*
X155292166Y-127591351D01*
X155292166Y-127506684D02*
X155243785Y-127555065D01*
X155048357Y-126651351D02*
X155006023Y-126590875D01*
X154975785Y-126651351D02*
X154975785Y-126524351D01*
X155024166Y-126524351D01*
X155036261Y-126530399D01*
X155042309Y-126536446D01*
X155048357Y-126548541D01*
X155048357Y-126566684D01*
X155042309Y-126578779D01*
X155036261Y-126584827D01*
X155024166Y-126590875D01*
X154975785Y-126590875D01*
X155169309Y-126651351D02*
X155096738Y-126651351D01*
X155133023Y-126651351D02*
X155133023Y-126524351D01*
X155120928Y-126542494D01*
X155108833Y-126554589D01*
X155096738Y-126560637D01*
X155247928Y-126524351D02*
X155260023Y-126524351D01*
X155272119Y-126530399D01*
X155278166Y-126536446D01*
X155284214Y-126548541D01*
X155290261Y-126572732D01*
X155290261Y-126602970D01*
X155284214Y-126627160D01*
X155278166Y-126639256D01*
X155272119Y-126645303D01*
X155260023Y-126651351D01*
X155247928Y-126651351D01*
X155235833Y-126645303D01*
X155229785Y-126639256D01*
X155223738Y-126627160D01*
X155217690Y-126602970D01*
X155217690Y-126572732D01*
X155223738Y-126548541D01*
X155229785Y-126536446D01*
X155235833Y-126530399D01*
X155247928Y-126524351D01*
D10*
X129547778Y-98612410D02*
X129572518Y-98715975D01*
X129694953Y-98861889D01*
X129792650Y-98904236D01*
X129896215Y-98879497D01*
X129932694Y-98848888D01*
X129975041Y-98751192D01*
X129950302Y-98647626D01*
X129858475Y-98538191D01*
X129833735Y-98434626D01*
X129876083Y-98336929D01*
X129912561Y-98306320D01*
X130016127Y-98281581D01*
X130113823Y-98323929D01*
X130205650Y-98433363D01*
X130230389Y-98536929D01*
X130343610Y-99560846D02*
X130245914Y-99518498D01*
X130123479Y-99372585D01*
X130098739Y-99269019D01*
X130141087Y-99171323D01*
X130432913Y-98926452D01*
X130536479Y-98901712D01*
X130634175Y-98944060D01*
X130756611Y-99089973D01*
X130781350Y-99193539D01*
X130739002Y-99291235D01*
X130666046Y-99352453D01*
X130287000Y-99048887D01*
X131123918Y-99527713D02*
X130613222Y-99956238D01*
X131050961Y-99588931D02*
X131118048Y-99594800D01*
X131215745Y-99637148D01*
X131307571Y-99746583D01*
X131332311Y-99850148D01*
X131289963Y-99947844D01*
X130888702Y-100284543D01*
X131200661Y-100582238D02*
X131225400Y-100685804D01*
X131347836Y-100831717D01*
X131445532Y-100874065D01*
X131549098Y-100849325D01*
X131585576Y-100818716D01*
X131627924Y-100721020D01*
X131603184Y-100617455D01*
X131511357Y-100508020D01*
X131486618Y-100404454D01*
X131528965Y-100306758D01*
X131565444Y-100276149D01*
X131669009Y-100251409D01*
X131766705Y-100293757D01*
X131858532Y-100403192D01*
X131883272Y-100506758D01*
X131806970Y-101378892D02*
X131782230Y-101275326D01*
X131788100Y-101208239D01*
X131830447Y-101110543D01*
X132049317Y-100926889D01*
X132152883Y-100902150D01*
X132219970Y-100908019D01*
X132317666Y-100950367D01*
X132409493Y-101059802D01*
X132434233Y-101163367D01*
X132428363Y-101230454D01*
X132386016Y-101328151D01*
X132167146Y-101511804D01*
X132063580Y-101536544D01*
X131996493Y-101530674D01*
X131898797Y-101488327D01*
X131806970Y-101378892D01*
X132296713Y-101962545D02*
X132807409Y-101534020D01*
X132661496Y-101656455D02*
X132765061Y-101631716D01*
X132832149Y-101637585D01*
X132929845Y-101679933D01*
X132991063Y-101752889D01*
X133583109Y-101939888D02*
X133644327Y-102012845D01*
X133669067Y-102116410D01*
X133663197Y-102183498D01*
X133620850Y-102281194D01*
X133505545Y-102440108D01*
X133323154Y-102593153D01*
X133146632Y-102679110D01*
X133043066Y-102703850D01*
X132975979Y-102697980D01*
X132878283Y-102655632D01*
X132817065Y-102582676D01*
X132792325Y-102479110D01*
X132798195Y-102412023D01*
X132840542Y-102314327D01*
X132955847Y-102155413D01*
X133138238Y-102002368D01*
X133314760Y-101916411D01*
X133418326Y-101891671D01*
X133485413Y-101897541D01*
X133583109Y-101939888D01*
X135714020Y-96297783D02*
X136173154Y-96844957D01*
X136228502Y-96985001D01*
X136216763Y-97119175D01*
X136137937Y-97247481D01*
X136064981Y-97308698D01*
X136407107Y-95716213D02*
X136261194Y-95838649D01*
X136218847Y-95936345D01*
X136212977Y-96003432D01*
X136231847Y-96174085D01*
X136317805Y-96350607D01*
X136562676Y-96642433D01*
X136660372Y-96684781D01*
X136727460Y-96690650D01*
X136831025Y-96665911D01*
X136976938Y-96543475D01*
X137019286Y-96445779D01*
X137025155Y-96378692D01*
X137000416Y-96275126D01*
X136847371Y-96092735D01*
X136749675Y-96050387D01*
X136682588Y-96044518D01*
X136579022Y-96069257D01*
X136433109Y-96191693D01*
X136390761Y-96289389D01*
X136384892Y-96356476D01*
X136409632Y-96460042D01*
X144399325Y-139842640D02*
X144488183Y-139783971D01*
X144583421Y-139619014D01*
X144589801Y-139512726D01*
X144531132Y-139423868D01*
X144489893Y-139400058D01*
X144383605Y-139393678D01*
X144294746Y-139452348D01*
X144223318Y-139576065D01*
X144134459Y-139634735D01*
X144028171Y-139628355D01*
X143986932Y-139604545D01*
X143928263Y-139515687D01*
X143934643Y-139409399D01*
X144006071Y-139285681D01*
X144094930Y-139227012D01*
X145018373Y-138770419D02*
X145011993Y-138876707D01*
X144916755Y-139041664D01*
X144827896Y-139100333D01*
X144721608Y-139093953D01*
X144391694Y-138903477D01*
X144333025Y-138814619D01*
X144339404Y-138708331D01*
X144434643Y-138543373D01*
X144523501Y-138484704D01*
X144629789Y-138491084D01*
X144712268Y-138538703D01*
X144556651Y-138998715D01*
X144720357Y-138048502D02*
X145297707Y-138381835D01*
X144802835Y-138096121D02*
X144785406Y-138031072D01*
X144791785Y-137924784D01*
X144863214Y-137801066D01*
X144952072Y-137742397D01*
X145058360Y-137748777D01*
X145511993Y-138010681D01*
X145685039Y-137615718D02*
X145773898Y-137557049D01*
X145869136Y-137392092D01*
X145875515Y-137285804D01*
X145816846Y-137196945D01*
X145775607Y-137173136D01*
X145669319Y-137166756D01*
X145580461Y-137225425D01*
X145509032Y-137349143D01*
X145420174Y-137407812D01*
X145313886Y-137401432D01*
X145272646Y-137377623D01*
X145213977Y-137288764D01*
X145220357Y-137182476D01*
X145291785Y-137058758D01*
X145380644Y-137000089D01*
X146226279Y-136773502D02*
X146137420Y-136832171D01*
X146072371Y-136849601D01*
X145966083Y-136843221D01*
X145718647Y-136700364D01*
X145659978Y-136611506D01*
X145642549Y-136546457D01*
X145648928Y-136440169D01*
X145720357Y-136316451D01*
X145809215Y-136257782D01*
X145874264Y-136240352D01*
X145980552Y-136246732D01*
X146227988Y-136389589D01*
X146286657Y-136478447D01*
X146304087Y-136543496D01*
X146297707Y-136649784D01*
X146226279Y-136773502D01*
X146607231Y-136113673D02*
X146029881Y-135780340D01*
X146194838Y-135875578D02*
X146136169Y-135786720D01*
X146118739Y-135721671D01*
X146125119Y-135615383D01*
X146172738Y-135532904D01*
X146109398Y-135166421D02*
X146091969Y-135101372D01*
X146098348Y-134995084D01*
X146217396Y-134788887D01*
X146306254Y-134730218D01*
X146371303Y-134712788D01*
X146477591Y-134719168D01*
X146560070Y-134766787D01*
X146659978Y-134879455D01*
X146869136Y-135660041D01*
X147178660Y-135123930D01*
X140085577Y-133558081D02*
X139728434Y-134176670D01*
X139615766Y-134276579D01*
X139485668Y-134311438D01*
X139338141Y-134281249D01*
X139255662Y-134233630D01*
X140415491Y-133748557D02*
X140992842Y-134081890D01*
X140121688Y-134733630D01*
X171531904Y-120518761D02*
X171627142Y-120566380D01*
X171817619Y-120566380D01*
X171912857Y-120518761D01*
X171960476Y-120423523D01*
X171960476Y-120375904D01*
X171912857Y-120280666D01*
X171817619Y-120233047D01*
X171674761Y-120233047D01*
X171579523Y-120185428D01*
X171531904Y-120090190D01*
X171531904Y-120042571D01*
X171579523Y-119947333D01*
X171674761Y-119899714D01*
X171817619Y-119899714D01*
X171912857Y-119947333D01*
X172770000Y-120518761D02*
X172674761Y-120566380D01*
X172484285Y-120566380D01*
X172389047Y-120518761D01*
X172341428Y-120423523D01*
X172341428Y-120042571D01*
X172389047Y-119947333D01*
X172484285Y-119899714D01*
X172674761Y-119899714D01*
X172770000Y-119947333D01*
X172817619Y-120042571D01*
X172817619Y-120137809D01*
X172341428Y-120233047D01*
X173246190Y-119899714D02*
X173246190Y-120566380D01*
X173246190Y-119994952D02*
X173293809Y-119947333D01*
X173389047Y-119899714D01*
X173531904Y-119899714D01*
X173627142Y-119947333D01*
X173674761Y-120042571D01*
X173674761Y-120566380D01*
X174103333Y-120518761D02*
X174198571Y-120566380D01*
X174389047Y-120566380D01*
X174484285Y-120518761D01*
X174531904Y-120423523D01*
X174531904Y-120375904D01*
X174484285Y-120280666D01*
X174389047Y-120233047D01*
X174246190Y-120233047D01*
X174150952Y-120185428D01*
X174103333Y-120090190D01*
X174103333Y-120042571D01*
X174150952Y-119947333D01*
X174246190Y-119899714D01*
X174389047Y-119899714D01*
X174484285Y-119947333D01*
X175103333Y-120566380D02*
X175008095Y-120518761D01*
X174960476Y-120471142D01*
X174912857Y-120375904D01*
X174912857Y-120090190D01*
X174960476Y-119994952D01*
X175008095Y-119947333D01*
X175103333Y-119899714D01*
X175246190Y-119899714D01*
X175341428Y-119947333D01*
X175389047Y-119994952D01*
X175436666Y-120090190D01*
X175436666Y-120375904D01*
X175389047Y-120471142D01*
X175341428Y-120518761D01*
X175246190Y-120566380D01*
X175103333Y-120566380D01*
X175865238Y-120566380D02*
X175865238Y-119899714D01*
X175865238Y-120090190D02*
X175912857Y-119994952D01*
X175960476Y-119947333D01*
X176055714Y-119899714D01*
X176150952Y-119899714D01*
X176912857Y-119899714D02*
X176912857Y-120566380D01*
X176674761Y-119518761D02*
X176436666Y-120233047D01*
X177055714Y-120233047D01*
X173722380Y-114307333D02*
X174436666Y-114307333D01*
X174579523Y-114354952D01*
X174674761Y-114450190D01*
X174722380Y-114593047D01*
X174722380Y-114688285D01*
X174150952Y-113688285D02*
X174103333Y-113783523D01*
X174055714Y-113831142D01*
X173960476Y-113878761D01*
X173912857Y-113878761D01*
X173817619Y-113831142D01*
X173770000Y-113783523D01*
X173722380Y-113688285D01*
X173722380Y-113497809D01*
X173770000Y-113402571D01*
X173817619Y-113354952D01*
X173912857Y-113307333D01*
X173960476Y-113307333D01*
X174055714Y-113354952D01*
X174103333Y-113402571D01*
X174150952Y-113497809D01*
X174150952Y-113688285D01*
X174198571Y-113783523D01*
X174246190Y-113831142D01*
X174341428Y-113878761D01*
X174531904Y-113878761D01*
X174627142Y-113831142D01*
X174674761Y-113783523D01*
X174722380Y-113688285D01*
X174722380Y-113497809D01*
X174674761Y-113402571D01*
X174627142Y-113354952D01*
X174531904Y-113307333D01*
X174341428Y-113307333D01*
X174246190Y-113354952D01*
X174198571Y-113402571D01*
X174150952Y-113497809D01*
X125501904Y-120638761D02*
X125597142Y-120686380D01*
X125787619Y-120686380D01*
X125882857Y-120638761D01*
X125930476Y-120543523D01*
X125930476Y-120495904D01*
X125882857Y-120400666D01*
X125787619Y-120353047D01*
X125644761Y-120353047D01*
X125549523Y-120305428D01*
X125501904Y-120210190D01*
X125501904Y-120162571D01*
X125549523Y-120067333D01*
X125644761Y-120019714D01*
X125787619Y-120019714D01*
X125882857Y-120067333D01*
X126740000Y-120638761D02*
X126644761Y-120686380D01*
X126454285Y-120686380D01*
X126359047Y-120638761D01*
X126311428Y-120543523D01*
X126311428Y-120162571D01*
X126359047Y-120067333D01*
X126454285Y-120019714D01*
X126644761Y-120019714D01*
X126740000Y-120067333D01*
X126787619Y-120162571D01*
X126787619Y-120257809D01*
X126311428Y-120353047D01*
X127216190Y-120019714D02*
X127216190Y-120686380D01*
X127216190Y-120114952D02*
X127263809Y-120067333D01*
X127359047Y-120019714D01*
X127501904Y-120019714D01*
X127597142Y-120067333D01*
X127644761Y-120162571D01*
X127644761Y-120686380D01*
X128073333Y-120638761D02*
X128168571Y-120686380D01*
X128359047Y-120686380D01*
X128454285Y-120638761D01*
X128501904Y-120543523D01*
X128501904Y-120495904D01*
X128454285Y-120400666D01*
X128359047Y-120353047D01*
X128216190Y-120353047D01*
X128120952Y-120305428D01*
X128073333Y-120210190D01*
X128073333Y-120162571D01*
X128120952Y-120067333D01*
X128216190Y-120019714D01*
X128359047Y-120019714D01*
X128454285Y-120067333D01*
X129073333Y-120686380D02*
X128978095Y-120638761D01*
X128930476Y-120591142D01*
X128882857Y-120495904D01*
X128882857Y-120210190D01*
X128930476Y-120114952D01*
X128978095Y-120067333D01*
X129073333Y-120019714D01*
X129216190Y-120019714D01*
X129311428Y-120067333D01*
X129359047Y-120114952D01*
X129406666Y-120210190D01*
X129406666Y-120495904D01*
X129359047Y-120591142D01*
X129311428Y-120638761D01*
X129216190Y-120686380D01*
X129073333Y-120686380D01*
X129835238Y-120686380D02*
X129835238Y-120019714D01*
X129835238Y-120210190D02*
X129882857Y-120114952D01*
X129930476Y-120067333D01*
X130025714Y-120019714D01*
X130120952Y-120019714D01*
X130978095Y-120686380D02*
X130406666Y-120686380D01*
X130692380Y-120686380D02*
X130692380Y-119686380D01*
X130597142Y-119829238D01*
X130501904Y-119924476D01*
X130406666Y-119972095D01*
X127692380Y-114427333D02*
X128406666Y-114427333D01*
X128549523Y-114474952D01*
X128644761Y-114570190D01*
X128692380Y-114713047D01*
X128692380Y-114808285D01*
X128692380Y-113903523D02*
X128692380Y-113713047D01*
X128644761Y-113617809D01*
X128597142Y-113570190D01*
X128454285Y-113474952D01*
X128263809Y-113427333D01*
X127882857Y-113427333D01*
X127787619Y-113474952D01*
X127740000Y-113522571D01*
X127692380Y-113617809D01*
X127692380Y-113808285D01*
X127740000Y-113903523D01*
X127787619Y-113951142D01*
X127882857Y-113998761D01*
X128120952Y-113998761D01*
X128216190Y-113951142D01*
X128263809Y-113903523D01*
X128311428Y-113808285D01*
X128311428Y-113617809D01*
X128263809Y-113522571D01*
X128216190Y-113474952D01*
X128120952Y-113427333D01*
X159637778Y-133532410D02*
X159662518Y-133635975D01*
X159784953Y-133781889D01*
X159882650Y-133824236D01*
X159986215Y-133799497D01*
X160022694Y-133768888D01*
X160065041Y-133671192D01*
X160040302Y-133567626D01*
X159948475Y-133458191D01*
X159923735Y-133354626D01*
X159966083Y-133256929D01*
X160002561Y-133226320D01*
X160106127Y-133201581D01*
X160203823Y-133243929D01*
X160295650Y-133353363D01*
X160320389Y-133456929D01*
X160433610Y-134480846D02*
X160335914Y-134438498D01*
X160213479Y-134292585D01*
X160188739Y-134189019D01*
X160231087Y-134091323D01*
X160522913Y-133846452D01*
X160626479Y-133821712D01*
X160724175Y-133864060D01*
X160846611Y-134009973D01*
X160871350Y-134113539D01*
X160829002Y-134211235D01*
X160756046Y-134272453D01*
X160377000Y-133968887D01*
X161213918Y-134447713D02*
X160703222Y-134876238D01*
X161140961Y-134508931D02*
X161208048Y-134514800D01*
X161305745Y-134557148D01*
X161397571Y-134666583D01*
X161422311Y-134770148D01*
X161379963Y-134867844D01*
X160978702Y-135204543D01*
X161290661Y-135502238D02*
X161315400Y-135605804D01*
X161437836Y-135751717D01*
X161535532Y-135794065D01*
X161639098Y-135769325D01*
X161675576Y-135738716D01*
X161717924Y-135641020D01*
X161693184Y-135537455D01*
X161601357Y-135428020D01*
X161576618Y-135324454D01*
X161618965Y-135226758D01*
X161655444Y-135196149D01*
X161759009Y-135171409D01*
X161856705Y-135213757D01*
X161948532Y-135323192D01*
X161973272Y-135426758D01*
X161896970Y-136298892D02*
X161872230Y-136195326D01*
X161878100Y-136128239D01*
X161920447Y-136030543D01*
X162139317Y-135846889D01*
X162242883Y-135822150D01*
X162309970Y-135828019D01*
X162407666Y-135870367D01*
X162499493Y-135979802D01*
X162524233Y-136083367D01*
X162518363Y-136150454D01*
X162476016Y-136248151D01*
X162257146Y-136431804D01*
X162153580Y-136456544D01*
X162086493Y-136450674D01*
X161988797Y-136408327D01*
X161896970Y-136298892D01*
X162386713Y-136882545D02*
X162897409Y-136454020D01*
X162751496Y-136576455D02*
X162855061Y-136551716D01*
X162922149Y-136557585D01*
X163019845Y-136599933D01*
X163081063Y-136672889D01*
X163489456Y-136641018D02*
X163887372Y-137115236D01*
X163381283Y-137104760D01*
X163473110Y-137214195D01*
X163497849Y-137317760D01*
X163491980Y-137384847D01*
X163449632Y-137482544D01*
X163267241Y-137635588D01*
X163163675Y-137660328D01*
X163096588Y-137654458D01*
X162998892Y-137612111D01*
X162815238Y-137393241D01*
X162790498Y-137289675D01*
X162796368Y-137222588D01*
X165439237Y-131523872D02*
X165898371Y-132071046D01*
X165953719Y-132211090D01*
X165941980Y-132345265D01*
X165863154Y-132473570D01*
X165790198Y-132534788D01*
X166848069Y-131647129D02*
X166410329Y-132014436D01*
X166629199Y-131830782D02*
X165986411Y-131064738D01*
X166005281Y-131235391D01*
X165993543Y-131369565D01*
X165951195Y-131467261D01*
X166679499Y-130483168D02*
X166752456Y-130421950D01*
X166856021Y-130397211D01*
X166923108Y-130403080D01*
X167020805Y-130445428D01*
X167179719Y-130560732D01*
X167332763Y-130743124D01*
X167418721Y-130919646D01*
X167443460Y-131023211D01*
X167437591Y-131090298D01*
X167395243Y-131187995D01*
X167322287Y-131249213D01*
X167218721Y-131273952D01*
X167151634Y-131268083D01*
X167053938Y-131225735D01*
X166895024Y-131110431D01*
X166741979Y-130928039D01*
X166656021Y-130751517D01*
X166631282Y-130647952D01*
X166637151Y-130580864D01*
X166679499Y-130483168D01*
X166378439Y-99472640D02*
X166467297Y-99413971D01*
X166562535Y-99249014D01*
X166568915Y-99142726D01*
X166510246Y-99053868D01*
X166469007Y-99030058D01*
X166362719Y-99023678D01*
X166273860Y-99082348D01*
X166202432Y-99206065D01*
X166113573Y-99264735D01*
X166007285Y-99258355D01*
X165966046Y-99234545D01*
X165907377Y-99145687D01*
X165913757Y-99039399D01*
X165985185Y-98915681D01*
X166074044Y-98857012D01*
X166997487Y-98400419D02*
X166991107Y-98506707D01*
X166895869Y-98671664D01*
X166807010Y-98730333D01*
X166700722Y-98723953D01*
X166370808Y-98533477D01*
X166312139Y-98444619D01*
X166318518Y-98338331D01*
X166413757Y-98173373D01*
X166502615Y-98114704D01*
X166608903Y-98121084D01*
X166691382Y-98168703D01*
X166535765Y-98628715D01*
X166699471Y-97678502D02*
X167276821Y-98011835D01*
X166781949Y-97726121D02*
X166764520Y-97661072D01*
X166770899Y-97554784D01*
X166842328Y-97431066D01*
X166931186Y-97372397D01*
X167037474Y-97378777D01*
X167491107Y-97640681D01*
X167664153Y-97245718D02*
X167753012Y-97187049D01*
X167848250Y-97022092D01*
X167854629Y-96915804D01*
X167795960Y-96826945D01*
X167754721Y-96803136D01*
X167648433Y-96796756D01*
X167559575Y-96855425D01*
X167488146Y-96979143D01*
X167399288Y-97037812D01*
X167293000Y-97031432D01*
X167251760Y-97007623D01*
X167193091Y-96918764D01*
X167199471Y-96812476D01*
X167270899Y-96688758D01*
X167359758Y-96630089D01*
X168205393Y-96403502D02*
X168116534Y-96462171D01*
X168051485Y-96479601D01*
X167945197Y-96473221D01*
X167697761Y-96330364D01*
X167639092Y-96241506D01*
X167621663Y-96176457D01*
X167628042Y-96070169D01*
X167699471Y-95946451D01*
X167788329Y-95887782D01*
X167853378Y-95870352D01*
X167959666Y-95876732D01*
X168207102Y-96019589D01*
X168265771Y-96108447D01*
X168283201Y-96173496D01*
X168276821Y-96279784D01*
X168205393Y-96403502D01*
X168586345Y-95743673D02*
X168008995Y-95410340D01*
X168173952Y-95505578D02*
X168115283Y-95416720D01*
X168097853Y-95351671D01*
X168104233Y-95245383D01*
X168151852Y-95162904D01*
X168267939Y-94295169D02*
X168029843Y-94707562D01*
X168418427Y-94986897D01*
X168400997Y-94921848D01*
X168407377Y-94815560D01*
X168526424Y-94609363D01*
X168615283Y-94550694D01*
X168680332Y-94533264D01*
X168786620Y-94539644D01*
X168992816Y-94658692D01*
X169051485Y-94747550D01*
X169068915Y-94812599D01*
X169062535Y-94918887D01*
X168943488Y-95125084D01*
X168854629Y-95183753D01*
X168789581Y-95201183D01*
X161652298Y-92949986D02*
X161295155Y-93568575D01*
X161182487Y-93668484D01*
X161052389Y-93703343D01*
X160904862Y-93673154D01*
X160822383Y-93625535D01*
X162018323Y-94316011D02*
X161523452Y-94030297D01*
X161770887Y-94173154D02*
X162270887Y-93307128D01*
X162116980Y-93383227D01*
X161986883Y-93418087D01*
X161880594Y-93411707D01*
X162843109Y-94792201D02*
X162348238Y-94506487D01*
X162595674Y-94649344D02*
X163095674Y-93783319D01*
X162941766Y-93859418D01*
X162811669Y-93894277D01*
X162705381Y-93887898D01*
X155774524Y-137416143D02*
X155726905Y-137463762D01*
X155584048Y-137511381D01*
X155488810Y-137511381D01*
X155345953Y-137463762D01*
X155250715Y-137368524D01*
X155203096Y-137273286D01*
X155155477Y-137082810D01*
X155155477Y-136939953D01*
X155203096Y-136749477D01*
X155250715Y-136654239D01*
X155345953Y-136559001D01*
X155488810Y-136511381D01*
X155584048Y-136511381D01*
X155726905Y-136559001D01*
X155774524Y-136606620D01*
D15*
X155304286Y-135978286D02*
X155292381Y-135990191D01*
X155256667Y-136002096D01*
X155232858Y-136002096D01*
X155197143Y-135990191D01*
X155173334Y-135966381D01*
X155161429Y-135942572D01*
X155149524Y-135894953D01*
X155149524Y-135859239D01*
X155161429Y-135811620D01*
X155173334Y-135787810D01*
X155197143Y-135764001D01*
X155232858Y-135752096D01*
X155256667Y-135752096D01*
X155292381Y-135764001D01*
X155304286Y-135775905D01*
X155542381Y-136002096D02*
X155399524Y-136002096D01*
X155470953Y-136002096D02*
X155470953Y-135752096D01*
X155447143Y-135787810D01*
X155423334Y-135811620D01*
X155399524Y-135823524D01*
X155685239Y-135859239D02*
X155661429Y-135847334D01*
X155649524Y-135835429D01*
X155637620Y-135811620D01*
X155637620Y-135799715D01*
X155649524Y-135775905D01*
X155661429Y-135764001D01*
X155685239Y-135752096D01*
X155732858Y-135752096D01*
X155756667Y-135764001D01*
X155768572Y-135775905D01*
X155780477Y-135799715D01*
X155780477Y-135811620D01*
X155768572Y-135835429D01*
X155756667Y-135847334D01*
X155732858Y-135859239D01*
X155685239Y-135859239D01*
X155661429Y-135871143D01*
X155649524Y-135883048D01*
X155637620Y-135906858D01*
X155637620Y-135954477D01*
X155649524Y-135978286D01*
X155661429Y-135990191D01*
X155685239Y-136002096D01*
X155732858Y-136002096D01*
X155756667Y-135990191D01*
X155768572Y-135978286D01*
X155780477Y-135954477D01*
X155780477Y-135906858D01*
X155768572Y-135883048D01*
X155756667Y-135871143D01*
X155732858Y-135859239D01*
D10*
X155774524Y-139406143D02*
X155726905Y-139453762D01*
X155584048Y-139501381D01*
X155488810Y-139501381D01*
X155345953Y-139453762D01*
X155250715Y-139358524D01*
X155203096Y-139263286D01*
X155155477Y-139072810D01*
X155155477Y-138929953D01*
X155203096Y-138739477D01*
X155250715Y-138644239D01*
X155345953Y-138549001D01*
X155488810Y-138501381D01*
X155584048Y-138501381D01*
X155726905Y-138549001D01*
X155774524Y-138596620D01*
D15*
X155304286Y-137968286D02*
X155292381Y-137980191D01*
X155256667Y-137992096D01*
X155232858Y-137992096D01*
X155197143Y-137980191D01*
X155173334Y-137956381D01*
X155161429Y-137932572D01*
X155149524Y-137884953D01*
X155149524Y-137849239D01*
X155161429Y-137801620D01*
X155173334Y-137777810D01*
X155197143Y-137754001D01*
X155232858Y-137742096D01*
X155256667Y-137742096D01*
X155292381Y-137754001D01*
X155304286Y-137765905D01*
X155542381Y-137992096D02*
X155399524Y-137992096D01*
X155470953Y-137992096D02*
X155470953Y-137742096D01*
X155447143Y-137777810D01*
X155423334Y-137801620D01*
X155399524Y-137813524D01*
X155661429Y-137992096D02*
X155709048Y-137992096D01*
X155732858Y-137980191D01*
X155744762Y-137968286D01*
X155768572Y-137932572D01*
X155780477Y-137884953D01*
X155780477Y-137789715D01*
X155768572Y-137765905D01*
X155756667Y-137754001D01*
X155732858Y-137742096D01*
X155685239Y-137742096D01*
X155661429Y-137754001D01*
X155649524Y-137765905D01*
X155637620Y-137789715D01*
X155637620Y-137849239D01*
X155649524Y-137873048D01*
X155661429Y-137884953D01*
X155685239Y-137896858D01*
X155732858Y-137896858D01*
X155756667Y-137884953D01*
X155768572Y-137873048D01*
X155780477Y-137849239D01*
D10*
X148723334Y-140556381D02*
X148247143Y-140556381D01*
X148247143Y-139556381D01*
X149009048Y-140508762D02*
X149151905Y-140556381D01*
X149390001Y-140556381D01*
X149485239Y-140508762D01*
X149532858Y-140461143D01*
X149580477Y-140365905D01*
X149580477Y-140270667D01*
X149532858Y-140175429D01*
X149485239Y-140127810D01*
X149390001Y-140080191D01*
X149199524Y-140032572D01*
X149104286Y-139984953D01*
X149056667Y-139937334D01*
X149009048Y-139842096D01*
X149009048Y-139746858D01*
X149056667Y-139651620D01*
X149104286Y-139604001D01*
X149199524Y-139556381D01*
X149437620Y-139556381D01*
X149580477Y-139604001D01*
X150009048Y-140556381D02*
X150009048Y-139556381D01*
X150342381Y-140270667D01*
X150675715Y-139556381D01*
X150675715Y-140556381D01*
X151199524Y-140556381D02*
X151390001Y-140556381D01*
X151485239Y-140508762D01*
X151532858Y-140461143D01*
X151628096Y-140318286D01*
X151675715Y-140127810D01*
X151675715Y-139746858D01*
X151628096Y-139651620D01*
X151580477Y-139604001D01*
X151485239Y-139556381D01*
X151294762Y-139556381D01*
X151199524Y-139604001D01*
X151151905Y-139651620D01*
X151104286Y-139746858D01*
X151104286Y-139984953D01*
X151151905Y-140080191D01*
X151199524Y-140127810D01*
X151294762Y-140175429D01*
X151485239Y-140175429D01*
X151580477Y-140127810D01*
X151628096Y-140080191D01*
X151675715Y-139984953D01*
X152104286Y-140556381D02*
X152104286Y-139556381D01*
X152342381Y-139556381D01*
X152485239Y-139604001D01*
X152580477Y-139699239D01*
X152628096Y-139794477D01*
X152675715Y-139984953D01*
X152675715Y-140127810D01*
X152628096Y-140318286D01*
X152580477Y-140413524D01*
X152485239Y-140508762D01*
X152342381Y-140556381D01*
X152104286Y-140556381D01*
X153056667Y-140508762D02*
X153199524Y-140556381D01*
X153437620Y-140556381D01*
X153532858Y-140508762D01*
X153580477Y-140461143D01*
X153628096Y-140365905D01*
X153628096Y-140270667D01*
X153580477Y-140175429D01*
X153532858Y-140127810D01*
X153437620Y-140080191D01*
X153247143Y-140032572D01*
X153151905Y-139984953D01*
X153104286Y-139937334D01*
X153056667Y-139842096D01*
X153056667Y-139746858D01*
X153104286Y-139651620D01*
X153151905Y-139604001D01*
X153247143Y-139556381D01*
X153485239Y-139556381D01*
X153628096Y-139604001D01*
X154580477Y-140556381D02*
X154009048Y-140556381D01*
X154294762Y-140556381D02*
X154294762Y-139556381D01*
X154199524Y-139699239D01*
X154104286Y-139794477D01*
X154009048Y-139842096D01*
X150628096Y-134056381D02*
X150628096Y-134865905D01*
X150675715Y-134961143D01*
X150723334Y-135008762D01*
X150818572Y-135056381D01*
X151009048Y-135056381D01*
X151104286Y-135008762D01*
X151151905Y-134961143D01*
X151199524Y-134865905D01*
X151199524Y-134056381D01*
X152104286Y-134056381D02*
X151913810Y-134056381D01*
X151818572Y-134104001D01*
X151770953Y-134151620D01*
X151675715Y-134294477D01*
X151628096Y-134484953D01*
X151628096Y-134865905D01*
X151675715Y-134961143D01*
X151723334Y-135008762D01*
X151818572Y-135056381D01*
X152009048Y-135056381D01*
X152104286Y-135008762D01*
X152151905Y-134961143D01*
X152199524Y-134865905D01*
X152199524Y-134627810D01*
X152151905Y-134532572D01*
X152104286Y-134484953D01*
X152009048Y-134437334D01*
X151818572Y-134437334D01*
X151723334Y-134484953D01*
X151675715Y-134532572D01*
X151628096Y-134627810D01*
M02*
