G04 #@! TF.GenerationSoftware,KiCad,Pcbnew,5.1.0-060a0da~80~ubuntu18.04.1*
G04 #@! TF.CreationDate,2019-05-28T03:43:47+02:00*
G04 #@! TF.ProjectId,TinyFPGA-BX,54696e79-4650-4474-912d-42582e6b6963,rev?*
G04 #@! TF.SameCoordinates,Original*
G04 #@! TF.FileFunction,Soldermask,Top*
G04 #@! TF.FilePolarity,Negative*
%FSLAX46Y46*%
G04 Gerber Fmt 4.6, Leading zero omitted, Abs format (unit mm)*
G04 Created by KiCad (PCBNEW 5.1.0-060a0da~80~ubuntu18.04.1) date 2019-05-28 03:43:47*
%MOMM*%
%LPD*%
G04 APERTURE LIST*
%ADD10O,0.200000X0.435000*%
%ADD11O,0.200000X0.430000*%
%ADD12C,0.300000*%
%ADD13O,0.430000X0.200000*%
%ADD14O,0.435000X0.200000*%
%ADD15R,1.800000X1.800000*%
%ADD16O,1.800000X1.800000*%
%ADD17R,1.650000X0.700000*%
%ADD18R,0.700000X0.500000*%
%ADD19R,0.850000X0.900000*%
%ADD20R,0.600000X1.000000*%
%ADD21R,0.900000X0.900000*%
%ADD22R,0.500000X1.450000*%
%ADD23R,2.200000X1.700000*%
%ADD24R,1.900000X2.000000*%
%ADD25R,2.000000X2.000000*%
%ADD26R,1.000000X1.100000*%
%ADD27R,0.550000X1.050000*%
%ADD28R,0.500000X0.700000*%
%ADD29C,1.800000*%
%ADD30R,0.600000X0.700000*%
%ADD31R,0.700000X0.480000*%
%ADD32R,0.700000X0.600000*%
%ADD33R,1.150000X0.750000*%
%ADD34C,1.800000*%
%ADD35C,0.100000*%
%ADD36C,0.690000*%
%ADD37R,0.330000X0.450000*%
%ADD38R,0.450000X0.330000*%
G04 APERTURE END LIST*
D10*
X149530000Y-112514000D03*
D11*
X149930000Y-112514000D03*
D10*
X150330000Y-112514000D03*
X150730000Y-112514000D03*
D12*
X151130000Y-112514000D03*
D10*
X151530000Y-112514000D03*
X151930000Y-112514000D03*
X152330000Y-112514000D03*
X152730000Y-112514000D03*
D13*
X149530000Y-112914000D03*
D12*
X149930000Y-112914000D03*
X150330000Y-112914000D03*
X150730000Y-112914000D03*
X151130000Y-112914000D03*
X151530000Y-112914000D03*
X151930000Y-112914000D03*
X152330000Y-112914000D03*
X152730000Y-112914000D03*
D14*
X149530000Y-113314000D03*
D12*
X149930000Y-113314000D03*
X150330000Y-113314000D03*
X150730000Y-113314000D03*
X151130000Y-113314000D03*
X151530000Y-113314000D03*
X151930000Y-113314000D03*
X152330000Y-113314000D03*
D14*
X152730000Y-113314000D03*
X149530000Y-113714000D03*
D12*
X149930000Y-113714000D03*
X150330000Y-113714000D03*
X150730000Y-113714000D03*
X151130000Y-113714000D03*
X151530000Y-113714000D03*
X151930000Y-113714000D03*
X152330000Y-113714000D03*
D14*
X152730000Y-113714000D03*
X149530000Y-114114000D03*
D12*
X149930000Y-114114000D03*
X150330000Y-114114000D03*
X150730000Y-114114000D03*
X151130000Y-114114000D03*
X151530000Y-114114000D03*
X151930000Y-114114000D03*
X152330000Y-114114000D03*
D14*
X152730000Y-114114000D03*
D12*
X149530000Y-114514000D03*
X149930000Y-114514000D03*
X150330000Y-114514000D03*
X150730000Y-114514000D03*
X151130000Y-114514000D03*
X151530000Y-114514000D03*
X151930000Y-114514000D03*
X152330000Y-114514000D03*
D14*
X152730000Y-114514000D03*
X149530000Y-114914000D03*
D12*
X149930000Y-114914000D03*
X150330000Y-114914000D03*
X150730000Y-114914000D03*
X151130000Y-114914000D03*
X151530000Y-114914000D03*
X151930000Y-114914000D03*
X152330000Y-114914000D03*
D14*
X152730000Y-114914000D03*
D13*
X149530000Y-115314000D03*
D12*
X149930000Y-115314000D03*
X150330000Y-115314000D03*
X150730000Y-115314000D03*
X151130000Y-115314000D03*
X151530000Y-115314000D03*
X151930000Y-115314000D03*
X152330000Y-115314000D03*
D13*
X152730000Y-115314000D03*
D10*
X149530000Y-115714000D03*
D11*
X149930000Y-115714000D03*
D10*
X150330000Y-115714000D03*
X150730000Y-115714000D03*
X151130000Y-115714000D03*
X151530000Y-115714000D03*
X151930000Y-115714000D03*
D11*
X152330000Y-115714000D03*
D10*
X152730000Y-115714000D03*
D15*
X143516000Y-97799100D03*
D16*
X143516000Y-100339100D03*
X143516000Y-102879100D03*
X143516000Y-105419100D03*
X143516000Y-107959100D03*
X143516000Y-110499100D03*
X143516000Y-113039100D03*
X143516000Y-115579100D03*
X143516000Y-118119100D03*
X143516000Y-120659100D03*
X143516000Y-123199100D03*
X143516000Y-125739100D03*
X143516000Y-128279100D03*
X143516000Y-130819100D03*
D17*
X148436000Y-122353100D03*
X148436000Y-123623100D03*
X148436000Y-124893100D03*
X148436000Y-126163100D03*
X153836000Y-126163100D03*
X153836000Y-124893100D03*
X153836000Y-123623100D03*
X153836000Y-122353100D03*
D18*
X154536000Y-129923100D03*
X154536000Y-130823100D03*
D19*
X151736000Y-119373100D03*
X151736000Y-120873100D03*
X156036000Y-101673100D03*
X156036000Y-100173100D03*
D20*
X154636000Y-102423100D03*
X153136000Y-102423100D03*
D18*
X146183000Y-105223100D03*
X146183000Y-106123100D03*
X148215000Y-105223100D03*
X148215000Y-106123100D03*
D21*
X148215000Y-102587100D03*
X148215000Y-104187100D03*
X146183000Y-102587100D03*
X146183000Y-104187100D03*
D22*
X152436000Y-100648100D03*
X151786000Y-100648100D03*
X151136000Y-100648100D03*
X150486000Y-100648100D03*
X149836000Y-100648100D03*
D23*
X154236000Y-100523100D03*
X148036000Y-100523100D03*
D24*
X154936000Y-97973100D03*
X147336000Y-97973100D03*
D25*
X152336000Y-97973100D03*
X149936000Y-97973100D03*
D26*
X149086000Y-108423100D03*
X149086000Y-110323100D03*
X146986000Y-110323100D03*
X146986000Y-108423100D03*
D27*
X153636000Y-103873100D03*
X152686000Y-103873100D03*
X154586000Y-103873100D03*
X152686000Y-106473100D03*
X154586000Y-106473100D03*
D28*
X146450000Y-126954000D03*
X147350000Y-126954000D03*
D29*
X158756000Y-97799100D03*
D16*
X158756000Y-100339100D03*
X158756000Y-102879100D03*
X158756000Y-105419100D03*
X158756000Y-107959100D03*
X158756000Y-110499100D03*
X158756000Y-113039100D03*
X158756000Y-115579100D03*
X158756000Y-118119100D03*
X158756000Y-120659100D03*
X158756000Y-123199100D03*
X158756000Y-125739100D03*
X158756000Y-128279100D03*
X158756000Y-130819100D03*
D30*
X150555000Y-117864000D03*
X150555000Y-118964000D03*
D31*
X153930000Y-115914000D03*
X153930000Y-115014000D03*
D32*
X153830000Y-114164000D03*
X154930000Y-114164000D03*
D30*
X151130000Y-111514000D03*
X151130000Y-110414000D03*
D32*
X153555000Y-112439000D03*
X154655000Y-112439000D03*
X147986000Y-114923100D03*
X146886000Y-114923100D03*
X147986000Y-114123100D03*
X146886000Y-114123100D03*
X149069800Y-107349500D03*
X147969800Y-107349500D03*
D30*
X153255000Y-116964000D03*
X153255000Y-118064000D03*
X148836000Y-117273100D03*
X148836000Y-118373100D03*
X151736000Y-117123100D03*
X151736000Y-118223100D03*
D18*
X152936000Y-120873100D03*
X152936000Y-119973100D03*
D30*
X155336000Y-122373100D03*
X155336000Y-123473100D03*
D18*
X149636000Y-102273100D03*
X149636000Y-103173100D03*
X150636000Y-103173100D03*
X150636000Y-102273100D03*
X151636000Y-103173100D03*
X151636000Y-102273100D03*
D27*
X153936000Y-107623100D03*
X153286000Y-107623100D03*
X154586000Y-107623100D03*
X153286000Y-109823100D03*
X154586000Y-109823100D03*
D32*
X155386000Y-109923100D03*
X156486000Y-109923100D03*
X155386000Y-103923100D03*
X156486000Y-103923100D03*
X155386000Y-106323100D03*
X156486000Y-106323100D03*
X155386000Y-107523100D03*
X156486000Y-107523100D03*
D33*
X149061000Y-128648100D03*
X153211000Y-128648100D03*
X153211000Y-130798100D03*
X149061000Y-130798100D03*
D28*
X154690000Y-127064000D03*
X155590000Y-127064000D03*
D29*
X133402741Y-98952042D03*
D34*
X133402741Y-98952042D02*
X133402741Y-98952042D01*
D29*
X135348494Y-97319361D03*
D34*
X135348494Y-97319361D02*
X135348494Y-97319361D01*
D29*
X137294247Y-95686681D03*
D34*
X137294247Y-95686681D02*
X137294247Y-95686681D01*
D29*
X139240000Y-94054000D03*
D35*
G36*
X137972051Y-93943069D02*
G01*
X139350931Y-92786051D01*
X140507949Y-94164931D01*
X139129069Y-95321949D01*
X137972051Y-93943069D01*
X137972051Y-93943069D01*
G37*
D29*
X143400000Y-136104000D03*
D34*
X143400000Y-136104000D02*
X143400000Y-136104000D01*
D29*
X141200295Y-134834000D03*
D34*
X141200295Y-134834000D02*
X141200295Y-134834000D01*
D29*
X139000591Y-133564000D03*
D34*
X139000591Y-133564000D02*
X139000591Y-133564000D01*
D29*
X136800886Y-132294000D03*
D35*
G36*
X137130309Y-133523423D02*
G01*
X135571463Y-132623423D01*
X136471463Y-131064577D01*
X138030309Y-131964577D01*
X137130309Y-133523423D01*
X137130309Y-133523423D01*
G37*
D15*
X174270000Y-110164000D03*
D16*
X174270000Y-112704000D03*
X174270000Y-115244000D03*
X174270000Y-117784000D03*
X128240000Y-117904000D03*
X128240000Y-115364000D03*
X128240000Y-112824000D03*
D15*
X128240000Y-110284000D03*
D29*
X163492741Y-133872042D03*
D34*
X163492741Y-133872042D02*
X163492741Y-133872042D01*
D29*
X165438494Y-132239361D03*
D34*
X165438494Y-132239361D02*
X165438494Y-132239361D01*
D29*
X167384247Y-130606681D03*
D34*
X167384247Y-130606681D02*
X167384247Y-130606681D01*
D29*
X169330000Y-128974000D03*
D35*
G36*
X168062051Y-128863069D02*
G01*
X169440931Y-127706051D01*
X170597949Y-129084931D01*
X169219069Y-130241949D01*
X168062051Y-128863069D01*
X168062051Y-128863069D01*
G37*
D29*
X158780000Y-91924000D03*
D35*
G36*
X159109423Y-93153423D02*
G01*
X157550577Y-92253423D01*
X158450577Y-90694577D01*
X160009423Y-91594577D01*
X159109423Y-93153423D01*
X159109423Y-93153423D01*
G37*
D29*
X160979705Y-93194000D03*
D34*
X160979705Y-93194000D02*
X160979705Y-93194000D01*
D29*
X163179409Y-94464000D03*
D34*
X163179409Y-94464000D02*
X163179409Y-94464000D01*
D29*
X165379114Y-95734000D03*
D34*
X165379114Y-95734000D02*
X165379114Y-95734000D01*
D35*
G36*
X155169409Y-135519832D02*
G01*
X155186154Y-135522316D01*
X155202575Y-135526429D01*
X155218514Y-135532132D01*
X155233817Y-135539370D01*
X155248337Y-135548072D01*
X155261934Y-135558157D01*
X155274477Y-135569525D01*
X155285845Y-135582068D01*
X155295930Y-135595665D01*
X155304632Y-135610185D01*
X155311870Y-135625488D01*
X155317573Y-135641427D01*
X155321686Y-135657848D01*
X155324170Y-135674593D01*
X155325001Y-135691501D01*
X155325001Y-136086501D01*
X155324170Y-136103409D01*
X155321686Y-136120154D01*
X155317573Y-136136575D01*
X155311870Y-136152514D01*
X155304632Y-136167817D01*
X155295930Y-136182337D01*
X155285845Y-136195934D01*
X155274477Y-136208477D01*
X155261934Y-136219845D01*
X155248337Y-136229930D01*
X155233817Y-136238632D01*
X155218514Y-136245870D01*
X155202575Y-136251573D01*
X155186154Y-136255686D01*
X155169409Y-136258170D01*
X155152501Y-136259001D01*
X154807501Y-136259001D01*
X154790593Y-136258170D01*
X154773848Y-136255686D01*
X154757427Y-136251573D01*
X154741488Y-136245870D01*
X154726185Y-136238632D01*
X154711665Y-136229930D01*
X154698068Y-136219845D01*
X154685525Y-136208477D01*
X154674157Y-136195934D01*
X154664072Y-136182337D01*
X154655370Y-136167817D01*
X154648132Y-136152514D01*
X154642429Y-136136575D01*
X154638316Y-136120154D01*
X154635832Y-136103409D01*
X154635001Y-136086501D01*
X154635001Y-135691501D01*
X154635832Y-135674593D01*
X154638316Y-135657848D01*
X154642429Y-135641427D01*
X154648132Y-135625488D01*
X154655370Y-135610185D01*
X154664072Y-135595665D01*
X154674157Y-135582068D01*
X154685525Y-135569525D01*
X154698068Y-135558157D01*
X154711665Y-135548072D01*
X154726185Y-135539370D01*
X154741488Y-135532132D01*
X154757427Y-135526429D01*
X154773848Y-135522316D01*
X154790593Y-135519832D01*
X154807501Y-135519001D01*
X155152501Y-135519001D01*
X155169409Y-135519832D01*
X155169409Y-135519832D01*
G37*
D36*
X154980001Y-135889001D03*
D35*
G36*
X156139409Y-135519832D02*
G01*
X156156154Y-135522316D01*
X156172575Y-135526429D01*
X156188514Y-135532132D01*
X156203817Y-135539370D01*
X156218337Y-135548072D01*
X156231934Y-135558157D01*
X156244477Y-135569525D01*
X156255845Y-135582068D01*
X156265930Y-135595665D01*
X156274632Y-135610185D01*
X156281870Y-135625488D01*
X156287573Y-135641427D01*
X156291686Y-135657848D01*
X156294170Y-135674593D01*
X156295001Y-135691501D01*
X156295001Y-136086501D01*
X156294170Y-136103409D01*
X156291686Y-136120154D01*
X156287573Y-136136575D01*
X156281870Y-136152514D01*
X156274632Y-136167817D01*
X156265930Y-136182337D01*
X156255845Y-136195934D01*
X156244477Y-136208477D01*
X156231934Y-136219845D01*
X156218337Y-136229930D01*
X156203817Y-136238632D01*
X156188514Y-136245870D01*
X156172575Y-136251573D01*
X156156154Y-136255686D01*
X156139409Y-136258170D01*
X156122501Y-136259001D01*
X155777501Y-136259001D01*
X155760593Y-136258170D01*
X155743848Y-136255686D01*
X155727427Y-136251573D01*
X155711488Y-136245870D01*
X155696185Y-136238632D01*
X155681665Y-136229930D01*
X155668068Y-136219845D01*
X155655525Y-136208477D01*
X155644157Y-136195934D01*
X155634072Y-136182337D01*
X155625370Y-136167817D01*
X155618132Y-136152514D01*
X155612429Y-136136575D01*
X155608316Y-136120154D01*
X155605832Y-136103409D01*
X155605001Y-136086501D01*
X155605001Y-135691501D01*
X155605832Y-135674593D01*
X155608316Y-135657848D01*
X155612429Y-135641427D01*
X155618132Y-135625488D01*
X155625370Y-135610185D01*
X155634072Y-135595665D01*
X155644157Y-135582068D01*
X155655525Y-135569525D01*
X155668068Y-135558157D01*
X155681665Y-135548072D01*
X155696185Y-135539370D01*
X155711488Y-135532132D01*
X155727427Y-135526429D01*
X155743848Y-135522316D01*
X155760593Y-135519832D01*
X155777501Y-135519001D01*
X156122501Y-135519001D01*
X156139409Y-135519832D01*
X156139409Y-135519832D01*
G37*
D36*
X155950001Y-135889001D03*
D35*
G36*
X156139409Y-137509832D02*
G01*
X156156154Y-137512316D01*
X156172575Y-137516429D01*
X156188514Y-137522132D01*
X156203817Y-137529370D01*
X156218337Y-137538072D01*
X156231934Y-137548157D01*
X156244477Y-137559525D01*
X156255845Y-137572068D01*
X156265930Y-137585665D01*
X156274632Y-137600185D01*
X156281870Y-137615488D01*
X156287573Y-137631427D01*
X156291686Y-137647848D01*
X156294170Y-137664593D01*
X156295001Y-137681501D01*
X156295001Y-138076501D01*
X156294170Y-138093409D01*
X156291686Y-138110154D01*
X156287573Y-138126575D01*
X156281870Y-138142514D01*
X156274632Y-138157817D01*
X156265930Y-138172337D01*
X156255845Y-138185934D01*
X156244477Y-138198477D01*
X156231934Y-138209845D01*
X156218337Y-138219930D01*
X156203817Y-138228632D01*
X156188514Y-138235870D01*
X156172575Y-138241573D01*
X156156154Y-138245686D01*
X156139409Y-138248170D01*
X156122501Y-138249001D01*
X155777501Y-138249001D01*
X155760593Y-138248170D01*
X155743848Y-138245686D01*
X155727427Y-138241573D01*
X155711488Y-138235870D01*
X155696185Y-138228632D01*
X155681665Y-138219930D01*
X155668068Y-138209845D01*
X155655525Y-138198477D01*
X155644157Y-138185934D01*
X155634072Y-138172337D01*
X155625370Y-138157817D01*
X155618132Y-138142514D01*
X155612429Y-138126575D01*
X155608316Y-138110154D01*
X155605832Y-138093409D01*
X155605001Y-138076501D01*
X155605001Y-137681501D01*
X155605832Y-137664593D01*
X155608316Y-137647848D01*
X155612429Y-137631427D01*
X155618132Y-137615488D01*
X155625370Y-137600185D01*
X155634072Y-137585665D01*
X155644157Y-137572068D01*
X155655525Y-137559525D01*
X155668068Y-137548157D01*
X155681665Y-137538072D01*
X155696185Y-137529370D01*
X155711488Y-137522132D01*
X155727427Y-137516429D01*
X155743848Y-137512316D01*
X155760593Y-137509832D01*
X155777501Y-137509001D01*
X156122501Y-137509001D01*
X156139409Y-137509832D01*
X156139409Y-137509832D01*
G37*
D36*
X155950001Y-137879001D03*
D35*
G36*
X155169409Y-137509832D02*
G01*
X155186154Y-137512316D01*
X155202575Y-137516429D01*
X155218514Y-137522132D01*
X155233817Y-137529370D01*
X155248337Y-137538072D01*
X155261934Y-137548157D01*
X155274477Y-137559525D01*
X155285845Y-137572068D01*
X155295930Y-137585665D01*
X155304632Y-137600185D01*
X155311870Y-137615488D01*
X155317573Y-137631427D01*
X155321686Y-137647848D01*
X155324170Y-137664593D01*
X155325001Y-137681501D01*
X155325001Y-138076501D01*
X155324170Y-138093409D01*
X155321686Y-138110154D01*
X155317573Y-138126575D01*
X155311870Y-138142514D01*
X155304632Y-138157817D01*
X155295930Y-138172337D01*
X155285845Y-138185934D01*
X155274477Y-138198477D01*
X155261934Y-138209845D01*
X155248337Y-138219930D01*
X155233817Y-138228632D01*
X155218514Y-138235870D01*
X155202575Y-138241573D01*
X155186154Y-138245686D01*
X155169409Y-138248170D01*
X155152501Y-138249001D01*
X154807501Y-138249001D01*
X154790593Y-138248170D01*
X154773848Y-138245686D01*
X154757427Y-138241573D01*
X154741488Y-138235870D01*
X154726185Y-138228632D01*
X154711665Y-138219930D01*
X154698068Y-138209845D01*
X154685525Y-138198477D01*
X154674157Y-138185934D01*
X154664072Y-138172337D01*
X154655370Y-138157817D01*
X154648132Y-138142514D01*
X154642429Y-138126575D01*
X154638316Y-138110154D01*
X154635832Y-138093409D01*
X154635001Y-138076501D01*
X154635001Y-137681501D01*
X154635832Y-137664593D01*
X154638316Y-137647848D01*
X154642429Y-137631427D01*
X154648132Y-137615488D01*
X154655370Y-137600185D01*
X154664072Y-137585665D01*
X154674157Y-137572068D01*
X154685525Y-137559525D01*
X154698068Y-137548157D01*
X154711665Y-137538072D01*
X154726185Y-137529370D01*
X154741488Y-137522132D01*
X154757427Y-137516429D01*
X154773848Y-137512316D01*
X154790593Y-137509832D01*
X154807501Y-137509001D01*
X155152501Y-137509001D01*
X155169409Y-137509832D01*
X155169409Y-137509832D01*
G37*
D36*
X154980001Y-137879001D03*
D37*
X149885001Y-136079001D03*
D38*
X149915001Y-136659001D03*
X152865001Y-136659001D03*
X149915001Y-137089001D03*
X152865001Y-137089001D03*
X149915001Y-137519001D03*
X152865001Y-137519001D03*
X149915001Y-137949001D03*
X152865001Y-137949001D03*
D37*
X150315001Y-136079001D03*
X150745001Y-136079001D03*
X151175001Y-136079001D03*
X151605001Y-136079001D03*
X152035001Y-136079001D03*
X152465001Y-136079001D03*
X152895001Y-136079001D03*
X149885001Y-138529001D03*
X150315001Y-138529001D03*
X150745001Y-138529001D03*
X151175001Y-138529001D03*
X151605001Y-138529001D03*
X152035001Y-138529001D03*
X152465001Y-138529001D03*
X152895001Y-138529001D03*
M02*
