G04 #@! TF.GenerationSoftware,KiCad,Pcbnew,5.1.0-060a0da~80~ubuntu18.04.1*
G04 #@! TF.CreationDate,2019-05-28T03:43:47+02:00*
G04 #@! TF.ProjectId,TinyFPGA-BX,54696e79-4650-4474-912d-42582e6b6963,rev?*
G04 #@! TF.SameCoordinates,Original*
G04 #@! TF.FileFunction,Copper,L2,Inr*
G04 #@! TF.FilePolarity,Positive*
%FSLAX46Y46*%
G04 Gerber Fmt 4.6, Leading zero omitted, Abs format (unit mm)*
G04 Created by KiCad (PCBNEW 5.1.0-060a0da~80~ubuntu18.04.1) date 2019-05-28 03:43:47*
%MOMM*%
%LPD*%
G04 APERTURE LIST*
%ADD10R,1.700000X1.700000*%
%ADD11O,1.700000X1.700000*%
%ADD12C,1.700000*%
%ADD13C,1.700000*%
%ADD14C,0.100000*%
%ADD15C,0.500000*%
%ADD16C,0.600000*%
%ADD17C,0.200000*%
G04 APERTURE END LIST*
D10*
X143516000Y-97799100D03*
D11*
X143516000Y-100339100D03*
X143516000Y-102879100D03*
X143516000Y-105419100D03*
X143516000Y-107959100D03*
X143516000Y-110499100D03*
X143516000Y-113039100D03*
X143516000Y-115579100D03*
X143516000Y-118119100D03*
X143516000Y-120659100D03*
X143516000Y-123199100D03*
X143516000Y-125739100D03*
X143516000Y-128279100D03*
X143516000Y-130819100D03*
D12*
X158756000Y-97799100D03*
D11*
X158756000Y-100339100D03*
X158756000Y-102879100D03*
X158756000Y-105419100D03*
X158756000Y-107959100D03*
X158756000Y-110499100D03*
X158756000Y-113039100D03*
X158756000Y-115579100D03*
X158756000Y-118119100D03*
X158756000Y-120659100D03*
X158756000Y-123199100D03*
X158756000Y-125739100D03*
X158756000Y-128279100D03*
X158756000Y-130819100D03*
D12*
X133402741Y-98952042D03*
D13*
X133402741Y-98952042D02*
X133402741Y-98952042D01*
D12*
X135348494Y-97319361D03*
D13*
X135348494Y-97319361D02*
X135348494Y-97319361D01*
D12*
X137294247Y-95686681D03*
D13*
X137294247Y-95686681D02*
X137294247Y-95686681D01*
D12*
X139240000Y-94054000D03*
D14*
G36*
X138042493Y-93949232D02*
G01*
X139344768Y-92856493D01*
X140437507Y-94158768D01*
X139135232Y-95251507D01*
X138042493Y-93949232D01*
X138042493Y-93949232D01*
G37*
D12*
X143400000Y-136104000D03*
D13*
X143400000Y-136104000D02*
X143400000Y-136104000D01*
D12*
X141200295Y-134834000D03*
D13*
X141200295Y-134834000D02*
X141200295Y-134834000D01*
D12*
X139000591Y-133564000D03*
D13*
X139000591Y-133564000D02*
X139000591Y-133564000D01*
D12*
X136800886Y-132294000D03*
D14*
G36*
X137112008Y-133455122D02*
G01*
X135639764Y-132605122D01*
X136489764Y-131132878D01*
X137962008Y-131982878D01*
X137112008Y-133455122D01*
X137112008Y-133455122D01*
G37*
D10*
X174270000Y-110164000D03*
D11*
X174270000Y-112704000D03*
X174270000Y-115244000D03*
X174270000Y-117784000D03*
X128240000Y-117904000D03*
X128240000Y-115364000D03*
X128240000Y-112824000D03*
D10*
X128240000Y-110284000D03*
D12*
X163492741Y-133872042D03*
D13*
X163492741Y-133872042D02*
X163492741Y-133872042D01*
D12*
X165438494Y-132239361D03*
D13*
X165438494Y-132239361D02*
X165438494Y-132239361D01*
D12*
X167384247Y-130606681D03*
D13*
X167384247Y-130606681D02*
X167384247Y-130606681D01*
D12*
X169330000Y-128974000D03*
D14*
G36*
X168132493Y-128869232D02*
G01*
X169434768Y-127776493D01*
X170527507Y-129078768D01*
X169225232Y-130171507D01*
X168132493Y-128869232D01*
X168132493Y-128869232D01*
G37*
D12*
X158780000Y-91924000D03*
D14*
G36*
X159091122Y-93085122D02*
G01*
X157618878Y-92235122D01*
X158468878Y-90762878D01*
X159941122Y-91612878D01*
X159091122Y-93085122D01*
X159091122Y-93085122D01*
G37*
D12*
X160979705Y-93194000D03*
D13*
X160979705Y-93194000D02*
X160979705Y-93194000D01*
D12*
X163179409Y-94464000D03*
D13*
X163179409Y-94464000D02*
X163179409Y-94464000D01*
D12*
X165379114Y-95734000D03*
D13*
X165379114Y-95734000D02*
X165379114Y-95734000D01*
D15*
X152040000Y-137824000D03*
X149190656Y-138446512D03*
X149170000Y-136214000D03*
X146730000Y-115614000D03*
X146989800Y-109484160D03*
X155210442Y-109453519D03*
X152936000Y-119549746D03*
X148776000Y-114523100D03*
X154256679Y-114164543D03*
X154956000Y-125739100D03*
X148071395Y-129506660D03*
X151857602Y-123582988D03*
X149490990Y-124235309D03*
X156167973Y-121673163D03*
X148486000Y-121673100D03*
X155392091Y-114252270D03*
X155441057Y-130819711D03*
X150430000Y-130039000D03*
X155325547Y-124152814D03*
X149434200Y-126780500D03*
X156661212Y-109516824D03*
X146657393Y-106499254D03*
X147737090Y-106499254D03*
X148595141Y-99316840D03*
X147947031Y-108876818D03*
X156316527Y-99446101D03*
X149802581Y-99608091D03*
X146186323Y-114148423D03*
X149048427Y-129220894D03*
X151883356Y-128295519D03*
X156494552Y-105753338D03*
X156485747Y-103422005D03*
X156136000Y-97973100D03*
X153586000Y-97973100D03*
X148686000Y-97973100D03*
X146136000Y-97973100D03*
X156486000Y-106923100D03*
X151736000Y-110423100D03*
X146186000Y-114923100D03*
X150928900Y-114263000D03*
X153635806Y-104574084D03*
X153936000Y-106823100D03*
X155250560Y-112106867D03*
X154213320Y-119051509D03*
X148836380Y-119095520D03*
X150555000Y-119514000D03*
X154080000Y-127054000D03*
X145700000Y-126834000D03*
D16*
X152070000Y-106474000D03*
X153720000Y-108724000D03*
D15*
X155790815Y-122266783D03*
X148326870Y-117269113D03*
X149104000Y-109356100D03*
X148211000Y-101873100D03*
X149074074Y-106848306D03*
X155386000Y-105748100D03*
X151515987Y-111048068D03*
X153929411Y-112064588D03*
X154491904Y-116406962D03*
X153813445Y-117194042D03*
X150930000Y-117239000D03*
X155087197Y-129924525D03*
X151020000Y-135304000D03*
X150567069Y-124384250D03*
X152026849Y-126180918D03*
X148981126Y-101693479D03*
X151185880Y-104035223D03*
X150008585Y-104031344D03*
X148650000Y-137549001D03*
X150980000Y-137814000D03*
X154817921Y-116950448D03*
X147326000Y-102879100D03*
X155924815Y-113976192D03*
X154277348Y-118048756D03*
X147793302Y-119150067D03*
X155366793Y-121014144D03*
X149696271Y-120639272D03*
X155582044Y-124754000D03*
X152130000Y-122789000D03*
X147830000Y-124294000D03*
X146326489Y-129562439D03*
X149906000Y-123199100D03*
X147433615Y-118223846D03*
X153312157Y-135046157D03*
X154250000Y-136394000D03*
X150530000Y-136674000D03*
X154200000Y-137824000D03*
D14*
X157755999Y-132108001D02*
X152040000Y-137824000D01*
X158756000Y-115579100D02*
X157755999Y-116579101D01*
X157755999Y-116579101D02*
X157755999Y-132108001D01*
X150430000Y-130039000D02*
X151210711Y-130819711D01*
X151210711Y-130819711D02*
X155441057Y-130819711D01*
X149048427Y-129220894D02*
X149611894Y-129220894D01*
X149611894Y-129220894D02*
X150430000Y-130039000D01*
X158756000Y-118119100D02*
X160230000Y-119593100D01*
X160230000Y-119593100D02*
X160230000Y-133804000D01*
X151390001Y-138224001D02*
X150980000Y-137814000D01*
X160230000Y-133804000D02*
X155809999Y-138224001D01*
X155809999Y-138224001D02*
X151390001Y-138224001D01*
D17*
G36*
X158039193Y-91004698D02*
G01*
X157401325Y-92109518D01*
X157381001Y-92154374D01*
X157369818Y-92202333D01*
X157368207Y-92251552D01*
X157376229Y-92300140D01*
X157393576Y-92346229D01*
X157419581Y-92388048D01*
X157453244Y-92423991D01*
X157493274Y-92452675D01*
X158965518Y-93302675D01*
X159010374Y-93322999D01*
X159058333Y-93334182D01*
X159107552Y-93335793D01*
X159156140Y-93327771D01*
X159202229Y-93310424D01*
X159244048Y-93284419D01*
X159279991Y-93250756D01*
X159308675Y-93210726D01*
X160158675Y-91738482D01*
X160158834Y-91738131D01*
X161171316Y-92107550D01*
X161033741Y-92094000D01*
X160925669Y-92094000D01*
X160764067Y-92109916D01*
X160556717Y-92172816D01*
X160365621Y-92274958D01*
X160198124Y-92412419D01*
X160060663Y-92579916D01*
X159958521Y-92771012D01*
X159895621Y-92978362D01*
X159874383Y-93194000D01*
X159895621Y-93409638D01*
X159958521Y-93616988D01*
X160060663Y-93808084D01*
X160198124Y-93975581D01*
X160365621Y-94113042D01*
X160556717Y-94215184D01*
X160764067Y-94278084D01*
X160925669Y-94294000D01*
X161033741Y-94294000D01*
X161195343Y-94278084D01*
X161402693Y-94215184D01*
X161593789Y-94113042D01*
X161761286Y-93975581D01*
X161898747Y-93808084D01*
X162000889Y-93616988D01*
X162063789Y-93409638D01*
X162085027Y-93194000D01*
X162063789Y-92978362D01*
X162000889Y-92771012D01*
X161898747Y-92579916D01*
X161761286Y-92412419D01*
X161593789Y-92274958D01*
X161515608Y-92233170D01*
X163134981Y-92824022D01*
X166019009Y-94703613D01*
X168567771Y-96983561D01*
X171608105Y-100651897D01*
X173178434Y-103279060D01*
X174215949Y-105998020D01*
X175287138Y-109127756D01*
X175259564Y-109105127D01*
X175216134Y-109081913D01*
X175169008Y-109067618D01*
X175120000Y-109062791D01*
X173420000Y-109062791D01*
X173370992Y-109067618D01*
X173323866Y-109081913D01*
X173280436Y-109105127D01*
X173242368Y-109136368D01*
X173211127Y-109174436D01*
X173187913Y-109217866D01*
X173173618Y-109264992D01*
X173168791Y-109314000D01*
X173168791Y-111014000D01*
X173173618Y-111063008D01*
X173187913Y-111110134D01*
X173211127Y-111153564D01*
X173242368Y-111191632D01*
X173280436Y-111222873D01*
X173323866Y-111246087D01*
X173370992Y-111260382D01*
X173420000Y-111265209D01*
X175120000Y-111265209D01*
X175169008Y-111260382D01*
X175216134Y-111246087D01*
X175259564Y-111222873D01*
X175297632Y-111191632D01*
X175328873Y-111153564D01*
X175352087Y-111110134D01*
X175366382Y-111063008D01*
X175371209Y-111014000D01*
X175371209Y-109397138D01*
X175634711Y-110913783D01*
X175787812Y-112207323D01*
X175863904Y-114144000D01*
X175826307Y-115100907D01*
X175548368Y-118063910D01*
X175208788Y-119771096D01*
X174167124Y-123066035D01*
X172233753Y-126872981D01*
X170770442Y-129019171D01*
X170767089Y-129003228D01*
X170747749Y-128957939D01*
X170719944Y-128917294D01*
X169627205Y-127615019D01*
X169592006Y-127580579D01*
X169550763Y-127553668D01*
X169505064Y-127535320D01*
X169456662Y-127526240D01*
X169407420Y-127526777D01*
X169359228Y-127536911D01*
X169313939Y-127556251D01*
X169273294Y-127584056D01*
X167971019Y-128676795D01*
X167936579Y-128711994D01*
X167909668Y-128753237D01*
X167891320Y-128798936D01*
X167882240Y-128847338D01*
X167882777Y-128896580D01*
X167892911Y-128944772D01*
X167912251Y-128990061D01*
X167940056Y-129030706D01*
X169032795Y-130332981D01*
X169067994Y-130367421D01*
X169109237Y-130394332D01*
X169154936Y-130412680D01*
X169203338Y-130421760D01*
X169252580Y-130421223D01*
X169300772Y-130411089D01*
X169346061Y-130391749D01*
X169386706Y-130363944D01*
X170477756Y-129448444D01*
X170191415Y-129868411D01*
X169949788Y-130174913D01*
X168776525Y-131444142D01*
X167017759Y-133066058D01*
X165688835Y-134113698D01*
X165665417Y-134129345D01*
X162146335Y-136248126D01*
X160801917Y-136867911D01*
X158312413Y-137647851D01*
X156278992Y-138179271D01*
X159891401Y-134566862D01*
X162672466Y-134566862D01*
X162742053Y-134743230D01*
X162926438Y-134872943D01*
X163132585Y-134964191D01*
X163352573Y-135013468D01*
X163577948Y-135018882D01*
X163800047Y-134980222D01*
X164010338Y-134898976D01*
X164080744Y-134860350D01*
X164179900Y-134698745D01*
X163492125Y-133879086D01*
X162672466Y-134566862D01*
X159891401Y-134566862D01*
X160431715Y-134026549D01*
X160443158Y-134017158D01*
X160467918Y-133986988D01*
X160480647Y-133971478D01*
X160495536Y-133943621D01*
X160508504Y-133919360D01*
X160525659Y-133862810D01*
X160530000Y-133818733D01*
X160530000Y-133818724D01*
X160530674Y-133811874D01*
X162344316Y-133811874D01*
X162354644Y-134037076D01*
X162408709Y-134255937D01*
X162504433Y-134460045D01*
X162666038Y-134559201D01*
X163484228Y-133872658D01*
X163499785Y-133872658D01*
X164187560Y-134692317D01*
X164363929Y-134622730D01*
X164414194Y-134560101D01*
X164530722Y-134367113D01*
X164607361Y-134155101D01*
X164641166Y-133932210D01*
X164630838Y-133707008D01*
X164576773Y-133488147D01*
X164481049Y-133284039D01*
X164319444Y-133184883D01*
X163499785Y-133872658D01*
X163484228Y-133872658D01*
X163485697Y-133871426D01*
X162797922Y-133051767D01*
X162621553Y-133121354D01*
X162571288Y-133183983D01*
X162454760Y-133376971D01*
X162378121Y-133588983D01*
X162344316Y-133811874D01*
X160530674Y-133811874D01*
X160531450Y-133804001D01*
X160530000Y-133789278D01*
X160530000Y-133045339D01*
X162805582Y-133045339D01*
X163493357Y-133864998D01*
X164313016Y-133177222D01*
X164243429Y-133000854D01*
X164059044Y-132871141D01*
X163852897Y-132779893D01*
X163632909Y-132730616D01*
X163407534Y-132725202D01*
X163185435Y-132763862D01*
X162975144Y-132845108D01*
X162904738Y-132883734D01*
X162805582Y-133045339D01*
X160530000Y-133045339D01*
X160530000Y-132239361D01*
X164333172Y-132239361D01*
X164354410Y-132454999D01*
X164417310Y-132662349D01*
X164519452Y-132853445D01*
X164656913Y-133020942D01*
X164824410Y-133158403D01*
X165015506Y-133260545D01*
X165222856Y-133323445D01*
X165384458Y-133339361D01*
X165492530Y-133339361D01*
X165654132Y-133323445D01*
X165861482Y-133260545D01*
X166052578Y-133158403D01*
X166220075Y-133020942D01*
X166357536Y-132853445D01*
X166459678Y-132662349D01*
X166522578Y-132454999D01*
X166543816Y-132239361D01*
X166522578Y-132023723D01*
X166459678Y-131816373D01*
X166357536Y-131625277D01*
X166220075Y-131457780D01*
X166052578Y-131320319D01*
X165861482Y-131218177D01*
X165654132Y-131155277D01*
X165492530Y-131139361D01*
X165384458Y-131139361D01*
X165222856Y-131155277D01*
X165015506Y-131218177D01*
X164824410Y-131320319D01*
X164656913Y-131457780D01*
X164519452Y-131625277D01*
X164417310Y-131816373D01*
X164354410Y-132023723D01*
X164333172Y-132239361D01*
X160530000Y-132239361D01*
X160530000Y-130606681D01*
X166278925Y-130606681D01*
X166300163Y-130822319D01*
X166363063Y-131029669D01*
X166465205Y-131220765D01*
X166602666Y-131388262D01*
X166770163Y-131525723D01*
X166961259Y-131627865D01*
X167168609Y-131690765D01*
X167330211Y-131706681D01*
X167438283Y-131706681D01*
X167599885Y-131690765D01*
X167807235Y-131627865D01*
X167998331Y-131525723D01*
X168165828Y-131388262D01*
X168303289Y-131220765D01*
X168405431Y-131029669D01*
X168468331Y-130822319D01*
X168489569Y-130606681D01*
X168468331Y-130391043D01*
X168405431Y-130183693D01*
X168303289Y-129992597D01*
X168165828Y-129825100D01*
X167998331Y-129687639D01*
X167807235Y-129585497D01*
X167599885Y-129522597D01*
X167438283Y-129506681D01*
X167330211Y-129506681D01*
X167168609Y-129522597D01*
X166961259Y-129585497D01*
X166770163Y-129687639D01*
X166602666Y-129825100D01*
X166465205Y-129992597D01*
X166363063Y-130183693D01*
X166300163Y-130391043D01*
X166278925Y-130606681D01*
X160530000Y-130606681D01*
X160530000Y-119607830D01*
X160531451Y-119593100D01*
X160528102Y-119559100D01*
X160525659Y-119534290D01*
X160512497Y-119490901D01*
X160508504Y-119477739D01*
X160480647Y-119425622D01*
X160452549Y-119391385D01*
X160443158Y-119379942D01*
X160431717Y-119370553D01*
X159716599Y-118655436D01*
X159777184Y-118542088D01*
X159840084Y-118334738D01*
X159861322Y-118119100D01*
X159846523Y-117968836D01*
X173134951Y-117968836D01*
X173150618Y-118047598D01*
X173223552Y-118260914D01*
X173336700Y-118455902D01*
X173485715Y-118625069D01*
X173664869Y-118761915D01*
X173867278Y-118861180D01*
X174085164Y-118919049D01*
X174265000Y-118858989D01*
X174265000Y-117789000D01*
X174275000Y-117789000D01*
X174275000Y-118858989D01*
X174454836Y-118919049D01*
X174672722Y-118861180D01*
X174875131Y-118761915D01*
X175054285Y-118625069D01*
X175203300Y-118455902D01*
X175316448Y-118260914D01*
X175389382Y-118047598D01*
X175405049Y-117968836D01*
X175344988Y-117789000D01*
X174275000Y-117789000D01*
X174265000Y-117789000D01*
X173195012Y-117789000D01*
X173134951Y-117968836D01*
X159846523Y-117968836D01*
X159840084Y-117903462D01*
X159777184Y-117696112D01*
X159725365Y-117599164D01*
X173134951Y-117599164D01*
X173195012Y-117779000D01*
X174265000Y-117779000D01*
X174265000Y-116709011D01*
X174275000Y-116709011D01*
X174275000Y-117779000D01*
X175344988Y-117779000D01*
X175405049Y-117599164D01*
X175389382Y-117520402D01*
X175316448Y-117307086D01*
X175203300Y-117112098D01*
X175054285Y-116942931D01*
X174875131Y-116806085D01*
X174672722Y-116706820D01*
X174454836Y-116648951D01*
X174275000Y-116709011D01*
X174265000Y-116709011D01*
X174085164Y-116648951D01*
X173867278Y-116706820D01*
X173664869Y-116806085D01*
X173485715Y-116942931D01*
X173336700Y-117112098D01*
X173223552Y-117307086D01*
X173150618Y-117520402D01*
X173134951Y-117599164D01*
X159725365Y-117599164D01*
X159675042Y-117505016D01*
X159537581Y-117337519D01*
X159370084Y-117200058D01*
X159178988Y-117097916D01*
X158971638Y-117035016D01*
X158810036Y-117019100D01*
X158701964Y-117019100D01*
X158540362Y-117035016D01*
X158333012Y-117097916D01*
X158141916Y-117200058D01*
X158055999Y-117270568D01*
X158055999Y-116703364D01*
X158219664Y-116539699D01*
X158333012Y-116600284D01*
X158540362Y-116663184D01*
X158701964Y-116679100D01*
X158810036Y-116679100D01*
X158971638Y-116663184D01*
X159178988Y-116600284D01*
X159370084Y-116498142D01*
X159537581Y-116360681D01*
X159675042Y-116193184D01*
X159777184Y-116002088D01*
X159840084Y-115794738D01*
X159861322Y-115579100D01*
X159840084Y-115363462D01*
X159803845Y-115244000D01*
X173164678Y-115244000D01*
X173185916Y-115459638D01*
X173248816Y-115666988D01*
X173350958Y-115858084D01*
X173488419Y-116025581D01*
X173655916Y-116163042D01*
X173847012Y-116265184D01*
X174054362Y-116328084D01*
X174215964Y-116344000D01*
X174324036Y-116344000D01*
X174485638Y-116328084D01*
X174692988Y-116265184D01*
X174884084Y-116163042D01*
X175051581Y-116025581D01*
X175189042Y-115858084D01*
X175291184Y-115666988D01*
X175354084Y-115459638D01*
X175375322Y-115244000D01*
X175354084Y-115028362D01*
X175291184Y-114821012D01*
X175189042Y-114629916D01*
X175051581Y-114462419D01*
X174884084Y-114324958D01*
X174692988Y-114222816D01*
X174485638Y-114159916D01*
X174324036Y-114144000D01*
X174215964Y-114144000D01*
X174054362Y-114159916D01*
X173847012Y-114222816D01*
X173655916Y-114324958D01*
X173488419Y-114462419D01*
X173350958Y-114629916D01*
X173248816Y-114821012D01*
X173185916Y-115028362D01*
X173164678Y-115244000D01*
X159803845Y-115244000D01*
X159777184Y-115156112D01*
X159675042Y-114965016D01*
X159537581Y-114797519D01*
X159370084Y-114660058D01*
X159178988Y-114557916D01*
X158971638Y-114495016D01*
X158810036Y-114479100D01*
X158701964Y-114479100D01*
X158540362Y-114495016D01*
X158333012Y-114557916D01*
X158141916Y-114660058D01*
X157974419Y-114797519D01*
X157836958Y-114965016D01*
X157734816Y-115156112D01*
X157671916Y-115363462D01*
X157650678Y-115579100D01*
X157671916Y-115794738D01*
X157734816Y-116002088D01*
X157795401Y-116115436D01*
X157554289Y-116356548D01*
X157542841Y-116365943D01*
X157527051Y-116385184D01*
X157505352Y-116411624D01*
X157490463Y-116439481D01*
X157477495Y-116463742D01*
X157460340Y-116520292D01*
X157455999Y-116564369D01*
X157455999Y-116564378D01*
X157454549Y-116579101D01*
X157455999Y-116593824D01*
X157456000Y-131983736D01*
X152111342Y-137328395D01*
X152089246Y-137324000D01*
X151990754Y-137324000D01*
X151894155Y-137343215D01*
X151803161Y-137380906D01*
X151721269Y-137435625D01*
X151651625Y-137505269D01*
X151596906Y-137587161D01*
X151559215Y-137678155D01*
X151540000Y-137774754D01*
X151540000Y-137873246D01*
X151550096Y-137924001D01*
X151514265Y-137924001D01*
X151475605Y-137885341D01*
X151480000Y-137863246D01*
X151480000Y-137764754D01*
X151460785Y-137668155D01*
X151423094Y-137577161D01*
X151368375Y-137495269D01*
X151298731Y-137425625D01*
X151216839Y-137370906D01*
X151125845Y-137333215D01*
X151029246Y-137314000D01*
X150930754Y-137314000D01*
X150834155Y-137333215D01*
X150743161Y-137370906D01*
X150661269Y-137425625D01*
X150591625Y-137495269D01*
X150536906Y-137577161D01*
X150499215Y-137668155D01*
X150480000Y-137764754D01*
X150480000Y-137863246D01*
X150499215Y-137959845D01*
X150536906Y-138050839D01*
X150591625Y-138132731D01*
X150661269Y-138202375D01*
X150743161Y-138257094D01*
X150834155Y-138294785D01*
X150930754Y-138314000D01*
X151029246Y-138314000D01*
X151051341Y-138309605D01*
X151167452Y-138425716D01*
X151176843Y-138437159D01*
X151188286Y-138446550D01*
X151222523Y-138474648D01*
X151250380Y-138489537D01*
X151274641Y-138502505D01*
X151331191Y-138519660D01*
X151375268Y-138524001D01*
X151375278Y-138524001D01*
X151390001Y-138525451D01*
X151404724Y-138524001D01*
X154959921Y-138524001D01*
X154892443Y-138541636D01*
X153792765Y-138671792D01*
X150301542Y-138791962D01*
X149635257Y-138679712D01*
X149671441Y-138592357D01*
X149690656Y-138495758D01*
X149690656Y-138397266D01*
X149671441Y-138300667D01*
X149633750Y-138209673D01*
X149579031Y-138127781D01*
X149509387Y-138058137D01*
X149427495Y-138003418D01*
X149336501Y-137965727D01*
X149239902Y-137946512D01*
X149141410Y-137946512D01*
X149044811Y-137965727D01*
X148953817Y-138003418D01*
X148871925Y-138058137D01*
X148802281Y-138127781D01*
X148747562Y-138209673D01*
X148709871Y-138300667D01*
X148690656Y-138397266D01*
X148690656Y-138495758D01*
X148695763Y-138521433D01*
X143933197Y-137719073D01*
X143412367Y-137499755D01*
X148150000Y-137499755D01*
X148150000Y-137598247D01*
X148169215Y-137694846D01*
X148206906Y-137785840D01*
X148261625Y-137867732D01*
X148331269Y-137937376D01*
X148413161Y-137992095D01*
X148504155Y-138029786D01*
X148600754Y-138049001D01*
X148699246Y-138049001D01*
X148795845Y-138029786D01*
X148886839Y-137992095D01*
X148968731Y-137937376D01*
X149038375Y-137867732D01*
X149093094Y-137785840D01*
X149130785Y-137694846D01*
X149150000Y-137598247D01*
X149150000Y-137499755D01*
X149130785Y-137403156D01*
X149093094Y-137312162D01*
X149038375Y-137230270D01*
X148968731Y-137160626D01*
X148886839Y-137105907D01*
X148795845Y-137068216D01*
X148699246Y-137049001D01*
X148600754Y-137049001D01*
X148504155Y-137068216D01*
X148413161Y-137105907D01*
X148331269Y-137160626D01*
X148261625Y-137230270D01*
X148206906Y-137312162D01*
X148169215Y-137403156D01*
X148150000Y-137499755D01*
X143412367Y-137499755D01*
X142314536Y-137037467D01*
X142866836Y-137037467D01*
X142992548Y-137179399D01*
X143068592Y-137205212D01*
X143289796Y-137248708D01*
X143515234Y-137248213D01*
X143736245Y-137203745D01*
X143944334Y-137117016D01*
X144131504Y-136991357D01*
X144290563Y-136831597D01*
X144328468Y-136645825D01*
X143401830Y-136110830D01*
X142866836Y-137037467D01*
X142314536Y-137037467D01*
X140832878Y-136413552D01*
X140314406Y-136139101D01*
X142250535Y-136139101D01*
X142279470Y-136362676D01*
X142351466Y-136576311D01*
X142463756Y-136771794D01*
X142612026Y-136941614D01*
X142672403Y-136994563D01*
X142858176Y-137032467D01*
X143393170Y-136105830D01*
X143386831Y-136102170D01*
X143406830Y-136102170D01*
X144333468Y-136637164D01*
X144475399Y-136511452D01*
X144534226Y-136293823D01*
X144542970Y-136164754D01*
X148670000Y-136164754D01*
X148670000Y-136263246D01*
X148689215Y-136359845D01*
X148726906Y-136450839D01*
X148781625Y-136532731D01*
X148851269Y-136602375D01*
X148933161Y-136657094D01*
X149024155Y-136694785D01*
X149120754Y-136714000D01*
X149219246Y-136714000D01*
X149315845Y-136694785D01*
X149406839Y-136657094D01*
X149455238Y-136624754D01*
X150030000Y-136624754D01*
X150030000Y-136723246D01*
X150049215Y-136819845D01*
X150086906Y-136910839D01*
X150141625Y-136992731D01*
X150211269Y-137062375D01*
X150293161Y-137117094D01*
X150384155Y-137154785D01*
X150480754Y-137174000D01*
X150579246Y-137174000D01*
X150675845Y-137154785D01*
X150766839Y-137117094D01*
X150848731Y-137062375D01*
X150918375Y-136992731D01*
X150973094Y-136910839D01*
X151010785Y-136819845D01*
X151030000Y-136723246D01*
X151030000Y-136624754D01*
X151010785Y-136528155D01*
X150973094Y-136437161D01*
X150918375Y-136355269D01*
X150848731Y-136285625D01*
X150766839Y-136230906D01*
X150675845Y-136193215D01*
X150579246Y-136174000D01*
X150480754Y-136174000D01*
X150384155Y-136193215D01*
X150293161Y-136230906D01*
X150211269Y-136285625D01*
X150141625Y-136355269D01*
X150086906Y-136437161D01*
X150049215Y-136528155D01*
X150030000Y-136624754D01*
X149455238Y-136624754D01*
X149488731Y-136602375D01*
X149558375Y-136532731D01*
X149613094Y-136450839D01*
X149650785Y-136359845D01*
X149670000Y-136263246D01*
X149670000Y-136164754D01*
X149650785Y-136068155D01*
X149613094Y-135977161D01*
X149558375Y-135895269D01*
X149488731Y-135825625D01*
X149406839Y-135770906D01*
X149315845Y-135733215D01*
X149219246Y-135714000D01*
X149120754Y-135714000D01*
X149024155Y-135733215D01*
X148933161Y-135770906D01*
X148851269Y-135825625D01*
X148781625Y-135895269D01*
X148726906Y-135977161D01*
X148689215Y-136068155D01*
X148670000Y-136164754D01*
X144542970Y-136164754D01*
X144549465Y-136068899D01*
X144520530Y-135845324D01*
X144448534Y-135631689D01*
X144336244Y-135436206D01*
X144187974Y-135266386D01*
X144174711Y-135254754D01*
X150520000Y-135254754D01*
X150520000Y-135353246D01*
X150539215Y-135449845D01*
X150576906Y-135540839D01*
X150631625Y-135622731D01*
X150701269Y-135692375D01*
X150783161Y-135747094D01*
X150874155Y-135784785D01*
X150970754Y-135804000D01*
X151069246Y-135804000D01*
X151165845Y-135784785D01*
X151256839Y-135747094D01*
X151338731Y-135692375D01*
X151408375Y-135622731D01*
X151463094Y-135540839D01*
X151500785Y-135449845D01*
X151520000Y-135353246D01*
X151520000Y-135254754D01*
X151500785Y-135158155D01*
X151463094Y-135067161D01*
X151416155Y-134996911D01*
X152812157Y-134996911D01*
X152812157Y-135095403D01*
X152831372Y-135192002D01*
X152869063Y-135282996D01*
X152923782Y-135364888D01*
X152993426Y-135434532D01*
X153075318Y-135489251D01*
X153166312Y-135526942D01*
X153262911Y-135546157D01*
X153361403Y-135546157D01*
X153458002Y-135526942D01*
X153548996Y-135489251D01*
X153630888Y-135434532D01*
X153700532Y-135364888D01*
X153755251Y-135282996D01*
X153792942Y-135192002D01*
X153812157Y-135095403D01*
X153812157Y-134996911D01*
X153792942Y-134900312D01*
X153755251Y-134809318D01*
X153700532Y-134727426D01*
X153630888Y-134657782D01*
X153548996Y-134603063D01*
X153458002Y-134565372D01*
X153361403Y-134546157D01*
X153262911Y-134546157D01*
X153166312Y-134565372D01*
X153075318Y-134603063D01*
X152993426Y-134657782D01*
X152923782Y-134727426D01*
X152869063Y-134809318D01*
X152831372Y-134900312D01*
X152812157Y-134996911D01*
X151416155Y-134996911D01*
X151408375Y-134985269D01*
X151338731Y-134915625D01*
X151256839Y-134860906D01*
X151165845Y-134823215D01*
X151069246Y-134804000D01*
X150970754Y-134804000D01*
X150874155Y-134823215D01*
X150783161Y-134860906D01*
X150701269Y-134915625D01*
X150631625Y-134985269D01*
X150576906Y-135067161D01*
X150539215Y-135158155D01*
X150520000Y-135254754D01*
X144174711Y-135254754D01*
X144127597Y-135213437D01*
X143941824Y-135175533D01*
X143406830Y-136102170D01*
X143386831Y-136102170D01*
X142466532Y-135570836D01*
X142324601Y-135696548D01*
X142265774Y-135914177D01*
X142250535Y-136139101D01*
X140314406Y-136139101D01*
X137848908Y-134834000D01*
X140094973Y-134834000D01*
X140116211Y-135049638D01*
X140179111Y-135256988D01*
X140281253Y-135448084D01*
X140418714Y-135615581D01*
X140586211Y-135753042D01*
X140777307Y-135855184D01*
X140984657Y-135918084D01*
X141146259Y-135934000D01*
X141254331Y-135934000D01*
X141415933Y-135918084D01*
X141623283Y-135855184D01*
X141814379Y-135753042D01*
X141981876Y-135615581D01*
X142025705Y-135562175D01*
X142471532Y-135562175D01*
X143398170Y-136097170D01*
X143933164Y-135170533D01*
X143807452Y-135028601D01*
X143731408Y-135002788D01*
X143510204Y-134959292D01*
X143284766Y-134959787D01*
X143063755Y-135004255D01*
X142855666Y-135090984D01*
X142668496Y-135216643D01*
X142509437Y-135376403D01*
X142471532Y-135562175D01*
X142025705Y-135562175D01*
X142119337Y-135448084D01*
X142221479Y-135256988D01*
X142284379Y-135049638D01*
X142305617Y-134834000D01*
X142284379Y-134618362D01*
X142221479Y-134411012D01*
X142119337Y-134219916D01*
X141981876Y-134052419D01*
X141814379Y-133914958D01*
X141623283Y-133812816D01*
X141415933Y-133749916D01*
X141254331Y-133734000D01*
X141146259Y-133734000D01*
X140984657Y-133749916D01*
X140777307Y-133812816D01*
X140586211Y-133914958D01*
X140418714Y-134052419D01*
X140281253Y-134219916D01*
X140179111Y-134411012D01*
X140116211Y-134618362D01*
X140094973Y-134834000D01*
X137848908Y-134834000D01*
X137578158Y-134690680D01*
X135133138Y-132621552D01*
X135389093Y-132621552D01*
X135397115Y-132670140D01*
X135414462Y-132716229D01*
X135440467Y-132758048D01*
X135474130Y-132793991D01*
X135514160Y-132822675D01*
X136986404Y-133672675D01*
X137031260Y-133692999D01*
X137079219Y-133704182D01*
X137128438Y-133705793D01*
X137177026Y-133697771D01*
X137223115Y-133680424D01*
X137264934Y-133654419D01*
X137300877Y-133620756D01*
X137329561Y-133580726D01*
X137339217Y-133564000D01*
X137895269Y-133564000D01*
X137916507Y-133779638D01*
X137979407Y-133986988D01*
X138081549Y-134178084D01*
X138219010Y-134345581D01*
X138386507Y-134483042D01*
X138577603Y-134585184D01*
X138784953Y-134648084D01*
X138946555Y-134664000D01*
X139054627Y-134664000D01*
X139216229Y-134648084D01*
X139423579Y-134585184D01*
X139614675Y-134483042D01*
X139782172Y-134345581D01*
X139919633Y-134178084D01*
X140021775Y-133986988D01*
X140084675Y-133779638D01*
X140105913Y-133564000D01*
X140084675Y-133348362D01*
X140021775Y-133141012D01*
X139919633Y-132949916D01*
X139782172Y-132782419D01*
X139614675Y-132644958D01*
X139423579Y-132542816D01*
X139216229Y-132479916D01*
X139054627Y-132464000D01*
X138946555Y-132464000D01*
X138784953Y-132479916D01*
X138577603Y-132542816D01*
X138386507Y-132644958D01*
X138219010Y-132782419D01*
X138081549Y-132949916D01*
X137979407Y-133141012D01*
X137916507Y-133348362D01*
X137895269Y-133564000D01*
X137339217Y-133564000D01*
X138179561Y-132108482D01*
X138199885Y-132063626D01*
X138211068Y-132015667D01*
X138212679Y-131966448D01*
X138204657Y-131917860D01*
X138187310Y-131871771D01*
X138161305Y-131829952D01*
X138127642Y-131794009D01*
X138087612Y-131765325D01*
X136615368Y-130915325D01*
X136570512Y-130895001D01*
X136522553Y-130883818D01*
X136473334Y-130882207D01*
X136424746Y-130890229D01*
X136378657Y-130907576D01*
X136336838Y-130933581D01*
X136300895Y-130967244D01*
X136272211Y-131007274D01*
X135422211Y-132479518D01*
X135401887Y-132524374D01*
X135390704Y-132572333D01*
X135389093Y-132621552D01*
X135133138Y-132621552D01*
X133965397Y-131633338D01*
X133288880Y-130819100D01*
X142410678Y-130819100D01*
X142431916Y-131034738D01*
X142494816Y-131242088D01*
X142596958Y-131433184D01*
X142734419Y-131600681D01*
X142901916Y-131738142D01*
X143093012Y-131840284D01*
X143300362Y-131903184D01*
X143461964Y-131919100D01*
X143570036Y-131919100D01*
X143731638Y-131903184D01*
X143938988Y-131840284D01*
X144130084Y-131738142D01*
X144297581Y-131600681D01*
X144435042Y-131433184D01*
X144537184Y-131242088D01*
X144600084Y-131034738D01*
X144621322Y-130819100D01*
X144600084Y-130603462D01*
X144537184Y-130396112D01*
X144435042Y-130205016D01*
X144297581Y-130037519D01*
X144130084Y-129900058D01*
X143938988Y-129797916D01*
X143731638Y-129735016D01*
X143570036Y-129719100D01*
X143461964Y-129719100D01*
X143300362Y-129735016D01*
X143093012Y-129797916D01*
X142901916Y-129900058D01*
X142734419Y-130037519D01*
X142596958Y-130205016D01*
X142494816Y-130396112D01*
X142431916Y-130603462D01*
X142410678Y-130819100D01*
X133288880Y-130819100D01*
X132243336Y-129560712D01*
X132205151Y-129513193D01*
X145826489Y-129513193D01*
X145826489Y-129611685D01*
X145845704Y-129708284D01*
X145883395Y-129799278D01*
X145938114Y-129881170D01*
X146007758Y-129950814D01*
X146089650Y-130005533D01*
X146180644Y-130043224D01*
X146277243Y-130062439D01*
X146375735Y-130062439D01*
X146472334Y-130043224D01*
X146563328Y-130005533D01*
X146645220Y-129950814D01*
X146714864Y-129881170D01*
X146769583Y-129799278D01*
X146807274Y-129708284D01*
X146826489Y-129611685D01*
X146826489Y-129513193D01*
X146815394Y-129457414D01*
X147571395Y-129457414D01*
X147571395Y-129555906D01*
X147590610Y-129652505D01*
X147628301Y-129743499D01*
X147683020Y-129825391D01*
X147752664Y-129895035D01*
X147834556Y-129949754D01*
X147925550Y-129987445D01*
X148022149Y-130006660D01*
X148120641Y-130006660D01*
X148217240Y-129987445D01*
X148308234Y-129949754D01*
X148390126Y-129895035D01*
X148409882Y-129875279D01*
X154587197Y-129875279D01*
X154587197Y-129973771D01*
X154606412Y-130070370D01*
X154644103Y-130161364D01*
X154698822Y-130243256D01*
X154768466Y-130312900D01*
X154850358Y-130367619D01*
X154941352Y-130405310D01*
X155037951Y-130424525D01*
X155136443Y-130424525D01*
X155233042Y-130405310D01*
X155324036Y-130367619D01*
X155405928Y-130312900D01*
X155475572Y-130243256D01*
X155530291Y-130161364D01*
X155567982Y-130070370D01*
X155587197Y-129973771D01*
X155587197Y-129875279D01*
X155567982Y-129778680D01*
X155530291Y-129687686D01*
X155475572Y-129605794D01*
X155405928Y-129536150D01*
X155324036Y-129481431D01*
X155233042Y-129443740D01*
X155136443Y-129424525D01*
X155037951Y-129424525D01*
X154941352Y-129443740D01*
X154850358Y-129481431D01*
X154768466Y-129536150D01*
X154698822Y-129605794D01*
X154644103Y-129687686D01*
X154606412Y-129778680D01*
X154587197Y-129875279D01*
X148409882Y-129875279D01*
X148459770Y-129825391D01*
X148514489Y-129743499D01*
X148552180Y-129652505D01*
X148571395Y-129555906D01*
X148571395Y-129457414D01*
X148552180Y-129360815D01*
X148514489Y-129269821D01*
X148459770Y-129187929D01*
X148390126Y-129118285D01*
X148308234Y-129063566D01*
X148217240Y-129025875D01*
X148120641Y-129006660D01*
X148022149Y-129006660D01*
X147925550Y-129025875D01*
X147834556Y-129063566D01*
X147752664Y-129118285D01*
X147683020Y-129187929D01*
X147628301Y-129269821D01*
X147590610Y-129360815D01*
X147571395Y-129457414D01*
X146815394Y-129457414D01*
X146807274Y-129416594D01*
X146769583Y-129325600D01*
X146714864Y-129243708D01*
X146645220Y-129174064D01*
X146563328Y-129119345D01*
X146472334Y-129081654D01*
X146375735Y-129062439D01*
X146277243Y-129062439D01*
X146180644Y-129081654D01*
X146089650Y-129119345D01*
X146007758Y-129174064D01*
X145938114Y-129243708D01*
X145883395Y-129325600D01*
X145845704Y-129416594D01*
X145826489Y-129513193D01*
X132205151Y-129513193D01*
X131213463Y-128279100D01*
X142410678Y-128279100D01*
X142431916Y-128494738D01*
X142494816Y-128702088D01*
X142596958Y-128893184D01*
X142734419Y-129060681D01*
X142901916Y-129198142D01*
X143093012Y-129300284D01*
X143300362Y-129363184D01*
X143461964Y-129379100D01*
X143570036Y-129379100D01*
X143731638Y-129363184D01*
X143938988Y-129300284D01*
X144130084Y-129198142D01*
X144297581Y-129060681D01*
X144435042Y-128893184D01*
X144537184Y-128702088D01*
X144600084Y-128494738D01*
X144621322Y-128279100D01*
X144600084Y-128063462D01*
X144537184Y-127856112D01*
X144435042Y-127665016D01*
X144297581Y-127497519D01*
X144130084Y-127360058D01*
X143938988Y-127257916D01*
X143731638Y-127195016D01*
X143570036Y-127179100D01*
X143461964Y-127179100D01*
X143300362Y-127195016D01*
X143093012Y-127257916D01*
X142901916Y-127360058D01*
X142734419Y-127497519D01*
X142596958Y-127665016D01*
X142494816Y-127856112D01*
X142431916Y-128063462D01*
X142410678Y-128279100D01*
X131213463Y-128279100D01*
X130025951Y-126801317D01*
X129547992Y-125739100D01*
X142410678Y-125739100D01*
X142431916Y-125954738D01*
X142494816Y-126162088D01*
X142596958Y-126353184D01*
X142734419Y-126520681D01*
X142901916Y-126658142D01*
X143093012Y-126760284D01*
X143300362Y-126823184D01*
X143461964Y-126839100D01*
X143570036Y-126839100D01*
X143731638Y-126823184D01*
X143858322Y-126784754D01*
X145200000Y-126784754D01*
X145200000Y-126883246D01*
X145219215Y-126979845D01*
X145256906Y-127070839D01*
X145311625Y-127152731D01*
X145381269Y-127222375D01*
X145463161Y-127277094D01*
X145554155Y-127314785D01*
X145650754Y-127334000D01*
X145749246Y-127334000D01*
X145845845Y-127314785D01*
X145936839Y-127277094D01*
X146018731Y-127222375D01*
X146088375Y-127152731D01*
X146143094Y-127070839D01*
X146170467Y-127004754D01*
X153580000Y-127004754D01*
X153580000Y-127103246D01*
X153599215Y-127199845D01*
X153636906Y-127290839D01*
X153691625Y-127372731D01*
X153761269Y-127442375D01*
X153843161Y-127497094D01*
X153934155Y-127534785D01*
X154030754Y-127554000D01*
X154129246Y-127554000D01*
X154225845Y-127534785D01*
X154316839Y-127497094D01*
X154398731Y-127442375D01*
X154468375Y-127372731D01*
X154523094Y-127290839D01*
X154560785Y-127199845D01*
X154580000Y-127103246D01*
X154580000Y-127004754D01*
X154560785Y-126908155D01*
X154523094Y-126817161D01*
X154468375Y-126735269D01*
X154398731Y-126665625D01*
X154316839Y-126610906D01*
X154225845Y-126573215D01*
X154129246Y-126554000D01*
X154030754Y-126554000D01*
X153934155Y-126573215D01*
X153843161Y-126610906D01*
X153761269Y-126665625D01*
X153691625Y-126735269D01*
X153636906Y-126817161D01*
X153599215Y-126908155D01*
X153580000Y-127004754D01*
X146170467Y-127004754D01*
X146180785Y-126979845D01*
X146200000Y-126883246D01*
X146200000Y-126784754D01*
X146180785Y-126688155D01*
X146143094Y-126597161D01*
X146088375Y-126515269D01*
X146018731Y-126445625D01*
X145936839Y-126390906D01*
X145845845Y-126353215D01*
X145749246Y-126334000D01*
X145650754Y-126334000D01*
X145554155Y-126353215D01*
X145463161Y-126390906D01*
X145381269Y-126445625D01*
X145311625Y-126515269D01*
X145256906Y-126597161D01*
X145219215Y-126688155D01*
X145200000Y-126784754D01*
X143858322Y-126784754D01*
X143938988Y-126760284D01*
X144130084Y-126658142D01*
X144297581Y-126520681D01*
X144435042Y-126353184D01*
X144537184Y-126162088D01*
X144546410Y-126131672D01*
X151526849Y-126131672D01*
X151526849Y-126230164D01*
X151546064Y-126326763D01*
X151583755Y-126417757D01*
X151638474Y-126499649D01*
X151708118Y-126569293D01*
X151790010Y-126624012D01*
X151881004Y-126661703D01*
X151977603Y-126680918D01*
X152076095Y-126680918D01*
X152172694Y-126661703D01*
X152263688Y-126624012D01*
X152345580Y-126569293D01*
X152415224Y-126499649D01*
X152469943Y-126417757D01*
X152507634Y-126326763D01*
X152526849Y-126230164D01*
X152526849Y-126131672D01*
X152507634Y-126035073D01*
X152469943Y-125944079D01*
X152415224Y-125862187D01*
X152345580Y-125792543D01*
X152263688Y-125737824D01*
X152172694Y-125700133D01*
X152121019Y-125689854D01*
X154456000Y-125689854D01*
X154456000Y-125788346D01*
X154475215Y-125884945D01*
X154512906Y-125975939D01*
X154567625Y-126057831D01*
X154637269Y-126127475D01*
X154719161Y-126182194D01*
X154810155Y-126219885D01*
X154906754Y-126239100D01*
X155005246Y-126239100D01*
X155101845Y-126219885D01*
X155192839Y-126182194D01*
X155274731Y-126127475D01*
X155344375Y-126057831D01*
X155399094Y-125975939D01*
X155436785Y-125884945D01*
X155456000Y-125788346D01*
X155456000Y-125689854D01*
X155436785Y-125593255D01*
X155399094Y-125502261D01*
X155344375Y-125420369D01*
X155274731Y-125350725D01*
X155192839Y-125296006D01*
X155101845Y-125258315D01*
X155005246Y-125239100D01*
X154906754Y-125239100D01*
X154810155Y-125258315D01*
X154719161Y-125296006D01*
X154637269Y-125350725D01*
X154567625Y-125420369D01*
X154512906Y-125502261D01*
X154475215Y-125593255D01*
X154456000Y-125689854D01*
X152121019Y-125689854D01*
X152076095Y-125680918D01*
X151977603Y-125680918D01*
X151881004Y-125700133D01*
X151790010Y-125737824D01*
X151708118Y-125792543D01*
X151638474Y-125862187D01*
X151583755Y-125944079D01*
X151546064Y-126035073D01*
X151526849Y-126131672D01*
X144546410Y-126131672D01*
X144600084Y-125954738D01*
X144621322Y-125739100D01*
X144600084Y-125523462D01*
X144537184Y-125316112D01*
X144435042Y-125125016D01*
X144297581Y-124957519D01*
X144130084Y-124820058D01*
X143938988Y-124717916D01*
X143731638Y-124655016D01*
X143570036Y-124639100D01*
X143461964Y-124639100D01*
X143300362Y-124655016D01*
X143093012Y-124717916D01*
X142901916Y-124820058D01*
X142734419Y-124957519D01*
X142596958Y-125125016D01*
X142494816Y-125316112D01*
X142431916Y-125523462D01*
X142410678Y-125739100D01*
X129547992Y-125739100D01*
X128405084Y-123199100D01*
X142410678Y-123199100D01*
X142431916Y-123414738D01*
X142494816Y-123622088D01*
X142596958Y-123813184D01*
X142734419Y-123980681D01*
X142901916Y-124118142D01*
X143093012Y-124220284D01*
X143300362Y-124283184D01*
X143461964Y-124299100D01*
X143570036Y-124299100D01*
X143731638Y-124283184D01*
X143858322Y-124244754D01*
X147330000Y-124244754D01*
X147330000Y-124343246D01*
X147349215Y-124439845D01*
X147386906Y-124530839D01*
X147441625Y-124612731D01*
X147511269Y-124682375D01*
X147593161Y-124737094D01*
X147684155Y-124774785D01*
X147780754Y-124794000D01*
X147879246Y-124794000D01*
X147975845Y-124774785D01*
X148066839Y-124737094D01*
X148148731Y-124682375D01*
X148218375Y-124612731D01*
X148273094Y-124530839D01*
X148310785Y-124439845D01*
X148330000Y-124343246D01*
X148330000Y-124244754D01*
X148318326Y-124186063D01*
X148990990Y-124186063D01*
X148990990Y-124284555D01*
X149010205Y-124381154D01*
X149047896Y-124472148D01*
X149102615Y-124554040D01*
X149172259Y-124623684D01*
X149254151Y-124678403D01*
X149345145Y-124716094D01*
X149441744Y-124735309D01*
X149540236Y-124735309D01*
X149636835Y-124716094D01*
X149727829Y-124678403D01*
X149809721Y-124623684D01*
X149879365Y-124554040D01*
X149934084Y-124472148D01*
X149971775Y-124381154D01*
X149980954Y-124335004D01*
X150067069Y-124335004D01*
X150067069Y-124433496D01*
X150086284Y-124530095D01*
X150123975Y-124621089D01*
X150178694Y-124702981D01*
X150248338Y-124772625D01*
X150330230Y-124827344D01*
X150421224Y-124865035D01*
X150517823Y-124884250D01*
X150616315Y-124884250D01*
X150712914Y-124865035D01*
X150803908Y-124827344D01*
X150885800Y-124772625D01*
X150953671Y-124704754D01*
X155082044Y-124704754D01*
X155082044Y-124803246D01*
X155101259Y-124899845D01*
X155138950Y-124990839D01*
X155193669Y-125072731D01*
X155263313Y-125142375D01*
X155345205Y-125197094D01*
X155436199Y-125234785D01*
X155532798Y-125254000D01*
X155631290Y-125254000D01*
X155727889Y-125234785D01*
X155818883Y-125197094D01*
X155900775Y-125142375D01*
X155970419Y-125072731D01*
X156025138Y-124990839D01*
X156062829Y-124899845D01*
X156082044Y-124803246D01*
X156082044Y-124704754D01*
X156062829Y-124608155D01*
X156025138Y-124517161D01*
X155970419Y-124435269D01*
X155900775Y-124365625D01*
X155818883Y-124310906D01*
X155727889Y-124273215D01*
X155631290Y-124254000D01*
X155532798Y-124254000D01*
X155436199Y-124273215D01*
X155345205Y-124310906D01*
X155263313Y-124365625D01*
X155193669Y-124435269D01*
X155138950Y-124517161D01*
X155101259Y-124608155D01*
X155082044Y-124704754D01*
X150953671Y-124704754D01*
X150955444Y-124702981D01*
X151010163Y-124621089D01*
X151047854Y-124530095D01*
X151067069Y-124433496D01*
X151067069Y-124335004D01*
X151047854Y-124238405D01*
X151010163Y-124147411D01*
X150955444Y-124065519D01*
X150885800Y-123995875D01*
X150803908Y-123941156D01*
X150712914Y-123903465D01*
X150616315Y-123884250D01*
X150517823Y-123884250D01*
X150421224Y-123903465D01*
X150330230Y-123941156D01*
X150248338Y-123995875D01*
X150178694Y-124065519D01*
X150123975Y-124147411D01*
X150086284Y-124238405D01*
X150067069Y-124335004D01*
X149980954Y-124335004D01*
X149990990Y-124284555D01*
X149990990Y-124186063D01*
X149971775Y-124089464D01*
X149934084Y-123998470D01*
X149879365Y-123916578D01*
X149809721Y-123846934D01*
X149727829Y-123792215D01*
X149636835Y-123754524D01*
X149540236Y-123735309D01*
X149441744Y-123735309D01*
X149345145Y-123754524D01*
X149254151Y-123792215D01*
X149172259Y-123846934D01*
X149102615Y-123916578D01*
X149047896Y-123998470D01*
X149010205Y-124089464D01*
X148990990Y-124186063D01*
X148318326Y-124186063D01*
X148310785Y-124148155D01*
X148273094Y-124057161D01*
X148218375Y-123975269D01*
X148148731Y-123905625D01*
X148066839Y-123850906D01*
X147975845Y-123813215D01*
X147879246Y-123794000D01*
X147780754Y-123794000D01*
X147684155Y-123813215D01*
X147593161Y-123850906D01*
X147511269Y-123905625D01*
X147441625Y-123975269D01*
X147386906Y-124057161D01*
X147349215Y-124148155D01*
X147330000Y-124244754D01*
X143858322Y-124244754D01*
X143938988Y-124220284D01*
X144130084Y-124118142D01*
X144297581Y-123980681D01*
X144435042Y-123813184D01*
X144537184Y-123622088D01*
X144600084Y-123414738D01*
X144621322Y-123199100D01*
X144616472Y-123149854D01*
X149406000Y-123149854D01*
X149406000Y-123248346D01*
X149425215Y-123344945D01*
X149462906Y-123435939D01*
X149517625Y-123517831D01*
X149587269Y-123587475D01*
X149669161Y-123642194D01*
X149760155Y-123679885D01*
X149856754Y-123699100D01*
X149955246Y-123699100D01*
X150051845Y-123679885D01*
X150142839Y-123642194D01*
X150224731Y-123587475D01*
X150278464Y-123533742D01*
X151357602Y-123533742D01*
X151357602Y-123632234D01*
X151376817Y-123728833D01*
X151414508Y-123819827D01*
X151469227Y-123901719D01*
X151538871Y-123971363D01*
X151620763Y-124026082D01*
X151711757Y-124063773D01*
X151808356Y-124082988D01*
X151906848Y-124082988D01*
X152003447Y-124063773D01*
X152094441Y-124026082D01*
X152176333Y-123971363D01*
X152245977Y-123901719D01*
X152300696Y-123819827D01*
X152338387Y-123728833D01*
X152357602Y-123632234D01*
X152357602Y-123533742D01*
X152338387Y-123437143D01*
X152300696Y-123346149D01*
X152252741Y-123274381D01*
X152275845Y-123269785D01*
X152366839Y-123232094D01*
X152448731Y-123177375D01*
X152518375Y-123107731D01*
X152573094Y-123025839D01*
X152610785Y-122934845D01*
X152630000Y-122838246D01*
X152630000Y-122739754D01*
X152610785Y-122643155D01*
X152573094Y-122552161D01*
X152518375Y-122470269D01*
X152448731Y-122400625D01*
X152366839Y-122345906D01*
X152275845Y-122308215D01*
X152179246Y-122289000D01*
X152080754Y-122289000D01*
X151984155Y-122308215D01*
X151893161Y-122345906D01*
X151811269Y-122400625D01*
X151741625Y-122470269D01*
X151686906Y-122552161D01*
X151649215Y-122643155D01*
X151630000Y-122739754D01*
X151630000Y-122838246D01*
X151649215Y-122934845D01*
X151686906Y-123025839D01*
X151734861Y-123097607D01*
X151711757Y-123102203D01*
X151620763Y-123139894D01*
X151538871Y-123194613D01*
X151469227Y-123264257D01*
X151414508Y-123346149D01*
X151376817Y-123437143D01*
X151357602Y-123533742D01*
X150278464Y-123533742D01*
X150294375Y-123517831D01*
X150349094Y-123435939D01*
X150386785Y-123344945D01*
X150406000Y-123248346D01*
X150406000Y-123149854D01*
X150386785Y-123053255D01*
X150349094Y-122962261D01*
X150294375Y-122880369D01*
X150224731Y-122810725D01*
X150142839Y-122756006D01*
X150051845Y-122718315D01*
X149955246Y-122699100D01*
X149856754Y-122699100D01*
X149760155Y-122718315D01*
X149669161Y-122756006D01*
X149587269Y-122810725D01*
X149517625Y-122880369D01*
X149462906Y-122962261D01*
X149425215Y-123053255D01*
X149406000Y-123149854D01*
X144616472Y-123149854D01*
X144600084Y-122983462D01*
X144537184Y-122776112D01*
X144435042Y-122585016D01*
X144297581Y-122417519D01*
X144130084Y-122280058D01*
X144013115Y-122217537D01*
X155290815Y-122217537D01*
X155290815Y-122316029D01*
X155310030Y-122412628D01*
X155347721Y-122503622D01*
X155402440Y-122585514D01*
X155472084Y-122655158D01*
X155553976Y-122709877D01*
X155644970Y-122747568D01*
X155741569Y-122766783D01*
X155840061Y-122766783D01*
X155936660Y-122747568D01*
X156027654Y-122709877D01*
X156109546Y-122655158D01*
X156179190Y-122585514D01*
X156233909Y-122503622D01*
X156271600Y-122412628D01*
X156290815Y-122316029D01*
X156290815Y-122217537D01*
X156279523Y-122160770D01*
X156313818Y-122153948D01*
X156404812Y-122116257D01*
X156486704Y-122061538D01*
X156556348Y-121991894D01*
X156611067Y-121910002D01*
X156648758Y-121819008D01*
X156667973Y-121722409D01*
X156667973Y-121623917D01*
X156648758Y-121527318D01*
X156611067Y-121436324D01*
X156556348Y-121354432D01*
X156486704Y-121284788D01*
X156404812Y-121230069D01*
X156313818Y-121192378D01*
X156217219Y-121173163D01*
X156118727Y-121173163D01*
X156022128Y-121192378D01*
X155931134Y-121230069D01*
X155849242Y-121284788D01*
X155779598Y-121354432D01*
X155724879Y-121436324D01*
X155687188Y-121527318D01*
X155667973Y-121623917D01*
X155667973Y-121722409D01*
X155679265Y-121779176D01*
X155644970Y-121785998D01*
X155553976Y-121823689D01*
X155472084Y-121878408D01*
X155402440Y-121948052D01*
X155347721Y-122029944D01*
X155310030Y-122120938D01*
X155290815Y-122217537D01*
X144013115Y-122217537D01*
X143938988Y-122177916D01*
X143731638Y-122115016D01*
X143570036Y-122099100D01*
X143461964Y-122099100D01*
X143300362Y-122115016D01*
X143093012Y-122177916D01*
X142901916Y-122280058D01*
X142734419Y-122417519D01*
X142596958Y-122585016D01*
X142494816Y-122776112D01*
X142431916Y-122983462D01*
X142410678Y-123199100D01*
X128405084Y-123199100D01*
X128160274Y-122655034D01*
X127788789Y-120659100D01*
X142410678Y-120659100D01*
X142431916Y-120874738D01*
X142494816Y-121082088D01*
X142596958Y-121273184D01*
X142734419Y-121440681D01*
X142901916Y-121578142D01*
X143093012Y-121680284D01*
X143300362Y-121743184D01*
X143461964Y-121759100D01*
X143570036Y-121759100D01*
X143731638Y-121743184D01*
X143938988Y-121680284D01*
X144044562Y-121623854D01*
X147986000Y-121623854D01*
X147986000Y-121722346D01*
X148005215Y-121818945D01*
X148042906Y-121909939D01*
X148097625Y-121991831D01*
X148167269Y-122061475D01*
X148249161Y-122116194D01*
X148340155Y-122153885D01*
X148436754Y-122173100D01*
X148535246Y-122173100D01*
X148631845Y-122153885D01*
X148722839Y-122116194D01*
X148804731Y-122061475D01*
X148874375Y-121991831D01*
X148929094Y-121909939D01*
X148966785Y-121818945D01*
X148986000Y-121722346D01*
X148986000Y-121623854D01*
X148966785Y-121527255D01*
X148929094Y-121436261D01*
X148874375Y-121354369D01*
X148804731Y-121284725D01*
X148722839Y-121230006D01*
X148631845Y-121192315D01*
X148535246Y-121173100D01*
X148436754Y-121173100D01*
X148340155Y-121192315D01*
X148249161Y-121230006D01*
X148167269Y-121284725D01*
X148097625Y-121354369D01*
X148042906Y-121436261D01*
X148005215Y-121527255D01*
X147986000Y-121623854D01*
X144044562Y-121623854D01*
X144130084Y-121578142D01*
X144297581Y-121440681D01*
X144435042Y-121273184D01*
X144537184Y-121082088D01*
X144600084Y-120874738D01*
X144621322Y-120659100D01*
X144614519Y-120590026D01*
X149196271Y-120590026D01*
X149196271Y-120688518D01*
X149215486Y-120785117D01*
X149253177Y-120876111D01*
X149307896Y-120958003D01*
X149377540Y-121027647D01*
X149459432Y-121082366D01*
X149550426Y-121120057D01*
X149647025Y-121139272D01*
X149745517Y-121139272D01*
X149842116Y-121120057D01*
X149933110Y-121082366D01*
X150015002Y-121027647D01*
X150077751Y-120964898D01*
X154866793Y-120964898D01*
X154866793Y-121063390D01*
X154886008Y-121159989D01*
X154923699Y-121250983D01*
X154978418Y-121332875D01*
X155048062Y-121402519D01*
X155129954Y-121457238D01*
X155220948Y-121494929D01*
X155317547Y-121514144D01*
X155416039Y-121514144D01*
X155512638Y-121494929D01*
X155603632Y-121457238D01*
X155685524Y-121402519D01*
X155755168Y-121332875D01*
X155809887Y-121250983D01*
X155847578Y-121159989D01*
X155866793Y-121063390D01*
X155866793Y-120964898D01*
X155847578Y-120868299D01*
X155809887Y-120777305D01*
X155755168Y-120695413D01*
X155685524Y-120625769D01*
X155603632Y-120571050D01*
X155512638Y-120533359D01*
X155416039Y-120514144D01*
X155317547Y-120514144D01*
X155220948Y-120533359D01*
X155129954Y-120571050D01*
X155048062Y-120625769D01*
X154978418Y-120695413D01*
X154923699Y-120777305D01*
X154886008Y-120868299D01*
X154866793Y-120964898D01*
X150077751Y-120964898D01*
X150084646Y-120958003D01*
X150139365Y-120876111D01*
X150177056Y-120785117D01*
X150196271Y-120688518D01*
X150196271Y-120590026D01*
X150177056Y-120493427D01*
X150139365Y-120402433D01*
X150084646Y-120320541D01*
X150015002Y-120250897D01*
X149933110Y-120196178D01*
X149842116Y-120158487D01*
X149745517Y-120139272D01*
X149647025Y-120139272D01*
X149550426Y-120158487D01*
X149459432Y-120196178D01*
X149377540Y-120250897D01*
X149307896Y-120320541D01*
X149253177Y-120402433D01*
X149215486Y-120493427D01*
X149196271Y-120590026D01*
X144614519Y-120590026D01*
X144600084Y-120443462D01*
X144537184Y-120236112D01*
X144435042Y-120045016D01*
X144297581Y-119877519D01*
X144130084Y-119740058D01*
X143938988Y-119637916D01*
X143731638Y-119575016D01*
X143570036Y-119559100D01*
X143461964Y-119559100D01*
X143300362Y-119575016D01*
X143093012Y-119637916D01*
X142901916Y-119740058D01*
X142734419Y-119877519D01*
X142596958Y-120045016D01*
X142494816Y-120236112D01*
X142431916Y-120443462D01*
X142410678Y-120659100D01*
X127788789Y-120659100D01*
X127426340Y-118711721D01*
X127455715Y-118745069D01*
X127634869Y-118881915D01*
X127837278Y-118981180D01*
X128055164Y-119039049D01*
X128235000Y-118978989D01*
X128235000Y-117909000D01*
X128245000Y-117909000D01*
X128245000Y-118978989D01*
X128424836Y-119039049D01*
X128642722Y-118981180D01*
X128845131Y-118881915D01*
X129024285Y-118745069D01*
X129173300Y-118575902D01*
X129286448Y-118380914D01*
X129359382Y-118167598D01*
X129369029Y-118119100D01*
X142410678Y-118119100D01*
X142431916Y-118334738D01*
X142494816Y-118542088D01*
X142596958Y-118733184D01*
X142734419Y-118900681D01*
X142901916Y-119038142D01*
X143093012Y-119140284D01*
X143300362Y-119203184D01*
X143461964Y-119219100D01*
X143570036Y-119219100D01*
X143731638Y-119203184D01*
X143938988Y-119140284D01*
X144130084Y-119038142D01*
X144297581Y-118900681D01*
X144435042Y-118733184D01*
X144537184Y-118542088D01*
X144600084Y-118334738D01*
X144615855Y-118174600D01*
X146933615Y-118174600D01*
X146933615Y-118273092D01*
X146952830Y-118369691D01*
X146990521Y-118460685D01*
X147045240Y-118542577D01*
X147114884Y-118612221D01*
X147196776Y-118666940D01*
X147287770Y-118704631D01*
X147384369Y-118723846D01*
X147482861Y-118723846D01*
X147551706Y-118710152D01*
X147474571Y-118761692D01*
X147404927Y-118831336D01*
X147350208Y-118913228D01*
X147312517Y-119004222D01*
X147293302Y-119100821D01*
X147293302Y-119199313D01*
X147312517Y-119295912D01*
X147350208Y-119386906D01*
X147404927Y-119468798D01*
X147474571Y-119538442D01*
X147556463Y-119593161D01*
X147647457Y-119630852D01*
X147744056Y-119650067D01*
X147842548Y-119650067D01*
X147939147Y-119630852D01*
X148030141Y-119593161D01*
X148112033Y-119538442D01*
X148149975Y-119500500D01*
X152436000Y-119500500D01*
X152436000Y-119598992D01*
X152455215Y-119695591D01*
X152492906Y-119786585D01*
X152547625Y-119868477D01*
X152617269Y-119938121D01*
X152699161Y-119992840D01*
X152790155Y-120030531D01*
X152886754Y-120049746D01*
X152985246Y-120049746D01*
X153081845Y-120030531D01*
X153172839Y-119992840D01*
X153254731Y-119938121D01*
X153324375Y-119868477D01*
X153379094Y-119786585D01*
X153416785Y-119695591D01*
X153436000Y-119598992D01*
X153436000Y-119500500D01*
X153416785Y-119403901D01*
X153379094Y-119312907D01*
X153324375Y-119231015D01*
X153254731Y-119161371D01*
X153172839Y-119106652D01*
X153081845Y-119068961D01*
X152985246Y-119049746D01*
X152886754Y-119049746D01*
X152790155Y-119068961D01*
X152699161Y-119106652D01*
X152617269Y-119161371D01*
X152547625Y-119231015D01*
X152492906Y-119312907D01*
X152455215Y-119403901D01*
X152436000Y-119500500D01*
X148149975Y-119500500D01*
X148181677Y-119468798D01*
X148236396Y-119386906D01*
X148274087Y-119295912D01*
X148293302Y-119199313D01*
X148293302Y-119100821D01*
X148274087Y-119004222D01*
X148236396Y-118913228D01*
X148181677Y-118831336D01*
X148112033Y-118761692D01*
X148030141Y-118706973D01*
X147939147Y-118669282D01*
X147842548Y-118650067D01*
X147744056Y-118650067D01*
X147675211Y-118663761D01*
X147752346Y-118612221D01*
X147821990Y-118542577D01*
X147876709Y-118460685D01*
X147914400Y-118369691D01*
X147933615Y-118273092D01*
X147933615Y-118174600D01*
X147914400Y-118078001D01*
X147876709Y-117987007D01*
X147821990Y-117905115D01*
X147752346Y-117835471D01*
X147670454Y-117780752D01*
X147579460Y-117743061D01*
X147482861Y-117723846D01*
X147384369Y-117723846D01*
X147287770Y-117743061D01*
X147196776Y-117780752D01*
X147114884Y-117835471D01*
X147045240Y-117905115D01*
X146990521Y-117987007D01*
X146952830Y-118078001D01*
X146933615Y-118174600D01*
X144615855Y-118174600D01*
X144621322Y-118119100D01*
X144600084Y-117903462D01*
X144537184Y-117696112D01*
X144435042Y-117505016D01*
X144297581Y-117337519D01*
X144154222Y-117219867D01*
X147826870Y-117219867D01*
X147826870Y-117318359D01*
X147846085Y-117414958D01*
X147883776Y-117505952D01*
X147938495Y-117587844D01*
X148008139Y-117657488D01*
X148090031Y-117712207D01*
X148181025Y-117749898D01*
X148277624Y-117769113D01*
X148376116Y-117769113D01*
X148472715Y-117749898D01*
X148563709Y-117712207D01*
X148645601Y-117657488D01*
X148715245Y-117587844D01*
X148769964Y-117505952D01*
X148807655Y-117414958D01*
X148826870Y-117318359D01*
X148826870Y-117219867D01*
X148820881Y-117189754D01*
X150430000Y-117189754D01*
X150430000Y-117288246D01*
X150449215Y-117384845D01*
X150486906Y-117475839D01*
X150541625Y-117557731D01*
X150611269Y-117627375D01*
X150693161Y-117682094D01*
X150784155Y-117719785D01*
X150880754Y-117739000D01*
X150979246Y-117739000D01*
X151075845Y-117719785D01*
X151166839Y-117682094D01*
X151248731Y-117627375D01*
X151318375Y-117557731D01*
X151373094Y-117475839D01*
X151410785Y-117384845D01*
X151430000Y-117288246D01*
X151430000Y-117189754D01*
X151421058Y-117144796D01*
X153313445Y-117144796D01*
X153313445Y-117243288D01*
X153332660Y-117339887D01*
X153370351Y-117430881D01*
X153425070Y-117512773D01*
X153494714Y-117582417D01*
X153576606Y-117637136D01*
X153667600Y-117674827D01*
X153764199Y-117694042D01*
X153862691Y-117694042D01*
X153940417Y-117678581D01*
X153888973Y-117730025D01*
X153834254Y-117811917D01*
X153796563Y-117902911D01*
X153777348Y-117999510D01*
X153777348Y-118098002D01*
X153796563Y-118194601D01*
X153834254Y-118285595D01*
X153888973Y-118367487D01*
X153958617Y-118437131D01*
X154040509Y-118491850D01*
X154131503Y-118529541D01*
X154228102Y-118548756D01*
X154326594Y-118548756D01*
X154423193Y-118529541D01*
X154514187Y-118491850D01*
X154596079Y-118437131D01*
X154665723Y-118367487D01*
X154720442Y-118285595D01*
X154758133Y-118194601D01*
X154777348Y-118098002D01*
X154777348Y-117999510D01*
X154758133Y-117902911D01*
X154720442Y-117811917D01*
X154665723Y-117730025D01*
X154596079Y-117660381D01*
X154514187Y-117605662D01*
X154423193Y-117567971D01*
X154326594Y-117548756D01*
X154228102Y-117548756D01*
X154150376Y-117564217D01*
X154201820Y-117512773D01*
X154256539Y-117430881D01*
X154294230Y-117339887D01*
X154313445Y-117243288D01*
X154313445Y-117144796D01*
X154294230Y-117048197D01*
X154256539Y-116957203D01*
X154201820Y-116875311D01*
X154132176Y-116805667D01*
X154050284Y-116750948D01*
X153959290Y-116713257D01*
X153862691Y-116694042D01*
X153764199Y-116694042D01*
X153667600Y-116713257D01*
X153576606Y-116750948D01*
X153494714Y-116805667D01*
X153425070Y-116875311D01*
X153370351Y-116957203D01*
X153332660Y-117048197D01*
X153313445Y-117144796D01*
X151421058Y-117144796D01*
X151410785Y-117093155D01*
X151373094Y-117002161D01*
X151318375Y-116920269D01*
X151248731Y-116850625D01*
X151166839Y-116795906D01*
X151075845Y-116758215D01*
X150979246Y-116739000D01*
X150880754Y-116739000D01*
X150784155Y-116758215D01*
X150693161Y-116795906D01*
X150611269Y-116850625D01*
X150541625Y-116920269D01*
X150486906Y-117002161D01*
X150449215Y-117093155D01*
X150430000Y-117189754D01*
X148820881Y-117189754D01*
X148807655Y-117123268D01*
X148769964Y-117032274D01*
X148715245Y-116950382D01*
X148645601Y-116880738D01*
X148563709Y-116826019D01*
X148472715Y-116788328D01*
X148376116Y-116769113D01*
X148277624Y-116769113D01*
X148181025Y-116788328D01*
X148090031Y-116826019D01*
X148008139Y-116880738D01*
X147938495Y-116950382D01*
X147883776Y-117032274D01*
X147846085Y-117123268D01*
X147826870Y-117219867D01*
X144154222Y-117219867D01*
X144130084Y-117200058D01*
X143938988Y-117097916D01*
X143731638Y-117035016D01*
X143570036Y-117019100D01*
X143461964Y-117019100D01*
X143300362Y-117035016D01*
X143093012Y-117097916D01*
X142901916Y-117200058D01*
X142734419Y-117337519D01*
X142596958Y-117505016D01*
X142494816Y-117696112D01*
X142431916Y-117903462D01*
X142410678Y-118119100D01*
X129369029Y-118119100D01*
X129375049Y-118088836D01*
X129314988Y-117909000D01*
X128245000Y-117909000D01*
X128235000Y-117909000D01*
X128215000Y-117909000D01*
X128215000Y-117899000D01*
X128235000Y-117899000D01*
X128235000Y-116829011D01*
X128245000Y-116829011D01*
X128245000Y-117899000D01*
X129314988Y-117899000D01*
X129375049Y-117719164D01*
X129359382Y-117640402D01*
X129286448Y-117427086D01*
X129173300Y-117232098D01*
X129024285Y-117062931D01*
X128845131Y-116926085D01*
X128642722Y-116826820D01*
X128424836Y-116768951D01*
X128245000Y-116829011D01*
X128235000Y-116829011D01*
X128055164Y-116768951D01*
X127837278Y-116826820D01*
X127634869Y-116926085D01*
X127455715Y-117062931D01*
X127306700Y-117232098D01*
X127193552Y-117427086D01*
X127189466Y-117439036D01*
X127035514Y-116611876D01*
X126990892Y-115364000D01*
X127134678Y-115364000D01*
X127155916Y-115579638D01*
X127218816Y-115786988D01*
X127320958Y-115978084D01*
X127458419Y-116145581D01*
X127625916Y-116283042D01*
X127817012Y-116385184D01*
X128024362Y-116448084D01*
X128185964Y-116464000D01*
X128294036Y-116464000D01*
X128455638Y-116448084D01*
X128662988Y-116385184D01*
X128854084Y-116283042D01*
X129021581Y-116145581D01*
X129159042Y-115978084D01*
X129261184Y-115786988D01*
X129324084Y-115579638D01*
X129324136Y-115579100D01*
X142410678Y-115579100D01*
X142431916Y-115794738D01*
X142494816Y-116002088D01*
X142596958Y-116193184D01*
X142734419Y-116360681D01*
X142901916Y-116498142D01*
X143093012Y-116600284D01*
X143300362Y-116663184D01*
X143461964Y-116679100D01*
X143570036Y-116679100D01*
X143731638Y-116663184D01*
X143938988Y-116600284D01*
X144130084Y-116498142D01*
X144297581Y-116360681D01*
X144300014Y-116357716D01*
X153991904Y-116357716D01*
X153991904Y-116456208D01*
X154011119Y-116552807D01*
X154048810Y-116643801D01*
X154103529Y-116725693D01*
X154173173Y-116795337D01*
X154255065Y-116850056D01*
X154322536Y-116878003D01*
X154317921Y-116901202D01*
X154317921Y-116999694D01*
X154337136Y-117096293D01*
X154374827Y-117187287D01*
X154429546Y-117269179D01*
X154499190Y-117338823D01*
X154581082Y-117393542D01*
X154672076Y-117431233D01*
X154768675Y-117450448D01*
X154867167Y-117450448D01*
X154963766Y-117431233D01*
X155054760Y-117393542D01*
X155136652Y-117338823D01*
X155206296Y-117269179D01*
X155261015Y-117187287D01*
X155298706Y-117096293D01*
X155317921Y-116999694D01*
X155317921Y-116901202D01*
X155298706Y-116804603D01*
X155261015Y-116713609D01*
X155206296Y-116631717D01*
X155136652Y-116562073D01*
X155054760Y-116507354D01*
X154987289Y-116479407D01*
X154991904Y-116456208D01*
X154991904Y-116357716D01*
X154972689Y-116261117D01*
X154934998Y-116170123D01*
X154880279Y-116088231D01*
X154810635Y-116018587D01*
X154728743Y-115963868D01*
X154637749Y-115926177D01*
X154541150Y-115906962D01*
X154442658Y-115906962D01*
X154346059Y-115926177D01*
X154255065Y-115963868D01*
X154173173Y-116018587D01*
X154103529Y-116088231D01*
X154048810Y-116170123D01*
X154011119Y-116261117D01*
X153991904Y-116357716D01*
X144300014Y-116357716D01*
X144435042Y-116193184D01*
X144537184Y-116002088D01*
X144600084Y-115794738D01*
X144621322Y-115579100D01*
X144619910Y-115564754D01*
X146230000Y-115564754D01*
X146230000Y-115663246D01*
X146249215Y-115759845D01*
X146286906Y-115850839D01*
X146341625Y-115932731D01*
X146411269Y-116002375D01*
X146493161Y-116057094D01*
X146584155Y-116094785D01*
X146680754Y-116114000D01*
X146779246Y-116114000D01*
X146875845Y-116094785D01*
X146966839Y-116057094D01*
X147048731Y-116002375D01*
X147118375Y-115932731D01*
X147173094Y-115850839D01*
X147210785Y-115759845D01*
X147230000Y-115663246D01*
X147230000Y-115564754D01*
X147210785Y-115468155D01*
X147173094Y-115377161D01*
X147118375Y-115295269D01*
X147048731Y-115225625D01*
X146966839Y-115170906D01*
X146875845Y-115133215D01*
X146779246Y-115114000D01*
X146680754Y-115114000D01*
X146584155Y-115133215D01*
X146493161Y-115170906D01*
X146411269Y-115225625D01*
X146341625Y-115295269D01*
X146286906Y-115377161D01*
X146249215Y-115468155D01*
X146230000Y-115564754D01*
X144619910Y-115564754D01*
X144600084Y-115363462D01*
X144537184Y-115156112D01*
X144435042Y-114965016D01*
X144297581Y-114797519D01*
X144130084Y-114660058D01*
X143938988Y-114557916D01*
X143731638Y-114495016D01*
X143570036Y-114479100D01*
X143461964Y-114479100D01*
X143300362Y-114495016D01*
X143093012Y-114557916D01*
X142901916Y-114660058D01*
X142734419Y-114797519D01*
X142596958Y-114965016D01*
X142494816Y-115156112D01*
X142431916Y-115363462D01*
X142410678Y-115579100D01*
X129324136Y-115579100D01*
X129345322Y-115364000D01*
X129324084Y-115148362D01*
X129261184Y-114941012D01*
X129159042Y-114749916D01*
X129021581Y-114582419D01*
X128889294Y-114473854D01*
X148276000Y-114473854D01*
X148276000Y-114572346D01*
X148295215Y-114668945D01*
X148332906Y-114759939D01*
X148387625Y-114841831D01*
X148457269Y-114911475D01*
X148539161Y-114966194D01*
X148630155Y-115003885D01*
X148726754Y-115023100D01*
X148825246Y-115023100D01*
X148921845Y-115003885D01*
X149012839Y-114966194D01*
X149094731Y-114911475D01*
X149164375Y-114841831D01*
X149219094Y-114759939D01*
X149256785Y-114668945D01*
X149276000Y-114572346D01*
X149276000Y-114473854D01*
X149256785Y-114377255D01*
X149219094Y-114286261D01*
X149164375Y-114204369D01*
X149094731Y-114134725D01*
X149065656Y-114115297D01*
X153756679Y-114115297D01*
X153756679Y-114213789D01*
X153775894Y-114310388D01*
X153813585Y-114401382D01*
X153868304Y-114483274D01*
X153937948Y-114552918D01*
X154019840Y-114607637D01*
X154110834Y-114645328D01*
X154207433Y-114664543D01*
X154305925Y-114664543D01*
X154402524Y-114645328D01*
X154493518Y-114607637D01*
X154575410Y-114552918D01*
X154645054Y-114483274D01*
X154699773Y-114401382D01*
X154737464Y-114310388D01*
X154756679Y-114213789D01*
X154756679Y-114115297D01*
X154737464Y-114018698D01*
X154699773Y-113927704D01*
X154699267Y-113926946D01*
X155424815Y-113926946D01*
X155424815Y-114025438D01*
X155444030Y-114122037D01*
X155481721Y-114213031D01*
X155536440Y-114294923D01*
X155606084Y-114364567D01*
X155687976Y-114419286D01*
X155778970Y-114456977D01*
X155875569Y-114476192D01*
X155974061Y-114476192D01*
X156070660Y-114456977D01*
X156161654Y-114419286D01*
X156243546Y-114364567D01*
X156313190Y-114294923D01*
X156367909Y-114213031D01*
X156405600Y-114122037D01*
X156424815Y-114025438D01*
X156424815Y-113926946D01*
X156405600Y-113830347D01*
X156367909Y-113739353D01*
X156313190Y-113657461D01*
X156243546Y-113587817D01*
X156161654Y-113533098D01*
X156070660Y-113495407D01*
X155974061Y-113476192D01*
X155875569Y-113476192D01*
X155778970Y-113495407D01*
X155687976Y-113533098D01*
X155606084Y-113587817D01*
X155536440Y-113657461D01*
X155481721Y-113739353D01*
X155444030Y-113830347D01*
X155424815Y-113926946D01*
X154699267Y-113926946D01*
X154645054Y-113845812D01*
X154575410Y-113776168D01*
X154493518Y-113721449D01*
X154402524Y-113683758D01*
X154305925Y-113664543D01*
X154207433Y-113664543D01*
X154110834Y-113683758D01*
X154019840Y-113721449D01*
X153937948Y-113776168D01*
X153868304Y-113845812D01*
X153813585Y-113927704D01*
X153775894Y-114018698D01*
X153756679Y-114115297D01*
X149065656Y-114115297D01*
X149012839Y-114080006D01*
X148921845Y-114042315D01*
X148825246Y-114023100D01*
X148726754Y-114023100D01*
X148630155Y-114042315D01*
X148539161Y-114080006D01*
X148457269Y-114134725D01*
X148387625Y-114204369D01*
X148332906Y-114286261D01*
X148295215Y-114377255D01*
X148276000Y-114473854D01*
X128889294Y-114473854D01*
X128854084Y-114444958D01*
X128662988Y-114342816D01*
X128455638Y-114279916D01*
X128294036Y-114264000D01*
X128185964Y-114264000D01*
X128024362Y-114279916D01*
X127817012Y-114342816D01*
X127625916Y-114444958D01*
X127458419Y-114582419D01*
X127320958Y-114749916D01*
X127218816Y-114941012D01*
X127155916Y-115148362D01*
X127134678Y-115364000D01*
X126990892Y-115364000D01*
X126900116Y-112825460D01*
X126900210Y-112824000D01*
X127134678Y-112824000D01*
X127155916Y-113039638D01*
X127218816Y-113246988D01*
X127320958Y-113438084D01*
X127458419Y-113605581D01*
X127625916Y-113743042D01*
X127817012Y-113845184D01*
X128024362Y-113908084D01*
X128185964Y-113924000D01*
X128294036Y-113924000D01*
X128455638Y-113908084D01*
X128662988Y-113845184D01*
X128854084Y-113743042D01*
X129021581Y-113605581D01*
X129159042Y-113438084D01*
X129261184Y-113246988D01*
X129324084Y-113039638D01*
X129324136Y-113039100D01*
X142410678Y-113039100D01*
X142431916Y-113254738D01*
X142494816Y-113462088D01*
X142596958Y-113653184D01*
X142734419Y-113820681D01*
X142901916Y-113958142D01*
X143093012Y-114060284D01*
X143300362Y-114123184D01*
X143461964Y-114139100D01*
X143570036Y-114139100D01*
X143731638Y-114123184D01*
X143938988Y-114060284D01*
X144130084Y-113958142D01*
X144297581Y-113820681D01*
X144435042Y-113653184D01*
X144537184Y-113462088D01*
X144600084Y-113254738D01*
X144621322Y-113039100D01*
X157650678Y-113039100D01*
X157671916Y-113254738D01*
X157734816Y-113462088D01*
X157836958Y-113653184D01*
X157974419Y-113820681D01*
X158141916Y-113958142D01*
X158333012Y-114060284D01*
X158540362Y-114123184D01*
X158701964Y-114139100D01*
X158810036Y-114139100D01*
X158971638Y-114123184D01*
X159178988Y-114060284D01*
X159370084Y-113958142D01*
X159537581Y-113820681D01*
X159675042Y-113653184D01*
X159777184Y-113462088D01*
X159840084Y-113254738D01*
X159861322Y-113039100D01*
X159840084Y-112823462D01*
X159803845Y-112704000D01*
X173164678Y-112704000D01*
X173185916Y-112919638D01*
X173248816Y-113126988D01*
X173350958Y-113318084D01*
X173488419Y-113485581D01*
X173655916Y-113623042D01*
X173847012Y-113725184D01*
X174054362Y-113788084D01*
X174215964Y-113804000D01*
X174324036Y-113804000D01*
X174485638Y-113788084D01*
X174692988Y-113725184D01*
X174884084Y-113623042D01*
X175051581Y-113485581D01*
X175189042Y-113318084D01*
X175291184Y-113126988D01*
X175354084Y-112919638D01*
X175375322Y-112704000D01*
X175354084Y-112488362D01*
X175291184Y-112281012D01*
X175189042Y-112089916D01*
X175051581Y-111922419D01*
X174884084Y-111784958D01*
X174692988Y-111682816D01*
X174485638Y-111619916D01*
X174324036Y-111604000D01*
X174215964Y-111604000D01*
X174054362Y-111619916D01*
X173847012Y-111682816D01*
X173655916Y-111784958D01*
X173488419Y-111922419D01*
X173350958Y-112089916D01*
X173248816Y-112281012D01*
X173185916Y-112488362D01*
X173164678Y-112704000D01*
X159803845Y-112704000D01*
X159777184Y-112616112D01*
X159675042Y-112425016D01*
X159537581Y-112257519D01*
X159370084Y-112120058D01*
X159178988Y-112017916D01*
X158971638Y-111955016D01*
X158810036Y-111939100D01*
X158701964Y-111939100D01*
X158540362Y-111955016D01*
X158333012Y-112017916D01*
X158141916Y-112120058D01*
X157974419Y-112257519D01*
X157836958Y-112425016D01*
X157734816Y-112616112D01*
X157671916Y-112823462D01*
X157650678Y-113039100D01*
X144621322Y-113039100D01*
X144600084Y-112823462D01*
X144537184Y-112616112D01*
X144435042Y-112425016D01*
X144297581Y-112257519D01*
X144130084Y-112120058D01*
X143938988Y-112017916D01*
X143930503Y-112015342D01*
X153429411Y-112015342D01*
X153429411Y-112113834D01*
X153448626Y-112210433D01*
X153486317Y-112301427D01*
X153541036Y-112383319D01*
X153610680Y-112452963D01*
X153692572Y-112507682D01*
X153783566Y-112545373D01*
X153880165Y-112564588D01*
X153978657Y-112564588D01*
X154075256Y-112545373D01*
X154166250Y-112507682D01*
X154248142Y-112452963D01*
X154317786Y-112383319D01*
X154372505Y-112301427D01*
X154410196Y-112210433D01*
X154429411Y-112113834D01*
X154429411Y-112015342D01*
X154410196Y-111918743D01*
X154372505Y-111827749D01*
X154317786Y-111745857D01*
X154248142Y-111676213D01*
X154166250Y-111621494D01*
X154075256Y-111583803D01*
X153978657Y-111564588D01*
X153880165Y-111564588D01*
X153783566Y-111583803D01*
X153692572Y-111621494D01*
X153610680Y-111676213D01*
X153541036Y-111745857D01*
X153486317Y-111827749D01*
X153448626Y-111918743D01*
X153429411Y-112015342D01*
X143930503Y-112015342D01*
X143731638Y-111955016D01*
X143570036Y-111939100D01*
X143461964Y-111939100D01*
X143300362Y-111955016D01*
X143093012Y-112017916D01*
X142901916Y-112120058D01*
X142734419Y-112257519D01*
X142596958Y-112425016D01*
X142494816Y-112616112D01*
X142431916Y-112823462D01*
X142410678Y-113039100D01*
X129324136Y-113039100D01*
X129345322Y-112824000D01*
X129324084Y-112608362D01*
X129261184Y-112401012D01*
X129159042Y-112209916D01*
X129021581Y-112042419D01*
X128854084Y-111904958D01*
X128662988Y-111802816D01*
X128455638Y-111739916D01*
X128294036Y-111724000D01*
X128185964Y-111724000D01*
X128024362Y-111739916D01*
X127817012Y-111802816D01*
X127625916Y-111904958D01*
X127458419Y-112042419D01*
X127320958Y-112209916D01*
X127218816Y-112401012D01*
X127155916Y-112608362D01*
X127134678Y-112824000D01*
X126900210Y-112824000D01*
X127084294Y-109993101D01*
X127138791Y-109746082D01*
X127138791Y-111134000D01*
X127143618Y-111183008D01*
X127157913Y-111230134D01*
X127181127Y-111273564D01*
X127212368Y-111311632D01*
X127250436Y-111342873D01*
X127293866Y-111366087D01*
X127340992Y-111380382D01*
X127390000Y-111385209D01*
X129090000Y-111385209D01*
X129139008Y-111380382D01*
X129186134Y-111366087D01*
X129229564Y-111342873D01*
X129267632Y-111311632D01*
X129298873Y-111273564D01*
X129322087Y-111230134D01*
X129336382Y-111183008D01*
X129341209Y-111134000D01*
X129341209Y-110499100D01*
X142410678Y-110499100D01*
X142431916Y-110714738D01*
X142494816Y-110922088D01*
X142596958Y-111113184D01*
X142734419Y-111280681D01*
X142901916Y-111418142D01*
X143093012Y-111520284D01*
X143300362Y-111583184D01*
X143461964Y-111599100D01*
X143570036Y-111599100D01*
X143731638Y-111583184D01*
X143938988Y-111520284D01*
X144130084Y-111418142D01*
X144297581Y-111280681D01*
X144435042Y-111113184D01*
X144496169Y-110998822D01*
X151015987Y-110998822D01*
X151015987Y-111097314D01*
X151035202Y-111193913D01*
X151072893Y-111284907D01*
X151127612Y-111366799D01*
X151197256Y-111436443D01*
X151279148Y-111491162D01*
X151370142Y-111528853D01*
X151466741Y-111548068D01*
X151565233Y-111548068D01*
X151661832Y-111528853D01*
X151752826Y-111491162D01*
X151834718Y-111436443D01*
X151904362Y-111366799D01*
X151959081Y-111284907D01*
X151996772Y-111193913D01*
X152015987Y-111097314D01*
X152015987Y-110998822D01*
X151996772Y-110902223D01*
X151959081Y-110811229D01*
X151904362Y-110729337D01*
X151834718Y-110659693D01*
X151752826Y-110604974D01*
X151661832Y-110567283D01*
X151565233Y-110548068D01*
X151466741Y-110548068D01*
X151370142Y-110567283D01*
X151279148Y-110604974D01*
X151197256Y-110659693D01*
X151127612Y-110729337D01*
X151072893Y-110811229D01*
X151035202Y-110902223D01*
X151015987Y-110998822D01*
X144496169Y-110998822D01*
X144537184Y-110922088D01*
X144600084Y-110714738D01*
X144621322Y-110499100D01*
X157650678Y-110499100D01*
X157671916Y-110714738D01*
X157734816Y-110922088D01*
X157836958Y-111113184D01*
X157974419Y-111280681D01*
X158141916Y-111418142D01*
X158333012Y-111520284D01*
X158540362Y-111583184D01*
X158701964Y-111599100D01*
X158810036Y-111599100D01*
X158971638Y-111583184D01*
X159178988Y-111520284D01*
X159370084Y-111418142D01*
X159537581Y-111280681D01*
X159675042Y-111113184D01*
X159777184Y-110922088D01*
X159840084Y-110714738D01*
X159861322Y-110499100D01*
X159840084Y-110283462D01*
X159777184Y-110076112D01*
X159675042Y-109885016D01*
X159537581Y-109717519D01*
X159370084Y-109580058D01*
X159178988Y-109477916D01*
X158971638Y-109415016D01*
X158810036Y-109399100D01*
X158701964Y-109399100D01*
X158540362Y-109415016D01*
X158333012Y-109477916D01*
X158141916Y-109580058D01*
X157974419Y-109717519D01*
X157836958Y-109885016D01*
X157734816Y-110076112D01*
X157671916Y-110283462D01*
X157650678Y-110499100D01*
X144621322Y-110499100D01*
X144600084Y-110283462D01*
X144537184Y-110076112D01*
X144435042Y-109885016D01*
X144297581Y-109717519D01*
X144130084Y-109580058D01*
X143938988Y-109477916D01*
X143797232Y-109434914D01*
X146489800Y-109434914D01*
X146489800Y-109533406D01*
X146509015Y-109630005D01*
X146546706Y-109720999D01*
X146601425Y-109802891D01*
X146671069Y-109872535D01*
X146752961Y-109927254D01*
X146843955Y-109964945D01*
X146940554Y-109984160D01*
X147039046Y-109984160D01*
X147135645Y-109964945D01*
X147226639Y-109927254D01*
X147308531Y-109872535D01*
X147378175Y-109802891D01*
X147432894Y-109720999D01*
X147470585Y-109630005D01*
X147489800Y-109533406D01*
X147489800Y-109434914D01*
X147470585Y-109338315D01*
X147457554Y-109306854D01*
X148604000Y-109306854D01*
X148604000Y-109405346D01*
X148623215Y-109501945D01*
X148660906Y-109592939D01*
X148715625Y-109674831D01*
X148785269Y-109744475D01*
X148867161Y-109799194D01*
X148958155Y-109836885D01*
X149054754Y-109856100D01*
X149153246Y-109856100D01*
X149249845Y-109836885D01*
X149340839Y-109799194D01*
X149422731Y-109744475D01*
X149492375Y-109674831D01*
X149547094Y-109592939D01*
X149584785Y-109501945D01*
X149604000Y-109405346D01*
X149604000Y-109404273D01*
X154710442Y-109404273D01*
X154710442Y-109502765D01*
X154729657Y-109599364D01*
X154767348Y-109690358D01*
X154822067Y-109772250D01*
X154891711Y-109841894D01*
X154973603Y-109896613D01*
X155064597Y-109934304D01*
X155161196Y-109953519D01*
X155259688Y-109953519D01*
X155356287Y-109934304D01*
X155447281Y-109896613D01*
X155529173Y-109841894D01*
X155598817Y-109772250D01*
X155653536Y-109690358D01*
X155691227Y-109599364D01*
X155710442Y-109502765D01*
X155710442Y-109404273D01*
X155691227Y-109307674D01*
X155653536Y-109216680D01*
X155598817Y-109134788D01*
X155529173Y-109065144D01*
X155447281Y-109010425D01*
X155356287Y-108972734D01*
X155259688Y-108953519D01*
X155161196Y-108953519D01*
X155064597Y-108972734D01*
X154973603Y-109010425D01*
X154891711Y-109065144D01*
X154822067Y-109134788D01*
X154767348Y-109216680D01*
X154729657Y-109307674D01*
X154710442Y-109404273D01*
X149604000Y-109404273D01*
X149604000Y-109306854D01*
X149584785Y-109210255D01*
X149547094Y-109119261D01*
X149492375Y-109037369D01*
X149422731Y-108967725D01*
X149340839Y-108913006D01*
X149249845Y-108875315D01*
X149153246Y-108856100D01*
X149054754Y-108856100D01*
X148958155Y-108875315D01*
X148867161Y-108913006D01*
X148785269Y-108967725D01*
X148715625Y-109037369D01*
X148660906Y-109119261D01*
X148623215Y-109210255D01*
X148604000Y-109306854D01*
X147457554Y-109306854D01*
X147432894Y-109247321D01*
X147378175Y-109165429D01*
X147308531Y-109095785D01*
X147226639Y-109041066D01*
X147135645Y-109003375D01*
X147039046Y-108984160D01*
X146940554Y-108984160D01*
X146843955Y-109003375D01*
X146752961Y-109041066D01*
X146671069Y-109095785D01*
X146601425Y-109165429D01*
X146546706Y-109247321D01*
X146509015Y-109338315D01*
X146489800Y-109434914D01*
X143797232Y-109434914D01*
X143731638Y-109415016D01*
X143570036Y-109399100D01*
X143461964Y-109399100D01*
X143300362Y-109415016D01*
X143093012Y-109477916D01*
X142901916Y-109580058D01*
X142734419Y-109717519D01*
X142596958Y-109885016D01*
X142494816Y-110076112D01*
X142431916Y-110283462D01*
X142410678Y-110499100D01*
X129341209Y-110499100D01*
X129341209Y-109434000D01*
X129336382Y-109384992D01*
X129322087Y-109337866D01*
X129298873Y-109294436D01*
X129267632Y-109256368D01*
X129229564Y-109225127D01*
X129186134Y-109201913D01*
X129139008Y-109187618D01*
X129090000Y-109182791D01*
X127390000Y-109182791D01*
X127340992Y-109187618D01*
X127293866Y-109201913D01*
X127254163Y-109223135D01*
X127533032Y-107959100D01*
X142410678Y-107959100D01*
X142431916Y-108174738D01*
X142494816Y-108382088D01*
X142596958Y-108573184D01*
X142734419Y-108740681D01*
X142901916Y-108878142D01*
X143093012Y-108980284D01*
X143300362Y-109043184D01*
X143461964Y-109059100D01*
X143570036Y-109059100D01*
X143731638Y-109043184D01*
X143938988Y-108980284D01*
X144130084Y-108878142D01*
X144297581Y-108740681D01*
X144355726Y-108669830D01*
X153170000Y-108669830D01*
X153170000Y-108778170D01*
X153191136Y-108884429D01*
X153232597Y-108984523D01*
X153292787Y-109074604D01*
X153369396Y-109151213D01*
X153459477Y-109211403D01*
X153559571Y-109252864D01*
X153665830Y-109274000D01*
X153774170Y-109274000D01*
X153880429Y-109252864D01*
X153980523Y-109211403D01*
X154070604Y-109151213D01*
X154147213Y-109074604D01*
X154207403Y-108984523D01*
X154248864Y-108884429D01*
X154270000Y-108778170D01*
X154270000Y-108669830D01*
X154248864Y-108563571D01*
X154207403Y-108463477D01*
X154147213Y-108373396D01*
X154070604Y-108296787D01*
X153980523Y-108236597D01*
X153880429Y-108195136D01*
X153774170Y-108174000D01*
X153665830Y-108174000D01*
X153559571Y-108195136D01*
X153459477Y-108236597D01*
X153369396Y-108296787D01*
X153292787Y-108373396D01*
X153232597Y-108463477D01*
X153191136Y-108563571D01*
X153170000Y-108669830D01*
X144355726Y-108669830D01*
X144435042Y-108573184D01*
X144537184Y-108382088D01*
X144600084Y-108174738D01*
X144621322Y-107959100D01*
X157650678Y-107959100D01*
X157671916Y-108174738D01*
X157734816Y-108382088D01*
X157836958Y-108573184D01*
X157974419Y-108740681D01*
X158141916Y-108878142D01*
X158333012Y-108980284D01*
X158540362Y-109043184D01*
X158701964Y-109059100D01*
X158810036Y-109059100D01*
X158971638Y-109043184D01*
X159178988Y-108980284D01*
X159370084Y-108878142D01*
X159537581Y-108740681D01*
X159675042Y-108573184D01*
X159777184Y-108382088D01*
X159840084Y-108174738D01*
X159861322Y-107959100D01*
X159840084Y-107743462D01*
X159777184Y-107536112D01*
X159675042Y-107345016D01*
X159537581Y-107177519D01*
X159370084Y-107040058D01*
X159178988Y-106937916D01*
X158971638Y-106875016D01*
X158810036Y-106859100D01*
X158701964Y-106859100D01*
X158540362Y-106875016D01*
X158333012Y-106937916D01*
X158141916Y-107040058D01*
X157974419Y-107177519D01*
X157836958Y-107345016D01*
X157734816Y-107536112D01*
X157671916Y-107743462D01*
X157650678Y-107959100D01*
X144621322Y-107959100D01*
X144600084Y-107743462D01*
X144537184Y-107536112D01*
X144435042Y-107345016D01*
X144297581Y-107177519D01*
X144130084Y-107040058D01*
X143938988Y-106937916D01*
X143731638Y-106875016D01*
X143570036Y-106859100D01*
X143461964Y-106859100D01*
X143300362Y-106875016D01*
X143093012Y-106937916D01*
X142901916Y-107040058D01*
X142734419Y-107177519D01*
X142596958Y-107345016D01*
X142494816Y-107536112D01*
X142431916Y-107743462D01*
X142410678Y-107959100D01*
X127533032Y-107959100D01*
X127788958Y-106799060D01*
X148574074Y-106799060D01*
X148574074Y-106897552D01*
X148593289Y-106994151D01*
X148630980Y-107085145D01*
X148685699Y-107167037D01*
X148755343Y-107236681D01*
X148837235Y-107291400D01*
X148928229Y-107329091D01*
X149024828Y-107348306D01*
X149123320Y-107348306D01*
X149219919Y-107329091D01*
X149310913Y-107291400D01*
X149392805Y-107236681D01*
X149462449Y-107167037D01*
X149517168Y-107085145D01*
X149554859Y-106994151D01*
X149574074Y-106897552D01*
X149574074Y-106799060D01*
X149554859Y-106702461D01*
X149517168Y-106611467D01*
X149462449Y-106529575D01*
X149392805Y-106459931D01*
X149332791Y-106419830D01*
X151520000Y-106419830D01*
X151520000Y-106528170D01*
X151541136Y-106634429D01*
X151582597Y-106734523D01*
X151642787Y-106824604D01*
X151719396Y-106901213D01*
X151809477Y-106961403D01*
X151909571Y-107002864D01*
X152015830Y-107024000D01*
X152124170Y-107024000D01*
X152230429Y-107002864D01*
X152330523Y-106961403D01*
X152420604Y-106901213D01*
X152497213Y-106824604D01*
X152557403Y-106734523D01*
X152598864Y-106634429D01*
X152620000Y-106528170D01*
X152620000Y-106419830D01*
X152598864Y-106313571D01*
X152557403Y-106213477D01*
X152497213Y-106123396D01*
X152420604Y-106046787D01*
X152330523Y-105986597D01*
X152230429Y-105945136D01*
X152124170Y-105924000D01*
X152015830Y-105924000D01*
X151909571Y-105945136D01*
X151809477Y-105986597D01*
X151719396Y-106046787D01*
X151642787Y-106123396D01*
X151582597Y-106213477D01*
X151541136Y-106313571D01*
X151520000Y-106419830D01*
X149332791Y-106419830D01*
X149310913Y-106405212D01*
X149219919Y-106367521D01*
X149123320Y-106348306D01*
X149024828Y-106348306D01*
X148928229Y-106367521D01*
X148837235Y-106405212D01*
X148755343Y-106459931D01*
X148685699Y-106529575D01*
X148630980Y-106611467D01*
X148593289Y-106702461D01*
X148574074Y-106799060D01*
X127788958Y-106799060D01*
X128070242Y-105524085D01*
X128108973Y-105419100D01*
X142410678Y-105419100D01*
X142431916Y-105634738D01*
X142494816Y-105842088D01*
X142596958Y-106033184D01*
X142734419Y-106200681D01*
X142901916Y-106338142D01*
X143093012Y-106440284D01*
X143300362Y-106503184D01*
X143461964Y-106519100D01*
X143570036Y-106519100D01*
X143731638Y-106503184D01*
X143938988Y-106440284D01*
X144130084Y-106338142D01*
X144297581Y-106200681D01*
X144435042Y-106033184D01*
X144537184Y-105842088D01*
X144580634Y-105698854D01*
X154886000Y-105698854D01*
X154886000Y-105797346D01*
X154905215Y-105893945D01*
X154942906Y-105984939D01*
X154997625Y-106066831D01*
X155067269Y-106136475D01*
X155149161Y-106191194D01*
X155240155Y-106228885D01*
X155336754Y-106248100D01*
X155435246Y-106248100D01*
X155531845Y-106228885D01*
X155622839Y-106191194D01*
X155704731Y-106136475D01*
X155774375Y-106066831D01*
X155829094Y-105984939D01*
X155866785Y-105893945D01*
X155886000Y-105797346D01*
X155886000Y-105698854D01*
X155866785Y-105602255D01*
X155829094Y-105511261D01*
X155774375Y-105429369D01*
X155764106Y-105419100D01*
X157650678Y-105419100D01*
X157671916Y-105634738D01*
X157734816Y-105842088D01*
X157836958Y-106033184D01*
X157974419Y-106200681D01*
X158141916Y-106338142D01*
X158333012Y-106440284D01*
X158540362Y-106503184D01*
X158701964Y-106519100D01*
X158810036Y-106519100D01*
X158971638Y-106503184D01*
X159178988Y-106440284D01*
X159370084Y-106338142D01*
X159537581Y-106200681D01*
X159675042Y-106033184D01*
X159777184Y-105842088D01*
X159840084Y-105634738D01*
X159861322Y-105419100D01*
X159840084Y-105203462D01*
X159777184Y-104996112D01*
X159675042Y-104805016D01*
X159537581Y-104637519D01*
X159370084Y-104500058D01*
X159178988Y-104397916D01*
X158971638Y-104335016D01*
X158810036Y-104319100D01*
X158701964Y-104319100D01*
X158540362Y-104335016D01*
X158333012Y-104397916D01*
X158141916Y-104500058D01*
X157974419Y-104637519D01*
X157836958Y-104805016D01*
X157734816Y-104996112D01*
X157671916Y-105203462D01*
X157650678Y-105419100D01*
X155764106Y-105419100D01*
X155704731Y-105359725D01*
X155622839Y-105305006D01*
X155531845Y-105267315D01*
X155435246Y-105248100D01*
X155336754Y-105248100D01*
X155240155Y-105267315D01*
X155149161Y-105305006D01*
X155067269Y-105359725D01*
X154997625Y-105429369D01*
X154942906Y-105511261D01*
X154905215Y-105602255D01*
X154886000Y-105698854D01*
X144580634Y-105698854D01*
X144600084Y-105634738D01*
X144621322Y-105419100D01*
X144600084Y-105203462D01*
X144537184Y-104996112D01*
X144435042Y-104805016D01*
X144297581Y-104637519D01*
X144130084Y-104500058D01*
X143938988Y-104397916D01*
X143731638Y-104335016D01*
X143570036Y-104319100D01*
X143461964Y-104319100D01*
X143300362Y-104335016D01*
X143093012Y-104397916D01*
X142901916Y-104500058D01*
X142734419Y-104637519D01*
X142596958Y-104805016D01*
X142494816Y-104996112D01*
X142431916Y-105203462D01*
X142410678Y-105419100D01*
X128108973Y-105419100D01*
X128337811Y-104798808D01*
X128759023Y-103982098D01*
X149508585Y-103982098D01*
X149508585Y-104080590D01*
X149527800Y-104177189D01*
X149565491Y-104268183D01*
X149620210Y-104350075D01*
X149689854Y-104419719D01*
X149771746Y-104474438D01*
X149862740Y-104512129D01*
X149959339Y-104531344D01*
X150057831Y-104531344D01*
X150154430Y-104512129D01*
X150245424Y-104474438D01*
X150327316Y-104419719D01*
X150396960Y-104350075D01*
X150451679Y-104268183D01*
X150489370Y-104177189D01*
X150508585Y-104080590D01*
X150508585Y-103985977D01*
X150685880Y-103985977D01*
X150685880Y-104084469D01*
X150705095Y-104181068D01*
X150742786Y-104272062D01*
X150797505Y-104353954D01*
X150867149Y-104423598D01*
X150949041Y-104478317D01*
X151040035Y-104516008D01*
X151136634Y-104535223D01*
X151235126Y-104535223D01*
X151331725Y-104516008D01*
X151422719Y-104478317D01*
X151504611Y-104423598D01*
X151574255Y-104353954D01*
X151628974Y-104272062D01*
X151666665Y-104181068D01*
X151685880Y-104084469D01*
X151685880Y-103985977D01*
X151666665Y-103889378D01*
X151628974Y-103798384D01*
X151574255Y-103716492D01*
X151504611Y-103646848D01*
X151422719Y-103592129D01*
X151331725Y-103554438D01*
X151235126Y-103535223D01*
X151136634Y-103535223D01*
X151040035Y-103554438D01*
X150949041Y-103592129D01*
X150867149Y-103646848D01*
X150797505Y-103716492D01*
X150742786Y-103798384D01*
X150705095Y-103889378D01*
X150685880Y-103985977D01*
X150508585Y-103985977D01*
X150508585Y-103982098D01*
X150489370Y-103885499D01*
X150451679Y-103794505D01*
X150396960Y-103712613D01*
X150327316Y-103642969D01*
X150245424Y-103588250D01*
X150154430Y-103550559D01*
X150057831Y-103531344D01*
X149959339Y-103531344D01*
X149862740Y-103550559D01*
X149771746Y-103588250D01*
X149689854Y-103642969D01*
X149620210Y-103712613D01*
X149565491Y-103794505D01*
X149527800Y-103885499D01*
X149508585Y-103982098D01*
X128759023Y-103982098D01*
X129327888Y-102879100D01*
X142410678Y-102879100D01*
X142431916Y-103094738D01*
X142494816Y-103302088D01*
X142596958Y-103493184D01*
X142734419Y-103660681D01*
X142901916Y-103798142D01*
X143093012Y-103900284D01*
X143300362Y-103963184D01*
X143461964Y-103979100D01*
X143570036Y-103979100D01*
X143731638Y-103963184D01*
X143938988Y-103900284D01*
X144130084Y-103798142D01*
X144297581Y-103660681D01*
X144435042Y-103493184D01*
X144537184Y-103302088D01*
X144600084Y-103094738D01*
X144621322Y-102879100D01*
X144616472Y-102829854D01*
X146826000Y-102829854D01*
X146826000Y-102928346D01*
X146845215Y-103024945D01*
X146882906Y-103115939D01*
X146937625Y-103197831D01*
X147007269Y-103267475D01*
X147089161Y-103322194D01*
X147180155Y-103359885D01*
X147276754Y-103379100D01*
X147375246Y-103379100D01*
X147471845Y-103359885D01*
X147562839Y-103322194D01*
X147644731Y-103267475D01*
X147714375Y-103197831D01*
X147769094Y-103115939D01*
X147806785Y-103024945D01*
X147826000Y-102928346D01*
X147826000Y-102879100D01*
X157650678Y-102879100D01*
X157671916Y-103094738D01*
X157734816Y-103302088D01*
X157836958Y-103493184D01*
X157974419Y-103660681D01*
X158141916Y-103798142D01*
X158333012Y-103900284D01*
X158540362Y-103963184D01*
X158701964Y-103979100D01*
X158810036Y-103979100D01*
X158971638Y-103963184D01*
X159178988Y-103900284D01*
X159370084Y-103798142D01*
X159537581Y-103660681D01*
X159675042Y-103493184D01*
X159777184Y-103302088D01*
X159840084Y-103094738D01*
X159861322Y-102879100D01*
X159840084Y-102663462D01*
X159777184Y-102456112D01*
X159675042Y-102265016D01*
X159537581Y-102097519D01*
X159370084Y-101960058D01*
X159178988Y-101857916D01*
X158971638Y-101795016D01*
X158810036Y-101779100D01*
X158701964Y-101779100D01*
X158540362Y-101795016D01*
X158333012Y-101857916D01*
X158141916Y-101960058D01*
X157974419Y-102097519D01*
X157836958Y-102265016D01*
X157734816Y-102456112D01*
X157671916Y-102663462D01*
X157650678Y-102879100D01*
X147826000Y-102879100D01*
X147826000Y-102829854D01*
X147806785Y-102733255D01*
X147769094Y-102642261D01*
X147714375Y-102560369D01*
X147644731Y-102490725D01*
X147562839Y-102436006D01*
X147471845Y-102398315D01*
X147375246Y-102379100D01*
X147276754Y-102379100D01*
X147180155Y-102398315D01*
X147089161Y-102436006D01*
X147007269Y-102490725D01*
X146937625Y-102560369D01*
X146882906Y-102642261D01*
X146845215Y-102733255D01*
X146826000Y-102829854D01*
X144616472Y-102829854D01*
X144600084Y-102663462D01*
X144537184Y-102456112D01*
X144435042Y-102265016D01*
X144297581Y-102097519D01*
X144130084Y-101960058D01*
X143938988Y-101857916D01*
X143826703Y-101823854D01*
X147711000Y-101823854D01*
X147711000Y-101922346D01*
X147730215Y-102018945D01*
X147767906Y-102109939D01*
X147822625Y-102191831D01*
X147892269Y-102261475D01*
X147974161Y-102316194D01*
X148065155Y-102353885D01*
X148161754Y-102373100D01*
X148260246Y-102373100D01*
X148356845Y-102353885D01*
X148447839Y-102316194D01*
X148529731Y-102261475D01*
X148599375Y-102191831D01*
X148654094Y-102109939D01*
X148665005Y-102083598D01*
X148744287Y-102136573D01*
X148835281Y-102174264D01*
X148931880Y-102193479D01*
X149030372Y-102193479D01*
X149126971Y-102174264D01*
X149217965Y-102136573D01*
X149299857Y-102081854D01*
X149369501Y-102012210D01*
X149424220Y-101930318D01*
X149461911Y-101839324D01*
X149481126Y-101742725D01*
X149481126Y-101644233D01*
X149461911Y-101547634D01*
X149424220Y-101456640D01*
X149369501Y-101374748D01*
X149299857Y-101305104D01*
X149217965Y-101250385D01*
X149126971Y-101212694D01*
X149030372Y-101193479D01*
X148931880Y-101193479D01*
X148835281Y-101212694D01*
X148744287Y-101250385D01*
X148662395Y-101305104D01*
X148592751Y-101374748D01*
X148538032Y-101456640D01*
X148527121Y-101482981D01*
X148447839Y-101430006D01*
X148356845Y-101392315D01*
X148260246Y-101373100D01*
X148161754Y-101373100D01*
X148065155Y-101392315D01*
X147974161Y-101430006D01*
X147892269Y-101484725D01*
X147822625Y-101554369D01*
X147767906Y-101636261D01*
X147730215Y-101727255D01*
X147711000Y-101823854D01*
X143826703Y-101823854D01*
X143731638Y-101795016D01*
X143570036Y-101779100D01*
X143461964Y-101779100D01*
X143300362Y-101795016D01*
X143093012Y-101857916D01*
X142901916Y-101960058D01*
X142734419Y-102097519D01*
X142596958Y-102265016D01*
X142494816Y-102456112D01*
X142431916Y-102663462D01*
X142410678Y-102879100D01*
X129327888Y-102879100D01*
X130292535Y-101008702D01*
X130739947Y-100339100D01*
X142410678Y-100339100D01*
X142431916Y-100554738D01*
X142494816Y-100762088D01*
X142596958Y-100953184D01*
X142734419Y-101120681D01*
X142901916Y-101258142D01*
X143093012Y-101360284D01*
X143300362Y-101423184D01*
X143461964Y-101439100D01*
X143570036Y-101439100D01*
X143731638Y-101423184D01*
X143938988Y-101360284D01*
X144130084Y-101258142D01*
X144297581Y-101120681D01*
X144435042Y-100953184D01*
X144537184Y-100762088D01*
X144600084Y-100554738D01*
X144603117Y-100523936D01*
X157620951Y-100523936D01*
X157636618Y-100602698D01*
X157709552Y-100816014D01*
X157822700Y-101011002D01*
X157971715Y-101180169D01*
X158150869Y-101317015D01*
X158353278Y-101416280D01*
X158571164Y-101474149D01*
X158751000Y-101414089D01*
X158751000Y-100344100D01*
X158761000Y-100344100D01*
X158761000Y-101414089D01*
X158940836Y-101474149D01*
X159158722Y-101416280D01*
X159361131Y-101317015D01*
X159540285Y-101180169D01*
X159689300Y-101011002D01*
X159802448Y-100816014D01*
X159875382Y-100602698D01*
X159891049Y-100523936D01*
X159830988Y-100344100D01*
X158761000Y-100344100D01*
X158751000Y-100344100D01*
X157681012Y-100344100D01*
X157620951Y-100523936D01*
X144603117Y-100523936D01*
X144621322Y-100339100D01*
X144603118Y-100154264D01*
X157620951Y-100154264D01*
X157681012Y-100334100D01*
X158751000Y-100334100D01*
X158751000Y-99264111D01*
X158761000Y-99264111D01*
X158761000Y-100334100D01*
X159830988Y-100334100D01*
X159891049Y-100154264D01*
X159875382Y-100075502D01*
X159802448Y-99862186D01*
X159689300Y-99667198D01*
X159540285Y-99498031D01*
X159361131Y-99361185D01*
X159158722Y-99261920D01*
X158940836Y-99204051D01*
X158761000Y-99264111D01*
X158751000Y-99264111D01*
X158571164Y-99204051D01*
X158353278Y-99261920D01*
X158150869Y-99361185D01*
X157971715Y-99498031D01*
X157822700Y-99667198D01*
X157709552Y-99862186D01*
X157636618Y-100075502D01*
X157620951Y-100154264D01*
X144603118Y-100154264D01*
X144600084Y-100123462D01*
X144537184Y-99916112D01*
X144435042Y-99725016D01*
X144297581Y-99557519D01*
X144130084Y-99420058D01*
X143938988Y-99317916D01*
X143731638Y-99255016D01*
X143570036Y-99239100D01*
X143461964Y-99239100D01*
X143300362Y-99255016D01*
X143093012Y-99317916D01*
X142901916Y-99420058D01*
X142734419Y-99557519D01*
X142596958Y-99725016D01*
X142494816Y-99916112D01*
X142431916Y-100123462D01*
X142410678Y-100339100D01*
X130739947Y-100339100D01*
X130796918Y-100253838D01*
X131323773Y-99646862D01*
X132582466Y-99646862D01*
X132652053Y-99823230D01*
X132836438Y-99952943D01*
X133042585Y-100044191D01*
X133262573Y-100093468D01*
X133487948Y-100098882D01*
X133710047Y-100060222D01*
X133920338Y-99978976D01*
X133990744Y-99940350D01*
X134089900Y-99778745D01*
X133402125Y-98959086D01*
X132582466Y-99646862D01*
X131323773Y-99646862D01*
X132383413Y-98426079D01*
X132364760Y-98456971D01*
X132288121Y-98668983D01*
X132254316Y-98891874D01*
X132264644Y-99117076D01*
X132318709Y-99335937D01*
X132414433Y-99540045D01*
X132576038Y-99639201D01*
X133394228Y-98952658D01*
X133409785Y-98952658D01*
X134097560Y-99772317D01*
X134273929Y-99702730D01*
X134324194Y-99640101D01*
X134440722Y-99447113D01*
X134517361Y-99235101D01*
X134551166Y-99012210D01*
X134540838Y-98787008D01*
X134506771Y-98649100D01*
X142364548Y-98649100D01*
X142370340Y-98707910D01*
X142387495Y-98764461D01*
X142415352Y-98816578D01*
X142452841Y-98862259D01*
X142498522Y-98899748D01*
X142550639Y-98927605D01*
X142607190Y-98944760D01*
X142666000Y-98950552D01*
X143436000Y-98949100D01*
X143511000Y-98874100D01*
X143511000Y-97804100D01*
X143521000Y-97804100D01*
X143521000Y-98874100D01*
X143596000Y-98949100D01*
X144366000Y-98950552D01*
X144424810Y-98944760D01*
X144481361Y-98927605D01*
X144533478Y-98899748D01*
X144579159Y-98862259D01*
X144616648Y-98816578D01*
X144644505Y-98764461D01*
X144661660Y-98707910D01*
X144667452Y-98649100D01*
X144666000Y-97879100D01*
X144591000Y-97804100D01*
X143521000Y-97804100D01*
X143511000Y-97804100D01*
X142441000Y-97804100D01*
X142366000Y-97879100D01*
X142364548Y-98649100D01*
X134506771Y-98649100D01*
X134486773Y-98568147D01*
X134391049Y-98364039D01*
X134229444Y-98264883D01*
X133409785Y-98952658D01*
X133394228Y-98952658D01*
X133395697Y-98951426D01*
X133382841Y-98936105D01*
X133390501Y-98929677D01*
X133403357Y-98944998D01*
X134223016Y-98257222D01*
X134153429Y-98080854D01*
X133969044Y-97951141D01*
X133762897Y-97859893D01*
X133542909Y-97810616D01*
X133317534Y-97805202D01*
X133095435Y-97843862D01*
X132885144Y-97925108D01*
X132814738Y-97963734D01*
X132715583Y-98125338D01*
X132681094Y-98084235D01*
X133439077Y-97319361D01*
X134243172Y-97319361D01*
X134264410Y-97534999D01*
X134327310Y-97742349D01*
X134429452Y-97933445D01*
X134566913Y-98100942D01*
X134734410Y-98238403D01*
X134925506Y-98340545D01*
X135132856Y-98403445D01*
X135294458Y-98419361D01*
X135402530Y-98419361D01*
X135564132Y-98403445D01*
X135771482Y-98340545D01*
X135962578Y-98238403D01*
X136130075Y-98100942D01*
X136267536Y-97933445D01*
X136369678Y-97742349D01*
X136432578Y-97534999D01*
X136453816Y-97319361D01*
X136432578Y-97103723D01*
X136385673Y-96949100D01*
X142364548Y-96949100D01*
X142366000Y-97719100D01*
X142441000Y-97794100D01*
X143511000Y-97794100D01*
X143511000Y-96724100D01*
X143521000Y-96724100D01*
X143521000Y-97794100D01*
X144591000Y-97794100D01*
X144666000Y-97719100D01*
X144666053Y-97690759D01*
X157656000Y-97690759D01*
X157656000Y-97907441D01*
X157698273Y-98119958D01*
X157781193Y-98320145D01*
X157901575Y-98500309D01*
X158054791Y-98653525D01*
X158234955Y-98773907D01*
X158435142Y-98856827D01*
X158647659Y-98899100D01*
X158864341Y-98899100D01*
X159076858Y-98856827D01*
X159277045Y-98773907D01*
X159457209Y-98653525D01*
X159610425Y-98500309D01*
X159730807Y-98320145D01*
X159813727Y-98119958D01*
X159856000Y-97907441D01*
X159856000Y-97690759D01*
X159813727Y-97478242D01*
X159730807Y-97278055D01*
X159610425Y-97097891D01*
X159457209Y-96944675D01*
X159277045Y-96824293D01*
X159076858Y-96741373D01*
X158864341Y-96699100D01*
X158647659Y-96699100D01*
X158435142Y-96741373D01*
X158234955Y-96824293D01*
X158054791Y-96944675D01*
X157901575Y-97097891D01*
X157781193Y-97278055D01*
X157698273Y-97478242D01*
X157656000Y-97690759D01*
X144666053Y-97690759D01*
X144667452Y-96949100D01*
X144661660Y-96890290D01*
X144644505Y-96833739D01*
X144616648Y-96781622D01*
X144579159Y-96735941D01*
X144533478Y-96698452D01*
X144481361Y-96670595D01*
X144471050Y-96667467D01*
X164845950Y-96667467D01*
X164971662Y-96809399D01*
X165047706Y-96835212D01*
X165268910Y-96878708D01*
X165494348Y-96878213D01*
X165715359Y-96833745D01*
X165923448Y-96747016D01*
X166110618Y-96621357D01*
X166269677Y-96461597D01*
X166307582Y-96275825D01*
X165380944Y-95740830D01*
X164845950Y-96667467D01*
X144471050Y-96667467D01*
X144424810Y-96653440D01*
X144366000Y-96647648D01*
X143596000Y-96649100D01*
X143521000Y-96724100D01*
X143511000Y-96724100D01*
X143436000Y-96649100D01*
X142666000Y-96647648D01*
X142607190Y-96653440D01*
X142550639Y-96670595D01*
X142498522Y-96698452D01*
X142452841Y-96735941D01*
X142415352Y-96781622D01*
X142387495Y-96833739D01*
X142370340Y-96890290D01*
X142364548Y-96949100D01*
X136385673Y-96949100D01*
X136369678Y-96896373D01*
X136267536Y-96705277D01*
X136130075Y-96537780D01*
X135962578Y-96400319D01*
X135771482Y-96298177D01*
X135564132Y-96235277D01*
X135402530Y-96219361D01*
X135294458Y-96219361D01*
X135132856Y-96235277D01*
X134925506Y-96298177D01*
X134734410Y-96400319D01*
X134566913Y-96537780D01*
X134429452Y-96705277D01*
X134327310Y-96896373D01*
X134264410Y-97103723D01*
X134243172Y-97319361D01*
X133439077Y-97319361D01*
X134865416Y-95880055D01*
X135130241Y-95686681D01*
X136188925Y-95686681D01*
X136210163Y-95902319D01*
X136273063Y-96109669D01*
X136375205Y-96300765D01*
X136512666Y-96468262D01*
X136680163Y-96605723D01*
X136871259Y-96707865D01*
X137078609Y-96770765D01*
X137240211Y-96786681D01*
X137348283Y-96786681D01*
X137509885Y-96770765D01*
X137717235Y-96707865D01*
X137908331Y-96605723D01*
X138075828Y-96468262D01*
X138213289Y-96300765D01*
X138315431Y-96109669D01*
X138378331Y-95902319D01*
X138391451Y-95769101D01*
X164229649Y-95769101D01*
X164258584Y-95992676D01*
X164330580Y-96206311D01*
X164442870Y-96401794D01*
X164591140Y-96571614D01*
X164651517Y-96624563D01*
X164837290Y-96662467D01*
X165372284Y-95735830D01*
X165365945Y-95732170D01*
X165385944Y-95732170D01*
X166312582Y-96267164D01*
X166454513Y-96141452D01*
X166513340Y-95923823D01*
X166528579Y-95698899D01*
X166499644Y-95475324D01*
X166427648Y-95261689D01*
X166315358Y-95066206D01*
X166167088Y-94896386D01*
X166106711Y-94843437D01*
X165920938Y-94805533D01*
X165385944Y-95732170D01*
X165365945Y-95732170D01*
X164445646Y-95200836D01*
X164303715Y-95326548D01*
X164244888Y-95544177D01*
X164229649Y-95769101D01*
X138391451Y-95769101D01*
X138399569Y-95686681D01*
X138378331Y-95471043D01*
X138315431Y-95263693D01*
X138213289Y-95072597D01*
X138075828Y-94905100D01*
X137908331Y-94767639D01*
X137717235Y-94665497D01*
X137509885Y-94602597D01*
X137348283Y-94586681D01*
X137240211Y-94586681D01*
X137078609Y-94602597D01*
X136871259Y-94665497D01*
X136680163Y-94767639D01*
X136512666Y-94905100D01*
X136375205Y-95072597D01*
X136273063Y-95263693D01*
X136210163Y-95471043D01*
X136188925Y-95686681D01*
X135130241Y-95686681D01*
X138603759Y-93150344D01*
X137881019Y-93756795D01*
X137846579Y-93791994D01*
X137819668Y-93833237D01*
X137801320Y-93878936D01*
X137792240Y-93927338D01*
X137792777Y-93976580D01*
X137802911Y-94024772D01*
X137822251Y-94070061D01*
X137850056Y-94110706D01*
X138942795Y-95412981D01*
X138977994Y-95447421D01*
X139019237Y-95474332D01*
X139064936Y-95492680D01*
X139113338Y-95501760D01*
X139162580Y-95501223D01*
X139210772Y-95491089D01*
X139256061Y-95471749D01*
X139296706Y-95443944D01*
X140464557Y-94464000D01*
X162074087Y-94464000D01*
X162095325Y-94679638D01*
X162158225Y-94886988D01*
X162260367Y-95078084D01*
X162397828Y-95245581D01*
X162565325Y-95383042D01*
X162756421Y-95485184D01*
X162963771Y-95548084D01*
X163125373Y-95564000D01*
X163233445Y-95564000D01*
X163395047Y-95548084D01*
X163602397Y-95485184D01*
X163793493Y-95383042D01*
X163960990Y-95245581D01*
X164004819Y-95192175D01*
X164450646Y-95192175D01*
X165377284Y-95727170D01*
X165912278Y-94800533D01*
X165786566Y-94658601D01*
X165710522Y-94632788D01*
X165489318Y-94589292D01*
X165263880Y-94589787D01*
X165042869Y-94634255D01*
X164834780Y-94720984D01*
X164647610Y-94846643D01*
X164488551Y-95006403D01*
X164450646Y-95192175D01*
X164004819Y-95192175D01*
X164098451Y-95078084D01*
X164200593Y-94886988D01*
X164263493Y-94679638D01*
X164284731Y-94464000D01*
X164263493Y-94248362D01*
X164200593Y-94041012D01*
X164098451Y-93849916D01*
X163960990Y-93682419D01*
X163793493Y-93544958D01*
X163602397Y-93442816D01*
X163395047Y-93379916D01*
X163233445Y-93364000D01*
X163125373Y-93364000D01*
X162963771Y-93379916D01*
X162756421Y-93442816D01*
X162565325Y-93544958D01*
X162397828Y-93682419D01*
X162260367Y-93849916D01*
X162158225Y-94041012D01*
X162095325Y-94248362D01*
X162074087Y-94464000D01*
X140464557Y-94464000D01*
X140598981Y-94351205D01*
X140633421Y-94316006D01*
X140660332Y-94274763D01*
X140678680Y-94229064D01*
X140687760Y-94180662D01*
X140687223Y-94131420D01*
X140677089Y-94083228D01*
X140657749Y-94037939D01*
X140629944Y-93997294D01*
X139537205Y-92695019D01*
X139502006Y-92660579D01*
X139460763Y-92633668D01*
X139415064Y-92615320D01*
X139366662Y-92606240D01*
X139348641Y-92606437D01*
X139517801Y-92482917D01*
X144018161Y-90810217D01*
X148980718Y-89734000D01*
X153875081Y-89734000D01*
X158039193Y-91004698D01*
X158039193Y-91004698D01*
G37*
X158039193Y-91004698D02*
X157401325Y-92109518D01*
X157381001Y-92154374D01*
X157369818Y-92202333D01*
X157368207Y-92251552D01*
X157376229Y-92300140D01*
X157393576Y-92346229D01*
X157419581Y-92388048D01*
X157453244Y-92423991D01*
X157493274Y-92452675D01*
X158965518Y-93302675D01*
X159010374Y-93322999D01*
X159058333Y-93334182D01*
X159107552Y-93335793D01*
X159156140Y-93327771D01*
X159202229Y-93310424D01*
X159244048Y-93284419D01*
X159279991Y-93250756D01*
X159308675Y-93210726D01*
X160158675Y-91738482D01*
X160158834Y-91738131D01*
X161171316Y-92107550D01*
X161033741Y-92094000D01*
X160925669Y-92094000D01*
X160764067Y-92109916D01*
X160556717Y-92172816D01*
X160365621Y-92274958D01*
X160198124Y-92412419D01*
X160060663Y-92579916D01*
X159958521Y-92771012D01*
X159895621Y-92978362D01*
X159874383Y-93194000D01*
X159895621Y-93409638D01*
X159958521Y-93616988D01*
X160060663Y-93808084D01*
X160198124Y-93975581D01*
X160365621Y-94113042D01*
X160556717Y-94215184D01*
X160764067Y-94278084D01*
X160925669Y-94294000D01*
X161033741Y-94294000D01*
X161195343Y-94278084D01*
X161402693Y-94215184D01*
X161593789Y-94113042D01*
X161761286Y-93975581D01*
X161898747Y-93808084D01*
X162000889Y-93616988D01*
X162063789Y-93409638D01*
X162085027Y-93194000D01*
X162063789Y-92978362D01*
X162000889Y-92771012D01*
X161898747Y-92579916D01*
X161761286Y-92412419D01*
X161593789Y-92274958D01*
X161515608Y-92233170D01*
X163134981Y-92824022D01*
X166019009Y-94703613D01*
X168567771Y-96983561D01*
X171608105Y-100651897D01*
X173178434Y-103279060D01*
X174215949Y-105998020D01*
X175287138Y-109127756D01*
X175259564Y-109105127D01*
X175216134Y-109081913D01*
X175169008Y-109067618D01*
X175120000Y-109062791D01*
X173420000Y-109062791D01*
X173370992Y-109067618D01*
X173323866Y-109081913D01*
X173280436Y-109105127D01*
X173242368Y-109136368D01*
X173211127Y-109174436D01*
X173187913Y-109217866D01*
X173173618Y-109264992D01*
X173168791Y-109314000D01*
X173168791Y-111014000D01*
X173173618Y-111063008D01*
X173187913Y-111110134D01*
X173211127Y-111153564D01*
X173242368Y-111191632D01*
X173280436Y-111222873D01*
X173323866Y-111246087D01*
X173370992Y-111260382D01*
X173420000Y-111265209D01*
X175120000Y-111265209D01*
X175169008Y-111260382D01*
X175216134Y-111246087D01*
X175259564Y-111222873D01*
X175297632Y-111191632D01*
X175328873Y-111153564D01*
X175352087Y-111110134D01*
X175366382Y-111063008D01*
X175371209Y-111014000D01*
X175371209Y-109397138D01*
X175634711Y-110913783D01*
X175787812Y-112207323D01*
X175863904Y-114144000D01*
X175826307Y-115100907D01*
X175548368Y-118063910D01*
X175208788Y-119771096D01*
X174167124Y-123066035D01*
X172233753Y-126872981D01*
X170770442Y-129019171D01*
X170767089Y-129003228D01*
X170747749Y-128957939D01*
X170719944Y-128917294D01*
X169627205Y-127615019D01*
X169592006Y-127580579D01*
X169550763Y-127553668D01*
X169505064Y-127535320D01*
X169456662Y-127526240D01*
X169407420Y-127526777D01*
X169359228Y-127536911D01*
X169313939Y-127556251D01*
X169273294Y-127584056D01*
X167971019Y-128676795D01*
X167936579Y-128711994D01*
X167909668Y-128753237D01*
X167891320Y-128798936D01*
X167882240Y-128847338D01*
X167882777Y-128896580D01*
X167892911Y-128944772D01*
X167912251Y-128990061D01*
X167940056Y-129030706D01*
X169032795Y-130332981D01*
X169067994Y-130367421D01*
X169109237Y-130394332D01*
X169154936Y-130412680D01*
X169203338Y-130421760D01*
X169252580Y-130421223D01*
X169300772Y-130411089D01*
X169346061Y-130391749D01*
X169386706Y-130363944D01*
X170477756Y-129448444D01*
X170191415Y-129868411D01*
X169949788Y-130174913D01*
X168776525Y-131444142D01*
X167017759Y-133066058D01*
X165688835Y-134113698D01*
X165665417Y-134129345D01*
X162146335Y-136248126D01*
X160801917Y-136867911D01*
X158312413Y-137647851D01*
X156278992Y-138179271D01*
X159891401Y-134566862D01*
X162672466Y-134566862D01*
X162742053Y-134743230D01*
X162926438Y-134872943D01*
X163132585Y-134964191D01*
X163352573Y-135013468D01*
X163577948Y-135018882D01*
X163800047Y-134980222D01*
X164010338Y-134898976D01*
X164080744Y-134860350D01*
X164179900Y-134698745D01*
X163492125Y-133879086D01*
X162672466Y-134566862D01*
X159891401Y-134566862D01*
X160431715Y-134026549D01*
X160443158Y-134017158D01*
X160467918Y-133986988D01*
X160480647Y-133971478D01*
X160495536Y-133943621D01*
X160508504Y-133919360D01*
X160525659Y-133862810D01*
X160530000Y-133818733D01*
X160530000Y-133818724D01*
X160530674Y-133811874D01*
X162344316Y-133811874D01*
X162354644Y-134037076D01*
X162408709Y-134255937D01*
X162504433Y-134460045D01*
X162666038Y-134559201D01*
X163484228Y-133872658D01*
X163499785Y-133872658D01*
X164187560Y-134692317D01*
X164363929Y-134622730D01*
X164414194Y-134560101D01*
X164530722Y-134367113D01*
X164607361Y-134155101D01*
X164641166Y-133932210D01*
X164630838Y-133707008D01*
X164576773Y-133488147D01*
X164481049Y-133284039D01*
X164319444Y-133184883D01*
X163499785Y-133872658D01*
X163484228Y-133872658D01*
X163485697Y-133871426D01*
X162797922Y-133051767D01*
X162621553Y-133121354D01*
X162571288Y-133183983D01*
X162454760Y-133376971D01*
X162378121Y-133588983D01*
X162344316Y-133811874D01*
X160530674Y-133811874D01*
X160531450Y-133804001D01*
X160530000Y-133789278D01*
X160530000Y-133045339D01*
X162805582Y-133045339D01*
X163493357Y-133864998D01*
X164313016Y-133177222D01*
X164243429Y-133000854D01*
X164059044Y-132871141D01*
X163852897Y-132779893D01*
X163632909Y-132730616D01*
X163407534Y-132725202D01*
X163185435Y-132763862D01*
X162975144Y-132845108D01*
X162904738Y-132883734D01*
X162805582Y-133045339D01*
X160530000Y-133045339D01*
X160530000Y-132239361D01*
X164333172Y-132239361D01*
X164354410Y-132454999D01*
X164417310Y-132662349D01*
X164519452Y-132853445D01*
X164656913Y-133020942D01*
X164824410Y-133158403D01*
X165015506Y-133260545D01*
X165222856Y-133323445D01*
X165384458Y-133339361D01*
X165492530Y-133339361D01*
X165654132Y-133323445D01*
X165861482Y-133260545D01*
X166052578Y-133158403D01*
X166220075Y-133020942D01*
X166357536Y-132853445D01*
X166459678Y-132662349D01*
X166522578Y-132454999D01*
X166543816Y-132239361D01*
X166522578Y-132023723D01*
X166459678Y-131816373D01*
X166357536Y-131625277D01*
X166220075Y-131457780D01*
X166052578Y-131320319D01*
X165861482Y-131218177D01*
X165654132Y-131155277D01*
X165492530Y-131139361D01*
X165384458Y-131139361D01*
X165222856Y-131155277D01*
X165015506Y-131218177D01*
X164824410Y-131320319D01*
X164656913Y-131457780D01*
X164519452Y-131625277D01*
X164417310Y-131816373D01*
X164354410Y-132023723D01*
X164333172Y-132239361D01*
X160530000Y-132239361D01*
X160530000Y-130606681D01*
X166278925Y-130606681D01*
X166300163Y-130822319D01*
X166363063Y-131029669D01*
X166465205Y-131220765D01*
X166602666Y-131388262D01*
X166770163Y-131525723D01*
X166961259Y-131627865D01*
X167168609Y-131690765D01*
X167330211Y-131706681D01*
X167438283Y-131706681D01*
X167599885Y-131690765D01*
X167807235Y-131627865D01*
X167998331Y-131525723D01*
X168165828Y-131388262D01*
X168303289Y-131220765D01*
X168405431Y-131029669D01*
X168468331Y-130822319D01*
X168489569Y-130606681D01*
X168468331Y-130391043D01*
X168405431Y-130183693D01*
X168303289Y-129992597D01*
X168165828Y-129825100D01*
X167998331Y-129687639D01*
X167807235Y-129585497D01*
X167599885Y-129522597D01*
X167438283Y-129506681D01*
X167330211Y-129506681D01*
X167168609Y-129522597D01*
X166961259Y-129585497D01*
X166770163Y-129687639D01*
X166602666Y-129825100D01*
X166465205Y-129992597D01*
X166363063Y-130183693D01*
X166300163Y-130391043D01*
X166278925Y-130606681D01*
X160530000Y-130606681D01*
X160530000Y-119607830D01*
X160531451Y-119593100D01*
X160528102Y-119559100D01*
X160525659Y-119534290D01*
X160512497Y-119490901D01*
X160508504Y-119477739D01*
X160480647Y-119425622D01*
X160452549Y-119391385D01*
X160443158Y-119379942D01*
X160431717Y-119370553D01*
X159716599Y-118655436D01*
X159777184Y-118542088D01*
X159840084Y-118334738D01*
X159861322Y-118119100D01*
X159846523Y-117968836D01*
X173134951Y-117968836D01*
X173150618Y-118047598D01*
X173223552Y-118260914D01*
X173336700Y-118455902D01*
X173485715Y-118625069D01*
X173664869Y-118761915D01*
X173867278Y-118861180D01*
X174085164Y-118919049D01*
X174265000Y-118858989D01*
X174265000Y-117789000D01*
X174275000Y-117789000D01*
X174275000Y-118858989D01*
X174454836Y-118919049D01*
X174672722Y-118861180D01*
X174875131Y-118761915D01*
X175054285Y-118625069D01*
X175203300Y-118455902D01*
X175316448Y-118260914D01*
X175389382Y-118047598D01*
X175405049Y-117968836D01*
X175344988Y-117789000D01*
X174275000Y-117789000D01*
X174265000Y-117789000D01*
X173195012Y-117789000D01*
X173134951Y-117968836D01*
X159846523Y-117968836D01*
X159840084Y-117903462D01*
X159777184Y-117696112D01*
X159725365Y-117599164D01*
X173134951Y-117599164D01*
X173195012Y-117779000D01*
X174265000Y-117779000D01*
X174265000Y-116709011D01*
X174275000Y-116709011D01*
X174275000Y-117779000D01*
X175344988Y-117779000D01*
X175405049Y-117599164D01*
X175389382Y-117520402D01*
X175316448Y-117307086D01*
X175203300Y-117112098D01*
X175054285Y-116942931D01*
X174875131Y-116806085D01*
X174672722Y-116706820D01*
X174454836Y-116648951D01*
X174275000Y-116709011D01*
X174265000Y-116709011D01*
X174085164Y-116648951D01*
X173867278Y-116706820D01*
X173664869Y-116806085D01*
X173485715Y-116942931D01*
X173336700Y-117112098D01*
X173223552Y-117307086D01*
X173150618Y-117520402D01*
X173134951Y-117599164D01*
X159725365Y-117599164D01*
X159675042Y-117505016D01*
X159537581Y-117337519D01*
X159370084Y-117200058D01*
X159178988Y-117097916D01*
X158971638Y-117035016D01*
X158810036Y-117019100D01*
X158701964Y-117019100D01*
X158540362Y-117035016D01*
X158333012Y-117097916D01*
X158141916Y-117200058D01*
X158055999Y-117270568D01*
X158055999Y-116703364D01*
X158219664Y-116539699D01*
X158333012Y-116600284D01*
X158540362Y-116663184D01*
X158701964Y-116679100D01*
X158810036Y-116679100D01*
X158971638Y-116663184D01*
X159178988Y-116600284D01*
X159370084Y-116498142D01*
X159537581Y-116360681D01*
X159675042Y-116193184D01*
X159777184Y-116002088D01*
X159840084Y-115794738D01*
X159861322Y-115579100D01*
X159840084Y-115363462D01*
X159803845Y-115244000D01*
X173164678Y-115244000D01*
X173185916Y-115459638D01*
X173248816Y-115666988D01*
X173350958Y-115858084D01*
X173488419Y-116025581D01*
X173655916Y-116163042D01*
X173847012Y-116265184D01*
X174054362Y-116328084D01*
X174215964Y-116344000D01*
X174324036Y-116344000D01*
X174485638Y-116328084D01*
X174692988Y-116265184D01*
X174884084Y-116163042D01*
X175051581Y-116025581D01*
X175189042Y-115858084D01*
X175291184Y-115666988D01*
X175354084Y-115459638D01*
X175375322Y-115244000D01*
X175354084Y-115028362D01*
X175291184Y-114821012D01*
X175189042Y-114629916D01*
X175051581Y-114462419D01*
X174884084Y-114324958D01*
X174692988Y-114222816D01*
X174485638Y-114159916D01*
X174324036Y-114144000D01*
X174215964Y-114144000D01*
X174054362Y-114159916D01*
X173847012Y-114222816D01*
X173655916Y-114324958D01*
X173488419Y-114462419D01*
X173350958Y-114629916D01*
X173248816Y-114821012D01*
X173185916Y-115028362D01*
X173164678Y-115244000D01*
X159803845Y-115244000D01*
X159777184Y-115156112D01*
X159675042Y-114965016D01*
X159537581Y-114797519D01*
X159370084Y-114660058D01*
X159178988Y-114557916D01*
X158971638Y-114495016D01*
X158810036Y-114479100D01*
X158701964Y-114479100D01*
X158540362Y-114495016D01*
X158333012Y-114557916D01*
X158141916Y-114660058D01*
X157974419Y-114797519D01*
X157836958Y-114965016D01*
X157734816Y-115156112D01*
X157671916Y-115363462D01*
X157650678Y-115579100D01*
X157671916Y-115794738D01*
X157734816Y-116002088D01*
X157795401Y-116115436D01*
X157554289Y-116356548D01*
X157542841Y-116365943D01*
X157527051Y-116385184D01*
X157505352Y-116411624D01*
X157490463Y-116439481D01*
X157477495Y-116463742D01*
X157460340Y-116520292D01*
X157455999Y-116564369D01*
X157455999Y-116564378D01*
X157454549Y-116579101D01*
X157455999Y-116593824D01*
X157456000Y-131983736D01*
X152111342Y-137328395D01*
X152089246Y-137324000D01*
X151990754Y-137324000D01*
X151894155Y-137343215D01*
X151803161Y-137380906D01*
X151721269Y-137435625D01*
X151651625Y-137505269D01*
X151596906Y-137587161D01*
X151559215Y-137678155D01*
X151540000Y-137774754D01*
X151540000Y-137873246D01*
X151550096Y-137924001D01*
X151514265Y-137924001D01*
X151475605Y-137885341D01*
X151480000Y-137863246D01*
X151480000Y-137764754D01*
X151460785Y-137668155D01*
X151423094Y-137577161D01*
X151368375Y-137495269D01*
X151298731Y-137425625D01*
X151216839Y-137370906D01*
X151125845Y-137333215D01*
X151029246Y-137314000D01*
X150930754Y-137314000D01*
X150834155Y-137333215D01*
X150743161Y-137370906D01*
X150661269Y-137425625D01*
X150591625Y-137495269D01*
X150536906Y-137577161D01*
X150499215Y-137668155D01*
X150480000Y-137764754D01*
X150480000Y-137863246D01*
X150499215Y-137959845D01*
X150536906Y-138050839D01*
X150591625Y-138132731D01*
X150661269Y-138202375D01*
X150743161Y-138257094D01*
X150834155Y-138294785D01*
X150930754Y-138314000D01*
X151029246Y-138314000D01*
X151051341Y-138309605D01*
X151167452Y-138425716D01*
X151176843Y-138437159D01*
X151188286Y-138446550D01*
X151222523Y-138474648D01*
X151250380Y-138489537D01*
X151274641Y-138502505D01*
X151331191Y-138519660D01*
X151375268Y-138524001D01*
X151375278Y-138524001D01*
X151390001Y-138525451D01*
X151404724Y-138524001D01*
X154959921Y-138524001D01*
X154892443Y-138541636D01*
X153792765Y-138671792D01*
X150301542Y-138791962D01*
X149635257Y-138679712D01*
X149671441Y-138592357D01*
X149690656Y-138495758D01*
X149690656Y-138397266D01*
X149671441Y-138300667D01*
X149633750Y-138209673D01*
X149579031Y-138127781D01*
X149509387Y-138058137D01*
X149427495Y-138003418D01*
X149336501Y-137965727D01*
X149239902Y-137946512D01*
X149141410Y-137946512D01*
X149044811Y-137965727D01*
X148953817Y-138003418D01*
X148871925Y-138058137D01*
X148802281Y-138127781D01*
X148747562Y-138209673D01*
X148709871Y-138300667D01*
X148690656Y-138397266D01*
X148690656Y-138495758D01*
X148695763Y-138521433D01*
X143933197Y-137719073D01*
X143412367Y-137499755D01*
X148150000Y-137499755D01*
X148150000Y-137598247D01*
X148169215Y-137694846D01*
X148206906Y-137785840D01*
X148261625Y-137867732D01*
X148331269Y-137937376D01*
X148413161Y-137992095D01*
X148504155Y-138029786D01*
X148600754Y-138049001D01*
X148699246Y-138049001D01*
X148795845Y-138029786D01*
X148886839Y-137992095D01*
X148968731Y-137937376D01*
X149038375Y-137867732D01*
X149093094Y-137785840D01*
X149130785Y-137694846D01*
X149150000Y-137598247D01*
X149150000Y-137499755D01*
X149130785Y-137403156D01*
X149093094Y-137312162D01*
X149038375Y-137230270D01*
X148968731Y-137160626D01*
X148886839Y-137105907D01*
X148795845Y-137068216D01*
X148699246Y-137049001D01*
X148600754Y-137049001D01*
X148504155Y-137068216D01*
X148413161Y-137105907D01*
X148331269Y-137160626D01*
X148261625Y-137230270D01*
X148206906Y-137312162D01*
X148169215Y-137403156D01*
X148150000Y-137499755D01*
X143412367Y-137499755D01*
X142314536Y-137037467D01*
X142866836Y-137037467D01*
X142992548Y-137179399D01*
X143068592Y-137205212D01*
X143289796Y-137248708D01*
X143515234Y-137248213D01*
X143736245Y-137203745D01*
X143944334Y-137117016D01*
X144131504Y-136991357D01*
X144290563Y-136831597D01*
X144328468Y-136645825D01*
X143401830Y-136110830D01*
X142866836Y-137037467D01*
X142314536Y-137037467D01*
X140832878Y-136413552D01*
X140314406Y-136139101D01*
X142250535Y-136139101D01*
X142279470Y-136362676D01*
X142351466Y-136576311D01*
X142463756Y-136771794D01*
X142612026Y-136941614D01*
X142672403Y-136994563D01*
X142858176Y-137032467D01*
X143393170Y-136105830D01*
X143386831Y-136102170D01*
X143406830Y-136102170D01*
X144333468Y-136637164D01*
X144475399Y-136511452D01*
X144534226Y-136293823D01*
X144542970Y-136164754D01*
X148670000Y-136164754D01*
X148670000Y-136263246D01*
X148689215Y-136359845D01*
X148726906Y-136450839D01*
X148781625Y-136532731D01*
X148851269Y-136602375D01*
X148933161Y-136657094D01*
X149024155Y-136694785D01*
X149120754Y-136714000D01*
X149219246Y-136714000D01*
X149315845Y-136694785D01*
X149406839Y-136657094D01*
X149455238Y-136624754D01*
X150030000Y-136624754D01*
X150030000Y-136723246D01*
X150049215Y-136819845D01*
X150086906Y-136910839D01*
X150141625Y-136992731D01*
X150211269Y-137062375D01*
X150293161Y-137117094D01*
X150384155Y-137154785D01*
X150480754Y-137174000D01*
X150579246Y-137174000D01*
X150675845Y-137154785D01*
X150766839Y-137117094D01*
X150848731Y-137062375D01*
X150918375Y-136992731D01*
X150973094Y-136910839D01*
X151010785Y-136819845D01*
X151030000Y-136723246D01*
X151030000Y-136624754D01*
X151010785Y-136528155D01*
X150973094Y-136437161D01*
X150918375Y-136355269D01*
X150848731Y-136285625D01*
X150766839Y-136230906D01*
X150675845Y-136193215D01*
X150579246Y-136174000D01*
X150480754Y-136174000D01*
X150384155Y-136193215D01*
X150293161Y-136230906D01*
X150211269Y-136285625D01*
X150141625Y-136355269D01*
X150086906Y-136437161D01*
X150049215Y-136528155D01*
X150030000Y-136624754D01*
X149455238Y-136624754D01*
X149488731Y-136602375D01*
X149558375Y-136532731D01*
X149613094Y-136450839D01*
X149650785Y-136359845D01*
X149670000Y-136263246D01*
X149670000Y-136164754D01*
X149650785Y-136068155D01*
X149613094Y-135977161D01*
X149558375Y-135895269D01*
X149488731Y-135825625D01*
X149406839Y-135770906D01*
X149315845Y-135733215D01*
X149219246Y-135714000D01*
X149120754Y-135714000D01*
X149024155Y-135733215D01*
X148933161Y-135770906D01*
X148851269Y-135825625D01*
X148781625Y-135895269D01*
X148726906Y-135977161D01*
X148689215Y-136068155D01*
X148670000Y-136164754D01*
X144542970Y-136164754D01*
X144549465Y-136068899D01*
X144520530Y-135845324D01*
X144448534Y-135631689D01*
X144336244Y-135436206D01*
X144187974Y-135266386D01*
X144174711Y-135254754D01*
X150520000Y-135254754D01*
X150520000Y-135353246D01*
X150539215Y-135449845D01*
X150576906Y-135540839D01*
X150631625Y-135622731D01*
X150701269Y-135692375D01*
X150783161Y-135747094D01*
X150874155Y-135784785D01*
X150970754Y-135804000D01*
X151069246Y-135804000D01*
X151165845Y-135784785D01*
X151256839Y-135747094D01*
X151338731Y-135692375D01*
X151408375Y-135622731D01*
X151463094Y-135540839D01*
X151500785Y-135449845D01*
X151520000Y-135353246D01*
X151520000Y-135254754D01*
X151500785Y-135158155D01*
X151463094Y-135067161D01*
X151416155Y-134996911D01*
X152812157Y-134996911D01*
X152812157Y-135095403D01*
X152831372Y-135192002D01*
X152869063Y-135282996D01*
X152923782Y-135364888D01*
X152993426Y-135434532D01*
X153075318Y-135489251D01*
X153166312Y-135526942D01*
X153262911Y-135546157D01*
X153361403Y-135546157D01*
X153458002Y-135526942D01*
X153548996Y-135489251D01*
X153630888Y-135434532D01*
X153700532Y-135364888D01*
X153755251Y-135282996D01*
X153792942Y-135192002D01*
X153812157Y-135095403D01*
X153812157Y-134996911D01*
X153792942Y-134900312D01*
X153755251Y-134809318D01*
X153700532Y-134727426D01*
X153630888Y-134657782D01*
X153548996Y-134603063D01*
X153458002Y-134565372D01*
X153361403Y-134546157D01*
X153262911Y-134546157D01*
X153166312Y-134565372D01*
X153075318Y-134603063D01*
X152993426Y-134657782D01*
X152923782Y-134727426D01*
X152869063Y-134809318D01*
X152831372Y-134900312D01*
X152812157Y-134996911D01*
X151416155Y-134996911D01*
X151408375Y-134985269D01*
X151338731Y-134915625D01*
X151256839Y-134860906D01*
X151165845Y-134823215D01*
X151069246Y-134804000D01*
X150970754Y-134804000D01*
X150874155Y-134823215D01*
X150783161Y-134860906D01*
X150701269Y-134915625D01*
X150631625Y-134985269D01*
X150576906Y-135067161D01*
X150539215Y-135158155D01*
X150520000Y-135254754D01*
X144174711Y-135254754D01*
X144127597Y-135213437D01*
X143941824Y-135175533D01*
X143406830Y-136102170D01*
X143386831Y-136102170D01*
X142466532Y-135570836D01*
X142324601Y-135696548D01*
X142265774Y-135914177D01*
X142250535Y-136139101D01*
X140314406Y-136139101D01*
X137848908Y-134834000D01*
X140094973Y-134834000D01*
X140116211Y-135049638D01*
X140179111Y-135256988D01*
X140281253Y-135448084D01*
X140418714Y-135615581D01*
X140586211Y-135753042D01*
X140777307Y-135855184D01*
X140984657Y-135918084D01*
X141146259Y-135934000D01*
X141254331Y-135934000D01*
X141415933Y-135918084D01*
X141623283Y-135855184D01*
X141814379Y-135753042D01*
X141981876Y-135615581D01*
X142025705Y-135562175D01*
X142471532Y-135562175D01*
X143398170Y-136097170D01*
X143933164Y-135170533D01*
X143807452Y-135028601D01*
X143731408Y-135002788D01*
X143510204Y-134959292D01*
X143284766Y-134959787D01*
X143063755Y-135004255D01*
X142855666Y-135090984D01*
X142668496Y-135216643D01*
X142509437Y-135376403D01*
X142471532Y-135562175D01*
X142025705Y-135562175D01*
X142119337Y-135448084D01*
X142221479Y-135256988D01*
X142284379Y-135049638D01*
X142305617Y-134834000D01*
X142284379Y-134618362D01*
X142221479Y-134411012D01*
X142119337Y-134219916D01*
X141981876Y-134052419D01*
X141814379Y-133914958D01*
X141623283Y-133812816D01*
X141415933Y-133749916D01*
X141254331Y-133734000D01*
X141146259Y-133734000D01*
X140984657Y-133749916D01*
X140777307Y-133812816D01*
X140586211Y-133914958D01*
X140418714Y-134052419D01*
X140281253Y-134219916D01*
X140179111Y-134411012D01*
X140116211Y-134618362D01*
X140094973Y-134834000D01*
X137848908Y-134834000D01*
X137578158Y-134690680D01*
X135133138Y-132621552D01*
X135389093Y-132621552D01*
X135397115Y-132670140D01*
X135414462Y-132716229D01*
X135440467Y-132758048D01*
X135474130Y-132793991D01*
X135514160Y-132822675D01*
X136986404Y-133672675D01*
X137031260Y-133692999D01*
X137079219Y-133704182D01*
X137128438Y-133705793D01*
X137177026Y-133697771D01*
X137223115Y-133680424D01*
X137264934Y-133654419D01*
X137300877Y-133620756D01*
X137329561Y-133580726D01*
X137339217Y-133564000D01*
X137895269Y-133564000D01*
X137916507Y-133779638D01*
X137979407Y-133986988D01*
X138081549Y-134178084D01*
X138219010Y-134345581D01*
X138386507Y-134483042D01*
X138577603Y-134585184D01*
X138784953Y-134648084D01*
X138946555Y-134664000D01*
X139054627Y-134664000D01*
X139216229Y-134648084D01*
X139423579Y-134585184D01*
X139614675Y-134483042D01*
X139782172Y-134345581D01*
X139919633Y-134178084D01*
X140021775Y-133986988D01*
X140084675Y-133779638D01*
X140105913Y-133564000D01*
X140084675Y-133348362D01*
X140021775Y-133141012D01*
X139919633Y-132949916D01*
X139782172Y-132782419D01*
X139614675Y-132644958D01*
X139423579Y-132542816D01*
X139216229Y-132479916D01*
X139054627Y-132464000D01*
X138946555Y-132464000D01*
X138784953Y-132479916D01*
X138577603Y-132542816D01*
X138386507Y-132644958D01*
X138219010Y-132782419D01*
X138081549Y-132949916D01*
X137979407Y-133141012D01*
X137916507Y-133348362D01*
X137895269Y-133564000D01*
X137339217Y-133564000D01*
X138179561Y-132108482D01*
X138199885Y-132063626D01*
X138211068Y-132015667D01*
X138212679Y-131966448D01*
X138204657Y-131917860D01*
X138187310Y-131871771D01*
X138161305Y-131829952D01*
X138127642Y-131794009D01*
X138087612Y-131765325D01*
X136615368Y-130915325D01*
X136570512Y-130895001D01*
X136522553Y-130883818D01*
X136473334Y-130882207D01*
X136424746Y-130890229D01*
X136378657Y-130907576D01*
X136336838Y-130933581D01*
X136300895Y-130967244D01*
X136272211Y-131007274D01*
X135422211Y-132479518D01*
X135401887Y-132524374D01*
X135390704Y-132572333D01*
X135389093Y-132621552D01*
X135133138Y-132621552D01*
X133965397Y-131633338D01*
X133288880Y-130819100D01*
X142410678Y-130819100D01*
X142431916Y-131034738D01*
X142494816Y-131242088D01*
X142596958Y-131433184D01*
X142734419Y-131600681D01*
X142901916Y-131738142D01*
X143093012Y-131840284D01*
X143300362Y-131903184D01*
X143461964Y-131919100D01*
X143570036Y-131919100D01*
X143731638Y-131903184D01*
X143938988Y-131840284D01*
X144130084Y-131738142D01*
X144297581Y-131600681D01*
X144435042Y-131433184D01*
X144537184Y-131242088D01*
X144600084Y-131034738D01*
X144621322Y-130819100D01*
X144600084Y-130603462D01*
X144537184Y-130396112D01*
X144435042Y-130205016D01*
X144297581Y-130037519D01*
X144130084Y-129900058D01*
X143938988Y-129797916D01*
X143731638Y-129735016D01*
X143570036Y-129719100D01*
X143461964Y-129719100D01*
X143300362Y-129735016D01*
X143093012Y-129797916D01*
X142901916Y-129900058D01*
X142734419Y-130037519D01*
X142596958Y-130205016D01*
X142494816Y-130396112D01*
X142431916Y-130603462D01*
X142410678Y-130819100D01*
X133288880Y-130819100D01*
X132243336Y-129560712D01*
X132205151Y-129513193D01*
X145826489Y-129513193D01*
X145826489Y-129611685D01*
X145845704Y-129708284D01*
X145883395Y-129799278D01*
X145938114Y-129881170D01*
X146007758Y-129950814D01*
X146089650Y-130005533D01*
X146180644Y-130043224D01*
X146277243Y-130062439D01*
X146375735Y-130062439D01*
X146472334Y-130043224D01*
X146563328Y-130005533D01*
X146645220Y-129950814D01*
X146714864Y-129881170D01*
X146769583Y-129799278D01*
X146807274Y-129708284D01*
X146826489Y-129611685D01*
X146826489Y-129513193D01*
X146815394Y-129457414D01*
X147571395Y-129457414D01*
X147571395Y-129555906D01*
X147590610Y-129652505D01*
X147628301Y-129743499D01*
X147683020Y-129825391D01*
X147752664Y-129895035D01*
X147834556Y-129949754D01*
X147925550Y-129987445D01*
X148022149Y-130006660D01*
X148120641Y-130006660D01*
X148217240Y-129987445D01*
X148308234Y-129949754D01*
X148390126Y-129895035D01*
X148409882Y-129875279D01*
X154587197Y-129875279D01*
X154587197Y-129973771D01*
X154606412Y-130070370D01*
X154644103Y-130161364D01*
X154698822Y-130243256D01*
X154768466Y-130312900D01*
X154850358Y-130367619D01*
X154941352Y-130405310D01*
X155037951Y-130424525D01*
X155136443Y-130424525D01*
X155233042Y-130405310D01*
X155324036Y-130367619D01*
X155405928Y-130312900D01*
X155475572Y-130243256D01*
X155530291Y-130161364D01*
X155567982Y-130070370D01*
X155587197Y-129973771D01*
X155587197Y-129875279D01*
X155567982Y-129778680D01*
X155530291Y-129687686D01*
X155475572Y-129605794D01*
X155405928Y-129536150D01*
X155324036Y-129481431D01*
X155233042Y-129443740D01*
X155136443Y-129424525D01*
X155037951Y-129424525D01*
X154941352Y-129443740D01*
X154850358Y-129481431D01*
X154768466Y-129536150D01*
X154698822Y-129605794D01*
X154644103Y-129687686D01*
X154606412Y-129778680D01*
X154587197Y-129875279D01*
X148409882Y-129875279D01*
X148459770Y-129825391D01*
X148514489Y-129743499D01*
X148552180Y-129652505D01*
X148571395Y-129555906D01*
X148571395Y-129457414D01*
X148552180Y-129360815D01*
X148514489Y-129269821D01*
X148459770Y-129187929D01*
X148390126Y-129118285D01*
X148308234Y-129063566D01*
X148217240Y-129025875D01*
X148120641Y-129006660D01*
X148022149Y-129006660D01*
X147925550Y-129025875D01*
X147834556Y-129063566D01*
X147752664Y-129118285D01*
X147683020Y-129187929D01*
X147628301Y-129269821D01*
X147590610Y-129360815D01*
X147571395Y-129457414D01*
X146815394Y-129457414D01*
X146807274Y-129416594D01*
X146769583Y-129325600D01*
X146714864Y-129243708D01*
X146645220Y-129174064D01*
X146563328Y-129119345D01*
X146472334Y-129081654D01*
X146375735Y-129062439D01*
X146277243Y-129062439D01*
X146180644Y-129081654D01*
X146089650Y-129119345D01*
X146007758Y-129174064D01*
X145938114Y-129243708D01*
X145883395Y-129325600D01*
X145845704Y-129416594D01*
X145826489Y-129513193D01*
X132205151Y-129513193D01*
X131213463Y-128279100D01*
X142410678Y-128279100D01*
X142431916Y-128494738D01*
X142494816Y-128702088D01*
X142596958Y-128893184D01*
X142734419Y-129060681D01*
X142901916Y-129198142D01*
X143093012Y-129300284D01*
X143300362Y-129363184D01*
X143461964Y-129379100D01*
X143570036Y-129379100D01*
X143731638Y-129363184D01*
X143938988Y-129300284D01*
X144130084Y-129198142D01*
X144297581Y-129060681D01*
X144435042Y-128893184D01*
X144537184Y-128702088D01*
X144600084Y-128494738D01*
X144621322Y-128279100D01*
X144600084Y-128063462D01*
X144537184Y-127856112D01*
X144435042Y-127665016D01*
X144297581Y-127497519D01*
X144130084Y-127360058D01*
X143938988Y-127257916D01*
X143731638Y-127195016D01*
X143570036Y-127179100D01*
X143461964Y-127179100D01*
X143300362Y-127195016D01*
X143093012Y-127257916D01*
X142901916Y-127360058D01*
X142734419Y-127497519D01*
X142596958Y-127665016D01*
X142494816Y-127856112D01*
X142431916Y-128063462D01*
X142410678Y-128279100D01*
X131213463Y-128279100D01*
X130025951Y-126801317D01*
X129547992Y-125739100D01*
X142410678Y-125739100D01*
X142431916Y-125954738D01*
X142494816Y-126162088D01*
X142596958Y-126353184D01*
X142734419Y-126520681D01*
X142901916Y-126658142D01*
X143093012Y-126760284D01*
X143300362Y-126823184D01*
X143461964Y-126839100D01*
X143570036Y-126839100D01*
X143731638Y-126823184D01*
X143858322Y-126784754D01*
X145200000Y-126784754D01*
X145200000Y-126883246D01*
X145219215Y-126979845D01*
X145256906Y-127070839D01*
X145311625Y-127152731D01*
X145381269Y-127222375D01*
X145463161Y-127277094D01*
X145554155Y-127314785D01*
X145650754Y-127334000D01*
X145749246Y-127334000D01*
X145845845Y-127314785D01*
X145936839Y-127277094D01*
X146018731Y-127222375D01*
X146088375Y-127152731D01*
X146143094Y-127070839D01*
X146170467Y-127004754D01*
X153580000Y-127004754D01*
X153580000Y-127103246D01*
X153599215Y-127199845D01*
X153636906Y-127290839D01*
X153691625Y-127372731D01*
X153761269Y-127442375D01*
X153843161Y-127497094D01*
X153934155Y-127534785D01*
X154030754Y-127554000D01*
X154129246Y-127554000D01*
X154225845Y-127534785D01*
X154316839Y-127497094D01*
X154398731Y-127442375D01*
X154468375Y-127372731D01*
X154523094Y-127290839D01*
X154560785Y-127199845D01*
X154580000Y-127103246D01*
X154580000Y-127004754D01*
X154560785Y-126908155D01*
X154523094Y-126817161D01*
X154468375Y-126735269D01*
X154398731Y-126665625D01*
X154316839Y-126610906D01*
X154225845Y-126573215D01*
X154129246Y-126554000D01*
X154030754Y-126554000D01*
X153934155Y-126573215D01*
X153843161Y-126610906D01*
X153761269Y-126665625D01*
X153691625Y-126735269D01*
X153636906Y-126817161D01*
X153599215Y-126908155D01*
X153580000Y-127004754D01*
X146170467Y-127004754D01*
X146180785Y-126979845D01*
X146200000Y-126883246D01*
X146200000Y-126784754D01*
X146180785Y-126688155D01*
X146143094Y-126597161D01*
X146088375Y-126515269D01*
X146018731Y-126445625D01*
X145936839Y-126390906D01*
X145845845Y-126353215D01*
X145749246Y-126334000D01*
X145650754Y-126334000D01*
X145554155Y-126353215D01*
X145463161Y-126390906D01*
X145381269Y-126445625D01*
X145311625Y-126515269D01*
X145256906Y-126597161D01*
X145219215Y-126688155D01*
X145200000Y-126784754D01*
X143858322Y-126784754D01*
X143938988Y-126760284D01*
X144130084Y-126658142D01*
X144297581Y-126520681D01*
X144435042Y-126353184D01*
X144537184Y-126162088D01*
X144546410Y-126131672D01*
X151526849Y-126131672D01*
X151526849Y-126230164D01*
X151546064Y-126326763D01*
X151583755Y-126417757D01*
X151638474Y-126499649D01*
X151708118Y-126569293D01*
X151790010Y-126624012D01*
X151881004Y-126661703D01*
X151977603Y-126680918D01*
X152076095Y-126680918D01*
X152172694Y-126661703D01*
X152263688Y-126624012D01*
X152345580Y-126569293D01*
X152415224Y-126499649D01*
X152469943Y-126417757D01*
X152507634Y-126326763D01*
X152526849Y-126230164D01*
X152526849Y-126131672D01*
X152507634Y-126035073D01*
X152469943Y-125944079D01*
X152415224Y-125862187D01*
X152345580Y-125792543D01*
X152263688Y-125737824D01*
X152172694Y-125700133D01*
X152121019Y-125689854D01*
X154456000Y-125689854D01*
X154456000Y-125788346D01*
X154475215Y-125884945D01*
X154512906Y-125975939D01*
X154567625Y-126057831D01*
X154637269Y-126127475D01*
X154719161Y-126182194D01*
X154810155Y-126219885D01*
X154906754Y-126239100D01*
X155005246Y-126239100D01*
X155101845Y-126219885D01*
X155192839Y-126182194D01*
X155274731Y-126127475D01*
X155344375Y-126057831D01*
X155399094Y-125975939D01*
X155436785Y-125884945D01*
X155456000Y-125788346D01*
X155456000Y-125689854D01*
X155436785Y-125593255D01*
X155399094Y-125502261D01*
X155344375Y-125420369D01*
X155274731Y-125350725D01*
X155192839Y-125296006D01*
X155101845Y-125258315D01*
X155005246Y-125239100D01*
X154906754Y-125239100D01*
X154810155Y-125258315D01*
X154719161Y-125296006D01*
X154637269Y-125350725D01*
X154567625Y-125420369D01*
X154512906Y-125502261D01*
X154475215Y-125593255D01*
X154456000Y-125689854D01*
X152121019Y-125689854D01*
X152076095Y-125680918D01*
X151977603Y-125680918D01*
X151881004Y-125700133D01*
X151790010Y-125737824D01*
X151708118Y-125792543D01*
X151638474Y-125862187D01*
X151583755Y-125944079D01*
X151546064Y-126035073D01*
X151526849Y-126131672D01*
X144546410Y-126131672D01*
X144600084Y-125954738D01*
X144621322Y-125739100D01*
X144600084Y-125523462D01*
X144537184Y-125316112D01*
X144435042Y-125125016D01*
X144297581Y-124957519D01*
X144130084Y-124820058D01*
X143938988Y-124717916D01*
X143731638Y-124655016D01*
X143570036Y-124639100D01*
X143461964Y-124639100D01*
X143300362Y-124655016D01*
X143093012Y-124717916D01*
X142901916Y-124820058D01*
X142734419Y-124957519D01*
X142596958Y-125125016D01*
X142494816Y-125316112D01*
X142431916Y-125523462D01*
X142410678Y-125739100D01*
X129547992Y-125739100D01*
X128405084Y-123199100D01*
X142410678Y-123199100D01*
X142431916Y-123414738D01*
X142494816Y-123622088D01*
X142596958Y-123813184D01*
X142734419Y-123980681D01*
X142901916Y-124118142D01*
X143093012Y-124220284D01*
X143300362Y-124283184D01*
X143461964Y-124299100D01*
X143570036Y-124299100D01*
X143731638Y-124283184D01*
X143858322Y-124244754D01*
X147330000Y-124244754D01*
X147330000Y-124343246D01*
X147349215Y-124439845D01*
X147386906Y-124530839D01*
X147441625Y-124612731D01*
X147511269Y-124682375D01*
X147593161Y-124737094D01*
X147684155Y-124774785D01*
X147780754Y-124794000D01*
X147879246Y-124794000D01*
X147975845Y-124774785D01*
X148066839Y-124737094D01*
X148148731Y-124682375D01*
X148218375Y-124612731D01*
X148273094Y-124530839D01*
X148310785Y-124439845D01*
X148330000Y-124343246D01*
X148330000Y-124244754D01*
X148318326Y-124186063D01*
X148990990Y-124186063D01*
X148990990Y-124284555D01*
X149010205Y-124381154D01*
X149047896Y-124472148D01*
X149102615Y-124554040D01*
X149172259Y-124623684D01*
X149254151Y-124678403D01*
X149345145Y-124716094D01*
X149441744Y-124735309D01*
X149540236Y-124735309D01*
X149636835Y-124716094D01*
X149727829Y-124678403D01*
X149809721Y-124623684D01*
X149879365Y-124554040D01*
X149934084Y-124472148D01*
X149971775Y-124381154D01*
X149980954Y-124335004D01*
X150067069Y-124335004D01*
X150067069Y-124433496D01*
X150086284Y-124530095D01*
X150123975Y-124621089D01*
X150178694Y-124702981D01*
X150248338Y-124772625D01*
X150330230Y-124827344D01*
X150421224Y-124865035D01*
X150517823Y-124884250D01*
X150616315Y-124884250D01*
X150712914Y-124865035D01*
X150803908Y-124827344D01*
X150885800Y-124772625D01*
X150953671Y-124704754D01*
X155082044Y-124704754D01*
X155082044Y-124803246D01*
X155101259Y-124899845D01*
X155138950Y-124990839D01*
X155193669Y-125072731D01*
X155263313Y-125142375D01*
X155345205Y-125197094D01*
X155436199Y-125234785D01*
X155532798Y-125254000D01*
X155631290Y-125254000D01*
X155727889Y-125234785D01*
X155818883Y-125197094D01*
X155900775Y-125142375D01*
X155970419Y-125072731D01*
X156025138Y-124990839D01*
X156062829Y-124899845D01*
X156082044Y-124803246D01*
X156082044Y-124704754D01*
X156062829Y-124608155D01*
X156025138Y-124517161D01*
X155970419Y-124435269D01*
X155900775Y-124365625D01*
X155818883Y-124310906D01*
X155727889Y-124273215D01*
X155631290Y-124254000D01*
X155532798Y-124254000D01*
X155436199Y-124273215D01*
X155345205Y-124310906D01*
X155263313Y-124365625D01*
X155193669Y-124435269D01*
X155138950Y-124517161D01*
X155101259Y-124608155D01*
X155082044Y-124704754D01*
X150953671Y-124704754D01*
X150955444Y-124702981D01*
X151010163Y-124621089D01*
X151047854Y-124530095D01*
X151067069Y-124433496D01*
X151067069Y-124335004D01*
X151047854Y-124238405D01*
X151010163Y-124147411D01*
X150955444Y-124065519D01*
X150885800Y-123995875D01*
X150803908Y-123941156D01*
X150712914Y-123903465D01*
X150616315Y-123884250D01*
X150517823Y-123884250D01*
X150421224Y-123903465D01*
X150330230Y-123941156D01*
X150248338Y-123995875D01*
X150178694Y-124065519D01*
X150123975Y-124147411D01*
X150086284Y-124238405D01*
X150067069Y-124335004D01*
X149980954Y-124335004D01*
X149990990Y-124284555D01*
X149990990Y-124186063D01*
X149971775Y-124089464D01*
X149934084Y-123998470D01*
X149879365Y-123916578D01*
X149809721Y-123846934D01*
X149727829Y-123792215D01*
X149636835Y-123754524D01*
X149540236Y-123735309D01*
X149441744Y-123735309D01*
X149345145Y-123754524D01*
X149254151Y-123792215D01*
X149172259Y-123846934D01*
X149102615Y-123916578D01*
X149047896Y-123998470D01*
X149010205Y-124089464D01*
X148990990Y-124186063D01*
X148318326Y-124186063D01*
X148310785Y-124148155D01*
X148273094Y-124057161D01*
X148218375Y-123975269D01*
X148148731Y-123905625D01*
X148066839Y-123850906D01*
X147975845Y-123813215D01*
X147879246Y-123794000D01*
X147780754Y-123794000D01*
X147684155Y-123813215D01*
X147593161Y-123850906D01*
X147511269Y-123905625D01*
X147441625Y-123975269D01*
X147386906Y-124057161D01*
X147349215Y-124148155D01*
X147330000Y-124244754D01*
X143858322Y-124244754D01*
X143938988Y-124220284D01*
X144130084Y-124118142D01*
X144297581Y-123980681D01*
X144435042Y-123813184D01*
X144537184Y-123622088D01*
X144600084Y-123414738D01*
X144621322Y-123199100D01*
X144616472Y-123149854D01*
X149406000Y-123149854D01*
X149406000Y-123248346D01*
X149425215Y-123344945D01*
X149462906Y-123435939D01*
X149517625Y-123517831D01*
X149587269Y-123587475D01*
X149669161Y-123642194D01*
X149760155Y-123679885D01*
X149856754Y-123699100D01*
X149955246Y-123699100D01*
X150051845Y-123679885D01*
X150142839Y-123642194D01*
X150224731Y-123587475D01*
X150278464Y-123533742D01*
X151357602Y-123533742D01*
X151357602Y-123632234D01*
X151376817Y-123728833D01*
X151414508Y-123819827D01*
X151469227Y-123901719D01*
X151538871Y-123971363D01*
X151620763Y-124026082D01*
X151711757Y-124063773D01*
X151808356Y-124082988D01*
X151906848Y-124082988D01*
X152003447Y-124063773D01*
X152094441Y-124026082D01*
X152176333Y-123971363D01*
X152245977Y-123901719D01*
X152300696Y-123819827D01*
X152338387Y-123728833D01*
X152357602Y-123632234D01*
X152357602Y-123533742D01*
X152338387Y-123437143D01*
X152300696Y-123346149D01*
X152252741Y-123274381D01*
X152275845Y-123269785D01*
X152366839Y-123232094D01*
X152448731Y-123177375D01*
X152518375Y-123107731D01*
X152573094Y-123025839D01*
X152610785Y-122934845D01*
X152630000Y-122838246D01*
X152630000Y-122739754D01*
X152610785Y-122643155D01*
X152573094Y-122552161D01*
X152518375Y-122470269D01*
X152448731Y-122400625D01*
X152366839Y-122345906D01*
X152275845Y-122308215D01*
X152179246Y-122289000D01*
X152080754Y-122289000D01*
X151984155Y-122308215D01*
X151893161Y-122345906D01*
X151811269Y-122400625D01*
X151741625Y-122470269D01*
X151686906Y-122552161D01*
X151649215Y-122643155D01*
X151630000Y-122739754D01*
X151630000Y-122838246D01*
X151649215Y-122934845D01*
X151686906Y-123025839D01*
X151734861Y-123097607D01*
X151711757Y-123102203D01*
X151620763Y-123139894D01*
X151538871Y-123194613D01*
X151469227Y-123264257D01*
X151414508Y-123346149D01*
X151376817Y-123437143D01*
X151357602Y-123533742D01*
X150278464Y-123533742D01*
X150294375Y-123517831D01*
X150349094Y-123435939D01*
X150386785Y-123344945D01*
X150406000Y-123248346D01*
X150406000Y-123149854D01*
X150386785Y-123053255D01*
X150349094Y-122962261D01*
X150294375Y-122880369D01*
X150224731Y-122810725D01*
X150142839Y-122756006D01*
X150051845Y-122718315D01*
X149955246Y-122699100D01*
X149856754Y-122699100D01*
X149760155Y-122718315D01*
X149669161Y-122756006D01*
X149587269Y-122810725D01*
X149517625Y-122880369D01*
X149462906Y-122962261D01*
X149425215Y-123053255D01*
X149406000Y-123149854D01*
X144616472Y-123149854D01*
X144600084Y-122983462D01*
X144537184Y-122776112D01*
X144435042Y-122585016D01*
X144297581Y-122417519D01*
X144130084Y-122280058D01*
X144013115Y-122217537D01*
X155290815Y-122217537D01*
X155290815Y-122316029D01*
X155310030Y-122412628D01*
X155347721Y-122503622D01*
X155402440Y-122585514D01*
X155472084Y-122655158D01*
X155553976Y-122709877D01*
X155644970Y-122747568D01*
X155741569Y-122766783D01*
X155840061Y-122766783D01*
X155936660Y-122747568D01*
X156027654Y-122709877D01*
X156109546Y-122655158D01*
X156179190Y-122585514D01*
X156233909Y-122503622D01*
X156271600Y-122412628D01*
X156290815Y-122316029D01*
X156290815Y-122217537D01*
X156279523Y-122160770D01*
X156313818Y-122153948D01*
X156404812Y-122116257D01*
X156486704Y-122061538D01*
X156556348Y-121991894D01*
X156611067Y-121910002D01*
X156648758Y-121819008D01*
X156667973Y-121722409D01*
X156667973Y-121623917D01*
X156648758Y-121527318D01*
X156611067Y-121436324D01*
X156556348Y-121354432D01*
X156486704Y-121284788D01*
X156404812Y-121230069D01*
X156313818Y-121192378D01*
X156217219Y-121173163D01*
X156118727Y-121173163D01*
X156022128Y-121192378D01*
X155931134Y-121230069D01*
X155849242Y-121284788D01*
X155779598Y-121354432D01*
X155724879Y-121436324D01*
X155687188Y-121527318D01*
X155667973Y-121623917D01*
X155667973Y-121722409D01*
X155679265Y-121779176D01*
X155644970Y-121785998D01*
X155553976Y-121823689D01*
X155472084Y-121878408D01*
X155402440Y-121948052D01*
X155347721Y-122029944D01*
X155310030Y-122120938D01*
X155290815Y-122217537D01*
X144013115Y-122217537D01*
X143938988Y-122177916D01*
X143731638Y-122115016D01*
X143570036Y-122099100D01*
X143461964Y-122099100D01*
X143300362Y-122115016D01*
X143093012Y-122177916D01*
X142901916Y-122280058D01*
X142734419Y-122417519D01*
X142596958Y-122585016D01*
X142494816Y-122776112D01*
X142431916Y-122983462D01*
X142410678Y-123199100D01*
X128405084Y-123199100D01*
X128160274Y-122655034D01*
X127788789Y-120659100D01*
X142410678Y-120659100D01*
X142431916Y-120874738D01*
X142494816Y-121082088D01*
X142596958Y-121273184D01*
X142734419Y-121440681D01*
X142901916Y-121578142D01*
X143093012Y-121680284D01*
X143300362Y-121743184D01*
X143461964Y-121759100D01*
X143570036Y-121759100D01*
X143731638Y-121743184D01*
X143938988Y-121680284D01*
X144044562Y-121623854D01*
X147986000Y-121623854D01*
X147986000Y-121722346D01*
X148005215Y-121818945D01*
X148042906Y-121909939D01*
X148097625Y-121991831D01*
X148167269Y-122061475D01*
X148249161Y-122116194D01*
X148340155Y-122153885D01*
X148436754Y-122173100D01*
X148535246Y-122173100D01*
X148631845Y-122153885D01*
X148722839Y-122116194D01*
X148804731Y-122061475D01*
X148874375Y-121991831D01*
X148929094Y-121909939D01*
X148966785Y-121818945D01*
X148986000Y-121722346D01*
X148986000Y-121623854D01*
X148966785Y-121527255D01*
X148929094Y-121436261D01*
X148874375Y-121354369D01*
X148804731Y-121284725D01*
X148722839Y-121230006D01*
X148631845Y-121192315D01*
X148535246Y-121173100D01*
X148436754Y-121173100D01*
X148340155Y-121192315D01*
X148249161Y-121230006D01*
X148167269Y-121284725D01*
X148097625Y-121354369D01*
X148042906Y-121436261D01*
X148005215Y-121527255D01*
X147986000Y-121623854D01*
X144044562Y-121623854D01*
X144130084Y-121578142D01*
X144297581Y-121440681D01*
X144435042Y-121273184D01*
X144537184Y-121082088D01*
X144600084Y-120874738D01*
X144621322Y-120659100D01*
X144614519Y-120590026D01*
X149196271Y-120590026D01*
X149196271Y-120688518D01*
X149215486Y-120785117D01*
X149253177Y-120876111D01*
X149307896Y-120958003D01*
X149377540Y-121027647D01*
X149459432Y-121082366D01*
X149550426Y-121120057D01*
X149647025Y-121139272D01*
X149745517Y-121139272D01*
X149842116Y-121120057D01*
X149933110Y-121082366D01*
X150015002Y-121027647D01*
X150077751Y-120964898D01*
X154866793Y-120964898D01*
X154866793Y-121063390D01*
X154886008Y-121159989D01*
X154923699Y-121250983D01*
X154978418Y-121332875D01*
X155048062Y-121402519D01*
X155129954Y-121457238D01*
X155220948Y-121494929D01*
X155317547Y-121514144D01*
X155416039Y-121514144D01*
X155512638Y-121494929D01*
X155603632Y-121457238D01*
X155685524Y-121402519D01*
X155755168Y-121332875D01*
X155809887Y-121250983D01*
X155847578Y-121159989D01*
X155866793Y-121063390D01*
X155866793Y-120964898D01*
X155847578Y-120868299D01*
X155809887Y-120777305D01*
X155755168Y-120695413D01*
X155685524Y-120625769D01*
X155603632Y-120571050D01*
X155512638Y-120533359D01*
X155416039Y-120514144D01*
X155317547Y-120514144D01*
X155220948Y-120533359D01*
X155129954Y-120571050D01*
X155048062Y-120625769D01*
X154978418Y-120695413D01*
X154923699Y-120777305D01*
X154886008Y-120868299D01*
X154866793Y-120964898D01*
X150077751Y-120964898D01*
X150084646Y-120958003D01*
X150139365Y-120876111D01*
X150177056Y-120785117D01*
X150196271Y-120688518D01*
X150196271Y-120590026D01*
X150177056Y-120493427D01*
X150139365Y-120402433D01*
X150084646Y-120320541D01*
X150015002Y-120250897D01*
X149933110Y-120196178D01*
X149842116Y-120158487D01*
X149745517Y-120139272D01*
X149647025Y-120139272D01*
X149550426Y-120158487D01*
X149459432Y-120196178D01*
X149377540Y-120250897D01*
X149307896Y-120320541D01*
X149253177Y-120402433D01*
X149215486Y-120493427D01*
X149196271Y-120590026D01*
X144614519Y-120590026D01*
X144600084Y-120443462D01*
X144537184Y-120236112D01*
X144435042Y-120045016D01*
X144297581Y-119877519D01*
X144130084Y-119740058D01*
X143938988Y-119637916D01*
X143731638Y-119575016D01*
X143570036Y-119559100D01*
X143461964Y-119559100D01*
X143300362Y-119575016D01*
X143093012Y-119637916D01*
X142901916Y-119740058D01*
X142734419Y-119877519D01*
X142596958Y-120045016D01*
X142494816Y-120236112D01*
X142431916Y-120443462D01*
X142410678Y-120659100D01*
X127788789Y-120659100D01*
X127426340Y-118711721D01*
X127455715Y-118745069D01*
X127634869Y-118881915D01*
X127837278Y-118981180D01*
X128055164Y-119039049D01*
X128235000Y-118978989D01*
X128235000Y-117909000D01*
X128245000Y-117909000D01*
X128245000Y-118978989D01*
X128424836Y-119039049D01*
X128642722Y-118981180D01*
X128845131Y-118881915D01*
X129024285Y-118745069D01*
X129173300Y-118575902D01*
X129286448Y-118380914D01*
X129359382Y-118167598D01*
X129369029Y-118119100D01*
X142410678Y-118119100D01*
X142431916Y-118334738D01*
X142494816Y-118542088D01*
X142596958Y-118733184D01*
X142734419Y-118900681D01*
X142901916Y-119038142D01*
X143093012Y-119140284D01*
X143300362Y-119203184D01*
X143461964Y-119219100D01*
X143570036Y-119219100D01*
X143731638Y-119203184D01*
X143938988Y-119140284D01*
X144130084Y-119038142D01*
X144297581Y-118900681D01*
X144435042Y-118733184D01*
X144537184Y-118542088D01*
X144600084Y-118334738D01*
X144615855Y-118174600D01*
X146933615Y-118174600D01*
X146933615Y-118273092D01*
X146952830Y-118369691D01*
X146990521Y-118460685D01*
X147045240Y-118542577D01*
X147114884Y-118612221D01*
X147196776Y-118666940D01*
X147287770Y-118704631D01*
X147384369Y-118723846D01*
X147482861Y-118723846D01*
X147551706Y-118710152D01*
X147474571Y-118761692D01*
X147404927Y-118831336D01*
X147350208Y-118913228D01*
X147312517Y-119004222D01*
X147293302Y-119100821D01*
X147293302Y-119199313D01*
X147312517Y-119295912D01*
X147350208Y-119386906D01*
X147404927Y-119468798D01*
X147474571Y-119538442D01*
X147556463Y-119593161D01*
X147647457Y-119630852D01*
X147744056Y-119650067D01*
X147842548Y-119650067D01*
X147939147Y-119630852D01*
X148030141Y-119593161D01*
X148112033Y-119538442D01*
X148149975Y-119500500D01*
X152436000Y-119500500D01*
X152436000Y-119598992D01*
X152455215Y-119695591D01*
X152492906Y-119786585D01*
X152547625Y-119868477D01*
X152617269Y-119938121D01*
X152699161Y-119992840D01*
X152790155Y-120030531D01*
X152886754Y-120049746D01*
X152985246Y-120049746D01*
X153081845Y-120030531D01*
X153172839Y-119992840D01*
X153254731Y-119938121D01*
X153324375Y-119868477D01*
X153379094Y-119786585D01*
X153416785Y-119695591D01*
X153436000Y-119598992D01*
X153436000Y-119500500D01*
X153416785Y-119403901D01*
X153379094Y-119312907D01*
X153324375Y-119231015D01*
X153254731Y-119161371D01*
X153172839Y-119106652D01*
X153081845Y-119068961D01*
X152985246Y-119049746D01*
X152886754Y-119049746D01*
X152790155Y-119068961D01*
X152699161Y-119106652D01*
X152617269Y-119161371D01*
X152547625Y-119231015D01*
X152492906Y-119312907D01*
X152455215Y-119403901D01*
X152436000Y-119500500D01*
X148149975Y-119500500D01*
X148181677Y-119468798D01*
X148236396Y-119386906D01*
X148274087Y-119295912D01*
X148293302Y-119199313D01*
X148293302Y-119100821D01*
X148274087Y-119004222D01*
X148236396Y-118913228D01*
X148181677Y-118831336D01*
X148112033Y-118761692D01*
X148030141Y-118706973D01*
X147939147Y-118669282D01*
X147842548Y-118650067D01*
X147744056Y-118650067D01*
X147675211Y-118663761D01*
X147752346Y-118612221D01*
X147821990Y-118542577D01*
X147876709Y-118460685D01*
X147914400Y-118369691D01*
X147933615Y-118273092D01*
X147933615Y-118174600D01*
X147914400Y-118078001D01*
X147876709Y-117987007D01*
X147821990Y-117905115D01*
X147752346Y-117835471D01*
X147670454Y-117780752D01*
X147579460Y-117743061D01*
X147482861Y-117723846D01*
X147384369Y-117723846D01*
X147287770Y-117743061D01*
X147196776Y-117780752D01*
X147114884Y-117835471D01*
X147045240Y-117905115D01*
X146990521Y-117987007D01*
X146952830Y-118078001D01*
X146933615Y-118174600D01*
X144615855Y-118174600D01*
X144621322Y-118119100D01*
X144600084Y-117903462D01*
X144537184Y-117696112D01*
X144435042Y-117505016D01*
X144297581Y-117337519D01*
X144154222Y-117219867D01*
X147826870Y-117219867D01*
X147826870Y-117318359D01*
X147846085Y-117414958D01*
X147883776Y-117505952D01*
X147938495Y-117587844D01*
X148008139Y-117657488D01*
X148090031Y-117712207D01*
X148181025Y-117749898D01*
X148277624Y-117769113D01*
X148376116Y-117769113D01*
X148472715Y-117749898D01*
X148563709Y-117712207D01*
X148645601Y-117657488D01*
X148715245Y-117587844D01*
X148769964Y-117505952D01*
X148807655Y-117414958D01*
X148826870Y-117318359D01*
X148826870Y-117219867D01*
X148820881Y-117189754D01*
X150430000Y-117189754D01*
X150430000Y-117288246D01*
X150449215Y-117384845D01*
X150486906Y-117475839D01*
X150541625Y-117557731D01*
X150611269Y-117627375D01*
X150693161Y-117682094D01*
X150784155Y-117719785D01*
X150880754Y-117739000D01*
X150979246Y-117739000D01*
X151075845Y-117719785D01*
X151166839Y-117682094D01*
X151248731Y-117627375D01*
X151318375Y-117557731D01*
X151373094Y-117475839D01*
X151410785Y-117384845D01*
X151430000Y-117288246D01*
X151430000Y-117189754D01*
X151421058Y-117144796D01*
X153313445Y-117144796D01*
X153313445Y-117243288D01*
X153332660Y-117339887D01*
X153370351Y-117430881D01*
X153425070Y-117512773D01*
X153494714Y-117582417D01*
X153576606Y-117637136D01*
X153667600Y-117674827D01*
X153764199Y-117694042D01*
X153862691Y-117694042D01*
X153940417Y-117678581D01*
X153888973Y-117730025D01*
X153834254Y-117811917D01*
X153796563Y-117902911D01*
X153777348Y-117999510D01*
X153777348Y-118098002D01*
X153796563Y-118194601D01*
X153834254Y-118285595D01*
X153888973Y-118367487D01*
X153958617Y-118437131D01*
X154040509Y-118491850D01*
X154131503Y-118529541D01*
X154228102Y-118548756D01*
X154326594Y-118548756D01*
X154423193Y-118529541D01*
X154514187Y-118491850D01*
X154596079Y-118437131D01*
X154665723Y-118367487D01*
X154720442Y-118285595D01*
X154758133Y-118194601D01*
X154777348Y-118098002D01*
X154777348Y-117999510D01*
X154758133Y-117902911D01*
X154720442Y-117811917D01*
X154665723Y-117730025D01*
X154596079Y-117660381D01*
X154514187Y-117605662D01*
X154423193Y-117567971D01*
X154326594Y-117548756D01*
X154228102Y-117548756D01*
X154150376Y-117564217D01*
X154201820Y-117512773D01*
X154256539Y-117430881D01*
X154294230Y-117339887D01*
X154313445Y-117243288D01*
X154313445Y-117144796D01*
X154294230Y-117048197D01*
X154256539Y-116957203D01*
X154201820Y-116875311D01*
X154132176Y-116805667D01*
X154050284Y-116750948D01*
X153959290Y-116713257D01*
X153862691Y-116694042D01*
X153764199Y-116694042D01*
X153667600Y-116713257D01*
X153576606Y-116750948D01*
X153494714Y-116805667D01*
X153425070Y-116875311D01*
X153370351Y-116957203D01*
X153332660Y-117048197D01*
X153313445Y-117144796D01*
X151421058Y-117144796D01*
X151410785Y-117093155D01*
X151373094Y-117002161D01*
X151318375Y-116920269D01*
X151248731Y-116850625D01*
X151166839Y-116795906D01*
X151075845Y-116758215D01*
X150979246Y-116739000D01*
X150880754Y-116739000D01*
X150784155Y-116758215D01*
X150693161Y-116795906D01*
X150611269Y-116850625D01*
X150541625Y-116920269D01*
X150486906Y-117002161D01*
X150449215Y-117093155D01*
X150430000Y-117189754D01*
X148820881Y-117189754D01*
X148807655Y-117123268D01*
X148769964Y-117032274D01*
X148715245Y-116950382D01*
X148645601Y-116880738D01*
X148563709Y-116826019D01*
X148472715Y-116788328D01*
X148376116Y-116769113D01*
X148277624Y-116769113D01*
X148181025Y-116788328D01*
X148090031Y-116826019D01*
X148008139Y-116880738D01*
X147938495Y-116950382D01*
X147883776Y-117032274D01*
X147846085Y-117123268D01*
X147826870Y-117219867D01*
X144154222Y-117219867D01*
X144130084Y-117200058D01*
X143938988Y-117097916D01*
X143731638Y-117035016D01*
X143570036Y-117019100D01*
X143461964Y-117019100D01*
X143300362Y-117035016D01*
X143093012Y-117097916D01*
X142901916Y-117200058D01*
X142734419Y-117337519D01*
X142596958Y-117505016D01*
X142494816Y-117696112D01*
X142431916Y-117903462D01*
X142410678Y-118119100D01*
X129369029Y-118119100D01*
X129375049Y-118088836D01*
X129314988Y-117909000D01*
X128245000Y-117909000D01*
X128235000Y-117909000D01*
X128215000Y-117909000D01*
X128215000Y-117899000D01*
X128235000Y-117899000D01*
X128235000Y-116829011D01*
X128245000Y-116829011D01*
X128245000Y-117899000D01*
X129314988Y-117899000D01*
X129375049Y-117719164D01*
X129359382Y-117640402D01*
X129286448Y-117427086D01*
X129173300Y-117232098D01*
X129024285Y-117062931D01*
X128845131Y-116926085D01*
X128642722Y-116826820D01*
X128424836Y-116768951D01*
X128245000Y-116829011D01*
X128235000Y-116829011D01*
X128055164Y-116768951D01*
X127837278Y-116826820D01*
X127634869Y-116926085D01*
X127455715Y-117062931D01*
X127306700Y-117232098D01*
X127193552Y-117427086D01*
X127189466Y-117439036D01*
X127035514Y-116611876D01*
X126990892Y-115364000D01*
X127134678Y-115364000D01*
X127155916Y-115579638D01*
X127218816Y-115786988D01*
X127320958Y-115978084D01*
X127458419Y-116145581D01*
X127625916Y-116283042D01*
X127817012Y-116385184D01*
X128024362Y-116448084D01*
X128185964Y-116464000D01*
X128294036Y-116464000D01*
X128455638Y-116448084D01*
X128662988Y-116385184D01*
X128854084Y-116283042D01*
X129021581Y-116145581D01*
X129159042Y-115978084D01*
X129261184Y-115786988D01*
X129324084Y-115579638D01*
X129324136Y-115579100D01*
X142410678Y-115579100D01*
X142431916Y-115794738D01*
X142494816Y-116002088D01*
X142596958Y-116193184D01*
X142734419Y-116360681D01*
X142901916Y-116498142D01*
X143093012Y-116600284D01*
X143300362Y-116663184D01*
X143461964Y-116679100D01*
X143570036Y-116679100D01*
X143731638Y-116663184D01*
X143938988Y-116600284D01*
X144130084Y-116498142D01*
X144297581Y-116360681D01*
X144300014Y-116357716D01*
X153991904Y-116357716D01*
X153991904Y-116456208D01*
X154011119Y-116552807D01*
X154048810Y-116643801D01*
X154103529Y-116725693D01*
X154173173Y-116795337D01*
X154255065Y-116850056D01*
X154322536Y-116878003D01*
X154317921Y-116901202D01*
X154317921Y-116999694D01*
X154337136Y-117096293D01*
X154374827Y-117187287D01*
X154429546Y-117269179D01*
X154499190Y-117338823D01*
X154581082Y-117393542D01*
X154672076Y-117431233D01*
X154768675Y-117450448D01*
X154867167Y-117450448D01*
X154963766Y-117431233D01*
X155054760Y-117393542D01*
X155136652Y-117338823D01*
X155206296Y-117269179D01*
X155261015Y-117187287D01*
X155298706Y-117096293D01*
X155317921Y-116999694D01*
X155317921Y-116901202D01*
X155298706Y-116804603D01*
X155261015Y-116713609D01*
X155206296Y-116631717D01*
X155136652Y-116562073D01*
X155054760Y-116507354D01*
X154987289Y-116479407D01*
X154991904Y-116456208D01*
X154991904Y-116357716D01*
X154972689Y-116261117D01*
X154934998Y-116170123D01*
X154880279Y-116088231D01*
X154810635Y-116018587D01*
X154728743Y-115963868D01*
X154637749Y-115926177D01*
X154541150Y-115906962D01*
X154442658Y-115906962D01*
X154346059Y-115926177D01*
X154255065Y-115963868D01*
X154173173Y-116018587D01*
X154103529Y-116088231D01*
X154048810Y-116170123D01*
X154011119Y-116261117D01*
X153991904Y-116357716D01*
X144300014Y-116357716D01*
X144435042Y-116193184D01*
X144537184Y-116002088D01*
X144600084Y-115794738D01*
X144621322Y-115579100D01*
X144619910Y-115564754D01*
X146230000Y-115564754D01*
X146230000Y-115663246D01*
X146249215Y-115759845D01*
X146286906Y-115850839D01*
X146341625Y-115932731D01*
X146411269Y-116002375D01*
X146493161Y-116057094D01*
X146584155Y-116094785D01*
X146680754Y-116114000D01*
X146779246Y-116114000D01*
X146875845Y-116094785D01*
X146966839Y-116057094D01*
X147048731Y-116002375D01*
X147118375Y-115932731D01*
X147173094Y-115850839D01*
X147210785Y-115759845D01*
X147230000Y-115663246D01*
X147230000Y-115564754D01*
X147210785Y-115468155D01*
X147173094Y-115377161D01*
X147118375Y-115295269D01*
X147048731Y-115225625D01*
X146966839Y-115170906D01*
X146875845Y-115133215D01*
X146779246Y-115114000D01*
X146680754Y-115114000D01*
X146584155Y-115133215D01*
X146493161Y-115170906D01*
X146411269Y-115225625D01*
X146341625Y-115295269D01*
X146286906Y-115377161D01*
X146249215Y-115468155D01*
X146230000Y-115564754D01*
X144619910Y-115564754D01*
X144600084Y-115363462D01*
X144537184Y-115156112D01*
X144435042Y-114965016D01*
X144297581Y-114797519D01*
X144130084Y-114660058D01*
X143938988Y-114557916D01*
X143731638Y-114495016D01*
X143570036Y-114479100D01*
X143461964Y-114479100D01*
X143300362Y-114495016D01*
X143093012Y-114557916D01*
X142901916Y-114660058D01*
X142734419Y-114797519D01*
X142596958Y-114965016D01*
X142494816Y-115156112D01*
X142431916Y-115363462D01*
X142410678Y-115579100D01*
X129324136Y-115579100D01*
X129345322Y-115364000D01*
X129324084Y-115148362D01*
X129261184Y-114941012D01*
X129159042Y-114749916D01*
X129021581Y-114582419D01*
X128889294Y-114473854D01*
X148276000Y-114473854D01*
X148276000Y-114572346D01*
X148295215Y-114668945D01*
X148332906Y-114759939D01*
X148387625Y-114841831D01*
X148457269Y-114911475D01*
X148539161Y-114966194D01*
X148630155Y-115003885D01*
X148726754Y-115023100D01*
X148825246Y-115023100D01*
X148921845Y-115003885D01*
X149012839Y-114966194D01*
X149094731Y-114911475D01*
X149164375Y-114841831D01*
X149219094Y-114759939D01*
X149256785Y-114668945D01*
X149276000Y-114572346D01*
X149276000Y-114473854D01*
X149256785Y-114377255D01*
X149219094Y-114286261D01*
X149164375Y-114204369D01*
X149094731Y-114134725D01*
X149065656Y-114115297D01*
X153756679Y-114115297D01*
X153756679Y-114213789D01*
X153775894Y-114310388D01*
X153813585Y-114401382D01*
X153868304Y-114483274D01*
X153937948Y-114552918D01*
X154019840Y-114607637D01*
X154110834Y-114645328D01*
X154207433Y-114664543D01*
X154305925Y-114664543D01*
X154402524Y-114645328D01*
X154493518Y-114607637D01*
X154575410Y-114552918D01*
X154645054Y-114483274D01*
X154699773Y-114401382D01*
X154737464Y-114310388D01*
X154756679Y-114213789D01*
X154756679Y-114115297D01*
X154737464Y-114018698D01*
X154699773Y-113927704D01*
X154699267Y-113926946D01*
X155424815Y-113926946D01*
X155424815Y-114025438D01*
X155444030Y-114122037D01*
X155481721Y-114213031D01*
X155536440Y-114294923D01*
X155606084Y-114364567D01*
X155687976Y-114419286D01*
X155778970Y-114456977D01*
X155875569Y-114476192D01*
X155974061Y-114476192D01*
X156070660Y-114456977D01*
X156161654Y-114419286D01*
X156243546Y-114364567D01*
X156313190Y-114294923D01*
X156367909Y-114213031D01*
X156405600Y-114122037D01*
X156424815Y-114025438D01*
X156424815Y-113926946D01*
X156405600Y-113830347D01*
X156367909Y-113739353D01*
X156313190Y-113657461D01*
X156243546Y-113587817D01*
X156161654Y-113533098D01*
X156070660Y-113495407D01*
X155974061Y-113476192D01*
X155875569Y-113476192D01*
X155778970Y-113495407D01*
X155687976Y-113533098D01*
X155606084Y-113587817D01*
X155536440Y-113657461D01*
X155481721Y-113739353D01*
X155444030Y-113830347D01*
X155424815Y-113926946D01*
X154699267Y-113926946D01*
X154645054Y-113845812D01*
X154575410Y-113776168D01*
X154493518Y-113721449D01*
X154402524Y-113683758D01*
X154305925Y-113664543D01*
X154207433Y-113664543D01*
X154110834Y-113683758D01*
X154019840Y-113721449D01*
X153937948Y-113776168D01*
X153868304Y-113845812D01*
X153813585Y-113927704D01*
X153775894Y-114018698D01*
X153756679Y-114115297D01*
X149065656Y-114115297D01*
X149012839Y-114080006D01*
X148921845Y-114042315D01*
X148825246Y-114023100D01*
X148726754Y-114023100D01*
X148630155Y-114042315D01*
X148539161Y-114080006D01*
X148457269Y-114134725D01*
X148387625Y-114204369D01*
X148332906Y-114286261D01*
X148295215Y-114377255D01*
X148276000Y-114473854D01*
X128889294Y-114473854D01*
X128854084Y-114444958D01*
X128662988Y-114342816D01*
X128455638Y-114279916D01*
X128294036Y-114264000D01*
X128185964Y-114264000D01*
X128024362Y-114279916D01*
X127817012Y-114342816D01*
X127625916Y-114444958D01*
X127458419Y-114582419D01*
X127320958Y-114749916D01*
X127218816Y-114941012D01*
X127155916Y-115148362D01*
X127134678Y-115364000D01*
X126990892Y-115364000D01*
X126900116Y-112825460D01*
X126900210Y-112824000D01*
X127134678Y-112824000D01*
X127155916Y-113039638D01*
X127218816Y-113246988D01*
X127320958Y-113438084D01*
X127458419Y-113605581D01*
X127625916Y-113743042D01*
X127817012Y-113845184D01*
X128024362Y-113908084D01*
X128185964Y-113924000D01*
X128294036Y-113924000D01*
X128455638Y-113908084D01*
X128662988Y-113845184D01*
X128854084Y-113743042D01*
X129021581Y-113605581D01*
X129159042Y-113438084D01*
X129261184Y-113246988D01*
X129324084Y-113039638D01*
X129324136Y-113039100D01*
X142410678Y-113039100D01*
X142431916Y-113254738D01*
X142494816Y-113462088D01*
X142596958Y-113653184D01*
X142734419Y-113820681D01*
X142901916Y-113958142D01*
X143093012Y-114060284D01*
X143300362Y-114123184D01*
X143461964Y-114139100D01*
X143570036Y-114139100D01*
X143731638Y-114123184D01*
X143938988Y-114060284D01*
X144130084Y-113958142D01*
X144297581Y-113820681D01*
X144435042Y-113653184D01*
X144537184Y-113462088D01*
X144600084Y-113254738D01*
X144621322Y-113039100D01*
X157650678Y-113039100D01*
X157671916Y-113254738D01*
X157734816Y-113462088D01*
X157836958Y-113653184D01*
X157974419Y-113820681D01*
X158141916Y-113958142D01*
X158333012Y-114060284D01*
X158540362Y-114123184D01*
X158701964Y-114139100D01*
X158810036Y-114139100D01*
X158971638Y-114123184D01*
X159178988Y-114060284D01*
X159370084Y-113958142D01*
X159537581Y-113820681D01*
X159675042Y-113653184D01*
X159777184Y-113462088D01*
X159840084Y-113254738D01*
X159861322Y-113039100D01*
X159840084Y-112823462D01*
X159803845Y-112704000D01*
X173164678Y-112704000D01*
X173185916Y-112919638D01*
X173248816Y-113126988D01*
X173350958Y-113318084D01*
X173488419Y-113485581D01*
X173655916Y-113623042D01*
X173847012Y-113725184D01*
X174054362Y-113788084D01*
X174215964Y-113804000D01*
X174324036Y-113804000D01*
X174485638Y-113788084D01*
X174692988Y-113725184D01*
X174884084Y-113623042D01*
X175051581Y-113485581D01*
X175189042Y-113318084D01*
X175291184Y-113126988D01*
X175354084Y-112919638D01*
X175375322Y-112704000D01*
X175354084Y-112488362D01*
X175291184Y-112281012D01*
X175189042Y-112089916D01*
X175051581Y-111922419D01*
X174884084Y-111784958D01*
X174692988Y-111682816D01*
X174485638Y-111619916D01*
X174324036Y-111604000D01*
X174215964Y-111604000D01*
X174054362Y-111619916D01*
X173847012Y-111682816D01*
X173655916Y-111784958D01*
X173488419Y-111922419D01*
X173350958Y-112089916D01*
X173248816Y-112281012D01*
X173185916Y-112488362D01*
X173164678Y-112704000D01*
X159803845Y-112704000D01*
X159777184Y-112616112D01*
X159675042Y-112425016D01*
X159537581Y-112257519D01*
X159370084Y-112120058D01*
X159178988Y-112017916D01*
X158971638Y-111955016D01*
X158810036Y-111939100D01*
X158701964Y-111939100D01*
X158540362Y-111955016D01*
X158333012Y-112017916D01*
X158141916Y-112120058D01*
X157974419Y-112257519D01*
X157836958Y-112425016D01*
X157734816Y-112616112D01*
X157671916Y-112823462D01*
X157650678Y-113039100D01*
X144621322Y-113039100D01*
X144600084Y-112823462D01*
X144537184Y-112616112D01*
X144435042Y-112425016D01*
X144297581Y-112257519D01*
X144130084Y-112120058D01*
X143938988Y-112017916D01*
X143930503Y-112015342D01*
X153429411Y-112015342D01*
X153429411Y-112113834D01*
X153448626Y-112210433D01*
X153486317Y-112301427D01*
X153541036Y-112383319D01*
X153610680Y-112452963D01*
X153692572Y-112507682D01*
X153783566Y-112545373D01*
X153880165Y-112564588D01*
X153978657Y-112564588D01*
X154075256Y-112545373D01*
X154166250Y-112507682D01*
X154248142Y-112452963D01*
X154317786Y-112383319D01*
X154372505Y-112301427D01*
X154410196Y-112210433D01*
X154429411Y-112113834D01*
X154429411Y-112015342D01*
X154410196Y-111918743D01*
X154372505Y-111827749D01*
X154317786Y-111745857D01*
X154248142Y-111676213D01*
X154166250Y-111621494D01*
X154075256Y-111583803D01*
X153978657Y-111564588D01*
X153880165Y-111564588D01*
X153783566Y-111583803D01*
X153692572Y-111621494D01*
X153610680Y-111676213D01*
X153541036Y-111745857D01*
X153486317Y-111827749D01*
X153448626Y-111918743D01*
X153429411Y-112015342D01*
X143930503Y-112015342D01*
X143731638Y-111955016D01*
X143570036Y-111939100D01*
X143461964Y-111939100D01*
X143300362Y-111955016D01*
X143093012Y-112017916D01*
X142901916Y-112120058D01*
X142734419Y-112257519D01*
X142596958Y-112425016D01*
X142494816Y-112616112D01*
X142431916Y-112823462D01*
X142410678Y-113039100D01*
X129324136Y-113039100D01*
X129345322Y-112824000D01*
X129324084Y-112608362D01*
X129261184Y-112401012D01*
X129159042Y-112209916D01*
X129021581Y-112042419D01*
X128854084Y-111904958D01*
X128662988Y-111802816D01*
X128455638Y-111739916D01*
X128294036Y-111724000D01*
X128185964Y-111724000D01*
X128024362Y-111739916D01*
X127817012Y-111802816D01*
X127625916Y-111904958D01*
X127458419Y-112042419D01*
X127320958Y-112209916D01*
X127218816Y-112401012D01*
X127155916Y-112608362D01*
X127134678Y-112824000D01*
X126900210Y-112824000D01*
X127084294Y-109993101D01*
X127138791Y-109746082D01*
X127138791Y-111134000D01*
X127143618Y-111183008D01*
X127157913Y-111230134D01*
X127181127Y-111273564D01*
X127212368Y-111311632D01*
X127250436Y-111342873D01*
X127293866Y-111366087D01*
X127340992Y-111380382D01*
X127390000Y-111385209D01*
X129090000Y-111385209D01*
X129139008Y-111380382D01*
X129186134Y-111366087D01*
X129229564Y-111342873D01*
X129267632Y-111311632D01*
X129298873Y-111273564D01*
X129322087Y-111230134D01*
X129336382Y-111183008D01*
X129341209Y-111134000D01*
X129341209Y-110499100D01*
X142410678Y-110499100D01*
X142431916Y-110714738D01*
X142494816Y-110922088D01*
X142596958Y-111113184D01*
X142734419Y-111280681D01*
X142901916Y-111418142D01*
X143093012Y-111520284D01*
X143300362Y-111583184D01*
X143461964Y-111599100D01*
X143570036Y-111599100D01*
X143731638Y-111583184D01*
X143938988Y-111520284D01*
X144130084Y-111418142D01*
X144297581Y-111280681D01*
X144435042Y-111113184D01*
X144496169Y-110998822D01*
X151015987Y-110998822D01*
X151015987Y-111097314D01*
X151035202Y-111193913D01*
X151072893Y-111284907D01*
X151127612Y-111366799D01*
X151197256Y-111436443D01*
X151279148Y-111491162D01*
X151370142Y-111528853D01*
X151466741Y-111548068D01*
X151565233Y-111548068D01*
X151661832Y-111528853D01*
X151752826Y-111491162D01*
X151834718Y-111436443D01*
X151904362Y-111366799D01*
X151959081Y-111284907D01*
X151996772Y-111193913D01*
X152015987Y-111097314D01*
X152015987Y-110998822D01*
X151996772Y-110902223D01*
X151959081Y-110811229D01*
X151904362Y-110729337D01*
X151834718Y-110659693D01*
X151752826Y-110604974D01*
X151661832Y-110567283D01*
X151565233Y-110548068D01*
X151466741Y-110548068D01*
X151370142Y-110567283D01*
X151279148Y-110604974D01*
X151197256Y-110659693D01*
X151127612Y-110729337D01*
X151072893Y-110811229D01*
X151035202Y-110902223D01*
X151015987Y-110998822D01*
X144496169Y-110998822D01*
X144537184Y-110922088D01*
X144600084Y-110714738D01*
X144621322Y-110499100D01*
X157650678Y-110499100D01*
X157671916Y-110714738D01*
X157734816Y-110922088D01*
X157836958Y-111113184D01*
X157974419Y-111280681D01*
X158141916Y-111418142D01*
X158333012Y-111520284D01*
X158540362Y-111583184D01*
X158701964Y-111599100D01*
X158810036Y-111599100D01*
X158971638Y-111583184D01*
X159178988Y-111520284D01*
X159370084Y-111418142D01*
X159537581Y-111280681D01*
X159675042Y-111113184D01*
X159777184Y-110922088D01*
X159840084Y-110714738D01*
X159861322Y-110499100D01*
X159840084Y-110283462D01*
X159777184Y-110076112D01*
X159675042Y-109885016D01*
X159537581Y-109717519D01*
X159370084Y-109580058D01*
X159178988Y-109477916D01*
X158971638Y-109415016D01*
X158810036Y-109399100D01*
X158701964Y-109399100D01*
X158540362Y-109415016D01*
X158333012Y-109477916D01*
X158141916Y-109580058D01*
X157974419Y-109717519D01*
X157836958Y-109885016D01*
X157734816Y-110076112D01*
X157671916Y-110283462D01*
X157650678Y-110499100D01*
X144621322Y-110499100D01*
X144600084Y-110283462D01*
X144537184Y-110076112D01*
X144435042Y-109885016D01*
X144297581Y-109717519D01*
X144130084Y-109580058D01*
X143938988Y-109477916D01*
X143797232Y-109434914D01*
X146489800Y-109434914D01*
X146489800Y-109533406D01*
X146509015Y-109630005D01*
X146546706Y-109720999D01*
X146601425Y-109802891D01*
X146671069Y-109872535D01*
X146752961Y-109927254D01*
X146843955Y-109964945D01*
X146940554Y-109984160D01*
X147039046Y-109984160D01*
X147135645Y-109964945D01*
X147226639Y-109927254D01*
X147308531Y-109872535D01*
X147378175Y-109802891D01*
X147432894Y-109720999D01*
X147470585Y-109630005D01*
X147489800Y-109533406D01*
X147489800Y-109434914D01*
X147470585Y-109338315D01*
X147457554Y-109306854D01*
X148604000Y-109306854D01*
X148604000Y-109405346D01*
X148623215Y-109501945D01*
X148660906Y-109592939D01*
X148715625Y-109674831D01*
X148785269Y-109744475D01*
X148867161Y-109799194D01*
X148958155Y-109836885D01*
X149054754Y-109856100D01*
X149153246Y-109856100D01*
X149249845Y-109836885D01*
X149340839Y-109799194D01*
X149422731Y-109744475D01*
X149492375Y-109674831D01*
X149547094Y-109592939D01*
X149584785Y-109501945D01*
X149604000Y-109405346D01*
X149604000Y-109404273D01*
X154710442Y-109404273D01*
X154710442Y-109502765D01*
X154729657Y-109599364D01*
X154767348Y-109690358D01*
X154822067Y-109772250D01*
X154891711Y-109841894D01*
X154973603Y-109896613D01*
X155064597Y-109934304D01*
X155161196Y-109953519D01*
X155259688Y-109953519D01*
X155356287Y-109934304D01*
X155447281Y-109896613D01*
X155529173Y-109841894D01*
X155598817Y-109772250D01*
X155653536Y-109690358D01*
X155691227Y-109599364D01*
X155710442Y-109502765D01*
X155710442Y-109404273D01*
X155691227Y-109307674D01*
X155653536Y-109216680D01*
X155598817Y-109134788D01*
X155529173Y-109065144D01*
X155447281Y-109010425D01*
X155356287Y-108972734D01*
X155259688Y-108953519D01*
X155161196Y-108953519D01*
X155064597Y-108972734D01*
X154973603Y-109010425D01*
X154891711Y-109065144D01*
X154822067Y-109134788D01*
X154767348Y-109216680D01*
X154729657Y-109307674D01*
X154710442Y-109404273D01*
X149604000Y-109404273D01*
X149604000Y-109306854D01*
X149584785Y-109210255D01*
X149547094Y-109119261D01*
X149492375Y-109037369D01*
X149422731Y-108967725D01*
X149340839Y-108913006D01*
X149249845Y-108875315D01*
X149153246Y-108856100D01*
X149054754Y-108856100D01*
X148958155Y-108875315D01*
X148867161Y-108913006D01*
X148785269Y-108967725D01*
X148715625Y-109037369D01*
X148660906Y-109119261D01*
X148623215Y-109210255D01*
X148604000Y-109306854D01*
X147457554Y-109306854D01*
X147432894Y-109247321D01*
X147378175Y-109165429D01*
X147308531Y-109095785D01*
X147226639Y-109041066D01*
X147135645Y-109003375D01*
X147039046Y-108984160D01*
X146940554Y-108984160D01*
X146843955Y-109003375D01*
X146752961Y-109041066D01*
X146671069Y-109095785D01*
X146601425Y-109165429D01*
X146546706Y-109247321D01*
X146509015Y-109338315D01*
X146489800Y-109434914D01*
X143797232Y-109434914D01*
X143731638Y-109415016D01*
X143570036Y-109399100D01*
X143461964Y-109399100D01*
X143300362Y-109415016D01*
X143093012Y-109477916D01*
X142901916Y-109580058D01*
X142734419Y-109717519D01*
X142596958Y-109885016D01*
X142494816Y-110076112D01*
X142431916Y-110283462D01*
X142410678Y-110499100D01*
X129341209Y-110499100D01*
X129341209Y-109434000D01*
X129336382Y-109384992D01*
X129322087Y-109337866D01*
X129298873Y-109294436D01*
X129267632Y-109256368D01*
X129229564Y-109225127D01*
X129186134Y-109201913D01*
X129139008Y-109187618D01*
X129090000Y-109182791D01*
X127390000Y-109182791D01*
X127340992Y-109187618D01*
X127293866Y-109201913D01*
X127254163Y-109223135D01*
X127533032Y-107959100D01*
X142410678Y-107959100D01*
X142431916Y-108174738D01*
X142494816Y-108382088D01*
X142596958Y-108573184D01*
X142734419Y-108740681D01*
X142901916Y-108878142D01*
X143093012Y-108980284D01*
X143300362Y-109043184D01*
X143461964Y-109059100D01*
X143570036Y-109059100D01*
X143731638Y-109043184D01*
X143938988Y-108980284D01*
X144130084Y-108878142D01*
X144297581Y-108740681D01*
X144355726Y-108669830D01*
X153170000Y-108669830D01*
X153170000Y-108778170D01*
X153191136Y-108884429D01*
X153232597Y-108984523D01*
X153292787Y-109074604D01*
X153369396Y-109151213D01*
X153459477Y-109211403D01*
X153559571Y-109252864D01*
X153665830Y-109274000D01*
X153774170Y-109274000D01*
X153880429Y-109252864D01*
X153980523Y-109211403D01*
X154070604Y-109151213D01*
X154147213Y-109074604D01*
X154207403Y-108984523D01*
X154248864Y-108884429D01*
X154270000Y-108778170D01*
X154270000Y-108669830D01*
X154248864Y-108563571D01*
X154207403Y-108463477D01*
X154147213Y-108373396D01*
X154070604Y-108296787D01*
X153980523Y-108236597D01*
X153880429Y-108195136D01*
X153774170Y-108174000D01*
X153665830Y-108174000D01*
X153559571Y-108195136D01*
X153459477Y-108236597D01*
X153369396Y-108296787D01*
X153292787Y-108373396D01*
X153232597Y-108463477D01*
X153191136Y-108563571D01*
X153170000Y-108669830D01*
X144355726Y-108669830D01*
X144435042Y-108573184D01*
X144537184Y-108382088D01*
X144600084Y-108174738D01*
X144621322Y-107959100D01*
X157650678Y-107959100D01*
X157671916Y-108174738D01*
X157734816Y-108382088D01*
X157836958Y-108573184D01*
X157974419Y-108740681D01*
X158141916Y-108878142D01*
X158333012Y-108980284D01*
X158540362Y-109043184D01*
X158701964Y-109059100D01*
X158810036Y-109059100D01*
X158971638Y-109043184D01*
X159178988Y-108980284D01*
X159370084Y-108878142D01*
X159537581Y-108740681D01*
X159675042Y-108573184D01*
X159777184Y-108382088D01*
X159840084Y-108174738D01*
X159861322Y-107959100D01*
X159840084Y-107743462D01*
X159777184Y-107536112D01*
X159675042Y-107345016D01*
X159537581Y-107177519D01*
X159370084Y-107040058D01*
X159178988Y-106937916D01*
X158971638Y-106875016D01*
X158810036Y-106859100D01*
X158701964Y-106859100D01*
X158540362Y-106875016D01*
X158333012Y-106937916D01*
X158141916Y-107040058D01*
X157974419Y-107177519D01*
X157836958Y-107345016D01*
X157734816Y-107536112D01*
X157671916Y-107743462D01*
X157650678Y-107959100D01*
X144621322Y-107959100D01*
X144600084Y-107743462D01*
X144537184Y-107536112D01*
X144435042Y-107345016D01*
X144297581Y-107177519D01*
X144130084Y-107040058D01*
X143938988Y-106937916D01*
X143731638Y-106875016D01*
X143570036Y-106859100D01*
X143461964Y-106859100D01*
X143300362Y-106875016D01*
X143093012Y-106937916D01*
X142901916Y-107040058D01*
X142734419Y-107177519D01*
X142596958Y-107345016D01*
X142494816Y-107536112D01*
X142431916Y-107743462D01*
X142410678Y-107959100D01*
X127533032Y-107959100D01*
X127788958Y-106799060D01*
X148574074Y-106799060D01*
X148574074Y-106897552D01*
X148593289Y-106994151D01*
X148630980Y-107085145D01*
X148685699Y-107167037D01*
X148755343Y-107236681D01*
X148837235Y-107291400D01*
X148928229Y-107329091D01*
X149024828Y-107348306D01*
X149123320Y-107348306D01*
X149219919Y-107329091D01*
X149310913Y-107291400D01*
X149392805Y-107236681D01*
X149462449Y-107167037D01*
X149517168Y-107085145D01*
X149554859Y-106994151D01*
X149574074Y-106897552D01*
X149574074Y-106799060D01*
X149554859Y-106702461D01*
X149517168Y-106611467D01*
X149462449Y-106529575D01*
X149392805Y-106459931D01*
X149332791Y-106419830D01*
X151520000Y-106419830D01*
X151520000Y-106528170D01*
X151541136Y-106634429D01*
X151582597Y-106734523D01*
X151642787Y-106824604D01*
X151719396Y-106901213D01*
X151809477Y-106961403D01*
X151909571Y-107002864D01*
X152015830Y-107024000D01*
X152124170Y-107024000D01*
X152230429Y-107002864D01*
X152330523Y-106961403D01*
X152420604Y-106901213D01*
X152497213Y-106824604D01*
X152557403Y-106734523D01*
X152598864Y-106634429D01*
X152620000Y-106528170D01*
X152620000Y-106419830D01*
X152598864Y-106313571D01*
X152557403Y-106213477D01*
X152497213Y-106123396D01*
X152420604Y-106046787D01*
X152330523Y-105986597D01*
X152230429Y-105945136D01*
X152124170Y-105924000D01*
X152015830Y-105924000D01*
X151909571Y-105945136D01*
X151809477Y-105986597D01*
X151719396Y-106046787D01*
X151642787Y-106123396D01*
X151582597Y-106213477D01*
X151541136Y-106313571D01*
X151520000Y-106419830D01*
X149332791Y-106419830D01*
X149310913Y-106405212D01*
X149219919Y-106367521D01*
X149123320Y-106348306D01*
X149024828Y-106348306D01*
X148928229Y-106367521D01*
X148837235Y-106405212D01*
X148755343Y-106459931D01*
X148685699Y-106529575D01*
X148630980Y-106611467D01*
X148593289Y-106702461D01*
X148574074Y-106799060D01*
X127788958Y-106799060D01*
X128070242Y-105524085D01*
X128108973Y-105419100D01*
X142410678Y-105419100D01*
X142431916Y-105634738D01*
X142494816Y-105842088D01*
X142596958Y-106033184D01*
X142734419Y-106200681D01*
X142901916Y-106338142D01*
X143093012Y-106440284D01*
X143300362Y-106503184D01*
X143461964Y-106519100D01*
X143570036Y-106519100D01*
X143731638Y-106503184D01*
X143938988Y-106440284D01*
X144130084Y-106338142D01*
X144297581Y-106200681D01*
X144435042Y-106033184D01*
X144537184Y-105842088D01*
X144580634Y-105698854D01*
X154886000Y-105698854D01*
X154886000Y-105797346D01*
X154905215Y-105893945D01*
X154942906Y-105984939D01*
X154997625Y-106066831D01*
X155067269Y-106136475D01*
X155149161Y-106191194D01*
X155240155Y-106228885D01*
X155336754Y-106248100D01*
X155435246Y-106248100D01*
X155531845Y-106228885D01*
X155622839Y-106191194D01*
X155704731Y-106136475D01*
X155774375Y-106066831D01*
X155829094Y-105984939D01*
X155866785Y-105893945D01*
X155886000Y-105797346D01*
X155886000Y-105698854D01*
X155866785Y-105602255D01*
X155829094Y-105511261D01*
X155774375Y-105429369D01*
X155764106Y-105419100D01*
X157650678Y-105419100D01*
X157671916Y-105634738D01*
X157734816Y-105842088D01*
X157836958Y-106033184D01*
X157974419Y-106200681D01*
X158141916Y-106338142D01*
X158333012Y-106440284D01*
X158540362Y-106503184D01*
X158701964Y-106519100D01*
X158810036Y-106519100D01*
X158971638Y-106503184D01*
X159178988Y-106440284D01*
X159370084Y-106338142D01*
X159537581Y-106200681D01*
X159675042Y-106033184D01*
X159777184Y-105842088D01*
X159840084Y-105634738D01*
X159861322Y-105419100D01*
X159840084Y-105203462D01*
X159777184Y-104996112D01*
X159675042Y-104805016D01*
X159537581Y-104637519D01*
X159370084Y-104500058D01*
X159178988Y-104397916D01*
X158971638Y-104335016D01*
X158810036Y-104319100D01*
X158701964Y-104319100D01*
X158540362Y-104335016D01*
X158333012Y-104397916D01*
X158141916Y-104500058D01*
X157974419Y-104637519D01*
X157836958Y-104805016D01*
X157734816Y-104996112D01*
X157671916Y-105203462D01*
X157650678Y-105419100D01*
X155764106Y-105419100D01*
X155704731Y-105359725D01*
X155622839Y-105305006D01*
X155531845Y-105267315D01*
X155435246Y-105248100D01*
X155336754Y-105248100D01*
X155240155Y-105267315D01*
X155149161Y-105305006D01*
X155067269Y-105359725D01*
X154997625Y-105429369D01*
X154942906Y-105511261D01*
X154905215Y-105602255D01*
X154886000Y-105698854D01*
X144580634Y-105698854D01*
X144600084Y-105634738D01*
X144621322Y-105419100D01*
X144600084Y-105203462D01*
X144537184Y-104996112D01*
X144435042Y-104805016D01*
X144297581Y-104637519D01*
X144130084Y-104500058D01*
X143938988Y-104397916D01*
X143731638Y-104335016D01*
X143570036Y-104319100D01*
X143461964Y-104319100D01*
X143300362Y-104335016D01*
X143093012Y-104397916D01*
X142901916Y-104500058D01*
X142734419Y-104637519D01*
X142596958Y-104805016D01*
X142494816Y-104996112D01*
X142431916Y-105203462D01*
X142410678Y-105419100D01*
X128108973Y-105419100D01*
X128337811Y-104798808D01*
X128759023Y-103982098D01*
X149508585Y-103982098D01*
X149508585Y-104080590D01*
X149527800Y-104177189D01*
X149565491Y-104268183D01*
X149620210Y-104350075D01*
X149689854Y-104419719D01*
X149771746Y-104474438D01*
X149862740Y-104512129D01*
X149959339Y-104531344D01*
X150057831Y-104531344D01*
X150154430Y-104512129D01*
X150245424Y-104474438D01*
X150327316Y-104419719D01*
X150396960Y-104350075D01*
X150451679Y-104268183D01*
X150489370Y-104177189D01*
X150508585Y-104080590D01*
X150508585Y-103985977D01*
X150685880Y-103985977D01*
X150685880Y-104084469D01*
X150705095Y-104181068D01*
X150742786Y-104272062D01*
X150797505Y-104353954D01*
X150867149Y-104423598D01*
X150949041Y-104478317D01*
X151040035Y-104516008D01*
X151136634Y-104535223D01*
X151235126Y-104535223D01*
X151331725Y-104516008D01*
X151422719Y-104478317D01*
X151504611Y-104423598D01*
X151574255Y-104353954D01*
X151628974Y-104272062D01*
X151666665Y-104181068D01*
X151685880Y-104084469D01*
X151685880Y-103985977D01*
X151666665Y-103889378D01*
X151628974Y-103798384D01*
X151574255Y-103716492D01*
X151504611Y-103646848D01*
X151422719Y-103592129D01*
X151331725Y-103554438D01*
X151235126Y-103535223D01*
X151136634Y-103535223D01*
X151040035Y-103554438D01*
X150949041Y-103592129D01*
X150867149Y-103646848D01*
X150797505Y-103716492D01*
X150742786Y-103798384D01*
X150705095Y-103889378D01*
X150685880Y-103985977D01*
X150508585Y-103985977D01*
X150508585Y-103982098D01*
X150489370Y-103885499D01*
X150451679Y-103794505D01*
X150396960Y-103712613D01*
X150327316Y-103642969D01*
X150245424Y-103588250D01*
X150154430Y-103550559D01*
X150057831Y-103531344D01*
X149959339Y-103531344D01*
X149862740Y-103550559D01*
X149771746Y-103588250D01*
X149689854Y-103642969D01*
X149620210Y-103712613D01*
X149565491Y-103794505D01*
X149527800Y-103885499D01*
X149508585Y-103982098D01*
X128759023Y-103982098D01*
X129327888Y-102879100D01*
X142410678Y-102879100D01*
X142431916Y-103094738D01*
X142494816Y-103302088D01*
X142596958Y-103493184D01*
X142734419Y-103660681D01*
X142901916Y-103798142D01*
X143093012Y-103900284D01*
X143300362Y-103963184D01*
X143461964Y-103979100D01*
X143570036Y-103979100D01*
X143731638Y-103963184D01*
X143938988Y-103900284D01*
X144130084Y-103798142D01*
X144297581Y-103660681D01*
X144435042Y-103493184D01*
X144537184Y-103302088D01*
X144600084Y-103094738D01*
X144621322Y-102879100D01*
X144616472Y-102829854D01*
X146826000Y-102829854D01*
X146826000Y-102928346D01*
X146845215Y-103024945D01*
X146882906Y-103115939D01*
X146937625Y-103197831D01*
X147007269Y-103267475D01*
X147089161Y-103322194D01*
X147180155Y-103359885D01*
X147276754Y-103379100D01*
X147375246Y-103379100D01*
X147471845Y-103359885D01*
X147562839Y-103322194D01*
X147644731Y-103267475D01*
X147714375Y-103197831D01*
X147769094Y-103115939D01*
X147806785Y-103024945D01*
X147826000Y-102928346D01*
X147826000Y-102879100D01*
X157650678Y-102879100D01*
X157671916Y-103094738D01*
X157734816Y-103302088D01*
X157836958Y-103493184D01*
X157974419Y-103660681D01*
X158141916Y-103798142D01*
X158333012Y-103900284D01*
X158540362Y-103963184D01*
X158701964Y-103979100D01*
X158810036Y-103979100D01*
X158971638Y-103963184D01*
X159178988Y-103900284D01*
X159370084Y-103798142D01*
X159537581Y-103660681D01*
X159675042Y-103493184D01*
X159777184Y-103302088D01*
X159840084Y-103094738D01*
X159861322Y-102879100D01*
X159840084Y-102663462D01*
X159777184Y-102456112D01*
X159675042Y-102265016D01*
X159537581Y-102097519D01*
X159370084Y-101960058D01*
X159178988Y-101857916D01*
X158971638Y-101795016D01*
X158810036Y-101779100D01*
X158701964Y-101779100D01*
X158540362Y-101795016D01*
X158333012Y-101857916D01*
X158141916Y-101960058D01*
X157974419Y-102097519D01*
X157836958Y-102265016D01*
X157734816Y-102456112D01*
X157671916Y-102663462D01*
X157650678Y-102879100D01*
X147826000Y-102879100D01*
X147826000Y-102829854D01*
X147806785Y-102733255D01*
X147769094Y-102642261D01*
X147714375Y-102560369D01*
X147644731Y-102490725D01*
X147562839Y-102436006D01*
X147471845Y-102398315D01*
X147375246Y-102379100D01*
X147276754Y-102379100D01*
X147180155Y-102398315D01*
X147089161Y-102436006D01*
X147007269Y-102490725D01*
X146937625Y-102560369D01*
X146882906Y-102642261D01*
X146845215Y-102733255D01*
X146826000Y-102829854D01*
X144616472Y-102829854D01*
X144600084Y-102663462D01*
X144537184Y-102456112D01*
X144435042Y-102265016D01*
X144297581Y-102097519D01*
X144130084Y-101960058D01*
X143938988Y-101857916D01*
X143826703Y-101823854D01*
X147711000Y-101823854D01*
X147711000Y-101922346D01*
X147730215Y-102018945D01*
X147767906Y-102109939D01*
X147822625Y-102191831D01*
X147892269Y-102261475D01*
X147974161Y-102316194D01*
X148065155Y-102353885D01*
X148161754Y-102373100D01*
X148260246Y-102373100D01*
X148356845Y-102353885D01*
X148447839Y-102316194D01*
X148529731Y-102261475D01*
X148599375Y-102191831D01*
X148654094Y-102109939D01*
X148665005Y-102083598D01*
X148744287Y-102136573D01*
X148835281Y-102174264D01*
X148931880Y-102193479D01*
X149030372Y-102193479D01*
X149126971Y-102174264D01*
X149217965Y-102136573D01*
X149299857Y-102081854D01*
X149369501Y-102012210D01*
X149424220Y-101930318D01*
X149461911Y-101839324D01*
X149481126Y-101742725D01*
X149481126Y-101644233D01*
X149461911Y-101547634D01*
X149424220Y-101456640D01*
X149369501Y-101374748D01*
X149299857Y-101305104D01*
X149217965Y-101250385D01*
X149126971Y-101212694D01*
X149030372Y-101193479D01*
X148931880Y-101193479D01*
X148835281Y-101212694D01*
X148744287Y-101250385D01*
X148662395Y-101305104D01*
X148592751Y-101374748D01*
X148538032Y-101456640D01*
X148527121Y-101482981D01*
X148447839Y-101430006D01*
X148356845Y-101392315D01*
X148260246Y-101373100D01*
X148161754Y-101373100D01*
X148065155Y-101392315D01*
X147974161Y-101430006D01*
X147892269Y-101484725D01*
X147822625Y-101554369D01*
X147767906Y-101636261D01*
X147730215Y-101727255D01*
X147711000Y-101823854D01*
X143826703Y-101823854D01*
X143731638Y-101795016D01*
X143570036Y-101779100D01*
X143461964Y-101779100D01*
X143300362Y-101795016D01*
X143093012Y-101857916D01*
X142901916Y-101960058D01*
X142734419Y-102097519D01*
X142596958Y-102265016D01*
X142494816Y-102456112D01*
X142431916Y-102663462D01*
X142410678Y-102879100D01*
X129327888Y-102879100D01*
X130292535Y-101008702D01*
X130739947Y-100339100D01*
X142410678Y-100339100D01*
X142431916Y-100554738D01*
X142494816Y-100762088D01*
X142596958Y-100953184D01*
X142734419Y-101120681D01*
X142901916Y-101258142D01*
X143093012Y-101360284D01*
X143300362Y-101423184D01*
X143461964Y-101439100D01*
X143570036Y-101439100D01*
X143731638Y-101423184D01*
X143938988Y-101360284D01*
X144130084Y-101258142D01*
X144297581Y-101120681D01*
X144435042Y-100953184D01*
X144537184Y-100762088D01*
X144600084Y-100554738D01*
X144603117Y-100523936D01*
X157620951Y-100523936D01*
X157636618Y-100602698D01*
X157709552Y-100816014D01*
X157822700Y-101011002D01*
X157971715Y-101180169D01*
X158150869Y-101317015D01*
X158353278Y-101416280D01*
X158571164Y-101474149D01*
X158751000Y-101414089D01*
X158751000Y-100344100D01*
X158761000Y-100344100D01*
X158761000Y-101414089D01*
X158940836Y-101474149D01*
X159158722Y-101416280D01*
X159361131Y-101317015D01*
X159540285Y-101180169D01*
X159689300Y-101011002D01*
X159802448Y-100816014D01*
X159875382Y-100602698D01*
X159891049Y-100523936D01*
X159830988Y-100344100D01*
X158761000Y-100344100D01*
X158751000Y-100344100D01*
X157681012Y-100344100D01*
X157620951Y-100523936D01*
X144603117Y-100523936D01*
X144621322Y-100339100D01*
X144603118Y-100154264D01*
X157620951Y-100154264D01*
X157681012Y-100334100D01*
X158751000Y-100334100D01*
X158751000Y-99264111D01*
X158761000Y-99264111D01*
X158761000Y-100334100D01*
X159830988Y-100334100D01*
X159891049Y-100154264D01*
X159875382Y-100075502D01*
X159802448Y-99862186D01*
X159689300Y-99667198D01*
X159540285Y-99498031D01*
X159361131Y-99361185D01*
X159158722Y-99261920D01*
X158940836Y-99204051D01*
X158761000Y-99264111D01*
X158751000Y-99264111D01*
X158571164Y-99204051D01*
X158353278Y-99261920D01*
X158150869Y-99361185D01*
X157971715Y-99498031D01*
X157822700Y-99667198D01*
X157709552Y-99862186D01*
X157636618Y-100075502D01*
X157620951Y-100154264D01*
X144603118Y-100154264D01*
X144600084Y-100123462D01*
X144537184Y-99916112D01*
X144435042Y-99725016D01*
X144297581Y-99557519D01*
X144130084Y-99420058D01*
X143938988Y-99317916D01*
X143731638Y-99255016D01*
X143570036Y-99239100D01*
X143461964Y-99239100D01*
X143300362Y-99255016D01*
X143093012Y-99317916D01*
X142901916Y-99420058D01*
X142734419Y-99557519D01*
X142596958Y-99725016D01*
X142494816Y-99916112D01*
X142431916Y-100123462D01*
X142410678Y-100339100D01*
X130739947Y-100339100D01*
X130796918Y-100253838D01*
X131323773Y-99646862D01*
X132582466Y-99646862D01*
X132652053Y-99823230D01*
X132836438Y-99952943D01*
X133042585Y-100044191D01*
X133262573Y-100093468D01*
X133487948Y-100098882D01*
X133710047Y-100060222D01*
X133920338Y-99978976D01*
X133990744Y-99940350D01*
X134089900Y-99778745D01*
X133402125Y-98959086D01*
X132582466Y-99646862D01*
X131323773Y-99646862D01*
X132383413Y-98426079D01*
X132364760Y-98456971D01*
X132288121Y-98668983D01*
X132254316Y-98891874D01*
X132264644Y-99117076D01*
X132318709Y-99335937D01*
X132414433Y-99540045D01*
X132576038Y-99639201D01*
X133394228Y-98952658D01*
X133409785Y-98952658D01*
X134097560Y-99772317D01*
X134273929Y-99702730D01*
X134324194Y-99640101D01*
X134440722Y-99447113D01*
X134517361Y-99235101D01*
X134551166Y-99012210D01*
X134540838Y-98787008D01*
X134506771Y-98649100D01*
X142364548Y-98649100D01*
X142370340Y-98707910D01*
X142387495Y-98764461D01*
X142415352Y-98816578D01*
X142452841Y-98862259D01*
X142498522Y-98899748D01*
X142550639Y-98927605D01*
X142607190Y-98944760D01*
X142666000Y-98950552D01*
X143436000Y-98949100D01*
X143511000Y-98874100D01*
X143511000Y-97804100D01*
X143521000Y-97804100D01*
X143521000Y-98874100D01*
X143596000Y-98949100D01*
X144366000Y-98950552D01*
X144424810Y-98944760D01*
X144481361Y-98927605D01*
X144533478Y-98899748D01*
X144579159Y-98862259D01*
X144616648Y-98816578D01*
X144644505Y-98764461D01*
X144661660Y-98707910D01*
X144667452Y-98649100D01*
X144666000Y-97879100D01*
X144591000Y-97804100D01*
X143521000Y-97804100D01*
X143511000Y-97804100D01*
X142441000Y-97804100D01*
X142366000Y-97879100D01*
X142364548Y-98649100D01*
X134506771Y-98649100D01*
X134486773Y-98568147D01*
X134391049Y-98364039D01*
X134229444Y-98264883D01*
X133409785Y-98952658D01*
X133394228Y-98952658D01*
X133395697Y-98951426D01*
X133382841Y-98936105D01*
X133390501Y-98929677D01*
X133403357Y-98944998D01*
X134223016Y-98257222D01*
X134153429Y-98080854D01*
X133969044Y-97951141D01*
X133762897Y-97859893D01*
X133542909Y-97810616D01*
X133317534Y-97805202D01*
X133095435Y-97843862D01*
X132885144Y-97925108D01*
X132814738Y-97963734D01*
X132715583Y-98125338D01*
X132681094Y-98084235D01*
X133439077Y-97319361D01*
X134243172Y-97319361D01*
X134264410Y-97534999D01*
X134327310Y-97742349D01*
X134429452Y-97933445D01*
X134566913Y-98100942D01*
X134734410Y-98238403D01*
X134925506Y-98340545D01*
X135132856Y-98403445D01*
X135294458Y-98419361D01*
X135402530Y-98419361D01*
X135564132Y-98403445D01*
X135771482Y-98340545D01*
X135962578Y-98238403D01*
X136130075Y-98100942D01*
X136267536Y-97933445D01*
X136369678Y-97742349D01*
X136432578Y-97534999D01*
X136453816Y-97319361D01*
X136432578Y-97103723D01*
X136385673Y-96949100D01*
X142364548Y-96949100D01*
X142366000Y-97719100D01*
X142441000Y-97794100D01*
X143511000Y-97794100D01*
X143511000Y-96724100D01*
X143521000Y-96724100D01*
X143521000Y-97794100D01*
X144591000Y-97794100D01*
X144666000Y-97719100D01*
X144666053Y-97690759D01*
X157656000Y-97690759D01*
X157656000Y-97907441D01*
X157698273Y-98119958D01*
X157781193Y-98320145D01*
X157901575Y-98500309D01*
X158054791Y-98653525D01*
X158234955Y-98773907D01*
X158435142Y-98856827D01*
X158647659Y-98899100D01*
X158864341Y-98899100D01*
X159076858Y-98856827D01*
X159277045Y-98773907D01*
X159457209Y-98653525D01*
X159610425Y-98500309D01*
X159730807Y-98320145D01*
X159813727Y-98119958D01*
X159856000Y-97907441D01*
X159856000Y-97690759D01*
X159813727Y-97478242D01*
X159730807Y-97278055D01*
X159610425Y-97097891D01*
X159457209Y-96944675D01*
X159277045Y-96824293D01*
X159076858Y-96741373D01*
X158864341Y-96699100D01*
X158647659Y-96699100D01*
X158435142Y-96741373D01*
X158234955Y-96824293D01*
X158054791Y-96944675D01*
X157901575Y-97097891D01*
X157781193Y-97278055D01*
X157698273Y-97478242D01*
X157656000Y-97690759D01*
X144666053Y-97690759D01*
X144667452Y-96949100D01*
X144661660Y-96890290D01*
X144644505Y-96833739D01*
X144616648Y-96781622D01*
X144579159Y-96735941D01*
X144533478Y-96698452D01*
X144481361Y-96670595D01*
X144471050Y-96667467D01*
X164845950Y-96667467D01*
X164971662Y-96809399D01*
X165047706Y-96835212D01*
X165268910Y-96878708D01*
X165494348Y-96878213D01*
X165715359Y-96833745D01*
X165923448Y-96747016D01*
X166110618Y-96621357D01*
X166269677Y-96461597D01*
X166307582Y-96275825D01*
X165380944Y-95740830D01*
X164845950Y-96667467D01*
X144471050Y-96667467D01*
X144424810Y-96653440D01*
X144366000Y-96647648D01*
X143596000Y-96649100D01*
X143521000Y-96724100D01*
X143511000Y-96724100D01*
X143436000Y-96649100D01*
X142666000Y-96647648D01*
X142607190Y-96653440D01*
X142550639Y-96670595D01*
X142498522Y-96698452D01*
X142452841Y-96735941D01*
X142415352Y-96781622D01*
X142387495Y-96833739D01*
X142370340Y-96890290D01*
X142364548Y-96949100D01*
X136385673Y-96949100D01*
X136369678Y-96896373D01*
X136267536Y-96705277D01*
X136130075Y-96537780D01*
X135962578Y-96400319D01*
X135771482Y-96298177D01*
X135564132Y-96235277D01*
X135402530Y-96219361D01*
X135294458Y-96219361D01*
X135132856Y-96235277D01*
X134925506Y-96298177D01*
X134734410Y-96400319D01*
X134566913Y-96537780D01*
X134429452Y-96705277D01*
X134327310Y-96896373D01*
X134264410Y-97103723D01*
X134243172Y-97319361D01*
X133439077Y-97319361D01*
X134865416Y-95880055D01*
X135130241Y-95686681D01*
X136188925Y-95686681D01*
X136210163Y-95902319D01*
X136273063Y-96109669D01*
X136375205Y-96300765D01*
X136512666Y-96468262D01*
X136680163Y-96605723D01*
X136871259Y-96707865D01*
X137078609Y-96770765D01*
X137240211Y-96786681D01*
X137348283Y-96786681D01*
X137509885Y-96770765D01*
X137717235Y-96707865D01*
X137908331Y-96605723D01*
X138075828Y-96468262D01*
X138213289Y-96300765D01*
X138315431Y-96109669D01*
X138378331Y-95902319D01*
X138391451Y-95769101D01*
X164229649Y-95769101D01*
X164258584Y-95992676D01*
X164330580Y-96206311D01*
X164442870Y-96401794D01*
X164591140Y-96571614D01*
X164651517Y-96624563D01*
X164837290Y-96662467D01*
X165372284Y-95735830D01*
X165365945Y-95732170D01*
X165385944Y-95732170D01*
X166312582Y-96267164D01*
X166454513Y-96141452D01*
X166513340Y-95923823D01*
X166528579Y-95698899D01*
X166499644Y-95475324D01*
X166427648Y-95261689D01*
X166315358Y-95066206D01*
X166167088Y-94896386D01*
X166106711Y-94843437D01*
X165920938Y-94805533D01*
X165385944Y-95732170D01*
X165365945Y-95732170D01*
X164445646Y-95200836D01*
X164303715Y-95326548D01*
X164244888Y-95544177D01*
X164229649Y-95769101D01*
X138391451Y-95769101D01*
X138399569Y-95686681D01*
X138378331Y-95471043D01*
X138315431Y-95263693D01*
X138213289Y-95072597D01*
X138075828Y-94905100D01*
X137908331Y-94767639D01*
X137717235Y-94665497D01*
X137509885Y-94602597D01*
X137348283Y-94586681D01*
X137240211Y-94586681D01*
X137078609Y-94602597D01*
X136871259Y-94665497D01*
X136680163Y-94767639D01*
X136512666Y-94905100D01*
X136375205Y-95072597D01*
X136273063Y-95263693D01*
X136210163Y-95471043D01*
X136188925Y-95686681D01*
X135130241Y-95686681D01*
X138603759Y-93150344D01*
X137881019Y-93756795D01*
X137846579Y-93791994D01*
X137819668Y-93833237D01*
X137801320Y-93878936D01*
X137792240Y-93927338D01*
X137792777Y-93976580D01*
X137802911Y-94024772D01*
X137822251Y-94070061D01*
X137850056Y-94110706D01*
X138942795Y-95412981D01*
X138977994Y-95447421D01*
X139019237Y-95474332D01*
X139064936Y-95492680D01*
X139113338Y-95501760D01*
X139162580Y-95501223D01*
X139210772Y-95491089D01*
X139256061Y-95471749D01*
X139296706Y-95443944D01*
X140464557Y-94464000D01*
X162074087Y-94464000D01*
X162095325Y-94679638D01*
X162158225Y-94886988D01*
X162260367Y-95078084D01*
X162397828Y-95245581D01*
X162565325Y-95383042D01*
X162756421Y-95485184D01*
X162963771Y-95548084D01*
X163125373Y-95564000D01*
X163233445Y-95564000D01*
X163395047Y-95548084D01*
X163602397Y-95485184D01*
X163793493Y-95383042D01*
X163960990Y-95245581D01*
X164004819Y-95192175D01*
X164450646Y-95192175D01*
X165377284Y-95727170D01*
X165912278Y-94800533D01*
X165786566Y-94658601D01*
X165710522Y-94632788D01*
X165489318Y-94589292D01*
X165263880Y-94589787D01*
X165042869Y-94634255D01*
X164834780Y-94720984D01*
X164647610Y-94846643D01*
X164488551Y-95006403D01*
X164450646Y-95192175D01*
X164004819Y-95192175D01*
X164098451Y-95078084D01*
X164200593Y-94886988D01*
X164263493Y-94679638D01*
X164284731Y-94464000D01*
X164263493Y-94248362D01*
X164200593Y-94041012D01*
X164098451Y-93849916D01*
X163960990Y-93682419D01*
X163793493Y-93544958D01*
X163602397Y-93442816D01*
X163395047Y-93379916D01*
X163233445Y-93364000D01*
X163125373Y-93364000D01*
X162963771Y-93379916D01*
X162756421Y-93442816D01*
X162565325Y-93544958D01*
X162397828Y-93682419D01*
X162260367Y-93849916D01*
X162158225Y-94041012D01*
X162095325Y-94248362D01*
X162074087Y-94464000D01*
X140464557Y-94464000D01*
X140598981Y-94351205D01*
X140633421Y-94316006D01*
X140660332Y-94274763D01*
X140678680Y-94229064D01*
X140687760Y-94180662D01*
X140687223Y-94131420D01*
X140677089Y-94083228D01*
X140657749Y-94037939D01*
X140629944Y-93997294D01*
X139537205Y-92695019D01*
X139502006Y-92660579D01*
X139460763Y-92633668D01*
X139415064Y-92615320D01*
X139366662Y-92606240D01*
X139348641Y-92606437D01*
X139517801Y-92482917D01*
X144018161Y-90810217D01*
X148980718Y-89734000D01*
X153875081Y-89734000D01*
X158039193Y-91004698D01*
M02*
