G04 #@! TF.GenerationSoftware,KiCad,Pcbnew,5.1.0-060a0da~80~ubuntu18.04.1*
G04 #@! TF.CreationDate,2019-05-28T03:43:47+02:00*
G04 #@! TF.ProjectId,TinyFPGA-BX,54696e79-4650-4474-912d-42582e6b6963,rev?*
G04 #@! TF.SameCoordinates,Original*
G04 #@! TF.FileFunction,Paste,Top*
G04 #@! TF.FilePolarity,Positive*
%FSLAX46Y46*%
G04 Gerber Fmt 4.6, Leading zero omitted, Abs format (unit mm)*
G04 Created by KiCad (PCBNEW 5.1.0-060a0da~80~ubuntu18.04.1) date 2019-05-28 03:43:47*
%MOMM*%
%LPD*%
G04 APERTURE LIST*
%ADD10O,0.100000X0.335000*%
%ADD11O,0.100000X0.330000*%
%ADD12C,0.200000*%
%ADD13O,0.330000X0.100000*%
%ADD14O,0.335000X0.100000*%
%ADD15R,1.550000X0.600000*%
%ADD16R,0.600000X0.400000*%
%ADD17R,0.750000X0.800000*%
%ADD18R,0.500000X0.900000*%
%ADD19R,0.800000X0.800000*%
%ADD20R,0.400000X1.350000*%
%ADD21R,2.100000X1.600000*%
%ADD22R,1.800000X1.900000*%
%ADD23R,1.900000X1.900000*%
%ADD24R,0.900000X1.000000*%
%ADD25R,0.450000X0.950000*%
%ADD26R,0.400000X0.600000*%
%ADD27R,0.500000X0.600000*%
%ADD28R,0.600000X0.380000*%
%ADD29R,0.600000X0.500000*%
%ADD30R,1.050000X0.650000*%
%ADD31C,0.100000*%
%ADD32C,0.590000*%
%ADD33R,0.230000X0.350000*%
%ADD34R,0.350000X0.230000*%
G04 APERTURE END LIST*
D10*
X149530000Y-112514000D03*
D11*
X149930000Y-112514000D03*
D10*
X150330000Y-112514000D03*
X150730000Y-112514000D03*
D12*
X151130000Y-112514000D03*
D10*
X151530000Y-112514000D03*
X151930000Y-112514000D03*
X152330000Y-112514000D03*
X152730000Y-112514000D03*
D13*
X149530000Y-112914000D03*
D12*
X149930000Y-112914000D03*
X150330000Y-112914000D03*
X150730000Y-112914000D03*
X151130000Y-112914000D03*
X151530000Y-112914000D03*
X151930000Y-112914000D03*
X152330000Y-112914000D03*
X152730000Y-112914000D03*
D14*
X149530000Y-113314000D03*
D12*
X149930000Y-113314000D03*
X150330000Y-113314000D03*
X150730000Y-113314000D03*
X151130000Y-113314000D03*
X151530000Y-113314000D03*
X151930000Y-113314000D03*
X152330000Y-113314000D03*
D14*
X152730000Y-113314000D03*
X149530000Y-113714000D03*
D12*
X149930000Y-113714000D03*
X150330000Y-113714000D03*
X150730000Y-113714000D03*
X151130000Y-113714000D03*
X151530000Y-113714000D03*
X151930000Y-113714000D03*
X152330000Y-113714000D03*
D14*
X152730000Y-113714000D03*
X149530000Y-114114000D03*
D12*
X149930000Y-114114000D03*
X150330000Y-114114000D03*
X150730000Y-114114000D03*
X151130000Y-114114000D03*
X151530000Y-114114000D03*
X151930000Y-114114000D03*
X152330000Y-114114000D03*
D14*
X152730000Y-114114000D03*
D12*
X149530000Y-114514000D03*
X149930000Y-114514000D03*
X150330000Y-114514000D03*
X150730000Y-114514000D03*
X151130000Y-114514000D03*
X151530000Y-114514000D03*
X151930000Y-114514000D03*
X152330000Y-114514000D03*
D14*
X152730000Y-114514000D03*
X149530000Y-114914000D03*
D12*
X149930000Y-114914000D03*
X150330000Y-114914000D03*
X150730000Y-114914000D03*
X151130000Y-114914000D03*
X151530000Y-114914000D03*
X151930000Y-114914000D03*
X152330000Y-114914000D03*
D14*
X152730000Y-114914000D03*
D13*
X149530000Y-115314000D03*
D12*
X149930000Y-115314000D03*
X150330000Y-115314000D03*
X150730000Y-115314000D03*
X151130000Y-115314000D03*
X151530000Y-115314000D03*
X151930000Y-115314000D03*
X152330000Y-115314000D03*
D13*
X152730000Y-115314000D03*
D10*
X149530000Y-115714000D03*
D11*
X149930000Y-115714000D03*
D10*
X150330000Y-115714000D03*
X150730000Y-115714000D03*
X151130000Y-115714000D03*
X151530000Y-115714000D03*
X151930000Y-115714000D03*
D11*
X152330000Y-115714000D03*
D10*
X152730000Y-115714000D03*
D15*
X148436000Y-122353100D03*
X148436000Y-123623100D03*
X148436000Y-124893100D03*
X148436000Y-126163100D03*
X153836000Y-126163100D03*
X153836000Y-124893100D03*
X153836000Y-123623100D03*
X153836000Y-122353100D03*
D16*
X154536000Y-129923100D03*
X154536000Y-130823100D03*
D17*
X151736000Y-119373100D03*
X151736000Y-120873100D03*
X156036000Y-101673100D03*
X156036000Y-100173100D03*
D18*
X154636000Y-102423100D03*
X153136000Y-102423100D03*
D16*
X146183000Y-105223100D03*
X146183000Y-106123100D03*
X148215000Y-105223100D03*
X148215000Y-106123100D03*
D19*
X148215000Y-102587100D03*
X148215000Y-104187100D03*
X146183000Y-102587100D03*
X146183000Y-104187100D03*
D20*
X152436000Y-100648100D03*
X151786000Y-100648100D03*
X151136000Y-100648100D03*
X150486000Y-100648100D03*
X149836000Y-100648100D03*
D21*
X154236000Y-100523100D03*
X148036000Y-100523100D03*
D22*
X154936000Y-97973100D03*
X147336000Y-97973100D03*
D23*
X152336000Y-97973100D03*
X149936000Y-97973100D03*
D24*
X149086000Y-108423100D03*
X149086000Y-110323100D03*
X146986000Y-110323100D03*
X146986000Y-108423100D03*
D25*
X153636000Y-103873100D03*
X152686000Y-103873100D03*
X154586000Y-103873100D03*
X152686000Y-106473100D03*
X154586000Y-106473100D03*
D26*
X146450000Y-126954000D03*
X147350000Y-126954000D03*
D27*
X150555000Y-117864000D03*
X150555000Y-118964000D03*
D28*
X153930000Y-115914000D03*
X153930000Y-115014000D03*
D29*
X153830000Y-114164000D03*
X154930000Y-114164000D03*
D27*
X151130000Y-111514000D03*
X151130000Y-110414000D03*
D29*
X153555000Y-112439000D03*
X154655000Y-112439000D03*
X147986000Y-114923100D03*
X146886000Y-114923100D03*
X147986000Y-114123100D03*
X146886000Y-114123100D03*
X149069800Y-107349500D03*
X147969800Y-107349500D03*
D27*
X153255000Y-116964000D03*
X153255000Y-118064000D03*
X148836000Y-117273100D03*
X148836000Y-118373100D03*
X151736000Y-117123100D03*
X151736000Y-118223100D03*
D16*
X152936000Y-120873100D03*
X152936000Y-119973100D03*
D27*
X155336000Y-122373100D03*
X155336000Y-123473100D03*
D16*
X149636000Y-102273100D03*
X149636000Y-103173100D03*
X150636000Y-103173100D03*
X150636000Y-102273100D03*
X151636000Y-103173100D03*
X151636000Y-102273100D03*
D25*
X153936000Y-107623100D03*
X153286000Y-107623100D03*
X154586000Y-107623100D03*
X153286000Y-109823100D03*
X154586000Y-109823100D03*
D29*
X155386000Y-109923100D03*
X156486000Y-109923100D03*
X155386000Y-103923100D03*
X156486000Y-103923100D03*
X155386000Y-106323100D03*
X156486000Y-106323100D03*
X155386000Y-107523100D03*
X156486000Y-107523100D03*
D30*
X149061000Y-128648100D03*
X153211000Y-128648100D03*
X153211000Y-130798100D03*
X149061000Y-130798100D03*
D26*
X154690000Y-127064000D03*
X155590000Y-127064000D03*
D31*
G36*
X155141959Y-135569711D02*
G01*
X155156277Y-135571835D01*
X155170318Y-135575352D01*
X155183947Y-135580229D01*
X155197032Y-135586418D01*
X155209448Y-135593859D01*
X155221074Y-135602482D01*
X155231799Y-135612203D01*
X155241520Y-135622928D01*
X155250143Y-135634554D01*
X155257584Y-135646970D01*
X155263773Y-135660055D01*
X155268650Y-135673684D01*
X155272167Y-135687725D01*
X155274291Y-135702043D01*
X155275001Y-135716501D01*
X155275001Y-136061501D01*
X155274291Y-136075959D01*
X155272167Y-136090277D01*
X155268650Y-136104318D01*
X155263773Y-136117947D01*
X155257584Y-136131032D01*
X155250143Y-136143448D01*
X155241520Y-136155074D01*
X155231799Y-136165799D01*
X155221074Y-136175520D01*
X155209448Y-136184143D01*
X155197032Y-136191584D01*
X155183947Y-136197773D01*
X155170318Y-136202650D01*
X155156277Y-136206167D01*
X155141959Y-136208291D01*
X155127501Y-136209001D01*
X154832501Y-136209001D01*
X154818043Y-136208291D01*
X154803725Y-136206167D01*
X154789684Y-136202650D01*
X154776055Y-136197773D01*
X154762970Y-136191584D01*
X154750554Y-136184143D01*
X154738928Y-136175520D01*
X154728203Y-136165799D01*
X154718482Y-136155074D01*
X154709859Y-136143448D01*
X154702418Y-136131032D01*
X154696229Y-136117947D01*
X154691352Y-136104318D01*
X154687835Y-136090277D01*
X154685711Y-136075959D01*
X154685001Y-136061501D01*
X154685001Y-135716501D01*
X154685711Y-135702043D01*
X154687835Y-135687725D01*
X154691352Y-135673684D01*
X154696229Y-135660055D01*
X154702418Y-135646970D01*
X154709859Y-135634554D01*
X154718482Y-135622928D01*
X154728203Y-135612203D01*
X154738928Y-135602482D01*
X154750554Y-135593859D01*
X154762970Y-135586418D01*
X154776055Y-135580229D01*
X154789684Y-135575352D01*
X154803725Y-135571835D01*
X154818043Y-135569711D01*
X154832501Y-135569001D01*
X155127501Y-135569001D01*
X155141959Y-135569711D01*
X155141959Y-135569711D01*
G37*
D32*
X154980001Y-135889001D03*
D31*
G36*
X156111959Y-135569711D02*
G01*
X156126277Y-135571835D01*
X156140318Y-135575352D01*
X156153947Y-135580229D01*
X156167032Y-135586418D01*
X156179448Y-135593859D01*
X156191074Y-135602482D01*
X156201799Y-135612203D01*
X156211520Y-135622928D01*
X156220143Y-135634554D01*
X156227584Y-135646970D01*
X156233773Y-135660055D01*
X156238650Y-135673684D01*
X156242167Y-135687725D01*
X156244291Y-135702043D01*
X156245001Y-135716501D01*
X156245001Y-136061501D01*
X156244291Y-136075959D01*
X156242167Y-136090277D01*
X156238650Y-136104318D01*
X156233773Y-136117947D01*
X156227584Y-136131032D01*
X156220143Y-136143448D01*
X156211520Y-136155074D01*
X156201799Y-136165799D01*
X156191074Y-136175520D01*
X156179448Y-136184143D01*
X156167032Y-136191584D01*
X156153947Y-136197773D01*
X156140318Y-136202650D01*
X156126277Y-136206167D01*
X156111959Y-136208291D01*
X156097501Y-136209001D01*
X155802501Y-136209001D01*
X155788043Y-136208291D01*
X155773725Y-136206167D01*
X155759684Y-136202650D01*
X155746055Y-136197773D01*
X155732970Y-136191584D01*
X155720554Y-136184143D01*
X155708928Y-136175520D01*
X155698203Y-136165799D01*
X155688482Y-136155074D01*
X155679859Y-136143448D01*
X155672418Y-136131032D01*
X155666229Y-136117947D01*
X155661352Y-136104318D01*
X155657835Y-136090277D01*
X155655711Y-136075959D01*
X155655001Y-136061501D01*
X155655001Y-135716501D01*
X155655711Y-135702043D01*
X155657835Y-135687725D01*
X155661352Y-135673684D01*
X155666229Y-135660055D01*
X155672418Y-135646970D01*
X155679859Y-135634554D01*
X155688482Y-135622928D01*
X155698203Y-135612203D01*
X155708928Y-135602482D01*
X155720554Y-135593859D01*
X155732970Y-135586418D01*
X155746055Y-135580229D01*
X155759684Y-135575352D01*
X155773725Y-135571835D01*
X155788043Y-135569711D01*
X155802501Y-135569001D01*
X156097501Y-135569001D01*
X156111959Y-135569711D01*
X156111959Y-135569711D01*
G37*
D32*
X155950001Y-135889001D03*
D31*
G36*
X156111959Y-137559711D02*
G01*
X156126277Y-137561835D01*
X156140318Y-137565352D01*
X156153947Y-137570229D01*
X156167032Y-137576418D01*
X156179448Y-137583859D01*
X156191074Y-137592482D01*
X156201799Y-137602203D01*
X156211520Y-137612928D01*
X156220143Y-137624554D01*
X156227584Y-137636970D01*
X156233773Y-137650055D01*
X156238650Y-137663684D01*
X156242167Y-137677725D01*
X156244291Y-137692043D01*
X156245001Y-137706501D01*
X156245001Y-138051501D01*
X156244291Y-138065959D01*
X156242167Y-138080277D01*
X156238650Y-138094318D01*
X156233773Y-138107947D01*
X156227584Y-138121032D01*
X156220143Y-138133448D01*
X156211520Y-138145074D01*
X156201799Y-138155799D01*
X156191074Y-138165520D01*
X156179448Y-138174143D01*
X156167032Y-138181584D01*
X156153947Y-138187773D01*
X156140318Y-138192650D01*
X156126277Y-138196167D01*
X156111959Y-138198291D01*
X156097501Y-138199001D01*
X155802501Y-138199001D01*
X155788043Y-138198291D01*
X155773725Y-138196167D01*
X155759684Y-138192650D01*
X155746055Y-138187773D01*
X155732970Y-138181584D01*
X155720554Y-138174143D01*
X155708928Y-138165520D01*
X155698203Y-138155799D01*
X155688482Y-138145074D01*
X155679859Y-138133448D01*
X155672418Y-138121032D01*
X155666229Y-138107947D01*
X155661352Y-138094318D01*
X155657835Y-138080277D01*
X155655711Y-138065959D01*
X155655001Y-138051501D01*
X155655001Y-137706501D01*
X155655711Y-137692043D01*
X155657835Y-137677725D01*
X155661352Y-137663684D01*
X155666229Y-137650055D01*
X155672418Y-137636970D01*
X155679859Y-137624554D01*
X155688482Y-137612928D01*
X155698203Y-137602203D01*
X155708928Y-137592482D01*
X155720554Y-137583859D01*
X155732970Y-137576418D01*
X155746055Y-137570229D01*
X155759684Y-137565352D01*
X155773725Y-137561835D01*
X155788043Y-137559711D01*
X155802501Y-137559001D01*
X156097501Y-137559001D01*
X156111959Y-137559711D01*
X156111959Y-137559711D01*
G37*
D32*
X155950001Y-137879001D03*
D31*
G36*
X155141959Y-137559711D02*
G01*
X155156277Y-137561835D01*
X155170318Y-137565352D01*
X155183947Y-137570229D01*
X155197032Y-137576418D01*
X155209448Y-137583859D01*
X155221074Y-137592482D01*
X155231799Y-137602203D01*
X155241520Y-137612928D01*
X155250143Y-137624554D01*
X155257584Y-137636970D01*
X155263773Y-137650055D01*
X155268650Y-137663684D01*
X155272167Y-137677725D01*
X155274291Y-137692043D01*
X155275001Y-137706501D01*
X155275001Y-138051501D01*
X155274291Y-138065959D01*
X155272167Y-138080277D01*
X155268650Y-138094318D01*
X155263773Y-138107947D01*
X155257584Y-138121032D01*
X155250143Y-138133448D01*
X155241520Y-138145074D01*
X155231799Y-138155799D01*
X155221074Y-138165520D01*
X155209448Y-138174143D01*
X155197032Y-138181584D01*
X155183947Y-138187773D01*
X155170318Y-138192650D01*
X155156277Y-138196167D01*
X155141959Y-138198291D01*
X155127501Y-138199001D01*
X154832501Y-138199001D01*
X154818043Y-138198291D01*
X154803725Y-138196167D01*
X154789684Y-138192650D01*
X154776055Y-138187773D01*
X154762970Y-138181584D01*
X154750554Y-138174143D01*
X154738928Y-138165520D01*
X154728203Y-138155799D01*
X154718482Y-138145074D01*
X154709859Y-138133448D01*
X154702418Y-138121032D01*
X154696229Y-138107947D01*
X154691352Y-138094318D01*
X154687835Y-138080277D01*
X154685711Y-138065959D01*
X154685001Y-138051501D01*
X154685001Y-137706501D01*
X154685711Y-137692043D01*
X154687835Y-137677725D01*
X154691352Y-137663684D01*
X154696229Y-137650055D01*
X154702418Y-137636970D01*
X154709859Y-137624554D01*
X154718482Y-137612928D01*
X154728203Y-137602203D01*
X154738928Y-137592482D01*
X154750554Y-137583859D01*
X154762970Y-137576418D01*
X154776055Y-137570229D01*
X154789684Y-137565352D01*
X154803725Y-137561835D01*
X154818043Y-137559711D01*
X154832501Y-137559001D01*
X155127501Y-137559001D01*
X155141959Y-137559711D01*
X155141959Y-137559711D01*
G37*
D32*
X154980001Y-137879001D03*
D33*
X149885001Y-136079001D03*
D34*
X149915001Y-136659001D03*
X152865001Y-136659001D03*
X149915001Y-137089001D03*
X152865001Y-137089001D03*
X149915001Y-137519001D03*
X152865001Y-137519001D03*
X149915001Y-137949001D03*
X152865001Y-137949001D03*
D33*
X150315001Y-136079001D03*
X150745001Y-136079001D03*
X151175001Y-136079001D03*
X151605001Y-136079001D03*
X152035001Y-136079001D03*
X152465001Y-136079001D03*
X152895001Y-136079001D03*
X149885001Y-138529001D03*
X150315001Y-138529001D03*
X150745001Y-138529001D03*
X151175001Y-138529001D03*
X151605001Y-138529001D03*
X152035001Y-138529001D03*
X152465001Y-138529001D03*
X152895001Y-138529001D03*
M02*
